<?xml version="1.0" standalone="no"?>
<!DOCTYPE svg PUBLIC "-//W3C//DTD SVG 1.1//EN" "http://www.w3.org/Graphics/SVG/1.1/DTD/svg11.dtd" >
<svg xmlns="http://www.w3.org/2000/svg">
<metadata></metadata>
<defs>
<font id="honeywell_cond_webitalic" horiz-adv-x="535" >
<font-face units-per-em="1000" ascent="780" descent="-220" />
<missing-glyph horiz-adv-x="169" />
<glyph unicode="fi" horiz-adv-x="457" d="M282 439h-111l-68 -439h-52l69 439h-68l7 43h68l15 83q13 80 49 114t84 34q16 0 33 -4t30 -15l-23 -44q-20 14 -44 14q-29 0 -50 -22.5t-30 -79.5l-12 -80h111zM379 615q0 22 11.5 35.5t32.5 13.5q34 0 34 -35q0 -23 -12.5 -36t-32.5 -13q-16 0 -24.5 9.5t-8.5 25.5z M371 482h52l-76 -482h-52z" />
<glyph unicode="fl" horiz-adv-x="455" d="M282 439h-111l-68 -439h-52l69 439h-68l7 43h68l15 83q11 79 48 113.5t85 34.5q16 0 33 -4t30 -15l-23 -44q-20 14 -44 14q-29 0 -50 -22.5t-30 -79.5l-12 -80h111zM379 0q-41 0 -62.5 23t-12.5 79l94 598h51l-94 -597q-5 -32 5 -44.5t30 -12.5h24l-7 -46h-28z" />
<glyph horiz-adv-x="131" />
<glyph horiz-adv-x="131" />
<glyph unicode="&#xd;" horiz-adv-x="131" />
<glyph unicode=" "  horiz-adv-x="169" />
<glyph unicode="&#x09;" horiz-adv-x="169" />
<glyph unicode="&#xa0;" horiz-adv-x="169" />
<glyph unicode="!" horiz-adv-x="164" d="M183 700l-90 -519h-42l75 519h57zM88 44q0 -50 -44 -50q-15 0 -23.5 9.5t-8.5 25.5q0 22 10.5 35.5t32.5 13.5q33 0 33 -34z" />
<glyph unicode="&#x22;" horiz-adv-x="221" d="M115 528h-39l22 183h48zM205 528h-40l28 183h47z" />
<glyph unicode="#" horiz-adv-x="545" d="M323 259l74 188h-147l-74 -188h147zM223 0l84 216h-148l-84 -216h-52l84 216h-83l19 43h80l74 188h-88l18 43h86l83 210h52l-82 -210h148l81 210h53l-82 -210h84l-18 -43h-83l-74 -188h91l-18 -43h-88l-84 -216h-53z" />
<glyph unicode="$" horiz-adv-x="422" d="M131 505q0 -41 20 -67t59 -45l5 -2l40 247q-62 -3 -93 -40.5t-31 -92.5zM326 200q0 38 -16.5 67t-62.5 50l-8 3l-41 -264q58 5 93 41t35 103zM144 -62l12 76q-27 3 -51 12.5t-44 27.5t-34 46t-20 68l46 20q8 -66 36.5 -96t73.5 -36l43 278l-5 3q-57 26 -88 64t-31 96 q0 39 12 72t35 57.5t56.5 38.5t76.5 16l13 85h36l-14 -85q51 -5 86 -40.5t41 -104.5l-45 -19q-7 57 -30.5 85t-58.5 33l-42 -259l8 -4q61 -27 90.5 -65t29.5 -98q0 -91 -51 -141t-133 -54l-12 -76h-36z" />
<glyph unicode="%" horiz-adv-x="762" d="M231 709q49 0 73.5 -30t24.5 -97q0 -19 -2 -39.5t-5 -45.5q-17 -113 -54.5 -162t-99.5 -49q-49 0 -73.5 30.5t-24.5 97.5q0 19 1.5 39.5t5.5 43.5q17 113 54.5 162.5t99.5 49.5zM603 700l-359 -700h-49l360 700h48zM228 673q-39 0 -66 -39t-43 -136q-4 -26 -5.5 -47 t-1.5 -38q0 -51 15.5 -71t44.5 -20q19 0 35.5 9t30 29t24 53.5t18.5 83.5q4 26 6 47t2 38q0 50 -15.5 70.5t-44.5 20.5zM632 416q49 0 73.5 -30t24.5 -97q0 -19 -2 -39.5t-5 -45.5q-17 -113 -54.5 -162t-99.5 -49q-49 0 -73.5 30.5t-24.5 97.5q0 19 1.5 39.5t5.5 43.5 q17 113 54.5 162.5t99.5 49.5zM629 380q-39 0 -66 -39t-43 -136q-4 -26 -5.5 -47t-1.5 -38q0 -51 15.5 -71t44.5 -20q19 0 35.5 9t30 29t24 53.5t18.5 83.5q4 26 6 47t2 38q0 50 -15.5 70.5t-44.5 20.5z" />
<glyph unicode="&#x26;" horiz-adv-x="521" d="M476 26l-31 -38q-26 21 -48.5 41.5t-45.5 46.5q-38 -45 -82 -66t-94 -21q-33 0 -62 9.5t-50 29t-33.5 49t-12.5 70.5q0 75 36.5 129.5t106.5 101.5q-13 34 -21 70.5t-8 72.5q0 41 9.5 75.5t28 60t46.5 40t65 14.5q47 0 78 -25.5t31 -82.5q0 -61 -39 -119t-135 -119 q46 -106 138 -217q36 57 64.5 139.5t45.5 185.5h46q-20 -119 -52.5 -208t-74.5 -150q23 -25 47 -47t47 -42zM178 525q0 -29 5.5 -59.5t16.5 -59.5q77 48 109.5 94.5t32.5 92.5q0 40 -19 57.5t-49 17.5q-43 0 -69.5 -37t-26.5 -106zM65 154q0 -33 10 -56t26.5 -38t37 -21.5 t42.5 -6.5q38 0 74 18.5t68 57.5q-47 57 -84.5 115t-63.5 116q-57 -39 -83.5 -85t-26.5 -100z" />
<glyph unicode="'" horiz-adv-x="128" d="M74 528l26 183h47l-33 -183h-40z" />
<glyph unicode="(" horiz-adv-x="260" d="M153 -76q-115 29 -115 239q0 35 3.5 74.5t10.5 84.5q28 180 86 279.5t140 119.5l10 -42q-67 -21 -113.5 -105t-74.5 -252q-15 -93 -15 -159q0 -88 23 -136t68 -62z" />
<glyph unicode=")" horiz-adv-x="260" d="M117 720q115 -29 115 -239q0 -35 -3.5 -74.5t-10.5 -84.5q-28 -180 -86 -279.5t-140 -119.5l-10 42q67 21 113.5 105t74.5 252q15 93 15 159q0 88 -23 136t-68 62z" />
<glyph unicode="*" horiz-adv-x="317" d="M98 374l-29 25l89 121l-91 42l21 42l88 -45l19 152h47l-28 -152l104 45l8 -41l-106 -43l54 -121l-38 -24l-51 119z" />
<glyph unicode="+" horiz-adv-x="374" d="M182 116h-44l28 170h-124l6 44h124l28 174h44l-29 -174h124l-6 -44h-124z" />
<glyph unicode="," horiz-adv-x="165" d="M4 -118l-12 24q26 14 42.5 38.5t21.5 51.5q-20 -3 -29.5 6t-9.5 27q0 19 11.5 33.5t31.5 14.5q35 0 35 -39q0 -20 -5.5 -43t-17 -44.5t-28.5 -40t-40 -28.5z" />
<glyph unicode="-" horiz-adv-x="315" d="M278 273l-7 -46h-237l7 46h237z" />
<glyph unicode="." horiz-adv-x="164" d="M93 44q0 -24 -12 -37t-32 -13q-16 0 -24 9.5t-8 25.5q0 22 10.5 35.5t32.5 13.5q33 0 33 -34z" />
<glyph unicode="/" horiz-adv-x="362" d="M423 701l-400 -700h-55l401 700h54z" />
<glyph unicode="0" d="M60 0zM328 711q79 0 119.5 -50t40.5 -164q0 -32 -2.5 -68.5t-9.5 -78.5q-15 -97 -38 -165.5t-54.5 -112t-72.5 -63.5t-91 -20q-79 0 -119.5 51t-40.5 165q0 32 3.5 67.5t9.5 77.5q15 97 37.5 166t54 112t72.5 63t91 20zM324 665q-36 0 -66 -16t-55 -53t-44 -97.5 t-33 -148.5q-7 -45 -10.5 -82t-3.5 -67q0 -92 30 -129.5t83 -37.5q35 0 65 16t54.5 53t44 97.5t34.5 149.5q7 44 10.5 81t3.5 67q0 92 -29 129.5t-84 37.5z" />
<glyph unicode="1" d="M404 0h-372l7 47h159l91 577l-81 -72l-18 42l128 106h36l-103 -653h160z" />
<glyph unicode="2" d="M49 0zM49 0l8 44l245 295q32 38 54.5 70t36.5 60t20.5 53t6.5 50q0 45 -25 69t-71 24q-48 0 -87.5 -27t-73.5 -95l-39 22q40 82 93 114t115 32q73 0 108 -36.5t35 -96.5q0 -27 -6.5 -54t-21.5 -57.5t-40 -66.5t-63 -82l-227 -272l303 1l-9 -47h-362z" />
<glyph unicode="3" d="M58 0zM58 133l46 19q7 -61 37.5 -90.5t81.5 -29.5q39 0 70 14.5t52 41t32 62.5t11 79q0 53 -24.5 83.5t-79.5 30.5h-59l8 48h56q32 0 57 14t42.5 38t27 55.5t9.5 65.5q0 49 -24.5 75.5t-72.5 26.5q-52 0 -90 -25.5t-64 -85.5l-41 21q30 67 80.5 101t124.5 34 q69 0 105 -37t36 -103q0 -31 -8 -62t-23 -58t-37.5 -48.5t-50.5 -33.5q37 -14 58 -46t21 -89q0 -53 -14.5 -98t-43 -77.5t-69.5 -51t-94 -18.5q-62 0 -106.5 34.5t-53.5 109.5z" />
<glyph unicode="4" d="M39 0zM39 191l6 39l251 470h52l-248 -462h234l55 342h52l-54 -342h81l-8 -47h-81l-30 -191h-53l31 191h-288z" />
<glyph unicode="5" d="M56 0zM232 653l-60 -266q54 51 139 51q31 0 56.5 -9.5t44 -29t28.5 -50.5t10 -74q0 -59 -15.5 -111t-44.5 -91t-72 -61.5t-97 -22.5q-69 0 -112.5 35t-52.5 107l45 18q7 -60 40 -88.5t84 -28.5q41 0 73 19t54 51.5t33.5 75.5t11.5 92q0 60 -27.5 91t-79.5 31 q-46 0 -81.5 -18t-64.5 -49l-33 15l84 360h297l-7 -47h-253z" />
<glyph unicode="6" d="M72 0zM496 586l-44 -22q-11 55 -37.5 78.5t-69.5 23.5q-86 0 -135.5 -83.5t-75.5 -242.5q-2 -13 -4.5 -30.5t-3.5 -33.5q9 36 26 65.5t41 50.5t53.5 33t62.5 12q62 0 100.5 -44t38.5 -127q0 -56 -13.5 -106.5t-40.5 -88.5t-67 -60t-92 -22q-36 0 -66 12.5t-51.5 39.5 t-33.5 69.5t-12 102.5q0 29 3 61t8 69q14 96 38.5 165.5t58.5 114.5t75.5 66.5t89.5 21.5q65 0 102.5 -29.5t48.5 -95.5zM290 392q-36 0 -66 -18.5t-51 -48.5t-33 -69t-12 -80q0 -29 6.5 -54.5t19.5 -45t33.5 -31t49.5 -11.5q37 0 66.5 17t50 47t31 70.5t10.5 87.5 q0 66 -26.5 101t-78.5 35z" />
<glyph unicode="7" d="M143 0zM143 0q15 94 44 189t68 182t86.5 160t98.5 123l-285 -1l8 47h344l-8 -50q-51 -39 -98 -105.5t-86.5 -152t-69.5 -185.5t-47 -207h-55z" />
<glyph unicode="8" d="M67 0zM439 226q0 -53 -15.5 -96.5t-44 -75t-68 -48.5t-86.5 -17q-76 0 -117 44.5t-41 117.5q0 45 11 82t30.5 65.5t45.5 48t56 28.5q-32 16 -51 49t-19 81q0 41 12.5 78t37.5 65.5t60.5 45.5t82.5 17q66 0 103.5 -37.5t37.5 -103.5q0 -72 -33 -123.5t-87 -74.5 q38 -14 61.5 -52t23.5 -94zM424 558q0 49 -24 78t-74 29q-32 0 -57 -13t-42.5 -34.5t-27 -51t-9.5 -62.5q0 -48 24.5 -78.5t71.5 -30.5q27 0 52 11.5t44 33t30.5 51.5t11.5 67zM388 223q0 55 -29 90t-84 35q-34 0 -62.5 -14.5t-49.5 -39.5t-32.5 -60t-11.5 -75 q0 -56 28 -90.5t83 -34.5q33 0 61.5 14t50 39t34 59.5t12.5 76.5z" />
<glyph unicode="9" d="M58 0zM258 306q38 0 68.5 18.5t52 49.5t33 70.5t11.5 80.5q0 28 -6.5 54t-20 45t-33.5 30.5t-47 11.5q-35 0 -64 -16t-50 -45t-32.5 -70.5t-11.5 -92.5q0 -64 26 -100t74 -36zM211 -11q-65 0 -103 29.5t-50 96.5l44 22q11 -55 37.5 -79t69.5 -24q85 0 134.5 83t75.5 243 q2 13 4.5 31t2.5 33q-9 -36 -26 -66.5t-40 -52t-52 -33.5t-62 -12q-65 0 -102.5 44.5t-37.5 127.5q0 57 13.5 107.5t40 89t66.5 60.5t93 22q73 0 117.5 -52t44.5 -170q0 -29 -3 -62t-8 -70q-14 -96 -38.5 -165.5t-58 -114.5t-74.5 -66.5t-88 -21.5z" />
<glyph unicode=":" horiz-adv-x="165" d="M15 0zM91 44q0 -24 -12 -37t-32 -13q-16 0 -24 9.5t-8 25.5q0 22 10.5 35.5t32.5 13.5q33 0 33 -34zM152 432q0 -24 -12 -37t-32 -13q-16 0 -24 9.5t-8 25.5q0 22 10.5 35.5t32.5 13.5q33 0 33 -34z" />
<glyph unicode=";" horiz-adv-x="165" d="M0 0zM155 432q0 -24 -12 -37t-32 -13q-16 0 -24 9.5t-8 25.5q0 22 10.5 35.5t32.5 13.5q33 0 33 -34zM5 -118l-12 24q26 14 42.5 38.5t21.5 51.5q-20 -3 -29.5 6t-9.5 27q0 19 11.5 33.5t31.5 14.5q35 0 35 -39q0 -20 -5.5 -43t-17 -44.5t-28.5 -40t-40 -28.5z" />
<glyph unicode="&#x3c;" horiz-adv-x="349" d="M293 508l19 -36l-194 -163l141 -159l-29 -38l-164 186l5 25z" />
<glyph unicode="=" horiz-adv-x="373" d="M349 394l-7 -45h-291l7 45h291zM329 270l-7 -45h-290l7 45h290z" />
<glyph unicode="&#x3e;" horiz-adv-x="349" d="M68 112l-18 37l193 162l-140 160l28 37l163 -186l-4 -24z" />
<glyph unicode="?" horiz-adv-x="377" d="M142 181l21 141h22q36 0 66.5 16.5t52 45t33.5 67.5t12 83q0 63 -29 96.5t-83 33.5q-45 0 -86 -25.5t-66 -93.5l-42 17q29 78 81 113.5t117 35.5q78 0 118.5 -46t40.5 -127q0 -55 -14.5 -100t-40.5 -77.5t-61.5 -52t-77.5 -23.5l-19 -104h-45zM180 44q0 -24 -12 -37 t-32 -13q-16 0 -24 9.5t-8 25.5q0 22 10.5 35.5t32.5 13.5q33 0 33 -34z" />
<glyph unicode="@" horiz-adv-x="603" d="M466 1q-41 -48 -92.5 -72.5t-114.5 -24.5q-102 0 -159.5 68.5t-57.5 195.5q0 92 24.5 168t67.5 130t99.5 84t121.5 30q100 0 154.5 -64t54.5 -176q0 -54 -11 -100.5t-31 -80t-47 -53t-60 -19.5q-59 0 -56 72q-39 -82 -108 -82q-34 0 -54 20.5t-20 56.5q0 24 9.5 47 t27.5 40.5t44.5 28t61.5 10.5h52q3 22 3 40q0 36 -15.5 51.5t-41.5 15.5q-27 0 -46 -14t-35 -40l-27 18q16 30 44 49t69 19q43 0 66 -22.5t23 -68.5q0 -9 -1 -20t-3 -24l-15 -93q-1 -8 -1.5 -16.5t-0.5 -15.5q0 -45 35 -45q23 0 43 17t34.5 47.5t22.5 72t8 89.5 q0 103 -48 158.5t-133 55.5q-58 0 -109 -28t-89.5 -79t-61 -121.5t-22.5 -154.5q0 -120 52 -181t140 -61q54 0 101.5 22t84.5 66zM212 158q0 -23 12.5 -36t34.5 -13q41 0 69.5 36.5t37.5 96.5l1 8h-48q-51 0 -79 -26.5t-28 -65.5z" />
<glyph unicode="A" horiz-adv-x="463" d="M295 638l-179 -431h222zM358 0l-17 159h-244l-66 -159h-56l297 700h65l74 -700h-53z" />
<glyph unicode="B" horiz-adv-x="502" d="M43 0l111 700h188q76 0 109.5 -38t33.5 -99q0 -75 -31.5 -128.5t-85.5 -73.5q44 -12 62.5 -47.5t18.5 -80.5q0 -107 -56.5 -170t-169.5 -63h-180zM333 653h-135l-42 -270h140q34 0 60 14.5t43 38.5t25.5 53.5t8.5 59.5q0 51 -26 77.5t-74 26.5zM290 333h-143l-45 -286 h130q48 0 79.5 15.5t50.5 40.5t27 57.5t8 66.5q0 49 -26.5 77.5t-80.5 28.5z" />
<glyph unicode="C" horiz-adv-x="514" d="M71 350q15 99 40.5 167.5t61 111.5t80.5 62.5t98 19.5q37 0 67 -9t52 -29t36.5 -52.5t19.5 -79.5l-51 -16q-5 40 -15.5 66.5t-27 42.5t-38 22.5t-48.5 6.5q-38 0 -72 -15t-62.5 -51t-50.5 -96t-36 -150q-12 -75 -12 -132q0 -51 9.5 -86t28 -56.5t44.5 -31t59 -9.5 q51 0 95.5 28.5t77.5 103.5l44 -24q-18 -42 -42.5 -71.5t-53.5 -48t-61 -27t-65 -8.5q-91 0 -140.5 52.5t-49.5 175.5q0 31 3.5 63.5t8.5 69.5z" />
<glyph unicode="D" horiz-adv-x="551" d="M43 0l111 700h169q96 0 146.5 -52.5t50.5 -171.5q0 -24 -2.5 -56t-7.5 -64q-30 -188 -106 -272t-191 -84h-170zM103 48h114q42 0 79.5 15t68.5 51t54 94.5t37 145.5q11 64 11 115q0 101 -40 142.5t-110 41.5h-118z" />
<glyph unicode="E" horiz-adv-x="488" d="M417 47l-7 -47h-367l111 700h367l-8 -48h-314l-45 -278h273l-8 -49h-272l-44 -278h314z" />
<glyph unicode="F" horiz-adv-x="453" d="M415 322h-268l-51 -322h-53l111 700h352l-8 -48h-299l-44 -281h268z" />
<glyph unicode="G" horiz-adv-x="541" d="M236 -11q-84 0 -130 55.5t-46 176.5q0 28 3.5 61.5t8.5 68.5q15 98 39.5 166.5t59.5 111.5t80.5 62.5t101.5 19.5q36 0 65 -8t51 -27.5t36 -51t19 -78.5l-50 -17q-5 40 -15.5 66t-27 41t-38 21t-47.5 6q-40 0 -74 -15t-62 -51t-49.5 -96.5t-35.5 -150.5q-12 -77 -12 -131 q0 -51 9.5 -86.5t26.5 -57.5t42 -31.5t57 -9.5q30 0 60 12t55.5 41.5t45 77.5t30.5 120h-145l7 44h196l-52 -329h-40l14 128q-28 -72 -75.5 -105.5t-107.5 -33.5z" />
<glyph unicode="H" horiz-adv-x="581" d="M403 0l51 327h-306l-52 -327h-53l111 700h53l-51 -324h306l52 324h52l-111 -700h-52z" />
<glyph unicode="I" horiz-adv-x="222" d="M43 0l111 700h53l-111 -700h-53z" />
<glyph unicode="J" horiz-adv-x="379" d="M88 -11q-32 0 -61.5 10.5t-51.5 33.5l35 43q16 -20 38 -29.5t47 -9.5q56 0 98 48.5t60 161.5l72 453h53l-71 -449q-12 -74 -32.5 -124t-48.5 -81t-63 -44t-75 -13z" />
<glyph unicode="K" horiz-adv-x="470" d="M367 0l-131 340l-107 -130l-33 -210h-53l111 700h53l-66 -410l322 410h60l-248 -312l151 -388h-59z" />
<glyph unicode="L" horiz-adv-x="458" d="M103 48h303l-8 -48h-355l110 700h54z" />
<glyph unicode="M" horiz-adv-x="697" d="M285 0l-101 598l-92 -598h-49l111 700h62l103 -622l299 622h64l-111 -700h-51l98 598l-289 -598h-44z" />
<glyph unicode="N" horiz-adv-x="575" d="M398 0l-211 604l-95 -604h-49l111 700h53l210 -602l94 602h49l-111 -700h-51z" />
<glyph unicode="O" horiz-adv-x="571" d="M354 711q91 0 137.5 -52.5t46.5 -171.5q0 -30 -2 -63.5t-9 -73.5q-15 -97 -40 -165.5t-60 -112t-80.5 -63.5t-101.5 -20q-91 0 -138.5 53.5t-47.5 173.5q0 29 3.5 62.5t8.5 71.5q15 97 40 166t60 112t81 63t102 20zM348 664q-41 0 -76 -15t-62.5 -51.5t-49 -97 t-35.5 -150.5q-6 -38 -9 -71t-3 -63q0 -50 9 -84.5t26.5 -56t43 -31t57.5 -9.5q41 0 76 15.5t62.5 52t49 97.5t35.5 151q12 76 12 134q0 50 -9 84t-26.5 55t-42.5 30.5t-58 9.5z" />
<glyph unicode="P" horiz-adv-x="498" d="M43 0l111 700h179q85 0 125 -40.5t40 -119.5q0 -60 -14.5 -111.5t-44 -89t-73 -59t-100.5 -21.5h-129l-41 -259h-53zM327 653h-128l-54 -346h131q40 0 71.5 17t53 47t32.5 72t11 92q0 60 -28.5 89t-88.5 29z" />
<glyph unicode="Q" horiz-adv-x="572" d="M354 711q91 0 137.5 -52.5t46.5 -171.5q0 -30 -2 -63.5t-9 -73.5q-20 -132 -58.5 -211.5t-97.5 -115.5l50 -115h-53l-42 94q-18 -6 -38.5 -9.5t-42.5 -3.5q-91 0 -138.5 53.5t-47.5 173.5q0 29 3.5 62.5t9.5 71.5q15 97 39.5 166t60 112t81 63t101.5 20zM349 664 q-41 0 -76 -15t-63 -51t-49 -96.5t-36 -151.5q-6 -38 -9 -71t-3 -63q0 -100 35.5 -141t100.5 -41q31 0 59 11l-52 124h54l44 -100q40 30 69.5 97t48.5 184q6 39 9.5 72.5t3.5 63.5q0 50 -9 84t-26.5 55t-43 30t-57.5 9z" />
<glyph unicode="R" horiz-adv-x="496" d="M148 327h133q40 0 70.5 15.5t51.5 43.5t31.5 66.5t10.5 85.5q0 60 -28.5 87.5t-89.5 27.5h-128zM43 0l111 700h179q85 0 126 -39t41 -114q0 -95 -38 -163t-113 -93l73 -291h-57l-66 280q-4 0 -12.5 -0.5t-16.5 -0.5h-130l-44 -279h-53z" />
<glyph unicode="S" horiz-adv-x="443" d="M445 548l-48 -18q-8 73 -40.5 104.5t-83.5 31.5q-67 0 -102.5 -40.5t-35.5 -100.5q0 -45 23.5 -75t69.5 -55l39 -21q67 -36 97.5 -76.5t30.5 -99.5q0 -50 -15 -89t-42 -65.5t-64.5 -40.5t-82.5 -14q-74 0 -124 41t-63 137l48 19q10 -84 45.5 -118t93.5 -34q37 0 65.5 12 t47.5 33.5t28.5 50.5t9.5 63q0 44 -23.5 74t-74.5 58l-37 20q-57 31 -90.5 72.5t-33.5 101.5q0 38 12 73t36.5 61.5t61.5 42.5t87 16q31 0 59.5 -9.5t50.5 -30t36.5 -51.5t18.5 -73z" />
<glyph unicode="T" horiz-adv-x="426" d="M79 700h402l-8 -48h-174l-103 -652h-54l104 652h-174z" />
<glyph unicode="U" horiz-adv-x="552" d="M424 232l74 468h53l-74 -467q-20 -125 -82 -184.5t-159 -59.5q-85 0 -131 43.5t-46 133.5q0 29 6 67l74 467h54l-75 -466q-3 -17 -4 -31.5t-1 -28.5q0 -136 127 -136q71 0 119 45t65 149z" />
<glyph unicode="V" horiz-adv-x="457" d="M195 63l264 637h55l-297 -700h-65l-74 700h54z" />
<glyph unicode="W" horiz-adv-x="674" d="M117 0l-39 700h53l30 -613l214 608h59l21 -605l224 610h53l-263 -700h-57l-22 604l-213 -604h-60z" />
<glyph unicode="X" horiz-adv-x="472" d="M359 0l-114 317l-214 -317h-58l249 363l-123 337h56l105 -293l194 293h57l-230 -339l132 -361h-54z" />
<glyph unicode="Y" horiz-adv-x="450" d="M198 283l-121 417h60l97 -362l212 362h60l-254 -416l-45 -284h-53z" />
<glyph unicode="Z" horiz-adv-x="430" d="M-20 0l7 43l421 610l-309 -1l8 48h368l-7 -43l-422 -611l332 2l-9 -48h-389z" />
<glyph unicode="[" horiz-adv-x="256" d="M19 -65l121 772h144l-7 -42h-96l-108 -688h101l-6 -42h-149z" />
<glyph unicode="\" horiz-adv-x="367" d="M258 0l-187 700h52l189 -700h-54z" />
<glyph unicode="]" horiz-adv-x="257" d="M253 707l-121 -772h-144l7 42h96l108 688h-101l6 42h149z" />
<glyph unicode="^" horiz-adv-x="306" d="M194 701h48l61 -306v-1h-47l-46 253l-129 -253h-47v1z" />
<glyph unicode="_" horiz-adv-x="357" d="M315 0l-8 -45h-358l7 45h359z" />
<glyph unicode="`" horiz-adv-x="452" d="M228 568l-68 106l1 5h63l44 -108v-3h-40z" />
<glyph unicode="a" horiz-adv-x="414" d="M74 108q0 -36 17.5 -55.5t49.5 -19.5q55 0 95 49.5t57 138.5l4 26h-67q-70 0 -113 -38.5t-43 -100.5zM280 113q-26 -61 -65.5 -92t-89.5 -31q-42 0 -71 28t-29 82q0 38 13 72t39 60t64.5 41.5t89.5 15.5h73q4 18 5.5 34t1.5 30q0 55 -22.5 75t-59.5 20t-67.5 -18.5 t-51.5 -62.5l-41 22q25 48 65.5 76t101.5 28t94 -30t33 -97q0 -14 -1 -30t-4 -33l-48 -303h-43z" />
<glyph unicode="b" horiz-adv-x="452" d="M195 700l-50 -317q26 56 65.5 83t85.5 27q57 0 87.5 -42.5t30.5 -124.5q0 -19 -1.5 -40t-5.5 -44q-18 -121 -68.5 -187t-128.5 -66q-44 0 -74.5 25.5t-39.5 81.5l-19 -96h-44l111 700h51zM274 448q-52 0 -93 -50.5t-58 -159.5q-3 -21 -5 -39.5t-2 -35.5q0 -67 24.5 -98.5 t65.5 -31.5q58 0 95.5 52.5t53.5 155.5q4 23 5.5 43.5t1.5 37.5q0 126 -88 126z" />
<glyph unicode="c" horiz-adv-x="396" d="M309 130l42 -21q-26 -56 -66.5 -88t-103.5 -32q-141 0 -141 168q0 19 1.5 39.5t5.5 43.5q20 130 72.5 191.5t135.5 61.5q62 0 92 -32.5t38 -96.5l-47 -16q-8 51 -27.5 75.5t-60.5 24.5q-60 0 -97.5 -50t-54.5 -159q-4 -24 -6.5 -44.5t-2.5 -38.5q0 -65 24 -94t74 -29 q39 0 69 23t53 74z" />
<glyph unicode="d" horiz-adv-x="453" d="M180 33q51 0 92 50.5t58 159.5q6 43 6 74q0 69 -24 100t-66 31q-58 0 -94.5 -52t-53.5 -155q-5 -26 -6.5 -43.5t-1.5 -36.5q0 -128 90 -128zM161 -11q-60 0 -90.5 43t-30.5 125q0 19 1.5 40t5.5 44q18 123 68.5 187.5t126.5 64.5q44 0 72 -26t38 -79l50 312h51l-111 -700 h-43l13 103q-26 -57 -64.5 -85.5t-86.5 -28.5z" />
<glyph unicode="e" horiz-adv-x="409" d="M179 -11q-66 0 -102.5 41.5t-36.5 130.5q0 17 1.5 37.5t5.5 42.5q19 125 71.5 188.5t134.5 63.5q63 0 93 -43.5t30 -117.5q0 -24 -3.5 -50.5t-8.5 -55.5h-269q-3 -14 -4 -32.5t-1 -32.5q0 -67 24 -98t71 -31q79 0 125 99l40 -22q-13 -26 -29 -48t-36.5 -38t-46.5 -25 t-59 -9zM328 334q0 115 -81 115q-54 0 -91 -44t-54 -137h221q2 17 3.5 34t1.5 32z" />
<glyph unicode="f" horiz-adv-x="266" d="M282 439h-110l-69 -439h-52l70 439h-69l7 43h68l15 83q11 79 48 113.5t85 34.5q16 0 33 -4t30 -15l-23 -44q-20 14 -44 14q-29 0 -50 -22.5t-30 -79.5l-12 -80h111z" />
<glyph unicode="g" horiz-adv-x="450" d="M177 40q52 0 93 50.5t58 158.5q6 37 6 70q0 67 -24 98t-66 31q-115 0 -147 -203q-4 -23 -5.5 -42t-1.5 -37q0 -63 22.5 -94.5t64.5 -31.5zM37 -73q8 -50 34 -71t66 -21q60 0 99 39.5t53 129.5l16 101q-24 -55 -62.5 -81.5t-81.5 -26.5q-59 0 -90.5 42t-31.5 125 q0 18 1.5 38t5.5 42q19 121 68.5 185t127.5 64q43 0 73 -27t40 -81l19 97h42l-76 -482q-17 -110 -71 -159.5t-133 -49.5q-62 0 -97.5 28t-49.5 88z" />
<glyph unicode="h" horiz-adv-x="459" d="M195 700l-52 -332q26 63 67.5 94t91.5 31q106 0 106 -123q0 -14 -1 -28.5t-4 -30.5l-49 -311h-51l48 302q2 15 3 29t1 25q0 49 -20 70t-57 21q-28 0 -52.5 -14.5t-44 -40.5t-34.5 -63t-23 -82l-40 -247h-51l111 700h51z" />
<glyph unicode="i" horiz-adv-x="195" d="M118 615q0 22 11 35.5t33 13.5q34 0 34 -35q0 -23 -12.5 -36t-32.5 -13q-16 0 -24.5 9.5t-8.5 25.5zM110 482h52l-76 -482h-52z" />
<glyph unicode="j" horiz-adv-x="195" d="M118 615q0 22 11 35.5t33 13.5q34 0 34 -35q0 -23 -12.5 -36t-32.5 -13q-16 0 -24.5 9.5t-8.5 25.5zM26 -51l84 533h52l-86 -543q-13 -78 -46 -113t-81 -35q-16 0 -31 2.5t-30 10.5l23 47q10 -6 18.5 -9t22.5 -3q27 0 45 24t29 86z" />
<glyph unicode="k" horiz-adv-x="388" d="M105 129l-20 -129h-52l111 700h51l-81 -502l231 284h61l-180 -212l110 -270h-58l-88 227z" />
<glyph unicode="l" horiz-adv-x="199" d="M120 0q-41 0 -62.5 23t-12.5 79l94 598h51l-94 -597q-5 -32 5 -44.5t30 -12.5h24l-7 -46h-28z" />
<glyph unicode="m" horiz-adv-x="680" d="M572 303l4 30q2 15 2 27q0 47 -18.5 67t-50.5 20q-48 0 -84.5 -49.5t-53.5 -135.5l-42 -262h-51l48 301q3 17 4 31.5t1 26.5q0 47 -17 67.5t-49 20.5q-48 0 -85.5 -52t-55.5 -144l-40 -251h-51l77 482h44l-13 -112q25 64 64 93.5t83 29.5q45 0 67.5 -33.5t22.5 -95.5 q27 67 67.5 98t85.5 31q99 0 99 -120q0 -14 -1.5 -29t-3.5 -32l-50 -312h-51z" />
<glyph unicode="n" horiz-adv-x="459" d="M33 0l77 482h44l-13 -114q26 63 68 94t91 31q108 0 108 -123q0 -14 -1 -28.5t-4 -30.5l-49 -311h-51l48 302q2 15 3 28.5t1 24.5q0 50 -19.5 71t-57.5 21q-27 0 -51.5 -14t-45 -40t-35 -62t-22.5 -80l-40 -251h-51z" />
<glyph unicode="o" horiz-adv-x="435" d="M40 157q0 19 1.5 40t5.5 44q20 131 72.5 191.5t136.5 60.5q69 0 104.5 -40t35.5 -127q0 -18 -2 -39.5t-6 -45.5q-20 -129 -72 -190.5t-136 -61.5q-69 0 -104.5 41t-35.5 127zM184 33q62 0 98.5 49.5t54.5 157.5q4 25 6 46t2 40q0 64 -23.5 93t-71.5 29q-63 0 -99 -49 t-53 -159q-4 -24 -6 -45.5t-2 -38.5q0 -64 23 -93.5t71 -29.5z" />
<glyph unicode="p" horiz-adv-x="454" d="M278 448q-53 0 -95.5 -51t-59.5 -159q-3 -20 -5 -38.5t-2 -35.5q0 -68 25 -100t66 -32q58 0 95 53t54 156q4 23 6 43.5t2 38.5q0 125 -86 125zM4 -186l106 668h44l-12 -106q26 60 66.5 88.5t88.5 28.5q58 0 88 -42.5t30 -123.5q0 -20 -2 -40.5t-6 -44.5 q-17 -121 -68 -187t-129 -66q-42 0 -71.5 24.5t-38.5 76.5l-45 -276h-51z" />
<glyph unicode="q" horiz-adv-x="453" d="M313 -186h-51l43 282q-24 -54 -62 -80.5t-83 -26.5q-60 0 -90 43t-30 124q0 20 1.5 41t5.5 44q18 121 68 186.5t128 65.5q42 0 74 -26.5t41 -80.5l18 96h43zM179 33q52 0 93 51.5t58 160.5q6 40 6 73q0 68 -24 99t-65 31q-117 0 -150 -208q-4 -22 -5.5 -41.5t-1.5 -36.5 q0 -129 89 -129z" />
<glyph unicode="r" horiz-adv-x="270" d="M33 0l77 482h44l-14 -120q26 66 68 99t89 30l-9 -55q-59 5 -102.5 -44.5t-62.5 -147.5l-39 -244h-51z" />
<glyph unicode="s" horiz-adv-x="355" d="M6 116l46 19q9 -55 35 -79.5t66 -24.5q51 0 76.5 27.5t25.5 69.5q0 28 -14.5 47.5t-50.5 38.5l-31 16q-45 23 -70.5 53t-25.5 76q0 63 38.5 99.5t103.5 36.5q58 0 89.5 -27.5t45.5 -87.5l-46 -20q-8 45 -30.5 69t-60.5 24q-45 0 -68.5 -25t-23.5 -62q0 -27 15.5 -47.5 t50.5 -39.5l30 -16q45 -24 72 -52.5t27 -75.5q0 -29 -9 -55.5t-28 -46.5t-48.5 -32t-70.5 -12q-64 0 -98.5 33.5t-45.5 93.5z" />
<glyph unicode="t" horiz-adv-x="272" d="M214 52l7 -45q-14 -9 -31 -13t-30 -4q-46 0 -72.5 23t-26.5 77q0 12 1.5 25t3.5 25l48 299h-65l7 43h65l22 146h52l-24 -146h112l-7 -43h-111l-47 -296q-8 -51 2 -78t45 -27q11 0 24.5 3t24.5 11z" />
<glyph unicode="u" horiz-adv-x="457" d="M163 -11q-57 0 -84.5 33.5t-27.5 94.5q0 14 1 28t3 29l49 308h51l-48 -300q-2 -15 -2.5 -28t-0.5 -25q0 -95 80 -95q54 0 92.5 51.5t56.5 142.5l39 254h52l-77 -482h-44l14 109q-25 -60 -65.5 -90t-88.5 -30z" />
<glyph unicode="v" horiz-adv-x="366" d="M44 482h55l52 -424l188 424h53l-221 -482h-56z" />
<glyph unicode="w" horiz-adv-x="541" d="M276 474h57l25 -409l155 417h51l-189 -482h-57l-25 402l-149 -402h-58l-39 482h53l25 -417z" />
<glyph unicode="x" horiz-adv-x="371" d="M261 0l-84 204l-148 -204h-54l181 248l-99 234h55l79 -193l139 193h55l-174 -235l106 -247h-56z" />
<glyph unicode="y" horiz-adv-x="372" d="M99 -56l22 49l-72 489h54l56 -418l186 418h53l-257 -556q-20 -43 -39.5 -69.5t-39 -41.5t-38.5 -20t-37 -5q-33 0 -62 14l21 44q13 -6 24 -8t23 -2q14 0 26.5 4t25.5 16t26 32.5t28 53.5z" />
<glyph unicode="z" horiz-adv-x="357" d="M-10 0l7 42l298 396h-229l7 44h285l-7 -42l-297 -396h239l-8 -44h-295z" />
<glyph unicode="{" horiz-adv-x="264" d="M155 -76q-77 8 -74 101q0 21 5 43.5t10 46.5t10 49t5 50q1 45 -14 65.5t-52 20.5h-18l6 42h18q46 0 70.5 29.5t33.5 93.5q5 31 6 63t6 67q9 59 37.5 88.5t73.5 35.5l11 -42q-31 -5 -50 -24.5t-26 -61.5q-5 -29 -6 -62.5t-6 -68.5q-10 -59 -31 -92.5t-59 -47.5 q26 -11 37 -35.5t10 -63.5q-1 -26 -6 -51.5t-10.5 -50t-10.5 -46.5t-6 -41q-1 -31 13 -46t38 -20z" />
<glyph unicode="|" horiz-adv-x="214" d="M32 -65l131 831h48l-131 -831h-48z" />
<glyph unicode="}" horiz-adv-x="264" d="M125 719q77 -8 74 -101q0 -21 -5 -43.5t-10 -46.5t-10 -49t-5 -50q-1 -45 14 -65.5t52 -20.5h18l-6 -42h-18q-46 0 -70.5 -29.5t-33.5 -93.5q-5 -31 -6 -63t-6 -67q-9 -59 -37.5 -88.5t-73.5 -35.5l-11 42q31 5 50 24.5t26 61.5q5 29 6 62.5t6 68.5q10 59 31 92.5 t59 47.5q-26 11 -37 35.5t-10 63.5q1 26 6 51.5t10.5 50t10.5 46.5t6 41q1 31 -13 46t-38 20z" />
<glyph unicode="~" horiz-adv-x="389" d="M200 322q-16 14 -31 24.5t-34 10.5t-37 -16t-29 -59l-40 7q14 65 45 91.5t67 26.5q26 0 45 -12.5t36 -27.5q15 -14 31 -24.5t34 -10.5q19 0 37 15.5t28 58.5l40 -7q-13 -65 -44 -91.5t-66 -26.5q-26 0 -45.5 13t-36.5 28z" />
<glyph unicode="&#xa1;" horiz-adv-x="165" d="M-23 -204l90 519h42l-75 -519h-57zM72 452q0 50 44 50q15 0 23.5 -9.5t8.5 -25.5q0 -22 -10.5 -35.5t-32.5 -13.5q-33 0 -33 34z" />
<glyph unicode="&#xa2;" horiz-adv-x="395" d="M138 -62l12 79q-114 11 -114 157q0 18 1.5 38t5.5 42q17 115 63.5 173.5t118.5 65.5l13 81h36l-12 -81q52 -4 79.5 -36t35.5 -90l-44 -17q-7 48 -25.5 71.5t-52.5 28.5l-62 -392q35 4 62 26t47 67l38 -21q-24 -49 -61.5 -79.5t-91.5 -33.5l-12 -79h-37zM82 172 q0 -104 75 -113l61 390q-50 -8 -82.5 -54.5t-46.5 -140.5q-4 -23 -5.5 -44t-1.5 -38z" />
<glyph unicode="&#xa3;" horiz-adv-x="427" d="M380 71q-16 -23 -32.5 -37t-34 -21.5t-36.5 -10t-39 -2.5h-251l7 45h20q26 0 40 29t22 86l21 155h-60l7 43h58l21 160q13 100 58 146.5t113 46.5q65 0 101 -33t49 -109l-46 -17q-10 60 -36 86.5t-68 26.5q-50 0 -79.5 -36.5t-39.5 -113.5l-20 -157h153l-8 -43h-151 l-20 -152q-11 -91 -41 -118h155q29 0 54.5 11t49.5 48z" />
<glyph unicode="&#xa5;" horiz-adv-x="462" d="M397 243h-146l-39 -243h-54l40 243h-148l8 45h144l-17 57h-118l7 44h100l-91 311h57l99 -367l215 367h58l-191 -311h101l-8 -44h-118l-36 -57h145z" />
<glyph unicode="&#xa6;" horiz-adv-x="214" d="M103 382l60 384h48l-61 -384h-47zM32 -65l61 385h47l-60 -385h-48z" />
<glyph unicode="&#xa7;" horiz-adv-x="390" d="M300 350q0 26 -13 47.5t-42 32.5l-18 8q-19 7 -39.5 5t-38 -14t-28.5 -34t-11 -53q0 -26 14 -47t46 -35l15 -6q22 -9 43 -5t37 17.5t25.5 35.5t9.5 48zM297 128q0 -28 -7.5 -55t-25 -48t-45 -34t-66.5 -13q-68 0 -101.5 33.5t-44.5 89.5l43 21q10 -54 36.5 -78.5 t68.5 -24.5q52 0 73.5 29t21.5 71q0 32 -14.5 51t-48.5 33l-28 11q-44 17 -69 48t-25 74q1 56 29.5 91t64.5 41q-17 13 -31 37.5t-14 59.5q0 29 9 55.5t26.5 46.5t44 32t61.5 12q52 0 83.5 -24.5t44.5 -78.5l-45 -21q-15 82 -87 82q-42 0 -67 -27.5t-25 -69.5 q0 -32 15.5 -52.5t50.5 -34.5l30 -12q54 -20 71.5 -51.5t17.5 -66.5q0 -46 -25 -83.5t-68 -47.5q26 -19 36 -43t10 -53z" />
<glyph unicode="&#xa8;" horiz-adv-x="452" d="M151 614q0 23 11.5 36t31.5 13q32 0 32 -35q0 -23 -11.5 -35.5t-31.5 -12.5q-32 0 -32 34zM274 614q0 23 11.5 36t31.5 13q32 0 32 -35q0 -23 -11.5 -35.5t-31.5 -12.5q-32 0 -32 34z" />
<glyph unicode="&#xa9;" horiz-adv-x="607" d="M367 689q100 0 155.5 -66.5t55.5 -185.5q0 -28 -2 -53.5t-7 -53.5q-13 -73 -40 -132t-66 -100t-88.5 -63.5t-106.5 -22.5q-101 0 -157.5 66.5t-56.5 185.5q0 29 3.5 58t9.5 58q13 72 40.5 129t66.5 97t87.5 61.5t105.5 21.5zM365 664q-49 0 -92.5 -19.5t-78.5 -56 t-61 -89.5t-39 -120q-12 -57 -12 -113q0 -111 50 -170t138 -59q50 0 94 20t79 58.5t60 93t37 123.5q5 26 7.5 52t2.5 52q0 110 -49 169t-136 59zM424 274q-47 -98 -132 -98q-49 0 -77.5 28.5t-28.5 92.5q0 14 1.5 28t3.5 28q14 95 55 136.5t101 41.5q84 0 100 -86l-38 -17 q-13 69 -65 69q-44 0 -71.5 -31.5t-41.5 -113.5q-3 -16 -4 -29t-1 -24q0 -48 19 -68t53 -20q58 0 93 76z" />
<glyph unicode="&#xaa;" horiz-adv-x="300" d="M142 387q38 0 66 35.5t39 99.5l2 12h-55q-47 0 -73 -27.5t-26 -64.5q0 -55 47 -55zM236 438q-17 -40 -45.5 -62t-63.5 -22q-31 0 -51.5 20.5t-20.5 61.5q0 27 10 50.5t28.5 41t44.5 27.5t59 10h58q2 14 3 25t1 19q0 38 -15.5 51.5t-43.5 13.5q-31 0 -51.5 -13.5 t-37.5 -36.5l-24 23q44 63 122 63q42 0 66 -21t24 -72q0 -10 -1 -20.5t-3 -24.5l-33 -210h-33z" />
<glyph unicode="&#xab;" horiz-adv-x="465" d="M152 0l-105 238l1 3l180 241h58l-184 -244l105 -238h-55zM303 0l-107 240l1 3l180 239h58l-183 -243l106 -239h-55z" />
<glyph unicode="&#xad;" horiz-adv-x="299" d="M264 273l-7 -46h-223l7 46h223z" />
<glyph unicode="&#xae;" horiz-adv-x="351" d="M187 346q-55 0 -86 37t-31 101q0 10 1 21t3 23q14 82 58.5 132.5t110.5 50.5q55 0 85.5 -37t30.5 -101q0 -10 -1 -22.5t-3 -24.5q-15 -83 -58.5 -131.5t-109.5 -48.5zM189 365q54 0 93.5 42.5t52.5 120.5q2 12 3 23t1 21q0 58 -26.5 89.5t-70.5 31.5q-55 0 -94.5 -43.5 t-52.5 -121.5q-2 -11 -3 -22t-1 -21q0 -58 26.5 -89t71.5 -31zM184 528h30q39 0 39 44q0 31 -27 31h-30zM150 441l28 182h51q24 0 34.5 -13t10.5 -35q0 -49 -36 -63l15 -71h-22l-14 66h-37l-10 -66h-20z" />
<glyph unicode="&#xaf;" horiz-adv-x="452" d="M345 641l-6 -39h-180l6 39h180z" />
<glyph unicode="&#xb0;" horiz-adv-x="343" d="M185 360q-55 0 -83.5 39t-26.5 105q1 46 13 84t33.5 65.5t51 42.5t64.5 15q56 0 84.5 -38.5t26.5 -104.5q-1 -47 -13 -85t-34 -65.5t-51.5 -42.5t-64.5 -15zM188 397q50 0 84.5 45t36.5 124q2 52 -18.5 80t-58.5 28q-24 0 -45.5 -11.5t-37.5 -33.5t-25.5 -53.5 t-9.5 -70.5q-2 -52 17.5 -80t56.5 -28z" />
<glyph unicode="&#xb1;" horiz-adv-x="375" d="M188 131h-43l26 162h-123l7 44h123l27 167h43l-27 -167h124l-7 -44h-124zM299 44l-7 -44h-291l7 44h291z" />
<glyph unicode="&#xb2;" horiz-adv-x="259" d="M38 293zM38 293l5 33l141 169q35 42 50.5 71.5t15.5 55.5q0 49 -52 49q-26 0 -47.5 -14.5t-40.5 -51.5l-30 15q23 50 55 69.5t71 19.5q44 0 65.5 -22t21.5 -59q0 -17 -4 -32.5t-13 -33.5t-24.5 -39.5t-38.5 -49.5l-120 -143l168 1l-6 -38h-217z" />
<glyph unicode="&#xb3;" horiz-adv-x="271" d="M44 286zM44 372l35 14q9 -65 65 -65q43 0 66 30t23 76q0 28 -14 44.5t-44 16.5h-32l5 36h32q35 0 54.5 28.5t19.5 64.5q0 56 -52 56q-28 0 -49 -14.5t-35 -46.5l-32 15q36 82 125 82q43 0 64.5 -23t21.5 -61q0 -35 -17.5 -68.5t-51.5 -48.5q21 -9 33 -28t12 -51 q0 -62 -34 -102.5t-97 -40.5q-38 0 -65 20t-33 66z" />
<glyph unicode="&#xb4;" horiz-adv-x="452" d="M288 679h64l-1 -5l-97 -106h-44v3z" />
<glyph unicode="&#xb6;" horiz-adv-x="488" d="M395 654h-56l-54 -346h55zM107 440q0 -68 28.5 -100.5t80.5 -31.5h21l55 345h-19q-76 0 -121 -55t-45 -158zM450 700l-111 -700h-48l40 259h-54l-40 -259h-47l40 259h-21q-76 0 -114 47.5t-38 129.5q0 58 14 106.5t42.5 83.5t71.5 54.5t102 19.5h163z" />
<glyph unicode="&#xb7;" horiz-adv-x="166" d="M54 294zM130 344q0 -24 -12 -37t-32 -13q-16 0 -24 9.5t-8 25.5q0 22 10.5 35.5t32.5 13.5q33 0 33 -34z" />
<glyph unicode="&#xb8;" horiz-adv-x="452" d="M208 -228q-32 0 -53.5 14t-32.5 43l34 19q11 -41 52 -41q28 0 41 15.5t13 38.5q0 26 -16.5 34.5t-35.5 1.5l-11 10l31 93h35l-26 -74q23 2 42.5 -13t19.5 -50q0 -45 -27 -68t-66 -23z" />
<glyph unicode="&#xb9;" horiz-adv-x="160" d="M74 293zM119 293h-42l55 351l-46 -39l-12 34l81 64h29z" />
<glyph unicode="&#xba;" horiz-adv-x="313" d="M64 474q0 13 1.5 27.5t3.5 30.5q27 179 147 179q101 0 101 -121q0 -15 -1.5 -28t-3.5 -30q-14 -91 -51.5 -134.5t-97.5 -43.5q-99 0 -99 120zM167 389q42 0 68 34.5t38 108.5q2 16 3 30.5t1 27.5q0 86 -64 86q-42 0 -67.5 -34.5t-36.5 -109.5q-3 -17 -4 -31t-1 -27 q0 -43 15 -64t48 -21z" />
<glyph unicode="&#xbb;" horiz-adv-x="465" d="M308 482l105 -238l-1 -3l-180 -241h-58l184 244l-105 238h55zM157 482l107 -240l-1 -3l-180 -239h-58l183 243l-106 239h55z" />
<glyph unicode="&#xbc;" horiz-adv-x="626" d="M118 293h-42l55 351l-46 -39l-12 34l81 64h29zM477 700l-359 -700h-49l360 700h48zM332 107l5 31l143 271h41l-141 -265h126l29 184h41l-29 -184h45l-6 -37h-45l-18 -107h-40l17 107h-168z" />
<glyph unicode="&#xbd;" horiz-adv-x="599" d="M119 293h-42l55 351l-46 -39l-12 34l81 64h29zM477 700l-359 -700h-49l360 700h48zM323 0l5 33l141 169q35 42 50.5 71.5t15.5 55.5q0 49 -52 49q-26 0 -47.5 -14.5t-40.5 -51.5l-30 15q23 50 55 69.5t71 19.5q44 0 65.5 -22t21.5 -59q0 -17 -4 -32.5t-13 -33.5 t-24.5 -39.5t-38.5 -49.5l-120 -143l168 1l-6 -38h-217z" />
<glyph unicode="&#xbe;" horiz-adv-x="714" d="M576 700l-359 -700h-49l360 700h48zM421 107l5 31l143 271h41l-141 -265h126l29 184h41l-29 -184h45l-6 -37h-45l-18 -107h-40l17 107h-168zM43 372l35 14q9 -65 65 -65q43 0 66 30t23 76q0 28 -14 44.5t-44 16.5h-32l5 36h32q35 0 54.5 28.5t19.5 64.5q0 56 -52 56 q-28 0 -49 -14.5t-35 -46.5l-32 15q36 82 125 82q43 0 64.5 -23t21.5 -61q0 -35 -17.5 -68.5t-51.5 -48.5q21 -9 33 -28t12 -51q0 -62 -34 -102.5t-97 -40.5q-38 0 -65 20t-33 66z" />
<glyph unicode="&#xbf;" horiz-adv-x="374" d="M217 312l-21 -141h-22q-36 0 -66.5 -16.5t-52 -45t-33.5 -67.5t-12 -83q0 -63 29 -96.5t83 -33.5q45 0 85.5 25.5t66.5 93.5l42 -17q-29 -78 -81 -113.5t-117 -35.5q-78 0 -118.5 46t-40.5 127q0 55 14.5 100t40.5 77.5t61.5 52t77.5 23.5l19 104h45zM179 449q0 24 12 37 t32 13q16 0 24 -9.5t8 -25.5q0 -22 -10.5 -35.5t-32.5 -13.5q-33 0 -33 34z" />
<glyph unicode="&#xc0;" horiz-adv-x="463" d="M0 0zM295 638l-179 -431h222zM358 0l-17 159h-244l-66 -159h-56l297 700h65l74 -700h-53zM301 786l-68 106l1 5h63l44 -108v-3h-40z" />
<glyph unicode="&#xc1;" horiz-adv-x="463" d="M0 0zM295 638l-179 -431h222zM358 0l-17 159h-244l-66 -159h-56l297 700h65l74 -700h-53zM369 897h64l-1 -5l-97 -106h-44v3z" />
<glyph unicode="&#xc2;" horiz-adv-x="463" d="M0 0zM295 638l-179 -431h222zM358 0l-17 159h-244l-66 -159h-56l297 700h65l74 -700h-53zM308 897h45l71 -109v-2h-50l-47 79l-72 -79h-53v2z" />
<glyph unicode="&#xc3;" horiz-adv-x="463" d="M0 0zM295 638l-179 -431h222zM358 0l-17 159h-244l-66 -159h-56l297 700h65l74 -700h-53zM401 886h36q-3 -26 -10.5 -42.5t-17.5 -26t-21.5 -13.5t-21.5 -4q-16 0 -27 7.5t-20 17t-18 17t-21 7.5q-26 0 -32 -45h-36q3 25 10 41.5t17 26.5t20.5 13.5t21.5 3.5 q16 0 27 -7.5t21 -16t19 -16t21 -7.5q25 0 32 44z" />
<glyph unicode="&#xc4;" horiz-adv-x="463" d="M0 0zM295 638l-179 -431h222zM358 0l-17 159h-244l-66 -159h-56l297 700h65l74 -700h-53zM223 832q0 23 11.5 36t31.5 13q32 0 32 -35q0 -23 -11.5 -35.5t-31.5 -12.5q-32 0 -32 34zM346 832q0 23 11.5 36t31.5 13q32 0 32 -35q0 -23 -11.5 -35.5t-31.5 -12.5 q-32 0 -32 34z" />
<glyph unicode="&#xc5;" horiz-adv-x="463" d="M0 0zM295 638l-179 -431h222zM358 0l-17 159h-244l-66 -159h-56l297 700h65l74 -700h-53zM337 939q27 0 45.5 -18.5t18.5 -52.5q0 -42 -24 -71t-61 -29q-28 0 -46.5 18.5t-18.5 53.5q0 40 23.5 69.5t62.5 29.5zM333 911q-24 0 -38 -20.5t-14 -47.5q0 -22 10 -34.5 t27 -12.5q23 0 38.5 21t15.5 49q0 22 -11 33.5t-28 11.5z" />
<glyph unicode="&#xc6;" horiz-adv-x="686" d="M297 647l-182 -440h217zM-26 0l299 700h442l-7 -47h-361l23 -276h255l-8 -50h-245l24 -279h224l-8 -48h-263l-14 159h-239l-67 -159h-55z" />
<glyph unicode="&#xc7;" horiz-adv-x="514" d="M209 -228q-32 0 -53.5 14t-32.5 43l34 19q11 -41 52 -41q28 0 41 15.5t13 38.5q0 26 -16.5 34.5t-35.5 1.5l-11 10l28 83q-81 5 -125 58t-44 169q0 31 3.5 63.5t8.5 69.5q15 99 40.5 167.5t61 111.5t80.5 62.5t98 19.5q37 0 67 -9t52 -29t36.5 -52.5t19.5 -79.5l-51 -16 q-5 40 -15.5 66.5t-27 42.5t-38 22.5t-48.5 6.5q-38 0 -72 -15t-62.5 -51t-50.5 -96t-36 -150q-12 -75 -12 -132q0 -51 9.5 -86t28 -56.5t44.5 -31t59 -9.5q51 0 95.5 28.5t77.5 103.5l44 -24q-34 -80 -90 -116t-119 -39l-22 -63q23 2 42.5 -13t19.5 -50q0 -45 -27 -68 t-66 -23z" />
<glyph unicode="&#xc8;" horiz-adv-x="488" d="M43 0zM417 47l-7 -47h-367l111 700h367l-8 -48h-314l-45 -278h273l-8 -49h-272l-44 -278h314zM332 786l-68 106l1 5h63l44 -108v-3h-40z" />
<glyph unicode="&#xc9;" horiz-adv-x="488" d="M43 0zM417 47l-7 -47h-367l111 700h367l-8 -48h-314l-45 -278h273l-8 -49h-272l-44 -278h314zM400 897h64l-1 -5l-97 -106h-44v3z" />
<glyph unicode="&#xca;" horiz-adv-x="488" d="M43 0zM417 47l-7 -47h-367l111 700h367l-8 -48h-314l-45 -278h273l-8 -49h-272l-44 -278h314zM339 897h45l71 -109v-2h-50l-47 79l-72 -79h-53v2z" />
<glyph unicode="&#xcb;" horiz-adv-x="488" d="M43 0zM417 47l-7 -47h-367l111 700h367l-8 -48h-314l-45 -278h273l-8 -49h-272l-44 -278h314zM254 832q0 23 11.5 36t31.5 13q32 0 32 -35q0 -23 -11.5 -35.5t-31.5 -12.5q-32 0 -32 34zM377 832q0 23 11.5 36t31.5 13q32 0 32 -35q0 -23 -11.5 -35.5t-31.5 -12.5 q-32 0 -32 34z" />
<glyph unicode="&#xcc;" horiz-adv-x="222" d="M43 0zM43 0l111 700h53l-111 -700h-53zM178 786l-68 106l1 5h63l44 -108v-3h-40z" />
<glyph unicode="&#xcd;" horiz-adv-x="222" d="M43 0zM43 0l111 700h53l-111 -700h-53zM246 897h64l-1 -5l-97 -106h-44v3z" />
<glyph unicode="&#xce;" horiz-adv-x="222" d="M43 0zM43 0l111 700h53l-111 -700h-53zM186 897h45l71 -109v-2h-50l-47 79l-72 -79h-53v2z" />
<glyph unicode="&#xcf;" horiz-adv-x="222" d="M43 0zM43 0l111 700h53l-111 -700h-53zM101 832q0 23 11.5 36t31.5 13q32 0 32 -35q0 -23 -11.5 -35.5t-31.5 -12.5q-32 0 -32 34zM224 832q0 23 11.5 36t31.5 13q32 0 32 -35q0 -23 -11.5 -35.5t-31.5 -12.5q-32 0 -32 34z" />
<glyph unicode="&#xd0;" horiz-adv-x="559" d="M220 0h-170l54 340h-59l8 46h58l50 314h170q94 0 145 -52.5t51 -171.5q0 -24 -2.5 -56t-7.5 -64q-29 -188 -105.5 -272t-191.5 -84zM111 48h113q42 0 79.5 15t68 51t54 94.5t37.5 145.5q5 31 7.5 60.5t2.5 54.5q0 51 -10 86t-29 56.5t-47 31.5t-63 10h-118l-42 -267h123 l-8 -46h-123z" />
<glyph unicode="&#xd1;" horiz-adv-x="575" d="M43 0zM398 0l-211 604l-95 -604h-49l111 700h53l210 -602l94 602h49l-111 -700h-51zM455 886h36q-3 -26 -10.5 -42.5t-17.5 -26t-21.5 -13.5t-21.5 -4q-16 0 -27 7.5t-20 17t-18 17t-21 7.5q-26 0 -32 -45h-36q3 25 10 41.5t17 26.5t20.5 13.5t21.5 3.5q16 0 27 -7.5 t21 -16t19 -16t21 -7.5q25 0 32 44z" />
<glyph unicode="&#xd2;" horiz-adv-x="571" d="M59 0zM354 711q91 0 137.5 -52.5t46.5 -171.5q0 -30 -2 -63.5t-9 -73.5q-15 -97 -40 -165.5t-60 -112t-80.5 -63.5t-101.5 -20q-91 0 -138.5 53.5t-47.5 173.5q0 29 3.5 62.5t8.5 71.5q15 97 40 166t60 112t81 63t102 20zM348 664q-41 0 -76 -15t-62.5 -51.5t-49 -97 t-35.5 -150.5q-6 -38 -9 -71t-3 -63q0 -50 9 -84.5t26.5 -56t43 -31t57.5 -9.5q41 0 76 15.5t62.5 52t49 97.5t35.5 151q12 76 12 134q0 50 -9 84t-26.5 55t-42.5 30.5t-58 9.5zM350 786l-68 106l1 5h63l44 -108v-3h-40z" />
<glyph unicode="&#xd3;" horiz-adv-x="571" d="M59 0zM354 711q91 0 137.5 -52.5t46.5 -171.5q0 -30 -2 -63.5t-9 -73.5q-15 -97 -40 -165.5t-60 -112t-80.5 -63.5t-101.5 -20q-91 0 -138.5 53.5t-47.5 173.5q0 29 3.5 62.5t8.5 71.5q15 97 40 166t60 112t81 63t102 20zM348 664q-41 0 -76 -15t-62.5 -51.5t-49 -97 t-35.5 -150.5q-6 -38 -9 -71t-3 -63q0 -50 9 -84.5t26.5 -56t43 -31t57.5 -9.5q41 0 76 15.5t62.5 52t49 97.5t35.5 151q12 76 12 134q0 50 -9 84t-26.5 55t-42.5 30.5t-58 9.5zM418 897h64l-1 -5l-97 -106h-44v3z" />
<glyph unicode="&#xd4;" horiz-adv-x="571" d="M59 0zM354 711q91 0 137.5 -52.5t46.5 -171.5q0 -30 -2 -63.5t-9 -73.5q-15 -97 -40 -165.5t-60 -112t-80.5 -63.5t-101.5 -20q-91 0 -138.5 53.5t-47.5 173.5q0 29 3.5 62.5t8.5 71.5q15 97 40 166t60 112t81 63t102 20zM348 664q-41 0 -76 -15t-62.5 -51.5t-49 -97 t-35.5 -150.5q-6 -38 -9 -71t-3 -63q0 -50 9 -84.5t26.5 -56t43 -31t57.5 -9.5q41 0 76 15.5t62.5 52t49 97.5t35.5 151q12 76 12 134q0 50 -9 84t-26.5 55t-42.5 30.5t-58 9.5zM357 897h45l71 -109v-2h-50l-47 79l-72 -79h-53v2z" />
<glyph unicode="&#xd5;" horiz-adv-x="571" d="M59 0zM354 711q91 0 137.5 -52.5t46.5 -171.5q0 -30 -2 -63.5t-9 -73.5q-15 -97 -40 -165.5t-60 -112t-80.5 -63.5t-101.5 -20q-91 0 -138.5 53.5t-47.5 173.5q0 29 3.5 62.5t8.5 71.5q15 97 40 166t60 112t81 63t102 20zM348 664q-41 0 -76 -15t-62.5 -51.5t-49 -97 t-35.5 -150.5q-6 -38 -9 -71t-3 -63q0 -50 9 -84.5t26.5 -56t43 -31t57.5 -9.5q41 0 76 15.5t62.5 52t49 97.5t35.5 151q12 76 12 134q0 50 -9 84t-26.5 55t-42.5 30.5t-58 9.5zM450 886h36q-3 -26 -10.5 -42.5t-17.5 -26t-21.5 -13.5t-21.5 -4q-16 0 -27 7.5t-20 17t-18 17 t-21 7.5q-26 0 -32 -45h-36q3 25 10 41.5t17 26.5t20.5 13.5t21.5 3.5q16 0 27 -7.5t21 -16t19 -16t21 -7.5q25 0 32 44z" />
<glyph unicode="&#xd6;" horiz-adv-x="571" d="M59 0zM354 711q91 0 137.5 -52.5t46.5 -171.5q0 -30 -2 -63.5t-9 -73.5q-15 -97 -40 -165.5t-60 -112t-80.5 -63.5t-101.5 -20q-91 0 -138.5 53.5t-47.5 173.5q0 29 3.5 62.5t8.5 71.5q15 97 40 166t60 112t81 63t102 20zM348 664q-41 0 -76 -15t-62.5 -51.5t-49 -97 t-35.5 -150.5q-6 -38 -9 -71t-3 -63q0 -50 9 -84.5t26.5 -56t43 -31t57.5 -9.5q41 0 76 15.5t62.5 52t49 97.5t35.5 151q12 76 12 134q0 50 -9 84t-26.5 55t-42.5 30.5t-58 9.5zM272 832q0 23 11.5 36t31.5 13q32 0 32 -35q0 -23 -11.5 -35.5t-31.5 -12.5q-32 0 -32 34z M395 832q0 23 11.5 36t31.5 13q32 0 32 -35q0 -23 -11.5 -35.5t-31.5 -12.5q-32 0 -32 34z" />
<glyph unicode="&#xd7;" horiz-adv-x="358" d="M66 154l-27 27l122 134l-79 135l34 25l75 -126l113 125l29 -27l-122 -134l77 -131l-34 -26l-72 124z" />
<glyph unicode="&#xd8;" horiz-adv-x="567" d="M247 -11q-104 0 -151 71l-49 -60h-48l79 98q-9 23 -13 53.5t-4 68.5q0 28 3 62t8 68q15 96 39.5 164.5t59.5 112t80.5 64t102.5 20.5q54 0 92.5 -18.5t61.5 -58.5l53 66h49l-85 -105q15 -47 15 -112q0 -58 -12 -133q-15 -96 -39.5 -164.5t-59.5 -112t-80.5 -64 t-101.5 -20.5zM120 153l352 435q-16 42 -46.5 59t-75.5 17q-42 0 -76.5 -15.5t-62.5 -52t-49.5 -96.5t-35.5 -150q-6 -36 -9.5 -71t-3.5 -65q0 -18 2 -33t5 -28zM250 35q41 0 76 15.5t63 52t49 97t36 150.5q5 35 8.5 69.5t3.5 63.5q0 16 -1 30t-4 26l-350 -435 q17 -38 46.5 -53.5t72.5 -15.5z" />
<glyph unicode="&#xd9;" horiz-adv-x="552" d="M59 0zM424 232l74 468h53l-74 -467q-20 -125 -82 -184.5t-159 -59.5q-85 0 -131 43.5t-46 133.5q0 29 6 67l74 467h54l-75 -466q-3 -17 -4 -31.5t-1 -28.5q0 -136 127 -136q71 0 119 45t65 149zM343 786l-68 106l1 5h63l44 -108v-3h-40z" />
<glyph unicode="&#xda;" horiz-adv-x="552" d="M59 0zM424 232l74 468h53l-74 -467q-20 -125 -82 -184.5t-159 -59.5q-85 0 -131 43.5t-46 133.5q0 29 6 67l74 467h54l-75 -466q-3 -17 -4 -31.5t-1 -28.5q0 -136 127 -136q71 0 119 45t65 149zM411 898h64l-1 -5l-97 -106h-44v3z" />
<glyph unicode="&#xdb;" horiz-adv-x="552" d="M59 0zM424 232l74 468h53l-74 -467q-20 -125 -82 -184.5t-159 -59.5q-85 0 -131 43.5t-46 133.5q0 29 6 67l74 467h54l-75 -466q-3 -17 -4 -31.5t-1 -28.5q0 -136 127 -136q71 0 119 45t65 149zM350 898h45l71 -109v-2h-50l-47 79l-72 -79h-53v2z" />
<glyph unicode="&#xdc;" horiz-adv-x="552" d="M59 0zM424 232l74 468h53l-74 -467q-20 -125 -82 -184.5t-159 -59.5q-85 0 -131 43.5t-46 133.5q0 29 6 67l74 467h54l-75 -466q-3 -17 -4 -31.5t-1 -28.5q0 -136 127 -136q71 0 119 45t65 149zM264 833q0 23 11.5 36t31.5 13q32 0 32 -35q0 -23 -11.5 -35.5t-31.5 -12.5 q-32 0 -32 34zM387 833q0 23 11.5 36t31.5 13q32 0 32 -35q0 -23 -11.5 -35.5t-31.5 -12.5q-32 0 -32 34z" />
<glyph unicode="&#xdd;" horiz-adv-x="450" d="M77 0zM198 283l-121 417h60l97 -362l212 362h60l-254 -416l-45 -284h-53zM355 897h64l-1 -5l-97 -106h-44v3z" />
<glyph unicode="&#xde;" horiz-adv-x="481" d="M43 0l111 700h54l-22 -141h142q138 0 138 -147q0 -54 -13 -100.5t-38.5 -80.5t-63.5 -53.5t-88 -19.5h-141l-25 -158h-54zM320 511h-142l-48 -305h140q68 0 105.5 53t37.5 143q0 57 -22.5 83t-70.5 26z" />
<glyph unicode="&#xdf;" horiz-adv-x="455" d="M140 16l22 41q28 -20 66 -20q31 0 55 14t41 38.5t26 59t9 75.5q0 57 -25 93t-78 36h-28l7 45h25q27 0 49 13t37 35t23 49.5t8 57.5q0 51 -23.5 81t-66.5 30q-48 0 -80.5 -36t-45.5 -112l-81 -515h-51l80 511q32 197 185 197q66 0 100.5 -41t34.5 -107t-28 -115.5 t-74 -69.5q40 -13 61 -51t21 -98q0 -52 -12.5 -95t-36 -74t-57 -48.5t-75.5 -17.5q-25 0 -47 5.5t-41 18.5z" />
<glyph unicode="&#xe0;" horiz-adv-x="415" d="M25 0zM74 108q0 -36 17.5 -55.5t49.5 -19.5q55 0 95 49.5t57 138.5l4 26h-67q-70 0 -113 -38.5t-43 -100.5zM280 113q-26 -61 -65.5 -92t-89.5 -31q-42 0 -71 28t-29 82q0 38 13 72t39 60t64.5 41.5t89.5 15.5h73q4 18 5.5 34t1.5 30q0 55 -22.5 75t-59.5 20t-67.5 -18.5 t-51.5 -62.5l-41 22q25 48 65.5 76t101.5 28t94 -30t33 -97q0 -14 -1 -30t-4 -33l-48 -303h-43zM233 570l-68 106l1 5h63l44 -108v-3h-40z" />
<glyph unicode="&#xe1;" horiz-adv-x="414" d="M25 0zM74 108q0 -36 17.5 -55.5t49.5 -19.5q55 0 95 49.5t57 138.5l4 26h-67q-70 0 -113 -38.5t-43 -100.5zM280 113q-26 -61 -65.5 -92t-89.5 -31q-42 0 -71 28t-29 82q0 38 13 72t39 60t64.5 41.5t89.5 15.5h73q4 18 5.5 34t1.5 30q0 55 -22.5 75t-59.5 20t-67.5 -18.5 t-51.5 -62.5l-41 22q25 48 65.5 76t101.5 28t94 -30t33 -97q0 -14 -1 -30t-4 -33l-48 -303h-43zM302 680h64l-1 -5l-97 -106h-44v3z" />
<glyph unicode="&#xe2;" horiz-adv-x="414" d="M25 0zM74 108q0 -36 17.5 -55.5t49.5 -19.5q55 0 95 49.5t57 138.5l4 26h-67q-70 0 -113 -38.5t-43 -100.5zM280 113q-26 -61 -65.5 -92t-89.5 -31q-42 0 -71 28t-29 82q0 38 13 72t39 60t64.5 41.5t89.5 15.5h73q4 18 5.5 34t1.5 30q0 55 -22.5 75t-59.5 20t-67.5 -18.5 t-51.5 -62.5l-41 22q25 48 65.5 76t101.5 28t94 -30t33 -97q0 -14 -1 -30t-4 -33l-48 -303h-43zM242 680h45l71 -109v-2h-50l-47 79l-72 -79h-53v2z" />
<glyph unicode="&#xe3;" horiz-adv-x="414" d="M25 0zM74 108q0 -36 17.5 -55.5t49.5 -19.5q55 0 95 49.5t57 138.5l4 26h-67q-70 0 -113 -38.5t-43 -100.5zM280 113q-26 -61 -65.5 -92t-89.5 -31q-42 0 -71 28t-29 82q0 38 13 72t39 60t64.5 41.5t89.5 15.5h73q4 18 5.5 34t1.5 30q0 55 -22.5 75t-59.5 20t-67.5 -18.5 t-51.5 -62.5l-41 22q25 48 65.5 76t101.5 28t94 -30t33 -97q0 -14 -1 -30t-4 -33l-48 -303h-43zM334 669h36q-3 -26 -10.5 -42.5t-17.5 -26t-21.5 -13.5t-21.5 -4q-16 0 -27 7.5t-20 17t-18 17t-21 7.5q-26 0 -32 -45h-36q3 25 10 41.5t17 26.5t20.5 13.5t21.5 3.5 q16 0 27 -7.5t21 -16t19 -16t21 -7.5q25 0 32 44z" />
<glyph unicode="&#xe4;" horiz-adv-x="414" d="M25 0zM74 108q0 -36 17.5 -55.5t49.5 -19.5q55 0 95 49.5t57 138.5l4 26h-67q-70 0 -113 -38.5t-43 -100.5zM280 113q-26 -61 -65.5 -92t-89.5 -31q-42 0 -71 28t-29 82q0 38 13 72t39 60t64.5 41.5t89.5 15.5h73q4 18 5.5 34t1.5 30q0 55 -22.5 75t-59.5 20t-67.5 -18.5 t-51.5 -62.5l-41 22q25 48 65.5 76t101.5 28t94 -30t33 -97q0 -14 -1 -30t-4 -33l-48 -303h-43zM161 615q0 23 11.5 36t31.5 13q32 0 32 -35q0 -23 -11.5 -35.5t-31.5 -12.5q-32 0 -32 34zM284 615q0 23 11.5 36t31.5 13q32 0 32 -35q0 -23 -11.5 -35.5t-31.5 -12.5 q-32 0 -32 34z" />
<glyph unicode="&#xe5;" horiz-adv-x="414" d="M25 0zM74 108q0 -36 17.5 -55.5t49.5 -19.5q55 0 95 49.5t57 138.5l4 26h-67q-70 0 -113 -38.5t-43 -100.5zM280 113q-26 -61 -65.5 -92t-89.5 -31q-42 0 -71 28t-29 82q0 38 13 72t39 60t64.5 41.5t89.5 15.5h73q4 18 5.5 34t1.5 30q0 55 -22.5 75t-59.5 20t-67.5 -18.5 t-51.5 -62.5l-41 22q25 48 65.5 76t101.5 28t94 -30t33 -97q0 -14 -1 -30t-4 -33l-48 -303h-43zM270 722q27 0 45.5 -18.5t18.5 -52.5q0 -42 -24 -71t-61 -29q-28 0 -46.5 18.5t-18.5 53.5q0 40 23.5 69.5t62.5 29.5zM266 694q-24 0 -38 -20.5t-14 -47.5q0 -22 10 -34.5 t27 -12.5q23 0 38.5 21t15.5 49q0 22 -11 33.5t-28 11.5z" />
<glyph unicode="&#xe6;" horiz-adv-x="662" d="M301 129q-29 -68 -72 -104t-98 -36q-48 0 -76 29t-28 83q0 37 13.5 69.5t40 56.5t64.5 38t86 14h73q5 23 6.5 42t1.5 33q0 54 -21.5 74.5t-61.5 20.5q-36 0 -65.5 -19t-49.5 -63l-40 22q23 48 62.5 76t100.5 28q52 0 81 -27t32 -89q53 116 156 116q64 0 94 -43t30 -118 q0 -22 -2.5 -45t-9.5 -49h-269q-6 -47 -6 -76q0 -37 7 -62t20 -40t30 -21.5t38 -6.5q79 0 125 99l40 -22q-14 -26 -29.5 -48t-36 -38t-46.5 -25t-59 -9q-58 0 -92.5 34t-38.5 106zM583 334q0 56 -21 85.5t-63 29.5q-51 0 -86 -41t-55 -129h220q3 15 4 29t1 26zM76 108 q0 -37 19 -56t51 -19q57 0 94 48t54 136l3 22h-67q-35 0 -63 -9.5t-48.5 -27t-31.5 -41.5t-11 -53z" />
<glyph unicode="&#xe7;" horiz-adv-x="396" d="M141 -228q-32 0 -53.5 14t-32.5 43l34 19q11 -41 52 -41q28 0 41 15.5t13 38.5q0 26 -16.5 34.5t-35.5 1.5l-11 10l28 83q-120 12 -120 167q0 19 1.5 39.5t5.5 43.5q20 130 72.5 191.5t135.5 61.5q62 0 92 -32.5t38 -96.5l-47 -16q-8 51 -27.5 75.5t-60.5 24.5 q-60 0 -97.5 -50t-54.5 -159q-4 -24 -6.5 -44.5t-2.5 -38.5q0 -65 24 -94t74 -29q39 0 69 23t53 74l42 -21q-24 -53 -62 -84.5t-95 -35.5l-22 -63q23 2 42.5 -13t19.5 -50q0 -45 -27 -68t-66 -23z" />
<glyph unicode="&#xe8;" horiz-adv-x="409" d="M40 0zM179 -11q-66 0 -102.5 41.5t-36.5 130.5q0 17 1.5 37.5t5.5 42.5q19 125 71.5 188.5t134.5 63.5q63 0 93 -43.5t30 -117.5q0 -24 -3.5 -50.5t-8.5 -55.5h-269q-3 -14 -4 -32.5t-1 -32.5q0 -67 24 -98t71 -31q79 0 125 99l40 -22q-13 -26 -29 -48t-36.5 -38 t-46.5 -25t-59 -9zM328 334q0 115 -81 115q-54 0 -91 -44t-54 -137h221q2 17 3.5 34t1.5 32zM244 569l-68 106l1 5h63l44 -108v-3h-40z" />
<glyph unicode="&#xe9;" horiz-adv-x="409" d="M40 0zM179 -11q-66 0 -102.5 41.5t-36.5 130.5q0 17 1.5 37.5t5.5 42.5q19 125 71.5 188.5t134.5 63.5q63 0 93 -43.5t30 -117.5q0 -24 -3.5 -50.5t-8.5 -55.5h-269q-3 -14 -4 -32.5t-1 -32.5q0 -67 24 -98t71 -31q79 0 125 99l40 -22q-13 -26 -29 -48t-36.5 -38 t-46.5 -25t-59 -9zM328 334q0 115 -81 115q-54 0 -91 -44t-54 -137h221q2 17 3.5 34t1.5 32zM312 680h64l-1 -5l-97 -106h-44v3z" />
<glyph unicode="&#xea;" horiz-adv-x="409" d="M40 0zM179 -11q-66 0 -102.5 41.5t-36.5 130.5q0 17 1.5 37.5t5.5 42.5q19 125 71.5 188.5t134.5 63.5q63 0 93 -43.5t30 -117.5q0 -24 -3.5 -50.5t-8.5 -55.5h-269q-3 -14 -4 -32.5t-1 -32.5q0 -67 24 -98t71 -31q79 0 125 99l40 -22q-13 -26 -29 -48t-36.5 -38 t-46.5 -25t-59 -9zM328 334q0 115 -81 115q-54 0 -91 -44t-54 -137h221q2 17 3.5 34t1.5 32zM252 680h45l71 -109v-2h-50l-47 79l-72 -79h-53v2z" />
<glyph unicode="&#xeb;" horiz-adv-x="409" d="M40 0zM179 -11q-66 0 -102.5 41.5t-36.5 130.5q0 17 1.5 37.5t5.5 42.5q19 125 71.5 188.5t134.5 63.5q63 0 93 -43.5t30 -117.5q0 -24 -3.5 -50.5t-8.5 -55.5h-269q-3 -14 -4 -32.5t-1 -32.5q0 -67 24 -98t71 -31q79 0 125 99l40 -22q-13 -26 -29 -48t-36.5 -38 t-46.5 -25t-59 -9zM328 334q0 115 -81 115q-54 0 -91 -44t-54 -137h221q2 17 3.5 34t1.5 32zM171 615q0 23 11.5 36t31.5 13q32 0 32 -35q0 -23 -11.5 -35.5t-31.5 -12.5q-32 0 -32 34zM294 615q0 23 11.5 36t31.5 13q32 0 32 -35q0 -23 -11.5 -35.5t-31.5 -12.5 q-32 0 -32 34z" />
<glyph unicode="&#xec;" horiz-adv-x="197" d="M34 0zM110 482h52l-76 -482h-52zM133 569l-68 106l1 5h63l44 -108v-3h-40z" />
<glyph unicode="&#xed;" horiz-adv-x="195" d="M34 0zM110 482h52l-76 -482h-52zM200 679h64l-1 -5l-97 -106h-44v3z" />
<glyph unicode="&#xee;" horiz-adv-x="195" d="M34 0zM110 482h52l-76 -482h-52zM140 679h45l71 -109v-2h-50l-47 79l-72 -79h-53v2z" />
<glyph unicode="&#xef;" horiz-adv-x="195" d="M34 0zM110 482h52l-76 -482h-52zM59 614q0 23 11.5 36t31.5 13q32 0 32 -35q0 -23 -11.5 -35.5t-31.5 -12.5q-32 0 -32 34zM182 614q0 23 11.5 36t31.5 13q32 0 32 -35q0 -23 -11.5 -35.5t-31.5 -12.5q-32 0 -32 34z" />
<glyph unicode="&#xf0;" horiz-adv-x="433" d="M47 239q19 130 70.5 191t134.5 61t107 -81q2 57 -5.5 101t-24.5 79l-71 -51l-12 31l66 48q-33 50 -95 80l25 37q35 -14 62 -36t46 -51l79 57l12 -31l-75 -55q20 -41 28.5 -90.5t8.5 -107.5q0 -36 -3 -77.5t-11 -95.5q-19 -134 -72 -196.5t-136 -62.5q-69 0 -105 41 t-36 128q0 19 1.5 38.5t5.5 42.5zM184 34q61 0 98.5 49t54.5 156q4 24 6 45.5t2 39.5q0 64 -23.5 93.5t-71.5 29.5q-63 0 -100 -49.5t-54 -158.5q-3 -23 -5 -44t-2 -38q0 -63 23.5 -93t71.5 -30z" />
<glyph unicode="&#xf1;" horiz-adv-x="459" d="M33 0zM33 0l77 482h44l-13 -114q26 63 68 94t91 31q108 0 108 -123q0 -14 -1 -28.5t-4 -30.5l-49 -311h-51l48 302q2 15 3 28.5t1 24.5q0 50 -19.5 71t-57.5 21q-27 0 -51.5 -14t-45 -40t-35 -62t-22.5 -80l-40 -251h-51zM364 669h36q-3 -26 -10.5 -42.5t-17.5 -26 t-21.5 -13.5t-21.5 -4q-16 0 -27 7.5t-20 17t-18 17t-21 7.5q-26 0 -32 -45h-36q3 25 10 41.5t17 26.5t20.5 13.5t21.5 3.5q16 0 27 -7.5t21 -16t19 -16t21 -7.5q25 0 32 44z" />
<glyph unicode="&#xf2;" horiz-adv-x="435" d="M40 0zM40 157q0 19 1.5 40t5.5 44q20 131 72.5 191.5t136.5 60.5q69 0 104.5 -40t35.5 -127q0 -18 -2 -39.5t-6 -45.5q-20 -129 -72 -190.5t-136 -61.5q-69 0 -104.5 41t-35.5 127zM184 33q62 0 98.5 49.5t54.5 157.5q4 25 6 46t2 40q0 64 -23.5 93t-71.5 29 q-63 0 -99 -49t-53 -159q-4 -24 -6 -45.5t-2 -38.5q0 -64 23 -93.5t71 -29.5zM251 569l-68 106l1 5h63l44 -108v-3h-40z" />
<glyph unicode="&#xf3;" horiz-adv-x="435" d="M40 0zM40 157q0 19 1.5 40t5.5 44q20 131 72.5 191.5t136.5 60.5q69 0 104.5 -40t35.5 -127q0 -18 -2 -39.5t-6 -45.5q-20 -129 -72 -190.5t-136 -61.5q-69 0 -104.5 41t-35.5 127zM184 33q62 0 98.5 49.5t54.5 157.5q4 25 6 46t2 40q0 64 -23.5 93t-71.5 29 q-63 0 -99 -49t-53 -159q-4 -24 -6 -45.5t-2 -38.5q0 -64 23 -93.5t71 -29.5zM320 680h64l-1 -5l-97 -106h-44v3z" />
<glyph unicode="&#xf4;" horiz-adv-x="435" d="M40 0zM40 157q0 19 1.5 40t5.5 44q20 131 72.5 191.5t136.5 60.5q69 0 104.5 -40t35.5 -127q0 -18 -2 -39.5t-6 -45.5q-20 -129 -72 -190.5t-136 -61.5q-69 0 -104.5 41t-35.5 127zM184 33q62 0 98.5 49.5t54.5 157.5q4 25 6 46t2 40q0 64 -23.5 93t-71.5 29 q-63 0 -99 -49t-53 -159q-4 -24 -6 -45.5t-2 -38.5q0 -64 23 -93.5t71 -29.5zM260 680h45l71 -109v-2h-50l-47 79l-72 -79h-53v2z" />
<glyph unicode="&#xf5;" horiz-adv-x="435" d="M40 0zM40 157q0 19 1.5 40t5.5 44q20 131 72.5 191.5t136.5 60.5q69 0 104.5 -40t35.5 -127q0 -18 -2 -39.5t-6 -45.5q-20 -129 -72 -190.5t-136 -61.5q-69 0 -104.5 41t-35.5 127zM184 33q62 0 98.5 49.5t54.5 157.5q4 25 6 46t2 40q0 64 -23.5 93t-71.5 29 q-63 0 -99 -49t-53 -159q-4 -24 -6 -45.5t-2 -38.5q0 -64 23 -93.5t71 -29.5zM352 669h36q-3 -26 -10.5 -42.5t-17.5 -26t-21.5 -13.5t-21.5 -4q-16 0 -27 7.5t-20 17t-18 17t-21 7.5q-26 0 -32 -45h-36q3 25 10 41.5t17 26.5t20.5 13.5t21.5 3.5q16 0 27 -7.5t21 -16 t19 -16t21 -7.5q25 0 32 44z" />
<glyph unicode="&#xf6;" horiz-adv-x="435" d="M40 0zM40 157q0 19 1.5 40t5.5 44q20 131 72.5 191.5t136.5 60.5q69 0 104.5 -40t35.5 -127q0 -18 -2 -39.5t-6 -45.5q-20 -129 -72 -190.5t-136 -61.5q-69 0 -104.5 41t-35.5 127zM184 33q62 0 98.5 49.5t54.5 157.5q4 25 6 46t2 40q0 64 -23.5 93t-71.5 29 q-63 0 -99 -49t-53 -159q-4 -24 -6 -45.5t-2 -38.5q0 -64 23 -93.5t71 -29.5zM179 615q0 23 11.5 36t31.5 13q32 0 32 -35q0 -23 -11.5 -35.5t-31.5 -12.5q-32 0 -32 34zM302 615q0 23 11.5 36t31.5 13q32 0 32 -35q0 -23 -11.5 -35.5t-31.5 -12.5q-32 0 -32 34z" />
<glyph unicode="&#xf7;" horiz-adv-x="374" d="M179 453q1 25 12.5 36.5t28.5 11.5q31 0 31 -36q-2 -23 -13 -35t-29 -12q-15 0 -23 9.5t-7 25.5zM340 330l-8 -46h-290l7 46h291zM132 154q1 23 12.5 35t28.5 12q31 0 31 -36q-1 -23 -13 -35.5t-29 -12.5q-32 0 -30 37z" />
<glyph unicode="&#xf8;" horiz-adv-x="435" d="M181 -11q-81 0 -113 53l-37 -42h-45l66 75q-12 33 -12 82q0 38 6 83q20 128 72.5 190.5t137.5 62.5q79 0 112 -55l39 44h45l-68 -77q12 -33 12 -79q0 -19 -2 -40.5t-6 -45.5q-19 -126 -71.5 -188.5t-135.5 -62.5zM93 121l240 278q-21 51 -82 51q-63 0 -100.5 -51 t-54.5 -159q-4 -26 -5.5 -48.5t-1.5 -42.5q0 -8 1 -15.5t3 -12.5zM185 33q63 0 99.5 50.5t53.5 156.5q4 25 6 48t2 42q0 17 -3 29l-240 -278q21 -48 82 -48z" />
<glyph unicode="&#xf9;" horiz-adv-x="457" d="M51 0zM163 -11q-57 0 -84.5 33.5t-27.5 94.5q0 14 1 28t3 29l49 308h51l-48 -300q-2 -15 -2.5 -28t-0.5 -25q0 -95 80 -95q54 0 92.5 51.5t56.5 142.5l39 254h52l-77 -482h-44l14 109q-25 -60 -65.5 -90t-88.5 -30zM263 569l-68 106l1 5h63l44 -108v-3h-40z" />
<glyph unicode="&#xfa;" horiz-adv-x="457" d="M51 0zM163 -11q-57 0 -84.5 33.5t-27.5 94.5q0 14 1 28t3 29l49 308h51l-48 -300q-2 -15 -2.5 -28t-0.5 -25q0 -95 80 -95q54 0 92.5 51.5t56.5 142.5l39 254h52l-77 -482h-44l14 109q-25 -60 -65.5 -90t-88.5 -30zM331 680h64l-1 -5l-97 -106h-44v3z" />
<glyph unicode="&#xfb;" horiz-adv-x="457" d="M51 0zM163 -11q-57 0 -84.5 33.5t-27.5 94.5q0 14 1 28t3 29l49 308h51l-48 -300q-2 -15 -2.5 -28t-0.5 -25q0 -95 80 -95q54 0 92.5 51.5t56.5 142.5l39 254h52l-77 -482h-44l14 109q-25 -60 -65.5 -90t-88.5 -30zM271 680h45l71 -109v-2h-50l-47 79l-72 -79h-53v2z" />
<glyph unicode="&#xfc;" horiz-adv-x="457" d="M51 0zM163 -11q-57 0 -84.5 33.5t-27.5 94.5q0 14 1 28t3 29l49 308h51l-48 -300q-2 -15 -2.5 -28t-0.5 -25q0 -95 80 -95q54 0 92.5 51.5t56.5 142.5l39 254h52l-77 -482h-44l14 109q-25 -60 -65.5 -90t-88.5 -30zM190 615q0 23 11.5 36t31.5 13q32 0 32 -35 q0 -23 -11.5 -35.5t-31.5 -12.5q-32 0 -32 34zM313 615q0 23 11.5 36t31.5 13q32 0 32 -35q0 -23 -11.5 -35.5t-31.5 -12.5q-32 0 -32 34z" />
<glyph unicode="&#xfd;" horiz-adv-x="372" d="M0 0zM99 -56l22 49l-72 489h54l56 -418l186 418h53l-257 -556q-20 -43 -39.5 -69.5t-39 -41.5t-38.5 -20t-37 -5q-33 0 -62 14l21 44q13 -6 24 -8t23 -2q14 0 26.5 4t25.5 16t26 32.5t28 53.5zM289 680h64l-1 -5l-97 -106h-44v3z" />
<glyph unicode="&#xfe;" horiz-adv-x="453" d="M277 448q-53 0 -95 -50.5t-59 -159.5q-3 -20 -5 -38.5t-2 -35.5q0 -68 25 -100t65 -32q60 0 96.5 53.5t53.5 155.5q5 25 6.5 44t1.5 38q0 125 -87 125zM100 90l-44 -276h-52l141 886h51l-51 -320q24 58 64 85.5t88 27.5q58 0 88 -42.5t30 -123.5q0 -21 -2 -40.5t-6 -44.5 q-18 -121 -68.5 -187t-128.5 -66q-41 0 -71 24.5t-39 76.5z" />
<glyph unicode="&#xff;" horiz-adv-x="372" d="M0 0zM99 -56l22 49l-72 489h54l56 -418l186 418h53l-257 -556q-20 -43 -39.5 -69.5t-39 -41.5t-38.5 -20t-37 -5q-33 0 -62 14l21 44q13 -6 24 -8t23 -2q14 0 26.5 4t25.5 16t26 32.5t28 53.5zM148 615q0 23 11.5 36t31.5 13q32 0 32 -35q0 -23 -11.5 -35.5t-31.5 -12.5 q-32 0 -32 34zM271 615q0 23 11.5 36t31.5 13q32 0 32 -35q0 -23 -11.5 -35.5t-31.5 -12.5q-32 0 -32 34z" />
<glyph unicode="&#x100;" horiz-adv-x="463" d="M0 0zM295 638l-179 -431h222zM358 0l-17 159h-244l-66 -159h-56l297 700h65l74 -700h-53zM417 859l-6 -39h-180l6 39h180z" />
<glyph unicode="&#x101;" horiz-adv-x="414" d="M25 0zM74 108q0 -36 17.5 -55.5t49.5 -19.5q55 0 95 49.5t57 138.5l4 26h-67q-70 0 -113 -38.5t-43 -100.5zM280 113q-26 -61 -65.5 -92t-89.5 -31q-42 0 -71 28t-29 82q0 38 13 72t39 60t64.5 41.5t89.5 15.5h73q4 18 5.5 34t1.5 30q0 55 -22.5 75t-59.5 20t-67.5 -18.5 t-51.5 -62.5l-41 22q25 48 65.5 76t101.5 28t94 -30t33 -97q0 -14 -1 -30t-4 -33l-48 -303h-43zM351 642l-6 -39h-180l6 39h180z" />
<glyph unicode="&#x102;" horiz-adv-x="463" d="M0 0zM295 638l-179 -431h222zM358 0l-17 159h-244l-66 -159h-56l297 700h65l74 -700h-53zM396 896h36q-10 -64 -39 -88t-77 -24q-47 0 -70 24.5t-13 87.5h37q-7 -43 5.5 -59t43.5 -16q32 0 50.5 16t26.5 59z" />
<glyph unicode="&#x103;" horiz-adv-x="414" d="M25 0zM74 108q0 -36 17.5 -55.5t49.5 -19.5q55 0 95 49.5t57 138.5l4 26h-67q-70 0 -113 -38.5t-43 -100.5zM280 113q-26 -61 -65.5 -92t-89.5 -31q-42 0 -71 28t-29 82q0 38 13 72t39 60t64.5 41.5t89.5 15.5h73q4 18 5.5 34t1.5 30q0 55 -22.5 75t-59.5 20t-67.5 -18.5 t-51.5 -62.5l-41 22q25 48 65.5 76t101.5 28t94 -30t33 -97q0 -14 -1 -30t-4 -33l-48 -303h-43zM329 679h36q-10 -64 -39 -88t-77 -24q-47 0 -70 24.5t-13 87.5h37q-7 -43 5.5 -59t43.5 -16q32 0 50.5 16t26.5 59z" />
<glyph unicode="&#x104;" horiz-adv-x="463" d="M402 -181q-30 -23 -68 -23q-33 0 -53 19.5t-20 61.5q0 26 8 49.5t21 42t30 32t36 19.5l-15 139h-244l-66 -159h-56l297 700h65l74 -700h-28q-17 -2 -32.5 -12.5t-27 -26t-18 -35t-6.5 -40.5q0 -29 12.5 -39.5t29.5 -10.5q27 0 46 16zM295 638l-179 -431h222z" />
<glyph unicode="&#x105;" horiz-adv-x="414" d="M320 -181q-30 -23 -68 -23q-33 0 -53 19.5t-20 61.5q0 51 27 89t63 52l11 95q-26 -61 -65.5 -92t-89.5 -31q-42 0 -71 28t-29 82q0 38 13 72t39 60t64.5 41.5t89.5 15.5h73q4 18 5.5 34t1.5 30q0 55 -22.5 75t-59.5 20t-67.5 -18.5t-51.5 -62.5l-41 22q25 48 65.5 76 t101.5 28t94 -30t33 -97q0 -14 -1 -30t-4 -33l-48 -303h-9q-17 -2 -32.5 -12.5t-27 -26t-18 -35t-6.5 -40.5q0 -29 12.5 -39.5t29.5 -10.5q27 0 46 16zM74 108q0 -36 17.5 -55.5t49.5 -19.5q55 0 95 49.5t57 138.5l4 26h-67q-70 0 -113 -38.5t-43 -100.5z" />
<glyph unicode="&#x106;" horiz-adv-x="514" d="M59 0zM71 350q15 99 40.5 167.5t61 111.5t80.5 62.5t98 19.5q37 0 67 -9t52 -29t36.5 -52.5t19.5 -79.5l-51 -16q-5 40 -15.5 66.5t-27 42.5t-38 22.5t-48.5 6.5q-38 0 -72 -15t-62.5 -51t-50.5 -96t-36 -150q-12 -75 -12 -132q0 -51 9.5 -86t28 -56.5t44.5 -31t59 -9.5 q51 0 95.5 28.5t77.5 103.5l44 -24q-18 -42 -42.5 -71.5t-53.5 -48t-61 -27t-65 -8.5q-91 0 -140.5 52.5t-49.5 175.5q0 31 3.5 63.5t8.5 69.5zM418 898h64l-1 -5l-97 -106h-44v3z" />
<glyph unicode="&#x107;" horiz-adv-x="396" d="M40 0zM309 130l42 -21q-26 -56 -66.5 -88t-103.5 -32q-141 0 -141 168q0 19 1.5 39.5t5.5 43.5q20 130 72.5 191.5t135.5 61.5q62 0 92 -32.5t38 -96.5l-47 -16q-8 51 -27.5 75.5t-60.5 24.5q-60 0 -97.5 -50t-54.5 -159q-4 -24 -6.5 -44.5t-2.5 -38.5q0 -65 24 -94 t74 -29q39 0 69 23t53 74zM318 680h64l-1 -5l-97 -106h-44v3z" />
<glyph unicode="&#x108;" horiz-adv-x="514" d="M59 0zM71 350q15 99 40.5 167.5t61 111.5t80.5 62.5t98 19.5q37 0 67 -9t52 -29t36.5 -52.5t19.5 -79.5l-51 -16q-5 40 -15.5 66.5t-27 42.5t-38 22.5t-48.5 6.5q-38 0 -72 -15t-62.5 -51t-50.5 -96t-36 -150q-12 -75 -12 -132q0 -51 9.5 -86t28 -56.5t44.5 -31t59 -9.5 q51 0 95.5 28.5t77.5 103.5l44 -24q-18 -42 -42.5 -71.5t-53.5 -48t-61 -27t-65 -8.5q-91 0 -140.5 52.5t-49.5 175.5q0 31 3.5 63.5t8.5 69.5zM358 898h45l71 -109v-2h-50l-47 79l-72 -79h-53v2z" />
<glyph unicode="&#x109;" horiz-adv-x="396" d="M40 0zM309 130l42 -21q-26 -56 -66.5 -88t-103.5 -32q-141 0 -141 168q0 19 1.5 39.5t5.5 43.5q20 130 72.5 191.5t135.5 61.5q62 0 92 -32.5t38 -96.5l-47 -16q-8 51 -27.5 75.5t-60.5 24.5q-60 0 -97.5 -50t-54.5 -159q-4 -24 -6.5 -44.5t-2.5 -38.5q0 -65 24 -94 t74 -29q39 0 69 23t53 74zM257 680h45l71 -109v-2h-50l-47 79l-72 -79h-53v2z" />
<glyph unicode="&#x10a;" horiz-adv-x="514" d="M59 0zM71 350q15 99 40.5 167.5t61 111.5t80.5 62.5t98 19.5q37 0 67 -9t52 -29t36.5 -52.5t19.5 -79.5l-51 -16q-5 40 -15.5 66.5t-27 42.5t-38 22.5t-48.5 6.5q-38 0 -72 -15t-62.5 -51t-50.5 -96t-36 -150q-12 -75 -12 -132q0 -51 9.5 -86t28 -56.5t44.5 -31t59 -9.5 q51 0 95.5 28.5t77.5 103.5l44 -24q-18 -42 -42.5 -71.5t-53.5 -48t-61 -27t-65 -8.5q-91 0 -140.5 52.5t-49.5 175.5q0 31 3.5 63.5t8.5 69.5zM337 833q0 23 11 36t31 13q33 0 33 -35q0 -23 -11.5 -35.5t-31.5 -12.5q-32 0 -32 34z" />
<glyph unicode="&#x10b;" horiz-adv-x="396" d="M40 0zM309 130l42 -21q-26 -56 -66.5 -88t-103.5 -32q-141 0 -141 168q0 19 1.5 39.5t5.5 43.5q20 130 72.5 191.5t135.5 61.5q62 0 92 -32.5t38 -96.5l-47 -16q-8 51 -27.5 75.5t-60.5 24.5q-60 0 -97.5 -50t-54.5 -159q-4 -24 -6.5 -44.5t-2.5 -38.5q0 -65 24 -94 t74 -29q39 0 69 23t53 74zM236 615q0 23 11 36t31 13q33 0 33 -35q0 -23 -11.5 -35.5t-31.5 -12.5q-32 0 -32 34z" />
<glyph unicode="&#x10c;" horiz-adv-x="514" d="M59 0zM71 350q15 99 40.5 167.5t61 111.5t80.5 62.5t98 19.5q37 0 67 -9t52 -29t36.5 -52.5t19.5 -79.5l-51 -16q-5 40 -15.5 66.5t-27 42.5t-38 22.5t-48.5 6.5q-38 0 -72 -15t-62.5 -51t-50.5 -96t-36 -150q-12 -75 -12 -132q0 -51 9.5 -86t28 -56.5t44.5 -31t59 -9.5 q51 0 95.5 28.5t77.5 103.5l44 -24q-18 -42 -42.5 -71.5t-53.5 -48t-61 -27t-65 -8.5q-91 0 -140.5 52.5t-49.5 175.5q0 31 3.5 63.5t8.5 69.5zM345 787l-70 109v2h50l46 -77l73 77h52v-2l-106 -109h-45z" />
<glyph unicode="&#x10d;" horiz-adv-x="396" d="M40 0zM309 130l42 -21q-26 -56 -66.5 -88t-103.5 -32q-141 0 -141 168q0 19 1.5 39.5t5.5 43.5q20 130 72.5 191.5t135.5 61.5q62 0 92 -32.5t38 -96.5l-47 -16q-8 51 -27.5 75.5t-60.5 24.5q-60 0 -97.5 -50t-54.5 -159q-4 -24 -6.5 -44.5t-2.5 -38.5q0 -65 24 -94 t74 -29q39 0 69 23t53 74zM244 569l-70 109v2h50l46 -77l73 77h52v-2l-106 -109h-45z" />
<glyph unicode="&#x10e;" horiz-adv-x="551" d="M43 0zM43 0l111 700h169q96 0 146.5 -52.5t50.5 -171.5q0 -24 -2.5 -56t-7.5 -64q-30 -188 -106 -272t-191 -84h-170zM103 48h114q42 0 79.5 15t68.5 51t54 94.5t37 145.5q11 64 11 115q0 101 -40 142.5t-110 41.5h-118zM339 786l-70 109v2h50l46 -77l73 77h52v-2 l-106 -109h-45z" />
<glyph unicode="&#x10f;" horiz-adv-x="499" d="M40 0zM523 500h-37l36 200h51zM180 33q51 0 92 50.5t58 159.5q6 43 6 74q0 69 -24 100t-66 31q-58 0 -94.5 -52t-53.5 -155q-5 -26 -6.5 -43.5t-1.5 -36.5q0 -128 90 -128zM161 -11q-60 0 -90.5 43t-30.5 125q0 19 1.5 40t5.5 44q18 123 68.5 187.5t126.5 64.5 q44 0 72 -26t38 -79l50 312h51l-111 -700h-43l13 103q-26 -57 -64.5 -85.5t-86.5 -28.5z" />
<glyph unicode="&#x110;" horiz-adv-x="559" d="M220 0h-170l54 340h-59l8 46h58l50 314h170q94 0 145 -52.5t51 -171.5q0 -24 -2.5 -56t-7.5 -64q-29 -188 -105.5 -272t-191.5 -84zM111 48h113q42 0 79.5 15t68.5 51t54 94.5t37 145.5q5 31 7.5 60.5t2.5 54.5q0 51 -10 86t-29 56.5t-47 31.5t-63 10h-118l-42 -267h123 l-8 -46h-123z" />
<glyph unicode="&#x111;" horiz-adv-x="463" d="M330 243q6 43 6 75q0 67 -24 98.5t-66 31.5q-58 0 -95 -52t-54 -155q-4 -23 -5.5 -42.5t-1.5 -37.5q0 -128 89 -128q52 0 93 50.5t58 159.5zM161 -11q-60 0 -90.5 43t-30.5 125q0 19 1.5 40t5.5 44q18 121 68.5 186.5t126.5 65.5q44 0 73 -27t37 -81l28 179h-118l6 37 h118l16 99h52l-16 -99h58l-6 -37h-58l-89 -564h-44l12 104q-26 -59 -64 -87t-86 -28z" />
<glyph unicode="&#x112;" horiz-adv-x="488" d="M43 0zM417 47l-7 -47h-367l111 700h367l-8 -48h-314l-45 -278h273l-8 -49h-272l-44 -278h314zM448 859l-6 -39h-180l6 39h180z" />
<glyph unicode="&#x113;" horiz-adv-x="409" d="M40 0zM179 -11q-66 0 -102.5 41.5t-36.5 130.5q0 17 1.5 37.5t5.5 42.5q19 125 71.5 188.5t134.5 63.5q63 0 93 -43.5t30 -117.5q0 -24 -3.5 -50.5t-8.5 -55.5h-269q-3 -14 -4 -32.5t-1 -32.5q0 -67 24 -98t71 -31q79 0 125 99l40 -22q-13 -26 -29 -48t-36.5 -38 t-46.5 -25t-59 -9zM328 334q0 115 -81 115q-54 0 -91 -44t-54 -137h221q2 17 3.5 34t1.5 32zM361 642l-6 -39h-180l6 39h180z" />
<glyph unicode="&#x114;" horiz-adv-x="488" d="M43 0zM417 47l-7 -47h-367l111 700h367l-8 -48h-314l-45 -278h273l-8 -49h-272l-44 -278h314zM426 896h36q-10 -64 -39 -88t-77 -24q-47 0 -70 24.5t-13 87.5h37q-7 -43 5.5 -59t43.5 -16q32 0 50.5 16t26.5 59z" />
<glyph unicode="&#x115;" horiz-adv-x="409" d="M40 0zM179 -11q-66 0 -102.5 41.5t-36.5 130.5q0 17 1.5 37.5t5.5 42.5q19 125 71.5 188.5t134.5 63.5q63 0 93 -43.5t30 -117.5q0 -24 -3.5 -50.5t-8.5 -55.5h-269q-3 -14 -4 -32.5t-1 -32.5q0 -67 24 -98t71 -31q79 0 125 99l40 -22q-13 -26 -29 -48t-36.5 -38 t-46.5 -25t-59 -9zM328 334q0 115 -81 115q-54 0 -91 -44t-54 -137h221q2 17 3.5 34t1.5 32zM339 679h36q-10 -64 -39 -88t-77 -24q-47 0 -70 24.5t-13 87.5h37q-7 -43 5.5 -59t43.5 -16q32 0 50.5 16t26.5 59z" />
<glyph unicode="&#x116;" horiz-adv-x="488" d="M43 0zM417 47l-7 -47h-367l111 700h367l-8 -48h-314l-45 -278h273l-8 -49h-272l-44 -278h314zM318 832q0 23 11 36t31 13q33 0 33 -35q0 -23 -11.5 -35.5t-31.5 -12.5q-32 0 -32 34z" />
<glyph unicode="&#x117;" horiz-adv-x="409" d="M40 0zM179 -11q-66 0 -102.5 41.5t-36.5 130.5q0 17 1.5 37.5t5.5 42.5q19 125 71.5 188.5t134.5 63.5q63 0 93 -43.5t30 -117.5q0 -24 -3.5 -50.5t-8.5 -55.5h-269q-3 -14 -4 -32.5t-1 -32.5q0 -67 24 -98t71 -31q79 0 125 99l40 -22q-13 -26 -29 -48t-36.5 -38 t-46.5 -25t-59 -9zM328 334q0 115 -81 115q-54 0 -91 -44t-54 -137h221q2 17 3.5 34t1.5 32zM231 615q0 23 11 36t31 13q33 0 33 -35q0 -23 -11.5 -35.5t-31.5 -12.5q-32 0 -32 34z" />
<glyph unicode="&#x118;" horiz-adv-x="488" d="M384 -181q-30 -23 -68 -23q-33 0 -53 19.5t-20 61.5q0 40 16.5 71.5t42.5 51.5h-259l111 700h367l-8 -48h-314l-45 -278h273l-8 -49h-272l-44 -278h314l-7 -47h-45q-17 -2 -32.5 -12.5t-27 -26t-18 -35t-6.5 -40.5q0 -29 12.5 -39.5t29.5 -10.5q27 0 46 16z" />
<glyph unicode="&#x119;" horiz-adv-x="409" d="M197 -204q-15 0 -28.5 4t-23.5 14t-16 26t-5 40q0 35 13 62.5t33 47.5q-63 2 -96.5 44t-33.5 127q0 17 1.5 37.5t5.5 42.5q19 125 71.5 188.5t134.5 63.5q63 0 93 -43.5t30 -117.5q0 -24 -3.5 -50.5t-8.5 -55.5h-269q-3 -14 -4 -32.5t-1 -32.5q0 -67 24 -98t71 -31 q79 0 125 99l40 -22q-23 -44 -52.5 -75t-77.5 -41q-25 -14 -41.5 -43t-16.5 -63q-1 -29 12.5 -40t30.5 -11q26 0 45 16l15 -33q-30 -23 -68 -23zM328 334q0 115 -81 115q-54 0 -91 -44t-54 -137h221q2 17 3.5 34t1.5 32z" />
<glyph unicode="&#x11a;" horiz-adv-x="488" d="M43 0zM417 47l-7 -47h-367l111 700h367l-8 -48h-314l-45 -278h273l-8 -49h-272l-44 -278h314zM326 786l-70 109v2h50l46 -77l73 77h52v-2l-106 -109h-45z" />
<glyph unicode="&#x11b;" horiz-adv-x="408" d="M40 0zM179 -11q-66 0 -102.5 41.5t-36.5 130.5q0 17 1.5 37.5t5.5 42.5q19 125 71.5 188.5t134.5 63.5q63 0 93 -43.5t30 -117.5q0 -24 -3.5 -50.5t-8.5 -55.5h-269q-3 -14 -4 -32.5t-1 -32.5q0 -67 24 -98t71 -31q79 0 125 99l40 -22q-13 -26 -29 -48t-36.5 -38 t-46.5 -25t-59 -9zM328 334q0 115 -81 115q-54 0 -91 -44t-54 -137h221q2 17 3.5 34t1.5 32zM240 569l-70 109v2h50l46 -77l73 77h52v-2l-106 -109h-45z" />
<glyph unicode="&#x11c;" horiz-adv-x="541" d="M60 0zM236 -11q-84 0 -130 55.5t-46 176.5q0 28 3.5 61.5t8.5 68.5q15 98 39.5 166.5t59.5 111.5t80.5 62.5t101.5 19.5q36 0 65 -8t51 -27.5t36 -51t19 -78.5l-50 -17q-5 40 -15.5 66t-27 41t-38 21t-47.5 6q-40 0 -74 -15t-62 -51t-49.5 -96.5t-35.5 -150.5 q-12 -77 -12 -131q0 -51 9.5 -86.5t26.5 -57.5t42 -31.5t57 -9.5q30 0 60 12t55.5 41.5t45 77.5t30.5 120h-145l7 44h196l-52 -329h-40l14 128q-28 -72 -75.5 -105.5t-107.5 -33.5zM356 897h45l71 -109v-2h-50l-47 79l-72 -79h-53v2z" />
<glyph unicode="&#x11d;" horiz-adv-x="450" d="M0 0zM177 40q52 0 93 50.5t58 158.5q6 37 6 70q0 67 -24 98t-66 31q-115 0 -147 -203q-4 -23 -5.5 -42t-1.5 -37q0 -63 22.5 -94.5t64.5 -31.5zM37 -73q8 -50 34 -71t66 -21q60 0 99 39.5t53 129.5l16 101q-24 -55 -62.5 -81.5t-81.5 -26.5q-59 0 -90.5 42t-31.5 125 q0 18 1.5 38t5.5 42q19 121 68.5 185t127.5 64q43 0 73 -27t40 -81l19 97h42l-76 -482q-17 -110 -71 -159.5t-133 -49.5q-62 0 -97.5 28t-49.5 88zM250 680h45l71 -109v-2h-50l-47 79l-72 -79h-53v2z" />
<glyph unicode="&#x11e;" horiz-adv-x="541" d="M60 0zM236 -11q-84 0 -130 55.5t-46 176.5q0 28 3.5 61.5t8.5 68.5q15 98 39.5 166.5t59.5 111.5t80.5 62.5t101.5 19.5q36 0 65 -8t51 -27.5t36 -51t19 -78.5l-50 -17q-5 40 -15.5 66t-27 41t-38 21t-47.5 6q-40 0 -74 -15t-62 -51t-49.5 -96.5t-35.5 -150.5 q-12 -77 -12 -131q0 -51 9.5 -86.5t26.5 -57.5t42 -31.5t57 -9.5q30 0 60 12t55.5 41.5t45 77.5t30.5 120h-145l7 44h196l-52 -329h-40l14 128q-28 -72 -75.5 -105.5t-107.5 -33.5zM443 896h36q-10 -64 -39 -88t-77 -24q-47 0 -70 24.5t-13 87.5h37q-7 -43 5.5 -59t43.5 -16 q32 0 50.5 16t26.5 59z" />
<glyph unicode="&#x11f;" horiz-adv-x="450" d="M0 0zM177 40q52 0 93 50.5t58 158.5q6 37 6 70q0 67 -24 98t-66 31q-115 0 -147 -203q-4 -23 -5.5 -42t-1.5 -37q0 -63 22.5 -94.5t64.5 -31.5zM37 -73q8 -50 34 -71t66 -21q60 0 99 39.5t53 129.5l16 101q-24 -55 -62.5 -81.5t-81.5 -26.5q-59 0 -90.5 42t-31.5 125 q0 18 1.5 38t5.5 42q19 121 68.5 185t127.5 64q43 0 73 -27t40 -81l19 97h42l-76 -482q-17 -110 -71 -159.5t-133 -49.5q-62 0 -97.5 28t-49.5 88zM337 679h36q-10 -64 -39 -88t-77 -24q-47 0 -70 24.5t-13 87.5h37q-7 -43 5.5 -59t43.5 -16q32 0 50.5 16t26.5 59z" />
<glyph unicode="&#x120;" horiz-adv-x="541" d="M60 0zM236 -11q-84 0 -130 55.5t-46 176.5q0 28 3.5 61.5t8.5 68.5q15 98 39.5 166.5t59.5 111.5t80.5 62.5t101.5 19.5q36 0 65 -8t51 -27.5t36 -51t19 -78.5l-50 -17q-5 40 -15.5 66t-27 41t-38 21t-47.5 6q-40 0 -74 -15t-62 -51t-49.5 -96.5t-35.5 -150.5 q-12 -77 -12 -131q0 -51 9.5 -86.5t26.5 -57.5t42 -31.5t57 -9.5q30 0 60 12t55.5 41.5t45 77.5t30.5 120h-145l7 44h196l-52 -329h-40l14 128q-28 -72 -75.5 -105.5t-107.5 -33.5zM335 832q0 23 11 36t31 13q33 0 33 -35q0 -23 -11.5 -35.5t-31.5 -12.5q-32 0 -32 34z" />
<glyph unicode="&#x121;" horiz-adv-x="450" d="M0 0zM177 40q52 0 93 50.5t58 158.5q6 37 6 70q0 67 -24 98t-66 31q-115 0 -147 -203q-4 -23 -5.5 -42t-1.5 -37q0 -63 22.5 -94.5t64.5 -31.5zM37 -73q8 -50 34 -71t66 -21q60 0 99 39.5t53 129.5l16 101q-24 -55 -62.5 -81.5t-81.5 -26.5q-59 0 -90.5 42t-31.5 125 q0 18 1.5 38t5.5 42q19 121 68.5 185t127.5 64q43 0 73 -27t40 -81l19 97h42l-76 -482q-17 -110 -71 -159.5t-133 -49.5q-62 0 -97.5 28t-49.5 88zM229 615q0 23 11 36t31 13q33 0 33 -35q0 -23 -11.5 -35.5t-31.5 -12.5q-32 0 -32 34z" />
<glyph unicode="&#x122;" horiz-adv-x="541" d="M60 0zM236 -11q-84 0 -130 55.5t-46 176.5q0 28 3.5 61.5t8.5 68.5q15 98 39.5 166.5t59.5 111.5t80.5 62.5t101.5 19.5q36 0 65 -8t51 -27.5t36 -51t19 -78.5l-50 -17q-5 40 -15.5 66t-27 41t-38 21t-47.5 6q-40 0 -74 -15t-62 -51t-49.5 -96.5t-35.5 -150.5 q-12 -77 -12 -131q0 -51 9.5 -86.5t26.5 -57.5t42 -31.5t57 -9.5q30 0 60 12t55.5 41.5t45 77.5t30.5 120h-145l7 44h196l-52 -329h-40l14 128q-28 -72 -75.5 -105.5t-107.5 -33.5zM182 -248l-13 20q21 14 37.5 36t19.5 49q-15 -5 -26 3.5t-11 26.5q1 18 11.5 31t30.5 13 q32 0 32 -37q0 -22 -6.5 -44t-17 -41t-25.5 -34t-32 -23z" />
<glyph unicode="&#x123;" horiz-adv-x="450" d="M303 751l13 -20q-21 -14 -37.5 -36t-19.5 -49q15 5 26 -3.5t11 -26.5q-1 -18 -11.5 -31t-30.5 -13q-32 0 -32 37q0 22 6.5 44t17 41t25.5 34t32 23zM177 40q52 0 93 50.5t58 158.5q6 37 6 70q0 67 -24 98t-66 31q-115 0 -147 -203q-4 -23 -5.5 -42t-1.5 -37 q0 -63 22.5 -94.5t64.5 -31.5zM37 -73q8 -50 34 -71t66 -21q60 0 99 39.5t53 129.5l16 101q-24 -55 -62.5 -81.5t-81.5 -26.5q-59 0 -90.5 42t-31.5 125q0 18 1.5 38t5.5 42q19 121 68.5 185t127.5 64q43 0 73 -27t40 -81l19 97h42l-76 -482q-17 -110 -71 -159.5t-133 -49.5 q-62 0 -97.5 28t-49.5 88z" />
<glyph unicode="&#x124;" horiz-adv-x="581" d="M43 0zM403 0l51 327h-306l-52 -327h-53l111 700h53l-51 -324h306l52 324h52l-111 -700h-52zM365 897h45l71 -109v-2h-50l-47 79l-72 -79h-53v2z" />
<glyph unicode="&#x125;" horiz-adv-x="459" d="M33 0zM195 700l-52 -332q26 63 67.5 94t91.5 31q106 0 106 -123q0 -14 -1 -28.5t-4 -30.5l-49 -311h-51l48 302q2 15 3 29t1 25q0 49 -20 70t-57 21q-28 0 -52.5 -14.5t-44 -40.5t-34.5 -63t-23 -82l-40 -247h-51l111 700h51zM174 897h45l71 -109v-2h-50l-47 79l-72 -79 h-53v2z" />
<glyph unicode="&#x126;" horiz-adv-x="590" d="M161 376h306l19 120h-307zM77 535h56l27 165h52l-26 -165h307l26 165h53l-26 -165h56l-6 -39h-57l-78 -496h-53l52 327h-307l-51 -327h-53l78 496h-57z" />
<glyph unicode="&#x127;" horiz-adv-x="468" d="M73 564l5 37h59l16 99h53l-16 -99h117l-5 -37h-118l-31 -195q26 63 67 93.5t91 30.5q105 0 105 -127q0 -15 -1 -30.5t-4 -32.5l-47 -303h-53l47 294q2 17 3.5 31.5t1.5 27.5q0 51 -20 72.5t-55 21.5q-28 0 -52.5 -14t-44.5 -40.5t-34.5 -63t-22.5 -81.5l-39 -248h-53 l90 564h-59z" />
<glyph unicode="&#x128;" horiz-adv-x="222" d="M43 0zM43 0l111 700h53l-111 -700h-53zM279 886h36q-3 -26 -10.5 -42.5t-17.5 -26t-21.5 -13.5t-21.5 -4q-16 0 -27 7.5t-20 17t-18 17t-21 7.5q-26 0 -32 -45h-36q3 25 10 41.5t17 26.5t20.5 13.5t21.5 3.5q16 0 27 -7.5t21 -16t19 -16t21 -7.5q25 0 32 44z" />
<glyph unicode="&#x129;" horiz-adv-x="195" d="M34 0zM110 482h52l-76 -482h-52zM233 668h36q-3 -26 -10.5 -42.5t-17.5 -26t-21.5 -13.5t-21.5 -4q-16 0 -27 7.5t-20 17t-18 17t-21 7.5q-26 0 -32 -45h-36q3 25 10 41.5t17 26.5t20.5 13.5t21.5 3.5q16 0 27 -7.5t21 -16t19 -16t21 -7.5q25 0 32 44z" />
<glyph unicode="&#x12a;" horiz-adv-x="222" d="M43 0zM43 0l111 700h53l-111 -700h-53zM294 859l-6 -39h-180l6 39h180z" />
<glyph unicode="&#x12b;" horiz-adv-x="198" d="M34 0zM110 482h52l-76 -482h-52zM250 641l-6 -39h-180l6 39h180z" />
<glyph unicode="&#x12c;" horiz-adv-x="222" d="M43 0zM43 0l111 700h53l-111 -700h-53zM273 896h36q-10 -64 -39 -88t-77 -24q-47 0 -70 24.5t-13 87.5h37q-7 -43 5.5 -59t43.5 -16q32 0 50.5 16t26.5 59z" />
<glyph unicode="&#x12d;" horiz-adv-x="195" d="M34 0zM110 482h52l-76 -482h-52zM227 678h36q-10 -64 -39 -88t-77 -24q-47 0 -70 24.5t-13 87.5h37q-7 -43 5.5 -59t43.5 -16q32 0 50.5 16t26.5 59z" />
<glyph unicode="&#x12e;" horiz-adv-x="222" d="M89 -181q-30 -23 -68 -23q-33 0 -53 19.5t-20 61.5q0 27 8 50.5t21.5 42.5t31.5 32t37 19l108 679h53l-111 -700h-26q-17 -2 -32.5 -12.5t-27 -26t-18 -35t-6.5 -40.5q0 -29 12.5 -39.5t29.5 -10.5q27 0 46 16z" />
<glyph unicode="&#x12f;" horiz-adv-x="195" d="M118 615q0 22 11 35.5t33 13.5q34 0 34 -35q0 -23 -12.5 -36t-32.5 -13q-16 0 -24.5 9.5t-8.5 25.5zM79 -181q-30 -23 -68 -23q-33 0 -53 19.5t-20 61.5q0 27 8.5 51t22 42.5t31.5 31.5t37 19l73 461h52l-76 -482h-26q-17 -2 -32.5 -12.5t-27 -26t-18 -35t-6.5 -40.5 q0 -29 12.5 -39.5t29.5 -10.5q27 0 46 16z" />
<glyph unicode="&#x130;" horiz-adv-x="222" d="M43 0zM43 0l111 700h53l-111 -700h-53zM165 832q0 23 11 36t31 13q33 0 33 -35q0 -23 -11.5 -35.5t-31.5 -12.5q-32 0 -32 34z" />
<glyph unicode="&#x131;" horiz-adv-x="195" d="M110 482h52l-76 -482h-52z" />
<glyph unicode="&#x132;" horiz-adv-x="596" d="M43 0zM43 0l111 700h53l-111 -700h-53zM305 -11q-32 0 -61.5 10.5t-51.5 33.5l35 43q16 -20 38 -29.5t47 -9.5q56 0 98 48.5t60 161.5l72 453h53l-71 -449q-12 -74 -32.5 -124t-48.5 -81t-63 -44t-75 -13z" />
<glyph unicode="&#x133;" horiz-adv-x="390" d="M34 0zM118 615q0 22 11 35.5t33 13.5q34 0 34 -35q0 -23 -12.5 -36t-32.5 -13q-16 0 -24.5 9.5t-8.5 25.5zM110 482h52l-76 -482h-52zM310 615q0 22 11 35.5t33 13.5q34 0 34 -35q0 -23 -12.5 -36t-32.5 -13q-16 0 -24.5 9.5t-8.5 25.5zM218 -51l84 533h52l-86 -543 q-13 -78 -46 -113t-81 -35q-16 0 -31 2.5t-30 10.5l23 47q10 -6 18.5 -9t22.5 -3q27 0 45 24t29 86z" />
<glyph unicode="&#x134;" horiz-adv-x="379" d="M0 0zM88 -11q-32 0 -61.5 10.5t-51.5 33.5l35 43q16 -20 38 -29.5t47 -9.5q56 0 98 48.5t60 161.5l72 453h53l-71 -449q-12 -74 -32.5 -124t-48.5 -81t-63 -44t-75 -13zM356 897h45l71 -109v-2h-50l-47 79l-72 -79h-53v2z" />
<glyph unicode="&#x135;" horiz-adv-x="194" d="M0 0zM26 -51l84 533h52l-86 -543q-13 -78 -46 -113t-81 -35q-16 0 -31 2.5t-29 10.5l22 47q10 -6 18.5 -9t22.5 -3q27 0 45 24t29 86zM140 679h45l71 -109v-2h-50l-47 79l-72 -79h-53v2z" />
<glyph unicode="&#x136;" horiz-adv-x="476" d="M43 0zM367 0l-131 340l-107 -130l-33 -210h-53l111 700h53l-66 -410l322 410h60l-248 -312l151 -388h-59zM166 -248l-13 20q21 14 37.5 36t19.5 49q-15 -5 -26 3.5t-11 26.5q1 18 11.5 31t30.5 13q32 0 32 -37q0 -22 -6.5 -44t-17 -41t-25.5 -34t-32 -23z" />
<glyph unicode="&#x137;" horiz-adv-x="388" d="M33 0zM105 129l-20 -129h-52l111 700h51l-81 -502l231 284h61l-180 -212l110 -270h-58l-88 227zM118 -248l-13 20q21 14 37.5 36t19.5 49q-15 -5 -26 3.5t-11 26.5q1 18 11.5 31t30.5 13q32 0 32 -37q0 -22 -6.5 -44t-17 -41t-25.5 -34t-32 -23z" />
<glyph unicode="&#x138;" horiz-adv-x="391" d="M105 131l-20 -131h-52l76 482h52l-46 -284l230 284h61l-179 -212l109 -270h-58l-90 229z" />
<glyph unicode="&#x139;" horiz-adv-x="458" d="M43 0zM103 48h303l-8 -48h-355l110 700h54zM246 897h64l-1 -5l-97 -106h-44v3z" />
<glyph unicode="&#x13a;" horiz-adv-x="199" d="M36 0zM120 0q-41 0 -62.5 23t-12.5 79l94 598h51l-94 -597q-5 -32 5 -44.5t30 -12.5h24l-7 -46h-28zM234 897h64l-1 -5l-97 -106h-44v3z" />
<glyph unicode="&#x13b;" horiz-adv-x="458" d="M43 0zM103 48h303l-8 -48h-355l110 700h54zM162 -248l-13 20q21 14 37.5 36t19.5 49q-15 -5 -26 3.5t-11 26.5q1 18 11.5 31t30.5 13q32 0 32 -37q0 -22 -6.5 -44t-17 -41t-25.5 -34t-32 -23z" />
<glyph unicode="&#x13c;" horiz-adv-x="199" d="M0 0zM120 0q-41 0 -62.5 23t-12.5 79l94 598h51l-94 -597q-5 -32 5 -44.5t30 -12.5h24l-7 -46h-28zM0 -248l-13 20q21 14 37.5 36t19.5 49q-15 -5 -26 3.5t-11 26.5q1 18 11.5 31t30.5 13q32 0 32 -37q0 -22 -6.5 -44t-17 -41t-25.5 -34t-32 -23z" />
<glyph unicode="&#x13d;" horiz-adv-x="459" d="M43 0zM368 501h-37l36 200h51zM103 48h303l-8 -48h-355l110 700h54z" />
<glyph unicode="&#x13e;" horiz-adv-x="238" d="M36 0zM266 500h-37l36 200h51zM120 0q-41 0 -62.5 23t-12.5 79l94 598h51l-94 -597q-5 -32 5 -44.5t30 -12.5h24l-7 -46h-28z" />
<glyph unicode="&#x13f;" horiz-adv-x="459" d="M43 0zM103 48h303l-8 -48h-355l110 700h54zM316 348q0 23 11 36t31 13q33 0 33 -35q0 -23 -11.5 -35.5t-31.5 -12.5q-32 0 -32 34z" />
<glyph unicode="&#x140;" horiz-adv-x="263" d="M37 0zM121 0q-41 0 -62.5 23t-12.5 79l94 598h51l-94 -597q-5 -32 5 -44.5t30 -12.5h24l-7 -46h-28zM199 294q0 23 11 36t31 13q33 0 33 -35q0 -23 -11.5 -35.5t-31.5 -12.5q-32 0 -32 34z" />
<glyph unicode="&#x141;" horiz-adv-x="471" d="M116 48h303l-7 -48h-356l44 283l-90 -76l9 53l89 75l59 365h53l-51 -328l145 120l-8 -54l-146 -119z" />
<glyph unicode="&#x142;" horiz-adv-x="217" d="M208 701l-49 -308l96 99l-9 -54l-95 -98l-54 -340h-51l45 289l-87 -89l8 53l87 90l57 358h52z" />
<glyph unicode="&#x143;" horiz-adv-x="575" d="M43 0zM398 0l-211 604l-95 -604h-49l111 700h53l210 -602l94 602h49l-111 -700h-51zM423 897h64l-1 -5l-97 -106h-44v3z" />
<glyph unicode="&#x144;" horiz-adv-x="459" d="M33 0zM33 0l77 482h44l-13 -114q26 63 68 94t91 31q108 0 108 -123q0 -14 -1 -28.5t-4 -30.5l-49 -311h-51l48 302q2 15 3 28.5t1 24.5q0 50 -19.5 71t-57.5 21q-27 0 -51.5 -14t-45 -40t-35 -62t-22.5 -80l-40 -251h-51zM332 680h64l-1 -5l-97 -106h-44v3z" />
<glyph unicode="&#x145;" horiz-adv-x="575" d="M43 0zM398 0l-211 604l-95 -604h-49l111 700h53l210 -602l94 602h49l-111 -700h-51zM189 -248l-13 20q21 14 37.5 36t19.5 49q-15 -5 -26 3.5t-11 26.5q1 18 11.5 31t30.5 13q32 0 32 -37q0 -22 -6.5 -44t-17 -41t-25.5 -34t-32 -23z" />
<glyph unicode="&#x146;" horiz-adv-x="459" d="M33 0zM33 0l77 482h44l-13 -114q26 63 68 94t91 31q108 0 108 -123q0 -14 -1 -28.5t-4 -30.5l-49 -311h-51l48 302q2 15 3 28.5t1 24.5q0 50 -19.5 71t-57.5 21q-27 0 -51.5 -14t-45 -40t-35 -62t-22.5 -80l-40 -251h-51zM133 -248l-13 20q21 14 37.5 36t19.5 49 q-15 -5 -26 3.5t-11 26.5q1 18 11.5 31t30.5 13q32 0 32 -37q0 -22 -6.5 -44t-17 -41t-25.5 -34t-32 -23z" />
<glyph unicode="&#x147;" horiz-adv-x="575" d="M43 0zM398 0l-211 604l-95 -604h-49l111 700h53l210 -602l94 602h49l-111 -700h-51zM349 786l-70 109v2h50l46 -77l73 77h52v-2l-106 -109h-45z" />
<glyph unicode="&#x148;" horiz-adv-x="459" d="M33 0zM33 0l77 482h44l-13 -114q26 63 68 94t91 31q108 0 108 -123q0 -14 -1 -28.5t-4 -30.5l-49 -311h-51l48 302q2 15 3 28.5t1 24.5q0 50 -19.5 71t-57.5 21q-27 0 -51.5 -14t-45 -40t-35 -62t-22.5 -80l-40 -251h-51zM259 569l-70 109v2h50l46 -77l73 77h52v-2 l-106 -109h-45z" />
<glyph unicode="&#x14a;" horiz-adv-x="575" d="M390 -51l9 52l-213 602l-94 -603h-49l111 700h53l212 -602l92 602h50l-121 -764q-13 -77 -45 -111t-78 -34q-17 0 -31.5 2.5t-30.5 10.5l21 47q10 -5 18.5 -8t22.5 -3q28 0 46 23.5t27 85.5z" />
<glyph unicode="&#x14b;" horiz-adv-x="459" d="M345 -62q-12 -78 -45 -112.5t-79 -34.5q-16 0 -31.5 2t-31.5 10l22 48q11 -6 19.5 -8.5t21.5 -2.5q29 0 46.5 24.5t26.5 84.5l57 353q2 15 3 28.5t1 24.5q0 49 -19.5 70.5t-57.5 21.5q-27 0 -51.5 -14t-44.5 -40t-35 -62t-23 -80l-39 -251h-52l77 482h44l-13 -113 q27 63 68.5 93.5t90.5 30.5q108 0 108 -123q0 -14 -1 -28.5t-3 -30.5z" />
<glyph unicode="&#x14c;" horiz-adv-x="571" d="M59 0zM354 711q91 0 137.5 -52.5t46.5 -171.5q0 -30 -2 -63.5t-9 -73.5q-15 -97 -40 -165.5t-60 -112t-80.5 -63.5t-101.5 -20q-91 0 -138.5 53.5t-47.5 173.5q0 29 3.5 62.5t8.5 71.5q15 97 40 166t60 112t81 63t102 20zM348 664q-41 0 -76 -15t-62.5 -51.5t-49 -97 t-35.5 -150.5q-6 -38 -9 -71t-3 -63q0 -50 9 -84.5t26.5 -56t43 -31t57.5 -9.5q41 0 76 15.5t62.5 52t49 97.5t35.5 151q12 76 12 134q0 50 -9 84t-26.5 55t-42.5 30.5t-58 9.5zM466 859l-6 -39h-180l6 39h180z" />
<glyph unicode="&#x14d;" horiz-adv-x="435" d="M40 0zM40 157q0 19 1.5 40t5.5 44q20 131 72.5 191.5t136.5 60.5q69 0 104.5 -40t35.5 -127q0 -18 -2 -39.5t-6 -45.5q-20 -129 -72 -190.5t-136 -61.5q-69 0 -104.5 41t-35.5 127zM184 33q62 0 98.5 49.5t54.5 157.5q4 25 6 46t2 40q0 64 -23.5 93t-71.5 29 q-63 0 -99 -49t-53 -159q-4 -24 -6 -45.5t-2 -38.5q0 -64 23 -93.5t71 -29.5zM369 642l-6 -39h-180l6 39h180z" />
<glyph unicode="&#x14e;" horiz-adv-x="571" d="M59 0zM354 711q91 0 137.5 -52.5t46.5 -171.5q0 -30 -2 -63.5t-9 -73.5q-15 -97 -40 -165.5t-60 -112t-80.5 -63.5t-101.5 -20q-91 0 -138.5 53.5t-47.5 173.5q0 29 3.5 62.5t8.5 71.5q15 97 40 166t60 112t81 63t102 20zM348 664q-41 0 -76 -15t-62.5 -51.5t-49 -97 t-35.5 -150.5q-6 -38 -9 -71t-3 -63q0 -50 9 -84.5t26.5 -56t43 -31t57.5 -9.5q41 0 76 15.5t62.5 52t49 97.5t35.5 151q12 76 12 134q0 50 -9 84t-26.5 55t-42.5 30.5t-58 9.5zM444 896h36q-10 -64 -39 -88t-77 -24q-47 0 -70 24.5t-13 87.5h37q-7 -43 5.5 -59t43.5 -16 q32 0 50.5 16t26.5 59z" />
<glyph unicode="&#x14f;" horiz-adv-x="435" d="M40 0zM40 157q0 19 1.5 40t5.5 44q20 131 72.5 191.5t136.5 60.5q69 0 104.5 -40t35.5 -127q0 -18 -2 -39.5t-6 -45.5q-20 -129 -72 -190.5t-136 -61.5q-69 0 -104.5 41t-35.5 127zM184 33q62 0 98.5 49.5t54.5 157.5q4 25 6 46t2 40q0 64 -23.5 93t-71.5 29 q-63 0 -99 -49t-53 -159q-4 -24 -6 -45.5t-2 -38.5q0 -64 23 -93.5t71 -29.5zM347 679h36q-10 -64 -39 -88t-77 -24q-47 0 -70 24.5t-13 87.5h37q-7 -43 5.5 -59t43.5 -16q32 0 50.5 16t26.5 59z" />
<glyph unicode="&#x150;" horiz-adv-x="571" d="M59 0zM354 711q91 0 137.5 -52.5t46.5 -171.5q0 -30 -2 -63.5t-9 -73.5q-15 -97 -40 -165.5t-60 -112t-80.5 -63.5t-101.5 -20q-91 0 -138.5 53.5t-47.5 173.5q0 29 3.5 62.5t8.5 71.5q15 97 40 166t60 112t81 63t102 20zM348 664q-41 0 -76 -15t-62.5 -51.5t-49 -97 t-35.5 -150.5q-6 -38 -9 -71t-3 -63q0 -50 9 -84.5t26.5 -56t43 -31t57.5 -9.5q41 0 76 15.5t62.5 52t49 97.5t35.5 151q12 76 12 134q0 50 -9 84t-26.5 55t-42.5 30.5t-58 9.5zM482 897h64l-1 -5l-103 -106h-38v3zM366 897h63v-5l-103 -106h-38v3z" />
<glyph unicode="&#x151;" horiz-adv-x="434" d="M40 0zM40 157q0 19 1.5 40t5.5 44q20 131 72.5 191.5t136.5 60.5q69 0 104.5 -40t35.5 -127q0 -18 -2 -39.5t-6 -45.5q-20 -129 -72 -190.5t-136 -61.5q-69 0 -104.5 41t-35.5 127zM184 33q62 0 98.5 49.5t54.5 157.5q4 25 6 46t2 40q0 64 -23.5 93t-71.5 29 q-63 0 -99 -49t-53 -159q-4 -24 -6 -45.5t-2 -38.5q0 -64 23 -93.5t71 -29.5zM381 680h64l-1 -5l-103 -106h-38v3zM265 680h63v-5l-103 -106h-38v3z" />
<glyph unicode="&#x152;" horiz-adv-x="813" d="M258 0q-97 0 -146.5 54.5t-49.5 176.5q0 26 2.5 55.5t7.5 62.5q28 186 100 268.5t189 82.5h480l-8 -47h-305l-43 -276h267l-8 -50h-268l-43 -279h313l-7 -48h-481zM261 47h119l95 605h-116q-43 0 -80 -15.5t-66.5 -50.5t-51.5 -93t-35 -143q-11 -64 -11 -118 q0 -100 38.5 -142.5t107.5 -42.5z" />
<glyph unicode="&#x153;" horiz-adv-x="699" d="M181 -11q-141 0 -141 168q0 20 1 40t5 43q39 253 210 253q109 0 124 -128q28 66 69.5 97t95.5 31q63 0 93.5 -43.5t30.5 -118.5q0 -24 -3.5 -50t-8.5 -55h-271q-3 -35 -3 -63q0 -68 24 -99.5t71 -31.5q41 0 71.5 25t53.5 74l39 -22q-26 -52 -65 -86t-106 -34 q-54 0 -87 29.5t-41 95.5q-27 -63 -68 -94t-94 -31zM539 449q-54 0 -90.5 -44t-53.5 -137h220q2 18 3.5 34.5t1.5 31.5q0 115 -81 115zM337 240q4 24 6 45.5t2 40.5q0 63 -23 93t-71 30q-63 0 -100.5 -50.5t-54.5 -158.5q-4 -23 -5.5 -44t-1.5 -39q0 -124 95 -124 q63 0 99.5 50.5t53.5 156.5z" />
<glyph unicode="&#x154;" horiz-adv-x="496" d="M43 0zM148 327h133q40 0 70.5 15.5t51.5 43.5t31.5 66.5t10.5 85.5q0 60 -28.5 87.5t-89.5 27.5h-128zM43 0l111 700h179q85 0 126 -39t41 -114q0 -95 -38 -163t-113 -93l73 -291h-57l-66 280q-4 0 -12.5 -0.5t-16.5 -0.5h-130l-44 -279h-53zM393 897h64l-1 -5l-97 -106 h-44v3z" />
<glyph unicode="&#x155;" horiz-adv-x="271" d="M33 0zM33 0l77 482h44l-14 -120q26 66 68 99t89 30l-9 -55q-59 5 -102.5 -44.5t-62.5 -147.5l-39 -244h-51zM287 680h64l-1 -5l-97 -106h-44v3z" />
<glyph unicode="&#x156;" horiz-adv-x="496" d="M43 0zM148 327h133q40 0 70.5 15.5t51.5 43.5t31.5 66.5t10.5 85.5q0 60 -28.5 87.5t-89.5 27.5h-128zM43 0l111 700h179q85 0 126 -39t41 -114q0 -95 -38 -163t-113 -93l73 -291h-57l-66 280q-4 0 -12.5 -0.5t-16.5 -0.5h-130l-44 -279h-53zM166 -248l-13 20 q21 14 37.5 36t19.5 49q-15 -5 -26 3.5t-11 26.5q1 18 11.5 31t30.5 13q32 0 32 -37q0 -22 -6.5 -44t-17 -41t-25.5 -34t-32 -23z" />
<glyph unicode="&#x157;" horiz-adv-x="272" d="M0 0zM35 0l77 482h44l-14 -120q26 66 68 99t89 30l-9 -55q-59 5 -102.5 -44.5t-62.5 -147.5l-39 -244h-51zM2 -248l-13 20q21 14 37.5 36t19.5 49q-15 -5 -26 3.5t-11 26.5q1 18 11.5 31t30.5 13q32 0 32 -37q0 -22 -6.5 -44t-17 -41t-25.5 -34t-32 -23z" />
<glyph unicode="&#x158;" horiz-adv-x="496" d="M43 0zM148 327h133q40 0 70.5 15.5t51.5 43.5t31.5 66.5t10.5 85.5q0 60 -28.5 87.5t-89.5 27.5h-128zM43 0l111 700h179q85 0 126 -39t41 -114q0 -95 -38 -163t-113 -93l73 -291h-57l-66 280q-4 0 -12.5 -0.5t-16.5 -0.5h-130l-44 -279h-53zM318 786l-70 109v2h50 l46 -77l73 77h52v-2l-106 -109h-45z" />
<glyph unicode="&#x159;" horiz-adv-x="270" d="M33 0zM33 0l77 482h44l-14 -120q26 66 68 99t89 30l-9 -55q-59 5 -102.5 -44.5t-62.5 -147.5l-39 -244h-51zM209 569l-70 109v2h50l46 -77l73 77h52v-2l-106 -109h-45z" />
<glyph unicode="&#x15a;" horiz-adv-x="443" d="M4 0zM445 548l-48 -18q-8 73 -40.5 104.5t-83.5 31.5q-67 0 -102.5 -40.5t-35.5 -100.5q0 -45 23.5 -75t69.5 -55l39 -21q67 -36 97.5 -76.5t30.5 -99.5q0 -50 -15 -89t-42 -65.5t-64.5 -40.5t-82.5 -14q-74 0 -124 41t-63 137l48 19q10 -84 45.5 -118t93.5 -34 q37 0 65.5 12t47.5 33.5t28.5 50.5t9.5 63q0 44 -23.5 74t-74.5 58l-37 20q-57 31 -90.5 72.5t-33.5 101.5q0 38 12 73t36.5 61.5t61.5 42.5t87 16q31 0 59.5 -9.5t50.5 -30t36.5 -51.5t18.5 -73zM350 896h64l-1 -5l-97 -106h-44v3z" />
<glyph unicode="&#x15b;" horiz-adv-x="355" d="M6 0zM6 116l46 19q9 -55 35 -79.5t66 -24.5q51 0 76.5 27.5t25.5 69.5q0 28 -14.5 47.5t-50.5 38.5l-31 16q-45 23 -70.5 53t-25.5 76q0 63 38.5 99.5t103.5 36.5q58 0 89.5 -27.5t45.5 -87.5l-46 -20q-8 45 -30.5 69t-60.5 24q-45 0 -68.5 -25t-23.5 -62 q0 -27 15.5 -47.5t50.5 -39.5l30 -16q45 -24 72 -52.5t27 -75.5q0 -29 -9 -55.5t-28 -46.5t-48.5 -32t-70.5 -12q-64 0 -98.5 33.5t-45.5 93.5zM284 678h64l-1 -5l-97 -106h-44v3z" />
<glyph unicode="&#x15c;" horiz-adv-x="443" d="M4 0zM445 548l-48 -18q-8 73 -40.5 104.5t-83.5 31.5q-67 0 -102.5 -40.5t-35.5 -100.5q0 -45 23.5 -75t69.5 -55l39 -21q67 -36 97.5 -76.5t30.5 -99.5q0 -50 -15 -89t-42 -65.5t-64.5 -40.5t-82.5 -14q-74 0 -124 41t-63 137l48 19q10 -84 45.5 -118t93.5 -34 q37 0 65.5 12t47.5 33.5t28.5 50.5t9.5 63q0 44 -23.5 74t-74.5 58l-37 20q-57 31 -90.5 72.5t-33.5 101.5q0 38 12 73t36.5 61.5t61.5 42.5t87 16q31 0 59.5 -9.5t50.5 -30t36.5 -51.5t18.5 -73zM290 896h45l71 -109v-2h-50l-47 79l-72 -79h-53v2z" />
<glyph unicode="&#x15d;" horiz-adv-x="355" d="M6 0zM6 116l46 19q9 -55 35 -79.5t66 -24.5q51 0 76.5 27.5t25.5 69.5q0 28 -14.5 47.5t-50.5 38.5l-31 16q-45 23 -70.5 53t-25.5 76q0 63 38.5 99.5t103.5 36.5q58 0 89.5 -27.5t45.5 -87.5l-46 -20q-8 45 -30.5 69t-60.5 24q-45 0 -68.5 -25t-23.5 -62 q0 -27 15.5 -47.5t50.5 -39.5l30 -16q45 -24 72 -52.5t27 -75.5q0 -29 -9 -55.5t-28 -46.5t-48.5 -32t-70.5 -12q-64 0 -98.5 33.5t-45.5 93.5zM224 678h45l71 -109v-2h-50l-47 79l-72 -79h-53v2z" />
<glyph unicode="&#x15e;" horiz-adv-x="443" d="M143 -230q-32 0 -53.5 14t-32.5 43l34 19q11 -41 52 -41q28 0 41 15.5t13 38.5q0 26 -16.5 34.5t-35.5 1.5l-11 10l29 86q-63 7 -105 48t-54 128l48 19q10 -84 45.5 -118t93.5 -34q37 0 65.5 12t47.5 33.5t28.5 50.5t9.5 63q0 44 -23.5 74t-74.5 58l-37 20 q-57 31 -90.5 72.5t-33.5 101.5q0 38 12 73t36.5 61.5t61.5 42.5t87 16q31 0 59.5 -9.5t50.5 -30t36.5 -51.5t18.5 -73l-48 -18q-8 73 -40.5 104.5t-83.5 31.5q-67 0 -102.5 -40.5t-35.5 -100.5q0 -45 23.5 -75t69.5 -55l39 -21q67 -36 97.5 -76.5t30.5 -99.5 q0 -49 -14.5 -87.5t-40.5 -65t-62.5 -41t-80.5 -15.5l-23 -65q23 2 42.5 -13t19.5 -50q0 -45 -27 -68t-66 -23z" />
<glyph unicode="&#x15f;" horiz-adv-x="355" d="M107 -228q-32 0 -53.5 14t-32.5 43l34 19q11 -41 52 -41q28 0 41 15.5t13 38.5q0 26 -16.5 34.5t-35.5 1.5l-11 10l28 83q-52 7 -80.5 39.5t-39.5 86.5l46 19q9 -55 35 -79.5t66 -24.5q51 0 76.5 27.5t25.5 69.5q0 28 -14.5 47.5t-50.5 38.5l-31 16q-45 23 -70.5 53 t-25.5 76q0 63 38.5 99.5t103.5 36.5q58 0 89.5 -27.5t45.5 -87.5l-46 -20q-8 45 -30.5 69t-60.5 24q-45 0 -68.5 -25t-23.5 -62q0 -27 15.5 -47.5t50.5 -39.5l30 -16q45 -24 72 -52.5t27 -75.5q0 -28 -8.5 -54t-26.5 -46t-45.5 -32.5t-65.5 -13.5l-22 -63q23 2 42.5 -13 t19.5 -50q0 -45 -27 -68t-66 -23z" />
<glyph unicode="&#x160;" horiz-adv-x="443" d="M4 0zM445 548l-48 -18q-8 73 -40.5 104.5t-83.5 31.5q-67 0 -102.5 -40.5t-35.5 -100.5q0 -45 23.5 -75t69.5 -55l39 -21q67 -36 97.5 -76.5t30.5 -99.5q0 -50 -15 -89t-42 -65.5t-64.5 -40.5t-82.5 -14q-74 0 -124 41t-63 137l48 19q10 -84 45.5 -118t93.5 -34 q37 0 65.5 12t47.5 33.5t28.5 50.5t9.5 63q0 44 -23.5 74t-74.5 58l-37 20q-57 31 -90.5 72.5t-33.5 101.5q0 38 12 73t36.5 61.5t61.5 42.5t87 16q31 0 59.5 -9.5t50.5 -30t36.5 -51.5t18.5 -73zM276 785l-70 109v2h50l46 -77l73 77h52v-2l-106 -109h-45z" />
<glyph unicode="&#x161;" horiz-adv-x="355" d="M6 0zM6 116l46 19q9 -55 35 -79.5t66 -24.5q51 0 76.5 27.5t25.5 69.5q0 28 -14.5 47.5t-50.5 38.5l-31 16q-45 23 -70.5 53t-25.5 76q0 63 38.5 99.5t103.5 36.5q58 0 89.5 -27.5t45.5 -87.5l-46 -20q-8 45 -30.5 69t-60.5 24q-45 0 -68.5 -25t-23.5 -62 q0 -27 15.5 -47.5t50.5 -39.5l30 -16q45 -24 72 -52.5t27 -75.5q0 -29 -9 -55.5t-28 -46.5t-48.5 -32t-70.5 -12q-64 0 -98.5 33.5t-45.5 93.5zM210 567l-70 109v2h50l46 -77l73 77h52v-2l-106 -109h-45z" />
<glyph unicode="&#x162;" horiz-adv-x="426" d="M72 0zM79 700h402l-8 -48h-174l-103 -652h-54l104 652h-174zM111 -248l-13 20q21 14 37.5 36t19.5 49q-15 -5 -26 3.5t-11 26.5q1 18 11.5 31t30.5 13q32 0 32 -37q0 -22 -6.5 -44t-17 -41t-25.5 -34t-32 -23z" />
<glyph unicode="&#x163;" horiz-adv-x="276" d="M49 0zM77 -248l-13 20q21 14 37.5 36t19.5 49q-15 -5 -26 3.5t-11 26.5q1 18 11.5 31t30.5 13q32 0 32 -37q0 -22 -6.5 -44t-17 -41t-25.5 -34t-32 -23zM214 52l7 -45q-14 -9 -31 -13t-30 -4q-46 0 -72.5 23t-26.5 77q0 12 1.5 25t3.5 25l48 299h-65l7 43h65l22 146h52 l-24 -146h112l-7 -43h-111l-47 -296q-8 -51 2 -78t45 -27q11 0 24.5 3t24.5 11z" />
<glyph unicode="&#x164;" horiz-adv-x="426" d="M72 0zM79 700h402l-8 -48h-174l-103 -652h-54l104 652h-174zM272 786l-70 109v2h50l46 -77l73 77h52v-2l-106 -109h-45z" />
<glyph unicode="&#x165;" horiz-adv-x="272" d="M271 554h-36l35 179h48zM214 52l7 -45q-14 -9 -31 -13t-30 -4q-46 0 -72.5 23t-26.5 77q0 12 1.5 25t3.5 25l48 299h-65l7 43h65l22 146h52l-24 -146h112l-7 -43h-111l-47 -296q-8 -51 2 -78t45 -27q11 0 24.5 3t24.5 11z" />
<glyph unicode="&#x166;" horiz-adv-x="427" d="M62 370h139l45 282h-174l7 48h403l-8 -48h-174l-45 -282h139l-6 -38h-139l-53 -332h-53l53 332h-140z" />
<glyph unicode="&#x167;" horiz-adv-x="270" d="M217 52l6 -45q-14 -10 -32 -13.5t-35 -3.5q-42 0 -68 23t-26 79q0 18 3 41l25 154h-66l6 38h66l18 114h-66l6 43h67l23 146h51l-23 -146h114l-6 -43h-115l-18 -114h115l-7 -38h-114l-23 -148q-10 -57 4 -79t44 -22q29 0 51 14z" />
<glyph unicode="&#x168;" horiz-adv-x="552" d="M59 0zM424 232l74 468h53l-74 -467q-20 -125 -82 -184.5t-159 -59.5q-85 0 -131 43.5t-46 133.5q0 29 6 67l74 467h54l-75 -466q-3 -17 -4 -31.5t-1 -28.5q0 -136 127 -136q71 0 119 45t65 149zM443 887h36q-3 -26 -10.5 -42.5t-17.5 -26t-21.5 -13.5t-21.5 -4 q-16 0 -27 7.5t-20 17t-18 17t-21 7.5q-26 0 -32 -45h-36q3 25 10 41.5t17 26.5t20.5 13.5t21.5 3.5q16 0 27 -7.5t21 -16t19 -16t21 -7.5q25 0 32 44z" />
<glyph unicode="&#x169;" horiz-adv-x="457" d="M51 0zM163 -11q-57 0 -84.5 33.5t-27.5 94.5q0 14 1 28t3 29l49 308h51l-48 -300q-2 -15 -2.5 -28t-0.5 -25q0 -95 80 -95q54 0 92.5 51.5t56.5 142.5l39 254h52l-77 -482h-44l14 109q-25 -60 -65.5 -90t-88.5 -30zM363 669h36q-3 -26 -10.5 -42.5t-17.5 -26t-21.5 -13.5 t-21.5 -4q-16 0 -27 7.5t-20 17t-18 17t-21 7.5q-26 0 -32 -45h-36q3 25 10 41.5t17 26.5t20.5 13.5t21.5 3.5q16 0 27 -7.5t21 -16t19 -16t21 -7.5q25 0 32 44z" />
<glyph unicode="&#x16a;" horiz-adv-x="552" d="M59 0zM424 232l74 468h53l-74 -467q-20 -125 -82 -184.5t-159 -59.5q-85 0 -131 43.5t-46 133.5q0 29 6 67l74 467h54l-75 -466q-3 -17 -4 -31.5t-1 -28.5q0 -136 127 -136q71 0 119 45t65 149zM459 860l-6 -39h-180l6 39h180z" />
<glyph unicode="&#x16b;" horiz-adv-x="457" d="M51 0zM163 -11q-57 0 -84.5 33.5t-27.5 94.5q0 14 1 28t3 29l49 308h51l-48 -300q-2 -15 -2.5 -28t-0.5 -25q0 -95 80 -95q54 0 92.5 51.5t56.5 142.5l39 254h52l-77 -482h-44l14 109q-25 -60 -65.5 -90t-88.5 -30zM380 642l-6 -39h-180l6 39h180z" />
<glyph unicode="&#x16c;" horiz-adv-x="552" d="M59 0zM424 232l74 468h53l-74 -467q-20 -125 -82 -184.5t-159 -59.5q-85 0 -131 43.5t-46 133.5q0 29 6 67l74 467h54l-75 -466q-3 -17 -4 -31.5t-1 -28.5q0 -136 127 -136q71 0 119 45t65 149zM438 897h36q-10 -64 -39 -88t-77 -24q-47 0 -70 24.5t-13 87.5h37 q-7 -43 5.5 -59t43.5 -16q32 0 50.5 16t26.5 59z" />
<glyph unicode="&#x16d;" horiz-adv-x="457" d="M51 0zM163 -11q-57 0 -84.5 33.5t-27.5 94.5q0 14 1 28t3 29l49 308h51l-48 -300q-2 -15 -2.5 -28t-0.5 -25q0 -95 80 -95q54 0 92.5 51.5t56.5 142.5l39 254h52l-77 -482h-44l14 109q-25 -60 -65.5 -90t-88.5 -30zM357 679h36q-10 -64 -39 -88t-77 -24q-47 0 -70 24.5 t-13 87.5h37q-7 -43 5.5 -59t43.5 -16q32 0 50.5 16t26.5 59z" />
<glyph unicode="&#x16e;" horiz-adv-x="552" d="M59 0zM424 232l74 468h53l-74 -467q-20 -125 -82 -184.5t-159 -59.5q-85 0 -131 43.5t-46 133.5q0 29 6 67l74 467h54l-75 -466q-3 -17 -4 -31.5t-1 -28.5q0 -136 127 -136q71 0 119 45t65 149zM379 940q27 0 45.5 -18.5t18.5 -52.5q0 -42 -24 -71t-61 -29 q-28 0 -46.5 18.5t-18.5 53.5q0 40 23.5 69.5t62.5 29.5zM375 912q-24 0 -38 -20.5t-14 -47.5q0 -22 10 -34.5t27 -12.5q23 0 38.5 21t15.5 49q0 22 -11 33.5t-28 11.5z" />
<glyph unicode="&#x16f;" horiz-adv-x="457" d="M51 0zM163 -11q-57 0 -84.5 33.5t-27.5 94.5q0 14 1 28t3 29l49 308h51l-48 -300q-2 -15 -2.5 -28t-0.5 -25q0 -95 80 -95q54 0 92.5 51.5t56.5 142.5l39 254h52l-77 -482h-44l14 109q-25 -60 -65.5 -90t-88.5 -30zM299 722q27 0 45.5 -18.5t18.5 -52.5q0 -42 -24 -71 t-61 -29q-28 0 -46.5 18.5t-18.5 53.5q0 40 23.5 69.5t62.5 29.5zM295 694q-24 0 -38 -20.5t-14 -47.5q0 -22 10 -34.5t27 -12.5q23 0 38.5 21t15.5 49q0 22 -11 33.5t-28 11.5z" />
<glyph unicode="&#x170;" horiz-adv-x="552" d="M59 0zM424 232l74 468h53l-74 -467q-20 -125 -82 -184.5t-159 -59.5q-85 0 -131 43.5t-46 133.5q0 29 6 67l74 467h54l-75 -466q-3 -17 -4 -31.5t-1 -28.5q0 -136 127 -136q71 0 119 45t65 149zM476 898h64l-1 -5l-103 -106h-38v3zM360 898h63v-5l-103 -106h-38v3z" />
<glyph unicode="&#x171;" horiz-adv-x="457" d="M51 0zM163 -11q-57 0 -84.5 33.5t-27.5 94.5q0 14 1 28t3 29l49 308h51l-48 -300q-2 -15 -2.5 -28t-0.5 -25q0 -95 80 -95q54 0 92.5 51.5t56.5 142.5l39 254h52l-77 -482h-44l14 109q-25 -60 -65.5 -90t-88.5 -30zM395 680h64l-1 -5l-103 -106h-38v3zM279 680h63v-5 l-103 -106h-38v3z" />
<glyph unicode="&#x172;" horiz-adv-x="552" d="M264 -204q-15 0 -28.5 4t-23.5 14t-16 26t-5 40q0 35 13.5 62.5t33.5 46.5q-86 0 -132.5 43t-46.5 134q0 29 6 67l74 467h54l-75 -466q-2 -17 -3.5 -31.5t-1.5 -28.5q0 -136 127 -136q71 0 119 45t65 149l74 468h53l-74 -467q-17 -107 -65 -165.5t-122 -73.5 q-26 -13 -43.5 -42.5t-17.5 -64.5q-1 -29 12.5 -40t30.5 -11q26 0 45 16l15 -33q-30 -23 -68 -23z" />
<glyph unicode="&#x173;" horiz-adv-x="457" d="M354 -181q-30 -23 -68 -23q-33 0 -53 19.5t-20 61.5q0 52 28 90t64 52l12 90q-25 -60 -65.5 -90t-88.5 -30q-57 0 -84.5 33.5t-27.5 94.5q0 14 1 28t3 29l49 308h51l-48 -300q-2 -15 -2.5 -28t-0.5 -25q0 -95 80 -95q54 0 92.5 51.5t56.5 142.5l39 254h52l-77 -482h-12 q-17 -2 -32.5 -12.5t-27 -26t-18 -35t-6.5 -40.5q0 -29 12.5 -39.5t29.5 -10.5q27 0 46 16z" />
<glyph unicode="&#x174;" horiz-adv-x="674" d="M78 0zM117 0l-39 700h53l30 -613l214 608h59l21 -605l224 610h53l-263 -700h-57l-22 604l-213 -604h-60zM411 897h45l71 -109v-2h-50l-47 79l-72 -79h-53v2z" />
<glyph unicode="&#x175;" horiz-adv-x="541" d="M47 0zM276 474h57l25 -409l155 417h51l-189 -482h-57l-25 402l-149 -402h-58l-39 482h53l25 -417zM309 680h45l71 -109v-2h-50l-47 79l-72 -79h-53v2z" />
<glyph unicode="&#x176;" horiz-adv-x="450" d="M77 0zM198 283l-121 417h60l97 -362l212 362h60l-254 -416l-45 -284h-53zM294 897h45l71 -109v-2h-50l-47 79l-72 -79h-53v2z" />
<glyph unicode="&#x177;" horiz-adv-x="372" d="M0 0zM99 -56l22 49l-72 489h54l56 -418l186 418h53l-257 -556q-20 -43 -39.5 -69.5t-39 -41.5t-38.5 -20t-37 -5q-33 0 -62 14l21 44q13 -6 24 -8t23 -2q14 0 26.5 4t25.5 16t26 32.5t28 53.5zM229 680h45l71 -109v-2h-50l-47 79l-72 -79h-53v2z" />
<glyph unicode="&#x178;" horiz-adv-x="450" d="M77 0zM198 283l-121 417h60l97 -362l212 362h60l-254 -416l-45 -284h-53zM209 832q0 23 11.5 36t31.5 13q32 0 32 -35q0 -23 -11.5 -35.5t-31.5 -12.5q-32 0 -32 34zM332 832q0 23 11.5 36t31.5 13q32 0 32 -35q0 -23 -11.5 -35.5t-31.5 -12.5q-32 0 -32 34z" />
<glyph unicode="&#x179;" horiz-adv-x="430" d="M0 0zM-20 0l7 43l421 610l-309 -1l8 48h368l-7 -43l-422 -611l332 2l-9 -48h-389zM351 897h64l-1 -5l-97 -106h-44v3z" />
<glyph unicode="&#x17a;" horiz-adv-x="357" d="M0 0zM-10 0l7 42l298 396h-229l7 44h285l-7 -42l-297 -396h239l-8 -44h-295zM278 680h64l-1 -5l-97 -106h-44v3z" />
<glyph unicode="&#x17b;" horiz-adv-x="430" d="M0 0zM-20 0l7 43l421 610l-309 -1l8 48h368l-7 -43l-422 -611l332 2l-9 -48h-389zM270 832q0 23 11 36t31 13q33 0 33 -35q0 -23 -11.5 -35.5t-31.5 -12.5q-32 0 -32 34z" />
<glyph unicode="&#x17c;" horiz-adv-x="357" d="M0 0zM-10 0l7 42l298 396h-229l7 44h285l-7 -42l-297 -396h239l-8 -44h-295zM195 615q0 23 11 36t31 13q33 0 33 -35q0 -23 -11.5 -35.5t-31.5 -12.5q-32 0 -32 34z" />
<glyph unicode="&#x17d;" horiz-adv-x="430" d="M0 0zM-20 0l7 43l421 610l-309 -1l8 48h368l-7 -43l-422 -611l332 2l-9 -48h-389zM278 786l-70 109v2h50l46 -77l73 77h52v-2l-106 -109h-45z" />
<glyph unicode="&#x17e;" horiz-adv-x="357" d="M0 0zM-10 0l7 42l298 396h-229l7 44h285l-7 -42l-297 -396h239l-8 -44h-295zM204 569l-70 109v2h50l46 -77l73 77h52v-2l-106 -109h-45z" />
<glyph unicode="&#x192;" horiz-adv-x="292" d="M24 -49l81 369h-68l10 41h67l22 101q17 77 50 116t87 39q17 0 34.5 -4.5t30.5 -12.5l-20 -45q-19 14 -44 14q-29 0 -52.5 -24t-36.5 -88l-21 -96h112l-10 -41h-111l-81 -375q-18 -81 -51.5 -117.5t-80.5 -36.5q-15 0 -29.5 2.5t-27.5 9.5l19 45q9 -5 18 -7.5t23 -2.5 q26 0 45.5 24t33.5 89z" />
<glyph unicode="&#x218;" horiz-adv-x="443" d="M4 0zM445 548l-48 -18q-8 73 -40.5 104.5t-83.5 31.5q-67 0 -102.5 -40.5t-35.5 -100.5q0 -45 23.5 -75t69.5 -55l39 -21q67 -36 97.5 -76.5t30.5 -99.5q0 -50 -15 -89t-42 -65.5t-64.5 -40.5t-82.5 -14q-74 0 -124 41t-63 137l48 19q10 -84 45.5 -118t93.5 -34 q37 0 65.5 12t47.5 33.5t28.5 50.5t9.5 63q0 44 -23.5 74t-74.5 58l-37 20q-57 31 -90.5 72.5t-33.5 101.5q0 38 12 73t36.5 61.5t61.5 42.5t87 16q31 0 59.5 -9.5t50.5 -30t36.5 -51.5t18.5 -73zM122 -250l-13 20q21 14 37.5 36t19.5 49q-15 -5 -26 3.5t-11 26.5 q1 18 11.5 31t30.5 13q32 0 32 -37q0 -22 -6.5 -44t-17 -41t-25.5 -34t-32 -23z" />
<glyph unicode="&#x219;" horiz-adv-x="355" d="M6 0zM6 116l46 19q9 -55 35 -79.5t66 -24.5q51 0 76.5 27.5t25.5 69.5q0 28 -14.5 47.5t-50.5 38.5l-31 16q-45 23 -70.5 53t-25.5 76q0 63 38.5 99.5t103.5 36.5q58 0 89.5 -27.5t45.5 -87.5l-46 -20q-8 45 -30.5 69t-60.5 24q-45 0 -68.5 -25t-23.5 -62 q0 -27 15.5 -47.5t50.5 -39.5l30 -16q45 -24 72 -52.5t27 -75.5q0 -29 -9 -55.5t-28 -46.5t-48.5 -32t-70.5 -12q-64 0 -98.5 33.5t-45.5 93.5zM86 -248l-13 20q21 14 37.5 36t19.5 49q-15 -5 -26 3.5t-11 26.5q1 18 11.5 31t30.5 13q32 0 32 -37q0 -22 -6.5 -44t-17 -41 t-25.5 -34t-32 -23z" />
<glyph unicode="&#x237;" horiz-adv-x="195" d="M26 -51l84 533h52l-86 -543q-13 -78 -46 -113t-81 -35q-16 0 -31 2.5t-29 10.5l22 47q10 -6 18.5 -9t22.5 -3q27 0 45 24t29 86z" />
<glyph unicode="&#x2c6;" horiz-adv-x="452" d="M232 679h45l71 -109v-2h-50l-47 79l-72 -79h-53v2z" />
<glyph unicode="&#x2c7;" horiz-adv-x="452" d="M211 568l-70 109v2h50l46 -77l73 77h52v-2l-106 -109h-45z" />
<glyph unicode="&#x2d8;" horiz-adv-x="452" d="M320 678h36q-10 -64 -39 -88t-77 -24q-47 0 -70 24.5t-13 87.5h37q-7 -43 5.5 -59t43.5 -16q32 0 50.5 16t26.5 59z" />
<glyph unicode="&#x2d9;" horiz-adv-x="452" d="M212 614q0 23 11 36t31 13q33 0 33 -35q0 -23 -11.5 -35.5t-31.5 -12.5q-32 0 -32 34z" />
<glyph unicode="&#x2da;" horiz-adv-x="452" d="M262 721q27 0 45.5 -18.5t18.5 -52.5q0 -42 -24 -71t-61 -29q-28 0 -46.5 18.5t-18.5 53.5q0 40 23.5 69.5t62.5 29.5zM258 693q-24 0 -38 -20.5t-14 -47.5q0 -22 10 -34.5t27 -12.5q23 0 38.5 21t15.5 49q0 22 -11 33.5t-28 11.5z" />
<glyph unicode="&#x2db;" horiz-adv-x="452" d="M271 -181q-30 -23 -68 -23q-33 0 -53 19.5t-20 61.5q0 31 11 57.5t28 46.5t39 31.5t44 12.5v-25q-17 -2 -32.5 -12.5t-27 -26t-18 -35t-6.5 -40.5q0 -29 12.5 -39.5t29.5 -10.5q27 0 46 16z" />
<glyph unicode="&#x2dc;" horiz-adv-x="452" d="M330 668h36q-3 -26 -10.5 -42.5t-17.5 -26t-21.5 -13.5t-21.5 -4q-16 0 -27 7.5t-20 17t-18 17t-21 7.5q-26 0 -32 -45h-36q3 25 10 41.5t17 26.5t20.5 13.5t21.5 3.5q16 0 27 -7.5t21 -16t19 -16t21 -7.5q25 0 32 44z" />
<glyph unicode="&#x2dd;" horiz-adv-x="452" d="M358 679h64l-1 -5l-103 -106h-38v3zM242 679h63v-5l-103 -106h-38v3z" />
<glyph unicode="&#x1e80;" horiz-adv-x="674" d="M78 0zM117 0l-39 700h53l30 -613l214 608h59l21 -605l224 610h53l-263 -700h-57l-22 604l-213 -604h-60zM403 786l-68 106l1 5h63l44 -108v-3h-40z" />
<glyph unicode="&#x1e81;" horiz-adv-x="541" d="M47 0zM276 474h57l25 -409l155 417h51l-189 -482h-57l-25 402l-149 -402h-58l-39 482h53l25 -417zM302 569l-68 106l1 5h63l44 -108v-3h-40z" />
<glyph unicode="&#x1e82;" horiz-adv-x="674" d="M78 0zM117 0l-39 700h53l30 -613l214 608h59l21 -605l224 610h53l-263 -700h-57l-22 604l-213 -604h-60zM471 897h64l-1 -5l-97 -106h-44v3z" />
<glyph unicode="&#x1e83;" horiz-adv-x="541" d="M47 0zM276 474h57l25 -409l155 417h51l-189 -482h-57l-25 402l-149 -402h-58l-39 482h53l25 -417zM370 680h64l-1 -5l-97 -106h-44v3z" />
<glyph unicode="&#x1e84;" horiz-adv-x="674" d="M78 0zM117 0l-39 700h53l30 -613l214 608h59l21 -605l224 610h53l-263 -700h-57l-22 604l-213 -604h-60zM324 832q0 23 11.5 36t31.5 13q32 0 32 -35q0 -23 -11.5 -35.5t-31.5 -12.5q-32 0 -32 34zM447 832q0 23 11.5 36t31.5 13q32 0 32 -35q0 -23 -11.5 -35.5 t-31.5 -12.5q-32 0 -32 34z" />
<glyph unicode="&#x1e85;" horiz-adv-x="541" d="M47 0zM276 474h57l25 -409l155 417h51l-189 -482h-57l-25 402l-149 -402h-58l-39 482h53l25 -417zM228 615q0 23 11.5 36t31.5 13q32 0 32 -35q0 -23 -11.5 -35.5t-31.5 -12.5q-32 0 -32 34zM351 615q0 23 11.5 36t31.5 13q32 0 32 -35q0 -23 -11.5 -35.5t-31.5 -12.5 q-32 0 -32 34z" />
<glyph unicode="&#x2000;" horiz-adv-x="470" />
<glyph unicode="&#x2001;" horiz-adv-x="940" />
<glyph unicode="&#x2002;" horiz-adv-x="373" />
<glyph unicode="&#x2003;" horiz-adv-x="746" />
<glyph unicode="&#x2004;" horiz-adv-x="248" />
<glyph unicode="&#x2005;" horiz-adv-x="187" />
<glyph unicode="&#x2006;" horiz-adv-x="124" />
<glyph unicode="&#x2007;" horiz-adv-x="467" />
<glyph unicode="&#x2008;" horiz-adv-x="159" />
<glyph unicode="&#x2009;" horiz-adv-x="149" />
<glyph unicode="&#x200a;" horiz-adv-x="74" />
<glyph unicode="&#x200b;" horiz-adv-x="0" />
<glyph unicode="&#x2010;" horiz-adv-x="315" d="M278 273l-7 -46h-237l7 46h237z" />
<glyph unicode="&#x2011;" horiz-adv-x="315" d="M278 273l-7 -46h-237l7 46h237z" />
<glyph unicode="&#x2012;" horiz-adv-x="435" d="M400 273l-7 -46h-359l7 46h359z" />
<glyph unicode="&#x2013;" horiz-adv-x="435" d="M400 273l-7 -46h-359l7 46h359z" />
<glyph unicode="&#x2014;" horiz-adv-x="582" d="M547 273l-8 -46h-505l7 46h506z" />
<glyph unicode="&#x2015;" horiz-adv-x="800" d="M765 273l-7 -46h-724l7 46h724z" />
<glyph unicode="&#x2018;" horiz-adv-x="164" d="M163 730l12 -24q-26 -14 -42.5 -38.5t-21.5 -51.5q20 3 29.5 -6t9.5 -27q0 -19 -11.5 -33.5t-31.5 -14.5q-34 0 -34 39q0 20 5.5 43t16.5 44.5t28 39.5t40 29z" />
<glyph unicode="&#x2019;" horiz-adv-x="164" d="M90 523l-12 24q26 14 42.5 38.5t21.5 51.5q-20 -3 -29.5 6t-9.5 27q0 19 11.5 33.5t31.5 14.5q34 0 34 -39q0 -20 -5.5 -43t-16.5 -44.5t-28 -40t-40 -28.5z" />
<glyph unicode="&#x201a;" horiz-adv-x="164" d="M4 -117l-12 24q26 14 42 38t21 51q-20 -3 -29 6t-9 27t11 32.5t31 14.5q34 0 34 -38q0 -20 -5.5 -43t-16.5 -44.5t-27.5 -39.5t-39.5 -28z" />
<glyph unicode="&#x201c;" horiz-adv-x="275" d="M169 731l12 -24q-26 -14 -42.5 -38.5t-21.5 -51.5q20 3 29.5 -6t9.5 -27q0 -19 -11.5 -33.5t-31.5 -14.5q-34 0 -34 39q0 20 5.5 43t16.5 44.5t28 39.5t40 29zM281 731l12 -24q-26 -14 -42.5 -38.5t-21.5 -51.5q20 3 29.5 -6t9.5 -27q0 -19 -11.5 -33.5t-31.5 -14.5 q-34 0 -34 39q0 20 5.5 43t16.5 44.5t28 39.5t40 29z" />
<glyph unicode="&#x201d;" horiz-adv-x="275" d="M95 522l-12 24q26 14 42.5 38.5t21.5 51.5q-20 -3 -29.5 6t-9.5 27q0 19 11.5 33.5t31.5 14.5q34 0 34 -39q0 -20 -5.5 -43t-16.5 -44.5t-28 -40t-40 -28.5zM206 522l-12 24q26 14 42.5 38.5t21.5 51.5q-20 -3 -29.5 6t-9.5 27q0 19 11.5 33.5t31.5 14.5q34 0 34 -39 q0 -20 -5.5 -43t-16.5 -44.5t-28 -40t-40 -28.5z" />
<glyph unicode="&#x201e;" horiz-adv-x="274" d="M4 -117l-12 24q26 14 42 38t21 51q-20 -3 -29 6t-9 27t11 32.5t31 14.5q34 0 34 -38q0 -20 -5.5 -43t-16.5 -44.5t-27.5 -39.5t-39.5 -28zM114 -117l-12 24q26 14 42 38t21 51q-20 -3 -29 6t-9 27t11 32.5t31 14.5q34 0 34 -38q0 -20 -5.5 -43t-16.5 -44.5t-27.5 -39.5 t-39.5 -28z" />
<glyph unicode="&#x2020;" horiz-adv-x="233" d="M209 553h-51l-39 -235h-42l37 235h-51l7 38h50l18 118h47l-20 -118h50z" />
<glyph unicode="&#x2021;" horiz-adv-x="233" d="M51 470h50l13 87h-51l7 39h51l17 113h47l-20 -113h51l-7 -39h-51l-13 -87h51l-6 -40h-52l-17 -116h-46l20 116h-51z" />
<glyph unicode="&#x2022;" horiz-adv-x="320" d="M285 346q0 -31 -10 -57t-27 -44.5t-41 -28.5t-51 -10q-47 0 -71.5 28.5t-24.5 74.5q0 61 35 100t91 39q48 0 73.5 -28t25.5 -74z" />
<glyph unicode="&#x2026;" horiz-adv-x="483" d="M412 44q0 -50 -44 -50q-15 0 -23.5 9.5t-8.5 25.5q0 22 11 35.5t32 13.5q33 0 33 -34zM252 44q0 -50 -43 -50q-16 0 -24.5 9.5t-8.5 25.5q0 22 11 35.5t32 13.5q33 0 33 -34zM93 44q0 -24 -12 -37t-32 -13q-16 0 -24 9.5t-8 25.5q0 22 10.5 35.5t32.5 13.5q33 0 33 -34z " />
<glyph unicode="&#x202f;" horiz-adv-x="188" />
<glyph unicode="&#x2030;" horiz-adv-x="1077" d="M230 709q49 0 73.5 -30t24.5 -97q0 -19 -2 -39.5t-5 -45.5q-17 -113 -54.5 -162t-99.5 -49q-49 0 -73.5 30.5t-24.5 97.5q0 19 1.5 39.5t5.5 43.5q17 113 54.5 162.5t99.5 49.5zM603 700l-359 -700h-49l360 700h48zM227 673q-39 0 -66 -39t-43 -136q-4 -26 -5.5 -47 t-1.5 -38q0 -51 15.5 -71t44.5 -20q19 0 35.5 9t30 29t24 53.5t18.5 83.5q4 26 6 47t2 38q0 50 -15.5 70.5t-44.5 20.5zM946 416q49 0 73.5 -30t24.5 -97q0 -19 -2 -39.5t-5 -45.5q-17 -113 -54.5 -162t-99.5 -49q-49 0 -73.5 30.5t-24.5 97.5q0 19 1.5 39.5t5.5 43.5 q17 113 54.5 162.5t99.5 49.5zM635 416q49 0 73.5 -30t24.5 -97q0 -19 -2 -39.5t-5 -45.5q-17 -113 -54.5 -162t-99.5 -49q-49 0 -73.5 30.5t-24.5 97.5q0 19 1.5 39.5t5.5 43.5q17 113 54.5 162.5t99.5 49.5zM943 380q-39 0 -66 -39t-43 -136q-4 -26 -5.5 -47t-1.5 -38 q0 -51 15.5 -71t44.5 -20q19 0 35.5 9t30 29t24 53.5t18.5 83.5q4 26 6 47t2 38q0 50 -15.5 70.5t-44.5 20.5zM632 380q-39 0 -66 -39t-43 -136q-4 -26 -5.5 -47t-1.5 -38q0 -51 15.5 -71t44.5 -20q19 0 35.5 9t30 29t24 53.5t18.5 83.5q4 26 6 47t2 38q0 50 -15.5 70.5 t-44.5 20.5z" />
<glyph unicode="&#x2039;" horiz-adv-x="311" d="M149 0l-103 238l1 3l178 241h58l-181 -243l104 -239h-57z" />
<glyph unicode="&#x203a;" horiz-adv-x="311" d="M157 482l103 -238l-1 -3l-178 -241h-58l181 243l-104 239h57z" />
<glyph unicode="&#x2044;" horiz-adv-x="375" d="M411 700l-359 -700h-49l360 700h48z" />
<glyph unicode="&#x205f;" horiz-adv-x="235" />
<glyph unicode="&#x2070;" horiz-adv-x="310" d="M71 286zM232 709q49 0 73.5 -30t24.5 -97q0 -19 -2 -39.5t-5 -45.5q-17 -113 -54.5 -162t-99.5 -49q-49 0 -73.5 30.5t-24.5 97.5q0 19 1.5 39.5t5.5 43.5q17 113 54.5 162.5t99.5 49.5zM229 673q-39 0 -66 -39t-43 -136q-4 -26 -5.5 -47t-1.5 -38q0 -51 15.5 -71 t44.5 -20q19 0 35.5 9t30 29t24 53.5t18.5 83.5q4 26 6 47t2 38q0 50 -15.5 70.5t-44.5 20.5z" />
<glyph unicode="&#x2074;" horiz-adv-x="294" d="M51 293zM51 400l5 31l143 271h41l-141 -265h126l29 184h41l-29 -184h45l-6 -37h-45l-18 -107h-40l17 107h-168z" />
<glyph unicode="&#x2075;" horiz-adv-x="276" d="M46 286zM157 665l-33 -143q32 29 78 29q37 0 60 -23t23 -74q0 -35 -9.5 -65.5t-27 -53.5t-43 -36t-58.5 -13q-42 0 -68.5 20.5t-32.5 63.5l35 16q5 -34 23 -49.5t45 -15.5q22 0 39.5 10.5t29.5 28t18.5 40.5t6.5 49q0 67 -59 67q-23 0 -42.5 -10t-35.5 -27l-27 12l49 211 h183l-6 -37h-148z" />
<glyph unicode="&#x2076;" horiz-adv-x="293" d="M73 286zM328 634l-33 -16q-10 55 -59 55q-47 0 -74.5 -45t-41.5 -135q-1 -7 -2 -16.5t-2 -17.5q11 41 38 65.5t65 24.5q37 0 59 -26t22 -74q0 -33 -8 -63t-24 -52t-39.5 -35t-54.5 -13q-46 0 -73.5 31t-27.5 103q0 32 6 73q17 112 57 164t100 52q40 0 63 -18t29 -57z M202 515q-19 0 -34.5 -10t-27 -26.5t-18 -37.5t-6.5 -43q0 -32 14 -54.5t46 -22.5q20 0 35.5 9.5t26 26t16 38t5.5 46.5q0 74 -57 74z" />
<glyph unicode="&#x2077;" horiz-adv-x="236" d="M83 293zM83 293q9 55 26 109.5t39.5 103.5t49.5 90t56 69l-165 -2l7 39h209l-6 -35q-30 -25 -57 -64t-49 -87.5t-38.5 -105t-25.5 -117.5h-46z" />
<glyph unicode="&#x2078;" horiz-adv-x="292" d="M64 286zM290 426q0 -63 -35 -101.5t-95 -38.5q-46 0 -71 26t-25 70q0 51 24 85t59 45q-40 19 -40 75q0 24 7.5 46.5t22.5 39t36.5 26.5t50.5 10q41 0 63.5 -22t22.5 -62q0 -42 -19 -71.5t-49 -43.5q22 -9 35 -30.5t13 -53.5zM271 616q0 26 -13 42t-39 16 q-35 0 -54.5 -26.5t-19.5 -61.5q0 -26 13 -42t39 -16q30 0 52 24t22 64zM250 423q0 29 -15.5 48.5t-44.5 19.5q-38 0 -61.5 -29.5t-23.5 -73.5q0 -30 15 -48.5t45 -18.5q35 0 60 28.5t25 73.5z" />
<glyph unicode="&#x2079;" horiz-adv-x="292" d="M54 286zM178 479q21 0 37 10t27.5 26.5t17.5 38t6 43.5q0 31 -14 54t-43 23q-38 0 -61 -33.5t-23 -89.5q0 -33 13.5 -52.5t39.5 -19.5zM148 286q-39 0 -62.5 17t-31.5 55l33 20q6 -30 21 -43.5t39 -13.5q48 0 75.5 46t41.5 134q1 7 2 16.5t1 17.5q-10 -41 -37 -66 t-65 -25t-59.5 26t-21.5 75q0 34 8 63.5t24 52t40 35.5t56 13q45 0 72 -31t27 -101q0 -18 -2 -37t-5 -41q-17 -109 -57 -161t-99 -52z" />
<glyph unicode="&#x207a;" horiz-adv-x="236" d="M63 360zM152 360h-34l16 99h-71l5 32h71l16 103h34l-17 -103h70l-5 -32h-70z" />
<glyph unicode="&#x207b;" horiz-adv-x="236" d="M63 457zM243 492l-6 -35h-174l6 35h174z" />
<glyph unicode="&#x207c;" horiz-adv-x="236" d="M58 420zM249 532l-6 -36h-174l6 36h174zM236 456l-5 -36h-173l5 36h173z" />
<glyph unicode="&#x207d;" horiz-adv-x="163" d="M54 243zM144 278l-16 -35q-74 15 -74 141q0 21 2 45t6 50q35 217 140 238l6 -35q-39 -11 -66 -58t-43 -145q-5 -26 -6.5 -48t-1.5 -41q0 -51 13.5 -77.5t39.5 -34.5z" />
<glyph unicode="&#x207e;" horiz-adv-x="163" d="M28 243zM92 682l17 35q73 -15 73 -141q0 -21 -2 -45t-6 -51q-35 -215 -141 -237l-5 35q39 11 66.5 58t43.5 144q4 27 6 49.5t2 41.5q0 51 -14 77t-40 34z" />
<glyph unicode="&#x2080;" horiz-adv-x="310" d="M182 416q49 0 73.5 -30t24.5 -97q0 -19 -2 -39.5t-5 -45.5q-17 -113 -54.5 -162t-99.5 -49q-49 0 -73.5 30.5t-24.5 97.5q0 19 1.5 39.5t5.5 43.5q17 113 54.5 162.5t99.5 49.5zM179 380q-39 0 -66 -39t-43 -136q-4 -26 -5.5 -47t-1.5 -38q0 -51 15.5 -71t44.5 -20 q19 0 35.5 9t30 29t24 53.5t18.5 83.5q4 26 6 47t2 38q0 50 -15.5 70.5t-44.5 20.5z" />
<glyph unicode="&#x2081;" horiz-adv-x="160" d="M69 0h-42l55 351l-46 -39l-12 34l81 64h29z" />
<glyph unicode="&#x2082;" horiz-adv-x="259" d="M-12 0l5 33l141 169q35 42 50.5 71.5t15.5 55.5q0 49 -52 49q-26 0 -47.5 -14.5t-40.5 -51.5l-30 15q23 50 55 69.5t71 19.5q44 0 65.5 -22t21.5 -59q0 -17 -4 -32.5t-13 -33.5t-24.5 -39.5t-38.5 -49.5l-120 -143l168 1l-6 -38h-217z" />
<glyph unicode="&#x2083;" horiz-adv-x="271" d="M-6 79l35 14q9 -65 65 -65q43 0 66 30t23 76q0 28 -14 44.5t-44 16.5h-32l5 36h32q35 0 54.5 28.5t19.5 64.5q0 56 -52 56q-28 0 -49 -14.5t-35 -46.5l-32 15q36 82 125 82q43 0 64.5 -23t21.5 -61q0 -35 -17.5 -68.5t-51.5 -48.5q21 -9 33 -28t12 -51q0 -62 -34 -102.5 t-97 -40.5q-38 0 -65 20t-33 66z" />
<glyph unicode="&#x2084;" horiz-adv-x="294" d="M1 107l5 31l143 271h41l-141 -265h126l29 184h41l-29 -184h45l-6 -37h-45l-18 -107h-40l17 107h-168z" />
<glyph unicode="&#x2085;" horiz-adv-x="276" d="M107 372l-33 -143q32 29 78 29q37 0 60 -23t23 -74q0 -35 -9.5 -65.5t-27 -53.5t-43 -36t-58.5 -13q-42 0 -68.5 20.5t-32.5 63.5l35 16q5 -34 23 -49.5t45 -15.5q22 0 39.5 10.5t29.5 28t18.5 40.5t6.5 49q0 67 -59 67q-23 0 -42.5 -10t-35.5 -27l-27 12l49 211h183 l-6 -37h-148z" />
<glyph unicode="&#x2086;" horiz-adv-x="293" d="M278 341l-33 -16q-10 55 -59 55q-47 0 -74.5 -45t-41.5 -135q-1 -7 -2 -16.5t-2 -17.5q11 41 38 65.5t65 24.5q37 0 59 -26t22 -74q0 -33 -8 -63t-24 -52t-39.5 -35t-54.5 -13q-46 0 -73.5 31t-27.5 103q0 32 6 73q17 112 57 164t100 52q40 0 63 -18t29 -57zM152 222 q-19 0 -34.5 -10t-27 -26.5t-18 -37.5t-6.5 -43q0 -32 14 -54.5t46 -22.5q20 0 35.5 9.5t26 26t16 38t5.5 46.5q0 74 -57 74z" />
<glyph unicode="&#x2087;" horiz-adv-x="236" d="M33 0q9 55 26 109.5t39.5 103.5t49.5 90t56 69l-165 -2l7 39h209l-6 -35q-30 -25 -57 -64t-49 -87.5t-38.5 -105t-25.5 -117.5h-46z" />
<glyph unicode="&#x2088;" horiz-adv-x="292" d="M240 133q0 -63 -35 -101.5t-95 -38.5q-46 0 -71 26t-25 70q0 51 24 85t59 45q-40 19 -40 75q0 24 7.5 46.5t22.5 39t36.5 26.5t50.5 10q41 0 63.5 -22t22.5 -62q0 -42 -19 -71.5t-49 -43.5q22 -9 35 -30.5t13 -53.5zM221 323q0 26 -13 42t-39 16q-35 0 -54.5 -26.5 t-19.5 -61.5q0 -26 13 -42t39 -16q30 0 52 24t22 64zM200 130q0 29 -15.5 48.5t-44.5 19.5q-38 0 -61.5 -29.5t-23.5 -73.5q0 -30 15 -48.5t45 -18.5q35 0 60 28.5t25 73.5z" />
<glyph unicode="&#x2089;" horiz-adv-x="292" d="M128 186q21 0 37 10t27.5 26.5t17.5 38t6 43.5q0 31 -14 54t-43 23q-38 0 -61 -33.5t-23 -89.5q0 -33 13.5 -52.5t39.5 -19.5zM98 -7q-39 0 -62.5 17t-31.5 55l33 20q6 -30 21 -43.5t39 -13.5q48 0 75.5 46t41.5 134q1 7 2 16.5t1 17.5q-10 -41 -37 -66t-65 -25t-59.5 26 t-21.5 75q0 34 8 63.5t24 52t40 35.5t56 13q45 0 72 -31t27 -101q0 -18 -2 -37t-5 -41q-17 -109 -57 -161t-99 -52z" />
<glyph unicode="&#x208a;" horiz-adv-x="236" d="M106 64h-34l16 99h-71l5 32h71l16 103h34l-17 -103h70l-5 -32h-70z" />
<glyph unicode="&#x208b;" horiz-adv-x="236" d="M197 196l-6 -35h-174l6 35h174z" />
<glyph unicode="&#x208c;" horiz-adv-x="236" d="M203 236l-6 -36h-174l6 36h174zM190 160l-5 -36h-173l5 36h173z" />
<glyph unicode="&#x208d;" horiz-adv-x="163" d="M98 -18l-16 -35q-74 15 -74 141q0 21 2 45t6 50q35 217 140 238l6 -35q-39 -11 -66 -58t-43 -145q-5 -26 -6.5 -48t-1.5 -41q0 -51 13.5 -77.5t39.5 -34.5z" />
<glyph unicode="&#x208e;" horiz-adv-x="163" d="M46 386l17 35q73 -15 73 -141q0 -21 -2 -45t-6 -51q-35 -215 -141 -237l-5 35q39 11 66.5 58t43.5 144q4 27 6 49.5t2 41.5q0 51 -14 77t-40 34z" />
<glyph unicode="&#x20ac;" horiz-adv-x="510" d="M470 143q-18 -43 -42 -72.5t-51.5 -47.5t-59 -26t-65.5 -8q-95 0 -140 65.5t-34 216.5h-66l7 44h62q2 15 4 29t5 30h-62l7 44h62q34 155 102 224t161 69q71 0 113 -38.5t52 -130.5l-52 -17q-8 79 -39 109t-82 30q-33 0 -63 -12.5t-55.5 -41t-46 -76t-35.5 -116.5h236 l-15 -44h-230q-4 -18 -5.5 -31.5t-3.5 -27.5h216l-16 -44h-203q-6 -66 0 -111t22.5 -73t42.5 -40.5t61 -12.5q51 0 95.5 29.5t74.5 103.5z" />
<glyph unicode="&#x2122;" horiz-adv-x="514" d="M87 700h181l-5 -30h-72l-42 -264h-33l42 264h-76zM249 406l47 294h36l40 -252l118 252h38l-47 -294h-31l38 231l-109 -231h-27l-37 228l-35 -228h-31z" />
<glyph unicode="&#x2153;" horiz-adv-x="609" d="M118 293h-42l55 351l-46 -39l-12 34l81 64h29zM477 700l-359 -700h-49l360 700h48zM330 79l35 14q9 -65 65 -65q43 0 66 30t23 76q0 28 -14 44.5t-44 16.5h-32l5 36h32q35 0 54.5 28.5t19.5 64.5q0 56 -52 56q-28 0 -49 -14.5t-35 -46.5l-32 15q36 82 125 82 q43 0 64.5 -23t21.5 -61q0 -35 -17.5 -68.5t-51.5 -48.5q21 -9 33 -28t12 -51q0 -62 -34 -102.5t-97 -40.5q-38 0 -65 20t-33 66z" />
<glyph unicode="&#x2154;" horiz-adv-x="707" d="M33 293l5 33l141 169q35 42 50.5 71.5t15.5 55.5q0 49 -52 49q-26 0 -47.5 -14.5t-40.5 -51.5l-30 15q23 50 55 69.5t71 19.5q44 0 65.5 -22t21.5 -59q0 -17 -4 -32.5t-13 -33.5t-24.5 -39.5t-38.5 -49.5l-120 -143l168 1l-6 -38h-217zM574 700l-359 -700h-49l360 700h48 zM428 79l35 14q9 -65 65 -65q43 0 66 30t23 76q0 28 -14 44.5t-44 16.5h-32l5 36h32q35 0 54.5 28.5t19.5 64.5q0 56 -52 56q-28 0 -49 -14.5t-35 -46.5l-32 15q36 82 125 82q43 0 64.5 -23t21.5 -61q0 -35 -17.5 -68.5t-51.5 -48.5q21 -9 33 -28t12 -51q0 -62 -34 -102.5 t-97 -40.5q-38 0 -65 20t-33 66z" />
<glyph unicode="&#x2155;" horiz-adv-x="619" d="M117 293h-42l55 351l-46 -39l-12 34l81 64h29zM477 700l-359 -700h-49l360 700h48zM448 372l-33 -143q32 29 78 29q37 0 60 -23t23 -74q0 -35 -9.5 -65.5t-27 -53.5t-43 -36t-58.5 -13q-42 0 -68.5 20.5t-32.5 63.5l35 16q5 -34 23 -49.5t45 -15.5q22 0 39.5 10.5 t29.5 28t18.5 40.5t6.5 49q0 67 -59 67q-23 0 -42.5 -10t-35.5 -27l-27 12l49 211h183l-6 -37h-148z" />
<glyph unicode="&#x2156;" horiz-adv-x="717" d="M34 293l5 33l141 169q35 42 50.5 71.5t15.5 55.5q0 49 -52 49q-26 0 -47.5 -14.5t-40.5 -51.5l-30 15q23 50 55 69.5t71 19.5q44 0 65.5 -22t21.5 -59q0 -17 -4 -32.5t-13 -33.5t-24.5 -39.5t-38.5 -49.5l-120 -143l168 1l-6 -38h-217zM577 700l-359 -700h-49l360 700h48 zM547 372l-33 -143q32 29 78 29q37 0 60 -23t23 -74q0 -35 -9.5 -65.5t-27 -53.5t-43 -36t-58.5 -13q-42 0 -68.5 20.5t-32.5 63.5l35 16q5 -34 23 -49.5t45 -15.5q22 0 39.5 10.5t29.5 28t18.5 40.5t6.5 49q0 67 -59 67q-23 0 -42.5 -10t-35.5 -27l-27 12l49 211h183 l-6 -37h-148z" />
<glyph unicode="&#x2157;" horiz-adv-x="715" d="M574 700l-359 -700h-49l360 700h48zM42 372l35 14q9 -65 65 -65q43 0 66 30t23 76q0 28 -14 44.5t-44 16.5h-32l5 36h32q35 0 54.5 28.5t19.5 64.5q0 56 -52 56q-28 0 -49 -14.5t-35 -46.5l-32 15q36 82 125 82q43 0 64.5 -23t21.5 -61q0 -35 -17.5 -68.5t-51.5 -48.5 q21 -9 33 -28t12 -51q0 -62 -34 -102.5t-97 -40.5q-38 0 -65 20t-33 66zM545 372l-33 -143q32 29 78 29q37 0 60 -23t23 -74q0 -35 -9.5 -65.5t-27 -53.5t-43 -36t-58.5 -13q-42 0 -68.5 20.5t-32.5 63.5l35 16q5 -34 23 -49.5t45 -15.5q22 0 39.5 10.5t29.5 28t18.5 40.5 t6.5 49q0 67 -59 67q-23 0 -42.5 -10t-35.5 -27l-27 12l49 211h183l-6 -37h-148z" />
<glyph unicode="&#x2158;" horiz-adv-x="738" d="M49 400l5 31l143 271h41l-141 -265h126l29 184h41l-29 -184h45l-6 -37h-45l-18 -107h-40l17 107h-168zM595 700l-359 -700h-49l360 700h48zM566 372l-33 -143q32 29 78 29q37 0 60 -23t23 -74q0 -35 -9.5 -65.5t-27 -53.5t-43 -36t-58.5 -13q-42 0 -68.5 20.5t-32.5 63.5 l35 16q5 -34 23 -49.5t45 -15.5q22 0 39.5 10.5t29.5 28t18.5 40.5t6.5 49q0 67 -59 67q-23 0 -42.5 -10t-35.5 -27l-27 12l49 211h183l-6 -37h-148z" />
<glyph unicode="&#x2159;" horiz-adv-x="635" d="M116 293h-42l55 351l-46 -39l-12 34l81 64h29zM477 700l-359 -700h-49l360 700h48zM619 341l-33 -16q-10 55 -59 55q-47 0 -74.5 -45t-41.5 -135q-1 -7 -2 -16.5t-2 -17.5q11 41 38 65.5t65 24.5q37 0 59 -26t22 -74q0 -33 -8 -63t-24 -52t-39.5 -35t-54.5 -13 q-46 0 -73.5 31t-27.5 103q0 32 6 73q17 112 57 164t100 52q40 0 63 -18t29 -57zM493 222q-19 0 -34.5 -10t-27 -26.5t-18 -37.5t-6.5 -43q0 -32 14 -54.5t46 -22.5q20 0 35.5 9.5t26 26t16 38t5.5 46.5q0 74 -57 74z" />
<glyph unicode="&#x215a;" horiz-adv-x="724" d="M574 700l-359 -700h-49l360 700h48zM154 665l-33 -143q32 29 78 29q37 0 60 -23t23 -74q0 -35 -9.5 -65.5t-27 -53.5t-43 -36t-58.5 -13q-42 0 -68.5 20.5t-32.5 63.5l35 16q5 -34 23 -49.5t45 -15.5q22 0 39.5 10.5t29.5 28t18.5 40.5t6.5 49q0 67 -59 67 q-23 0 -42.5 -10t-35.5 -27l-27 12l49 211h183l-6 -37h-148zM708 341l-33 -16q-10 55 -59 55q-47 0 -74.5 -45t-41.5 -135q-1 -7 -2 -16.5t-2 -17.5q11 41 38 65.5t65 24.5q37 0 59 -26t22 -74q0 -33 -8 -63t-24 -52t-39.5 -35t-54.5 -13q-46 0 -73.5 31t-27.5 103 q0 32 6 73q17 112 57 164t100 52q40 0 63 -18t29 -57zM582 222q-19 0 -34.5 -10t-27 -26.5t-18 -37.5t-6.5 -43q0 -32 14 -54.5t46 -22.5q20 0 35.5 9.5t26 26t16 38t5.5 46.5q0 74 -57 74z" />
<glyph unicode="&#x215b;" horiz-adv-x="634" d="M118 293h-42l55 351l-46 -39l-12 34l81 64h29zM477 700l-359 -700h-49l360 700h48zM580 133q0 -63 -35 -101.5t-95 -38.5q-46 0 -71 26t-25 70q0 51 24 85t59 45q-40 19 -40 75q0 24 7.5 46.5t22.5 39t36.5 26.5t50.5 10q41 0 63.5 -22t22.5 -62q0 -42 -19 -71.5 t-49 -43.5q22 -9 35 -30.5t13 -53.5zM561 323q0 26 -13 42t-39 16q-35 0 -54.5 -26.5t-19.5 -61.5q0 -26 13 -42t39 -16q30 0 52 24t22 64zM540 130q0 29 -15.5 48.5t-44.5 19.5q-38 0 -61.5 -29.5t-23.5 -73.5q0 -30 15 -48.5t45 -18.5q35 0 60 28.5t25 73.5z" />
<glyph unicode="&#x215c;" horiz-adv-x="729" d="M574 700l-359 -700h-49l360 700h48zM675 133q0 -63 -35 -101.5t-95 -38.5q-46 0 -71 26t-25 70q0 51 24 85t59 45q-40 19 -40 75q0 24 7.5 46.5t22.5 39t36.5 26.5t50.5 10q41 0 63.5 -22t22.5 -62q0 -42 -19 -71.5t-49 -43.5q22 -9 35 -30.5t13 -53.5zM42 372l35 14 q9 -65 65 -65q43 0 66 30t23 76q0 28 -14 44.5t-44 16.5h-32l5 36h32q35 0 54.5 28.5t19.5 64.5q0 56 -52 56q-28 0 -49 -14.5t-35 -46.5l-32 15q36 82 125 82q43 0 64.5 -23t21.5 -61q0 -35 -17.5 -68.5t-51.5 -48.5q21 -9 33 -28t12 -51q0 -62 -34 -102.5t-97 -40.5 q-38 0 -65 20t-33 66zM656 323q0 26 -13 42t-39 16q-35 0 -54.5 -26.5t-19.5 -61.5q0 -26 13 -42t39 -16q30 0 52 24t22 64zM635 130q0 29 -15.5 48.5t-44.5 19.5q-38 0 -61.5 -29.5t-23.5 -73.5q0 -30 15 -48.5t45 -18.5q35 0 60 28.5t25 73.5z" />
<glyph unicode="&#x215d;" horiz-adv-x="731" d="M575 700l-359 -700h-49l360 700h48zM677 133q0 -63 -35 -101.5t-95 -38.5q-46 0 -71 26t-25 70q0 51 24 85t59 45q-40 19 -40 75q0 24 7.5 46.5t22.5 39t36.5 26.5t50.5 10q41 0 63.5 -22t22.5 -62q0 -42 -19 -71.5t-49 -43.5q22 -9 35 -30.5t13 -53.5zM153 665l-33 -143 q32 29 78 29q37 0 60 -23t23 -74q0 -35 -9.5 -65.5t-27 -53.5t-43 -36t-58.5 -13q-42 0 -68.5 20.5t-32.5 63.5l35 16q5 -34 23 -49.5t45 -15.5q22 0 39.5 10.5t29.5 28t18.5 40.5t6.5 49q0 67 -59 67q-23 0 -42.5 -10t-35.5 -27l-27 12l49 211h183l-6 -37h-148zM658 323 q0 26 -13 42t-39 16q-35 0 -54.5 -26.5t-19.5 -61.5q0 -26 13 -42t39 -16q30 0 52 24t22 64zM637 130q0 29 -15.5 48.5t-44.5 19.5q-38 0 -61.5 -29.5t-23.5 -73.5q0 -30 15 -48.5t45 -18.5q35 0 60 28.5t25 73.5z" />
<glyph unicode="&#x215e;" horiz-adv-x="677" d="M79 292q9 55 26 109.5t39.5 103.5t49.5 90t56 69l-165 -2l7 39h209l-6 -35q-30 -25 -57 -64t-49 -87.5t-38.5 -105t-25.5 -117.5h-46zM521 700l-359 -700h-49l360 700h48zM623 133q0 -63 -35 -101.5t-95 -38.5q-46 0 -71 26t-25 70q0 51 24 85t59 45q-40 19 -40 75 q0 24 7.5 46.5t22.5 39t36.5 26.5t50.5 10q41 0 63.5 -22t22.5 -62q0 -42 -19 -71.5t-49 -43.5q22 -9 35 -30.5t13 -53.5zM604 323q0 26 -13 42t-39 16q-35 0 -54.5 -26.5t-19.5 -61.5q0 -26 13 -42t39 -16q30 0 52 24t22 64zM583 130q0 29 -15.5 48.5t-44.5 19.5 q-38 0 -61.5 -29.5t-23.5 -73.5q0 -30 15 -48.5t45 -18.5q35 0 60 28.5t25 73.5z" />
<glyph unicode="&#x215f;" horiz-adv-x="631" d="M118 293h-42l55 351l-46 -39l-12 34l81 64h29zM477 700l-359 -700h-49l360 700h48z" />
<glyph unicode="&#x2212;" horiz-adv-x="374" d="M340 330l-7 -44h-291l7 44h291z" />
<glyph unicode="&#x2248;" horiz-adv-x="374" d="M269 373q17 0 40.5 7t43.5 24l-8 -47q-18 -14 -42 -21.5t-44 -7.5t-35 6t-28.5 13.5t-27.5 13.5t-32 6t-42 -6.5t-44 -23.5l8 47q17 14 41 21t44 7t35.5 -6t29 -13.5t28 -13.5t33.5 -6zM248 245q17 0 40.5 6.5t43.5 23.5l-7 -47q-18 -14 -42.5 -21t-44.5 -7t-35 6 t-28.5 13.5t-27.5 13.5t-32 6q-19 0 -42 -7t-43 -24l8 48q17 14 40 21t43 7q21 0 36.5 -6t29.5 -13.5t28.5 -13.5t32.5 -6z" />
<glyph unicode="&#x2260;" horiz-adv-x="373" d="M322 225h-172l-78 -105h-41l79 105h-79l8 45h102l58 79h-148l8 45h172l80 108h41l-80 -108h77l-7 -45h-102l-59 -79h149z" />
<glyph unicode="&#x2264;" horiz-adv-x="415" d="M345 508l19 -38l-208 -146l161 -145l-30 -38l-192 171l4 26zM36 0l7 45h258l-7 -45h-258z" />
<glyph unicode="&#x2265;" horiz-adv-x="413" d="M95 141l-20 39l208 146l-160 145l31 38l191 -170l-4 -26zM303 45l-6 -45h-258l6 45h258z" />
<glyph unicode="&#x25fc;" horiz-adv-x="480" d="M0 480h480v-480h-480v480z" />
<glyph unicode="&#xf6c3;" horiz-adv-x="452" d="M163 -248l-13 20q21 14 37.5 36t19.5 49q-15 -5 -26 3.5t-11 26.5q1 18 11.5 31t30.5 13q32 0 32 -37q0 -22 -6.5 -44t-17 -41t-25.5 -34t-32 -23z" />
<glyph horiz-adv-x="313" d="M32 -65l131 831h48l-132 -831h-47zM132 -65l131 831h48l-132 -831h-47z" />
<glyph horiz-adv-x="165" d="M150 527q-34 17 -51 53.5t-17 81.5q0 31 10.5 44t29.5 13q17 0 27.5 -10.5t10.5 -30.5q0 -23 -13.5 -33.5t-30.5 -5.5q1 -26 14 -50t36 -38z" />
<glyph horiz-adv-x="276" d="M150 526q-34 18 -51 54.5t-17 81.5q0 31 10.5 43.5t29.5 12.5q17 0 27.5 -10.5t10.5 -30.5q0 -23 -13.5 -33t-30.5 -5q1 -27 14 -51t36 -38zM262 526q-34 18 -51 54.5t-17 81.5q0 31 10 43.5t30 12.5q17 0 27.5 -10.5t10.5 -30.5q0 -23 -13.5 -33t-30.5 -5q1 -27 14 -51 t36 -38z" />
<glyph horiz-adv-x="451" d="M40 0zM178 33q52 0 92.5 50.5t57.5 159.5q6 42 6 74q0 69 -24 100t-66 31q-56 0 -93 -52t-54 -155q-4 -23 -5.5 -43.5t-1.5 -37.5q0 -127 88 -127zM309 103q-26 -58 -64 -86t-87 -28q-58 0 -88 43t-30 124q0 19 1.5 40.5t5.5 44.5q17 123 67.5 187.5t125.5 64.5 q45 0 76 -27t38 -82l20 98h42l-75 -482h-43zM357 -181q-30 -23 -68 -23q-33 0 -53 19.5t-20 61.5q0 31 11 57.5t28 46.5t39 31.5t44 12.5v-25q-17 -2 -32.5 -12.5t-27 -26t-18 -35t-6.5 -40.5q0 -29 12.5 -39.5t29.5 -10.5q27 0 46 16z" />
<glyph horiz-adv-x="451" d="M178 33q52 0 92.5 50.5t57.5 159.5q6 42 6 74q0 69 -24 100t-66 31q-56 0 -93 -52t-54 -155q-4 -23 -5.5 -43.5t-1.5 -37.5q0 -127 88 -127zM309 103q-26 -58 -64 -86t-87 -28q-58 0 -88 43t-30 124q0 19 1.5 40.5t5.5 44.5q17 123 67.5 187.5t125.5 64.5q45 0 76 -27 t38 -82l20 98h42l-75 -482h-43z" />
<glyph horiz-adv-x="451" d="M40 0zM178 33q52 0 92.5 50.5t57.5 159.5q6 42 6 74q0 69 -24 100t-66 31q-56 0 -93 -52t-54 -155q-4 -23 -5.5 -43.5t-1.5 -37.5q0 -127 88 -127zM309 103q-26 -58 -64 -86t-87 -28q-58 0 -88 43t-30 124q0 19 1.5 40.5t5.5 44.5q17 123 67.5 187.5t125.5 64.5 q45 0 76 -27t38 -82l20 98h42l-75 -482h-43zM250 568l-68 106l1 5h63l44 -108v-3h-40z" />
<glyph horiz-adv-x="451" d="M40 0zM178 33q52 0 92.5 50.5t57.5 159.5q6 42 6 74q0 69 -24 100t-66 31q-56 0 -93 -52t-54 -155q-4 -23 -5.5 -43.5t-1.5 -37.5q0 -127 88 -127zM309 103q-26 -58 -64 -86t-87 -28q-58 0 -88 43t-30 124q0 19 1.5 40.5t5.5 44.5q17 123 67.5 187.5t125.5 64.5 q45 0 76 -27t38 -82l20 98h42l-75 -482h-43zM317 679h64l-1 -5l-97 -106h-44v3z" />
<glyph horiz-adv-x="451" d="M40 0zM178 33q52 0 92.5 50.5t57.5 159.5q6 42 6 74q0 69 -24 100t-66 31q-56 0 -93 -52t-54 -155q-4 -23 -5.5 -43.5t-1.5 -37.5q0 -127 88 -127zM309 103q-26 -58 -64 -86t-87 -28q-58 0 -88 43t-30 124q0 19 1.5 40.5t5.5 44.5q17 123 67.5 187.5t125.5 64.5 q45 0 76 -27t38 -82l20 98h42l-75 -482h-43zM257 679h45l71 -109v-2h-50l-47 79l-72 -79h-53v2z" />
<glyph horiz-adv-x="451" d="M40 0zM178 33q52 0 92.5 50.5t57.5 159.5q6 42 6 74q0 69 -24 100t-66 31q-56 0 -93 -52t-54 -155q-4 -23 -5.5 -43.5t-1.5 -37.5q0 -127 88 -127zM309 103q-26 -58 -64 -86t-87 -28q-58 0 -88 43t-30 124q0 19 1.5 40.5t5.5 44.5q17 123 67.5 187.5t125.5 64.5 q45 0 76 -27t38 -82l20 98h42l-75 -482h-43zM170 614q0 23 11.5 36t31.5 13q32 0 32 -35q0 -23 -11.5 -35.5t-31.5 -12.5q-32 0 -32 34zM293 614q0 23 11.5 36t31.5 13q32 0 32 -35q0 -23 -11.5 -35.5t-31.5 -12.5q-32 0 -32 34z" />
<glyph horiz-adv-x="451" d="M40 0zM178 33q52 0 92.5 50.5t57.5 159.5q6 42 6 74q0 69 -24 100t-66 31q-56 0 -93 -52t-54 -155q-4 -23 -5.5 -43.5t-1.5 -37.5q0 -127 88 -127zM309 103q-26 -58 -64 -86t-87 -28q-58 0 -88 43t-30 124q0 19 1.5 40.5t5.5 44.5q17 123 67.5 187.5t125.5 64.5 q45 0 76 -27t38 -82l20 98h42l-75 -482h-43zM349 668h36q-3 -26 -10.5 -42.5t-17.5 -26t-21.5 -13.5t-21.5 -4q-16 0 -27 7.5t-20 17t-18 17t-21 7.5q-26 0 -32 -45h-36q3 25 10 41.5t17 26.5t20.5 13.5t21.5 3.5q16 0 27 -7.5t21 -16t19 -16t21 -7.5q25 0 32 44z" />
<glyph horiz-adv-x="451" d="M40 0zM178 33q52 0 92.5 50.5t57.5 159.5q6 42 6 74q0 69 -24 100t-66 31q-56 0 -93 -52t-54 -155q-4 -23 -5.5 -43.5t-1.5 -37.5q0 -127 88 -127zM309 103q-26 -58 -64 -86t-87 -28q-58 0 -88 43t-30 124q0 19 1.5 40.5t5.5 44.5q17 123 67.5 187.5t125.5 64.5 q45 0 76 -27t38 -82l20 98h42l-75 -482h-43zM285 721q27 0 45.5 -18.5t18.5 -52.5q0 -42 -24 -71t-61 -29q-28 0 -46.5 18.5t-18.5 53.5q0 40 23.5 69.5t62.5 29.5zM281 693q-24 0 -38 -20.5t-14 -47.5q0 -22 10 -34.5t27 -12.5q23 0 38.5 21t15.5 49q0 22 -11 33.5 t-28 11.5z" />
<glyph horiz-adv-x="451" d="M40 0zM178 33q52 0 92.5 50.5t57.5 159.5q6 42 6 74q0 69 -24 100t-66 31q-56 0 -93 -52t-54 -155q-4 -23 -5.5 -43.5t-1.5 -37.5q0 -127 88 -127zM309 103q-26 -58 -64 -86t-87 -28q-58 0 -88 43t-30 124q0 19 1.5 40.5t5.5 44.5q17 123 67.5 187.5t125.5 64.5 q45 0 76 -27t38 -82l20 98h42l-75 -482h-43zM366 641l-6 -39h-180l6 39h180z" />
<glyph horiz-adv-x="451" d="M40 0zM178 33q52 0 92.5 50.5t57.5 159.5q6 42 6 74q0 69 -24 100t-66 31q-56 0 -93 -52t-54 -155q-4 -23 -5.5 -43.5t-1.5 -37.5q0 -127 88 -127zM309 103q-26 -58 -64 -86t-87 -28q-58 0 -88 43t-30 124q0 19 1.5 40.5t5.5 44.5q17 123 67.5 187.5t125.5 64.5 q45 0 76 -27t38 -82l20 98h42l-75 -482h-43zM344 678h36q-10 -64 -39 -88t-77 -24q-47 0 -70 24.5t-13 87.5h37q-7 -43 5.5 -59t43.5 -16q32 0 50.5 16t26.5 59z" />
<glyph horiz-adv-x="453" d="M307 101q-26 -55 -65 -81.5t-84 -26.5q-55 0 -81.5 32.5t-26.5 94.5q0 15 1.5 29.5t3.5 29.5l48 303h52l-47 -295q-2 -17 -3.5 -30.5t-1.5 -26.5q0 -49 19.5 -71t54.5 -22q57 0 95 50.5t55 137.5l41 257h52l-77 -484q-17 -106 -70.5 -156.5t-131.5 -50.5q-61 0 -96.5 28 t-49.5 88l47 22q8 -51 34 -72.5t66 -21.5q59 0 97.5 40t52.5 129z" />
<glyph horiz-adv-x="454" d="M0 0zM307 101q-26 -55 -65 -81.5t-84 -26.5q-55 0 -81.5 32.5t-26.5 94.5q0 15 1.5 29.5t3.5 29.5l48 303h52l-47 -295q-2 -17 -3.5 -30.5t-1.5 -26.5q0 -49 19.5 -71t54.5 -22q57 0 95 50.5t55 137.5l41 257h52l-77 -484q-17 -106 -70.5 -156.5t-131.5 -50.5 q-61 0 -96.5 28t-49.5 88l47 22q8 -51 34 -72.5t66 -21.5q59 0 97.5 40t52.5 129zM323 679h64l-1 -5l-97 -106h-44v3z" />
<glyph horiz-adv-x="454" d="M0 0zM307 101q-26 -55 -65 -81.5t-84 -26.5q-55 0 -81.5 32.5t-26.5 94.5q0 15 1.5 29.5t3.5 29.5l48 303h52l-47 -295q-2 -17 -3.5 -30.5t-1.5 -26.5q0 -49 19.5 -71t54.5 -22q57 0 95 50.5t55 137.5l41 257h52l-77 -484q-17 -106 -70.5 -156.5t-131.5 -50.5 q-61 0 -96.5 28t-49.5 88l47 22q8 -51 34 -72.5t66 -21.5q59 0 97.5 40t52.5 129zM261 679h45l71 -109v-2h-50l-47 79l-72 -79h-53v2z" />
<glyph horiz-adv-x="455" d="M0 0zM307 101q-26 -55 -65 -81.5t-84 -26.5q-55 0 -81.5 32.5t-26.5 94.5q0 15 1.5 29.5t3.5 29.5l48 303h52l-47 -295q-2 -17 -3.5 -30.5t-1.5 -26.5q0 -49 19.5 -71t54.5 -22q57 0 95 50.5t55 137.5l41 257h52l-77 -484q-17 -106 -70.5 -156.5t-131.5 -50.5 q-61 0 -96.5 28t-49.5 88l47 22q8 -51 34 -72.5t66 -21.5q59 0 97.5 40t52.5 129zM182 614q0 23 11.5 36t31.5 13q32 0 32 -35q0 -23 -11.5 -35.5t-31.5 -12.5q-32 0 -32 34zM305 614q0 23 11.5 36t31.5 13q32 0 32 -35q0 -23 -11.5 -35.5t-31.5 -12.5q-32 0 -32 34z" />
<glyph horiz-adv-x="292" d="M251 450l30 -18q-20 -42 -50.5 -60t-67.5 -18q-99 0 -99 120q0 13 1.5 26.5t3.5 30.5q14 93 51 136.5t94 43.5q43 0 66 -20.5t30 -60.5l-34 -16q-6 29 -21 45.5t-44 16.5q-41 0 -66 -35t-36 -110q-3 -17 -4 -31t-1 -27q0 -45 15.5 -64t49.5 -19q26 0 46 13t36 47z" />
<glyph horiz-adv-x="326" d="M164 390q35 0 62.5 35t38.5 110q2 14 3 26.5t1 23.5q0 47 -16 68.5t-44 21.5q-78 0 -101 -143q-2 -16 -3.5 -29.5t-1.5 -25.5q0 -87 61 -87zM69 533q13 87 48 132.5t89 45.5q31 0 52 -19t26 -59l13 68h34l-53 -338h-35l8 72q-17 -41 -44 -61t-59 -20q-85 0 -85 119 q0 27 6 60z" />
<glyph horiz-adv-x="452" d="M237 500h-37l36 200h51z" />
<glyph horiz-adv-x="164" d="M5 0l90 519h42l-75 -519h-57zM100 656q0 50 44 50q15 0 23.5 -9.5t8.5 -25.5q0 -22 -10.5 -35.5t-32.5 -13.5q-33 0 -33 34z" />
<glyph horiz-adv-x="384" d="M256 523l-21 -141h-22q-36 0 -66.5 -16.5t-52 -45t-33.5 -67.5t-12 -83q0 -63 29 -96.5t83 -33.5q45 0 85.5 25.5t66.5 93.5l42 -17q-29 -78 -81 -113.5t-117 -35.5q-78 0 -118.5 46t-40.5 127q0 55 14.5 100t40.5 77.5t61.5 52t77.5 23.5l19 104h45zM218 660q0 24 12 37 t32 13q16 0 24 -9.5t8 -25.5q0 -22 -10.5 -35.5t-32.5 -13.5q-33 0 -33 34z" />
<glyph horiz-adv-x="280" d="M245 273l-7 -46h-203l7 46h203z" />
<glyph horiz-adv-x="513" d="M478 273l-7 -46h-437l7 46h437z" />
<glyph horiz-adv-x="539" d="M246 -11q-90 0 -138 55.5t-48 177.5q0 29 3.5 61.5t8.5 67.5q15 98 39.5 166.5t60 111.5t80.5 62.5t101 19.5q75 0 117.5 -37t53.5 -128l-51 -17q-5 40 -15.5 66t-26.5 41.5t-37.5 21.5t-47.5 6q-39 0 -73.5 -15t-62.5 -51.5t-49.5 -97t-35.5 -150.5q-12 -77 -12 -131 q0 -52 9.5 -87.5t27 -57t42.5 -31t57 -9.5q35 0 65.5 13.5t55.5 43.5t43.5 77.5t28.5 115.5h-146l7 45h197l-6 -43q-45 -297 -248 -297z" />
<glyph horiz-adv-x="467" d="M362 0l-194 342l1 4l289 354h62l-293 -354l197 -346h-62zM43 0l111 700h53l-111 -700h-53z" />
<glyph horiz-adv-x="386" d="M32 0l111 700h52l-111 -700h-52zM273 0l-142 233l1 6l208 243h59l-211 -241l145 -241h-60z" />
<glyph horiz-adv-x="600" d="M45 11zM469 108q-41 -48 -92.5 -72.5t-114.5 -24.5q-102 0 -159.5 68.5t-57.5 195.5q0 92 24.5 168t67.5 130t99.5 84t121.5 30q100 0 154.5 -64t54.5 -176q0 -54 -11 -100.5t-31 -80t-47 -53t-60 -19.5q-59 0 -56 72q-39 -82 -108 -82q-34 0 -54 20.5t-20 56.5 q0 24 9.5 47t27.5 40.5t44.5 28t61.5 10.5h52q3 22 3 40q0 36 -15.5 51.5t-41.5 15.5q-27 0 -46 -14t-35 -40l-27 18q16 30 44 49t69 19q43 0 66 -22.5t23 -68.5q0 -9 -1 -20t-3 -24l-15 -93q-1 -8 -1.5 -16.5t-0.5 -15.5q0 -45 35 -45q23 0 43 17t34.5 47.5t22.5 72t8 89.5 q0 103 -48 158.5t-133 55.5q-58 0 -109 -28t-89.5 -79t-61 -121.5t-22.5 -154.5q0 -120 52 -181t140 -61q54 0 101.5 22t84.5 66zM215 265q0 -23 12.5 -36t34.5 -13q41 0 69.5 36.5t37.5 96.5l1 8h-48q-51 0 -79 -26.5t-28 -65.5z" />
<glyph horiz-adv-x="510" d="M323 711q79 0 119.5 -50t40.5 -164q0 -32 -2.5 -68.5t-9.5 -78.5q-15 -97 -38 -165.5t-54.5 -112t-72.5 -63.5t-91 -20q-79 0 -119.5 51t-40.5 165q0 32 3.5 67.5t9.5 77.5q15 97 37.5 166t54 112t72.5 63t91 20zM319 665q-36 0 -66 -16t-55 -53t-44 -97.5t-33 -148.5 q-7 -45 -10.5 -82t-3.5 -67q0 -92 30 -129.5t83 -37.5q35 0 65 16t54.5 53t44 97.5t34.5 149.5q7 44 10.5 81t3.5 67q0 92 -29 129.5t-84 37.5z" />
<glyph horiz-adv-x="243" d="M111 0h-53l98 624l-81 -72l-18 42l128 106h36z" />
<glyph horiz-adv-x="421" d="M-10 0l8 44l245 295q32 38 54.5 70t36.5 60t20.5 53t6.5 50q0 45 -25 69t-71 24q-48 0 -87.5 -27t-73.5 -95l-39 22q40 82 93 114t115 32q73 0 108 -36.5t35 -96.5q0 -27 -6.5 -54t-21.5 -57.5t-40 -66.5t-63 -82l-227 -272l303 1l-9 -47h-362z" />
<glyph horiz-adv-x="441" d="M5 133l46 19q7 -61 37.5 -90.5t81.5 -29.5q39 0 70 14.5t52 41t32 62.5t11 79q0 53 -24.5 83.5t-79.5 30.5h-59l8 48h56q32 0 57 14t42.5 38t27 55.5t9.5 65.5q0 49 -24.5 75.5t-72.5 26.5q-52 0 -90 -25.5t-64 -85.5l-41 21q30 67 80.5 101t124.5 34q69 0 105 -37 t36 -103q0 -31 -8 -62t-23 -58t-37.5 -48.5t-50.5 -33.5q37 -14 58 -46t21 -89q0 -53 -14.5 -98t-43 -77.5t-69.5 -51t-94 -18.5q-62 0 -106.5 34.5t-53.5 109.5z" />
<glyph horiz-adv-x="476" d="M17 191l6 39l251 470h52l-248 -462h234l55 342h52l-54 -342h81l-8 -47h-81l-30 -191h-53l31 191h-288z" />
<glyph horiz-adv-x="449" d="M180 653l-60 -266q54 51 139 51q31 0 56.5 -9.5t44 -29t28.5 -50.5t10 -74q0 -59 -15.5 -111t-44.5 -91t-72 -61.5t-97 -22.5q-69 0 -112.5 35t-52.5 107l45 18q7 -60 40 -88.5t84 -28.5q41 0 73 19t54 51.5t33.5 75.5t11.5 92q0 60 -27.5 91t-79.5 31q-46 0 -81.5 -18 t-64.5 -49l-33 15l84 360h297l-7 -47h-253z" />
<glyph horiz-adv-x="481" d="M481 586l-44 -22q-11 55 -37.5 78.5t-69.5 23.5q-86 0 -135.5 -83.5t-75.5 -242.5q-2 -13 -4.5 -30.5t-3.5 -33.5q9 36 26 65.5t41 50.5t53.5 33t62.5 12q62 0 100.5 -44t38.5 -127q0 -56 -13.5 -106.5t-40.5 -88.5t-67 -60t-92 -22q-36 0 -66 12.5t-51.5 39.5 t-33.5 69.5t-12 102.5q0 29 3 61t8 69q14 96 38.5 165.5t58.5 114.5t75.5 66.5t89.5 21.5q65 0 102.5 -29.5t48.5 -95.5zM275 392q-36 0 -66 -18.5t-51 -48.5t-33 -69t-12 -80q0 -29 6.5 -54.5t19.5 -45t33.5 -31t49.5 -11.5q37 0 66.5 17t50 47t31 70.5t10.5 87.5 q0 66 -26.5 101t-78.5 35z" />
<glyph horiz-adv-x="378" d="M74 0q15 94 44 189t68 182t86.5 160t98.5 123l-285 -1l8 47h344l-8 -50q-51 -39 -98 -105.5t-86.5 -152t-69.5 -185.5t-47 -207h-55z" />
<glyph horiz-adv-x="480" d="M416 226q0 -53 -15.5 -96.5t-44 -75t-68 -48.5t-86.5 -17q-76 0 -117 44.5t-41 117.5q0 45 11 82t30.5 65.5t45.5 48t56 28.5q-32 16 -51 49t-19 81q0 41 12.5 78t37.5 65.5t60.5 45.5t82.5 17q66 0 103.5 -37.5t37.5 -103.5q0 -72 -33 -123.5t-87 -74.5q38 -14 61.5 -52 t23.5 -94zM401 558q0 49 -24 78t-74 29q-32 0 -57 -13t-42.5 -34.5t-27 -51t-9.5 -62.5q0 -48 24.5 -78.5t71.5 -30.5q27 0 52 11.5t44 33t30.5 51.5t11.5 67zM365 223q0 55 -29 90t-84 35q-34 0 -62.5 -14.5t-49.5 -39.5t-32.5 -60t-11.5 -75q0 -56 28 -90.5t83 -34.5 q33 0 61.5 14t50 39t34 59.5t12.5 76.5z" />
<glyph horiz-adv-x="480" d="M231 306q38 0 68.5 18.5t52 49.5t33 70.5t11.5 80.5q0 28 -6.5 54t-20 45t-33.5 30.5t-47 11.5q-35 0 -64 -16t-50 -45t-32.5 -70.5t-11.5 -92.5q0 -64 26 -100t74 -36zM184 -11q-65 0 -103 29.5t-50 96.5l44 22q11 -55 37.5 -79t69.5 -24q85 0 134.5 83t75.5 243 q2 13 4.5 31t2.5 33q-9 -36 -26 -66.5t-40 -52t-52 -33.5t-62 -12q-65 0 -102.5 44.5t-37.5 127.5q0 57 13.5 107.5t40 89t66.5 60.5t93 22q73 0 117.5 -52t44.5 -170q0 -29 -3 -62t-8 -70q-14 -96 -38.5 -165.5t-58 -114.5t-74.5 -66.5t-88 -21.5z" />
<glyph d="M317 611q72 0 110.5 -45t38.5 -148q0 -26 -2.5 -55.5t-7.5 -62.5q-12 -83 -33.5 -142t-51 -96.5t-66.5 -55t-82 -17.5q-71 0 -109 45t-38 147q0 26 3 55.5t8 63.5q12 84 33 143t50 96.5t65.5 54.5t81.5 17zM228 34q32 0 59.5 13.5t49.5 44.5t39 82t29 126q6 35 8.5 64 t2.5 55q0 82 -27 114.5t-77 32.5q-32 0 -58.5 -13.5t-48.5 -44.5t-39 -82t-29 -126q-5 -35 -8 -66t-3 -56q0 -80 27 -112t75 -32z" />
<glyph d="M392 0h-342l8 47h145l75 477l-78 -70l-19 40l126 106h34l-88 -553h147z" />
<glyph d="M54 0l6 39l221 241q33 36 57.5 65t40 53.5t23 46t7.5 42.5q0 41 -23.5 59.5t-65.5 18.5t-78 -24t-64 -85l-38 19q33 74 82.5 105t109.5 31q64 0 96.5 -30.5t32.5 -84.5q0 -26 -8.5 -51.5t-25.5 -53.5t-44 -60.5t-63 -72.5l-198 -212h286l-7 -46h-347z" />
<glyph d="M48 33l46 19q7 -61 37.5 -90.5t81.5 -29.5q39 0 70 14.5t52 41t32 62.5t11 79q0 53 -24.5 83.5t-79.5 30.5h-59l8 48h56q32 0 57 14t42.5 38t27 55.5t9.5 65.5q0 49 -24.5 75.5t-72.5 26.5q-52 0 -90 -25.5t-64 -85.5l-41 21q30 67 80.5 101t124.5 34q69 0 105 -37 t36 -103q0 -31 -8 -62t-23 -58t-37.5 -48.5t-50.5 -33.5q37 -14 58 -46t21 -89q0 -53 -14.5 -98t-43 -77.5t-69.5 -51t-94 -18.5q-62 0 -106.5 34.5t-53.5 109.5z" />
<glyph d="M39 91l6 39l251 470h52l-248 -462h234l55 342h52l-54 -342h81l-8 -47h-81l-30 -191h-53l31 191h-288z" />
<glyph d="M222 553l-60 -266q54 51 139 51q31 0 56.5 -9.5t44 -29t28.5 -50.5t10 -74q0 -59 -15.5 -111t-44.5 -91t-72 -61.5t-97 -22.5q-69 0 -112.5 35t-52.5 107l45 18q7 -60 40 -88.5t84 -28.5q41 0 73 19t54 51.5t33.5 75.5t11.5 92q0 60 -27.5 91t-79.5 31q-46 0 -81.5 -18 t-64.5 -49l-33 15l84 360h297l-7 -47h-253z" />
<glyph d="M506 586l-44 -22q-11 55 -37.5 78.5t-69.5 23.5q-86 0 -135.5 -83.5t-75.5 -242.5q-2 -13 -4.5 -30.5t-3.5 -33.5q9 36 26 65.5t41 50.5t53.5 33t62.5 12q62 0 100.5 -44t38.5 -127q0 -56 -13.5 -106.5t-40.5 -88.5t-67 -60t-92 -22q-36 0 -66 12.5t-51.5 39.5 t-33.5 69.5t-12 102.5q0 29 3 61t8 69q14 96 38.5 165.5t58.5 114.5t75.5 66.5t89.5 21.5q65 0 102.5 -29.5t48.5 -95.5zM300 392q-36 0 -66 -18.5t-51 -48.5t-33 -69t-12 -80q0 -29 6.5 -54.5t19.5 -45t33.5 -31t49.5 -11.5q37 0 66.5 17t50 47t31 70.5t10.5 87.5 q0 66 -26.5 101t-78.5 35z" />
<glyph d="M143 -100q15 94 44 189t68 182t86.5 160t98.5 123l-285 -1l8 47h344l-8 -50q-51 -39 -98 -105.5t-86.5 -152t-69.5 -185.5t-47 -207h-55z" />
<glyph d="M439 226q0 -53 -15.5 -96.5t-44 -75t-68 -48.5t-86.5 -17q-76 0 -117 44.5t-41 117.5q0 45 11 82t30.5 65.5t45.5 48t56 28.5q-32 16 -51 49t-19 81q0 41 12.5 78t37.5 65.5t60.5 45.5t82.5 17q66 0 103.5 -37.5t37.5 -103.5q0 -72 -33 -123.5t-87 -74.5q38 -14 61.5 -52 t23.5 -94zM424 558q0 49 -24 78t-74 29q-32 0 -57 -13t-42.5 -34.5t-27 -51t-9.5 -62.5q0 -48 24.5 -78.5t71.5 -30.5q27 0 52 11.5t44 33t30.5 51.5t11.5 67zM388 223q0 55 -29 90t-84 35q-34 0 -62.5 -14.5t-49.5 -39.5t-32.5 -60t-11.5 -75q0 -56 28 -90.5t83 -34.5 q33 0 61.5 14t50 39t34 59.5t12.5 76.5z" />
<glyph d="M248 206q38 0 68.5 18.5t52 49.5t33 70.5t11.5 80.5q0 28 -6.5 54t-20 45t-33.5 30.5t-47 11.5q-35 0 -64 -16t-50 -45t-32.5 -70.5t-11.5 -92.5q0 -64 26 -100t74 -36zM201 -111q-65 0 -103 29.5t-50 96.5l44 22q11 -55 37.5 -79t69.5 -24q85 0 134.5 83t75.5 243 q2 13 4.5 31t2.5 33q-9 -36 -26 -66.5t-40 -52t-52 -33.5t-62 -12q-65 0 -102.5 44.5t-37.5 127.5q0 57 13.5 107.5t40 89t66.5 60.5t93 22q73 0 117.5 -52t44.5 -170q0 -29 -3 -62t-8 -70q-14 -96 -38.5 -165.5t-58 -114.5t-74.5 -66.5t-88 -21.5z" />
<glyph horiz-adv-x="467" d="M285 611q72 0 110.5 -45t38.5 -148q0 -26 -2.5 -55.5t-7.5 -62.5q-12 -83 -33.5 -142t-51 -96.5t-66.5 -55t-82 -17.5q-71 0 -109 45t-38 147q0 26 3 55.5t8 63.5q12 84 33 143t50 96.5t65.5 54.5t81.5 17zM196 34q32 0 59.5 13.5t49.5 44.5t39 82t29 126q6 35 8.5 64 t2.5 55q0 82 -27 114.5t-77 32.5q-32 0 -58.5 -13.5t-48.5 -44.5t-39 -82t-29 -126q-5 -35 -8 -66t-3 -56q0 -80 27 -112t75 -32z" />
<glyph horiz-adv-x="224" d="M108 0h-50l82 524l-78 -70l-19 40l126 106h34z" />
<glyph horiz-adv-x="402" d="M-8 0l6 39l216 241q64 72 93.5 118.5t29.5 88.5q0 41 -22 59.5t-62 18.5t-74.5 -24.5t-62.5 -84.5l-38 19q33 74 80.5 105t106.5 31q62 0 93 -30.5t31 -84.5q0 -26 -8 -51.5t-24.5 -54t-42 -61t-61.5 -71.5l-193 -212h276l-7 -46h-337z" />
<glyph horiz-adv-x="423" d="M-10 33l45 19q7 -61 36.5 -90.5t77.5 -29.5q38 0 68 14.5t50.5 41t31 62.5t10.5 79q0 53 -24 83.5t-78 30.5h-56l7 48h54q31 0 56 14t42 38t26.5 55.5t9.5 65.5q0 49 -24 75.5t-72 26.5q-49 0 -85 -25.5t-62 -85.5l-41 21q30 68 78.5 101.5t119.5 33.5q69 0 104 -37 t35 -103q0 -31 -7.5 -62t-22.5 -58t-37 -48.5t-50 -33.5q36 -13 57 -45.5t21 -89.5q0 -53 -14.5 -98t-42 -77.5t-68 -51t-92.5 -18.5q-60 0 -102 34t-51 110z" />
<glyph horiz-adv-x="454" d="M7 91l5 37l242 472h51l-240 -464h224l54 344h51l-55 -344h78l-7 -45h-78l-30 -191h-51l31 191h-275z" />
<glyph horiz-adv-x="427" d="M166 553l-60 -266q26 25 57.5 38t72.5 13q60 0 97 -38t37 -125q0 -59 -15 -111t-44 -91t-71 -61.5t-96 -22.5q-66 0 -108 35t-50 107l45 18q7 -60 38.5 -88.5t80.5 -28.5q40 0 71 19t52.5 51.5t32.5 75.5t11 92q0 122 -102 122q-43 0 -75 -18.5t-61 -48.5l-33 15l84 360 h286l-7 -47h-243z" />
<glyph horiz-adv-x="449" d="M407 267q0 -59 -13.5 -109.5t-39.5 -88t-64 -59t-87 -21.5q-71 0 -113.5 52t-42.5 171q0 29 3 61.5t8 69.5q29 193 93.5 280.5t159.5 87.5q122 0 143 -127l-43 -20q-11 54 -36.5 78t-68.5 24q-79 0 -125.5 -82.5t-71.5 -242.5q-2 -14 -4.5 -30t-3.5 -32q17 70 63 114 t109 44t98.5 -44.5t35.5 -125.5zM355 259q0 61 -23 97t-73 36q-35 0 -63.5 -17.5t-49.5 -47.5t-32.5 -69t-11.5 -82q0 -29 6 -54.5t18.5 -45t32 -31t45.5 -11.5q33 0 60.5 15.5t48 45t31.5 71t11 93.5z" />
<glyph horiz-adv-x="356" d="M53 -100q13 84 38.5 174.5t61.5 177.5t82.5 165t102.5 137l-271 -1l7 47h328l-8 -50q-47 -36 -91 -101.5t-82.5 -151t-68 -187.5t-46.5 -210h-53z" />
<glyph horiz-adv-x="443" d="M389 227q0 -53 -15.5 -96.5t-43.5 -75t-66.5 -49t-83.5 -17.5q-72 0 -111 43.5t-39 117.5q0 44 10.5 81t29 66t44 48.5t55.5 28.5q-30 16 -48 49t-18 79q0 42 12.5 80t36 66.5t58 45.5t79.5 17q63 0 98.5 -38t35.5 -104q0 -77 -35 -127t-83 -70q37 -14 60.5 -51t23.5 -94 zM152 502q0 -48 23 -77.5t66 -29.5q27 0 51 12.5t42 35t28.5 53.5t10.5 67q0 47 -22.5 75t-66.5 28q-31 0 -55.5 -12.5t-41.5 -35t-26 -52.5t-9 -64zM81 155q0 -54 26.5 -87.5t77.5 -33.5q33 0 61 14t48 39.5t31.5 60t11.5 76.5q0 54 -26.5 89t-77.5 35q-33 0 -61 -14.5 t-48.5 -40t-31.5 -61t-11 -77.5z" />
<glyph horiz-adv-x="449" d="M254 566q-32 0 -60 -15t-48 -44t-31.5 -70.5t-11.5 -94.5q0 -62 24 -98t72 -36q35 0 64 18.5t49.5 49.5t32 70t11.5 80q0 28 -6 53.5t-18.5 44.5t-32 30.5t-45.5 11.5zM147 -111q-118 0 -142 127l43 20q11 -54 36 -78t67 -24q33 0 62.5 16t55 53.5t46 100t34.5 155.5 q5 29 8 62q-17 -71 -62.5 -114.5t-108.5 -43.5q-58 0 -96.5 43.5t-38.5 127.5q0 57 14 107.5t40.5 88t65 59t88.5 21.5q35 0 63.5 -12t48.5 -38.5t30.5 -68t10.5 -99.5t-12 -134q-14 -97 -37.5 -166.5t-55.5 -114.5t-72.5 -66.5t-87.5 -21.5z" />
<glyph horiz-adv-x="310" d="M0 0zM155 216q49 0 73.5 -30t24.5 -97q0 -19 -2 -39.5t-5 -45.5q-17 -113 -54.5 -162t-99.5 -49q-49 0 -73.5 30.5t-24.5 97.5q0 19 1.5 39.5t5.5 43.5q17 113 54.5 162.5t99.5 49.5zM152 180q-39 0 -66 -39t-43 -136q-4 -26 -5.5 -47t-1.5 -38q0 -51 15.5 -71t44.5 -20 q19 0 35.5 9t30 29t24 53.5t18.5 83.5q4 26 6 47t2 38q0 50 -15.5 70.5t-44.5 20.5z" />
<glyph horiz-adv-x="160" d="M0 0zM42 -200h-42l55 351l-46 -39l-12 34l81 64h29z" />
<glyph horiz-adv-x="259" d="M0 0zM-39 -200l5 33l141 169q35 42 50.5 71.5t15.5 55.5q0 49 -52 49q-26 0 -47.5 -14.5t-40.5 -51.5l-30 15q23 50 55 69.5t71 19.5q44 0 65.5 -22t21.5 -59q0 -17 -4 -32.5t-13 -33.5t-24.5 -39.5t-38.5 -49.5l-120 -143l168 1l-6 -38h-217z" />
<glyph horiz-adv-x="271" d="M0 0zM-33 -121l35 14q9 -65 65 -65q43 0 66 30t23 76q0 28 -14 44.5t-44 16.5h-32l5 36h32q35 0 54.5 28.5t19.5 64.5q0 56 -52 56q-28 0 -49 -14.5t-35 -46.5l-32 15q36 82 125 82q43 0 64.5 -23t21.5 -61q0 -35 -17.5 -68.5t-51.5 -48.5q21 -9 33 -28t12 -51 q0 -62 -34 -102.5t-97 -40.5q-38 0 -65 20t-33 66z" />
<glyph horiz-adv-x="294" d="M0 0zM-26 -93l5 31l143 271h41l-141 -265h126l29 184h41l-29 -184h45l-6 -37h-45l-18 -107h-40l17 107h-168z" />
<glyph horiz-adv-x="276" d="M0 0zM80 172l-33 -143q32 29 78 29q37 0 60 -23t23 -74q0 -35 -9.5 -65.5t-27 -53.5t-43 -36t-58.5 -13q-42 0 -68.5 20.5t-32.5 63.5l35 16q5 -34 23 -49.5t45 -15.5q22 0 39.5 10.5t29.5 28t18.5 40.5t6.5 49q0 67 -59 67q-23 0 -42.5 -10t-35.5 -27l-27 12l49 211h183 l-6 -37h-148z" />
<glyph horiz-adv-x="293" d="M0 0zM251 141l-33 -16q-10 55 -59 55q-47 0 -74.5 -45t-41.5 -135q-1 -7 -2 -16.5t-2 -17.5q11 41 38 65.5t65 24.5q37 0 59 -26t22 -74q0 -33 -8 -63t-24 -52t-39.5 -35t-54.5 -13q-46 0 -73.5 31t-27.5 103q0 32 6 73q17 112 57 164t100 52q40 0 63 -18t29 -57zM125 22 q-19 0 -34.5 -10t-27 -26.5t-18 -37.5t-6.5 -43q0 -32 14 -54.5t46 -22.5q20 0 35.5 9.5t26 26t16 38t5.5 46.5q0 74 -57 74z" />
<glyph horiz-adv-x="236" d="M6 0zM6 -200q9 55 26 109.5t39.5 103.5t49.5 90t56 69l-165 -2l7 39h209l-6 -35q-30 -25 -57 -64t-49 -87.5t-38.5 -105t-25.5 -117.5h-46z" />
<glyph horiz-adv-x="292" d="M0 0zM213 -67q0 -63 -35 -101.5t-95 -38.5q-46 0 -71 26t-25 70q0 51 24 85t59 45q-40 19 -40 75q0 24 7.5 46.5t22.5 39t36.5 26.5t50.5 10q41 0 63.5 -22t22.5 -62q0 -42 -19 -71.5t-49 -43.5q22 -9 35 -30.5t13 -53.5zM194 123q0 26 -13 42t-39 16q-35 0 -54.5 -26.5 t-19.5 -61.5q0 -26 13 -42t39 -16q30 0 52 24t22 64zM173 -70q0 29 -15.5 48.5t-44.5 19.5q-38 0 -61.5 -29.5t-23.5 -73.5q0 -30 15 -48.5t45 -18.5q35 0 60 28.5t25 73.5z" />
<glyph horiz-adv-x="292" d="M0 0zM101 -14q21 0 37 10t27.5 26.5t17.5 38t6 43.5q0 31 -14 54t-43 23q-38 0 -61 -33.5t-23 -89.5q0 -33 13.5 -52.5t39.5 -19.5zM71 -207q-39 0 -62.5 17t-31.5 55l33 20q6 -30 21 -43.5t39 -13.5q48 0 75.5 46t41.5 134q1 7 2 16.5t1 17.5q-10 -41 -37 -66t-65 -25 t-59.5 26t-21.5 75q0 34 8 63.5t24 52t40 35.5t56 13q45 0 72 -31t27 -101q0 -18 -2 -37t-5 -41q-17 -109 -57 -161t-99 -52z" />
<glyph horiz-adv-x="236" d="M0 0zM75 -136h-34l16 99h-71l5 32h71l16 103h34l-17 -103h70l-5 -32h-70z" />
<glyph horiz-adv-x="236" d="M0 -4zM166 -4l-6 -35h-174l6 35h174z" />
<glyph horiz-adv-x="236" d="M0 0zM172 36l-6 -36h-174l6 36h174zM159 -40l-5 -36h-173l5 36h173z" />
<glyph horiz-adv-x="163" d="M0 0zM67 -218l-16 -35q-74 15 -74 141q0 21 2 45t6 50q35 217 140 238l6 -35q-39 -11 -66 -58t-43 -145q-5 -26 -6.5 -48t-1.5 -41q0 -51 13.5 -77.5t39.5 -34.5z" />
<glyph horiz-adv-x="163" d="M0 0zM15 186l17 35q73 -15 73 -141q0 -21 -2 -45t-6 -51q-35 -215 -141 -237l-5 35q39 11 66.5 58t43.5 144q4 27 6 49.5t2 41.5q0 51 -14 77t-40 34z" />
<glyph horiz-adv-x="195" d="M118 615q0 22 11 35.5t33 13.5q34 0 34 -35q0 -23 -12.5 -36t-32.5 -13q-16 0 -24.5 9.5t-8.5 25.5zM110 482h52l-76 -482h-52z" />
<glyph horiz-adv-x="386" d="M32 0zM32 0l111 700h52l-111 -700h-52zM273 0l-142 233l1 6l208 243h59l-211 -241l145 -241h-60zM119 -248l-13 20q21 14 37.5 36t19.5 49q-15 -5 -26 3.5t-11 26.5q1 18 11.5 31t30.5 13q32 0 32 -37q0 -22 -6.5 -44t-17 -41t-25.5 -34t-32 -23z" />
<glyph horiz-adv-x="539" d="M60 0zM246 -11q-90 0 -138 55.5t-48 177.5q0 29 3.5 61.5t8.5 67.5q15 98 39.5 166.5t60 111.5t80.5 62.5t101 19.5q75 0 117.5 -37t53.5 -128l-51 -17q-5 40 -15.5 66t-26.5 41.5t-37.5 21.5t-47.5 6q-39 0 -73.5 -15t-62.5 -51.5t-49.5 -97t-35.5 -150.5 q-12 -77 -12 -131q0 -52 9.5 -87.5t27 -57t42.5 -31t57 -9.5q35 0 65.5 13.5t55.5 43.5t43.5 77.5t28.5 115.5h-146l7 45h197l-6 -43q-45 -297 -248 -297zM444 896h36q-10 -64 -39 -88t-77 -24q-47 0 -70 24.5t-13 87.5h37q-7 -43 5.5 -59t43.5 -16q32 0 50.5 16t26.5 59z " />
<glyph horiz-adv-x="539" d="M60 0zM246 -11q-90 0 -138 55.5t-48 177.5q0 29 3.5 61.5t8.5 67.5q15 98 39.5 166.5t60 111.5t80.5 62.5t101 19.5q75 0 117.5 -37t53.5 -128l-51 -17q-5 40 -15.5 66t-26.5 41.5t-37.5 21.5t-47.5 6q-39 0 -73.5 -15t-62.5 -51.5t-49.5 -97t-35.5 -150.5 q-12 -77 -12 -131q0 -52 9.5 -87.5t27 -57t42.5 -31t57 -9.5q35 0 65.5 13.5t55.5 43.5t43.5 77.5t28.5 115.5h-146l7 45h197l-6 -43q-45 -297 -248 -297zM357 897h45l71 -109v-2h-50l-47 79l-72 -79h-53v2z" />
<glyph horiz-adv-x="539" d="M60 0zM246 -11q-90 0 -138 55.5t-48 177.5q0 29 3.5 61.5t8.5 67.5q15 98 39.5 166.5t60 111.5t80.5 62.5t101 19.5q75 0 117.5 -37t53.5 -128l-51 -17q-5 40 -15.5 66t-26.5 41.5t-37.5 21.5t-47.5 6q-39 0 -73.5 -15t-62.5 -51.5t-49.5 -97t-35.5 -150.5 q-12 -77 -12 -131q0 -52 9.5 -87.5t27 -57t42.5 -31t57 -9.5q35 0 65.5 13.5t55.5 43.5t43.5 77.5t28.5 115.5h-146l7 45h197l-6 -43q-45 -297 -248 -297zM184 -248l-13 20q21 14 37.5 36t19.5 49q-15 -5 -26 3.5t-11 26.5q1 18 11.5 31t30.5 13q32 0 32 -37q0 -22 -6.5 -44 t-17 -41t-25.5 -34t-32 -23z" />
<glyph horiz-adv-x="539" d="M60 0zM246 -11q-90 0 -138 55.5t-48 177.5q0 29 3.5 61.5t8.5 67.5q15 98 39.5 166.5t60 111.5t80.5 62.5t101 19.5q75 0 117.5 -37t53.5 -128l-51 -17q-5 40 -15.5 66t-26.5 41.5t-37.5 21.5t-47.5 6q-39 0 -73.5 -15t-62.5 -51.5t-49.5 -97t-35.5 -150.5 q-12 -77 -12 -131q0 -52 9.5 -87.5t27 -57t42.5 -31t57 -9.5q35 0 65.5 13.5t55.5 43.5t43.5 77.5t28.5 115.5h-146l7 45h197l-6 -43q-45 -297 -248 -297zM335 832q0 23 11 36t31 13q33 0 33 -35q0 -23 -11.5 -35.5t-31.5 -12.5q-32 0 -32 34z" />
<glyph horiz-adv-x="467" d="M43 0zM362 0l-194 342l1 4l289 354h62l-293 -354l197 -346h-62zM43 0l111 700h53l-111 -700h-53zM164 -248l-13 20q21 14 37.5 36t19.5 49q-15 -5 -26 3.5t-11 26.5q1 18 11.5 31t30.5 13q32 0 32 -37q0 -22 -6.5 -44t-17 -41t-25.5 -34t-32 -23z" />
<glyph horiz-adv-x="315" d="M295 378l-7 -46h-237l7 46h237z" />
<glyph horiz-adv-x="435" d="M417 378l-7 -46h-359l7 46h359z" />
<glyph horiz-adv-x="582" d="M564 379l-8 -46h-505l7 46h506z" />
<glyph horiz-adv-x="435" d="M417 378l-7 -46h-359l7 46h359z" />
<glyph horiz-adv-x="195" d="M195 700l-111 -700h-51l111 700h51z" />
<glyph horiz-adv-x="449" d="M282 439h-111l-68 -439h-52l69 439h-68l7 43h68l15 83q11 79 48 113.5t85 34.5q16 0 33 -4t30 -15l-23 -44q-20 14 -44 14q-29 0 -50 -22.5t-30 -79.5l-12 -80h111zM454 700l-111 -700h-51l111 700h51z" />
<glyph horiz-adv-x="449" d="M0 0z" />
</font>
</defs>
</svg>
