<?xml version="1.0" standalone="no"?>
<!DOCTYPE svg PUBLIC "-//W3C//DTD SVG 1.1//EN" "http://www.w3.org/Graphics/SVG/1.1/DTD/svg11.dtd" >
<svg xmlns="http://www.w3.org/2000/svg" xmlns:xlink="http://www.w3.org/1999/xlink" version="1.1">
<metadata></metadata>
<defs>
<font id="honeywell_sans_webLtIt" horiz-adv-x="625" >
<font-face units-per-em="1000" ascent="774" descent="-226" />
<missing-glyph horiz-adv-x="220" />
<glyph unicode="fi" horiz-adv-x="575" d="M87 0l71 453h-96l5 25h95l14 87q12 77 48 110t95 33q20 0 39.5 -3.5t37.5 -13.5l-9 -26q-16 8 -30.5 11.5t-36.5 3.5q-48 0 -76.5 -26.5t-39.5 -93.5l-13 -82h165l-4 -25h-164l-72 -453h-29zM507 580q-28 0 -28 26q0 17 10 25.5t24 8.5q28 0 28 -26q0 -16 -10 -25t-24 -9 zM475 478h30l-75 -478h-30z" />
<glyph unicode="fl" horiz-adv-x="571" d="M87 0l71 453h-96l5 25h95l14 87q12 77 48 110t95 33q20 0 39.5 -3.5t37.5 -13.5l-9 -26q-16 8 -30.5 11.5t-36.5 3.5q-48 0 -76.5 -26.5t-39.5 -93.5l-13 -82h165l-4 -25h-164l-72 -453h-29zM477 0q-42 0 -61.5 22t-11.5 70l96 608h31l-95 -603q-7 -44 7.5 -57t43.5 -13 h43l-4 -27h-49z" />
<glyph horiz-adv-x="176" />
<glyph horiz-adv-x="176" />
<glyph unicode="&#xd;" horiz-adv-x="176" />
<glyph unicode=" "  horiz-adv-x="220" />
<glyph unicode="&#x09;" horiz-adv-x="220" />
<glyph unicode="&#xa0;" horiz-adv-x="220" />
<glyph unicode="!" horiz-adv-x="193" d="M181 700l-88 -529h-27l77 529h38zM52 -6q-27 0 -27 26q0 16 10 25t24 9q27 0 27 -27q0 -16 -9.5 -24.5t-24.5 -8.5z" />
<glyph unicode="&#x22;" horiz-adv-x="237" d="M204 547h-27l25 163h32zM119 547h-27l22 163h33z" />
<glyph unicode="#" horiz-adv-x="702" d="M299 453l-97 -205h222l97 205h-222zM144 453l11 25h122l106 222h32l-105 -222h222l105 222h33l-105 -222h116l-12 -25h-115l-97 -205h123l-11 -25h-124l-105 -223h-32l104 223h-222l-105 -223h-33l105 223h-114l12 25h114l97 205h-122z" />
<glyph unicode="$" horiz-adv-x="564" d="M137 502q0 -51 35 -82t112 -49l45 282q-92 -2 -142 -41.5t-50 -109.5zM305 336l-47 -296q100 2 151.5 46t51.5 122q0 22 -7.5 40.5t-25.5 34t-48 29t-75 24.5zM216 -62l12 75q-77 2 -127.5 31t-79.5 91l25 17q29 -57 72 -83.5t114 -28.5l47 302q-91 22 -131.5 60 t-40.5 96q0 79 55.5 129.5t170.5 52.5l14 86h26l-14 -87q71 -3 111.5 -28.5t63.5 -71.5l-27 -16q-20 42 -55 64t-96 25l-47 -288q51 -13 86 -27.5t56.5 -33t31 -41t9.5 -50.5q0 -99 -65 -148t-173 -51l-12 -75h-26z" />
<glyph unicode="%" horiz-adv-x="1000" d="M68 0zM791 414q63 0 95.5 -32.5t32.5 -107.5q0 -15 -1 -32.5t-4 -37.5q-18 -113 -64 -162t-122 -49q-63 0 -95.5 33t-32.5 108q0 14 1.5 33t3.5 37q9 58 25.5 98t40 65t53.5 36t67 11zM789 391q-29 0 -53.5 -9.5t-44.5 -31t-34.5 -57.5t-23.5 -89q-6 -39 -6 -70 q0 -65 27 -91t76 -26q30 0 55 9.5t44.5 31t34 57.5t22.5 89q6 37 6 69q0 66 -27 92t-76 26zM259 707q63 0 95.5 -32.5t32.5 -107.5q0 -15 -1 -32.5t-4 -37.5q-18 -113 -64 -162t-122 -49q-63 0 -95.5 33t-32.5 108q0 14 1.5 33t3.5 37q9 58 25.5 98t40 65t53.5 36t67 11z M257 684q-29 0 -53.5 -9.5t-44.5 -31t-34.5 -57.5t-23.5 -89q-6 -39 -6 -70q0 -65 27 -91t76 -26q30 0 55 9.5t44.5 31t34 57.5t22.5 89q6 37 6 69q0 66 -27 92t-76 26zM722 700l-437 -700h-29l438 700h28z" />
<glyph unicode="&#x26;" horiz-adv-x="680" d="M610 472h29q-20 -123 -56.5 -211.5t-87.5 -147.5q29 -24 60.5 -49.5t67.5 -51.5l-19 -22q-36 26 -68.5 51t-61.5 50q-51 -52 -112 -76.5t-128 -24.5q-44 0 -82 9.5t-66 30t-44.5 51.5t-16.5 75q0 39 13.5 71t38 59t58 50t74.5 44q-29 51 -39 90.5t-10 71.5 q0 37 11.5 67.5t34 53t56.5 35t80 12.5q65 0 100 -28.5t35 -83.5q0 -42 -18.5 -74t-50 -58.5t-73 -48.5t-86.5 -45q32 -49 86 -108.5t139 -133.5q48 56 83 140.5t53 201.5zM190 542q0 -29 9.5 -65t36.5 -84q51 26 90.5 48t66 44.5t40.5 48t14 58.5q0 44 -27.5 68t-81.5 24 q-75 0 -111.5 -39.5t-36.5 -102.5zM237 16q60 0 114.5 22.5t101.5 69.5q-87 74 -142.5 136.5t-87.5 113.5q-80 -41 -123.5 -86.5t-43.5 -111.5q0 -39 14.5 -66.5t39.5 -44.5t58 -25t69 -8z" />
<glyph unicode="'" horiz-adv-x="150" d="M120 547h-28l23 163h32z" />
<glyph unicode="(" horiz-adv-x="337" d="M212 -70q-73 14 -111.5 80.5t-38.5 180.5q0 29 3 62.5t8 68.5q13 85 37 153.5t58 119t76 80.5t91 39v-24q-85 -18 -145.5 -110.5t-86.5 -257.5q-6 -35 -9 -69.5t-3 -62.5q0 -104 33 -163.5t94 -72.5z" />
<glyph unicode=")" horiz-adv-x="337" d="M133 714q73 -14 111.5 -80.5t38.5 -180.5q0 -29 -3 -62.5t-8 -68.5q-13 -85 -37 -153.5t-58 -119t-76 -80.5t-91 -39v24q85 18 145.5 110.5t86.5 257.5q6 35 9 69.5t3 62.5q0 104 -33 163.5t-94 72.5z" />
<glyph unicode="*" horiz-adv-x="413" d="M115 373l-19 17l117 130l-134 44l12 26l132 -47l22 167h31l-30 -167l148 47l4 -26l-148 -44l77 -130l-25 -16l-72 132z" />
<glyph unicode="+" horiz-adv-x="486" d="M227 112h-27l28 180h-176l4 26h176l31 188h27l-30 -188h175l-4 -26h-175z" />
<glyph unicode="," horiz-adv-x="194" d="M27 -110l-5 15q24 11 39.5 36t20.5 55q-14 -7 -26 1t-12 22q0 17 9.5 25.5t23.5 8.5q13 0 20.5 -7.5t7.5 -25.5q0 -19 -5 -39t-14.5 -38t-24.5 -32t-34 -21z" />
<glyph unicode="-" horiz-adv-x="392" d="M340 256l-4 -26h-294l4 26h294z" />
<glyph unicode="." horiz-adv-x="194" d="M71 -6q-27 0 -27 26q0 16 9.5 25t24.5 9q27 0 27 -27q0 -16 -9.5 -24.5t-24.5 -8.5z" />
<glyph unicode="/" horiz-adv-x="444" d="M497 701l-493 -701h-34l493 701h34z" />
<glyph unicode="0" d="M60 350q15 99 42.5 167.5t67 111t90 62t112.5 19.5q52 0 92 -13t67.5 -41.5t41.5 -73.5t14 -109q0 -28 -2.5 -58t-7.5 -65q-15 -98 -42.5 -166.5t-67 -111.5t-90.5 -62.5t-113 -19.5q-51 0 -91 13t-67.5 41.5t-41.5 73.5t-14 109q0 27 2.5 58t7.5 65zM556 471 q0 58 -12.5 98.5t-36.5 66t-58.5 36.5t-77.5 11q-53 0 -98 -17t-80 -56t-60.5 -102.5t-40.5 -157.5q-5 -35 -8 -65t-3 -57q0 -59 12.5 -99t36.5 -65t58 -36t78 -11q53 0 98 17t80 56t60.5 102.5t40.5 157.5q5 34 8 64.5t3 56.5z" />
<glyph unicode="1" d="M73 28h184l100 631l-117 -89l-11 24l145 106h20l-107 -672h197l-4 -28h-411z" />
<glyph unicode="2" d="M32 0l5 29l320 280q53 46 86.5 82t53 66.5t27 57t7.5 53.5q0 56 -39 85.5t-115 29.5q-81 0 -133.5 -32.5t-94.5 -94.5l-21 17q23 33 48 59t55 43t66 26t81 9q96 0 140.5 -37.5t44.5 -99.5q0 -31 -9 -61.5t-30.5 -64t-57.5 -72.5t-91 -86l-298 -262h442l-4 -27h-483z" />
<glyph unicode="3" d="M251 -10q-81 0 -132 29t-78 91l26 16q24 -57 69.5 -83t118.5 -26q60 0 105.5 15.5t76 43t46 65.5t15.5 83q0 28 -7.5 52t-24.5 41.5t-46 27.5t-71 10h-107l4 27h106q34 0 66 13t57 36t40 56t15 74q0 122 -161 122q-73 0 -122.5 -26.5t-91.5 -84.5l-21 18q44 61 100 90.5 t140 29.5q95 0 141 -37.5t46 -107.5q0 -35 -11 -66t-30.5 -56.5t-45.5 -44t-57 -28.5q34 -8 55.5 -22.5t34 -33t17.5 -40.5t5 -46q0 -54 -19 -98t-55 -75t-87.5 -48t-116.5 -17z" />
<glyph unicode="4" d="M29 195l4 25l325 480h33l-325 -477h361l57 362h31l-58 -362h119l-4 -28h-120l-30 -195h-30l30 195h-393z" />
<glyph unicode="5" d="M219 673l-82 -302q51 35 101.5 48.5t102.5 13.5q91 0 145 -40.5t54 -128.5q0 -56 -19.5 -106t-56.5 -87.5t-90.5 -59t-121.5 -21.5q-71 0 -128 29t-83 93l25 16q21 -51 67 -81.5t122 -30.5q64 0 111.5 20.5t79 54.5t47 78t15.5 90q0 148 -176 148q-65 0 -113.5 -19.5 t-97.5 -56.5l-20 9l97 360h379l-4 -27h-354z" />
<glyph unicode="6" d="M283 -10q-50 0 -90.5 14t-69 44t-44.5 76.5t-16 111.5q0 24 1.5 50t6.5 55q15 96 45 166t72 115t95 66.5t113 21.5q69 0 117 -26t68 -82l-27 -16q-19 54 -63.5 75.5t-98.5 21.5q-112 0 -187 -84.5t-103 -258.5q-6 -37 -8 -84q12 41 36 74t57 56.5t73.5 36t86.5 12.5 q45 0 81.5 -11.5t62.5 -34.5t40 -56.5t14 -76.5q0 -60 -18.5 -109t-53 -84t-82.5 -54t-108 -19zM343 408q-65 0 -111 -23.5t-74.5 -58.5t-41.5 -75t-13 -73q0 -30 10.5 -59t32 -52t55.5 -37t82 -14t90 15.5t73 45.5t49 74.5t18 101.5q0 71 -43.5 113t-126.5 42z" />
<glyph unicode="7" d="M157 0q15 90 49 186.5t83.5 187.5t113 169t136.5 130h-398l5 27h443l-4 -27q-71 -41 -135.5 -114t-117 -164t-90 -193.5t-54.5 -201.5h-31z" />
<glyph unicode="8" d="M260 -10q-102 0 -154.5 43t-52.5 120q0 47 15 85.5t41.5 66.5t63.5 46t81 25q-56 11 -87 44.5t-31 87.5q0 49 16.5 86.5t47.5 63t74.5 39t96.5 13.5q91 0 138.5 -35.5t47.5 -101.5q0 -42 -13 -75.5t-35.5 -58.5t-53.5 -41t-68 -23q66 -11 104 -49.5t38 -101.5 q0 -54 -19.5 -97.5t-54.5 -73.5t-85 -46.5t-110 -16.5zM323 390q40 0 76.5 11t64.5 33.5t45 56t17 78.5q0 55 -39 85t-118 30q-97 0 -150 -46.5t-53 -128.5q0 -56 39.5 -87.5t117.5 -31.5zM263 17q48 0 91 13t75 39t51 64.5t19 89.5q0 64 -45.5 101.5t-135.5 37.5 q-54 0 -97.5 -15t-74 -42t-46.5 -65t-16 -84q0 -65 44 -102t135 -37z" />
<glyph unicode="9" d="M288 292q65 0 111 23.5t74.5 58.5t41.5 75t13 73q0 30 -10.5 59t-32 52t-55.5 37t-82 14t-90 -15.5t-73 -45.5t-49 -74.5t-18 -101.5q0 -71 43.5 -113t126.5 -42zM348 710q49 0 90 -14t69.5 -44t44.5 -76.5t16 -111.5q0 -24 -1.5 -50t-6.5 -55q-15 -96 -45 -166t-72 -115 t-95 -66.5t-113 -21.5q-69 0 -117 26t-68 82l27 16q19 -54 63.5 -75.5t98.5 -21.5q112 0 187 84.5t103 258.5q2 17 4 38.5t3 44.5q-12 -41 -36 -73.5t-57 -56t-73.5 -36t-85.5 -12.5t-81.5 11.5t-62.5 34.5t-40 56t-14 77q0 60 18.5 109t53 84t82.5 54t108 19z" />
<glyph unicode=":" horiz-adv-x="194" d="M43 0zM70 -6q-27 0 -27 26q0 16 9.5 25t24.5 9q27 0 27 -27q0 -16 -9.5 -24.5t-24.5 -8.5zM133 389q-27 0 -27 26q0 16 9.5 25t24.5 9q27 0 27 -27q0 -16 -9.5 -24.5t-24.5 -8.5z" />
<glyph unicode=";" horiz-adv-x="194" d="M23 0zM28 -110l-5 15q24 11 39.5 36t20.5 55q-14 -7 -26 1t-12 22q0 17 9.5 25.5t23.5 8.5q13 0 20.5 -7.5t7.5 -25.5q0 -19 -5 -39t-14.5 -38t-24.5 -32t-34 -21zM136 389q-27 0 -27 26q0 16 9.5 25t24.5 9q27 0 27 -27q0 -16 -9.5 -24.5t-24.5 -8.5z" />
<glyph unicode="&#x3c;" horiz-adv-x="434" d="M372 474l-252 -164l198 -162l-18 -21l-216 176l3 15l272 177z" />
<glyph unicode="=" horiz-adv-x="485" d="M444 377l-4 -26h-379l4 26h379zM427 267l-4 -26h-380l5 26h379z" />
<glyph unicode="&#x3e;" horiz-adv-x="434" d="M92 127l-13 21l251 164l-197 162l18 21l216 -176l-3 -15z" />
<glyph unicode="?" horiz-adv-x="486" d="M500 537q0 -59 -19.5 -106t-54 -80t-82.5 -51.5t-106 -19.5l-18 -109h-30l20 130h19q54 0 98 16.5t75.5 47t48.5 73.5t17 96q0 72 -47.5 110t-132.5 38q-75 0 -128.5 -28t-95.5 -96l-21 15q45 74 104.5 105.5t144.5 31.5q98 0 153 -45.5t55 -127.5zM178 -6q-27 0 -27 26 q0 16 9.5 24.5t24.5 8.5q27 0 27 -26q0 -16 -9.5 -24.5t-24.5 -8.5z" />
<glyph unicode="@" horiz-adv-x="801" d="M625 4q-51 -47 -117 -72.5t-148 -25.5q-70 0 -124 19t-91 54t-56 84.5t-19 111.5q0 88 29 162t80.5 127.5t123.5 83t159 29.5q133 0 203 -66t70 -178q0 -54 -12 -98.5t-33.5 -76.5t-52.5 -50t-69 -18q-37 0 -55.5 20t-16.5 60q-26 -47 -65 -68.5t-89 -21.5q-45 0 -70 20 t-25 59q0 61 44 90t119 29h101q2 12 3 22t1 19q0 45 -24 62.5t-67 17.5q-45 0 -71.5 -13t-47.5 -37l-11 15q46 56 134 56q53 0 82 -22t29 -76q0 -21 -4 -41l-15 -88q-2 -8 -2.5 -16t-0.5 -14q0 -29 14 -41.5t43 -12.5q31 0 57 16t45 45.5t29.5 71t10.5 91.5 q0 107 -66.5 166.5t-187.5 59.5q-81 0 -149 -27t-118 -77.5t-78 -121.5t-28 -158q0 -119 70.5 -185t201.5 -66q78 0 141.5 24t111.5 69zM350 100q63 0 104.5 44t53.5 116h-98q-66 0 -102.5 -23.5t-36.5 -76.5q0 -60 79 -60z" />
<glyph unicode="A" horiz-adv-x="581" d="M357 667l-244 -469h341zM495 0l-36 171h-360l-89 -171h-34l366 700h39l145 -700h-31z" />
<glyph unicode="B" horiz-adv-x="646" d="M72 0l111 700h262q87 0 125.5 -39t38.5 -101q0 -37 -10.5 -70t-29.5 -59t-45.5 -44.5t-58.5 -26.5q31 -5 52.5 -17.5t35 -30.5t19.5 -40t6 -45q0 -114 -66.5 -170.5t-189.5 -56.5h-250zM442 673h-232l-48 -300h245q40 0 72 15.5t53.5 40.5t33 57.5t11.5 67.5 q0 60 -35.5 89.5t-99.5 29.5zM405 345h-247l-51 -318h221q49 0 89.5 11.5t69 35.5t44 61.5t15.5 90.5q0 55 -34.5 87t-106.5 32z" />
<glyph unicode="C" horiz-adv-x="678" d="M329 -10q-59 0 -105.5 14t-78.5 44t-48.5 78t-16.5 116q0 26 2 54t7 54q15 97 45.5 165.5t74.5 112t101 63t126 19.5q87 0 143 -33t82 -108l-28 -14q-23 71 -74 99.5t-126 28.5q-59 0 -109.5 -16.5t-90.5 -55.5t-69 -102.5t-44 -157.5q-9 -60 -9 -108q0 -63 15.5 -106 t44 -69.5t69.5 -38.5t92 -12q75 0 138 26.5t109 92.5l21 -18q-49 -71 -118 -99.5t-153 -28.5z" />
<glyph unicode="D" horiz-adv-x="717" d="M312 0h-240l111 700h239q57 0 101 -13t74.5 -41.5t46.5 -74t16 -109.5q0 -22 -2 -49t-7 -56q-15 -96 -45 -164t-73 -110.5t-99 -62.5t-122 -20zM107 27h206q57 0 106 17t89 56t68 102t43 155q9 54 9 100q0 60 -14.5 101t-42 66.5t-66 37t-86.5 11.5h-210z" />
<glyph unicode="E" horiz-adv-x="632" d="M72 0l111 700h467l-5 -27h-435l-49 -307h382l-4 -28h-382l-50 -311h446l-4 -27h-477z" />
<glyph unicode="F" horiz-adv-x="591" d="M72 0l111 700h455l-5 -27h-424l-49 -316h380l-5 -27h-380l-52 -330h-31z" />
<glyph unicode="G" horiz-adv-x="700" d="M323 -10q-115 0 -179 59t-64 193q0 25 2.5 54.5t6.5 54.5q15 97 45 165.5t74 111.5t101.5 62.5t127.5 19.5q85 0 140 -31.5t79 -102.5l-28 -16q-22 67 -71.5 95t-123.5 28q-59 0 -110 -16.5t-91 -55.5t-68.5 -103t-43.5 -158q-9 -59 -9 -106q0 -63 15.5 -106t44 -70 t68.5 -39t90 -12q49 0 93 13.5t80 45t62 83t40 127.5h-218l4 26h247l-50 -312h-25l23 156q-35 -84 -101.5 -125t-160.5 -41z" />
<glyph unicode="H" horiz-adv-x="757" d="M565 0l54 338h-462l-54 -338h-31l111 700h31l-53 -334h462l53 334h31l-111 -700h-31z" />
<glyph unicode="I" horiz-adv-x="264" d="M72 0l111 700h31l-111 -700h-31z" />
<glyph unicode="J" horiz-adv-x="485" d="M-11 30l18 26q43 -39 115 -39q44 0 82.5 13.5t68.5 42t51 74t31 110.5l70 443h31l-70 -443q-12 -74 -36 -125t-58.5 -82.5t-78.5 -45.5t-96 -14q-79 0 -128 40z" />
<glyph unicode="K" horiz-adv-x="601" d="M72 0l111 700h31l-70 -441l451 441h39l-322 -315l233 -385h-37l-220 362l-151 -146l-34 -216h-31z" />
<glyph unicode="L" horiz-adv-x="594" d="M108 27h424l-4 -27h-456l111 700h31z" />
<glyph unicode="M" horiz-adv-x="909" d="M398 0l-194 651l-102 -651h-30l111 700h36l197 -662l406 662h37l-111 -700h-31l104 649l-398 -649h-25z" />
<glyph unicode="N" horiz-adv-x="750" d="M557 0l-352 658l-103 -658h-30l111 700h34l349 -655l103 655h31l-111 -700h-32z" />
<glyph unicode="O" horiz-adv-x="743" d="M89 350q15 98 45 166.5t74 111.5t101.5 62.5t127.5 19.5q60 0 106 -13.5t77.5 -43.5t48 -77t16.5 -114q0 -27 -2.5 -53.5t-7.5 -58.5q-15 -99 -45 -167.5t-74.5 -111.5t-101.5 -62t-126 -19q-59 0 -105.5 14t-78 44t-48 77t-16.5 114q0 49 9 111zM653 460q0 62 -15 104.5 t-43 69t-68.5 38t-92.5 11.5q-60 0 -111 -16.5t-90.5 -55t-68 -102.5t-43.5 -159q-5 -29 -7.5 -55t-2.5 -55q0 -62 15 -104.5t43 -68.5t69 -38t92 -12q60 0 111 16.5t90.5 55t68 102.5t43.5 160q5 29 7.5 54.5t2.5 54.5z" />
<glyph unicode="P" horiz-adv-x="651" d="M72 0l111 700h247q103 0 150 -39.5t47 -118.5q0 -56 -15 -105.5t-46.5 -87t-79.5 -59.5t-115 -22h-226l-42 -268h-31zM430 673h-221l-60 -377h229q46 0 86 15.5t69.5 46t46 75.5t16.5 104q0 72 -40.5 104t-125.5 32z" />
<glyph unicode="Q" horiz-adv-x="743" d="M437 710q60 0 106 -13.5t77.5 -43.5t48 -77t16.5 -114q0 -26 -2.5 -53t-7.5 -59q-21 -137 -70 -216t-124 -114l76 -112h-36l-69 100q-56 -18 -124 -18q-59 0 -105.5 14t-78 44t-48 77t-16.5 114q0 49 9 111q15 98 45 166.5t74 111.5t101.5 62.5t127.5 19.5zM434 683 q-61 0 -112 -16.5t-90.5 -55.5t-67.5 -103t-43 -158q-5 -31 -7.5 -58.5t-2.5 -51.5q0 -62 15 -104.5t43 -68.5t69 -38t92 -12q29 0 55.5 3.5t50.5 11.5l-80 119h36l73 -108q67 31 112.5 104t65.5 204q10 59 10 109q0 62 -15 104.5t-43 69t-68.5 38t-92.5 11.5z" />
<glyph unicode="R" horiz-adv-x="641" d="M396 288h-247l-46 -288h-31l111 700h247q104 0 151 -38t47 -114q0 -45 -11 -87t-34.5 -76t-59.5 -58t-85 -33l113 -294h-34l-111 289q-5 -1 -10 -1zM430 673h-220l-57 -357h228q46 0 85 14.5t68 43t45.5 71t16.5 99.5q0 68 -40.5 98.5t-125.5 30.5z" />
<glyph unicode="S" horiz-adv-x="591" d="M557 584l-28 -16q-12 28 -28.5 49.5t-40 36.5t-54.5 22.5t-73 7.5q-97 0 -151 -44t-54 -119q0 -55 38.5 -88.5t116.5 -53.5l58 -15q51 -13 85 -30.5t54 -39t28.5 -47t8.5 -55.5q0 -100 -67.5 -151t-184.5 -51q-95 0 -155 31.5t-92 102.5l27 16q16 -32 35 -55.5 t44.5 -38.5t59.5 -22t81 -7q110 0 165 45.5t55 126.5q0 25 -7 47t-24 40t-46 33t-73 26l-60 15q-86 21 -132 62t-46 108q0 85 61.5 137.5t178.5 52.5q46 0 81 -8.5t61 -24.5t45 -39.5t33 -53.5z" />
<glyph unicode="T" horiz-adv-x="548" d="M78 700h522l-5 -27h-245l-107 -673h-31l107 673h-246z" />
<glyph unicode="U" horiz-adv-x="720" d="M589 259l70 441h31l-70 -440q-23 -140 -102.5 -205t-202.5 -65q-109 0 -169.5 49t-60.5 155q0 31 6 66l70 440h31l-70 -439q-3 -17 -4 -33t-1 -31q0 -95 52 -137.5t147 -42.5q54 0 99 13t80 42t59 75t35 112z" />
<glyph unicode="V" horiz-adv-x="576" d="M76 700h31l138 -668l348 668h35l-368 -700h-39z" />
<glyph unicode="W" horiz-adv-x="876" d="M484 692h32l78 -646l303 654h31l-325 -700h-32l-79 643l-282 -643h-34l-98 700h31l90 -656z" />
<glyph unicode="X" horiz-adv-x="608" d="M502 0l-190 341l-296 -341h-37l319 366l-185 334h34l173 -311l269 311h37l-293 -336l204 -364h-35z" />
<glyph unicode="Y" horiz-adv-x="575" d="M270 286l-187 414h33l173 -385l296 385h36l-320 -415l-45 -285h-31z" />
<glyph unicode="Z" horiz-adv-x="560" d="M-15 0l4 25l560 648h-436l5 27h474l-4 -25l-561 -648h470l-4 -27h-508z" />
<glyph unicode="[" horiz-adv-x="332" d="M48 -101l128 805h154l-5 -24h-124l-120 -757h133l-3 -24h-163z" />
<glyph unicode="\" horiz-adv-x="472" d="M348 0l-276 700h33l275 -700h-32z" />
<glyph unicode="]" horiz-adv-x="332" d="M295 704l-128 -805h-154l5 24h124l120 757h-133l3 24h163z" />
<glyph unicode="^" horiz-adv-x="362" d="M36 403l196 298h27l97 -298v-1h-29l-86 268l-176 -268h-29v1z" />
<glyph unicode="_" horiz-adv-x="470" d="M425 0l-4 -26h-479l5 26h478z" />
<glyph unicode="`" horiz-adv-x="600" d="M277 563l-100 104v4h43l84 -105v-3h-27z" />
<glyph unicode="a" horiz-adv-x="539" d="M193 16q88 0 143 54t75 147l6 40h-149q-87 0 -138.5 -34.5t-51.5 -107.5q0 -50 30.5 -74.5t84.5 -24.5zM185 -10q-62 0 -99.5 31t-37.5 91q0 85 59.5 127.5t159.5 42.5h154q4 25 6 40t2 27q0 65 -33.5 89t-99.5 24q-63 0 -104 -18.5t-71 -51.5l-15 19q33 40 81.5 58.5 t112.5 18.5q79 0 119 -30.5t40 -102.5q0 -12 -1.5 -25.5t-3.5 -29.5l-47 -300h-26l16 120q-31 -63 -85.5 -96.5t-126.5 -33.5z" />
<glyph unicode="b" horiz-adv-x="587" d="M204 700l-54 -342q34 66 89 98t122 32q81 0 123.5 -46t42.5 -135q0 -16 -1 -32.5t-4 -34.5q-19 -119 -82 -184.5t-165 -65.5q-61 0 -105.5 28.5t-59.5 91.5l-20 -110h-27l111 700h30zM131 234q-2 -16 -3.5 -30.5t-1.5 -28.5q0 -82 41 -120.5t107 -38.5q91 0 145.5 58.5 t71.5 164.5q3 18 4 34t1 31q0 77 -36 117.5t-108 40.5q-41 0 -77 -14t-65 -42.5t-49.5 -71t-29.5 -100.5z" />
<glyph unicode="c" horiz-adv-x="526" d="M425 107l22 -15q-32 -54 -83 -78t-118 -24q-185 0 -185 180q0 29 6 67q39 251 254 251q69 0 108.5 -29t56.5 -80l-26 -12q-29 95 -140 95q-94 0 -149 -53.5t-73 -171.5q-6 -38 -6 -67q0 -81 39 -117.5t119 -36.5q60 0 103 21.5t72 69.5z" />
<glyph unicode="d" horiz-adv-x="589" d="M457 245q2 15 3.5 29t1.5 27q0 82 -41.5 121.5t-107.5 39.5q-91 0 -144 -56.5t-70 -162.5q-4 -23 -5.5 -38.5t-1.5 -30.5q0 -77 36.5 -117.5t111.5 -40.5q39 0 74.5 14t64 42t49 71t29.5 102zM448 0h-27l16 114q-35 -63 -89 -93.5t-117 -30.5q-84 0 -127 46.5t-43 135.5 q0 31 6 67q17 120 80.5 184.5t165.5 64.5q63 0 106 -29.5t57 -91.5l53 333h30z" />
<glyph unicode="e" horiz-adv-x="531" d="M244 -10q-87 0 -135 45t-48 139q0 30 6 65q20 124 84 186.5t167 62.5q80 0 122 -44.5t42 -129.5q0 -38 -9 -83h-377q-2 -11 -3 -25.5t-1 -21.5q-2 -81 35.5 -124.5t119.5 -43.5q62 0 107.5 23.5t74.5 75.5l21 -15q-32 -57 -83 -83.5t-123 -26.5zM315 462 q-175 0 -214 -206h347q2 15 3 29.5t1 28.5q0 148 -137 148z" />
<glyph unicode="f" horiz-adv-x="337" d="M87 0l71 453h-96l5 25h95l14 87q12 77 48 110t95 33q20 0 39.5 -3.5t37.5 -13.5l-9 -26q-16 8 -30.5 11.5t-36.5 3.5q-48 0 -76.5 -26.5t-39.5 -93.5l-13 -82h165l-4 -25h-164l-72 -453h-29z" />
<glyph unicode="g" horiz-adv-x="584" d="M453 247q2 14 3.5 28t1.5 27q0 82 -41.5 121t-108.5 39q-89 0 -141.5 -57.5t-69.5 -163.5q-6 -35 -6 -65q0 -76 36.5 -116t108.5 -40q40 0 75 13.5t63.5 41.5t49 70.5t29.5 101.5zM520 478l-76 -481q-9 -54 -31 -92.5t-54.5 -63t-74 -35.5t-89.5 -11q-63 0 -110 22 t-69 83l25 17q19 -55 59 -75.5t97 -20.5q42 0 78.5 9.5t65 31t47.5 56.5t27 86l17 108q-34 -61 -87.5 -89.5t-116.5 -28.5q-81 0 -124 46t-43 135q0 15 1 31.5t4 34.5q19 118 80 182.5t160 64.5q66 0 109.5 -31t57.5 -95l21 116h26z" />
<glyph unicode="h" horiz-adv-x="592" d="M204 700l-55 -347q35 67 91.5 101t125.5 34q72 0 109.5 -33t37.5 -102q0 -11 -1.5 -23t-3.5 -26l-47 -304h-30l46 297q2 14 3 26t1 23q0 63 -34 89t-92 26q-43 0 -79.5 -15.5t-64.5 -43t-47.5 -65.5t-29.5 -84l-41 -253h-30l111 700h30z" />
<glyph unicode="i" horiz-adv-x="238" d="M174 580q-28 0 -28 26q0 17 10 25.5t24 8.5q28 0 28 -26q0 -16 -9.5 -25t-24.5 -9zM142 478h30l-75 -478h-30z" />
<glyph unicode="j" horiz-adv-x="238" d="M174 580q-27 0 -27 26q0 17 9.5 25.5t24.5 8.5q27 0 27 -26q0 -16 -9.5 -25t-24.5 -9zM58 -56l84 534h30l-85 -540q-12 -76 -45 -109.5t-84 -33.5q-18 0 -35 2.5t-34 10.5l9 25q14 -6 27.5 -9t33.5 -3q39 0 63.5 27t35.5 96z" />
<glyph unicode="k" horiz-adv-x="491" d="M205 700l-84 -527l332 305h37l-229 -210l168 -268h-35l-154 247l-126 -115l-20 -132h-31l111 700h31z" />
<glyph unicode="l" horiz-adv-x="240" d="M145 0q-42 0 -61.5 22t-11.5 70l96 608h31l-95 -603q-7 -44 7.5 -57t43.5 -13h43l-4 -27h-49z" />
<glyph unicode="m" horiz-adv-x="887" d="M63 0l76 478h27l-17 -125q32 69 84 102t115 33t95 -35t32 -101q33 68 86.5 102t116.5 34q129 0 129 -131q0 -12 -1.5 -25.5t-3.5 -27.5l-48 -304h-30l47 297q2 14 3.5 27.5t1.5 24.5q0 62 -30 87t-81 25q-74 0 -127 -55t-73 -147l-41 -259h-30l47 297q2 14 3 27t1 25 q0 62 -29.5 87t-80.5 25q-74 0 -126.5 -55t-74.5 -151l-41 -255h-30z" />
<glyph unicode="n" horiz-adv-x="593" d="M63 0l76 478h27l-17 -125q35 67 91 101t126 34q72 0 109.5 -33t37.5 -102q0 -11 -1 -23t-3 -26l-48 -304h-30l47 297q2 13 3 25t1 23q0 64 -34.5 90t-92.5 26q-43 0 -79 -15.5t-64.5 -42.5t-48 -65t-29.5 -83l-41 -255h-30z" />
<glyph unicode="o" horiz-adv-x="566" d="M67 238q20 128 84 189t170 61q91 0 138 -44t47 -136q0 -33 -6 -70q-20 -127 -84 -187.5t-171 -60.5q-91 0 -137.5 43.5t-46.5 136.5q0 30 6 68zM469 237q6 39 6 70q0 155 -157 155q-95 0 -148.5 -55t-71.5 -170q-6 -38 -6 -68q0 -78 38 -115.5t118 -37.5q95 0 149 54 t72 167z" />
<glyph unicode="p" horiz-adv-x="589" d="M131 234q-2 -16 -3.5 -30t-1.5 -28q0 -82 42 -121t108 -39q91 0 144.5 58.5t70.5 164.5q6 37 6 68q0 76 -35 115.5t-105 39.5q-41 0 -78 -14t-67 -42.5t-51 -71t-30 -100.5zM34 -186l106 664h26l-16 -122q35 67 90.5 99.5t124.5 32.5q81 0 122 -45.5t41 -133.5 q0 -33 -6 -69q-18 -119 -81.5 -184.5t-164.5 -65.5q-62 0 -106 29t-59 90l-47 -295h-30z" />
<glyph unicode="q" horiz-adv-x="588" d="M418 -186h-30l49 305q-33 -64 -86.5 -96.5t-120.5 -32.5q-83 0 -126 46.5t-43 135.5q0 31 6 67q18 119 80 184t165 65q62 0 106 -30t58 -92l21 112h27zM457 245q2 15 3.5 29t1.5 27q0 82 -41.5 121.5t-107.5 39.5q-91 0 -144 -57t-71 -166q-6 -35 -6 -63q0 -78 36.5 -119 t110.5 -41q40 0 75 14t63.5 42t49 71t30.5 102z" />
<glyph unicode="r" horiz-adv-x="326" d="M63 0l76 478h27l-17 -127q32 65 86 98.5t115 31.5l-5 -29q-76 2 -132 -50t-80 -151l-40 -251h-30z" />
<glyph unicode="s" horiz-adv-x="491" d="M223 16q76 0 113.5 29.5t37.5 77.5q0 37 -25.5 62t-83.5 38l-49 11q-124 28 -124 120q0 62 47.5 98t125.5 36q54 0 93.5 -17t69.5 -58l-23 -18q-28 38 -61 52.5t-80 14.5q-65 0 -103.5 -27.5t-38.5 -78.5q0 -33 22.5 -57t78.5 -37l45 -10q39 -9 65.5 -21.5t42 -29 t22 -35.5t6.5 -41q0 -61 -47.5 -98t-135.5 -37q-63 0 -108.5 21.5t-78.5 71.5l25 16q28 -44 66.5 -63.5t97.5 -19.5z" />
<glyph unicode="t" horiz-adv-x="346" d="M351 478l-4 -25h-164l-46 -287q-13 -81 6.5 -114.5t75.5 -33.5q23 0 38 3t33 8l1 -26q-26 -8 -43 -10.5t-34 -2.5q-55 0 -84 26t-29 86q0 12 1.5 27t3.5 29l47 295h-94l3 25h95l23 148h30l-24 -148h165z" />
<glyph unicode="u" horiz-adv-x="592" d="M229 -10q-73 0 -111 35t-38 107q0 22 5 50l47 296h30l-46 -289q-2 -14 -3 -26.5t-1 -23.5q0 -67 33.5 -94.5t91.5 -27.5q45 0 81 14.5t63 40t45.5 61t28.5 77.5l43 268h30l-76 -478h-26l15 114q-34 -62 -89 -93t-123 -31z" />
<glyph unicode="v" horiz-adv-x="455" d="M47 478h32l114 -447l253 447h33l-273 -478h-34z" />
<glyph unicode="w" horiz-adv-x="684" d="M357 467h32l73 -434l214 445h30l-232 -478h-33l-74 427l-198 -427h-35l-85 478h31l77 -443z" />
<glyph unicode="x" horiz-adv-x="472" d="M73 478h35l131 -211l196 211h36l-218 -232l157 -246h-35l-143 226l-210 -226h-37l233 248z" />
<glyph unicode="y" horiz-adv-x="458" d="M154 -48l26 46l-125 480h32l114 -450l253 450h32l-307 -538q-27 -47 -51.5 -75t-48 -44t-46.5 -21t-47 -5q-18 0 -34.5 2.5t-34.5 10.5l10 26q14 -6 28.5 -9t34.5 -3q18 0 36.5 4t38.5 17.5t42 39.5t47 69z" />
<glyph unicode="z" horiz-adv-x="459" d="M2 0l3 24l406 429h-325l4 25h362l-3 -24l-407 -429h341l-4 -25h-377z" />
<glyph unicode="{" horiz-adv-x="340" d="M212 -73q-44 5 -66.5 25.5t-22.5 59.5q0 23 6 47t13.5 49t13.5 52t6 57q0 47 -23.5 69t-79.5 22h-21l4 24h20q69 0 101 33t43 105q5 30 4.5 65t4.5 70q8 51 38.5 76.5t81.5 31.5v-25q-38 -5 -62 -25t-30 -60q-5 -30 -4.5 -65.5t-4.5 -69.5q-11 -69 -38 -103t-79 -45 q40 -10 56.5 -33t16.5 -65q0 -32 -6 -60.5t-13.5 -54t-13.5 -48t-6 -41.5q0 -30 18 -45.5t50 -20.5z" />
<glyph unicode="|" horiz-adv-x="261" d="M62 -65l131 831h29l-131 -831h-29z" />
<glyph unicode="}" horiz-adv-x="340" d="M135 713q44 -5 66.5 -25.5t22.5 -59.5q0 -23 -6 -47t-13.5 -49t-13.5 -52t-6 -57q0 -47 23.5 -69t79.5 -22h21l-4 -24h-20q-69 0 -101 -33t-43 -105q-5 -30 -4.5 -65t-4.5 -70q-8 -51 -38.5 -76.5t-81.5 -31.5v25q38 5 62 25t30 60q5 30 4.5 65.5t4.5 69.5q11 69 38 103 t79 45q-40 10 -56.5 33t-16.5 65q0 31 6 60t13.5 54.5t13.5 48t6 41.5q0 30 -18 45.5t-50 20.5z" />
<glyph unicode="~" horiz-adv-x="480" d="M433 399l28 -4q-14 -63 -47 -85t-71 -22q-33 0 -58.5 13t-49 28.5t-47 28.5t-52.5 13q-14 0 -27 -3.5t-25 -13t-21 -25.5t-14 -41l-28 5q14 63 47 85t71 22q32 0 57.5 -13t49 -28.5t47.5 -28.5t53 -13q27 0 52 16.5t35 65.5z" />
<glyph unicode="&#xa1;" horiz-adv-x="193" d="M7 -217l88 529h27l-77 -529h-38zM136 489q27 0 27 -26q0 -16 -10 -25t-24 -9q-27 0 -27 27q0 16 9.5 24.5t24.5 8.5z" />
<glyph unicode="&#xa2;" horiz-adv-x="531" d="M96 189q0 -74 35 -109t107 -38l67 423q-85 -5 -136 -55.5t-68 -157.5q-2 -17 -3.5 -33t-1.5 -30zM222 -62l12 78q-168 8 -168 173q0 14 1.5 30t3.5 33q19 122 79.5 178.5t157.5 60.5l13 80h27l-13 -80q63 -3 100.5 -29.5t53.5 -71.5l-25 -13q-14 42 -48 64t-85 24 l-67 -423q57 1 98 24t70 72l22 -14q-32 -56 -80.5 -81.5t-113.5 -26.5l-12 -78h-26z" />
<glyph unicode="&#xa3;" horiz-adv-x="569" d="M489 66q-21 -22 -41.5 -35t-41.5 -20t-43 -9t-45 -2h-319l5 27h19q40 0 60 27t28 88l22 182h-83l4 25h82l22 175q11 91 61 138.5t141 47.5q39 0 68 -9t50 -26.5t35.5 -42t25.5 -55.5l-27 -13q-18 57 -52.5 88t-101.5 31q-73 0 -116 -39.5t-53 -120.5l-21 -174h228l-4 -25 h-227l-21 -178q-12 -98 -59 -119h238q39 0 76 10t73 49z" />
<glyph unicode="&#xa5;" horiz-adv-x="590" d="M511 288l-4 -25h-206l-41 -263h-32l41 263h-206l3 25h206l-27 59h-169l4 25h154l-147 328h32l174 -386l297 386h34l-253 -328h154l-5 -25h-168l-46 -59h205z" />
<glyph unicode="&#xa6;" horiz-adv-x="261" d="M132 376l61 390h29l-62 -390h-28zM62 -65l62 389h28l-61 -389h-29z" />
<glyph unicode="&#xa7;" horiz-adv-x="519" d="M221 252l36 -12q24 -8 52.5 -6t52.5 14t40.5 34.5t16.5 54.5q0 29 -22.5 55.5t-81.5 45.5l-37 11q-24 7 -51.5 5t-51.5 -13.5t-40 -33t-16 -52.5q0 -30 22.5 -56.5t79.5 -46.5zM228 -22q-72 0 -120 23.5t-79 78.5l25 17q25 -48 66.5 -71t110.5 -23q37 0 62.5 8t41.5 22 t23 32t7 39q0 34 -24 61.5t-85 47.5l-42 13q-57 19 -90 49.5t-33 75.5q0 23 8 44.5t24.5 38t41.5 26.5t59 11q-38 19 -60 46t-22 65q0 56 37.5 92t114.5 36q58 0 98.5 -18.5t69.5 -63.5l-23 -18q-26 43 -61 59t-89 16q-57 0 -87.5 -26t-30.5 -74q0 -32 23 -60.5t79 -45.5 l47 -15q40 -12 65 -26.5t39 -30t19.5 -32t5.5 -33.5q0 -51 -35.5 -85.5t-99.5 -38.5q46 -25 63.5 -51t17.5 -58q0 -55 -39 -92.5t-128 -38.5z" />
<glyph unicode="&#xa8;" horiz-adv-x="600" d="M368 580q-27 0 -27 26q0 17 9.5 25.5t24.5 8.5q27 0 27 -26q0 -16 -9.5 -25t-24.5 -9zM233 580q-26 0 -26 26q0 17 9.5 25.5t23.5 8.5q27 0 27 -26q0 -34 -34 -34z" />
<glyph unicode="&#xa9;" horiz-adv-x="804" d="M76 281q0 33 6 69q12 75 43.5 137t80 106t113 68t142.5 24q68 0 120 -19t87.5 -53.5t54 -83.5t18.5 -109q0 -18 -1 -34.5t-4 -35.5q-12 -76 -43.5 -138t-80 -106t-113 -68t-142.5 -24q-68 0 -120.5 19t-88 54t-54 84t-18.5 110zM460 667q-72 0 -132.5 -22t-107 -63.5 t-77 -100t-42.5 -131.5q-6 -36 -6 -69q0 -117 68 -183t196 -66q72 0 132.5 22t106.5 63.5t76.5 100t41.5 132.5q6 36 6 69q0 117 -68 182.5t-194 65.5zM387 174q-69 0 -106.5 31.5t-37.5 98.5q0 12 1 23.5t3 23.5q14 94 63.5 137.5t131.5 43.5q52 0 83 -19t44 -52l-20 -12 q-12 31 -39.5 46.5t-68.5 15.5q-69 0 -111.5 -37t-56.5 -123q-4 -23 -4 -45q0 -58 30.5 -84.5t90.5 -26.5q47 0 79.5 17t54.5 54l18 -10q-25 -43 -64 -62.5t-91 -19.5z" />
<glyph unicode="&#xaa;" horiz-adv-x="388" d="M174 379q59 0 98.5 37t53.5 104l4 26h-103q-63 0 -100 -25t-37 -76q0 -33 22 -49.5t62 -16.5zM165 359q-46 0 -73 21t-27 62q0 60 43 92t118 32h107q2 16 3.5 26t1.5 18q0 45 -23 61.5t-69 16.5q-44 0 -72.5 -13t-49.5 -36l-11 17q45 54 137 54q56 0 84.5 -22t28.5 -73 q0 -17 -3 -38l-33 -210h-21l10 77q-23 -42 -62 -63.5t-89 -21.5z" />
<glyph unicode="&#xab;" horiz-adv-x="585" d="M399 0l-152 238l1 3l225 237h37l-229 -241l152 -237h-34zM219 0l-151 237l1 3l225 238h36l-228 -241l151 -237h-34z" />
<glyph unicode="&#xad;" horiz-adv-x="387" d="M335 256l-4 -26h-289l4 26h289z" />
<glyph unicode="&#xae;" horiz-adv-x="463" d="M84 531q6 40 23 73t43 56.5t61 36.5t76 13q72 0 111.5 -38.5t39.5 -104.5q0 -8 -1 -18.5t-3 -19.5q-14 -81 -66.5 -129t-134.5 -48q-73 0 -112.5 39t-39.5 104q0 16 3 36zM100 531q-3 -18 -3 -35q0 -60 35.5 -95t101.5 -35q74 0 123 44.5t62 120.5q3 18 3 36q0 60 -36 94 t-100 34q-75 0 -124 -44t-62 -120zM279 611h-55l-13 -85h45q26 0 43 10.5t17 42.5t-37 32zM181 445l29 180h72q25 0 37.5 -12t12.5 -33q0 -29 -13 -44t-34 -21l24 -70h-18l-22 68h-61l-10 -68h-17z" />
<glyph unicode="&#xaf;" horiz-adv-x="600" d="M423 626l-3 -23h-222l3 23h222z" />
<glyph unicode="&#xb0;" horiz-adv-x="446" d="M425 578q0 -47 -15 -85t-41 -66t-62.5 -43t-79.5 -15q-72 0 -109.5 38t-37.5 101q0 46 15 84.5t41 66t62.5 42.5t79.5 15q72 0 109.5 -37.5t37.5 -100.5zM106 510q0 -55 32 -86.5t90 -31.5q36 0 67.5 13t54.5 37t36 57.5t13 75.5q0 55 -32 86.5t-91 31.5q-36 0 -67 -13 t-54 -36.5t-36 -57.5t-13 -76z" />
<glyph unicode="&#xb1;" horiz-adv-x="487" d="M230 119h-27l27 177h-175l3 25h177l29 185h27l-29 -185h175l-3 -25h-176zM391 26l-4 -26h-379l4 26h379z" />
<glyph unicode="&#xb2;" horiz-adv-x="344" d="M25 294zM25 294l4 23l181 158q29 25 48.5 45t31 37t16 32.5t4.5 30.5q0 65 -88 65q-45 0 -73 -18t-52 -52l-16 15q27 38 60 58t84 20q57 0 85 -22.5t28 -60.5t-24 -75.5t-86 -90.5l-163 -140h249l-4 -25h-285z" />
<glyph unicode="&#xb3;" horiz-adv-x="357" d="M31 287zM158 287q-50 0 -80.5 17.5t-46.5 55.5l22 13q14 -32 39 -47t67 -15q66 0 100 31.5t34 80.5q0 32 -18 52.5t-66 20.5h-60l3 23h60q19 0 37 7t31.5 20t22 31t8.5 40q0 68 -90 68q-40 0 -68 -14t-51 -48l-17 15q26 36 58 53t82 17q114 0 114 -86q0 -41 -23.5 -71 t-59.5 -43q37 -9 50.5 -31.5t13.5 -51.5q0 -62 -43 -100t-119 -38z" />
<glyph unicode="&#xb4;" horiz-adv-x="600" d="M374 671h44l-1 -4l-115 -104h-27v3z" />
<glyph unicode="&#xb6;" horiz-adv-x="624" d="M496 673h-81l-60 -377h81zM89 448q0 -75 41.5 -113.5t119.5 -38.5h75l59 377h-69q-109 0 -167.5 -55t-58.5 -170zM278 0l43 268h-71q-51 0 -87.5 13t-60 36.5t-34 56t-10.5 71.5q0 130 67 192.5t196 62.5h209l-111 -700h-30l42 268h-80l-42 -268h-31z" />
<glyph unicode="&#xb7;" horiz-adv-x="194" d="M73 305zM100 305q-27 0 -27 26q0 16 9.5 25t24.5 9q27 0 27 -27q0 -16 -9.5 -24.5t-24.5 -8.5z" />
<glyph unicode="&#xb8;" horiz-adv-x="600" d="M307 -102l-10 7l35 95h25l-32 -83q32 5 57.5 -9.5t25.5 -49.5q0 -40 -28.5 -59.5t-76.5 -19.5q-32 0 -54 11.5t-35 37.5l19 14q11 -23 27 -32.5t45 -9.5q79 0 79 56q0 15 -7 25t-18 15t-24.5 5.5t-27.5 -3.5z" />
<glyph unicode="&#xb9;" horiz-adv-x="181" d="M63 294zM105 294h-27l59 373l-66 -49l-8 22l89 63l17 -1z" />
<glyph unicode="&#xba;" horiz-adv-x="407" d="M76 533q27 177 180 177q130 0 130 -129q0 -12 -1 -23t-3 -25q-13 -89 -58.5 -131.5t-120.5 -42.5q-131 0 -131 127q0 11 1 22.5t3 24.5zM357 533q2 14 3.5 25.5t1.5 22.5q0 108 -108 108q-128 0 -153 -156q-2 -13 -3 -24.5t-1 -22.5q0 -106 108 -106q128 0 152 153z" />
<glyph unicode="&#xbb;" horiz-adv-x="585" d="M187 478l152 -238l-1 -3l-225 -237h-37l229 241l-152 237h34zM367 478l151 -237l-1 -3l-225 -238h-36l228 241l-151 237h34z" />
<glyph unicode="&#xbc;" horiz-adv-x="799" d="M58 0zM100 293h-27l59 373l-66 -49l-8 22l89 63l17 -1zM545 700l-437 -700h-29l438 700h28zM407 110l4 21l186 276h27l-185 -273h198l33 203h26l-32 -203h68l-3 -24h-69l-17 -110h-27l18 110h-227z" />
<glyph unicode="&#xbd;" horiz-adv-x="769" d="M58 0zM384 0l4 23l181 158q29 25 48.5 45t31 37t16 32.5t4.5 30.5q0 65 -88 65q-45 0 -73 -18t-52 -52l-16 15q27 38 60 58t84 20q57 0 85 -22.5t28 -60.5t-24 -75.5t-86 -90.5l-163 -140h249l-4 -25h-285zM100 293h-27l59 373l-66 -49l-8 22l89 63l17 -1zM545 700 l-437 -700h-29l438 700h28z" />
<glyph unicode="&#xbe;" horiz-adv-x="935" d="M35 0zM162 286q-50 0 -80.5 17.5t-46.5 55.5l22 13q14 -32 39 -47t67 -15q66 0 100 31.5t34 80.5q0 32 -18 52.5t-66 20.5h-60l3 23h60q19 0 37 7t31.5 20t22 31t8.5 40q0 68 -90 68q-40 0 -68 -14t-51 -48l-17 15q26 36 58 53t82 17q114 0 114 -86q0 -41 -23.5 -71 t-59.5 -43q37 -9 50.5 -31.5t13.5 -51.5q0 -62 -43 -100t-119 -38zM689 700l-437 -700h-29l438 700h28zM543 110l4 21l186 276h27l-185 -273h198l33 203h26l-32 -203h68l-3 -24h-69l-17 -110h-27l18 110h-227z" />
<glyph unicode="&#xbf;" horiz-adv-x="488" d="M-10 -56q0 59 19.5 106t54 80t82.5 51t106 20l18 109h30l-20 -130h-19q-54 0 -98 -16.5t-75.5 -47t-48.5 -73.5t-17 -96q0 -72 47.5 -110t132.5 -38q75 0 128.5 28t95.5 96l21 -15q-45 -74 -104.5 -105.5t-144.5 -31.5q-98 0 -153 45.5t-55 127.5zM312 487q27 0 27 -26 q0 -16 -9.5 -24.5t-24.5 -8.5q-27 0 -27 26q0 16 9.5 24.5t24.5 8.5z" />
<glyph unicode="&#xc0;" horiz-adv-x="581" d="M0 0zM357 667l-244 -469h341zM495 0l-36 171h-360l-89 -171h-34l366 700h39l145 -700h-31zM365 785l-100 104v4h43l84 -105v-3h-27z" />
<glyph unicode="&#xc1;" horiz-adv-x="581" d="M0 0zM357 667l-244 -469h341zM495 0l-36 171h-360l-89 -171h-34l366 700h39l145 -700h-31zM459 893h44l-1 -4l-115 -104h-27v3z" />
<glyph unicode="&#xc2;" horiz-adv-x="581" d="M0 0zM357 667l-244 -469h341zM495 0l-36 171h-360l-89 -171h-34l366 700h39l145 -700h-31zM390 872l-109 -87h-36v2l133 106h26l98 -106v-2h-33z" />
<glyph unicode="&#xc3;" horiz-adv-x="581" d="M0 0zM357 667l-244 -469h341zM495 0l-36 171h-360l-89 -171h-34l366 700h39l145 -700h-31zM485 878h25q-2 -23 -10 -37.5t-18.5 -23t-22.5 -11.5t-22 -3q-20 0 -33.5 8.5t-25.5 19t-24 19t-29 8.5q-14 0 -27.5 -10t-17.5 -41h-25q3 23 10.5 37.5t17.5 23t21.5 11.5 t22.5 3q20 0 33.5 -8.5t25.5 -19t24 -19t30 -8.5q17 0 29 11t16 40z" />
<glyph unicode="&#xc4;" horiz-adv-x="581" d="M0 0zM357 667l-244 -469h341zM495 0l-36 171h-360l-89 -171h-34l366 700h39l145 -700h-31zM446 802q-27 0 -27 26q0 17 9.5 25.5t24.5 8.5q27 0 27 -26q0 -16 -9.5 -25t-24.5 -9zM311 802q-26 0 -26 26q0 17 9.5 25.5t23.5 8.5q27 0 27 -26q0 -34 -34 -34z" />
<glyph unicode="&#xc5;" horiz-adv-x="581" d="M0 0zM357 667l-244 -469h341zM495 0l-36 171h-360l-89 -171h-34l366 700h39l145 -700h-31zM377 765q-32 0 -53 21.5t-21 55.5q0 40 25.5 67.5t64.5 27.5q32 0 53 -21.5t21 -54.5q0 -41 -25.5 -68.5t-64.5 -27.5zM392 920q-30 0 -50 -22t-20 -54q0 -27 15.5 -44.5 t40.5 -17.5q29 0 49.5 22t20.5 54q0 27 -15.5 44.5t-40.5 17.5z" />
<glyph unicode="&#xc6;" horiz-adv-x="859" d="M357 669l-246 -471h332zM479 0l-31 171h-351l-90 -171h-33l368 700h536l-4 -27h-487l57 -307h326l-4 -28h-318l58 -311h276l-4 -27h-299z" />
<glyph unicode="&#xc7;" horiz-adv-x="678" d="M292 -220q-32 0 -54 11.5t-35 37.5l19 14q11 -23 27 -32.5t45 -9.5q79 0 79 56q0 15 -7 25t-18 15t-24.5 5.5t-27.5 -3.5l-10 7l31 84q-57 1 -101 16t-74 45t-46 77.5t-16 113.5q0 26 2 54t7 54q15 97 45.5 165.5t74.5 112t101 63t126 19.5q87 0 143 -33t82 -108l-28 -14 q-23 71 -74 99.5t-126 28.5q-59 0 -109.5 -16.5t-90.5 -55.5t-69 -102.5t-44 -157.5q-9 -60 -9 -108q0 -63 15.5 -106t44 -69.5t69.5 -38.5t92 -12q75 0 138 26.5t109 92.5l21 -18q-47 -68 -113 -97t-145 -31l-28 -72q32 5 57.5 -9.5t25.5 -49.5q0 -40 -28.5 -59.5 t-76.5 -19.5z" />
<glyph unicode="&#xc8;" horiz-adv-x="632" d="M72 0zM72 0l111 700h467l-5 -27h-435l-49 -307h382l-4 -28h-382l-50 -311h446l-4 -27h-477zM420 785l-100 104v4h43l84 -105v-3h-27z" />
<glyph unicode="&#xc9;" horiz-adv-x="632" d="M72 0zM513 893h44l-1 -4l-115 -104h-27v3zM72 0l111 700h467l-5 -27h-435l-49 -307h382l-4 -28h-382l-50 -311h446l-4 -27h-477z" />
<glyph unicode="&#xca;" horiz-adv-x="632" d="M72 0zM445 872l-109 -87h-36v2l133 106h26l98 -106v-2h-33zM72 0l111 700h467l-5 -27h-435l-49 -307h382l-4 -28h-382l-50 -311h446l-4 -27h-477z" />
<glyph unicode="&#xcb;" horiz-adv-x="632" d="M72 0zM501 802q-27 0 -27 26q0 17 9.5 25.5t24.5 8.5q27 0 27 -26q0 -16 -9.5 -25t-24.5 -9zM366 802q-26 0 -26 26q0 17 9.5 25.5t23.5 8.5q27 0 27 -26q0 -34 -34 -34zM72 0l111 700h467l-5 -27h-435l-49 -307h382l-4 -28h-382l-50 -311h446l-4 -27h-477z" />
<glyph unicode="&#xcc;" horiz-adv-x="264" d="M72 0zM72 0l111 700h31l-111 -700h-31zM202 785l-100 104v4h43l84 -105v-3h-27z" />
<glyph unicode="&#xcd;" horiz-adv-x="264" d="M72 0zM72 0l111 700h31l-111 -700h-31zM296 893h44l-1 -4l-115 -104h-27v3z" />
<glyph unicode="&#xce;" horiz-adv-x="264" d="M72 0zM72 0l111 700h31l-111 -700h-31zM227 872l-109 -87h-36v2l133 106h26l98 -106v-2h-33z" />
<glyph unicode="&#xcf;" horiz-adv-x="264" d="M72 0zM72 0l111 700h31l-111 -700h-31zM283 802q-27 0 -27 26q0 17 9.5 25.5t24.5 8.5q27 0 27 -26q0 -16 -9.5 -25t-24.5 -9zM148 802q-26 0 -26 26q0 17 9.5 25.5t23.5 8.5q27 0 27 -26q0 -34 -34 -34z" />
<glyph unicode="&#xd0;" horiz-adv-x="727" d="M322 0h-240l56 354h-82l4 25h82l51 321h239q57 0 101 -13t74.5 -41.5t46.5 -73t16 -108.5q0 -23 -2 -50t-7 -56q-15 -96 -45 -163.5t-73 -111t-99 -63.5t-122 -20zM117 27h207q56 0 105.5 17t89 56t67.5 102t43 155q9 54 9 100q0 60 -14.5 101t-42 66.5t-66 37 t-86.5 11.5h-210l-47 -294h182l-4 -25h-182z" />
<glyph unicode="&#xd1;" horiz-adv-x="750" d="M72 0zM557 0l-352 658l-103 -658h-30l111 700h34l349 -655l103 655h31l-111 -700h-32zM564 878h25q-2 -23 -10 -37.5t-18.5 -23t-22.5 -11.5t-22 -3q-20 0 -33.5 8.5t-25.5 19t-24 19t-29 8.5q-14 0 -27.5 -10t-17.5 -41h-25q3 23 10.5 37.5t17.5 23t21.5 11.5t22.5 3 q20 0 33.5 -8.5t25.5 -19t24 -19t30 -8.5q17 0 29 11t16 40z" />
<glyph unicode="&#xd2;" horiz-adv-x="743" d="M80 0zM89 350q15 98 45 166.5t74 111.5t101.5 62.5t127.5 19.5q60 0 106 -13.5t77.5 -43.5t48 -77t16.5 -114q0 -27 -2.5 -53.5t-7.5 -58.5q-15 -99 -45 -167.5t-74.5 -111.5t-101.5 -62t-126 -19q-59 0 -105.5 14t-78 44t-48 77t-16.5 114q0 49 9 111zM653 460 q0 62 -15 104.5t-43 69t-68.5 38t-92.5 11.5q-60 0 -111 -16.5t-90.5 -55t-68 -102.5t-43.5 -159q-5 -29 -7.5 -55t-2.5 -55q0 -62 15 -104.5t43 -68.5t69 -38t92 -12q60 0 111 16.5t90.5 55t68 102.5t43.5 160q5 29 7.5 54.5t2.5 54.5zM440 784l-100 104v4h43l84 -105v-3 h-27z" />
<glyph unicode="&#xd3;" horiz-adv-x="743" d="M80 0zM534 892h44l-1 -4l-115 -104h-27v3zM89 350q15 98 45 166.5t74 111.5t101.5 62.5t127.5 19.5q60 0 106 -13.5t77.5 -43.5t48 -77t16.5 -114q0 -27 -2.5 -53.5t-7.5 -58.5q-15 -99 -45 -167.5t-74.5 -111.5t-101.5 -62t-126 -19q-59 0 -105.5 14t-78 44t-48 77 t-16.5 114q0 49 9 111zM653 460q0 62 -15 104.5t-43 69t-68.5 38t-92.5 11.5q-60 0 -111 -16.5t-90.5 -55t-68 -102.5t-43.5 -159q-5 -29 -7.5 -55t-2.5 -55q0 -62 15 -104.5t43 -68.5t69 -38t92 -12q60 0 111 16.5t90.5 55t68 102.5t43.5 160q5 29 7.5 54.5t2.5 54.5z" />
<glyph unicode="&#xd4;" horiz-adv-x="743" d="M80 0zM466 871l-109 -87h-36v2l133 106h26l98 -106v-2h-33zM89 350q15 98 45 166.5t74 111.5t101.5 62.5t127.5 19.5q60 0 106 -13.5t77.5 -43.5t48 -77t16.5 -114q0 -27 -2.5 -53.5t-7.5 -58.5q-15 -99 -45 -167.5t-74.5 -111.5t-101.5 -62t-126 -19q-59 0 -105.5 14 t-78 44t-48 77t-16.5 114q0 49 9 111zM653 460q0 62 -15 104.5t-43 69t-68.5 38t-92.5 11.5q-60 0 -111 -16.5t-90.5 -55t-68 -102.5t-43.5 -159q-5 -29 -7.5 -55t-2.5 -55q0 -62 15 -104.5t43 -68.5t69 -38t92 -12q60 0 111 16.5t90.5 55t68 102.5t43.5 160q5 29 7.5 54.5 t2.5 54.5z" />
<glyph unicode="&#xd5;" horiz-adv-x="743" d="M80 0zM89 350q15 98 45 166.5t74 111.5t101.5 62.5t127.5 19.5q60 0 106 -13.5t77.5 -43.5t48 -77t16.5 -114q0 -27 -2.5 -53.5t-7.5 -58.5q-15 -99 -45 -167.5t-74.5 -111.5t-101.5 -62t-126 -19q-59 0 -105.5 14t-78 44t-48 77t-16.5 114q0 49 9 111zM653 460 q0 62 -15 104.5t-43 69t-68.5 38t-92.5 11.5q-60 0 -111 -16.5t-90.5 -55t-68 -102.5t-43.5 -159q-5 -29 -7.5 -55t-2.5 -55q0 -62 15 -104.5t43 -68.5t69 -38t92 -12q60 0 111 16.5t90.5 55t68 102.5t43.5 160q5 29 7.5 54.5t2.5 54.5zM560 877h25q-2 -23 -10 -37.5 t-18.5 -23t-22.5 -11.5t-22 -3q-20 0 -33.5 8.5t-25.5 19t-24 19t-29 8.5q-14 0 -27.5 -10t-17.5 -41h-25q3 23 10.5 37.5t17.5 23t21.5 11.5t22.5 3q20 0 33.5 -8.5t25.5 -19t24 -19t30 -8.5q17 0 29 11t16 40z" />
<glyph unicode="&#xd6;" horiz-adv-x="743" d="M80 0zM521 801q-27 0 -27 26q0 17 9.5 25.5t24.5 8.5q27 0 27 -26q0 -16 -9.5 -25t-24.5 -9zM386 801q-26 0 -26 26q0 17 9.5 25.5t23.5 8.5q27 0 27 -26q0 -34 -34 -34zM89 350q15 98 45 166.5t74 111.5t101.5 62.5t127.5 19.5q60 0 106 -13.5t77.5 -43.5t48 -77 t16.5 -114q0 -27 -2.5 -53.5t-7.5 -58.5q-15 -99 -45 -167.5t-74.5 -111.5t-101.5 -62t-126 -19q-59 0 -105.5 14t-78 44t-48 77t-16.5 114q0 49 9 111zM653 460q0 62 -15 104.5t-43 69t-68.5 38t-92.5 11.5q-60 0 -111 -16.5t-90.5 -55t-68 -102.5t-43.5 -159 q-5 -29 -7.5 -55t-2.5 -55q0 -62 15 -104.5t43 -68.5t69 -38t92 -12q60 0 111 16.5t90.5 55t68 102.5t43.5 160q5 29 7.5 54.5t2.5 54.5z" />
<glyph unicode="&#xd7;" horiz-adv-x="451" d="M76 159l-16 19l156 136l-112 137l20 18l112 -137l156 137l16 -19l-157 -136l111 -135l-20 -19l-111 135z" />
<glyph unicode="&#xd8;" horiz-adv-x="743" d="M21 0l91 89q-32 58 -32 151q0 25 2 53t7 57q15 97 44.5 165.5t73.5 112t101.5 63t128.5 19.5q75 0 129 -22.5t84 -72.5l87 85h36l-111 -109q23 -52 23 -130q0 -51 -9 -111q-15 -97 -44.5 -165.5t-73.5 -111.5t-101.5 -63t-127.5 -20q-69 0 -120 18t-83 60l-69 -68h-36z M435 683q-62 0 -113 -17t-90.5 -56t-67.5 -102.5t-43 -157.5q-5 -29 -7.5 -57.5t-2.5 -52.5q0 -80 24 -128l491 480q-26 49 -74.5 70t-116.5 21zM330 17q61 0 112.5 17t91 56t67.5 103t43 157q5 29 7 57.5t2 53.5q0 64 -16 106l-489 -478q28 -39 74 -55.5t108 -16.5z" />
<glyph unicode="&#xd9;" horiz-adv-x="720" d="M85 0zM589 259l70 441h31l-70 -440q-23 -140 -102.5 -205t-202.5 -65q-109 0 -169.5 49t-60.5 155q0 31 6 66l70 440h31l-70 -439q-3 -17 -4 -33t-1 -31q0 -95 52 -137.5t147 -42.5q54 0 99 13t80 42t59 75t35 112zM429 785l-100 104v4h43l84 -105v-3h-27z" />
<glyph unicode="&#xda;" horiz-adv-x="720" d="M85 0zM523 893h44l-1 -4l-115 -104h-27v3zM589 259l70 441h31l-70 -440q-23 -140 -102.5 -205t-202.5 -65q-109 0 -169.5 49t-60.5 155q0 31 6 66l70 440h31l-70 -439q-3 -17 -4 -33t-1 -31q0 -95 52 -137.5t147 -42.5q54 0 99 13t80 42t59 75t35 112z" />
<glyph unicode="&#xdb;" horiz-adv-x="720" d="M85 0zM455 872l-109 -87h-36v2l133 106h26l98 -106v-2h-33zM589 259l70 441h31l-70 -440q-23 -140 -102.5 -205t-202.5 -65q-109 0 -169.5 49t-60.5 155q0 31 6 66l70 440h31l-70 -439q-3 -17 -4 -33t-1 -31q0 -95 52 -137.5t147 -42.5q54 0 99 13t80 42t59 75t35 112z " />
<glyph unicode="&#xdc;" horiz-adv-x="720" d="M85 0zM510 802q-27 0 -27 26q0 17 9.5 25.5t24.5 8.5q27 0 27 -26q0 -16 -9.5 -25t-24.5 -9zM375 802q-26 0 -26 26q0 17 9.5 25.5t23.5 8.5q27 0 27 -26q0 -34 -34 -34zM589 259l70 441h31l-70 -440q-23 -140 -102.5 -205t-202.5 -65q-109 0 -169.5 49t-60.5 155 q0 31 6 66l70 440h31l-70 -439q-3 -17 -4 -33t-1 -31q0 -95 52 -137.5t147 -42.5q54 0 99 13t80 42t59 75t35 112z" />
<glyph unicode="&#xdd;" horiz-adv-x="575" d="M83 0zM270 286l-187 414h33l173 -385l296 385h36l-320 -415l-45 -285h-31zM447 893h44l-1 -4l-115 -104h-27v3z" />
<glyph unicode="&#xde;" horiz-adv-x="612" d="M130 165l-26 -165h-31l111 700h31l-24 -148h213q94 0 137.5 -38.5t43.5 -115.5q0 -46 -14 -88t-44 -74.5t-78 -51.5t-116 -19h-203zM135 192h203q48 0 87.5 12.5t68 38t44 63.5t15.5 89q0 69 -36 99t-114 30h-216z" />
<glyph unicode="&#xdf;" horiz-adv-x="577" d="M325 362h-39l4 25h40q35 0 65.5 11.5t52.5 33.5t34.5 52t12.5 68q0 64 -36 96.5t-103 32.5q-72 0 -124 -44.5t-68 -142.5l-78 -493h-30l79 497q10 63 33.5 104t55 64.5t67.5 32.5t69 9q84 0 125 -43t41 -112q0 -66 -37 -113.5t-95 -65.5q65 -14 95 -55t30 -104 q0 -49 -15.5 -90t-45 -70t-71.5 -45.5t-95 -16.5q-22 0 -51.5 5t-62.5 22l11 25q27 -15 53.5 -19.5t47.5 -4.5q42 0 78.5 11.5t63.5 35.5t42 60.5t15 85.5q0 68 -39.5 108t-124.5 40z" />
<glyph unicode="&#xe0;" horiz-adv-x="542" d="M48 0zM193 16q88 0 143 54t75 147l6 40h-149q-87 0 -138.5 -34.5t-51.5 -107.5q0 -50 30.5 -74.5t84.5 -24.5zM185 -10q-62 0 -99.5 31t-37.5 91q0 85 59.5 127.5t159.5 42.5h154q4 25 6 40t2 27q0 65 -33.5 89t-99.5 24q-63 0 -104 -18.5t-71 -51.5l-15 19 q33 40 81.5 58.5t112.5 18.5q79 0 119 -30.5t40 -102.5q0 -12 -1.5 -25.5t-3.5 -29.5l-47 -300h-26l16 120q-31 -63 -85.5 -96.5t-126.5 -33.5zM306 563l-100 104v4h43l84 -105v-3h-27z" />
<glyph unicode="&#xe1;" horiz-adv-x="542" d="M48 0zM193 16q88 0 143 54t75 147l6 40h-149q-87 0 -138.5 -34.5t-51.5 -107.5q0 -50 30.5 -74.5t84.5 -24.5zM185 -10q-62 0 -99.5 31t-37.5 91q0 85 59.5 127.5t159.5 42.5h154q4 25 6 40t2 27q0 65 -33.5 89t-99.5 24q-63 0 -104 -18.5t-71 -51.5l-15 19 q33 40 81.5 58.5t112.5 18.5q79 0 119 -30.5t40 -102.5q0 -12 -1.5 -25.5t-3.5 -29.5l-47 -300h-26l16 120q-31 -63 -85.5 -96.5t-126.5 -33.5zM399 671h44l-1 -4l-115 -104h-27v3z" />
<glyph unicode="&#xe2;" horiz-adv-x="542" d="M48 0zM193 16q88 0 143 54t75 147l6 40h-149q-87 0 -138.5 -34.5t-51.5 -107.5q0 -50 30.5 -74.5t84.5 -24.5zM185 -10q-62 0 -99.5 31t-37.5 91q0 85 59.5 127.5t159.5 42.5h154q4 25 6 40t2 27q0 65 -33.5 89t-99.5 24q-63 0 -104 -18.5t-71 -51.5l-15 19 q33 40 81.5 58.5t112.5 18.5q79 0 119 -30.5t40 -102.5q0 -12 -1.5 -25.5t-3.5 -29.5l-47 -300h-26l16 120q-31 -63 -85.5 -96.5t-126.5 -33.5zM331 650l-109 -87h-36v2l133 106h26l98 -106v-2h-33z" />
<glyph unicode="&#xe3;" horiz-adv-x="542" d="M48 0zM193 16q88 0 143 54t75 147l6 40h-149q-87 0 -138.5 -34.5t-51.5 -107.5q0 -50 30.5 -74.5t84.5 -24.5zM185 -10q-62 0 -99.5 31t-37.5 91q0 85 59.5 127.5t159.5 42.5h154q4 25 6 40t2 27q0 65 -33.5 89t-99.5 24q-63 0 -104 -18.5t-71 -51.5l-15 19 q33 40 81.5 58.5t112.5 18.5q79 0 119 -30.5t40 -102.5q0 -12 -1.5 -25.5t-3.5 -29.5l-47 -300h-26l16 120q-31 -63 -85.5 -96.5t-126.5 -33.5zM425 656h25q-2 -23 -10 -37.5t-18.5 -23t-22.5 -11.5t-22 -3q-20 0 -33.5 8.5t-25.5 19t-24 19t-29 8.5q-14 0 -27.5 -10 t-17.5 -41h-25q3 23 10.5 37.5t17.5 23t21.5 11.5t22.5 3q20 0 33.5 -8.5t25.5 -19t24 -19t30 -8.5q17 0 29 11t16 40z" />
<glyph unicode="&#xe4;" horiz-adv-x="542" d="M48 0zM193 16q88 0 143 54t75 147l6 40h-149q-87 0 -138.5 -34.5t-51.5 -107.5q0 -50 30.5 -74.5t84.5 -24.5zM185 -10q-62 0 -99.5 31t-37.5 91q0 85 59.5 127.5t159.5 42.5h154q4 25 6 40t2 27q0 65 -33.5 89t-99.5 24q-63 0 -104 -18.5t-71 -51.5l-15 19 q33 40 81.5 58.5t112.5 18.5q79 0 119 -30.5t40 -102.5q0 -12 -1.5 -25.5t-3.5 -29.5l-47 -300h-26l16 120q-31 -63 -85.5 -96.5t-126.5 -33.5zM386 580q-27 0 -27 26q0 17 9.5 25.5t24.5 8.5q27 0 27 -26q0 -16 -9.5 -25t-24.5 -9zM251 580q-26 0 -26 26q0 17 9.5 25.5 t23.5 8.5q27 0 27 -26q0 -34 -34 -34z" />
<glyph unicode="&#xe5;" horiz-adv-x="542" d="M48 0zM193 16q88 0 143 54t75 147l6 40h-149q-87 0 -138.5 -34.5t-51.5 -107.5q0 -50 30.5 -74.5t84.5 -24.5zM185 -10q-62 0 -99.5 31t-37.5 91q0 85 59.5 127.5t159.5 42.5h154q4 25 6 40t2 27q0 65 -33.5 89t-99.5 24q-63 0 -104 -18.5t-71 -51.5l-15 19 q33 40 81.5 58.5t112.5 18.5q79 0 119 -30.5t40 -102.5q0 -12 -1.5 -25.5t-3.5 -29.5l-47 -300h-26l16 120q-31 -63 -85.5 -96.5t-126.5 -33.5zM318 543q-32 0 -53 21.5t-21 55.5q0 40 25.5 67.5t64.5 27.5q32 0 53 -21.5t21 -54.5q0 -41 -25.5 -68.5t-64.5 -27.5zM333 698 q-30 0 -50 -22t-20 -54q0 -27 15.5 -44.5t40.5 -17.5q29 0 49.5 22t20.5 54q0 27 -15.5 44.5t-40.5 17.5z" />
<glyph unicode="&#xe6;" horiz-adv-x="890" d="M192 -10q-66 0 -104.5 30t-38.5 88q0 79 60.5 120.5t163.5 41.5h156q5 34 7.5 50.5t2.5 28.5q0 65 -33.5 89t-99.5 24q-63 0 -104 -18.5t-71 -51.5l-14 19q33 40 81 58.5t112 18.5q78 0 115.5 -30.5t39.5 -99.5q63 130 212 130q81 0 122.5 -44.5t41.5 -129.5 q0 -16 -1 -33.5t-6 -35.5h-378q-2 -15 -4 -34t-2 -37q0 -81 39.5 -119.5t116.5 -38.5q63 0 108 24t74 77l22 -13q-33 -60 -85.5 -87t-121.5 -27q-78 0 -125 36t-56 112q-31 -71 -89 -109.5t-141 -38.5zM674 463q-89 0 -140.5 -53t-71.5 -140h346q3 24 3 44q0 149 -137 149z M201 16q89 0 147.5 56t75.5 166l1 7h-150q-91 0 -143.5 -32.5t-52.5 -101.5q0 -48 32 -71.5t90 -23.5z" />
<glyph unicode="&#xe7;" horiz-adv-x="526" d="M205 -221q-32 0 -54 11.5t-35 37.5l19 14q11 -23 27 -32.5t45 -9.5q79 0 79 56q0 15 -7 25t-18 15t-24.5 5.5t-27.5 -3.5l-10 7l31 85q-169 8 -169 180q0 29 6 67q39 251 254 251q69 0 108.5 -29t56.5 -80l-26 -12q-29 95 -140 95q-94 0 -149 -53.5t-73 -171.5 q-6 -38 -6 -67q0 -81 39 -117.5t119 -36.5q60 0 103 21.5t72 69.5l22 -15q-31 -53 -79.5 -76.5t-112.5 -25.5l-28 -73q32 5 57.5 -9.5t25.5 -49.5q0 -40 -28.5 -59.5t-76.5 -19.5z" />
<glyph unicode="&#xe8;" horiz-adv-x="531" d="M61 0zM244 -10q-87 0 -135 45t-48 139q0 30 6 65q20 124 84 186.5t167 62.5q80 0 122 -44.5t42 -129.5q0 -38 -9 -83h-377q-2 -11 -3 -25.5t-1 -21.5q-2 -81 35.5 -124.5t119.5 -43.5q62 0 107.5 23.5t74.5 75.5l21 -15q-32 -57 -83 -83.5t-123 -26.5zM315 462 q-175 0 -214 -206h347q2 15 3 29.5t1 28.5q0 148 -137 148zM309 563l-100 104v4h43l84 -105v-3h-27z" />
<glyph unicode="&#xe9;" horiz-adv-x="531" d="M61 0zM403 671h44l-1 -4l-115 -104h-27v3zM244 -10q-87 0 -135 45t-48 139q0 30 6 65q20 124 84 186.5t167 62.5q80 0 122 -44.5t42 -129.5q0 -38 -9 -83h-377q-2 -11 -3 -25.5t-1 -21.5q-2 -81 35.5 -124.5t119.5 -43.5q62 0 107.5 23.5t74.5 75.5l21 -15 q-32 -57 -83 -83.5t-123 -26.5zM315 462q-175 0 -214 -206h347q2 15 3 29.5t1 28.5q0 148 -137 148z" />
<glyph unicode="&#xea;" horiz-adv-x="531" d="M61 0zM334 650l-109 -87h-36v2l133 106h26l98 -106v-2h-33zM244 -10q-87 0 -135 45t-48 139q0 30 6 65q20 124 84 186.5t167 62.5q80 0 122 -44.5t42 -129.5q0 -38 -9 -83h-377q-2 -11 -3 -25.5t-1 -21.5q-2 -81 35.5 -124.5t119.5 -43.5q62 0 107.5 23.5t74.5 75.5 l21 -15q-32 -57 -83 -83.5t-123 -26.5zM315 462q-175 0 -214 -206h347q2 15 3 29.5t1 28.5q0 148 -137 148z" />
<glyph unicode="&#xeb;" horiz-adv-x="531" d="M61 0zM390 580q-27 0 -27 26q0 17 9.5 25.5t24.5 8.5q27 0 27 -26q0 -16 -9.5 -25t-24.5 -9zM255 580q-26 0 -26 26q0 17 9.5 25.5t23.5 8.5q27 0 27 -26q0 -34 -34 -34zM244 -10q-87 0 -135 45t-48 139q0 30 6 65q20 124 84 186.5t167 62.5q80 0 122 -44.5t42 -129.5 q0 -38 -9 -83h-377q-2 -11 -3 -25.5t-1 -21.5q-2 -81 35.5 -124.5t119.5 -43.5q62 0 107.5 23.5t74.5 75.5l21 -15q-32 -57 -83 -83.5t-123 -26.5zM315 462q-175 0 -214 -206h347q2 15 3 29.5t1 28.5q0 148 -137 148z" />
<glyph unicode="&#xec;" horiz-adv-x="238" d="M60 0zM142 478h30l-75 -478h-30zM160 563l-100 104v4h43l84 -105v-3h-27z" />
<glyph unicode="&#xed;" horiz-adv-x="238" d="M67 0zM254 671h44l-1 -4l-115 -104h-27v3zM142 478h30l-75 -478h-30z" />
<glyph unicode="&#xee;" horiz-adv-x="238" d="M40 0zM185 650l-109 -87h-36v2l133 106h26l98 -106v-2h-33zM142 478h30l-75 -478h-30z" />
<glyph unicode="&#xef;" horiz-adv-x="238" d="M67 0zM241 580q-27 0 -27 26q0 17 9.5 25.5t24.5 8.5q27 0 27 -26q0 -16 -9.5 -25t-24.5 -9zM106 580q-26 0 -26 26q0 17 9.5 25.5t23.5 8.5q27 0 27 -26q0 -34 -34 -34zM142 478h30l-75 -478h-30z" />
<glyph unicode="&#xf0;" horiz-adv-x="567" d="M547 696l9 -19l-102 -59q32 -45 45 -102.5t13 -126.5q0 -61 -9 -127q-9 -72 -31 -123.5t-55 -84.5t-76 -48.5t-95 -15.5q-91 0 -138 44t-47 136q0 31 6 67q19 128 83 189t171 61q136 0 163 -112q2 72 -11.5 129t-43.5 99l-96 -55l-9 19l91 53q-49 59 -132 89l13 22 q94 -33 145 -96zM469 237q6 37 6 69q0 79 -38 117t-118 38q-188 0 -222 -224q-6 -38 -6 -68q0 -153 157 -153q187 0 221 221z" />
<glyph unicode="&#xf1;" horiz-adv-x="593" d="M63 0zM63 0l76 478h27l-17 -125q35 67 91 101t126 34q72 0 109.5 -33t37.5 -102q0 -11 -1 -23t-3 -26l-48 -304h-30l47 297q2 13 3 25t1 23q0 64 -34.5 90t-92.5 26q-43 0 -79 -15.5t-64.5 -42.5t-48 -65t-29.5 -83l-41 -255h-30zM462 656h25q-2 -23 -10 -37.5t-18.5 -23 t-22.5 -11.5t-22 -3q-20 0 -33.5 8.5t-25.5 19t-24 19t-29 8.5q-14 0 -27.5 -10t-17.5 -41h-25q3 23 10.5 37.5t17.5 23t21.5 11.5t22.5 3q20 0 33.5 -8.5t25.5 -19t24 -19t30 -8.5q17 0 29 11t16 40z" />
<glyph unicode="&#xf2;" horiz-adv-x="566" d="M61 0zM67 238q20 128 84 189t170 61q91 0 138 -44t47 -136q0 -33 -6 -70q-20 -127 -84 -187.5t-171 -60.5q-91 0 -137.5 43.5t-46.5 136.5q0 30 6 68zM469 237q6 39 6 70q0 155 -157 155q-95 0 -148.5 -55t-71.5 -170q-6 -38 -6 -68q0 -78 38 -115.5t118 -37.5 q95 0 149 54t72 167zM321 563l-100 104v4h43l84 -105v-3h-27z" />
<glyph unicode="&#xf3;" horiz-adv-x="566" d="M61 0zM415 671h44l-1 -4l-115 -104h-27v3zM67 238q20 128 84 189t170 61q91 0 138 -44t47 -136q0 -33 -6 -70q-20 -127 -84 -187.5t-171 -60.5q-91 0 -137.5 43.5t-46.5 136.5q0 30 6 68zM469 237q6 39 6 70q0 155 -157 155q-95 0 -148.5 -55t-71.5 -170q-6 -38 -6 -68 q0 -78 38 -115.5t118 -37.5q95 0 149 54t72 167z" />
<glyph unicode="&#xf4;" horiz-adv-x="566" d="M61 0zM347 650l-109 -87h-36v2l133 106h26l98 -106v-2h-33zM67 238q20 128 84 189t170 61q91 0 138 -44t47 -136q0 -33 -6 -70q-20 -127 -84 -187.5t-171 -60.5q-91 0 -137.5 43.5t-46.5 136.5q0 30 6 68zM469 237q6 39 6 70q0 155 -157 155q-95 0 -148.5 -55t-71.5 -170 q-6 -38 -6 -68q0 -78 38 -115.5t118 -37.5q95 0 149 54t72 167z" />
<glyph unicode="&#xf5;" horiz-adv-x="566" d="M61 0zM67 238q20 128 84 189t170 61q91 0 138 -44t47 -136q0 -33 -6 -70q-20 -127 -84 -187.5t-171 -60.5q-91 0 -137.5 43.5t-46.5 136.5q0 30 6 68zM469 237q6 39 6 70q0 155 -157 155q-95 0 -148.5 -55t-71.5 -170q-6 -38 -6 -68q0 -78 38 -115.5t118 -37.5 q95 0 149 54t72 167zM441 656h25q-2 -23 -10 -37.5t-18.5 -23t-22.5 -11.5t-22 -3q-20 0 -33.5 8.5t-25.5 19t-24 19t-29 8.5q-14 0 -27.5 -10t-17.5 -41h-25q3 23 10.5 37.5t17.5 23t21.5 11.5t22.5 3q20 0 33.5 -8.5t25.5 -19t24 -19t30 -8.5q17 0 29 11t16 40z" />
<glyph unicode="&#xf6;" horiz-adv-x="566" d="M61 0zM402 580q-27 0 -27 26q0 17 9.5 25.5t24.5 8.5q27 0 27 -26q0 -16 -9.5 -25t-24.5 -9zM267 580q-26 0 -26 26q0 17 9.5 25.5t23.5 8.5q27 0 27 -26q0 -34 -34 -34zM67 238q20 128 84 189t170 61q91 0 138 -44t47 -136q0 -33 -6 -70q-20 -127 -84 -187.5t-171 -60.5 q-91 0 -137.5 43.5t-46.5 136.5q0 30 6 68zM469 237q6 39 6 70q0 155 -157 155q-95 0 -148.5 -55t-71.5 -170q-6 -38 -6 -68q0 -78 38 -115.5t118 -37.5q95 0 149 54t72 167z" />
<glyph unicode="&#xf7;" horiz-adv-x="486" d="M261 418q-26 0 -26 26q0 17 9.5 25.5t23.5 8.5q27 0 27 -26q0 -34 -34 -34zM435 318l-4 -26h-379l4 26h379zM218 138q-27 0 -27 26q0 17 9.5 25.5t23.5 8.5q28 0 28 -26q0 -16 -10 -25t-24 -9z" />
<glyph unicode="&#xf8;" horiz-adv-x="566" d="M531 478h34l-80 -72q20 -42 20 -100q0 -16 -1 -33t-4 -36q-20 -125 -84 -186t-171 -61q-53 0 -91 15t-60 47l-57 -52h-34l78 71q-20 40 -20 99q0 16 1 32.5t4 34.5q40 251 255 251q106 0 151 -63zM319 462q-95 0 -149.5 -55.5t-72.5 -169.5q-6 -36 -6 -67q0 -44 14 -77 l345 313q-36 56 -131 56zM248 16q96 0 149.5 54.5t71.5 166.5q6 37 6 69q0 46 -15 78l-344 -312q35 -56 132 -56z" />
<glyph unicode="&#xf9;" horiz-adv-x="592" d="M80 0zM229 -10q-73 0 -111 35t-38 107q0 22 5 50l47 296h30l-46 -289q-2 -14 -3 -26.5t-1 -23.5q0 -67 33.5 -94.5t91.5 -27.5q45 0 81 14.5t63 40t45.5 61t28.5 77.5l43 268h30l-76 -478h-26l15 114q-34 -62 -89 -93t-123 -31zM336 563l-100 104v4h43l84 -105v-3h-27z " />
<glyph unicode="&#xfa;" horiz-adv-x="592" d="M80 0zM430 671h44l-1 -4l-115 -104h-27v3zM229 -10q-73 0 -111 35t-38 107q0 22 5 50l47 296h30l-46 -289q-2 -14 -3 -26.5t-1 -23.5q0 -67 33.5 -94.5t91.5 -27.5q45 0 81 14.5t63 40t45.5 61t28.5 77.5l43 268h30l-76 -478h-26l15 114q-34 -62 -89 -93t-123 -31z" />
<glyph unicode="&#xfb;" horiz-adv-x="592" d="M80 0zM362 650l-109 -87h-36v2l133 106h26l98 -106v-2h-33zM229 -10q-73 0 -111 35t-38 107q0 22 5 50l47 296h30l-46 -289q-2 -14 -3 -26.5t-1 -23.5q0 -67 33.5 -94.5t91.5 -27.5q45 0 81 14.5t63 40t45.5 61t28.5 77.5l43 268h30l-76 -478h-26l15 114q-34 -62 -89 -93 t-123 -31z" />
<glyph unicode="&#xfc;" horiz-adv-x="592" d="M80 0zM417 580q-27 0 -27 26q0 17 9.5 25.5t24.5 8.5q27 0 27 -26q0 -16 -9.5 -25t-24.5 -9zM282 580q-26 0 -26 26q0 17 9.5 25.5t23.5 8.5q27 0 27 -26q0 -34 -34 -34zM229 -10q-73 0 -111 35t-38 107q0 22 5 50l47 296h30l-46 -289q-2 -14 -3 -26.5t-1 -23.5 q0 -67 33.5 -94.5t91.5 -27.5q45 0 81 14.5t63 40t45.5 61t28.5 77.5l43 268h30l-76 -478h-26l15 114q-34 -62 -89 -93t-123 -31z" />
<glyph unicode="&#xfd;" horiz-adv-x="458" d="M0 0zM154 -48l26 46l-125 480h32l114 -450l253 450h32l-307 -538q-27 -47 -51.5 -75t-48 -44t-46.5 -21t-47 -5q-18 0 -34.5 2.5t-34.5 10.5l10 26q14 -6 28.5 -9t34.5 -3q18 0 36.5 4t38.5 17.5t42 39.5t47 69zM367 671h44l-1 -4l-115 -104h-27v3z" />
<glyph unicode="&#xfe;" horiz-adv-x="589" d="M131 234q-2 -16 -3.5 -30t-1.5 -28q0 -82 42 -121t108 -39q91 0 144.5 58.5t70.5 164.5q6 37 6 68q0 75 -35 115t-105 40q-41 0 -78 -14t-67 -42.5t-51 -71t-30 -100.5zM206 700l-55 -342q34 67 89.5 98.5t124.5 31.5q81 0 122 -45.5t41 -133.5q0 -32 -6 -69 q-18 -119 -81 -184.5t-165 -65.5q-62 0 -106 30t-58 93l-47 -299h-31l141 886h31z" />
<glyph unicode="&#xff;" horiz-adv-x="458" d="M0 0zM154 -48l26 46l-125 480h32l114 -450l253 450h32l-307 -538q-27 -47 -51.5 -75t-48 -44t-46.5 -21t-47 -5q-18 0 -34.5 2.5t-34.5 10.5l10 26q14 -6 28.5 -9t34.5 -3q18 0 36.5 4t38.5 17.5t42 39.5t47 69zM354 580q-27 0 -27 26q0 17 9.5 25.5t24.5 8.5 q27 0 27 -26q0 -16 -9.5 -25t-24.5 -9zM219 580q-26 0 -26 26q0 17 9.5 25.5t23.5 8.5q27 0 27 -26q0 -34 -34 -34z" />
<glyph unicode="&#x100;" horiz-adv-x="581" d="M0 0zM357 667l-244 -469h341zM495 0l-36 171h-360l-89 -171h-34l366 700h39l145 -700h-31zM496 848l-3 -23h-222l3 23h222z" />
<glyph unicode="&#x101;" horiz-adv-x="542" d="M48 0zM193 16q88 0 143 54t75 147l6 40h-149q-87 0 -138.5 -34.5t-51.5 -107.5q0 -50 30.5 -74.5t84.5 -24.5zM185 -10q-62 0 -99.5 31t-37.5 91q0 85 59.5 127.5t159.5 42.5h154q4 25 6 40t2 27q0 65 -33.5 89t-99.5 24q-63 0 -104 -18.5t-71 -51.5l-15 19 q33 40 81.5 58.5t112.5 18.5q79 0 119 -30.5t40 -102.5q0 -12 -1.5 -25.5t-3.5 -29.5l-47 -300h-26l16 120q-31 -63 -85.5 -96.5t-126.5 -33.5zM437 626l-3 -23h-222l3 23h222z" />
<glyph unicode="&#x102;" horiz-adv-x="581" d="M0 0zM357 667l-244 -469h341zM495 0l-36 171h-360l-89 -171h-34l366 700h39l145 -700h-31zM483 891h25q-9 -59 -43.5 -82t-89.5 -23t-83 23t-19 82h25q-8 -48 12.5 -65.5t66.5 -17.5q45 0 71.5 17.5t34.5 65.5z" />
<glyph unicode="&#x103;" horiz-adv-x="542" d="M48 0zM193 16q88 0 143 54t75 147l6 40h-149q-87 0 -138.5 -34.5t-51.5 -107.5q0 -50 30.5 -74.5t84.5 -24.5zM185 -10q-62 0 -99.5 31t-37.5 91q0 85 59.5 127.5t159.5 42.5h154q4 25 6 40t2 27q0 65 -33.5 89t-99.5 24q-63 0 -104 -18.5t-71 -51.5l-15 19 q33 40 81.5 58.5t112.5 18.5q79 0 119 -30.5t40 -102.5q0 -12 -1.5 -25.5t-3.5 -29.5l-47 -300h-26l16 120q-31 -63 -85.5 -96.5t-126.5 -33.5zM423 669h25q-9 -59 -43.5 -82t-89.5 -23t-83 23t-19 82h25q-8 -48 12.5 -65.5t66.5 -17.5q45 0 71.5 17.5t34.5 65.5z" />
<glyph unicode="&#x104;" horiz-adv-x="581" d="M469 -198q-34 0 -59.5 16t-25.5 61q0 27 11 49t27 39t35 28t35 15l-34 161h-360l-89 -171h-33l366 700h39l145 -700h-8q-18 -1 -37 -11t-35 -26t-26.5 -37t-10.5 -44q0 -35 19.5 -46t46.5 -11q17 0 31 4.5t28 12.5l6 -22q-33 -18 -71 -18zM356 667l-244 -469h341z" />
<glyph unicode="&#x105;" horiz-adv-x="542" d="M429 -180q-32 -18 -71 -18q-34 0 -59.5 16t-25.5 61q0 26 10.5 48t26.5 39t35.5 29t37.5 18l14 107q-31 -63 -85.5 -96.5t-126.5 -33.5q-62 0 -99.5 31t-37.5 91q0 85 59.5 127.5t159.5 42.5h154q4 25 6 40t2 27q0 65 -33.5 89t-99.5 24q-63 0 -104 -18.5t-71 -51.5 l-15 19q33 40 81.5 58.5t112.5 18.5q79 0 119 -30.5t40 -102.5q0 -12 -1.5 -25.5t-3.5 -29.5l-47 -300q-17 -1 -36.5 -11t-35.5 -26t-26.5 -37t-10.5 -44q0 -35 20 -46t46 -11q17 0 31.5 4.5t28.5 12.5zM193 16q88 0 143 54t75 147l6 40h-149q-87 0 -138.5 -34.5 t-51.5 -107.5q0 -50 30.5 -74.5t84.5 -24.5z" />
<glyph unicode="&#x106;" horiz-adv-x="678" d="M80 0zM539 894h44l-1 -4l-115 -104h-27v3zM329 -10q-59 0 -105.5 14t-78.5 44t-48.5 78t-16.5 116q0 26 2 54t7 54q15 97 45.5 165.5t74.5 112t101 63t126 19.5q87 0 143 -33t82 -108l-28 -14q-23 71 -74 99.5t-126 28.5q-59 0 -109.5 -16.5t-90.5 -55.5t-69 -102.5 t-44 -157.5q-9 -60 -9 -108q0 -63 15.5 -106t44 -69.5t69.5 -38.5t92 -12q75 0 138 26.5t109 92.5l21 -18q-49 -71 -118 -99.5t-153 -28.5z" />
<glyph unicode="&#x107;" horiz-adv-x="526" d="M61 0zM412 671h44l-1 -4l-115 -104h-27v3zM425 107l22 -15q-32 -54 -83 -78t-118 -24q-185 0 -185 180q0 29 6 67q39 251 254 251q69 0 108.5 -29t56.5 -80l-26 -12q-29 95 -140 95q-94 0 -149 -53.5t-73 -171.5q-6 -38 -6 -67q0 -81 39 -117.5t119 -36.5q60 0 103 21.5 t72 69.5z" />
<glyph unicode="&#x108;" horiz-adv-x="678" d="M80 0zM471 873l-109 -87h-36v2l133 106h26l98 -106v-2h-33zM329 -10q-59 0 -105.5 14t-78.5 44t-48.5 78t-16.5 116q0 26 2 54t7 54q15 97 45.5 165.5t74.5 112t101 63t126 19.5q87 0 143 -33t82 -108l-28 -14q-23 71 -74 99.5t-126 28.5q-59 0 -109.5 -16.5t-90.5 -55.5 t-69 -102.5t-44 -157.5q-9 -60 -9 -108q0 -63 15.5 -106t44 -69.5t69.5 -38.5t92 -12q75 0 138 26.5t109 92.5l21 -18q-49 -71 -118 -99.5t-153 -28.5z" />
<glyph unicode="&#x109;" horiz-adv-x="526" d="M61 0zM343 650l-109 -87h-36v2l133 106h26l98 -106v-2h-33zM425 107l22 -15q-32 -54 -83 -78t-118 -24q-185 0 -185 180q0 29 6 67q39 251 254 251q69 0 108.5 -29t56.5 -80l-26 -12q-29 95 -140 95q-94 0 -149 -53.5t-73 -171.5q-6 -38 -6 -67q0 -81 39 -117.5 t119 -36.5q60 0 103 21.5t72 69.5z" />
<glyph unicode="&#x10a;" horiz-adv-x="678" d="M80 0zM329 -10q-59 0 -105.5 14t-78.5 44t-48.5 78t-16.5 116q0 26 2 54t7 54q15 97 45.5 165.5t74.5 112t101 63t126 19.5q87 0 143 -33t82 -108l-28 -14q-23 71 -74 99.5t-126 28.5q-59 0 -109.5 -16.5t-90.5 -55.5t-69 -102.5t-44 -157.5q-9 -60 -9 -108 q0 -63 15.5 -106t44 -69.5t69.5 -38.5t92 -12q75 0 138 26.5t109 92.5l21 -18q-49 -71 -118 -99.5t-153 -28.5zM459 803q-27 0 -27 26q0 17 9.5 25.5t23.5 8.5q28 0 28 -27q0 -15 -10 -24t-24 -9z" />
<glyph unicode="&#x10b;" horiz-adv-x="526" d="M61 0zM425 107l22 -15q-32 -54 -83 -78t-118 -24q-185 0 -185 180q0 29 6 67q39 251 254 251q69 0 108.5 -29t56.5 -80l-26 -12q-29 95 -140 95q-94 0 -149 -53.5t-73 -171.5q-6 -38 -6 -67q0 -81 39 -117.5t119 -36.5q60 0 103 21.5t72 69.5zM332 580q-27 0 -27 26 q0 17 9.5 25.5t23.5 8.5q28 0 28 -27q0 -15 -10 -24t-24 -9z" />
<glyph unicode="&#x10c;" horiz-adv-x="678" d="M80 0zM443 786l-99 106v2h34l80 -87l107 87h37v-2l-133 -106h-26zM329 -10q-59 0 -105.5 14t-78.5 44t-48.5 78t-16.5 116q0 26 2 54t7 54q15 97 45.5 165.5t74.5 112t101 63t126 19.5q87 0 143 -33t82 -108l-28 -14q-23 71 -74 99.5t-126 28.5q-59 0 -109.5 -16.5 t-90.5 -55.5t-69 -102.5t-44 -157.5q-9 -60 -9 -108q0 -63 15.5 -106t44 -69.5t69.5 -38.5t92 -12q75 0 138 26.5t109 92.5l21 -18q-49 -71 -118 -99.5t-153 -28.5z" />
<glyph unicode="&#x10d;" horiz-adv-x="526" d="M61 0zM315 563l-99 106v2h34l80 -87l107 87h37v-2l-133 -106h-26zM425 107l22 -15q-32 -54 -83 -78t-118 -24q-185 0 -185 180q0 29 6 67q39 251 254 251q69 0 108.5 -29t56.5 -80l-26 -12q-29 95 -140 95q-94 0 -149 -53.5t-73 -171.5q-6 -38 -6 -67q0 -81 39 -117.5 t119 -36.5q60 0 103 21.5t72 69.5z" />
<glyph unicode="&#x10e;" horiz-adv-x="717" d="M72 0zM425 785l-99 106v2h34l80 -87l107 87h37v-2l-133 -106h-26zM312 0h-240l111 700h239q57 0 101 -13t74.5 -41.5t46.5 -74t16 -109.5q0 -22 -2 -49t-7 -56q-15 -96 -45 -164t-73 -110.5t-99 -62.5t-122 -20zM107 27h206q57 0 106 17t89 56t68 102t43 155q9 54 9 100 q0 60 -14.5 101t-42 66.5t-66 37t-86.5 11.5h-210z" />
<glyph unicode="&#x10f;" horiz-adv-x="634" d="M61 0zM657 515h-22l36 185h36zM457 245q2 15 3.5 29t1.5 27q0 82 -41.5 121.5t-107.5 39.5q-91 0 -144 -56.5t-70 -162.5q-4 -23 -5.5 -38.5t-1.5 -30.5q0 -77 36.5 -117.5t111.5 -40.5q39 0 74.5 14t64 42t49 71t29.5 102zM448 0h-27l16 114q-35 -63 -89 -93.5 t-117 -30.5q-84 0 -127 46.5t-43 135.5q0 31 6 67q17 120 80.5 184.5t165.5 64.5q63 0 106 -29.5t57 -91.5l53 333h30z" />
<glyph unicode="&#x110;" horiz-adv-x="727" d="M322 0h-240l56 354h-82l4 25h82l51 321h239q57 0 101 -13t74.5 -41.5t46.5 -73t16 -108.5q0 -23 -2 -50t-7 -56q-15 -96 -45 -163.5t-73 -111t-99 -63.5t-122 -20zM117 27h207q56 0 105.5 17t89 56t67.5 102t43 155q9 54 9 100q0 60 -14.5 101t-42 66.5t-66 37 t-86.5 11.5h-210l-47 -294h182l-4 -25h-182z" />
<glyph unicode="&#x111;" horiz-adv-x="600" d="M457 245q2 15 3.5 29t1.5 27q0 82 -41.5 121.5t-107.5 39.5q-91 0 -144 -56.5t-70 -162.5q-4 -23 -5.5 -38.5t-1.5 -30.5q0 -77 36.5 -117.5t111.5 -40.5q39 0 74.5 14t64 42t49 71t29.5 102zM623 569h-85l-90 -569h-27l16 114q-35 -63 -89 -93.5t-117 -30.5 q-84 0 -127 46.5t-43 135.5q0 31 6 67q17 120 80.5 184.5t165.5 64.5q63 0 106 -29.5t57 -91.5l32 202h-171l4 23h170l18 108h30l-17 -108h84z" />
<glyph unicode="&#x112;" horiz-adv-x="632" d="M72 0zM72 0l111 700h467l-5 -27h-435l-49 -307h382l-4 -28h-382l-50 -311h446l-4 -27h-477zM551 848l-3 -23h-222l3 23h222z" />
<glyph unicode="&#x113;" horiz-adv-x="531" d="M61 0zM244 -10q-87 0 -135 45t-48 139q0 30 6 65q20 124 84 186.5t167 62.5q80 0 122 -44.5t42 -129.5q0 -38 -9 -83h-377q-2 -11 -3 -25.5t-1 -21.5q-2 -81 35.5 -124.5t119.5 -43.5q62 0 107.5 23.5t74.5 75.5l21 -15q-32 -57 -83 -83.5t-123 -26.5zM315 462 q-175 0 -214 -206h347q2 15 3 29.5t1 28.5q0 148 -137 148zM440 626l-3 -23h-222l3 23h222z" />
<glyph unicode="&#x114;" horiz-adv-x="632" d="M72 0zM72 0l111 700h467l-5 -27h-435l-49 -307h382l-4 -28h-382l-50 -311h446l-4 -27h-477zM538 891h25q-9 -59 -43.5 -82t-89.5 -23t-83 23t-19 82h25q-8 -48 12.5 -65.5t66.5 -17.5q45 0 71.5 17.5t34.5 65.5z" />
<glyph unicode="&#x115;" horiz-adv-x="531" d="M61 0zM244 -10q-87 0 -135 45t-48 139q0 30 6 65q20 124 84 186.5t167 62.5q80 0 122 -44.5t42 -129.5q0 -38 -9 -83h-377q-2 -11 -3 -25.5t-1 -21.5q-2 -81 35.5 -124.5t119.5 -43.5q62 0 107.5 23.5t74.5 75.5l21 -15q-32 -57 -83 -83.5t-123 -26.5zM315 462 q-175 0 -214 -206h347q2 15 3 29.5t1 28.5q0 148 -137 148zM427 669h25q-9 -59 -43.5 -82t-89.5 -23t-83 23t-19 82h25q-8 -48 12.5 -65.5t66.5 -17.5q45 0 71.5 17.5t34.5 65.5z" />
<glyph unicode="&#x116;" horiz-adv-x="632" d="M72 0zM72 0l111 700h467l-5 -27h-435l-49 -307h382l-4 -28h-382l-50 -311h446l-4 -27h-477zM434 802q-27 0 -27 26q0 17 9.5 25.5t23.5 8.5q28 0 28 -27q0 -15 -10 -24t-24 -9z" />
<glyph unicode="&#x117;" horiz-adv-x="531" d="M61 0zM244 -10q-87 0 -135 45t-48 139q0 30 6 65q20 124 84 186.5t167 62.5q80 0 122 -44.5t42 -129.5q0 -38 -9 -83h-377q-2 -11 -3 -25.5t-1 -21.5q-2 -81 35.5 -124.5t119.5 -43.5q62 0 107.5 23.5t74.5 75.5l21 -15q-32 -57 -83 -83.5t-123 -26.5zM315 462 q-175 0 -214 -206h347q2 15 3 29.5t1 28.5q0 148 -137 148zM323 580q-27 0 -27 26q0 17 9.5 25.5t23.5 8.5q28 0 28 -27q0 -15 -10 -24t-24 -9z" />
<glyph unicode="&#x118;" horiz-adv-x="632" d="M72 0l111 700h467l-5 -27h-435l-49 -307h382l-4 -28h-382l-49 -311h446l-4 -27q-19 -2 -38.5 -12t-35 -26t-25.5 -36.5t-10 -43.5q0 -35 19.5 -46t46.5 -11q17 0 31 4.5t28 12.5l5 -22q-32 -18 -70 -18q-34 0 -59.5 16t-25.5 61q0 42 25.5 74t55.5 47h-425z" />
<glyph unicode="&#x119;" horiz-adv-x="533" d="M284 -198q-33 0 -57.5 17.5t-24.5 61.5q0 40 16 67t39 42q-99 -3 -147.5 44t-48.5 140q0 30 6 65q20 124 84 186.5t167 62.5q80 0 122 -44.5t42 -129.5q0 -38 -9 -83h-377q-2 -11 -3 -25.5t-1 -21.5q-2 -81 35.5 -124.5t119.5 -43.5q62 0 107.5 23.5t74.5 75.5l21 -15 q-49 -85 -141 -103q-34 -10 -58.5 -38t-24.5 -73q0 -34 17.5 -47.5t43.5 -13.5q17 0 33 4t32 15l5 -21q-18 -11 -36.5 -16t-36.5 -5zM315 462q-175 0 -214 -206h347q2 15 3 29.5t1 28.5q0 148 -137 148z" />
<glyph unicode="&#x11a;" horiz-adv-x="632" d="M72 0zM417 785l-99 106v2h34l80 -87l107 87h37v-2l-133 -106h-26zM72 0l111 700h467l-5 -27h-435l-49 -307h382l-4 -28h-382l-50 -311h446l-4 -27h-477z" />
<glyph unicode="&#x11b;" horiz-adv-x="531" d="M61 0zM307 563l-99 106v2h34l80 -87l107 87h37v-2l-133 -106h-26zM244 -10q-87 0 -135 45t-48 139q0 30 6 65q20 124 84 186.5t167 62.5q80 0 122 -44.5t42 -129.5q0 -38 -9 -83h-377q-2 -11 -3 -25.5t-1 -21.5q-2 -81 35.5 -124.5t119.5 -43.5q62 0 107.5 23.5 t74.5 75.5l21 -15q-32 -57 -83 -83.5t-123 -26.5zM315 462q-175 0 -214 -206h347q2 15 3 29.5t1 28.5q0 148 -137 148z" />
<glyph unicode="&#x11c;" horiz-adv-x="700" d="M80 0zM464 872l-109 -87h-36v2l133 106h26l98 -106v-2h-33zM323 -10q-115 0 -179 59t-64 193q0 25 2.5 54.5t6.5 54.5q15 97 45 165.5t74 111.5t101.5 62.5t127.5 19.5q85 0 140 -31.5t79 -102.5l-28 -16q-22 67 -71.5 95t-123.5 28q-59 0 -110 -16.5t-91 -55.5 t-68.5 -103t-43.5 -158q-9 -59 -9 -106q0 -63 15.5 -106t44 -70t68.5 -39t90 -12q49 0 93 13.5t80 45t62 83t40 127.5h-218l4 26h247l-50 -312h-25l23 156q-35 -84 -101.5 -125t-160.5 -41z" />
<glyph unicode="&#x11d;" horiz-adv-x="584" d="M16 0zM329 650l-109 -87h-36v2l133 106h26l98 -106v-2h-33zM453 247q2 14 3.5 28t1.5 27q0 82 -41.5 121t-108.5 39q-89 0 -141.5 -57.5t-69.5 -163.5q-6 -35 -6 -65q0 -76 36.5 -116t108.5 -40q40 0 75 13.5t63.5 41.5t49 70.5t29.5 101.5zM520 478l-76 -481 q-9 -54 -31 -92.5t-54.5 -63t-74 -35.5t-89.5 -11q-63 0 -110 22t-69 83l25 17q19 -55 59 -75.5t97 -20.5q42 0 78.5 9.5t65 31t47.5 56.5t27 86l17 108q-34 -61 -87.5 -89.5t-116.5 -28.5q-81 0 -124 46t-43 135q0 15 1 31.5t4 34.5q19 118 80 182.5t160 64.5 q66 0 109.5 -31t57.5 -95l21 116h26z" />
<glyph unicode="&#x11e;" horiz-adv-x="700" d="M80 0zM323 -10q-115 0 -179 59t-64 193q0 25 2.5 54.5t6.5 54.5q15 97 45 165.5t74 111.5t101.5 62.5t127.5 19.5q85 0 140 -31.5t79 -102.5l-28 -16q-22 67 -71.5 95t-123.5 28q-59 0 -110 -16.5t-91 -55.5t-68.5 -103t-43.5 -158q-9 -59 -9 -106q0 -63 15.5 -106 t44 -70t68.5 -39t90 -12q49 0 93 13.5t80 45t62 83t40 127.5h-218l4 26h247l-50 -312h-25l23 156q-35 -84 -101.5 -125t-160.5 -41zM557 891h25q-9 -59 -43.5 -82t-89.5 -23t-83 23t-19 82h25q-8 -48 12.5 -65.5t66.5 -17.5q45 0 71.5 17.5t34.5 65.5z" />
<glyph unicode="&#x11f;" horiz-adv-x="584" d="M16 0zM453 247q2 14 3.5 28t1.5 27q0 82 -41.5 121t-108.5 39q-89 0 -141.5 -57.5t-69.5 -163.5q-6 -35 -6 -65q0 -76 36.5 -116t108.5 -40q40 0 75 13.5t63.5 41.5t49 70.5t29.5 101.5zM520 478l-76 -481q-9 -54 -31 -92.5t-54.5 -63t-74 -35.5t-89.5 -11q-63 0 -110 22 t-69 83l25 17q19 -55 59 -75.5t97 -20.5q42 0 78.5 9.5t65 31t47.5 56.5t27 86l17 108q-34 -61 -87.5 -89.5t-116.5 -28.5q-81 0 -124 46t-43 135q0 15 1 31.5t4 34.5q19 118 80 182.5t160 64.5q66 0 109.5 -31t57.5 -95l21 116h26zM422 669h25q-9 -59 -43.5 -82t-89.5 -23 t-83 23t-19 82h25q-8 -48 12.5 -65.5t66.5 -17.5q45 0 71.5 17.5t34.5 65.5z" />
<glyph unicode="&#x120;" horiz-adv-x="700" d="M80 0zM323 -10q-115 0 -179 59t-64 193q0 25 2.5 54.5t6.5 54.5q15 97 45 165.5t74 111.5t101.5 62.5t127.5 19.5q85 0 140 -31.5t79 -102.5l-28 -16q-22 67 -71.5 95t-123.5 28q-59 0 -110 -16.5t-91 -55.5t-68.5 -103t-43.5 -158q-9 -59 -9 -106q0 -63 15.5 -106 t44 -70t68.5 -39t90 -12q49 0 93 13.5t80 45t62 83t40 127.5h-218l4 26h247l-50 -312h-25l23 156q-35 -84 -101.5 -125t-160.5 -41zM454 802q-27 0 -27 26q0 17 9.5 25.5t23.5 8.5q28 0 28 -27q0 -15 -10 -24t-24 -9z" />
<glyph unicode="&#x121;" horiz-adv-x="584" d="M16 0zM453 247q2 14 3.5 28t1.5 27q0 82 -41.5 121t-108.5 39q-89 0 -141.5 -57.5t-69.5 -163.5q-6 -35 -6 -65q0 -76 36.5 -116t108.5 -40q40 0 75 13.5t63.5 41.5t49 70.5t29.5 101.5zM520 478l-76 -481q-9 -54 -31 -92.5t-54.5 -63t-74 -35.5t-89.5 -11q-63 0 -110 22 t-69 83l25 17q19 -55 59 -75.5t97 -20.5q42 0 78.5 9.5t65 31t47.5 56.5t27 86l17 108q-34 -61 -87.5 -89.5t-116.5 -28.5q-81 0 -124 46t-43 135q0 15 1 31.5t4 34.5q19 118 80 182.5t160 64.5q66 0 109.5 -31t57.5 -95l21 116h26zM318 580q-27 0 -27 26q0 17 9.5 25.5 t23.5 8.5q28 0 28 -27q0 -15 -10 -24t-24 -9z" />
<glyph unicode="&#x122;" horiz-adv-x="700" d="M80 0zM285 -222l-4 15q19 10 32 31.5t17 48.5q-14 -7 -25.5 0.5t-11.5 22.5q0 16 9 24.5t23 8.5q13 0 20 -7.5t7 -26.5q0 -18 -4.5 -36.5t-13 -34.5t-21 -28t-28.5 -18zM323 -10q-115 0 -179 59t-64 193q0 25 2.5 54.5t6.5 54.5q15 97 45 165.5t74 111.5t101.5 62.5 t127.5 19.5q85 0 140 -31.5t79 -102.5l-28 -16q-22 67 -71.5 95t-123.5 28q-59 0 -110 -16.5t-91 -55.5t-68.5 -103t-43.5 -158q-9 -59 -9 -106q0 -63 15.5 -106t44 -70t68.5 -39t90 -12q49 0 93 13.5t80 45t62 83t40 127.5h-218l4 26h247l-50 -312h-25l23 156 q-35 -84 -101.5 -125t-160.5 -41z" />
<glyph unicode="&#x123;" horiz-adv-x="584" d="M357 728l4 -15q-19 -10 -32 -31.5t-17 -48.5q14 7 25.5 -0.5t11.5 -22.5q0 -16 -9 -24.5t-23 -8.5q-13 0 -20 7.5t-7 26.5q0 18 4.5 36.5t13 34.5t21 28t28.5 18zM453 247q2 14 3.5 28t1.5 27q0 82 -41.5 121t-108.5 39q-89 0 -141.5 -57.5t-69.5 -163.5q-6 -35 -6 -65 q0 -76 36.5 -116t108.5 -40q40 0 75 13.5t63.5 41.5t49 70.5t29.5 101.5zM520 478l-76 -481q-9 -54 -31 -92.5t-54.5 -63t-74 -35.5t-89.5 -11q-63 0 -110 22t-69 83l25 17q19 -55 59 -75.5t97 -20.5q42 0 78.5 9.5t65 31t47.5 56.5t27 86l17 108q-34 -61 -87.5 -89.5 t-116.5 -28.5q-81 0 -124 46t-43 135q0 15 1 31.5t4 34.5q19 118 80 182.5t160 64.5q66 0 109.5 -31t57.5 -95l21 116h26z" />
<glyph unicode="&#x124;" horiz-adv-x="757" d="M72 0zM472 872l-109 -87h-36v2l133 106h26l98 -106v-2h-33zM565 0l54 338h-462l-54 -338h-31l111 700h31l-53 -334h462l53 334h31l-111 -700h-31z" />
<glyph unicode="&#x125;" horiz-adv-x="592" d="M63 0zM210 825l-109 -87h-36v2l133 106h26l98 -106v-2h-33zM204 700l-55 -347q35 67 91.5 101t125.5 34q72 0 109.5 -33t37.5 -102q0 -11 -1.5 -23t-3.5 -26l-47 -304h-30l46 297q2 14 3 26t1 23q0 63 -34 89t-92 26q-43 0 -79.5 -15.5t-64.5 -43t-47.5 -65.5t-29.5 -84 l-41 -253h-30l111 700h30z" />
<glyph unicode="&#x126;" horiz-adv-x="763" d="M163 366h462l20 125h-462zM78 514h78l30 186h31l-30 -186h462l30 186h31l-30 -186h86l-3 -23h-86l-78 -491h-31l53 338h-462l-53 -338h-31l78 491h-78z" />
<glyph unicode="&#x127;" horiz-adv-x="603" d="M79 569l3 23h85l18 108h30l-17 -108h170l-3 -23h-171l-34 -216q35 67 91.5 101t125.5 34q72 0 109.5 -33t37.5 -102q0 -11 -1.5 -23t-3.5 -26l-47 -304h-30l46 297q2 14 3 26t1 23q0 63 -34 89t-92 26q-43 0 -79.5 -15.5t-64.5 -43t-47.5 -65.5t-29.5 -84l-41 -253h-30 l90 569h-85z" />
<glyph unicode="&#x128;" horiz-adv-x="264" d="M72 0zM72 0l111 700h31l-111 -700h-31zM322 878h25q-2 -23 -10 -37.5t-18.5 -23t-22.5 -11.5t-22 -3q-20 0 -33.5 8.5t-25.5 19t-24 19t-29 8.5q-14 0 -27.5 -10t-17.5 -41h-25q3 23 10.5 37.5t17.5 23t21.5 11.5t22.5 3q20 0 33.5 -8.5t25.5 -19t24 -19t30 -8.5 q17 0 29 11t16 40z" />
<glyph unicode="&#x129;" horiz-adv-x="238" d="M50 0zM142 478h30l-75 -478h-30zM280 656h25q-2 -23 -10 -37.5t-18.5 -23t-22.5 -11.5t-22 -3q-20 0 -33.5 8.5t-25.5 19t-24 19t-29 8.5q-14 0 -27.5 -10t-17.5 -41h-25q3 23 10.5 37.5t17.5 23t21.5 11.5t22.5 3q20 0 33.5 -8.5t25.5 -19t24 -19t30 -8.5q17 0 29 11 t16 40z" />
<glyph unicode="&#x12a;" horiz-adv-x="264" d="M72 0zM72 0l111 700h31l-111 -700h-31zM333 848l-3 -23h-222l3 23h222z" />
<glyph unicode="&#x12b;" horiz-adv-x="238" d="M66 0zM142 478h30l-75 -478h-30zM291 626l-3 -23h-222l3 23h222z" />
<glyph unicode="&#x12c;" horiz-adv-x="264" d="M72 0zM72 0l111 700h31l-111 -700h-31zM320 891h25q-9 -59 -43.5 -82t-89.5 -23t-83 23t-19 82h25q-8 -48 12.5 -65.5t66.5 -17.5q45 0 71.5 17.5t34.5 65.5z" />
<glyph unicode="&#x12d;" horiz-adv-x="238" d="M59 0zM142 478h30l-75 -478h-30zM278 669h25q-9 -59 -43.5 -82t-89.5 -23t-83 23t-19 82h25q-8 -48 12.5 -65.5t66.5 -17.5q45 0 71.5 17.5t34.5 65.5z" />
<glyph unicode="&#x12e;" horiz-adv-x="264" d="M41 -198q-34 0 -59.5 16t-25.5 61q0 28 12 51.5t29.5 41t38 29t38.5 14.5l109 685h31l-111 -700h-15q-18 -2 -36.5 -12t-34.5 -26t-26 -36.5t-10 -43.5q0 -35 20 -46t46 -11q17 0 31 4.5t28 12.5l6 -22q-33 -18 -71 -18z" />
<glyph unicode="&#x12f;" horiz-adv-x="238" d="M174 579q-28 0 -28 26q0 16 10 25t24 9q28 0 28 -27q0 -16 -9.5 -24.5t-24.5 -8.5zM36 -198q-34 0 -59.5 16t-25.5 61q0 28 12 51.5t29.5 41t38 28.5t38.5 15l73 463h30l-75 -478h-12q-18 -1 -37 -11t-35 -26t-26.5 -37t-10.5 -44q0 -35 20 -46t46 -11q17 0 31 4.5 t28 12.5l6 -22q-33 -18 -71 -18z" />
<glyph unicode="&#x130;" horiz-adv-x="264" d="M72 0zM72 0l111 700h31l-111 -700h-31zM216 802q-27 0 -27 26q0 17 9.5 25.5t23.5 8.5q28 0 28 -27q0 -15 -10 -24t-24 -9z" />
<glyph unicode="&#x131;" horiz-adv-x="238" d="M142 478h30l-75 -478h-30z" />
<glyph unicode="&#x132;" horiz-adv-x="750" d="M72 0zM72 0l111 700h31l-111 -700h-31zM253 30l18 26q43 -39 115 -39q44 0 82.5 13.5t68.5 42t51 74t31 110.5l70 443h31l-70 -443q-12 -74 -36 -125t-58.5 -82.5t-78.5 -45.5t-96 -14q-79 0 -128 40z" />
<glyph unicode="&#x133;" horiz-adv-x="476" d="M67 0zM174 580q-28 0 -28 26q0 17 10 25.5t24 8.5q28 0 28 -26q0 -16 -9.5 -25t-24.5 -9zM142 478h30l-75 -478h-30zM412 580q-27 0 -27 26q0 17 9.5 25.5t24.5 8.5q27 0 27 -26q0 -16 -9.5 -25t-24.5 -9zM296 -56l84 534h30l-85 -540q-12 -76 -45 -109.5t-84 -33.5 q-18 0 -35 2.5t-34 10.5l9 25q14 -6 27.5 -9t33.5 -3q39 0 63.5 27t35.5 96z" />
<glyph unicode="&#x134;" horiz-adv-x="485" d="M0 0zM470 872l-109 -87h-36v2l133 106h26l98 -106v-2h-33zM-11 30l18 26q43 -39 115 -39q44 0 82.5 13.5t68.5 42t51 74t31 110.5l70 443h31l-70 -443q-12 -74 -36 -125t-58.5 -82.5t-78.5 -45.5t-96 -14q-79 0 -128 40z" />
<glyph unicode="&#x135;" horiz-adv-x="237" d="M0 0zM58 -56l84 534h30l-85 -540q-12 -76 -45 -109.5t-84 -33.5q-18 0 -35 2.5t-34 10.5l9 25q14 -6 27.5 -9t33.5 -3q39 0 63.5 27t35.5 96zM185 650l-109 -87h-36v2l133 106h26l98 -106v-2h-33z" />
<glyph unicode="&#x136;" horiz-adv-x="601" d="M72 0zM252 -222l-4 15q19 10 32 31.5t17 48.5q-14 -7 -25.5 0.5t-11.5 22.5q0 16 9 24.5t23 8.5q13 0 20 -7.5t7 -26.5q0 -18 -4.5 -36.5t-13 -34.5t-21 -28t-28.5 -18zM72 0l111 700h31l-70 -441l451 441h39l-322 -315l233 -385h-37l-220 362l-151 -146l-34 -216h-31z " />
<glyph unicode="&#x137;" horiz-adv-x="491" d="M63 0zM184 -222l-4 15q19 10 32 31.5t17 48.5q-14 -7 -25.5 0.5t-11.5 22.5q0 16 9 24.5t23 8.5q13 0 20 -7.5t7 -26.5q0 -18 -4.5 -36.5t-13 -34.5t-21 -28t-28.5 -18zM205 700l-84 -527l332 305h37l-229 -210l168 -268h-35l-154 247l-126 -115l-20 -132h-31l111 700h31 z" />
<glyph unicode="&#x138;" horiz-adv-x="493" d="M169 478l-48 -305l332 305h37l-229 -210l168 -268h-35l-155 247l-124 -112l-21 -135h-31l76 478h30z" />
<glyph unicode="&#x139;" horiz-adv-x="594" d="M72 0zM295 893h44l-1 -4l-115 -104h-27v3zM108 27h424l-4 -27h-456l111 700h31z" />
<glyph unicode="&#x13a;" horiz-adv-x="235" d="M64 0zM286 894h44l-1 -4l-115 -104h-27v3zM145 0q-42 0 -61.5 22t-11.5 70l96 608h31l-95 -603q-7 -44 7.5 -57t43.5 -13h43l-4 -27h-49z" />
<glyph unicode="&#x13b;" horiz-adv-x="594" d="M72 0zM259 -222l-4 15q19 10 32 31.5t17 48.5q-14 -7 -25.5 0.5t-11.5 22.5q0 16 9 24.5t23 8.5q13 0 20 -7.5t7 -26.5q0 -18 -4.5 -36.5t-13 -34.5t-21 -28t-28.5 -18zM108 27h424l-4 -27h-456l111 700h31z" />
<glyph unicode="&#x13c;" horiz-adv-x="240" d="M57 0zM145 0q-42 0 -61.5 22t-11.5 70l96 608h31l-95 -603q-7 -44 7.5 -57t43.5 -13h43l-4 -27h-49zM61 -222l-4 15q19 10 32 31.5t17 48.5q-14 -7 -25.5 0.5t-11.5 22.5q0 16 9 24.5t23 8.5q13 0 20 -7.5t7 -26.5q0 -18 -4.5 -36.5t-13 -34.5t-21 -28t-28.5 -18z" />
<glyph unicode="&#x13d;" horiz-adv-x="594" d="M72 0zM445 516h-22l36 185h36zM108 27h424l-4 -27h-456l111 700h31z" />
<glyph unicode="&#x13e;" horiz-adv-x="278" d="M64 0zM302 515h-22l36 185h36zM145 0q-42 0 -61.5 22t-11.5 70l96 608h31l-95 -603q-7 -44 7.5 -57t43.5 -13h43l-4 -27h-49z" />
<glyph unicode="&#x13f;" horiz-adv-x="594" d="M72 0zM108 27h424l-4 -27h-456l111 700h31zM418 323q-27 0 -27 26q0 17 9.5 25.5t23.5 8.5q28 0 28 -27q0 -15 -10 -24t-24 -9z" />
<glyph unicode="&#x140;" horiz-adv-x="305" d="M64 0zM145 0q-42 0 -61.5 22t-11.5 70l96 608h31l-95 -603q-7 -44 7.5 -57t43.5 -13h43l-4 -27h-49zM267 267q-27 0 -27 26q0 17 9.5 25.5t23.5 8.5q28 0 28 -27q0 -15 -10 -24t-24 -9z" />
<glyph unicode="&#x141;" horiz-adv-x="607" d="M121 27h424l-4 -27h-456l48 306l-123 -81l5 31l123 81l58 363h31l-54 -340l190 125l-5 -31l-190 -125z" />
<glyph unicode="&#x142;" horiz-adv-x="265" d="M215 0h-49q-42 0 -61.5 22t-11.5 70l35 223l-123 -105l5 33l123 104l56 353h31l-52 -328l137 116l-5 -32l-137 -116l-38 -243q-7 -44 7.5 -57t43.5 -13h43z" />
<glyph unicode="&#x143;" horiz-adv-x="750" d="M72 0zM538 893h44l-1 -4l-115 -104h-27v3zM557 0l-352 658l-103 -658h-30l111 700h34l349 -655l103 655h31l-111 -700h-32z" />
<glyph unicode="&#x144;" horiz-adv-x="593" d="M63 0zM436 671h44l-1 -4l-115 -104h-27v3zM63 0l76 478h27l-17 -125q35 67 91 101t126 34q72 0 109.5 -33t37.5 -102q0 -11 -1 -23t-3 -26l-48 -304h-30l47 297q2 13 3 25t1 23q0 64 -34.5 90t-92.5 26q-43 0 -79 -15.5t-64.5 -42.5t-48 -65t-29.5 -83l-41 -255h-30z" />
<glyph unicode="&#x145;" horiz-adv-x="750" d="M72 0zM290 -222l-4 15q19 10 32 31.5t17 48.5q-14 -7 -25.5 0.5t-11.5 22.5q0 16 9 24.5t23 8.5q13 0 20 -7.5t7 -26.5q0 -18 -4.5 -36.5t-13 -34.5t-21 -28t-28.5 -18zM557 0l-352 658l-103 -658h-30l111 700h34l349 -655l103 655h31l-111 -700h-32z" />
<glyph unicode="&#x146;" horiz-adv-x="593" d="M63 0zM219 -222l-4 15q19 10 32 31.5t17 48.5q-14 -7 -25.5 0.5t-11.5 22.5q0 16 9 24.5t23 8.5q13 0 20 -7.5t7 -26.5q0 -18 -4.5 -36.5t-13 -34.5t-21 -28t-28.5 -18zM63 0l76 478h27l-17 -125q35 67 91 101t126 34q72 0 109.5 -33t37.5 -102q0 -11 -1 -23t-3 -26 l-48 -304h-30l47 297q2 13 3 25t1 23q0 64 -34.5 90t-92.5 26q-43 0 -79 -15.5t-64.5 -42.5t-48 -65t-29.5 -83l-41 -255h-30z" />
<glyph unicode="&#x147;" horiz-adv-x="750" d="M72 0zM442 785l-99 106v2h34l80 -87l107 87h37v-2l-133 -106h-26zM557 0l-352 658l-103 -658h-30l111 700h34l349 -655l103 655h31l-111 -700h-32z" />
<glyph unicode="&#x148;" horiz-adv-x="593" d="M63 0zM340 563l-99 106v2h34l80 -87l107 87h37v-2l-133 -106h-26zM63 0l76 478h27l-17 -125q35 67 91 101t126 34q72 0 109.5 -33t37.5 -102q0 -11 -1 -23t-3 -26l-48 -304h-30l47 297q2 13 3 25t1 23q0 64 -34.5 90t-92.5 26q-43 0 -79 -15.5t-64.5 -42.5t-48 -65 t-29.5 -83l-41 -255h-30z" />
<glyph unicode="&#x14a;" horiz-adv-x="750" d="M550 -56l8 55l-352 658l-103 -657h-31l111 700h34l349 -654l103 654h31l-121 -762q-12 -77 -45 -110t-84 -33q-18 0 -34.5 2.5t-34.5 10.5l10 26q14 -6 27 -9t33 -3q41 0 64.5 28t34.5 94z" />
<glyph unicode="&#x14b;" horiz-adv-x="593" d="M422 -55l56 352q2 13 3 25t1 23q0 64 -34.5 90t-92.5 26q-43 0 -79 -15.5t-64.5 -42.5t-48 -65t-29.5 -83l-41 -255h-30l76 478h27l-17 -126q32 63 87 99.5t130 36.5q72 0 109.5 -33t37.5 -102q0 -11 -1 -23t-3 -26l-58 -366q-12 -77 -45 -110t-84 -33q-18 0 -35 2.5 t-34 10.5l9 26q14 -6 27.5 -9t33.5 -3q39 0 63.5 27t35.5 96z" />
<glyph unicode="&#x14c;" horiz-adv-x="743" d="M80 0zM571 847l-3 -23h-222l3 23h222zM89 350q15 98 45 166.5t74 111.5t101.5 62.5t127.5 19.5q60 0 106 -13.5t77.5 -43.5t48 -77t16.5 -114q0 -27 -2.5 -53.5t-7.5 -58.5q-15 -99 -45 -167.5t-74.5 -111.5t-101.5 -62t-126 -19q-59 0 -105.5 14t-78 44t-48 77 t-16.5 114q0 49 9 111zM653 460q0 62 -15 104.5t-43 69t-68.5 38t-92.5 11.5q-60 0 -111 -16.5t-90.5 -55t-68 -102.5t-43.5 -159q-5 -29 -7.5 -55t-2.5 -55q0 -62 15 -104.5t43 -68.5t69 -38t92 -12q60 0 111 16.5t90.5 55t68 102.5t43.5 160q5 29 7.5 54.5t2.5 54.5z" />
<glyph unicode="&#x14d;" horiz-adv-x="566" d="M61 0zM453 626l-3 -23h-222l3 23h222zM67 238q20 128 84 189t170 61q91 0 138 -44t47 -136q0 -33 -6 -70q-20 -127 -84 -187.5t-171 -60.5q-91 0 -137.5 43.5t-46.5 136.5q0 30 6 68zM469 237q6 39 6 70q0 155 -157 155q-95 0 -148.5 -55t-71.5 -170q-6 -38 -6 -68 q0 -78 38 -115.5t118 -37.5q95 0 149 54t72 167z" />
<glyph unicode="&#x14e;" horiz-adv-x="743" d="M80 0zM89 350q15 98 45 166.5t74 111.5t101.5 62.5t127.5 19.5q60 0 106 -13.5t77.5 -43.5t48 -77t16.5 -114q0 -27 -2.5 -53.5t-7.5 -58.5q-15 -99 -45 -167.5t-74.5 -111.5t-101.5 -62t-126 -19q-59 0 -105.5 14t-78 44t-48 77t-16.5 114q0 49 9 111zM653 460 q0 62 -15 104.5t-43 69t-68.5 38t-92.5 11.5q-60 0 -111 -16.5t-90.5 -55t-68 -102.5t-43.5 -159q-5 -29 -7.5 -55t-2.5 -55q0 -62 15 -104.5t43 -68.5t69 -38t92 -12q60 0 111 16.5t90.5 55t68 102.5t43.5 160q5 29 7.5 54.5t2.5 54.5zM558 890h25q-9 -59 -43.5 -82 t-89.5 -23t-83 23t-19 82h25q-8 -48 12.5 -65.5t66.5 -17.5q45 0 71.5 17.5t34.5 65.5z" />
<glyph unicode="&#x14f;" horiz-adv-x="566" d="M61 0zM67 238q20 128 84 189t170 61q91 0 138 -44t47 -136q0 -33 -6 -70q-20 -127 -84 -187.5t-171 -60.5q-91 0 -137.5 43.5t-46.5 136.5q0 30 6 68zM469 237q6 39 6 70q0 155 -157 155q-95 0 -148.5 -55t-71.5 -170q-6 -38 -6 -68q0 -78 38 -115.5t118 -37.5 q95 0 149 54t72 167zM439 669h25q-9 -59 -43.5 -82t-89.5 -23t-83 23t-19 82h25q-8 -48 12.5 -65.5t66.5 -17.5q45 0 71.5 17.5t34.5 65.5z" />
<glyph unicode="&#x150;" horiz-adv-x="743" d="M80 0zM581 892h44l-1 -4l-118 -104h-24v3zM477 892h42l-1 -4l-111 -104h-24v3zM89 350q15 98 45 166.5t74 111.5t101.5 62.5t127.5 19.5q60 0 106 -13.5t77.5 -43.5t48 -77t16.5 -114q0 -27 -2.5 -53.5t-7.5 -58.5q-15 -99 -45 -167.5t-74.5 -111.5t-101.5 -62t-126 -19 q-59 0 -105.5 14t-78 44t-48 77t-16.5 114q0 49 9 111zM653 460q0 62 -15 104.5t-43 69t-68.5 38t-92.5 11.5q-60 0 -111 -16.5t-90.5 -55t-68 -102.5t-43.5 -159q-5 -29 -7.5 -55t-2.5 -55q0 -62 15 -104.5t43 -68.5t69 -38t92 -12q60 0 111 16.5t90.5 55t68 102.5 t43.5 160q5 29 7.5 54.5t2.5 54.5z" />
<glyph unicode="&#x151;" horiz-adv-x="566" d="M61 0zM462 671h44l-1 -4l-118 -104h-24v3zM358 671h42l-1 -4l-111 -104h-24v3zM67 238q20 128 84 189t170 61q91 0 138 -44t47 -136q0 -33 -6 -70q-20 -127 -84 -187.5t-171 -60.5q-91 0 -137.5 43.5t-46.5 136.5q0 30 6 68zM469 237q6 39 6 70q0 155 -157 155 q-95 0 -148.5 -55t-71.5 -170q-6 -38 -6 -68q0 -78 38 -115.5t118 -37.5q95 0 149 54t72 167z" />
<glyph unicode="&#x152;" horiz-adv-x="1083" d="M424 700h677l-4 -27h-434l-49 -307h381l-4 -28h-381l-49 -311h444l-4 -27h-683q-114 0 -176 55.5t-62 184.5q0 46 9 103q14 95 43 163t71.5 111t98 63t122.5 20zM112 243q0 -59 14.5 -100.5t41.5 -67t65.5 -37t86.5 -11.5h209l102 646h-206q-58 0 -107.5 -17.5 t-88.5 -56.5t-66.5 -102t-42.5 -154q-4 -26 -6 -52t-2 -48z" />
<glyph unicode="&#x153;" horiz-adv-x="934" d="M648 -10q-77 0 -122.5 34.5t-56.5 107.5q-63 -142 -224 -142q-91 0 -137.5 44.5t-46.5 135.5q0 16 1 32.5t4 34.5q40 251 255 251q161 0 179 -146q64 146 222 146q80 0 122 -44.5t42 -129.5q0 -38 -9 -83h-377q-2 -11 -3 -25.5t-1 -21.5q-2 -81 35.5 -124.5t119.5 -43.5 q63 0 108 24t74 77l22 -13q-32 -60 -85 -87t-122 -27zM719 463q-87 0 -141.5 -52t-73.5 -155h348q2 15 3 29.5t1 28.5q0 149 -137 149zM469 237q6 37 6 69q0 156 -156 156q-96 0 -150 -55.5t-72 -169.5q-6 -36 -6 -67q0 -154 157 -154q95 0 149 54.5t72 166.5z" />
<glyph unicode="&#x154;" horiz-adv-x="641" d="M72 0zM509 893h44l-1 -4l-115 -104h-27v3zM396 288h-247l-46 -288h-31l111 700h247q104 0 151 -38t47 -114q0 -45 -11 -87t-34.5 -76t-59.5 -58t-85 -33l113 -294h-34l-111 289q-5 -1 -10 -1zM430 673h-220l-57 -357h228q46 0 85 14.5t68 43t45.5 71t16.5 99.5 q0 68 -40.5 98.5t-125.5 30.5z" />
<glyph unicode="&#x155;" horiz-adv-x="327" d="M63 0zM322 671h44l-1 -4l-115 -104h-27v3zM63 0l76 478h27l-17 -127q32 65 86 98.5t115 31.5l-5 -29q-76 2 -132 -50t-80 -151l-40 -251h-30z" />
<glyph unicode="&#x156;" horiz-adv-x="641" d="M72 0zM251 -222l-4 15q19 10 32 31.5t17 48.5q-14 -7 -25.5 0.5t-11.5 22.5q0 16 9 24.5t23 8.5q13 0 20 -7.5t7 -26.5q0 -18 -4.5 -36.5t-13 -34.5t-21 -28t-28.5 -18zM396 288h-247l-46 -288h-31l111 700h247q104 0 151 -38t47 -114q0 -45 -11 -87t-34.5 -76t-59.5 -58 t-85 -33l113 -294h-34l-111 289q-5 -1 -10 -1zM430 673h-220l-57 -357h228q46 0 85 14.5t68 43t45.5 71t16.5 99.5q0 68 -40.5 98.5t-125.5 30.5z" />
<glyph unicode="&#x157;" horiz-adv-x="327" d="M29 0zM33 -222l-4 15q19 10 32 31.5t17 48.5q-14 -7 -25.5 0.5t-11.5 22.5q0 16 9 24.5t23 8.5q13 0 20 -7.5t7 -26.5q0 -18 -4.5 -36.5t-13 -34.5t-21 -28t-28.5 -18zM64 0l76 478h27l-17 -127q32 65 86 98.5t115 31.5l-5 -29q-76 2 -132 -50t-80 -151l-40 -251h-30z " />
<glyph unicode="&#x158;" horiz-adv-x="641" d="M72 0zM413 785l-99 106v2h34l80 -87l107 87h37v-2l-133 -106h-26zM396 288h-247l-46 -288h-31l111 700h247q104 0 151 -38t47 -114q0 -45 -11 -87t-34.5 -76t-59.5 -58t-85 -33l113 -294h-34l-111 289q-5 -1 -10 -1zM430 673h-220l-57 -357h228q46 0 85 14.5t68 43 t45.5 71t16.5 99.5q0 68 -40.5 98.5t-125.5 30.5z" />
<glyph unicode="&#x159;" horiz-adv-x="326" d="M63 0zM242 563l-99 106v2h34l80 -87l107 87h37v-2l-133 -106h-26zM63 0l76 478h27l-17 -127q32 65 86 98.5t115 31.5l-5 -29q-76 2 -132 -50t-80 -151l-40 -251h-30z" />
<glyph unicode="&#x15a;" horiz-adv-x="591" d="M18 0zM442 892h44l-1 -4l-115 -104h-27v3zM557 584l-28 -16q-12 28 -28.5 49.5t-40 36.5t-54.5 22.5t-73 7.5q-97 0 -151 -44t-54 -119q0 -55 38.5 -88.5t116.5 -53.5l58 -15q51 -13 85 -30.5t54 -39t28.5 -47t8.5 -55.5q0 -100 -67.5 -151t-184.5 -51q-95 0 -155 31.5 t-92 102.5l27 16q16 -32 35 -55.5t44.5 -38.5t59.5 -22t81 -7q110 0 165 45.5t55 126.5q0 25 -7 47t-24 40t-46 33t-73 26l-60 15q-86 21 -132 62t-46 108q0 85 61.5 137.5t178.5 52.5q46 0 81 -8.5t61 -24.5t45 -39.5t33 -53.5z" />
<glyph unicode="&#x15b;" horiz-adv-x="492" d="M35 0zM366 671h44l-1 -4l-115 -104h-27v3zM224 16q76 0 113.5 29.5t37.5 77.5q0 37 -25.5 62t-83.5 38l-49 11q-124 28 -124 120q0 62 47.5 98t125.5 36q54 0 93.5 -17t69.5 -58l-23 -18q-28 38 -61 52.5t-80 14.5q-65 0 -103.5 -27.5t-38.5 -78.5q0 -33 22.5 -57 t78.5 -37l45 -10q39 -9 65.5 -21.5t42 -29t22 -35.5t6.5 -41q0 -61 -47.5 -98t-135.5 -37q-63 0 -108.5 21.5t-78.5 71.5l25 16q28 -44 66.5 -63.5t97.5 -19.5z" />
<glyph unicode="&#x15c;" horiz-adv-x="591" d="M18 0zM373 871l-109 -87h-36v2l133 106h26l98 -106v-2h-33zM557 584l-28 -16q-12 28 -28.5 49.5t-40 36.5t-54.5 22.5t-73 7.5q-97 0 -151 -44t-54 -119q0 -55 38.5 -88.5t116.5 -53.5l58 -15q51 -13 85 -30.5t54 -39t28.5 -47t8.5 -55.5q0 -100 -67.5 -151t-184.5 -51 q-95 0 -155 31.5t-92 102.5l27 16q16 -32 35 -55.5t44.5 -38.5t59.5 -22t81 -7q110 0 165 45.5t55 126.5q0 25 -7 47t-24 40t-46 33t-73 26l-60 15q-86 21 -132 62t-46 108q0 85 61.5 137.5t178.5 52.5q46 0 81 -8.5t61 -24.5t45 -39.5t33 -53.5z" />
<glyph unicode="&#x15d;" horiz-adv-x="492" d="M35 0zM297 650l-109 -87h-36v2l133 106h26l98 -106v-2h-33zM224 16q76 0 113.5 29.5t37.5 77.5q0 37 -25.5 62t-83.5 38l-49 11q-124 28 -124 120q0 62 47.5 98t125.5 36q54 0 93.5 -17t69.5 -58l-23 -18q-28 38 -61 52.5t-80 14.5q-65 0 -103.5 -27.5t-38.5 -78.5 q0 -33 22.5 -57t78.5 -37l45 -10q39 -9 65.5 -21.5t42 -29t22 -35.5t6.5 -41q0 -61 -47.5 -98t-135.5 -37q-63 0 -108.5 21.5t-78.5 71.5l25 16q28 -44 66.5 -63.5t97.5 -19.5z" />
<glyph unicode="&#x15e;" horiz-adv-x="591" d="M214 -220q-32 0 -54 11.5t-35 37.5l19 14q11 -23 27 -32.5t45 -9.5q79 0 79 56q0 15 -7 25t-18 15t-24.5 5.5t-27.5 -3.5l-10 7l31 85q-84 4 -137.5 35.5t-83.5 97.5l27 16q16 -32 35 -55.5t44.5 -38.5t59.5 -22t81 -7q110 0 165 45.5t55 126.5q0 25 -7 47t-24 40t-46 33 t-73 26l-60 15q-86 21 -132 62t-46 108q0 85 61.5 137.5t178.5 52.5q46 0 81 -8.5t61 -24.5t45 -39.5t33 -53.5l-28 -16q-12 28 -28.5 49.5t-40 36.5t-54.5 22.5t-73 7.5q-97 0 -151 -44t-54 -119q0 -55 38.5 -88.5t116.5 -53.5l58 -15q51 -13 85 -30.5t54 -39t28.5 -47 t8.5 -55.5q0 -100 -67.5 -151t-184.5 -51h-1l-28 -72q32 5 57.5 -9.5t25.5 -49.5q0 -40 -28.5 -59.5t-76.5 -19.5z" />
<glyph unicode="&#x15f;" horiz-adv-x="492" d="M178 -221q-32 0 -54 11.5t-35 37.5l19 14q11 -23 27 -32.5t45 -9.5q79 0 79 56q0 15 -7 25t-18 15t-24.5 5.5t-27.5 -3.5l-10 7l31 85q-55 3 -96 25t-72 68l25 16q28 -44 66.5 -63.5t97.5 -19.5q76 0 113.5 29.5t37.5 77.5q0 37 -25.5 62t-83.5 38l-49 11 q-124 28 -124 120q0 62 47.5 98t125.5 36q54 0 93.5 -17t69.5 -58l-23 -18q-28 38 -61 52.5t-80 14.5q-65 0 -103.5 -27.5t-38.5 -78.5q0 -33 22.5 -57t78.5 -37l45 -10q39 -9 65.5 -21.5t42 -29t22 -35.5t6.5 -41q0 -61 -46.5 -98t-130.5 -37l-28 -73q32 5 57.5 -9.5 t25.5 -49.5q0 -40 -28.5 -59.5t-76.5 -19.5z" />
<glyph unicode="&#x160;" horiz-adv-x="591" d="M18 0zM346 784l-99 106v2h34l80 -87l107 87h37v-2l-133 -106h-26zM557 584l-28 -16q-12 28 -28.5 49.5t-40 36.5t-54.5 22.5t-73 7.5q-97 0 -151 -44t-54 -119q0 -55 38.5 -88.5t116.5 -53.5l58 -15q51 -13 85 -30.5t54 -39t28.5 -47t8.5 -55.5q0 -100 -67.5 -151 t-184.5 -51q-95 0 -155 31.5t-92 102.5l27 16q16 -32 35 -55.5t44.5 -38.5t59.5 -22t81 -7q110 0 165 45.5t55 126.5q0 25 -7 47t-24 40t-46 33t-73 26l-60 15q-86 21 -132 62t-46 108q0 85 61.5 137.5t178.5 52.5q46 0 81 -8.5t61 -24.5t45 -39.5t33 -53.5z" />
<glyph unicode="&#x161;" horiz-adv-x="492" d="M35 0zM270 563l-99 106v2h34l80 -87l107 87h37v-2l-133 -106h-26zM224 16q76 0 113.5 29.5t37.5 77.5q0 37 -25.5 62t-83.5 38l-49 11q-124 28 -124 120q0 62 47.5 98t125.5 36q54 0 93.5 -17t69.5 -58l-23 -18q-28 38 -61 52.5t-80 14.5q-65 0 -103.5 -27.5t-38.5 -78.5 q0 -33 22.5 -57t78.5 -37l45 -10q39 -9 65.5 -21.5t42 -29t22 -35.5t6.5 -41q0 -61 -47.5 -98t-135.5 -37q-63 0 -108.5 21.5t-78.5 71.5l25 16q28 -44 66.5 -63.5t97.5 -19.5z" />
<glyph unicode="&#x162;" horiz-adv-x="548" d="M73 0zM188 -222l-4 15q19 10 32 31.5t17 48.5q-14 -7 -25.5 0.5t-11.5 22.5q0 16 9 24.5t23 8.5q13 0 20 -7.5t7 -26.5q0 -18 -4.5 -36.5t-13 -34.5t-21 -28t-28.5 -18zM78 700h522l-5 -27h-245l-107 -673h-31l107 673h-246z" />
<glyph unicode="&#x163;" horiz-adv-x="346" d="M59 0zM158 -222l-4 15q19 10 32 31.5t17 48.5q-14 -7 -25.5 0.5t-11.5 22.5q0 16 9 24.5t23 8.5q13 0 20 -7.5t7 -26.5q0 -18 -4.5 -36.5t-13 -34.5t-21 -28t-28.5 -18zM351 478l-4 -25h-164l-46 -287q-13 -81 6.5 -114.5t75.5 -33.5q23 0 38 3t33 8l1 -26 q-26 -8 -43 -10.5t-34 -2.5q-55 0 -84 26t-29 86q0 12 1.5 27t3.5 29l47 295h-94l3 25h95l23 148h30l-24 -148h165z" />
<glyph unicode="&#x164;" horiz-adv-x="548" d="M73 0zM339 785l-99 106v2h34l80 -87l107 87h37v-2l-133 -106h-26zM78 700h522l-5 -27h-245l-107 -673h-31l107 673h-246z" />
<glyph unicode="&#x165;" horiz-adv-x="346" d="M295 554h-23l33 162h37zM351 478l-4 -25h-164l-46 -287q-13 -81 6.5 -114.5t75.5 -33.5q23 0 38 3t33 8l1 -26q-26 -8 -43 -10.5t-34 -2.5q-55 0 -84 26t-29 86q0 12 1.5 27t3.5 29l47 295h-94l3 25h95l23 148h30l-24 -148h165z" />
<glyph unicode="&#x166;" horiz-adv-x="548" d="M69 363h200l50 310h-246l5 27h522l-5 -27h-245l-49 -310h200l-4 -23h-200l-53 -340h-32l53 340h-200z" />
<glyph unicode="&#x167;" horiz-adv-x="347" d="M38 322h94l21 131h-94l3 25h95l23 148h30l-24 -148h165l-4 -25h-164l-21 -131h164l-3 -22h-165l-21 -134q-13 -81 6.5 -114.5t75.5 -33.5q23 0 38 3t33 8l1 -26q-26 -8 -43 -10.5t-34 -2.5q-55 0 -84 26t-29 86q0 12 1.5 27t3.5 29l22 142h-94z" />
<glyph unicode="&#x168;" horiz-adv-x="720" d="M85 0zM589 259l70 441h31l-70 -440q-23 -140 -102.5 -205t-202.5 -65q-109 0 -169.5 49t-60.5 155q0 31 6 66l70 440h31l-70 -439q-3 -17 -4 -33t-1 -31q0 -95 52 -137.5t147 -42.5q54 0 99 13t80 42t59 75t35 112zM549 878h25q-2 -23 -10 -37.5t-18.5 -23t-22.5 -11.5 t-22 -3q-20 0 -33.5 8.5t-25.5 19t-24 19t-29 8.5q-14 0 -27.5 -10t-17.5 -41h-25q3 23 10.5 37.5t17.5 23t21.5 11.5t22.5 3q20 0 33.5 -8.5t25.5 -19t24 -19t30 -8.5q17 0 29 11t16 40z" />
<glyph unicode="&#x169;" horiz-adv-x="592" d="M80 0zM229 -10q-73 0 -111 35t-38 107q0 22 5 50l47 296h30l-46 -289q-2 -14 -3 -26.5t-1 -23.5q0 -67 33.5 -94.5t91.5 -27.5q45 0 81 14.5t63 40t45.5 61t28.5 77.5l43 268h30l-76 -478h-26l15 114q-34 -62 -89 -93t-123 -31zM456 656h25q-2 -23 -10 -37.5t-18.5 -23 t-22.5 -11.5t-22 -3q-20 0 -33.5 8.5t-25.5 19t-24 19t-29 8.5q-14 0 -27.5 -10t-17.5 -41h-25q3 23 10.5 37.5t17.5 23t21.5 11.5t22.5 3q20 0 33.5 -8.5t25.5 -19t24 -19t30 -8.5q17 0 29 11t16 40z" />
<glyph unicode="&#x16a;" horiz-adv-x="720" d="M85 0zM589 259l70 441h31l-70 -440q-23 -140 -102.5 -205t-202.5 -65q-109 0 -169.5 49t-60.5 155q0 31 6 66l70 440h31l-70 -439q-3 -17 -4 -33t-1 -31q0 -95 52 -137.5t147 -42.5q54 0 99 13t80 42t59 75t35 112zM560 848l-3 -23h-222l3 23h222z" />
<glyph unicode="&#x16b;" horiz-adv-x="592" d="M80 0zM229 -10q-73 0 -111 35t-38 107q0 22 5 50l47 296h30l-46 -289q-2 -14 -3 -26.5t-1 -23.5q0 -67 33.5 -94.5t91.5 -27.5q45 0 81 14.5t63 40t45.5 61t28.5 77.5l43 268h30l-76 -478h-26l15 114q-34 -62 -89 -93t-123 -31zM467 626l-3 -23h-222l3 23h222z" />
<glyph unicode="&#x16c;" horiz-adv-x="720" d="M85 0zM589 259l70 441h31l-70 -440q-23 -140 -102.5 -205t-202.5 -65q-109 0 -169.5 49t-60.5 155q0 31 6 66l70 440h31l-70 -439q-3 -17 -4 -33t-1 -31q0 -95 52 -137.5t147 -42.5q54 0 99 13t80 42t59 75t35 112zM547 891h25q-9 -59 -43.5 -82t-89.5 -23t-83 23t-19 82 h25q-8 -48 12.5 -65.5t66.5 -17.5q45 0 71.5 17.5t34.5 65.5z" />
<glyph unicode="&#x16d;" horiz-adv-x="592" d="M80 0zM229 -10q-73 0 -111 35t-38 107q0 22 5 50l47 296h30l-46 -289q-2 -14 -3 -26.5t-1 -23.5q0 -67 33.5 -94.5t91.5 -27.5q45 0 81 14.5t63 40t45.5 61t28.5 77.5l43 268h30l-76 -478h-26l15 114q-34 -62 -89 -93t-123 -31zM454 669h25q-9 -59 -43.5 -82t-89.5 -23 t-83 23t-19 82h25q-8 -48 12.5 -65.5t66.5 -17.5q45 0 71.5 17.5t34.5 65.5z" />
<glyph unicode="&#x16e;" horiz-adv-x="720" d="M85 0zM441 765q-32 0 -53 21.5t-21 55.5q0 40 25.5 67.5t64.5 27.5q32 0 53 -21.5t21 -54.5q0 -41 -25.5 -68.5t-64.5 -27.5zM456 920q-30 0 -50 -22t-20 -54q0 -27 15.5 -44.5t40.5 -17.5q29 0 49.5 22t20.5 54q0 27 -15.5 44.5t-40.5 17.5zM589 259l70 441h31l-70 -440 q-23 -140 -102.5 -205t-202.5 -65q-109 0 -169.5 49t-60.5 155q0 31 6 66l70 440h31l-70 -439q-3 -17 -4 -33t-1 -31q0 -95 52 -137.5t147 -42.5q54 0 99 13t80 42t59 75t35 112z" />
<glyph unicode="&#x16f;" horiz-adv-x="592" d="M80 0zM348 543q-32 0 -53 21.5t-21 55.5q0 40 25.5 67.5t64.5 27.5q32 0 53 -21.5t21 -54.5q0 -41 -25.5 -68.5t-64.5 -27.5zM363 698q-30 0 -50 -22t-20 -54q0 -27 15.5 -44.5t40.5 -17.5q29 0 49.5 22t20.5 54q0 27 -15.5 44.5t-40.5 17.5zM229 -10q-73 0 -111 35 t-38 107q0 22 5 50l47 296h30l-46 -289q-2 -14 -3 -26.5t-1 -23.5q0 -67 33.5 -94.5t91.5 -27.5q45 0 81 14.5t63 40t45.5 61t28.5 77.5l43 268h30l-76 -478h-26l15 114q-34 -62 -89 -93t-123 -31z" />
<glyph unicode="&#x170;" horiz-adv-x="720" d="M85 0zM589 259l70 441h31l-70 -440q-23 -140 -102.5 -205t-202.5 -65q-109 0 -169.5 49t-60.5 155q0 31 6 66l70 440h31l-70 -439q-3 -17 -4 -33t-1 -31q0 -95 52 -137.5t147 -42.5q54 0 99 13t80 42t59 75t35 112zM570 893h44l-1 -4l-118 -104h-24v3zM466 893h42l-1 -4 l-111 -104h-24v3z" />
<glyph unicode="&#x171;" horiz-adv-x="592" d="M80 0zM229 -10q-73 0 -111 35t-38 107q0 22 5 50l47 296h30l-46 -289q-2 -14 -3 -26.5t-1 -23.5q0 -67 33.5 -94.5t91.5 -27.5q45 0 81 14.5t63 40t45.5 61t28.5 77.5l43 268h30l-76 -478h-26l15 114q-34 -62 -89 -93t-123 -31zM477 671h44l-1 -4l-118 -104h-24v3z M373 671h42l-1 -4l-111 -104h-24v3z" />
<glyph unicode="&#x172;" horiz-adv-x="720" d="M588 261l71 439h31l-70 -439q-19 -115 -76.5 -180t-152.5 -83q-34 -8 -59 -36.5t-25 -73.5q0 -35 18 -49t44 -14q17 0 32.5 4t32.5 15l4 -21q-19 -11 -37.5 -16t-35.5 -5q-33 0 -57.5 18t-24.5 63q0 40 16 67t40 42q-51 -3 -97 5.5t-81 31.5t-55.5 63.5t-20.5 101.5 q0 31 6 67l70 439h32l-70 -436q-6 -36 -6 -67q0 -95 52 -137.5t147 -42.5q54 0 99 13.5t80.5 42.5t59 75.5t33.5 112.5z" />
<glyph unicode="&#x173;" horiz-adv-x="592" d="M402 -198q-34 0 -59.5 16t-25.5 61q0 27 11 49.5t27.5 39.5t35.5 28.5t36 15.5l17 121q-31 -70 -87 -106.5t-128 -36.5q-73 0 -111 35t-38 107q0 12 1 24.5t3 26.5l48 295h31l-47 -289q-2 -14 -3 -26.5t-1 -23.5q0 -67 33.5 -94.5t91.5 -27.5q45 0 81 14.5t63 40t45.5 61 t28.5 77.5l43 268h31l-77 -478h-2q-17 -1 -36 -11t-35 -26t-26.5 -37t-10.5 -44q0 -35 19.5 -46t46.5 -11q17 0 31 4.5t28 12.5l6 -22q-33 -18 -71 -18z" />
<glyph unicode="&#x174;" horiz-adv-x="876" d="M78 0zM528 872l-109 -87h-36v2l133 106h26l98 -106v-2h-33zM484 692h32l78 -646l303 654h31l-325 -700h-32l-79 643l-282 -643h-34l-98 700h31l90 -656z" />
<glyph unicode="&#x175;" horiz-adv-x="684" d="M49 0zM407 650l-109 -87h-36v2l133 106h26l98 -106v-2h-33zM357 467h32l73 -434l214 445h30l-232 -478h-33l-74 427l-198 -427h-35l-85 478h31l77 -443z" />
<glyph unicode="&#x176;" horiz-adv-x="575" d="M83 0zM270 286l-187 414h33l173 -385l296 385h36l-320 -415l-45 -285h-31zM378 872l-109 -87h-36v2l133 106h26l98 -106v-2h-33z" />
<glyph unicode="&#x177;" horiz-adv-x="458" d="M0 0zM154 -48l26 46l-125 480h32l114 -450l253 450h32l-307 -538q-27 -47 -51.5 -75t-48 -44t-46.5 -21t-47 -5q-18 0 -34.5 2.5t-34.5 10.5l10 26q14 -6 28.5 -9t34.5 -3q18 0 36.5 4t38.5 17.5t42 39.5t47 69zM298 650l-109 -87h-36v2l133 106h26l98 -106v-2h-33z" />
<glyph unicode="&#x178;" horiz-adv-x="575" d="M83 0zM270 286l-187 414h33l173 -385l296 385h36l-320 -415l-45 -285h-31zM434 802q-27 0 -27 26q0 17 9.5 25.5t24.5 8.5q27 0 27 -26q0 -16 -9.5 -25t-24.5 -9zM299 802q-26 0 -26 26q0 17 9.5 25.5t23.5 8.5q27 0 27 -26q0 -34 -34 -34z" />
<glyph unicode="&#x179;" horiz-adv-x="560" d="M0 0zM445 893h44l-1 -4l-115 -104h-27v3zM-15 0l4 25l560 648h-436l5 27h474l-4 -25l-561 -648h470l-4 -27h-508z" />
<glyph unicode="&#x17a;" horiz-adv-x="459" d="M2 0zM357 671h44l-1 -4l-115 -104h-27v3zM2 0l3 24l406 429h-325l4 25h362l-3 -24l-407 -429h341l-4 -25h-377z" />
<glyph unicode="&#x17b;" horiz-adv-x="560" d="M0 0zM-15 0l4 25l560 648h-436l5 27h474l-4 -25l-561 -648h470l-4 -27h-508zM365 802q-27 0 -27 26q0 17 9.5 25.5t23.5 8.5q28 0 28 -27q0 -15 -10 -24t-24 -9z" />
<glyph unicode="&#x17c;" horiz-adv-x="459" d="M2 0zM2 0l3 24l406 429h-325l4 25h362l-3 -24l-407 -429h341l-4 -25h-377zM278 580q-27 0 -27 26q0 17 9.5 25.5t23.5 8.5q28 0 28 -27q0 -15 -10 -24t-24 -9z" />
<glyph unicode="&#x17d;" horiz-adv-x="560" d="M0 0zM349 785l-99 106v2h34l80 -87l107 87h37v-2l-133 -106h-26zM-15 0l4 25l560 648h-436l5 27h474l-4 -25l-561 -648h470l-4 -27h-508z" />
<glyph unicode="&#x17e;" horiz-adv-x="459" d="M2 0zM262 563l-99 106v2h34l80 -87l107 87h37v-2l-133 -106h-26zM2 0l3 24l406 429h-325l4 25h362l-3 -24l-407 -429h341l-4 -25h-377z" />
<glyph unicode="&#x192;" horiz-adv-x="380" d="M58 -57l87 386h-94l5 24h95l28 120q17 76 55 109.5t97 33.5q20 0 40 -4t37 -13l-12 -26q-15 8 -29.5 11.5t-36.5 3.5q-48 0 -77.5 -26.5t-44.5 -93.5l-27 -115h164l-5 -24h-164l-89 -391q-17 -77 -52 -110t-86 -33q-17 0 -35 2.5t-33 10.5l11 26q14 -6 27 -9t33 -3 q38 0 64 27t42 94z" />
<glyph unicode="&#x218;" horiz-adv-x="591" d="M18 0zM222 -222l-4 15q19 10 32 31.5t17 48.5q-14 -7 -25.5 0.5t-11.5 22.5q0 16 9 24.5t23 8.5q13 0 20 -7.5t7 -26.5q0 -18 -4.5 -36.5t-13 -34.5t-21 -28t-28.5 -18zM557 584l-28 -16q-12 28 -28.5 49.5t-40 36.5t-54.5 22.5t-73 7.5q-97 0 -151 -44t-54 -119 q0 -55 38.5 -88.5t116.5 -53.5l58 -15q51 -13 85 -30.5t54 -39t28.5 -47t8.5 -55.5q0 -100 -67.5 -151t-184.5 -51q-95 0 -155 31.5t-92 102.5l27 16q16 -32 35 -55.5t44.5 -38.5t59.5 -22t81 -7q110 0 165 45.5t55 126.5q0 25 -7 47t-24 40t-46 33t-73 26l-60 15 q-86 21 -132 62t-46 108q0 85 61.5 137.5t178.5 52.5q46 0 81 -8.5t61 -24.5t45 -39.5t33 -53.5z" />
<glyph unicode="&#x219;" horiz-adv-x="492" d="M35 0zM171 -222l-4 15q19 10 32 31.5t17 48.5q-14 -7 -25.5 0.5t-11.5 22.5q0 16 9 24.5t23 8.5q13 0 20 -7.5t7 -26.5q0 -18 -4.5 -36.5t-13 -34.5t-21 -28t-28.5 -18zM224 16q76 0 113.5 29.5t37.5 77.5q0 37 -25.5 62t-83.5 38l-49 11q-124 28 -124 120q0 62 47.5 98 t125.5 36q54 0 93.5 -17t69.5 -58l-23 -18q-28 38 -61 52.5t-80 14.5q-65 0 -103.5 -27.5t-38.5 -78.5q0 -33 22.5 -57t78.5 -37l45 -10q39 -9 65.5 -21.5t42 -29t22 -35.5t6.5 -41q0 -61 -47.5 -98t-135.5 -37q-63 0 -108.5 21.5t-78.5 71.5l25 16q28 -44 66.5 -63.5 t97.5 -19.5z" />
<glyph unicode="&#x237;" horiz-adv-x="238" d="M58 -56l84 534h30l-85 -540q-12 -76 -45 -109.5t-84 -33.5q-18 0 -35 2.5t-34 10.5l9 25q14 -6 27.5 -9t33.5 -3q39 0 63.5 27t35.5 96z" />
<glyph unicode="&#x2c6;" horiz-adv-x="600" d="M303 650l-109 -87h-36v2l133 106h26l98 -106v-2h-33z" />
<glyph unicode="&#x2c7;" horiz-adv-x="600" d="M272 563l-99 106v2h34l80 -87l107 87h37v-2l-133 -106h-26z" />
<glyph unicode="&#x2d8;" horiz-adv-x="600" d="M400 669h25q-9 -59 -43.5 -82t-89.5 -23t-83 23t-19 82h25q-8 -48 12.5 -65.5t66.5 -17.5q45 0 71.5 17.5t34.5 65.5z" />
<glyph unicode="&#x2d9;" horiz-adv-x="600" d="M300 580q-27 0 -27 26q0 17 9.5 25.5t23.5 8.5q28 0 28 -27q0 -15 -10 -24t-24 -9z" />
<glyph unicode="&#x2da;" horiz-adv-x="600" d="M295 543q-32 0 -53 21.5t-21 55.5q0 40 25.5 67.5t64.5 27.5q32 0 53 -21.5t21 -54.5q0 -41 -25.5 -68.5t-64.5 -27.5zM310 698q-30 0 -50 -22t-20 -54q0 -27 15.5 -44.5t40.5 -17.5q29 0 49.5 22t20.5 54q0 27 -15.5 44.5t-40.5 17.5z" />
<glyph unicode="&#x2db;" horiz-adv-x="600" d="M297 -198q-34 0 -59.5 16t-25.5 61q0 30 14 55.5t34 43.5t43.5 28t41.5 11l1 -17q-17 -1 -36.5 -11t-35.5 -26t-26.5 -37t-10.5 -44q0 -35 20 -46t46 -11q17 0 31.5 4.5t28.5 12.5l5 -22q-32 -18 -71 -18z" />
<glyph unicode="&#x2dc;" horiz-adv-x="600" d="M410 656h25q-2 -23 -10 -37.5t-18.5 -23t-22.5 -11.5t-22 -3q-20 0 -33.5 8.5t-25.5 19t-24 19t-29 8.5q-14 0 -27.5 -10t-17.5 -41h-25q3 23 10.5 37.5t17.5 23t21.5 11.5t22.5 3q20 0 33.5 -8.5t25.5 -19t24 -19t30 -8.5q17 0 29 11t16 40z" />
<glyph unicode="&#x2dd;" horiz-adv-x="600" d="M436 671h44l-1 -4l-118 -104h-24v3zM332 671h42l-1 -4l-111 -104h-24v3z" />
<glyph unicode="&#x1e80;" horiz-adv-x="876" d="M78 0zM484 692h32l78 -646l303 654h31l-325 -700h-32l-79 643l-282 -643h-34l-98 700h31l90 -656zM503 785l-100 104v4h43l84 -105v-3h-27z" />
<glyph unicode="&#x1e81;" horiz-adv-x="684" d="M49 0zM357 467h32l73 -434l214 445h30l-232 -478h-33l-74 427l-198 -427h-35l-85 478h31l77 -443zM381 563l-100 104v4h43l84 -105v-3h-27z" />
<glyph unicode="&#x1e82;" horiz-adv-x="876" d="M78 0zM597 893h44l-1 -4l-115 -104h-27v3zM484 692h32l78 -646l303 654h31l-325 -700h-32l-79 643l-282 -643h-34l-98 700h31l90 -656z" />
<glyph unicode="&#x1e83;" horiz-adv-x="684" d="M49 0zM475 671h44l-1 -4l-115 -104h-27v3zM357 467h32l73 -434l214 445h30l-232 -478h-33l-74 427l-198 -427h-35l-85 478h31l77 -443z" />
<glyph unicode="&#x1e84;" horiz-adv-x="876" d="M78 0zM584 802q-27 0 -27 26q0 17 9.5 25.5t24.5 8.5q27 0 27 -26q0 -16 -9.5 -25t-24.5 -9zM449 802q-26 0 -26 26q0 17 9.5 25.5t23.5 8.5q27 0 27 -26q0 -34 -34 -34zM484 692h32l78 -646l303 654h31l-325 -700h-32l-79 643l-282 -643h-34l-98 700h31l90 -656z" />
<glyph unicode="&#x1e85;" horiz-adv-x="684" d="M49 0zM462 580q-27 0 -27 26q0 17 9.5 25.5t24.5 8.5q27 0 27 -26q0 -16 -9.5 -25t-24.5 -9zM327 580q-26 0 -26 26q0 17 9.5 25.5t23.5 8.5q27 0 27 -26q0 -34 -34 -34zM357 467h32l73 -434l214 445h30l-232 -478h-33l-74 427l-198 -427h-35l-85 478h31l77 -443z" />
<glyph unicode="&#x2000;" horiz-adv-x="468" />
<glyph unicode="&#x2001;" horiz-adv-x="937" />
<glyph unicode="&#x2002;" horiz-adv-x="500" />
<glyph unicode="&#x2003;" horiz-adv-x="1000" />
<glyph unicode="&#x2004;" horiz-adv-x="333" />
<glyph unicode="&#x2005;" horiz-adv-x="250" />
<glyph unicode="&#x2006;" horiz-adv-x="167" />
<glyph unicode="&#x2007;" />
<glyph unicode="&#x2008;" horiz-adv-x="194" />
<glyph unicode="&#x2009;" horiz-adv-x="200" />
<glyph unicode="&#x200a;" horiz-adv-x="100" />
<glyph unicode="&#x200b;" horiz-adv-x="0" />
<glyph unicode="&#x2010;" horiz-adv-x="392" d="M340 256l-4 -26h-294l4 26h294z" />
<glyph unicode="&#x2011;" horiz-adv-x="392" d="M340 256l-4 -26h-294l4 26h294z" />
<glyph unicode="&#x2012;" horiz-adv-x="577" d="M525 256l-4 -26h-479l4 26h479z" />
<glyph unicode="&#x2013;" horiz-adv-x="577" d="M525 256l-4 -26h-479l4 26h479z" />
<glyph unicode="&#x2014;" horiz-adv-x="773" d="M720 256l-4 -26h-675l4 26h675z" />
<glyph unicode="&#x2015;" horiz-adv-x="1066" d="M1014 256l-4 -26h-968l4 26h968z" />
<glyph unicode="&#x2018;" horiz-adv-x="196" d="M188 728l5 -15q-24 -11 -39.5 -36t-20.5 -55q14 7 26 -1t12 -22q0 -17 -9.5 -25.5t-23.5 -8.5q-13 0 -20.5 7.5t-7.5 25.5q0 19 5 39t14.5 38t24 32t34.5 21z" />
<glyph unicode="&#x2019;" horiz-adv-x="196" d="M97 552zM102 552l-5 15q24 11 39.5 36t20.5 55q-14 -7 -26 1t-12 22q0 17 9.5 25.5t23.5 8.5q13 0 20.5 -7.5t7.5 -25.5q0 -19 -5 -39t-14.5 -38t-24.5 -32t-34 -21z" />
<glyph unicode="&#x201a;" horiz-adv-x="194" d="M27 -109l-5 15q24 11 39.5 35.5t20.5 54.5q-14 -7 -26 1t-12 22q0 17 9.5 25.5t23.5 8.5q12 0 19.5 -7.5t7.5 -25.5q0 -19 -4.5 -39t-14.5 -37.5t-24.5 -31.5t-33.5 -21z" />
<glyph unicode="&#x201c;" horiz-adv-x="297" d="M188 728l5 -15q-24 -11 -39.5 -36t-20.5 -55q14 7 26 -1t12 -22q0 -17 -9.5 -25.5t-23.5 -8.5q-13 0 -20.5 7.5t-7.5 25.5q0 19 5 39t14.5 38t24 32t34.5 21zM290 728l5 -15q-24 -11 -39.5 -36t-20.5 -55q14 7 26 -1t12 -22q0 -17 -9.5 -25.5t-23.5 -8.5q-13 0 -20.5 7.5 t-7.5 25.5q0 19 5 39t14.5 38t24 32t34.5 21z" />
<glyph unicode="&#x201d;" horiz-adv-x="297" d="M97 551zM102 551l-5 15q24 11 39.5 36t20.5 55q-14 -7 -26 1t-12 22q0 17 9.5 25.5t23.5 8.5q13 0 20.5 -7.5t7.5 -25.5q0 -19 -5 -39t-14.5 -38t-24.5 -32t-34 -21zM203 551l-5 15q24 11 39.5 36t20.5 55q-14 -7 -26 1t-12 22q0 17 9.5 25.5t23.5 8.5q13 0 20.5 -7.5 t7.5 -25.5q0 -19 -5 -39t-14.5 -38t-24.5 -32t-34 -21z" />
<glyph unicode="&#x201e;" horiz-adv-x="295" d="M27 -109l-5 15q24 11 39.5 35.5t20.5 54.5q-14 -7 -26 1t-12 22q0 17 9.5 25.5t23.5 8.5q12 0 19.5 -7.5t7.5 -25.5q0 -19 -4.5 -39t-14.5 -37.5t-24.5 -31.5t-33.5 -21zM127 -109l-5 15q24 11 39.5 35.5t20.5 54.5q-14 -7 -26 1t-12 22q0 17 9.5 25.5t23.5 8.5 q12 0 19.5 -7.5t7.5 -25.5q0 -19 -4.5 -39t-14.5 -37.5t-24.5 -31.5t-33.5 -21z" />
<glyph unicode="&#x2020;" horiz-adv-x="301" d="M241 570h-72l-37 -236h-24l35 236h-72q1 6 2.5 11.5t2.5 11.5h71l17 116h30l-20 -116h72q-1 -6 -2.5 -11.5t-2.5 -11.5z" />
<glyph unicode="&#x2021;" horiz-adv-x="301" d="M55 465h72l17 108h-72l4 23h72l16 113h30l-20 -113h72l-4 -23h-72l-17 -108h72l-4 -23h-72l-16 -115h-30l20 115h-72z" />
<glyph unicode="&#x2022;" horiz-adv-x="422" d="M203 196q-54 0 -84.5 29t-30.5 80q0 35 11 63t31 48t47 31t59 11q54 0 84.5 -29t30.5 -80q0 -35 -11.5 -63t-31 -48t-47 -31t-58.5 -11z" />
<glyph unicode="&#x2026;" horiz-adv-x="581" d="M459 -6q-28 0 -28 26q0 16 10 25t24 9q28 0 28 -27q0 -16 -9.5 -24.5t-24.5 -8.5zM265 -6q-27 0 -27 26q0 16 9.5 25t24.5 9q27 0 27 -27q0 -16 -9.5 -24.5t-24.5 -8.5zM71 -6q-27 0 -27 26q0 16 9.5 25t24.5 9q27 0 27 -27q0 -16 -9.5 -24.5t-24.5 -8.5z" />
<glyph unicode="&#x202f;" horiz-adv-x="187" />
<glyph unicode="&#x2030;" horiz-adv-x="1412" d="M68 0zM791 414q63 0 95.5 -32.5t32.5 -107.5q0 -15 -1 -32.5t-4 -37.5q-18 -113 -64 -162t-122 -49q-63 0 -95.5 33t-32.5 108q0 14 1.5 33t3.5 37q9 58 25.5 98t40 65t53.5 36t67 11zM789 391q-29 0 -53.5 -9.5t-44.5 -31t-34.5 -57.5t-23.5 -89q-6 -39 -6 -70 q0 -65 27 -91t76 -26q30 0 55 9.5t44.5 31t34 57.5t22.5 89q6 37 6 69q0 66 -27 92t-76 26zM259 707q63 0 95.5 -32.5t32.5 -107.5q0 -15 -1 -32.5t-4 -37.5q-18 -113 -64 -162t-122 -49q-63 0 -95.5 33t-32.5 108q0 14 1.5 33t3.5 37q9 58 25.5 98t40 65t53.5 36t67 11z M257 684q-29 0 -53.5 -9.5t-44.5 -31t-34.5 -57.5t-23.5 -89q-6 -39 -6 -70q0 -65 27 -91t76 -26q30 0 55 9.5t44.5 31t34 57.5t22.5 89q6 37 6 69q0 66 -27 92t-76 26zM1195 414q63 0 95.5 -32.5t32.5 -107.5q0 -15 -1 -32.5t-4 -37.5q-18 -113 -64 -162t-122 -49 q-63 0 -95.5 33t-32.5 108q0 14 1.5 33t3.5 37q9 58 25.5 98t40 65t53.5 36t67 11zM1193 391q-29 0 -53.5 -9.5t-44.5 -31t-34.5 -57.5t-23.5 -89q-6 -39 -6 -70q0 -65 27 -91t76 -26q30 0 55 9.5t44.5 31t34 57.5t22.5 89q6 37 6 69q0 66 -27 92t-76 26zM722 700l-437 -700 h-29l438 700h28z" />
<glyph unicode="&#x2039;" horiz-adv-x="403" d="M218 0l-151 237l1 3l224 238h37l-228 -241l152 -237h-35z" />
<glyph unicode="&#x203a;" horiz-adv-x="403" d="M186 478l151 -237l-1 -3l-224 -238h-37l228 241l-152 237h35z" />
<glyph unicode="&#x2044;" horiz-adv-x="478" d="M466 700l-437 -700h-29l438 700h28z" />
<glyph unicode="&#x205f;" horiz-adv-x="234" />
<glyph unicode="&#x2070;" horiz-adv-x="405" d="M71 287zM262 708q63 0 95.5 -32.5t32.5 -107.5q0 -15 -1 -32.5t-4 -37.5q-18 -113 -64 -162t-122 -49q-63 0 -95.5 33t-32.5 108q0 14 1.5 33t3.5 37q9 58 25.5 98t40 65t53.5 36t67 11zM260 685q-29 0 -53.5 -9.5t-44.5 -31t-34.5 -57.5t-23.5 -89q-6 -39 -6 -70 q0 -65 27 -91t76 -26q30 0 55 9.5t44.5 31t34 57.5t22.5 89q6 37 6 69q0 66 -27 92t-76 26z" />
<glyph unicode="&#x2074;" horiz-adv-x="376" d="M45 294zM45 404l4 21l186 276h27l-185 -273h198l33 203h26l-32 -203h68l-3 -24h-69l-17 -110h-27l18 110h-227z" />
<glyph unicode="&#x2075;" horiz-adv-x="351" d="M43 287zM153 678l-45 -168q29 21 57 28.5t57 7.5q54 0 85.5 -23t31.5 -77q0 -33 -11.5 -62t-33.5 -50.5t-53 -34t-71 -12.5q-45 0 -77.5 17t-49.5 55l21 14q13 -29 38 -45.5t70 -16.5q34 0 60.5 11t44 29t26.5 41.5t9 49.5q0 83 -99 83q-35 0 -62.5 -10.5t-54.5 -30.5 l-15 7l54 210h226l-4 -23h-204z" />
<glyph unicode="&#x2076;" horiz-adv-x="376" d="M70 287zM202 287q-29 0 -53 8t-41.5 25.5t-27.5 45t-10 67.5q0 14 1.5 32.5t3.5 30.5q9 56 26.5 96.5t42.5 66t56 37.5t67 12q41 0 70 -15.5t41 -48.5l-21 -13q-11 30 -36 42t-56 12q-63 0 -105.5 -46.5t-57.5 -145.5q-2 -8 -3 -17t-2 -19q17 42 53.5 66t90.5 24 q53 0 84.5 -25.5t31.5 -76.5q0 -70 -41.5 -114t-113.5 -44zM234 525q-31 0 -55.5 -11t-41.5 -29t-26 -40.5t-9 -45.5q0 -17 6 -32.5t18 -28.5t31 -20.5t45 -7.5q27 0 50 8.5t40.5 25.5t27.5 41.5t10 56.5q0 39 -24.5 61t-71.5 22z" />
<glyph unicode="&#x2077;" horiz-adv-x="296" d="M84 294zM95 294q8 52 27 106.5t47.5 106t64.5 95.5t77 75h-227l4 24h262l-3 -21q-41 -25 -77.5 -67t-66 -94t-50.5 -110t-31 -115h-27z" />
<glyph unicode="&#x2078;" horiz-adv-x="374" d="M58 287zM181 287q-61 0 -92 25t-31 71q0 54 30.5 87.5t79.5 41.5q-62 15 -62 78q0 57 38 87.5t102 30.5q110 0 110 -83q0 -47 -26 -75.5t-66 -38.5q36 -8 56.5 -30t20.5 -58q0 -63 -44 -99.5t-116 -36.5zM217 523q23 0 44 6.5t36.5 19t24.5 31t9 42.5q0 64 -87 64 q-55 0 -84 -25.5t-29 -70.5q0 -67 86 -67zM183 309q55 0 93 29t38 84q0 36 -25.5 56.5t-73.5 20.5q-61 0 -95.5 -30.5t-34.5 -81.5q0 -36 24 -57t74 -21z" />
<glyph unicode="&#x2079;" horiz-adv-x="376" d="M51 287zM195 470q31 0 55.5 11t41.5 29t26 40.5t9 45.5q0 16 -6 32t-18 29t-31 20.5t-45 7.5q-27 0 -50 -8.5t-40.5 -25.5t-27.5 -41.5t-10 -56.5q0 -39 24.5 -61t71.5 -22zM227 708q58 0 95 -33.5t37 -112.5q0 -14 -1.5 -32.5t-3.5 -30.5q-9 -56 -26.5 -96.5t-42.5 -66 t-56 -37.5t-67 -12q-41 0 -70 15.5t-41 48.5l21 13q11 -30 36 -42t56 -12q63 0 106 47t57 145l5 35q-17 -42 -53.5 -65.5t-90.5 -23.5q-53 0 -84.5 25.5t-31.5 76.5q0 70 41.5 114t113.5 44z" />
<glyph unicode="&#x207a;" horiz-adv-x="309" d="M62 363zM170 363h-23l17 103h-102l4 22h101l17 107h23l-17 -107h100l-4 -22h-99z" />
<glyph unicode="&#x207b;" horiz-adv-x="309" d="M62 466zM290 488l-3 -22h-225l4 22h224z" />
<glyph unicode="&#x207c;" horiz-adv-x="309" d="M57 434zM296 524l-4 -23h-224l4 23h224zM285 456l-3 -22h-225l4 22h224z" />
<glyph unicode="&#x207d;" horiz-adv-x="208" d="M62 253zM154 253q-45 8 -68.5 47.5t-23.5 108.5q0 34 6 75q16 104 57 163.5t101 67.5v-21q-49 -10 -84 -62t-50 -148q-4 -21 -5 -40t-1 -36q0 -119 74 -134z" />
<glyph unicode="&#x207e;" horiz-adv-x="208" d="M33 253zM99 694l6 21q45 -8 68.5 -47.5t23.5 -108.5q0 -35 -6 -75q-16 -104 -57 -163.5t-101 -67.5v21q49 10 84 62t50 148q4 21 5 40t1 36q0 119 -74 134z" />
<glyph unicode="&#x2080;" horiz-adv-x="404" d="M220 414q63 0 95.5 -32.5t32.5 -107.5q0 -15 -1 -32.5t-4 -37.5q-18 -113 -64 -162t-122 -49q-63 0 -95.5 33t-32.5 108q0 14 1.5 33t3.5 37q9 58 25.5 98t40 65t53.5 36t67 11zM218 391q-29 0 -53.5 -9.5t-44.5 -31t-34.5 -57.5t-23.5 -89q-6 -39 -6 -70q0 -65 27 -91 t76 -26q30 0 55 9.5t44.5 31t34 57.5t22.5 89q6 37 6 69q0 66 -27 92t-76 26z" />
<glyph unicode="&#x2081;" horiz-adv-x="181" d="M73 0h-27l59 373l-66 -49l-8 22l89 63l17 -1z" />
<glyph unicode="&#x2082;" horiz-adv-x="343" d="M-8 0l4 23l181 158q29 25 48.5 45t31 37t16 32.5t4.5 30.5q0 65 -88 65q-45 0 -73 -18t-52 -52l-16 15q27 38 60 58t84 20q57 0 85 -22.5t28 -60.5t-24 -75.5t-86 -90.5l-163 -140h249l-4 -25h-285z" />
<glyph unicode="&#x2083;" horiz-adv-x="356" d="M133 -7q-50 0 -80.5 17.5t-46.5 55.5l22 13q14 -32 39 -47t67 -15q66 0 100 31.5t34 80.5q0 32 -18 52.5t-66 20.5h-60l3 23h60q19 0 37 7t31.5 20t22 31t8.5 40q0 68 -90 68q-40 0 -68 -14t-51 -48l-17 15q26 36 58 53t82 17q114 0 114 -86q0 -41 -23.5 -71t-59.5 -43 q37 -9 50.5 -31.5t13.5 -51.5q0 -62 -43 -100t-119 -38z" />
<glyph unicode="&#x2084;" horiz-adv-x="375" d="M12 110l4 21l186 276h27l-185 -273h198l33 203h26l-32 -203h68l-3 -24h-69l-17 -110h-27l18 110h-227z" />
<glyph unicode="&#x2085;" horiz-adv-x="350" d="M120 384l-45 -168q29 21 57 28.5t57 7.5q54 0 85.5 -23t31.5 -77q0 -33 -11.5 -62t-33.5 -50.5t-53 -34t-71 -12.5q-45 0 -77.5 17t-49.5 55l21 14q13 -29 38 -45.5t70 -16.5q34 0 60.5 11t44 29t26.5 41.5t9 49.5q0 83 -99 83q-35 0 -62.5 -10.5t-54.5 -30.5l-15 7 l54 210h226l-4 -23h-204z" />
<glyph unicode="&#x2086;" horiz-adv-x="375" d="M169 -7q-29 0 -53 8t-41.5 25.5t-27.5 45t-10 67.5q0 14 1.5 32.5t3.5 30.5q9 56 26.5 96.5t42.5 66t56 37.5t67 12q41 0 70 -15.5t41 -48.5l-21 -13q-11 30 -36 42t-56 12q-63 0 -105.5 -46.5t-57.5 -145.5q-2 -8 -3 -17t-2 -19q17 42 53.5 66t90.5 24q53 0 84.5 -25.5 t31.5 -76.5q0 -70 -41.5 -114t-113.5 -44zM201 231q-31 0 -55.5 -11t-41.5 -29t-26 -40.5t-9 -45.5q0 -17 6 -32.5t18 -28.5t31 -20.5t45 -7.5q27 0 50 8.5t40.5 25.5t27.5 41.5t10 56.5q0 39 -24.5 61t-71.5 22z" />
<glyph unicode="&#x2087;" horiz-adv-x="295" d="M62 0q8 52 27 106.5t47.5 106t64.5 95.5t77 75h-227l4 24h262l-3 -21q-41 -25 -77.5 -67t-66 -94t-50.5 -110t-31 -115h-27z" />
<glyph unicode="&#x2088;" horiz-adv-x="373" d="M148 -7q-61 0 -92 25t-31 71q0 54 30.5 87.5t79.5 41.5q-62 15 -62 78q0 57 38 87.5t102 30.5q110 0 110 -83q0 -47 -26 -75.5t-66 -38.5q36 -8 56.5 -30t20.5 -58q0 -63 -44 -99.5t-116 -36.5zM184 229q23 0 44 6.5t36.5 19t24.5 31t9 42.5q0 64 -87 64q-55 0 -84 -25.5 t-29 -70.5q0 -67 86 -67zM150 15q55 0 93 29t38 84q0 36 -25.5 56.5t-73.5 20.5q-61 0 -95.5 -30.5t-34.5 -81.5q0 -36 24 -57t74 -21z" />
<glyph unicode="&#x2089;" horiz-adv-x="374" d="M162 176q31 0 55.5 11t41.5 29t26 40.5t9 45.5q0 16 -6 32t-18 29t-31 20.5t-45 7.5q-27 0 -50 -8.5t-40.5 -25.5t-27.5 -41.5t-10 -56.5q0 -39 24.5 -61t71.5 -22zM194 414q58 0 95 -33.5t37 -112.5q0 -14 -1.5 -32.5t-3.5 -30.5q-9 -56 -26.5 -96.5t-42.5 -66 t-56 -37.5t-67 -12q-41 0 -70 15.5t-41 48.5l21 13q11 -30 36 -42t56 -12q63 0 106 47t57 145l5 35q-17 -42 -53.5 -65.5t-90.5 -23.5q-53 0 -84.5 25.5t-31.5 76.5q0 70 41.5 114t113.5 44z" />
<glyph unicode="&#x208a;" horiz-adv-x="309" d="M137 64h-23l17 103h-102l4 22h101l17 107h23l-17 -107h100l-4 -22h-99z" />
<glyph unicode="&#x208b;" horiz-adv-x="309" d="M257 189l-3 -22h-225l4 22h224z" />
<glyph unicode="&#x208c;" horiz-adv-x="309" d="M263 225l-4 -23h-224l4 23h224zM252 157l-3 -22h-225l4 22h224z" />
<glyph unicode="&#x208d;" horiz-adv-x="208" d="M121 -46q-45 8 -68.5 47.5t-23.5 108.5q0 34 6 75q16 104 57 163.5t101 67.5v-21q-49 -10 -84 -62t-50 -148q-4 -21 -5 -40t-1 -36q0 -119 74 -134z" />
<glyph unicode="&#x208e;" horiz-adv-x="208" d="M66 395l6 21q45 -8 68.5 -47.5t23.5 -108.5q0 -35 -6 -75q-16 -104 -57 -163.5t-101 -67.5v21q49 10 84 62t50 148q4 21 5 40t1 36q0 119 -74 134z" />
<glyph unicode="&#x20ac;" horiz-adv-x="659" d="M441 320l-10 -25h-312q-7 -78 4.5 -131t38.5 -85.5t68.5 -47t94.5 -14.5q72 0 131 26t103 92l22 -17q-48 -71 -113 -99.5t-144 -28.5q-62 0 -109 16.5t-78 53t-43.5 94.5t-5.5 141h-79l4 25h76l2 20l7 42h-75l4 25h76q18 82 48.5 139.5t72.5 94t94 53t113 16.5 q82 0 135 -33t76 -108l-29 -15q-20 71 -67 100t-117 29q-53 0 -99 -14t-83.5 -46.5t-65.5 -85.5t-45 -130h348l-11 -25h-343q-5 -29 -6.5 -41.5t-2.5 -20.5h320z" />
<glyph unicode="&#x2122;" horiz-adv-x="673" d="M85 700h235l-4 -19h-105l-44 -275h-22l44 275h-107zM599 406h-21l41 261l-155 -261h-19l-74 259l-41 -259h-22l47 294h26l76 -269l161 269h28z" />
<glyph unicode="&#x2153;" horiz-adv-x="781" d="M58 0zM526 -7q-50 0 -80.5 17.5t-46.5 55.5l22 13q14 -32 39 -47t67 -15q66 0 100 31.5t34 80.5q0 32 -18 52.5t-66 20.5h-60l3 23h60q19 0 37 7t31.5 20t22 31t8.5 40q0 68 -90 68q-40 0 -68 -14t-51 -48l-17 15q26 36 58 53t82 17q114 0 114 -86q0 -41 -23.5 -71 t-59.5 -43q37 -9 50.5 -31.5t13.5 -51.5q0 -62 -43 -100t-119 -38zM100 293h-27l59 373l-66 -49l-8 22l89 63l17 -1zM545 700l-437 -700h-29l438 700h28z" />
<glyph unicode="&#x2154;" horiz-adv-x="917" d="M21 0zM661 -7q-50 0 -80.5 17.5t-46.5 55.5l22 13q14 -32 39 -47t67 -15q66 0 100 31.5t34 80.5q0 32 -18 52.5t-66 20.5h-60l3 23h60q19 0 37 7t31.5 20t22 31t8.5 40q0 68 -90 68q-40 0 -68 -14t-51 -48l-17 15q26 36 58 53t82 17q114 0 114 -86q0 -41 -23.5 -71 t-59.5 -43q37 -9 50.5 -31.5t13.5 -51.5q0 -62 -43 -100t-119 -38zM21 293l4 23l181 158q29 25 48.5 45t31 37t16 32.5t4.5 30.5q0 65 -88 65q-45 0 -73 -18t-52 -52l-16 15q27 38 60 58t84 20q57 0 85 -22.5t28 -60.5t-24 -75.5t-86 -90.5l-163 -140h249l-4 -25h-285z M681 700l-437 -700h-29l438 700h28z" />
<glyph unicode="&#x2155;" horiz-adv-x="792" d="M58 0zM100 293h-27l59 373l-66 -49l-8 22l89 63l17 -1zM532 384l-45 -168q29 21 57 28.5t57 7.5q54 0 85.5 -23t31.5 -77q0 -33 -11.5 -62t-33.5 -50.5t-53 -34t-71 -12.5q-45 0 -77.5 17t-49.5 55l21 14q13 -29 38 -45.5t70 -16.5q34 0 60.5 11t44 29t26.5 41.5t9 49.5 q0 83 -99 83q-35 0 -62.5 -10.5t-54.5 -30.5l-15 7l54 210h226l-4 -23h-204zM545 700l-437 -700h-29l438 700h28z" />
<glyph unicode="&#x2156;" horiz-adv-x="936" d="M21 0zM21 293l4 23l181 158q29 25 48.5 45t31 37t16 32.5t4.5 30.5q0 65 -88 65q-45 0 -73 -18t-52 -52l-16 15q27 38 60 58t84 20q57 0 85 -22.5t28 -60.5t-24 -75.5t-86 -90.5l-163 -140h249l-4 -25h-285zM674 384l-45 -168q29 21 57 28.5t57 7.5q54 0 85.5 -23 t31.5 -77q0 -33 -11.5 -62t-33.5 -50.5t-53 -34t-71 -12.5q-45 0 -77.5 17t-49.5 55l21 14q13 -29 38 -45.5t70 -16.5q34 0 60.5 11t44 29t26.5 41.5t9 49.5q0 83 -99 83q-35 0 -62.5 -10.5t-54.5 -30.5l-15 7l54 210h226l-4 -23h-204zM689 700l-437 -700h-29l438 700h28z " />
<glyph unicode="&#x2157;" horiz-adv-x="936" d="M35 0zM162 286q-50 0 -80.5 17.5t-46.5 55.5l22 13q14 -32 39 -47t67 -15q66 0 100 31.5t34 80.5q0 32 -18 52.5t-66 20.5h-60l3 23h60q19 0 37 7t31.5 20t22 31t8.5 40q0 68 -90 68q-40 0 -68 -14t-51 -48l-17 15q26 36 58 53t82 17q114 0 114 -86q0 -41 -23.5 -71 t-59.5 -43q37 -9 50.5 -31.5t13.5 -51.5q0 -62 -43 -100t-119 -38zM674 384l-45 -168q29 21 57 28.5t57 7.5q54 0 85.5 -23t31.5 -77q0 -33 -11.5 -62t-33.5 -50.5t-53 -34t-71 -12.5q-45 0 -77.5 17t-49.5 55l21 14q13 -29 38 -45.5t70 -16.5q34 0 60.5 11t44 29t26.5 41.5 t9 49.5q0 83 -99 83q-35 0 -62.5 -10.5t-54.5 -30.5l-15 7l54 210h226l-4 -23h-204zM689 700l-437 -700h-29l438 700h28z" />
<glyph unicode="&#x2158;" horiz-adv-x="960" d="M43 0zM698 384l-45 -168q29 21 57 28.5t57 7.5q54 0 85.5 -23t31.5 -77q0 -33 -11.5 -62t-33.5 -50.5t-53 -34t-71 -12.5q-45 0 -77.5 17t-49.5 55l21 14q13 -29 38 -45.5t70 -16.5q34 0 60.5 11t44 29t26.5 41.5t9 49.5q0 83 -99 83q-35 0 -62.5 -10.5t-54.5 -30.5 l-15 7l54 210h226l-4 -23h-204zM713 700l-437 -700h-29l438 700h28zM43 403l4 21l186 276h27l-185 -273h198l33 203h26l-32 -203h68l-3 -24h-69l-17 -110h-27l18 110h-227z" />
<glyph unicode="&#x2159;" horiz-adv-x="821" d="M58 0zM100 293h-27l59 373l-66 -49l-8 22l89 63l17 -1zM582 -7q-29 0 -53 8t-41.5 25.5t-27.5 45t-10 67.5q0 14 1.5 32.5t3.5 30.5q9 56 26.5 96.5t42.5 66t56 37.5t67 12q41 0 70 -15.5t41 -48.5l-21 -13q-11 30 -36 42t-56 12q-63 0 -105.5 -46.5t-57.5 -145.5 q-2 -8 -3 -17t-2 -19q17 42 53.5 66t90.5 24q53 0 84.5 -25.5t31.5 -76.5q0 -70 -41.5 -114t-113.5 -44zM614 231q-31 0 -55.5 -11t-41.5 -29t-26 -40.5t-9 -45.5q0 -17 6 -32.5t18 -28.5t31 -20.5t45 -7.5q27 0 50 8.5t40.5 25.5t27.5 41.5t10 56.5q0 39 -24.5 61t-71.5 22 zM545 700l-437 -700h-29l438 700h28z" />
<glyph unicode="&#x215a;" horiz-adv-x="945" d="M41 0zM151 677l-45 -168q29 21 57 28.5t57 7.5q54 0 85.5 -23t31.5 -77q0 -33 -11.5 -62t-33.5 -50.5t-53 -34t-71 -12.5q-45 0 -77.5 17t-49.5 55l21 14q13 -29 38 -45.5t70 -16.5q34 0 60.5 11t44 29t26.5 41.5t9 49.5q0 83 -99 83q-35 0 -62.5 -10.5t-54.5 -30.5 l-15 7l54 210h226l-4 -23h-204zM705 -7q-29 0 -53 8t-41.5 25.5t-27.5 45t-10 67.5q0 14 1.5 32.5t3.5 30.5q9 56 26.5 96.5t42.5 66t56 37.5t67 12q41 0 70 -15.5t41 -48.5l-21 -13q-11 30 -36 42t-56 12q-63 0 -105.5 -46.5t-57.5 -145.5q-2 -8 -3 -17t-2 -19 q17 42 53.5 66t90.5 24q53 0 84.5 -25.5t31.5 -76.5q0 -70 -41.5 -114t-113.5 -44zM737 231q-31 0 -55.5 -11t-41.5 -29t-26 -40.5t-9 -45.5q0 -17 6 -32.5t18 -28.5t31 -20.5t45 -7.5q27 0 50 8.5t40.5 25.5t27.5 41.5t10 56.5q0 39 -24.5 61t-71.5 22zM689 700l-437 -700 h-29l438 700h28z" />
<glyph unicode="&#x215b;" horiz-adv-x="817" d="M58 0zM100 293h-27l59 373l-66 -49l-8 22l89 63l17 -1zM561 -7q-61 0 -92 25t-31 71q0 54 30.5 87.5t79.5 41.5q-62 15 -62 78q0 57 38 87.5t102 30.5q110 0 110 -83q0 -47 -26 -75.5t-66 -38.5q36 -8 56.5 -30t20.5 -58q0 -63 -44 -99.5t-116 -36.5zM597 229 q23 0 44 6.5t36.5 19t24.5 31t9 42.5q0 64 -87 64q-55 0 -84 -25.5t-29 -70.5q0 -67 86 -67zM563 15q55 0 93 29t38 84q0 36 -25.5 56.5t-73.5 20.5q-61 0 -95.5 -30.5t-34.5 -81.5q0 -36 24 -57t74 -21zM545 700l-437 -700h-29l438 700h28z" />
<glyph unicode="&#x215c;" horiz-adv-x="960" d="M35 0zM162 286q-50 0 -80.5 17.5t-46.5 55.5l22 13q14 -32 39 -47t67 -15q66 0 100 31.5t34 80.5q0 32 -18 52.5t-66 20.5h-60l3 23h60q19 0 37 7t31.5 20t22 31t8.5 40q0 68 -90 68q-40 0 -68 -14t-51 -48l-17 15q26 36 58 53t82 17q114 0 114 -86q0 -41 -23.5 -71 t-59.5 -43q37 -9 50.5 -31.5t13.5 -51.5q0 -62 -43 -100t-119 -38zM702 -7q-61 0 -92 25t-31 71q0 54 30.5 87.5t79.5 41.5q-62 15 -62 78q0 57 38 87.5t102 30.5q110 0 110 -83q0 -47 -26 -75.5t-66 -38.5q36 -8 56.5 -30t20.5 -58q0 -63 -44 -99.5t-116 -36.5zM738 229 q23 0 44 6.5t36.5 19t24.5 31t9 42.5q0 64 -87 64q-55 0 -84 -25.5t-29 -70.5q0 -67 86 -67zM704 15q55 0 93 29t38 84q0 36 -25.5 56.5t-73.5 20.5q-61 0 -95.5 -30.5t-34.5 -81.5q0 -36 24 -57t74 -21zM689 700l-437 -700h-29l438 700h28z" />
<glyph unicode="&#x215d;" horiz-adv-x="960" d="M41 0zM702 -7q-61 0 -92 25t-31 71q0 54 30.5 87.5t79.5 41.5q-62 15 -62 78q0 57 38 87.5t102 30.5q110 0 110 -83q0 -47 -26 -75.5t-66 -38.5q36 -8 56.5 -30t20.5 -58q0 -63 -44 -99.5t-116 -36.5zM738 229q23 0 44 6.5t36.5 19t24.5 31t9 42.5q0 64 -87 64 q-55 0 -84 -25.5t-29 -70.5q0 -67 86 -67zM704 15q55 0 93 29t38 84q0 36 -25.5 56.5t-73.5 20.5q-61 0 -95.5 -30.5t-34.5 -81.5q0 -36 24 -57t74 -21zM151 677l-45 -168q29 21 57 28.5t57 7.5q54 0 85.5 -23t31.5 -77q0 -33 -11.5 -62t-33.5 -50.5t-53 -34t-71 -12.5 q-45 0 -77.5 17t-49.5 55l21 14q13 -29 38 -45.5t70 -16.5q34 0 60.5 11t44 29t26.5 41.5t9 49.5q0 83 -99 83q-35 0 -62.5 -10.5t-54.5 -30.5l-15 7l54 210h226l-4 -23h-204zM689 700l-437 -700h-29l438 700h28z" />
<glyph unicode="&#x215e;" horiz-adv-x="890" d="M81 0zM634 -7q-61 0 -92 25t-31 71q0 54 30.5 87.5t79.5 41.5q-62 15 -62 78q0 57 38 87.5t102 30.5q110 0 110 -83q0 -47 -26 -75.5t-66 -38.5q36 -8 56.5 -30t20.5 -58q0 -63 -44 -99.5t-116 -36.5zM670 229q23 0 44 6.5t36.5 19t24.5 31t9 42.5q0 64 -87 64 q-55 0 -84 -25.5t-29 -70.5q0 -67 86 -67zM636 15q55 0 93 29t38 84q0 36 -25.5 56.5t-73.5 20.5q-61 0 -95.5 -30.5t-34.5 -81.5q0 -36 24 -57t74 -21zM92 293q8 52 27 106.5t47.5 106t64.5 95.5t77 75h-227l4 24h262l-3 -21q-41 -25 -77.5 -67t-66 -94t-50.5 -110 t-31 -115h-27zM619 700l-437 -700h-29l438 700h28z" />
<glyph unicode="&#x215f;" horiz-adv-x="835" d="M58 0zM100 293h-27l59 373l-66 -49l-8 22l89 63l17 -1zM546 700l-437 -700h-29l438 700h28z" />
<glyph unicode="&#x2212;" horiz-adv-x="486" d="M436 318l-4 -26h-379l4 26h379z" />
<glyph unicode="&#x2248;" horiz-adv-x="489" d="M338 353q25 0 56 8t55 25l-4 -27q-23 -15 -55 -23t-58 -8t-45 6.5t-36.5 15t-37 15t-44.5 6.5q-26 0 -56 -8t-54 -24l4 27q23 14 53.5 22t57.5 8t46.5 -6.5t37 -15t36.5 -15t44 -6.5zM321 241q24 0 55.5 8.5t54.5 24.5l-4 -27q-23 -15 -54.5 -22.5t-57.5 -7.5t-45 6.5 t-37 15t-37 15t-45 6.5t-56 -8t-54 -25l5 27q23 15 53.5 22.5t56.5 7.5q27 0 46.5 -6.5t37.5 -15t37 -15t44 -6.5z" />
<glyph unicode="&#x2260;" horiz-adv-x="486" d="M444 377l-4 -26h-140l-83 -84h210l-4 -26h-229l-121 -121h-30l121 121h-121l4 26h140l83 84h-209l4 26h228l125 125h30l-124 -125h120z" />
<glyph unicode="&#x2264;" horiz-adv-x="446" d="M100 310l2 15l271 170l11 -21l-247 -157l196 -157l-17 -20zM39 0l5 26h268l-5 -26h-268z" />
<glyph unicode="&#x2265;" horiz-adv-x="445" d="M364 311l-271 -171l-11 21l247 157l-196 157l17 20l216 -170zM319 26l-4 -26h-268l4 26h268z" />
<glyph unicode="&#x25fc;" horiz-adv-x="480" d="M0 480h480v-480h-480v480z" />
<glyph unicode="&#xf6c3;" horiz-adv-x="600" d="M262 -222l-4 15q19 10 32 31.5t17 48.5q-14 -7 -25.5 0.5t-11.5 22.5q0 16 9 24.5t23 8.5q13 0 20 -7.5t7 -26.5q0 -18 -4.5 -36.5t-13 -34.5t-21 -28t-28.5 -18z" />
<glyph horiz-adv-x="357" d="M163 -64l131 830h28l-131 -830h-28zM62 -64l131 830h28l-131 -830h-28z" />
<glyph horiz-adv-x="177" d="M168 573l-9 -15q-26 13 -37 41t-11 60q0 35 10 46t24 11t21.5 -8.5t7.5 -20.5q0 -20 -14 -26.5t-29 -0.5q-1 -32 9 -54t28 -33z" />
<glyph horiz-adv-x="276" d="M168 573l-9 -15q-26 13 -37 41t-11 60q0 35 10 46t24 11t21.5 -8.5t7.5 -20.5q0 -18 -13 -26t-30 0q-1 -32 9 -54.5t28 -33.5zM267 573l-8 -15q-26 13 -37.5 41t-11.5 60q0 35 10 46t25 11q14 0 21.5 -8.5t7.5 -20.5q0 -18 -13.5 -26t-30.5 0q0 -66 37 -88z" />
<glyph horiz-adv-x="583" d="M394 -198q-17 0 -32.5 3.5t-27.5 12.5t-19 23.5t-7 37.5q0 27 10.5 49t27 39.5t36 28.5t37.5 15l14 102q-33 -63 -86 -93t-116 -30q-84 0 -127 46.5t-43 135.5q0 31 6 67q17 120 80.5 184.5t165.5 64.5q61 0 103.5 -31t56.5 -94l20 115h27l-76 -478h-5q-17 -2 -36 -12 t-34.5 -26t-25.5 -36.5t-10 -43.5q0 -35 20 -46t46 -11q17 0 31.5 4.5t28.5 12.5l5 -22q-32 -18 -70 -18zM453 245q2 15 3.5 29t1.5 27q0 82 -40.5 121.5t-104.5 39.5q-91 0 -144 -56.5t-70 -162.5q-4 -23 -5.5 -38.5t-1.5 -30.5q0 -77 36.5 -117.5t111.5 -40.5 q77 0 135 56.5t78 172.5z" />
<glyph horiz-adv-x="583" d="M453 245q2 15 3.5 29t1.5 27q0 82 -40.5 121.5t-104.5 39.5q-91 0 -144 -56.5t-70 -162.5q-4 -23 -5.5 -38.5t-1.5 -30.5q0 -77 36.5 -117.5t111.5 -40.5q77 0 135 56.5t78 172.5zM231 -10q-84 0 -127 46.5t-43 135.5q0 31 6 67q17 120 80.5 184.5t165.5 64.5 q61 0 103.5 -31t56.5 -94l20 115h27l-76 -478h-26l15 113q-33 -63 -86 -93t-116 -30z" />
<glyph horiz-adv-x="583" d="M61 0zM453 245q2 15 3.5 29t1.5 27q0 82 -40.5 121.5t-104.5 39.5q-91 0 -144 -56.5t-70 -162.5q-4 -23 -5.5 -38.5t-1.5 -30.5q0 -77 36.5 -117.5t111.5 -40.5q77 0 135 56.5t78 172.5zM231 -10q-84 0 -127 46.5t-43 135.5q0 31 6 67q17 120 80.5 184.5t165.5 64.5 q61 0 103.5 -31t56.5 -94l20 115h27l-76 -478h-26l15 113q-33 -63 -86 -93t-116 -30zM330 563l-100 104v4h43l84 -105v-3h-27z" />
<glyph horiz-adv-x="583" d="M61 0zM453 245q2 15 3.5 29t1.5 27q0 82 -40.5 121.5t-104.5 39.5q-91 0 -144 -56.5t-70 -162.5q-4 -23 -5.5 -38.5t-1.5 -30.5q0 -77 36.5 -117.5t111.5 -40.5q77 0 135 56.5t78 172.5zM231 -10q-84 0 -127 46.5t-43 135.5q0 31 6 67q17 120 80.5 184.5t165.5 64.5 q61 0 103.5 -31t56.5 -94l20 115h27l-76 -478h-26l15 113q-33 -63 -86 -93t-116 -30zM412 671h44l-1 -4l-115 -104h-27v3z" />
<glyph horiz-adv-x="583" d="M61 0zM345 650l-109 -87h-36v2l133 106h26l98 -106v-2h-33zM453 245q2 15 3.5 29t1.5 27q0 82 -40.5 121.5t-104.5 39.5q-91 0 -144 -56.5t-70 -162.5q-4 -23 -5.5 -38.5t-1.5 -30.5q0 -77 36.5 -117.5t111.5 -40.5q77 0 135 56.5t78 172.5zM231 -10q-84 0 -127 46.5 t-43 135.5q0 31 6 67q17 120 80.5 184.5t165.5 64.5q61 0 103.5 -31t56.5 -94l20 115h27l-76 -478h-26l15 113q-33 -63 -86 -93t-116 -30z" />
<glyph horiz-adv-x="583" d="M61 0zM399 580q-27 0 -27 26q0 17 9.5 25.5t24.5 8.5q27 0 27 -26q0 -16 -9.5 -25t-24.5 -9zM264 580q-26 0 -26 26q0 17 9.5 25.5t23.5 8.5q27 0 27 -26q0 -34 -34 -34zM453 245q2 15 3.5 29t1.5 27q0 82 -40.5 121.5t-104.5 39.5q-91 0 -144 -56.5t-70 -162.5 q-4 -23 -5.5 -38.5t-1.5 -30.5q0 -77 36.5 -117.5t111.5 -40.5q77 0 135 56.5t78 172.5zM231 -10q-84 0 -127 46.5t-43 135.5q0 31 6 67q17 120 80.5 184.5t165.5 64.5q61 0 103.5 -31t56.5 -94l20 115h27l-76 -478h-26l15 113q-33 -63 -86 -93t-116 -30z" />
<glyph horiz-adv-x="583" d="M61 0zM453 245q2 15 3.5 29t1.5 27q0 82 -40.5 121.5t-104.5 39.5q-91 0 -144 -56.5t-70 -162.5q-4 -23 -5.5 -38.5t-1.5 -30.5q0 -77 36.5 -117.5t111.5 -40.5q77 0 135 56.5t78 172.5zM231 -10q-84 0 -127 46.5t-43 135.5q0 31 6 67q17 120 80.5 184.5t165.5 64.5 q61 0 103.5 -31t56.5 -94l20 115h27l-76 -478h-26l15 113q-33 -63 -86 -93t-116 -30zM438 656h25q-2 -23 -10 -37.5t-18.5 -23t-22.5 -11.5t-22 -3q-20 0 -33.5 8.5t-25.5 19t-24 19t-29 8.5q-14 0 -27.5 -10t-17.5 -41h-25q3 23 10.5 37.5t17.5 23t21.5 11.5t22.5 3 q20 0 33.5 -8.5t25.5 -19t24 -19t30 -8.5q17 0 29 11t16 40z" />
<glyph horiz-adv-x="583" d="M61 0zM453 245q2 15 3.5 29t1.5 27q0 82 -40.5 121.5t-104.5 39.5q-91 0 -144 -56.5t-70 -162.5q-4 -23 -5.5 -38.5t-1.5 -30.5q0 -77 36.5 -117.5t111.5 -40.5q77 0 135 56.5t78 172.5zM231 -10q-84 0 -127 46.5t-43 135.5q0 31 6 67q17 120 80.5 184.5t165.5 64.5 q61 0 103.5 -31t56.5 -94l20 115h27l-76 -478h-26l15 113q-33 -63 -86 -93t-116 -30zM327 543q-32 0 -53 21.5t-21 55.5q0 40 25.5 67.5t64.5 27.5q32 0 53 -21.5t21 -54.5q0 -41 -25.5 -68.5t-64.5 -27.5zM342 698q-30 0 -50 -22t-20 -54q0 -27 15.5 -44.5t40.5 -17.5 q29 0 49.5 22t20.5 54q0 27 -15.5 44.5t-40.5 17.5z" />
<glyph horiz-adv-x="583" d="M61 0zM453 245q2 15 3.5 29t1.5 27q0 82 -40.5 121.5t-104.5 39.5q-91 0 -144 -56.5t-70 -162.5q-4 -23 -5.5 -38.5t-1.5 -30.5q0 -77 36.5 -117.5t111.5 -40.5q77 0 135 56.5t78 172.5zM231 -10q-84 0 -127 46.5t-43 135.5q0 31 6 67q17 120 80.5 184.5t165.5 64.5 q61 0 103.5 -31t56.5 -94l20 115h27l-76 -478h-26l15 113q-33 -63 -86 -93t-116 -30zM445 626l-3 -23h-222l3 23h222z" />
<glyph horiz-adv-x="583" d="M61 0zM453 245q2 15 3.5 29t1.5 27q0 82 -40.5 121.5t-104.5 39.5q-91 0 -144 -56.5t-70 -162.5q-4 -23 -5.5 -38.5t-1.5 -30.5q0 -77 36.5 -117.5t111.5 -40.5q77 0 135 56.5t78 172.5zM231 -10q-84 0 -127 46.5t-43 135.5q0 31 6 67q17 120 80.5 184.5t165.5 64.5 q61 0 103.5 -31t56.5 -94l20 115h27l-76 -478h-26l15 113q-33 -63 -86 -93t-116 -30zM435 669h25q-9 -59 -43.5 -82t-89.5 -23t-83 23t-19 82h25q-8 -48 12.5 -65.5t66.5 -17.5q45 0 71.5 17.5t34.5 65.5z" />
<glyph horiz-adv-x="588" d="M419 4l17 114q-32 -61 -86 -92.5t-120 -31.5q-73 0 -111 35t-38 107q0 12 1 24.5t3 25.5l47 292h30l-45 -285q-2 -14 -3 -26.5t-1 -23.5q0 -68 33.5 -95.5t91.5 -27.5q44 0 79 14.5t61.5 40t44.5 61.5t28 78l43 264h30l-76 -481q-17 -106 -82.5 -154t-160.5 -48 q-62 0 -109 22t-69 83l25 17q19 -55 58.5 -75.5t96.5 -20.5q41 0 76.5 9.5t63 31.5t46 56.5t26.5 85.5z" />
<glyph horiz-adv-x="588" d="M27 0zM419 4l17 114q-32 -61 -86 -92.5t-120 -31.5q-73 0 -111 35t-38 107q0 12 1 24.5t3 25.5l47 292h30l-45 -285q-2 -14 -3 -26.5t-1 -23.5q0 -68 33.5 -95.5t91.5 -27.5q44 0 79 14.5t61.5 40t44.5 61.5t28 78l43 264h30l-76 -481q-17 -106 -82.5 -154t-160.5 -48 q-62 0 -109 22t-69 83l25 17q19 -55 58.5 -75.5t96.5 -20.5q41 0 76.5 9.5t63 31.5t46 56.5t26.5 85.5zM431 671h44l-1 -4l-115 -104h-27v3z" />
<glyph horiz-adv-x="588" d="M27 0zM357 650l-109 -87h-36v2l133 106h26l98 -106v-2h-33zM419 4l17 114q-32 -61 -86 -92.5t-120 -31.5q-73 0 -111 35t-38 107q0 12 1 24.5t3 25.5l47 292h30l-45 -285q-2 -14 -3 -26.5t-1 -23.5q0 -68 33.5 -95.5t91.5 -27.5q44 0 79 14.5t61.5 40t44.5 61.5t28 78 l43 264h30l-76 -481q-17 -106 -82.5 -154t-160.5 -48q-62 0 -109 22t-69 83l25 17q19 -55 58.5 -75.5t96.5 -20.5q41 0 76.5 9.5t63 31.5t46 56.5t26.5 85.5z" />
<glyph horiz-adv-x="588" d="M27 0zM411 580q-27 0 -27 26q0 17 9.5 25.5t24.5 8.5q27 0 27 -26q0 -16 -9.5 -25t-24.5 -9zM276 580q-26 0 -26 26q0 17 9.5 25.5t23.5 8.5q27 0 27 -26q0 -34 -34 -34zM419 4l17 114q-32 -61 -86 -92.5t-120 -31.5q-73 0 -111 35t-38 107q0 12 1 24.5t3 25.5l47 292h30 l-45 -285q-2 -14 -3 -26.5t-1 -23.5q0 -68 33.5 -95.5t91.5 -27.5q44 0 79 14.5t61.5 40t44.5 61.5t28 78l43 264h30l-76 -481q-17 -106 -82.5 -154t-160.5 -48q-62 0 -109 22t-69 83l25 17q19 -55 58.5 -75.5t96.5 -20.5q41 0 76.5 9.5t63 31.5t46 56.5t26.5 85.5z" />
<glyph horiz-adv-x="381" d="M328 443l18 -12q-23 -39 -59 -55.5t-83 -16.5q-131 0 -131 127q0 11 1 22t3 25q14 91 59 134t120 43q49 0 77 -20.5t40 -57.5l-21 -10q-20 66 -98 66q-64 0 -102 -37t-50 -118q-2 -14 -3 -25t-1 -22q0 -55 26.5 -80.5t82.5 -25.5q42 0 71.5 14.5t49.5 48.5z" />
<glyph horiz-adv-x="422" d="M344 539q3 19 3 38q0 57 -27.5 84t-73.5 27q-61 0 -97.5 -39.5t-48.5 -114.5q-2 -12 -3.5 -23t-1.5 -22q0 -108 100 -108q55 0 96 38.5t53 119.5zM245 710q45 0 75 -21.5t39 -65.5l14 79h22l-53 -335h-23l11 80q-23 -45 -60 -66.5t-83 -21.5q-57 0 -87 32.5t-30 95.5 q0 11 1.5 22.5t3.5 24.5q12 84 55 130t115 46z" />
<glyph horiz-adv-x="600" d="M266 515h-22l36 185h36z" />
<glyph horiz-adv-x="194" d="M47 0l88 529h27l-77 -529h-38zM176 706q27 0 27 -26q0 -16 -10 -25t-24 -9q-27 0 -27 27q0 16 9.5 24.5t24.5 8.5z" />
<glyph horiz-adv-x="513" d="M25 166q0 59 19.5 106t54 80t82.5 51t106 20l18 109h30l-20 -130h-19q-54 0 -98 -16.5t-75.5 -47t-48.5 -73.5t-17 -96q0 -72 47.5 -110t132.5 -38q75 0 128.5 28t95.5 96l21 -15q-45 -74 -104.5 -105.5t-144.5 -31.5q-98 0 -153 45.5t-55 127.5zM347 709q27 0 27 -26 q0 -16 -9.5 -24.5t-24.5 -8.5q-27 0 -27 26q0 16 9.5 24.5t24.5 8.5z" />
<glyph horiz-adv-x="364" d="M312 256l-4 -26h-266l4 26h266z" />
<glyph horiz-adv-x="682" d="M629 256l-4 -26h-584l4 26h584z" />
<glyph horiz-adv-x="700" d="M325 -10q-115 0 -180 59t-65 193q0 25 2.5 54.5t6.5 54.5q15 97 45 165.5t74 111.5t101.5 62.5t127.5 19.5q85 0 140 -31.5t79 -102.5l-28 -16q-22 67 -71.5 95t-123.5 28q-59 0 -110 -16.5t-91 -55.5t-68.5 -103t-43.5 -158q-9 -59 -9 -106q0 -63 15.5 -106t44 -70 t68.5 -39t90 -12q114 0 183.5 64t90.5 205h-217l4 25h248l-5 -34q-14 -86 -44.5 -142t-72 -88t-91 -44.5t-100.5 -12.5z" />
<glyph horiz-adv-x="593" d="M72 0l111 700h31l-111 -700h-31zM502 0l-327 343l1 2l412 355h39l-414 -356l329 -344h-40z" />
<glyph horiz-adv-x="485" d="M63 0l111 700h30l-111 -700h-30zM388 0l-243 233v3l302 242h37l-300 -244l242 -234h-38z" />
<glyph horiz-adv-x="800" d="M72 13zM627 111q-51 -47 -117 -72.5t-148 -25.5q-70 0 -124 19t-91 54t-56 84.5t-19 111.5q0 88 29 162t80.5 127.5t123.5 83t159 29.5q133 0 203 -66t70 -178q0 -54 -12 -98.5t-33.5 -76.5t-52.5 -50t-69 -18q-37 0 -55.5 20t-16.5 60q-26 -47 -65 -68.5t-89 -21.5 q-45 0 -70 20t-25 59q0 61 44 90t119 29h101q2 12 3 22t1 19q0 45 -24 62.5t-67 17.5q-45 0 -71.5 -13t-47.5 -37l-11 15q46 56 134 56q53 0 82 -22t29 -76q0 -21 -4 -41l-15 -88q-2 -8 -2.5 -16t-0.5 -14q0 -29 14 -41.5t43 -12.5q31 0 57 16t45 45.5t29.5 71t10.5 91.5 q0 107 -66.5 166.5t-187.5 59.5q-81 0 -149 -27t-118 -77.5t-78 -121.5t-28 -158q0 -119 70.5 -185t201.5 -66q78 0 141.5 24t111.5 69zM352 207q63 0 104.5 44t53.5 116h-98q-66 0 -102.5 -23.5t-36.5 -76.5q0 -60 79 -60z" />
<glyph horiz-adv-x="668" d="M87 350q15 99 42.5 167.5t66.5 111t89.5 62t112.5 19.5q104 0 159.5 -55t55.5 -182q0 -28 -2.5 -58t-7.5 -65q-15 -98 -42.5 -166.5t-67 -111.5t-90.5 -62.5t-113 -19.5q-51 0 -91 13t-67.5 41.5t-41.5 73.5t-14 109q0 27 3 58t8 65zM582 471q0 58 -12.5 98.5t-36.5 66 t-58.5 36.5t-77.5 11q-53 0 -98 -17t-80 -56t-60.5 -102.5t-40.5 -157.5q-5 -35 -8 -65t-3 -57q0 -59 12.5 -99t36.5 -65t58 -36t78 -11q53 0 98 17t80.5 56t61 102.5t40.5 157.5q5 34 7.5 64.5t2.5 56.5z" />
<glyph horiz-adv-x="279" d="M114 0h-30l104 659l-117 -89l-11 24l145 106h20z" />
<glyph horiz-adv-x="564" d="M-2 0l5 29l320 280q52 46 86 82t53.5 66.5t27 57t7.5 53.5q0 56 -39 85.5t-115 29.5q-41 0 -74 -8.5t-60 -24.5t-50.5 -39.5t-44.5 -54.5l-20 17q23 33 48 59t55 43t66 26t81 9q96 0 140.5 -37.5t44.5 -99.5q0 -31 -9 -61.5t-30.5 -64t-57.5 -72.5t-91 -86l-298 -262h442 l-4 -27h-483z" />
<glyph horiz-adv-x="590" d="M233 -10q-81 0 -132 29t-78 91l26 16q24 -57 69.5 -83t118.5 -26q60 0 105.5 15.5t76 43t46 65.5t15.5 83q0 28 -7.5 52t-24.5 41.5t-46 27.5t-71 10h-107l4 27h106q34 0 66 13t57 36t40 56t15 74q0 122 -161 122q-73 0 -122.5 -26.5t-91.5 -84.5l-21 18q44 61 100 90.5 t140 29.5q95 0 141 -37.5t46 -107.5q0 -35 -11 -66t-30.5 -56.5t-45.5 -44t-57 -28.5q34 -8 55.5 -22.5t34 -33t17.5 -40.5t5 -46q0 -54 -19 -98t-55 -75t-87.5 -48t-116.5 -17z" />
<glyph horiz-adv-x="620" d="M32 195l4 25l325 480h33l-324 -477h360l58 362h30l-57 -362h119l-5 -28h-119l-31 -195h-30l30 195h-393z" />
<glyph horiz-adv-x="582" d="M211 673l-82 -302q51 35 101.5 48.5t102.5 13.5q91 0 145 -40.5t54 -128.5q0 -56 -19.5 -106t-56.5 -87.5t-90.5 -59t-121.5 -21.5q-71 0 -128 29t-83 93l25 16q21 -51 67 -81.5t122 -30.5q64 0 111.5 20.5t79 54.5t47 78t15.5 90q0 148 -176 148q-65 0 -113.5 -19.5 t-97.5 -56.5l-20 9l97 360h379l-4 -27h-354z" />
<glyph horiz-adv-x="617" d="M298 -10q-50 0 -90.5 14t-69 44t-44.5 76.5t-16 111.5q0 24 1.5 50t6.5 55q15 96 45 166t72 115t95 66.5t113 21.5q69 0 117 -26t68 -82l-27 -16q-19 54 -63.5 75.5t-98.5 21.5q-112 0 -187 -84.5t-103 -258.5q-6 -37 -8 -84q12 41 36 74t57 56.5t73.5 36t86.5 12.5 q45 0 81.5 -11.5t62.5 -34.5t40 -56.5t14 -76.5q0 -60 -18.5 -109t-53 -84t-82.5 -54t-108 -19zM358 408q-65 0 -111 -23.5t-74.5 -58.5t-41.5 -75t-13 -73q0 -30 10.5 -59t32 -52t55.5 -37t82 -14t90 15.5t73 45.5t49 74.5t18 101.5q0 71 -43.5 113t-126.5 42z" />
<glyph horiz-adv-x="484" d="M118 0q15 90 49.5 186.5t84 187.5t112.5 169t136 130h-397l5 27h442l-4 -27q-71 -41 -135.5 -114t-117 -164t-90 -193.5t-54.5 -201.5h-31z" />
<glyph horiz-adv-x="616" d="M263 -10q-102 0 -154.5 43t-52.5 120q0 47 15 85.5t41.5 66.5t63.5 46t81 25q-56 11 -87 44.5t-31 87.5q0 49 16.5 86.5t47.5 63t74.5 39t96.5 13.5q91 0 138 -35.5t47 -101.5q0 -42 -13 -75.5t-35.5 -58.5t-53.5 -41t-67 -23q66 -11 104 -49.5t38 -101.5 q0 -54 -19.5 -97.5t-54.5 -73.5t-85 -46.5t-110 -16.5zM326 390q39 0 76 11t65 33.5t45 56t17 78.5q0 55 -39 85t-118 30q-97 0 -150 -46.5t-53 -128.5q0 -56 39.5 -87.5t117.5 -31.5zM266 17q48 0 90.5 13t75 39t51.5 64.5t19 89.5q0 64 -46 101.5t-135 37.5 q-54 0 -97.5 -15t-74 -42t-46.5 -65t-16 -84q0 -65 44 -102t135 -37z" />
<glyph horiz-adv-x="617" d="M282 292q65 0 111 23.5t74.5 58.5t41.5 75t13 73q0 30 -10.5 59t-32 52t-55.5 37t-82 14t-90 -15.5t-73 -45.5t-49 -74.5t-18 -101.5q0 -71 43.5 -113t126.5 -42zM342 710q49 0 90 -14t69.5 -44t44.5 -76.5t16 -111.5q0 -24 -1.5 -50t-6.5 -55q-15 -96 -45 -166t-72 -115 t-95 -66.5t-113 -21.5q-69 0 -117 26t-68 82l27 16q19 -54 63.5 -75.5t98.5 -21.5q112 0 187 84.5t103 258.5q2 17 4 38.5t3 44.5q-12 -41 -36 -73.5t-57 -56t-73.5 -36t-85.5 -12.5t-81.5 11.5t-62.5 34.5t-40 56t-14 77q0 60 18.5 109t53 84t82.5 54t108 19z" />
<glyph d="M56 300q13 84 39 143t64 96t87.5 54t109.5 17q101 0 157.5 -50t56.5 -167q0 -21 -2 -44t-6 -49q-13 -84 -39 -143t-64.5 -96t-88 -54t-109.5 -17q-101 0 -157 50t-56 166q0 22 1.5 45t6.5 49zM539 394q0 52 -12.5 88.5t-36.5 58.5t-58.5 32t-77.5 10q-52 0 -95.5 -14 t-77.5 -47t-58 -87.5t-36 -134.5q-9 -53 -9 -95q0 -53 12.5 -88.5t36.5 -58t58.5 -32t78.5 -9.5q52 0 95.5 14t77 47t57.5 87.5t37 134.5q5 26 6.5 49.5t1.5 44.5z" />
<glyph d="M86 28h174l83 530l-114 -88l-11 24l143 106h20l-91 -572h182l-4 -28h-386z" />
<glyph d="M48 0l5 28l290 239q45 37 74.5 67t47.5 55.5t26 48t9 44.5q4 101 -135 101q-74 0 -122 -28t-85 -81l-20 16q21 28 44 50.5t51 38t61.5 23.5t74.5 8q88 0 126.5 -33t35.5 -93q-1 -24 -9 -49t-27.5 -53t-51.5 -60.5t-81 -72.5l-269 -223l401 1l-4 -27h-442z" />
<glyph d="M240 -110q-81 0 -132 29t-78 91l26 16q24 -57 69.5 -83t118.5 -26q60 0 105.5 15.5t76 43t46 65.5t15.5 83q0 28 -7.5 52t-24.5 41.5t-46 27.5t-71 10h-107l4 27h107q34 0 65.5 13t56.5 36t40 56t15 74q0 122 -161 122q-73 0 -122.5 -26.5t-91.5 -84.5l-21 18 q44 61 100 90.5t140 29.5q95 0 141 -37.5t46 -107.5q0 -35 -11 -66t-30 -56.5t-45.5 -44t-56.5 -28.5q33 -8 55 -22.5t34.5 -33t17.5 -40.5t5 -46q0 -54 -19 -98t-55 -75t-88 -48t-117 -17z" />
<glyph d="M18 95l4 25l325 480h33l-325 -477h361l57 362h31l-58 -362h120l-5 -28h-119l-31 -195h-30l30 195h-393z" />
<glyph d="M204 573l-82 -302q51 35 101.5 48.5t102.5 13.5q91 0 145 -40.5t54 -128.5q0 -56 -19.5 -106t-56.5 -87.5t-90.5 -59t-121.5 -21.5q-71 0 -128 29t-83 93l25 16q21 -51 67 -81.5t122 -30.5q64 0 111.5 20.5t79 54.5t47 78t15.5 90q0 148 -176 148q-65 0 -113.5 -19.5 t-97.5 -56.5l-20 9l97 360h379l-4 -27h-354z" />
<glyph d="M283 -10q-50 0 -90.5 14t-69 44t-44.5 76.5t-16 111.5q0 24 1.5 50t6.5 55q15 96 45 166t72 115t95 66.5t113 21.5q69 0 117 -26t68 -82l-27 -16q-19 54 -63.5 75.5t-98.5 21.5q-112 0 -187 -84.5t-103 -258.5q-6 -37 -8 -84q12 41 36 74t57 56.5t73.5 36t86.5 12.5 q45 0 81.5 -11.5t62.5 -34.5t40 -56.5t14 -76.5q0 -60 -18.5 -109t-53 -84t-82.5 -54t-108 -19zM343 408q-65 0 -111 -23.5t-74.5 -58.5t-41.5 -75t-13 -73q0 -30 10.5 -59t32 -52t55.5 -37t82 -14t90 15.5t73 45.5t49 74.5t18 101.5q0 71 -43.5 113t-126.5 42z" />
<glyph d="M146 -100q15 90 49.5 186.5t84 187.5t112.5 169t136 130h-397l5 27h443l-5 -27q-71 -41 -135 -114t-116.5 -164t-90.5 -193.5t-55 -201.5h-31z" />
<glyph d="M261 -10q-103 0 -155 43t-52 120q0 47 15 85.5t41.5 66.5t63.5 46t81 25q-56 11 -87 44.5t-31 87.5q0 49 16.5 86.5t47.5 63t74.5 39t96.5 13.5q91 0 138 -35.5t47 -101.5q0 -42 -13 -75.5t-35.5 -58.5t-53.5 -41t-67 -23q66 -11 104 -49.5t38 -101.5q0 -54 -19.5 -97.5 t-54.5 -73.5t-85 -46.5t-110 -16.5zM323 390q40 0 76.5 11t65 33.5t45.5 56t17 78.5q0 55 -39 85t-119 30q-97 0 -149.5 -46.5t-52.5 -128.5q0 -56 39 -87.5t117 -31.5zM264 17q48 0 90.5 13t75 39t51.5 64.5t19 89.5q0 64 -46 101.5t-135 37.5q-54 0 -97.5 -15t-74 -42 t-46.5 -65t-16 -84q0 -65 44 -102t135 -37z" />
<glyph d="M281 192q65 0 111 23.5t74.5 58.5t41.5 75t13 73q0 30 -10.5 59t-32 52t-55.5 37t-82 14t-90 -15.5t-73 -45.5t-49 -74.5t-18 -101.5q0 -71 43.5 -113t126.5 -42zM341 610q49 0 90 -14t69.5 -44t44.5 -76.5t16 -111.5q0 -24 -1.5 -50t-6.5 -55q-14 -96 -44 -166 t-72.5 -115t-95.5 -66.5t-113 -21.5q-69 0 -117 26t-68 82l27 16q19 -54 63.5 -75.5t98.5 -21.5q112 0 187 84.5t103 258.5q2 17 4 38.5t3 44.5q-12 -41 -36 -73.5t-57 -56t-73.5 -36t-85.5 -12.5t-81.5 11.5t-62.5 34.5t-40 56t-14 77q0 60 18.5 109t53 84t82.5 54t108 19z " />
<glyph horiz-adv-x="640" d="M81 300q13 84 38 143t61.5 96t83.5 54t104 17q96 0 149 -49.5t53 -163.5q0 -22 -1.5 -46.5t-5.5 -50.5q-13 -84 -38.5 -143t-62 -96t-84 -54t-104.5 -17q-95 0 -148 49.5t-53 162.5q0 23 2 47t6 51zM540 398q0 52 -12 87t-34.5 57t-54.5 31.5t-73 9.5q-49 0 -90 -14 t-73 -47t-55 -87.5t-36 -134.5q-9 -57 -9 -100q0 -51 12 -86t34 -56.5t54 -31t73 -9.5q49 0 90.5 14t73.5 47t55 87.5t36 134.5q9 55 9 98z" />
<glyph horiz-adv-x="261" d="M114 0h-30l88 558l-115 -88l-11 24l143 106h20z" />
<glyph horiz-adv-x="513" d="M9 0l5 25l285 243q43 37 72 68t45.5 57t23.5 49.5t7 45.5q0 50 -31.5 73t-96.5 23q-35 0 -63.5 -7t-52 -21t-43 -34.5t-37.5 -46.5l-21 16q40 57 91 88t131 31t117 -30.5t37 -86.5q0 -24 -7 -50t-25 -55t-49 -63.5t-79 -74.5l-263 -224h375l-4 -26h-417z" />
<glyph horiz-adv-x="561" d="M214 -110q-77 0 -125 29t-73 92l23 16q23 -57 66 -84t112 -27q57 0 100.5 15.5t73 43t44 65.5t14.5 83q0 28 -7 52t-23.5 42t-44 28t-67.5 10h-102l4 27h101q32 0 62.5 13t54 36t38 56t14.5 74q0 123 -153 123q-69 0 -115.5 -26t-86.5 -86l-21 18q43 63 95.5 91.5 t132.5 28.5q91 0 135.5 -37.5t44.5 -106.5q0 -35 -10.5 -66.5t-29.5 -57t-44 -44.5t-55 -29q32 -8 53 -22t33 -32.5t17 -41t5 -46.5q0 -54 -18 -97.5t-52.5 -74.5t-84 -48t-111.5 -17z" />
<glyph horiz-adv-x="587" d="M15 95l4 24l311 481h32l-311 -479h345l58 364h30l-58 -364h117l-4 -26h-117l-31 -195h-29l30 195h-377z" />
<glyph horiz-adv-x="551" d="M192 573l-81 -302q48 35 95.5 48.5t97.5 13.5q87 0 138 -40.5t51 -130.5q0 -56 -19 -105.5t-54.5 -86.5t-86 -58.5t-114.5 -21.5q-69 0 -122.5 28.5t-78.5 91.5l24 16q20 -49 62.5 -79.5t117.5 -30.5q59 0 104 20t75 53.5t45.5 77.5t15.5 92q0 147 -168 147 q-62 0 -107.5 -19t-92.5 -56l-20 9l97 360h357l-4 -27h-332z" />
<glyph horiz-adv-x="587" d="M285 -10q-46 0 -84.5 13.5t-66.5 42.5t-43.5 76t-15.5 114q0 24 1.5 50t6.5 55q13 97 41.5 166.5t68.5 114.5t90.5 66.5t108.5 21.5q66 0 111.5 -26t63.5 -82l-25 -16q-18 54 -60.5 75.5t-93.5 21.5q-106 0 -177.5 -85t-97.5 -257q-3 -20 -5.5 -45.5t-3.5 -49.5 q9 42 31 77t53.5 60t71.5 38.5t86 13.5q86 0 137.5 -45.5t51.5 -133.5q0 -60 -18 -109t-50.5 -84t-78.5 -54t-103 -19zM341 408q-55 0 -97.5 -21t-71 -54t-43.5 -74t-15 -81q0 -30 9.5 -59t30 -52t53 -37t78.5 -14q45 0 85 15.5t69.5 46t46.5 74.5t17 101q0 71 -41.5 113 t-120.5 42z" />
<glyph horiz-adv-x="458" d="M97 -100q13 90 46 186.5t80 187t107.5 168.5t129.5 131h-377l5 27h420l-4 -27q-67 -41 -128 -114t-111 -164t-86 -193.5t-52 -201.5h-30z" />
<glyph horiz-adv-x="586" d="M249 -10q-97 0 -147 43t-50 119q0 48 14 86.5t39.5 67t60.5 46.5t77 25q-53 11 -82.5 44t-29.5 87q0 49 16 86.5t45.5 63t71 39t92.5 13.5q87 0 131.5 -35.5t44.5 -101.5q0 -84 -45.5 -133.5t-115.5 -63.5q63 -11 99 -49.5t36 -101.5q0 -54 -18.5 -97.5t-52.5 -74 t-81.5 -47t-104.5 -16.5zM309 390q38 0 72.5 11.5t61 34t42.5 56t16 77.5q0 55 -36.5 85t-111.5 30q-92 0 -141.5 -46.5t-49.5 -128.5q0 -57 36.5 -88t110.5 -31zM252 17q46 0 86.5 13.5t71 39.5t48.5 64.5t18 88.5q0 64 -43.5 101.5t-128.5 37.5q-51 0 -92 -15t-69.5 -42 t-44 -65t-15.5 -84q0 -65 41 -102t128 -37z" />
<glyph horiz-adv-x="587" d="M252 192q55 0 97.5 20.5t71 53.5t43.5 74t15 82q0 30 -9.5 59t-30 52t-53 37t-78.5 14q-45 0 -85 -15.5t-69.5 -46t-46.5 -74.5t-17 -101q0 -71 41.5 -113t120.5 -42zM308 610q46 0 84.5 -13.5t66.5 -42.5t43.5 -76t15.5 -114q0 -24 -1.5 -50t-6.5 -55 q-14 -97 -42 -166.5t-68 -114.5t-90.5 -66.5t-108.5 -21.5q-66 0 -111.5 26t-63.5 82l25 16q18 -54 60.5 -75.5t93.5 -21.5q106 0 177.5 84.5t97.5 257.5q3 20 5 45t3 50q-9 -42 -31 -77t-53.5 -60t-71.5 -38.5t-85 -13.5q-86 0 -137.5 45.5t-51.5 133.5q0 60 18 109 t50.5 84t78.5 54t103 19z" />
<glyph horiz-adv-x="404" d="M9 0zM200 214q63 0 95.5 -32.5t32.5 -107.5q0 -15 -1 -32.5t-4 -37.5q-18 -113 -64 -162t-122 -49q-63 0 -95.5 33t-32.5 108q0 14 1.5 33t3.5 37q9 58 25.5 98t40 65t53.5 36t67 11zM198 191q-29 0 -53.5 -9.5t-44.5 -31t-34.5 -57.5t-23.5 -89q-6 -39 -6 -70 q0 -65 27 -91t76 -26q30 0 55 9.5t44.5 31t34 57.5t22.5 89q6 37 6 69q0 66 -27 92t-76 26z" />
<glyph horiz-adv-x="181" d="M11 0zM53 -200h-27l59 373l-66 -49l-8 22l89 63l17 -1z" />
<glyph horiz-adv-x="343" d="M0 0zM-32 -200l4 23l181 158q29 25 48.5 45t31 37t16 32.5t4.5 30.5q0 65 -88 65q-45 0 -73 -18t-52 -52l-16 15q27 38 60 58t84 20q57 0 85 -22.5t28 -60.5t-24 -75.5t-86 -90.5l-163 -140h249l-4 -25h-285z" />
<glyph horiz-adv-x="356" d="M0 0zM109 -207q-50 0 -80.5 17.5t-46.5 55.5l22 13q14 -32 39 -47t67 -15q66 0 100 31.5t34 80.5q0 32 -18 52.5t-66 20.5h-60l3 23h60q19 0 37 7t31.5 20t22 31t8.5 40q0 68 -90 68q-40 0 -68 -14t-51 -48l-17 15q26 36 58 53t82 17q114 0 114 -86q0 -41 -23.5 -71 t-59.5 -43q37 -9 50.5 -31.5t13.5 -51.5q0 -62 -43 -100t-119 -38z" />
<glyph horiz-adv-x="375" d="M0 0zM-12 -90l4 21l186 276h27l-185 -273h198l33 203h26l-32 -203h68l-3 -24h-69l-17 -110h-27l18 110h-227z" />
<glyph horiz-adv-x="350" d="M0 0zM93 184l-45 -168q29 21 57 28.5t57 7.5q54 0 85.5 -23t31.5 -77q0 -33 -11.5 -62t-33.5 -50.5t-53 -34t-71 -12.5q-45 0 -77.5 17t-49.5 55l21 14q13 -29 38 -45.5t70 -16.5q34 0 60.5 11t44 29t26.5 41.5t9 49.5q0 83 -99 83q-35 0 -62.5 -10.5t-54.5 -30.5l-15 7 l54 210h226l-4 -23h-204z" />
<glyph horiz-adv-x="375" d="M6 0zM138 -207q-29 0 -53 8t-41.5 25.5t-27.5 45t-10 67.5q0 14 1.5 32.5t3.5 30.5q9 56 26.5 96.5t42.5 66t56 37.5t67 12q41 0 70 -15.5t41 -48.5l-21 -13q-11 30 -36 42t-56 12q-63 0 -105.5 -46.5t-57.5 -145.5q-2 -8 -3 -17t-2 -19q17 42 53.5 66t90.5 24 q53 0 84.5 -25.5t31.5 -76.5q0 -70 -41.5 -114t-113.5 -44zM170 31q-31 0 -55.5 -11t-41.5 -29t-26 -40.5t-9 -45.5q0 -17 6 -32.5t18 -28.5t31 -20.5t45 -7.5q27 0 50 8.5t40.5 25.5t27.5 41.5t10 56.5q0 39 -24.5 61t-71.5 22z" />
<glyph horiz-adv-x="295" d="M20 0zM31 -200q8 52 27 106.5t47.5 106t64.5 95.5t77 75h-227l4 24h262l-3 -21q-41 -25 -77.5 -67t-66 -94t-50.5 -110t-31 -115h-27z" />
<glyph horiz-adv-x="373" d="M1 0zM124 -207q-61 0 -92 25t-31 71q0 54 30.5 87.5t79.5 41.5q-62 15 -62 78q0 57 38 87.5t102 30.5q110 0 110 -83q0 -47 -26 -75.5t-66 -38.5q36 -8 56.5 -30t20.5 -58q0 -63 -44 -99.5t-116 -36.5zM160 29q23 0 44 6.5t36.5 19t24.5 31t9 42.5q0 64 -87 64 q-55 0 -84 -25.5t-29 -70.5q0 -67 86 -67zM126 -185q55 0 93 29t38 84q0 36 -25.5 56.5t-73.5 20.5q-61 0 -95.5 -30.5t-34.5 -81.5q0 -36 24 -57t74 -21z" />
<glyph horiz-adv-x="374" d="M0 0zM142 -24q31 0 55.5 11t41.5 29t26 40.5t9 45.5q0 16 -6 32t-18 29t-31 20.5t-45 7.5q-27 0 -50 -8.5t-40.5 -25.5t-27.5 -41.5t-10 -56.5q0 -39 24.5 -61t71.5 -22zM174 214q58 0 95 -33.5t37 -112.5q0 -14 -1.5 -32.5t-3.5 -30.5q-9 -56 -26.5 -96.5t-42.5 -66 t-56 -37.5t-67 -12q-41 0 -70 15.5t-41 48.5l21 13q11 -30 36 -42t56 -12q63 0 106 47t57 145l5 35q-17 -42 -53.5 -65.5t-90.5 -23.5q-53 0 -84.5 25.5t-31.5 76.5q0 70 41.5 114t113.5 44z" />
<glyph horiz-adv-x="309" d="M5 0zM113 -136h-23l17 103h-102l4 22h101l17 107h23l-17 -107h100l-4 -22h-99z" />
<glyph horiz-adv-x="309" d="M2 -11zM230 -11l-3 -22h-225l4 22h224z" />
<glyph horiz-adv-x="309" d="M0 0zM232 25l-4 -23h-224l4 23h224zM221 -43l-3 -22h-225l4 22h224z" />
<glyph horiz-adv-x="208" d="M2 0zM94 -246q-45 8 -68.5 47.5t-23.5 108.5q0 34 6 75q16 104 57 163.5t101 67.5v-21q-49 -10 -84 -62t-50 -148q-4 -21 -5 -40t-1 -36q0 -119 74 -134z" />
<glyph horiz-adv-x="208" d="M0 0zM53 195l6 21q45 -8 68.5 -47.5t23.5 -108.5q0 -35 -6 -75q-16 -104 -57 -163.5t-101 -67.5v21q49 10 84 62t50 148q4 21 5 40t1 36q0 119 -74 134z" />
<glyph horiz-adv-x="238" d="M174 580q-28 0 -28 26q0 17 10 25.5t24 8.5q28 0 28 -26q0 -16 -9.5 -25t-24.5 -9zM142 478h30l-75 -478h-30z" />
<glyph horiz-adv-x="485" d="M63 0zM190 -222l-4 15q19 10 32 31.5t17 48.5q-14 -7 -25.5 0.5t-11.5 22.5q0 16 9 24.5t23 8.5q13 0 20 -7.5t7 -26.5q0 -18 -4.5 -36.5t-13 -34.5t-21 -28t-28.5 -18zM63 0l111 700h30l-111 -700h-30zM388 0l-243 233v3l302 242h37l-300 -244l242 -234h-38z" />
<glyph horiz-adv-x="700" d="M80 0zM325 -10q-115 0 -180 59t-65 193q0 25 2.5 54.5t6.5 54.5q15 97 45 165.5t74 111.5t101.5 62.5t127.5 19.5q85 0 140 -31.5t79 -102.5l-28 -16q-22 67 -71.5 95t-123.5 28q-59 0 -110 -16.5t-91 -55.5t-68.5 -103t-43.5 -158q-9 -59 -9 -106q0 -63 15.5 -106 t44 -70t68.5 -39t90 -12q114 0 183.5 64t90.5 205h-217l4 25h248l-5 -34q-14 -86 -44.5 -142t-72 -88t-91 -44.5t-100.5 -12.5zM557 891h25q-9 -59 -43.5 -82t-89.5 -23t-83 23t-19 82h25q-8 -48 12.5 -65.5t66.5 -17.5q45 0 71.5 17.5t34.5 65.5z" />
<glyph horiz-adv-x="700" d="M80 0zM464 872l-109 -87h-36v2l133 106h26l98 -106v-2h-33zM325 -10q-115 0 -180 59t-65 193q0 25 2.5 54.5t6.5 54.5q15 97 45 165.5t74 111.5t101.5 62.5t127.5 19.5q85 0 140 -31.5t79 -102.5l-28 -16q-22 67 -71.5 95t-123.5 28q-59 0 -110 -16.5t-91 -55.5 t-68.5 -103t-43.5 -158q-9 -59 -9 -106q0 -63 15.5 -106t44 -70t68.5 -39t90 -12q114 0 183.5 64t90.5 205h-217l4 25h248l-5 -34q-14 -86 -44.5 -142t-72 -88t-91 -44.5t-100.5 -12.5z" />
<glyph horiz-adv-x="700" d="M80 0zM285 -222l-4 15q19 10 32 31.5t17 48.5q-14 -7 -25.5 0.5t-11.5 22.5q0 16 9 24.5t23 8.5q13 0 20 -7.5t7 -26.5q0 -18 -4.5 -36.5t-13 -34.5t-21 -28t-28.5 -18zM325 -10q-115 0 -180 59t-65 193q0 25 2.5 54.5t6.5 54.5q15 97 45 165.5t74 111.5t101.5 62.5 t127.5 19.5q85 0 140 -31.5t79 -102.5l-28 -16q-22 67 -71.5 95t-123.5 28q-59 0 -110 -16.5t-91 -55.5t-68.5 -103t-43.5 -158q-9 -59 -9 -106q0 -63 15.5 -106t44 -70t68.5 -39t90 -12q114 0 183.5 64t90.5 205h-217l4 25h248l-5 -34q-14 -86 -44.5 -142t-72 -88 t-91 -44.5t-100.5 -12.5z" />
<glyph horiz-adv-x="700" d="M80 0zM325 -10q-115 0 -180 59t-65 193q0 25 2.5 54.5t6.5 54.5q15 97 45 165.5t74 111.5t101.5 62.5t127.5 19.5q85 0 140 -31.5t79 -102.5l-28 -16q-22 67 -71.5 95t-123.5 28q-59 0 -110 -16.5t-91 -55.5t-68.5 -103t-43.5 -158q-9 -59 -9 -106q0 -63 15.5 -106 t44 -70t68.5 -39t90 -12q114 0 183.5 64t90.5 205h-217l4 25h248l-5 -34q-14 -86 -44.5 -142t-72 -88t-91 -44.5t-100.5 -12.5zM454 802q-27 0 -27 26q0 17 9.5 25.5t23.5 8.5q28 0 28 -27q0 -15 -10 -24t-24 -9z" />
<glyph horiz-adv-x="593" d="M72 0zM252 -222l-4 15q19 10 32 31.5t17 48.5q-14 -7 -25.5 0.5t-11.5 22.5q0 16 9 24.5t23 8.5q13 0 20 -7.5t7 -26.5q0 -18 -4.5 -36.5t-13 -34.5t-21 -28t-28.5 -18zM72 0l111 700h31l-111 -700h-31zM502 0l-327 343l1 2l412 355h39l-414 -356l329 -344h-40z" />
<glyph horiz-adv-x="392" d="M356 363l-4 -26h-294l4 26h294z" />
<glyph horiz-adv-x="577" d="M542 363l-4 -26h-479l4 26h479z" />
<glyph horiz-adv-x="773" d="M737 363l-4 -26h-675l4 26h675z" />
<glyph horiz-adv-x="577" d="M542 363l-4 -26h-479l4 26h479z" />
<glyph horiz-adv-x="235" d="M204 700l-111 -700h-30l111 700h30z" />
<glyph horiz-adv-x="567" d="M87 0l71 453h-96l5 25h95l14 87q12 77 48 110t95 33q20 0 39.5 -3.5t37.5 -13.5l-9 -26q-16 8 -30.5 11.5t-36.5 3.5q-48 0 -76.5 -26.5t-39.5 -93.5l-13 -82h165l-4 -25h-164l-72 -453h-29zM536 700l-111 -700h-30l111 700h30z" />
<glyph horiz-adv-x="567" d="M0 0z" />
</font>
</defs>
</svg>
