<?xml version="1.0" standalone="no"?>
<!DOCTYPE svg PUBLIC "-//W3C//DTD SVG 1.1//EN" "http://www.w3.org/Graphics/SVG/1.1/DTD/svg11.dtd" >
<svg xmlns="http://www.w3.org/2000/svg">
<metadata></metadata>
<defs>
<font id="honeywell_cond_webLtIt" horiz-adv-x="443" >
<font-face units-per-em="1000" ascent="780" descent="-220" />
<missing-glyph horiz-adv-x="167" />
<glyph unicode="fi" horiz-adv-x="438" d="M278 454h-119l-72 -454h-29l72 454h-71l4 24h71l16 95q12 74 43.5 104.5t73.5 30.5q14 0 30.5 -3.5t29.5 -14.5l-16 -24q-11 8 -22 11.5t-24 3.5q-35 0 -56.5 -25t-31.5 -88l-14 -90h120zM376 605q0 16 8 25.5t23 9.5q24 0 24 -25q0 -17 -8.5 -26t-22.5 -9q-24 0 -24 25z M369 478h29l-75 -478h-30z" />
<glyph unicode="fl" horiz-adv-x="440" d="M278 454h-119l-72 -454h-29l72 454h-71l4 24h71l16 95q11 74 43 104.5t74 30.5q14 0 30.5 -3.5t29.5 -14.5l-16 -24q-11 8 -22 11.5t-24 3.5q-35 0 -56.5 -25t-31.5 -88l-14 -90h120zM334 91q-6 -36 5.5 -51t36.5 -15h26l-4 -25h-29q-37 0 -54.5 21.5t-9.5 70.5l96 608 h29z" />
<glyph horiz-adv-x="131" />
<glyph horiz-adv-x="131" />
<glyph unicode="&#xd;" horiz-adv-x="131" />
<glyph unicode=" "  horiz-adv-x="167" />
<glyph unicode="&#x09;" horiz-adv-x="167" />
<glyph unicode="&#xa0;" horiz-adv-x="167" />
<glyph unicode="!" horiz-adv-x="152" d="M163 700l-88 -530h-25l80 530h33zM67 29q0 -35 -31 -35q-11 0 -17.5 7t-6.5 18q0 16 8 25.5t23 9.5q24 0 24 -25z" />
<glyph unicode="&#x22;" horiz-adv-x="197" d="M111 548h-24l22 162h29zM185 548h-24l25 162h29z" />
<glyph unicode="#" horiz-adv-x="533" d="M321 250l80 204h-161l-80 -204h161zM223 0l88 225h-161l-89 -225h-29l89 225h-87l12 25h84l81 204h-93l11 24h91l87 222h29l-87 -222h162l86 222h30l-87 -222h87l-11 -24h-86l-80 -204h92l-9 -25h-92l-88 -225h-30z" />
<glyph unicode="$" horiz-adv-x="418" d="M114 508q0 -48 24 -77t71 -50l9 -4l45 280q-37 0 -65 -11.5t-46.5 -31.5t-28 -47.5t-9.5 -58.5zM340 201q0 42 -19.5 74.5t-73.5 55.5l-14 6l-47 -301q69 2 111.5 44t42.5 121zM149 -62l11 74q-27 2 -51 11t-43.5 27t-33.5 47t-20 70l27 11q9 -74 42.5 -106t83.5 -36 l48 309l-9 4q-55 26 -86.5 61t-31.5 92q0 40 12 73t35 57t56.5 37t77.5 13l13 84h22l-14 -85q51 -4 85.5 -36.5t42.5 -101.5l-27 -12q-8 64 -35.5 92t-69.5 32l-46 -287l14 -6q60 -26 88.5 -63t28.5 -94q0 -91 -50.5 -141t-136.5 -52l-11 -74h-22z" />
<glyph unicode="%" horiz-adv-x="750" d="M229 707q45 0 68.5 -28.5t23.5 -94.5q0 -19 -2 -40t-6 -47q-17 -114 -54 -162t-94 -48q-45 0 -68.5 29t-23.5 95q0 19 1.5 40t5.5 46q18 114 55 162t94 48zM582 700l-355 -700h-28l355 700h28zM227 686q-22 0 -40.5 -9.5t-34 -32t-27.5 -58.5t-20 -88q-4 -26 -5.5 -48 t-1.5 -39q0 -57 18.5 -80t50.5 -23q22 0 40.5 9.5t33.5 31.5t27 58.5t21 89.5q4 26 6 47t2 40q0 56 -18.5 79t-51.5 23zM620 414q45 0 68.5 -28.5t23.5 -94.5q0 -19 -2 -40t-6 -47q-17 -114 -54 -162t-94 -48q-45 0 -68.5 29t-23.5 95q0 19 1.5 40t5.5 46q18 114 55 162 t94 48zM618 393q-22 0 -40.5 -9.5t-34 -32t-27.5 -58.5t-20 -88q-4 -26 -5.5 -48t-1.5 -39q0 -57 18.5 -80t50.5 -23q22 0 40.5 9.5t33.5 31.5t27 58.5t21 89.5q4 26 6 47t2 40q0 56 -18.5 79t-51.5 23z" />
<glyph unicode="&#x26;" horiz-adv-x="513" d="M165 527q0 -63 26 -133q86 53 125 103t39 105q0 45 -22 64t-57 19q-53 0 -82 -42.5t-29 -115.5zM49 149q0 -37 11.5 -62.5t30 -41.5t42 -23t46.5 -7q42 0 82.5 21t76.5 68q-54 66 -94.5 128.5t-66.5 122.5q-71 -45 -99.5 -97t-28.5 -109zM464 12l-18 -22 q-26 24 -47.5 47.5t-43.5 48.5q-39 -50 -84.5 -73.5t-94.5 -23.5q-32 0 -60 9.5t-49 29t-33.5 48.5t-12.5 69q0 77 38.5 133t108.5 100q-14 38 -22 75t-8 73q0 39 9 72.5t26.5 58.5t44 39t61.5 14q21 0 39.5 -5.5t32.5 -17.5t22.5 -32t8.5 -48q0 -31 -9.5 -60t-31.5 -58 t-56.5 -58.5t-84.5 -60.5q23 -56 62 -116.5t93 -125.5q38 57 68 142t49 201h26q-20 -124 -52 -213t-74 -149q22 -25 45 -49.5t47 -47.5z" />
<glyph unicode="'" horiz-adv-x="121" d="M86 548l24 162h28l-28 -162h-24z" />
<glyph unicode="(" horiz-adv-x="259" d="M147 -71q-50 14 -76 74.5t-26 160.5q0 34 3.5 74t10.5 84q28 171 83 272.5t128 120.5l6 -24q-64 -20 -113 -112t-75 -257q-15 -90 -15 -160q0 -91 22.5 -143t64.5 -66z" />
<glyph unicode=")" horiz-adv-x="259" d="M124 715q50 -14 76 -74.5t26 -160.5q0 -34 -3.5 -74t-10.5 -84q-28 -171 -83 -272.5t-128 -120.5l-6 24q64 20 113 112t75 257q15 90 15 160q0 91 -22.5 143t-64.5 66z" />
<glyph unicode="*" horiz-adv-x="308" d="M91 382l-17 15l95 130l-96 45l12 24l95 -47l22 161h28l-28 -161l110 47l5 -24l-112 -46l57 -129l-22 -14l-55 129z" />
<glyph unicode="+" horiz-adv-x="367" d="M171 120h-25l28 173h-129l3 25h129l30 181h25l-29 -181h129l-3 -25h-130z" />
<glyph unicode="," horiz-adv-x="153" d="M7 -106l-8 13q23 14 37 38t19 51q-16 -5 -25 2t-9 21t8.5 24t22.5 10q25 0 25 -28q0 -17 -4.5 -36.5t-13.5 -37.5t-22 -33t-30 -24z" />
<glyph unicode="-" horiz-adv-x="301" d="M262 256l-4 -26h-223l4 26h223z" />
<glyph unicode="." horiz-adv-x="152" d="M76 29q0 -35 -31 -35q-24 0 -24 25q0 16 8 25.5t23 9.5q24 0 24 -25z" />
<glyph unicode="/" horiz-adv-x="341" d="M399 701l-396 -700h-32l397 700h31z" />
<glyph unicode="0" horiz-adv-x="535" d="M68 0zM330 710q75 0 114 -48.5t39 -161.5q0 -32 -3 -69t-10 -81q-15 -98 -38 -166.5t-54.5 -111.5t-71 -62.5t-86.5 -19.5q-74 0 -113 49.5t-39 162.5q0 32 3 68.5t10 79.5q15 98 38 166.5t54.5 111.5t70.5 62.5t86 19.5zM328 684q-39 0 -72 -17t-60 -56.5t-48.5 -103.5 t-36.5 -157q-7 -45 -10.5 -82t-3.5 -68q0 -101 33.5 -142.5t92.5 -41.5q39 0 72 17t60 56t48.5 103t36.5 158q7 44 10.5 81t3.5 69q0 100 -33 142t-93 42z" />
<glyph unicode="1" horiz-adv-x="535" d="M410 0h-374l4 26h171l99 628l-85 -82l-14 22l115 106h22l-107 -674h173z" />
<glyph unicode="2" horiz-adv-x="535" d="M51 0zM51 0l4 25l252 304q36 43 60.5 78t39.5 65.5t21.5 57t6.5 52.5q0 49 -27 75.5t-80 26.5q-51 0 -95.5 -29t-79.5 -105l-23 13q19 42 42 70t48.5 45.5t53.5 24.5t58 7q69 0 101.5 -35t32.5 -92q0 -25 -5.5 -51.5t-20.5 -58t-41.5 -70t-68.5 -88.5l-241 -289h321 l-5 -26h-354z" />
<glyph unicode="3" horiz-adv-x="535" d="M64 0zM64 127l26 11q8 -65 42 -94t90 -29q43 0 77.5 15.5t57.5 44t35.5 67.5t12.5 87q0 27 -6 50t-20 40t-36 26.5t-54 9.5h-64l4 27h63q35 0 63 16t47 42.5t29 60.5t10 71q0 54 -26 83t-80 29q-57 0 -99.5 -28.5t-71.5 -93.5l-23 12q31 69 79 102.5t120 33.5 q67 0 99.5 -36t32.5 -99q0 -34 -8.5 -66.5t-24.5 -60t-39.5 -48t-53.5 -31.5q41 -11 65 -43.5t24 -94.5q0 -53 -15 -97.5t-42.5 -76.5t-67.5 -49.5t-90 -17.5q-63 0 -104 32.5t-52 104.5z" />
<glyph unicode="4" horiz-adv-x="535" d="M48 0zM48 196l3 24l261 480h30l-260 -478h262l58 362h29l-57 -362h87l-4 -26h-87l-32 -196h-29l31 196h-292z" />
<glyph unicode="5" horiz-adv-x="535" d="M61 0zM222 674l-69 -301q30 30 67 45t85 15q63 0 100.5 -37.5t37.5 -120.5q0 -56 -14.5 -107.5t-42.5 -91t-69.5 -63t-95.5 -23.5q-67 0 -108 33t-52 103l27 11q8 -64 43 -93t92 -29q46 0 81.5 21t59.5 56.5t36.5 82t12.5 97.5q0 134 -119 134q-53 0 -90 -21t-69 -53 l-19 8l84 360h287l-4 -26h-261z" />
<glyph unicode="6" horiz-adv-x="535" d="M80 0zM489 584l-25 -10q-10 60 -39 85t-77 25q-83 0 -141 -83t-87 -261q-4 -23 -6.5 -47.5t-4.5 -52.5q7 43 24 78.5t43 61.5t59 40.5t71 14.5q62 0 100 -43.5t38 -124.5q0 -59 -14 -109.5t-41 -88t-65.5 -58.5t-87.5 -21q-33 0 -61.5 12.5t-49.5 39t-33 68t-12 100.5 q0 29 3 61.5t8 69.5q14 97 39 166.5t58.5 114.5t74 66.5t85.5 21.5q60 0 95.5 -29t45.5 -97zM296 409q-42 0 -75.5 -21.5t-57 -55t-36.5 -75.5t-13 -84q0 -29 7 -57.5t21.5 -50.5t38 -35.5t56.5 -13.5q40 0 72.5 18t55.5 51t35.5 78t12.5 99q0 69 -30 108t-87 39z" />
<glyph unicode="7" horiz-adv-x="535" d="M146 0zM146 0q15 93 45 191t71.5 188.5t91.5 167t106 127.5h-298l5 26h334l-4 -26q-54 -42 -104.5 -113.5t-92.5 -161.5t-74 -192.5t-49 -206.5h-31z" />
<glyph unicode="8" horiz-adv-x="535" d="M74 0zM434 229q0 -54 -15.5 -98t-43.5 -75.5t-66.5 -48.5t-83.5 -17q-72 0 -111.5 42t-39.5 115q0 48 12 87.5t33 69t49.5 48.5t60.5 27q-36 13 -58 45t-22 83q0 41 12.5 78t36 64.5t58 44t78.5 16.5q63 0 98.5 -35t35.5 -98q0 -78 -36 -129.5t-93 -71.5q43 -12 69 -50 t26 -97zM439 571q0 53 -27.5 83t-81.5 30q-37 0 -65.5 -14.5t-48 -38.5t-29.5 -56t-10 -68q0 -54 28.5 -85.5t79.5 -31.5q32 0 60 13t49 36.5t33 57t12 74.5zM405 227q0 61 -32.5 98.5t-93.5 37.5q-39 0 -71 -16.5t-55.5 -45t-36 -67t-12.5 -83.5q0 -61 31.5 -98t92.5 -37 q37 0 69.5 15t56.5 43t37.5 67t13.5 86z" />
<glyph unicode="9" horiz-adv-x="535" d="M67 0zM257 290q44 0 78 21.5t57.5 56t36 76.5t12.5 84q0 29 -7 57t-22 50t-38 35.5t-56 13.5q-38 0 -70.5 -17.5t-56 -49.5t-36.5 -77.5t-13 -101.5q0 -69 30 -108.5t85 -39.5zM209 -10q-60 0 -95.5 29t-46.5 97l26 12q9 -61 38 -86.5t77 -25.5q82 0 141 83.5t87 260.5 q4 23 7 48t4 53q-6 -44 -23 -80t-43 -62t-59 -40.5t-71 -14.5q-63 0 -101 43.5t-38 124.5q0 60 14 110.5t40.5 88t65 58.5t88.5 21q33 0 61.5 -12.5t49.5 -38.5t32.5 -68t11.5 -100q0 -29 -3 -62t-8 -70q-15 -97 -39.5 -166.5t-57.5 -114.5t-73 -66.5t-85 -21.5z" />
<glyph unicode=":" horiz-adv-x="153" d="M20 0zM75 29q0 -35 -31 -35q-24 0 -24 25q0 16 8 25.5t23 9.5q24 0 24 -25zM138 424q0 -35 -31 -35q-24 0 -24 25q0 16 8 25.5t23 9.5q24 0 24 -25z" />
<glyph unicode=";" horiz-adv-x="153" d="M0 0zM8 -106l-8 13q23 14 37 38t19 51q-16 -5 -25 2t-9 21t8.5 24t22.5 10q25 0 25 -28q0 -17 -4.5 -36.5t-13.5 -37.5t-22 -33t-30 -24zM139 425q0 -35 -31 -35q-24 0 -24 25q0 16 8 25.5t23 9.5q24 0 24 -25z" />
<glyph unicode="&#x3c;" horiz-adv-x="330" d="M283 495l12 -20l-197 -165l143 -162l-16 -21l-156 177l2 15z" />
<glyph unicode="=" horiz-adv-x="367" d="M341 377l-4 -26h-284l5 26h283zM324 267l-4 -25h-284l5 25h283z" />
<glyph unicode="&#x3e;" horiz-adv-x="330" d="M66 127l-11 21l195 163l-142 163l16 21l155 -177l-2 -15z" />
<glyph unicode="?" horiz-adv-x="373" d="M146 170l20 131h14q41 0 75 18.5t58 50.5t37.5 75.5t13.5 93.5q0 69 -32.5 106.5t-91.5 37.5q-24 0 -47.5 -6t-45.5 -20.5t-41.5 -39.5t-35.5 -64l-25 10q18 41 39.5 69t46.5 45.5t53 25t57 7.5q74 0 113 -44.5t39 -124.5q0 -58 -15.5 -105.5t-42.5 -81.5t-64 -53.5 t-80 -21.5l-19 -109h-26zM163 29q0 -35 -31 -35q-24 0 -24 25q0 16 8 25.5t23 9.5q24 0 24 -25z" />
<glyph unicode="@" horiz-adv-x="603" d="M466 4q-40 -48 -92 -72.5t-115 -24.5q-101 0 -156.5 67.5t-55.5 186.5q0 88 23.5 164t65 132t98.5 88t125 32q98 0 150 -61.5t52 -169.5q0 -53 -10 -99.5t-28.5 -81t-44.5 -54.5t-57 -20q-30 0 -44 21t-7 65q-19 -50 -48.5 -73.5t-65.5 -23.5q-34 0 -54 19.5t-20 54.5 q0 52 36 88t101 36h64q2 14 3 26t1 23q0 40 -17 56t-48 16t-51.5 -14t-38.5 -41l-16 11q37 64 110 64q41 0 62 -21t21 -68q0 -10 -1 -22t-3 -26l-15 -89q-2 -9 -2 -18v-16q0 -50 38 -50q25 0 46 18.5t36.5 50.5t24 75t8.5 93q0 101 -48 157.5t-136 56.5q-63 0 -116 -31 t-92 -85t-60.5 -126.5t-21.5 -154.5q0 -115 51 -177t143 -62q116 0 193 91zM204 156q0 -26 15 -41t42 -15q45 0 75.5 42t41.5 110l1 8h-61q-54 0 -84 -29.5t-30 -74.5z" />
<glyph unicode="A" d="M288 664l-198 -466h250zM362 0l-20 171h-263l-73 -171h-32l302 700h36l79 -700h-29z" />
<glyph unicode="B" horiz-adv-x="490" d="M47 0l111 700h180q72 0 103.5 -37.5t31.5 -97.5q0 -75 -33.5 -131t-91.5 -73q48 -12 68.5 -48.5t20.5 -81.5q0 -50 -12.5 -92.5t-39 -73.5t-68 -48t-99.5 -17h-171zM333 674h-150l-47 -301h160q34 0 61 15t46 40.5t29.5 59t10.5 70.5q0 57 -28 86.5t-82 29.5zM293 345 h-162l-51 -319h143q57 0 92.5 18t56 47t28 65t7.5 72q0 54 -28.5 85.5t-85.5 31.5z" />
<glyph unicode="C" horiz-adv-x="512" d="M73 350q15 98 41 166.5t61 111.5t79 62.5t97 19.5q33 0 61 -8t49 -27t35 -49.5t20 -76.5l-29 -9q-5 42 -17 69.5t-30 44t-41.5 23t-51.5 6.5q-42 0 -80 -16.5t-69.5 -55.5t-55 -102.5t-38.5 -157.5q-12 -75 -12 -132q0 -56 10.5 -94.5t30.5 -62.5t48.5 -34.5t63.5 -10.5 q55 0 105 31.5t85 108.5l25 -13q-36 -82 -94 -118t-124 -36q-42 0 -75.5 12.5t-57 39.5t-36 70t-12.5 104q0 30 3.5 64t8.5 70z" />
<glyph unicode="D" horiz-adv-x="542" d="M47 0l111 700h161q90 0 140 -51t50 -170q0 -26 -3 -57t-8 -64q-15 -96 -41.5 -164t-63.5 -111t-83.5 -63t-101.5 -20h-161zM80 27h129q46 0 87 17t74.5 56t58.5 102t39 155q5 33 8 62.5t3 55.5q0 55 -11.5 93t-33 61.5t-52 34t-68.5 10.5h-131z" />
<glyph unicode="E" horiz-adv-x="478" d="M408 26l-4 -26h-357l111 700h352l-5 -27h-322l-49 -309h281l-4 -27h-281l-49 -311h327z" />
<glyph unicode="F" horiz-adv-x="447" d="M408 330h-280l-52 -330h-29l111 700h341l-5 -27h-311l-50 -316h280z" />
<glyph unicode="G" horiz-adv-x="533" d="M235 -10q-40 0 -72 13t-54.5 40.5t-34.5 70.5t-12 103q0 29 3.5 64t8.5 70q15 98 40.5 166.5t60 111t78.5 62t97 19.5q33 0 60 -7.5t48 -26t35 -48.5t20 -75l-29 -10q-5 41 -17 68t-29.5 43t-41 22.5t-50.5 6.5q-43 0 -80.5 -16.5t-68.5 -55.5t-54.5 -103t-38.5 -158 q-12 -77 -12 -131q0 -56 10.5 -94.5t29.5 -62.5t46.5 -34.5t62.5 -10.5q36 0 69 14t61 45.5t48.5 83t32.5 126.5h-158l4 25h187l-49 -311h-23l21 156q-29 -87 -80 -126.5t-119 -39.5z" />
<glyph unicode="H" horiz-adv-x="572" d="M413 0l53 338h-336l-54 -338h-29l111 700h29l-53 -335h336l54 335h29l-111 -700h-29z" />
<glyph unicode="I" horiz-adv-x="206" d="M47 0l111 700h29l-111 -700h-29z" />
<glyph unicode="J" horiz-adv-x="371" d="M83 -10q-30 0 -55.5 10t-44.5 31l19 24q32 -38 85 -38q64 0 112 54.5t68 180.5l71 448h30l-71 -446q-11 -72 -31 -122.5t-47.5 -82t-62 -45.5t-73.5 -14z" />
<glyph unicode="K" horiz-adv-x="457" d="M374 0l-146 361l-118 -144l-34 -217h-29l111 700h29l-70 -438l351 438h34l-252 -312l157 -388h-33z" />
<glyph unicode="L" horiz-adv-x="450" d="M80 27h314l-4 -27h-343l110 700h30z" />
<glyph unicode="M" horiz-adv-x="687" d="M290 0l-114 648l-101 -648h-28l111 700h37l114 -656l321 656h37l-111 -700h-28l104 647l-318 -647h-24z" />
<glyph unicode="N" horiz-adv-x="567" d="M407 0l-229 652l-102 -652h-29l111 700h33l227 -649l101 649h29l-111 -700h-30z" />
<glyph unicode="O" horiz-adv-x="562" d="M350 710q85 0 131 -51.5t46 -169.5q0 -31 -2.5 -64.5t-9.5 -74.5q-15 -98 -40.5 -166.5t-60 -111.5t-78 -62.5t-96.5 -19.5q-86 0 -132.5 52t-46.5 172q0 59 12 136q15 98 40.5 166.5t60 111.5t79 62.5t97.5 19.5zM347 683q-44 0 -82 -16.5t-68.5 -55t-54 -102.5 t-38.5 -159q-6 -38 -9 -70.5t-3 -64.5q0 -54 10 -92t29.5 -61.5t47 -34t63.5 -10.5q44 0 81.5 16.5t68.5 55.5t54 103t38 159q12 76 12 137q0 54 -10 91t-29 60.5t-46.5 33.5t-63.5 10z" />
<glyph unicode="P" horiz-adv-x="493" d="M47 0l111 700h167q84 0 122.5 -38t38.5 -114q0 -56 -13 -106.5t-40.5 -88.5t-69.5 -61t-100 -23h-144l-43 -269h-29zM323 674h-140l-60 -379h146q43 0 77.5 17.5t59 50.5t37.5 79.5t13 104.5q0 127 -133 127z" />
<glyph unicode="Q" horiz-adv-x="562" d="M350 710q85 0 131 -51.5t46 -169.5q0 -31 -2.5 -64.5t-9.5 -74.5q-22 -136 -61.5 -216t-97.5 -114l54 -112h-30l-49 100q-41 -18 -91 -18q-86 0 -132.5 52t-46.5 172q0 30 3.5 64t9.5 72q15 98 40.5 166.5t60 111.5t78.5 62.5t97 19.5zM347 683q-44 0 -81.5 -16.5 t-68.5 -55t-54.5 -102.5t-38.5 -159q-6 -38 -9 -71t-3 -65q0 -54 10 -92t29.5 -61.5t47 -34t63.5 -10.5q21 0 41 4t37 13l-55 118h30l51 -105q48 31 83 103.5t55 200.5q6 39 9.5 72.5t3.5 65.5q0 54 -10 91t-29.5 60.5t-47 33.5t-63.5 10z" />
<glyph unicode="R" horiz-adv-x="486" d="M126 315h149q87 0 134.5 63t47.5 171q0 67 -33 96t-101 29h-140zM47 0l111 700h167q84 0 123.5 -36.5t39.5 -110.5q0 -45 -9.5 -86t-28 -75t-47.5 -59t-68 -36l73 -297h-31l-70 291q-7 -1 -16.5 -1.5t-19.5 -0.5h-149l-46 -289h-29z" />
<glyph unicode="S" horiz-adv-x="442" d="M436 552l-27 -11q-5 41 -16.5 68.5t-29.5 44t-42 23.5t-52 7q-37 0 -65.5 -12t-47.5 -33t-29 -49t-10 -60q0 -28 7 -49t20.5 -38.5t33 -31.5t44.5 -27l39 -21q64 -35 95 -73t31 -96q0 -96 -52.5 -150t-146.5 -54q-35 0 -64.5 9t-52.5 29.5t-39 53.5t-23 82l28 11 q6 -45 19 -75.5t32.5 -49t45 -26.5t55.5 -8q79 0 123.5 46.5t44.5 127.5q0 46 -24.5 79.5t-82.5 64.5l-39 21q-28 15 -50.5 32t-39 37.5t-25.5 45t-9 55.5q0 39 12 72.5t35.5 59t58 40t80.5 14.5q64 0 108.5 -36.5t54.5 -122.5z" />
<glyph unicode="T" horiz-adv-x="418" d="M81 700h393l-5 -27h-182l-106 -673h-30l107 673h-181z" />
<glyph unicode="U" horiz-adv-x="544" d="M436 234l75 466h30l-74 -466q-20 -128 -82 -186t-155 -58q-81 0 -125 41.5t-44 132.5q0 31 6 70l75 466h30l-75 -464q-3 -18 -4 -35t-1 -32q0 -80 37 -115.5t103 -35.5q79 0 132 49.5t72 166.5z" />
<glyph unicode="V" horiz-adv-x="441" d="M183 36l283 664h31l-302 -700h-36l-79 700h30z" />
<glyph unicode="W" horiz-adv-x="665" d="M126 0l-45 700h30l40 -653l232 645h35l26 -644l247 652h30l-268 -700h-33l-28 640l-231 -640h-35z" />
<glyph unicode="X" horiz-adv-x="463" d="M371 0l-126 338l-236 -338h-31l254 365l-126 335h31l115 -309l213 309h31l-232 -336l136 -364h-29z" />
<glyph unicode="Y" horiz-adv-x="440" d="M207 286l-123 414h32l111 -383l231 383h34l-255 -414l-45 -286h-30z" />
<glyph unicode="Z" horiz-adv-x="426" d="M-17 0l4 24l442 650l-324 -1l5 27h357l-4 -24l-443 -650l349 1l-5 -27h-381z" />
<glyph unicode="[" horiz-adv-x="255" d="M31 -65l120 765h119l-4 -24h-92l-112 -717h99l-3 -24h-127z" />
<glyph unicode="\" horiz-adv-x="346" d="M256 0l-179 700h28l181 -700h-30z" />
<glyph unicode="]" horiz-adv-x="255" d="M239 700l-120 -765h-119l4 24h92l112 717h-99l3 24h127z" />
<glyph unicode="^" horiz-adv-x="282" d="M196 701h26l61 -298v-1h-27l-51 268l-140 -268h-27v1z" />
<glyph unicode="_" horiz-adv-x="356" d="M312 0l-4 -25h-357l5 25h356z" />
<glyph unicode="`" horiz-adv-x="451" d="M233 563l-63 103v4h38l48 -104v-3h-23z" />
<glyph unicode="a" horiz-adv-x="406" d="M55 102q0 -43 20.5 -64.5t58.5 -21.5q63 0 105.5 54t62.5 150l6 38h-86q-38 0 -68.5 -11.5t-52.5 -32t-34 -49.5t-12 -63zM291 133q-25 -71 -67.5 -107t-96.5 -36q-44 0 -72 28t-28 80q0 37 12.5 70t37 58.5t61 40.5t84.5 15h90q5 27 7 45.5t2 32.5q0 59 -24 80.5 t-67 21.5q-41 0 -75 -19.5t-58 -67.5l-24 12q26 50 65 75.5t96 25.5t87 -28t30 -92q0 -30 -6 -66l-47 -302h-25z" />
<glyph unicode="b" horiz-adv-x="445" d="M178 700l-54 -344q24 68 67.5 100t94.5 32q57 0 87 -41.5t30 -122.5q0 -19 -1.5 -40t-5.5 -44q-19 -119 -69 -184.5t-126 -65.5q-47 0 -79.5 29t-37.5 94l-21 -113h-25l111 700h29zM274 462q-59 0 -105 -56t-64 -172q-3 -21 -5 -39.5t-2 -35.5q0 -74 28 -108.5t73 -34.5 q66 0 108 58t59 165q4 23 6 44t2 39q0 69 -24.5 104.5t-75.5 35.5z" />
<glyph unicode="c" horiz-adv-x="395" d="M318 122l25 -11q-52 -121 -164 -121q-135 0 -135 163q0 20 1.5 40.5t5.5 43.5q20 130 70.5 190.5t132.5 60.5q56 0 84.5 -30t38.5 -90l-27 -10q-10 56 -33.5 80t-65.5 24q-68 0 -110 -54t-61 -171q-4 -24 -6 -44.5t-2 -40.5q0 -70 27 -103t83 -33q45 0 78.5 25t57.5 81z " />
<glyph unicode="d" horiz-adv-x="446" d="M174 16q57 0 102.5 55t64.5 173q6 42 6 74q0 74 -27 109t-74 35q-66 0 -107.5 -58t-58.5 -165q-4 -24 -5.5 -43.5t-1.5 -38.5q0 -69 25 -105t76 -36zM164 -10q-60 0 -90 42t-30 122q0 20 1.5 41t5.5 44q18 121 68 185t126 64q48 0 78.5 -30t36.5 -93l53 335h28l-111 -700 h-24l18 123q-25 -68 -67 -100.5t-93 -32.5z" />
<glyph unicode="e" horiz-adv-x="404" d="M177 -10q-63 0 -98 40.5t-35 126.5q0 18 1.5 39t5.5 43q19 123 70 186t130 63q59 0 88.5 -41t29.5 -115q0 -23 -2.5 -47t-7.5 -53h-280q-4 -19 -5 -38.5t-1 -35.5q0 -143 107 -143q92 0 140 109l23 -12q-27 -59 -67 -90.5t-99 -31.5zM341 331q0 132 -94 132 q-63 0 -104.5 -52.5t-59.5 -154.5h252q2 19 4 38.5t2 36.5z" />
<glyph unicode="f" horiz-adv-x="260" d="M278 454h-119l-72 -454h-29l72 454h-71l4 24h71l16 95q11 74 43 104.5t74 30.5q14 0 30.5 -3.5t29.5 -14.5l-16 -24q-11 8 -22 11.5t-24 3.5q-35 0 -56.5 -25t-31.5 -88l-14 -90h120z" />
<glyph unicode="g" d="M170 19q58 0 104 55.5t64 172.5q6 37 6 72q0 73 -27.5 108t-73.5 35q-64 0 -105 -57.5t-58 -163.5q-4 -23 -5.5 -43.5t-1.5 -39.5q0 -68 24.5 -103.5t72.5 -35.5zM23 -84q11 -54 39.5 -74.5t70.5 -20.5q63 0 106 41t60 142l20 120q-24 -67 -66.5 -98.5t-90.5 -31.5 q-58 0 -88.5 41.5t-30.5 121.5q0 19 1.5 39.5t5.5 43.5q19 121 68.5 184.5t124.5 63.5q48 0 79.5 -31t36.5 -94l21 115h24l-76 -480q-17 -109 -68.5 -156t-127.5 -47q-53 0 -87.5 24.5t-49.5 84.5z" />
<glyph unicode="h" horiz-adv-x="450" d="M178 700l-55 -351q24 68 68 103.5t99 35.5q51 0 77.5 -29.5t26.5 -90.5q0 -14 -1 -28.5t-4 -31.5l-49 -308h-29l48 302q2 16 3.5 30.5t1.5 27.5q0 57 -23 79.5t-64 22.5q-32 0 -58.5 -15.5t-48.5 -43t-37.5 -66t-24.5 -83.5l-41 -254h-29l111 700h29z" />
<glyph unicode="i" horiz-adv-x="183" d="M122 605q0 16 8 25.5t23 9.5q24 0 24 -25q0 -35 -31 -35q-24 0 -24 25zM115 478h29l-75 -478h-30z" />
<glyph unicode="j" horiz-adv-x="183" d="M122 605q0 16 8 25.5t23 9.5q24 0 24 -25q0 -35 -31 -35q-24 0 -24 25zM30 -58l85 536h29l-87 -546q-11 -73 -39.5 -105t-70.5 -32q-31 0 -53 13l15 26q10 -6 19.5 -9t23.5 -3q29 0 48 26.5t30 93.5z" />
<glyph unicode="k" horiz-adv-x="376" d="M89 135l-21 -135h-30l111 700h29l-84 -526l255 304h34l-179 -209l113 -269h-32l-101 245z" />
<glyph unicode="l" horiz-adv-x="183" d="M77 91q-6 -36 5.5 -51t36.5 -15h26l-4 -25h-29q-37 0 -54.5 21.5t-9.5 70.5l96 608h29z" />
<glyph unicode="m" horiz-adv-x="670" d="M579 302q3 17 5 33t2 29q0 54 -21 76t-56 22q-54 0 -94 -53.5t-60 -144.5l-42 -264h-28l48 301q3 18 4 33.5t1 28.5q0 54 -20 76.5t-55 22.5q-54 0 -94.5 -55t-60.5 -152l-41 -255h-29l77 478h25l-19 -129q23 69 65 104t90 35t70 -36.5t16 -107.5q26 72 68 108t91 36 q94 0 94 -115q0 -30 -6 -64l-49 -309h-29z" />
<glyph unicode="n" horiz-adv-x="450" d="M38 0l77 478h25l-18 -131q22 69 67 105t100 36q51 0 78 -29.5t27 -90.5q0 -14 -1 -28.5t-4 -31.5l-49 -308h-29l48 302q2 16 3.5 30.5t1.5 26.5q0 57 -23 80t-64 23q-32 0 -58.5 -15.5t-48.5 -43t-37.5 -65.5t-24.5 -83l-41 -255h-29z" />
<glyph unicode="o" horiz-adv-x="429" d="M44 153q0 19 1.5 40t5.5 45q20 128 70.5 189t132.5 61q65 0 98.5 -39.5t33.5 -123.5q0 -19 -2 -41t-6 -46q-20 -127 -70.5 -187.5t-130.5 -60.5q-133 0 -133 163zM180 16q69 0 110 54.5t59 166.5q4 25 6 47t2 42q0 136 -107 136q-69 0 -110.5 -55t-59.5 -170 q-4 -23 -5.5 -45t-1.5 -39q0 -137 107 -137z" />
<glyph unicode="p" horiz-adv-x="446" d="M278 462q-60 0 -107 -56t-66 -172q-3 -20 -5 -39t-2 -36q0 -74 28.5 -109t73.5 -35q66 0 107.5 58.5t58.5 165.5q4 24 6 45t2 41q0 67 -23.5 102t-72.5 35zM9 -186l106 664h25l-18 -126q25 70 69.5 103t96.5 33q57 0 86 -41.5t29 -120.5q0 -20 -2 -41t-6 -45 q-17 -119 -67.5 -184.5t-126.5 -65.5q-46 0 -78.5 29t-35.5 92l-49 -297h-29z" />
<glyph unicode="q" horiz-adv-x="446" d="M301 -186h-28l48 304q-24 -66 -66.5 -97t-90.5 -31q-60 0 -90 42t-30 122q0 20 1.5 41t5.5 44q18 119 67.5 184t126.5 65q47 0 80 -30t38 -94l20 114h24zM174 16q57 0 102.5 55.5t65.5 173.5q6 40 6 73q0 74 -27.5 109t-73.5 35q-66 0 -108 -58t-59 -166 q-4 -22 -5.5 -42.5t-1.5 -37.5q0 -142 101 -142z" />
<glyph unicode="r" horiz-adv-x="252" d="M38 0l77 478h25l-19 -135q23 69 66 105.5t91 34.5l-5 -31q-57 2 -101 -49.5t-65 -150.5l-40 -252h-29z" />
<glyph unicode="s" horiz-adv-x="358" d="M11 113l27 11q11 -59 40.5 -84t74.5 -25q54 0 85.5 31.5t31.5 79.5q0 32 -17 56t-60 43l-29 13q-45 20 -70 48.5t-25 73.5q0 60 38 94.5t103 34.5q53 0 81.5 -24.5t40.5 -77.5l-26 -12q-9 47 -34 68t-64 21q-56 0 -83.5 -30t-27.5 -71q0 -32 17 -54.5t60 -42.5l28 -13 q51 -23 74 -52t23 -71q0 -29 -9.5 -54t-28.5 -44.5t-47 -30.5t-64 -11q-58 0 -92 31.5t-47 91.5z" />
<glyph unicode="t" horiz-adv-x="263" d="M206 32l7 -25q-15 -9 -31 -13t-28 -4q-41 0 -64.5 21.5t-23.5 74.5q0 11 1 23.5t3 23.5l52 321h-69l3 24h70l23 148h29l-24 -148h121l-4 -24h-120l-51 -318q-10 -61 2.5 -90t51.5 -29q13 0 26 3.5t26 11.5z" />
<glyph unicode="u" horiz-adv-x="449" d="M165 -10q-54 0 -81.5 32t-27.5 91q0 14 1 28t3 30l49 307h29l-48 -300q-3 -17 -3.5 -31t-0.5 -27q0 -55 24 -79.5t67 -24.5q30 0 56 15t47 42t36.5 65t24.5 83l40 257h29l-76 -478h-25l19 128q-23 -66 -66 -102t-97 -36z" />
<glyph unicode="v" horiz-adv-x="350" d="M48 478h31l62 -446l203 446h31l-222 -478h-33z" />
<glyph unicode="w" horiz-adv-x="526" d="M280 466h32l34 -429l172 441h29l-191 -478h-33l-33 424l-163 -424h-34l-42 478h30l35 -442z" />
<glyph unicode="x" horiz-adv-x="361" d="M272 0l-95 223l-165 -223h-31l184 248l-99 230h31l88 -206l153 206h31l-173 -231l107 -247h-31z" />
<glyph unicode="y" horiz-adv-x="354" d="M105 -48l21 45l-74 481h31l64 -441l202 441h31l-251 -537q-22 -47 -42 -76t-39 -44.5t-36.5 -20.5t-35.5 -5q-14 0 -28 2.5t-28 10.5l13 25q22 -11 46 -11q15 0 29 4.5t29 18.5t31.5 39.5t36.5 67.5z" />
<glyph unicode="z" horiz-adv-x="350" d="M-8 0l4 24l319 429h-242l4 25h274l-4 -24l-318 -429h252l-4 -25h-285z" />
<glyph unicode="{" horiz-adv-x="261" d="M148 -72q-63 8 -62 84q0 20 5 44.5t11.5 52t12 56t5.5 56.5q0 45 -15.5 66t-55.5 21h-14l3 24h15q51 0 76 33.5t35 102.5q5 32 6.5 67t6.5 70q8 51 32 77t62 31l6 -24q-29 -5 -48 -25t-25 -61q-5 -29 -6 -65t-7 -74q-10 -64 -31.5 -98.5t-61.5 -45.5q27 -10 38 -33 t11 -62q0 -29 -5.5 -58.5t-12 -57t-12 -52t-5.5 -42.5q0 -29 12.5 -43.5t35.5 -19.5z" />
<glyph unicode="|" horiz-adv-x="202" d="M36 -65l131 831h28l-131 -831h-28z" />
<glyph unicode="}" horiz-adv-x="261" d="M128 713q63 -8 62 -84q0 -20 -5 -44.5t-11.5 -52t-12 -56t-5.5 -56.5q0 -45 15.5 -66t55.5 -21h14l-3 -24h-15q-51 0 -76 -33.5t-35 -102.5q-5 -32 -6.5 -67t-6.5 -70q-8 -51 -32 -77t-62 -31l-6 24q29 5 48 25t25 61q5 29 6 65t7 74q10 64 31.5 98.5t61.5 45.5 q-27 10 -38 33t-11 62q0 28 5.5 58t12 57.5t12 52t5.5 42.5q0 29 -12.5 43.5t-35.5 19.5z" />
<glyph unicode="~" horiz-adv-x="373" d="M196 332q-17 15 -32.5 27t-36.5 12q-20 0 -40.5 -16.5t-33.5 -65.5l-23 4q7 31 18.5 51.5t24.5 32.5t27.5 17t29.5 5q26 0 44.5 -13t35.5 -30q15 -15 31.5 -27t37.5 -12q9 0 19.5 3.5t20.5 12.5t18.5 25t14.5 41l23 -4q-7 -31 -18 -51.5t-24 -32.5t-28 -17t-29 -5 q-26 0 -44.5 13.5t-35.5 29.5z" />
<glyph unicode="&#xa1;" horiz-adv-x="155" d="M-19 -206l88 530h25l-80 -530h-33zM77 465q0 35 31 35q11 0 17.5 -7t6.5 -18q0 -16 -8 -25.5t-23 -9.5q-24 0 -24 25z" />
<glyph unicode="&#xa2;" horiz-adv-x="398" d="M150 -62l12 79q-118 6 -118 152q0 19 1.5 39.5t5.5 43.5q17 118 64 176t122 63l13 80h21l-12 -80q51 -2 79 -32t38 -87l-26 -10q-9 54 -32.5 78t-62.5 26l-67 -425q43 2 74.5 27t54.5 78l23 -12q-26 -57 -65 -86.5t-91 -30.5l-12 -79h-22zM71 168q0 -121 95 -127l67 424 q-61 -5 -99.5 -56t-55.5 -157q-4 -24 -5.5 -45t-1.5 -39z" />
<glyph unicode="&#xa3;" horiz-adv-x="427" d="M369 67q-32 -44 -64.5 -55.5t-67.5 -11.5h-243l4 25h14q29 0 45.5 28t24.5 88l24 183h-60l4 25h59l23 177q12 91 53 137.5t109 46.5q58 0 93 -31.5t47 -109.5l-27 -10q-10 69 -39 97t-74 28q-111 0 -132 -159l-23 -176h169l-5 -25h-167l-24 -180q-12 -98 -48 -119h175 q29 0 56 10.5t55 49.5z" />
<glyph unicode="&#xa5;" horiz-adv-x="449" d="M388 263h-152l-42 -263h-30l43 263h-154l5 25h151l-18 59h-124l4 25h114l-98 328h32l111 -385l232 385h33l-203 -328h114l-4 -25h-124l-37 -59h152z" />
<glyph unicode="&#xa6;" horiz-adv-x="202" d="M106 377l61 389h28l-62 -389h-27zM36 -65l62 389h27l-61 -389h-28z" />
<glyph unicode="&#xa7;" horiz-adv-x="390" d="M320 349q0 27 -16 51.5t-54 39.5l-26 10q-19 7 -41 4t-40.5 -16.5t-30.5 -37t-12 -57.5q0 -27 16.5 -51t54.5 -41l21 -9q22 -9 45 -5.5t41.5 18.5t30 39t11.5 55zM296 122q0 -28 -8 -54t-24.5 -46t-42 -32t-61.5 -12q-66 0 -100 33t-48 94l25 13q12 -62 43.5 -88.5 t79.5 -26.5q56 0 81.5 32.5t25.5 81.5q0 33 -16 55.5t-57 39.5l-29 12q-42 17 -67 45.5t-25 70.5q1 60 31.5 94.5t70.5 37.5q-18 11 -35 36.5t-17 63.5q0 28 8.5 53t25.5 44t42 30t58 11q51 0 80 -25t42 -79l-26 -12q-9 49 -34.5 70t-63.5 21q-45 0 -74.5 -30.5t-29.5 -78.5 q0 -32 16 -56.5t56 -41.5l32 -13q28 -11 45.5 -25t27.5 -28.5t13.5 -30t3.5 -29.5q0 -50 -27 -88t-74 -45q28 -19 40 -43.5t12 -53.5z" />
<glyph unicode="&#xa8;" horiz-adv-x="451" d="M171 605q0 34 31 34q11 0 17.5 -6.5t6.5 -18.5q0 -16 -8.5 -25t-22.5 -9q-24 0 -24 25zM278 605q0 34 31 34q24 0 24 -25q0 -34 -31 -34q-24 0 -24 25z" />
<glyph unicode="&#xa9;" horiz-adv-x="605" d="M365 685q100 0 154 -66t54 -182q0 -63 -12 -123q-14 -67 -40 -122t-63.5 -94.5t-85 -61.5t-104.5 -22q-100 0 -155 66.5t-55 181.5q0 36 5 71t13 70q15 64 41.5 116t63 89t83 57t101.5 20zM363 668q-50 0 -92.5 -19t-77 -54.5t-60 -84.5t-39.5 -109q-8 -33 -12 -67 t-4 -69q0 -111 50 -172.5t142 -61.5q52 0 96.5 21t79.5 58.5t59.5 90t36.5 115.5q12 58 12 119q0 111 -49.5 172t-141.5 61zM419 271q-44 -97 -128 -97q-51 0 -78 28.5t-27 90.5q0 14 1.5 28.5t3.5 29.5q14 94 54 137t102 43q81 0 94 -86l-23 -9q-7 40 -25.5 57t-47.5 17 q-51 0 -83.5 -36t-46.5 -123q-3 -17 -4 -30.5t-1 -25.5q0 -53 22 -76.5t62 -23.5q67 0 105 84z" />
<glyph unicode="&#xaa;" horiz-adv-x="296" d="M139 379q43 0 75 38.5t45 109.5l3 19h-62q-29 0 -51 -8.5t-36.5 -23t-22 -33t-7.5 -38.5q0 -32 15 -48t41 -16zM248 454q-17 -46 -47 -70.5t-68 -24.5q-32 0 -52.5 20t-20.5 61q0 26 9 48.5t27 39.5t44.5 27t61.5 10h64q4 20 4.5 32t0.5 21q0 40 -16.5 55t-48.5 15 q-34 0 -56 -13.5t-39 -38.5l-15 13q22 32 50 46.5t65 14.5q41 0 62.5 -20t21.5 -67q0 -11 -1 -21.5t-3 -24.5l-33 -211h-20z" />
<glyph unicode="&#xab;" horiz-adv-x="445" d="M155 0l-104 237l1 3l179 238h33l-182 -241l105 -237h-32zM294 0l-106 238l1 3l179 237h33l-181 -241l106 -237h-32z" />
<glyph unicode="&#xad;" horiz-adv-x="294" d="M255 256l-4 -26h-216l4 26h216z" />
<glyph unicode="&#xae;" horiz-adv-x="351" d="M185 352q-54 0 -82.5 35.5t-28.5 97.5q0 23 4 46q6 40 20.5 73t35.5 56.5t48 36.5t59 13q52 0 81 -36t29 -97q0 -11 -1 -23t-3 -24q-14 -81 -56 -129.5t-106 -48.5zM186 365q57 0 95.5 44.5t50.5 121.5q2 12 3 23.5t1 21.5q0 58 -25.5 89.5t-70.5 31.5q-57 0 -96 -44.5 t-51 -121.5q-2 -12 -3 -23.5t-1 -21.5q0 -57 26 -89t71 -32zM177 528h36q21 0 31.5 13.5t10.5 36.5q0 33 -29 33h-35zM150 445l28 180h49q22 0 32.5 -12.5t10.5 -32.5q0 -24 -9.5 -40.5t-28.5 -22.5l15 -72h-15l-15 69h-42l-11 -69h-14z" />
<glyph unicode="&#xaf;" horiz-adv-x="451" d="M345 626l-4 -23h-168l3 23h169z" />
<glyph unicode="&#xb0;" horiz-adv-x="339" d="M181 366q-52 0 -79 36.5t-26 99.5q0 46 12 85t33 66.5t49.5 43t63.5 15.5q52 0 79 -36.5t26 -98.5q0 -47 -12 -86t-33 -66.5t-50 -43t-63 -15.5zM183 388q28 0 52 13.5t42 38.5t28.5 59.5t10.5 76.5q0 54 -21.5 84t-63.5 30q-28 0 -52 -13.5t-41.5 -38.5t-27.5 -59.5 t-10 -76.5q-1 -54 20.5 -84t62.5 -30z" />
<glyph unicode="&#xb1;" horiz-adv-x="368" d="M174 127h-25l27 169h-129l4 25h129l29 178h25l-29 -178h130l-5 -25h-129zM288 25l-4 -25h-284l4 25h284z" />
<glyph unicode="&#xb2;" horiz-adv-x="255" d="M39 293zM39 293l3 19l145 175q40 49 56.5 81t16.5 61q0 56 -60 56q-29 0 -53.5 -16t-45.5 -58l-17 9q23 50 53.5 68.5t66.5 18.5q42 0 61.5 -20.5t19.5 -54.5q0 -15 -3.5 -31t-12.5 -34.5t-25 -41t-40 -51.5l-133 -160l181 1l-3 -22h-210z" />
<glyph unicode="&#xb3;" horiz-adv-x="268" d="M47 287zM47 368l22 8q5 -35 23.5 -51.5t48.5 -16.5q49 0 75.5 33.5t26.5 85.5q0 31 -15 50.5t-51 19.5h-35l3 20h35q20 0 35.5 9t26.5 24t16.5 34t5.5 40q0 62 -59 62q-32 0 -55.5 -16t-39.5 -52l-20 8q35 81 119 81q41 0 60.5 -21.5t19.5 -58.5q0 -38 -19 -72t-54 -47 q23 -8 37 -26.5t14 -53.5q0 -63 -33.5 -102t-93.5 -39q-38 0 -62.5 18.5t-30.5 62.5z" />
<glyph unicode="&#xb4;" horiz-adv-x="451" d="M304 670h39l-1 -4l-92 -103h-24v3z" />
<glyph unicode="&#xb6;" horiz-adv-x="473" d="M87 443q0 -76 32.5 -112t92.5 -35h36l60 378h-32q-88 0 -138.5 -58t-50.5 -173zM394 674h-59l-60 -378h58zM425 700l-111 -700h-27l42 269h-58l-42 -269h-27l42 269h-35q-40 0 -68.5 12.5t-47 35.5t-27 55t-8.5 71q0 123 57.5 190t167.5 67h142z" />
<glyph unicode="&#xb7;" horiz-adv-x="154" d="M60 306zM115 341q0 -35 -31 -35q-24 0 -24 25q0 16 8 25.5t23 9.5q24 0 24 -25z" />
<glyph unicode="&#xb8;" horiz-adv-x="451" d="M204 -221q-31 0 -48.5 12.5t-27.5 37.5l21 11q11 -40 55 -40q32 0 47 17.5t15 43.5q0 29 -19 37t-40 0l-8 7l30 95h21l-27 -83q11 2 23 0.5t21.5 -8.5t15.5 -18.5t6 -28.5q0 -41 -23.5 -62t-61.5 -21z" />
<glyph unicode="&#xb9;" horiz-adv-x="146" d="M76 293zM100 293h-24l58 371l-50 -44l-8 19l71 63h18z" />
<glyph unicode="&#xba;" horiz-adv-x="310" d="M69 475q0 13 1.5 27.5t3.5 31.5q14 91 49.5 133.5t92.5 42.5q95 0 95 -116q0 -15 -1 -29t-3 -31q-14 -90 -50.5 -132.5t-93.5 -42.5q-94 0 -94 116zM165 380q94 0 118 154q2 16 3 31t1 29q0 96 -73 96q-92 0 -116 -156q-3 -17 -4 -32t-1 -28q0 -47 17 -70.5t55 -23.5z " />
<glyph unicode="&#xbb;" horiz-adv-x="445" d="M285 479l104 -237l-1 -3l-179 -238h-33l182 241l-105 237h32zM146 479l106 -238l-1 -3l-179 -237h-33l181 241l-106 237h32z" />
<glyph unicode="&#xbc;" horiz-adv-x="605" d="M98 293h-24l58 371l-50 -44l-8 19l71 63h18zM452 700l-355 -700h-28l355 700h28zM322 112l3 18l149 279h24l-149 -276h146l32 202h24l-32 -202h49l-3 -21h-49l-19 -112h-23l18 112h-170z" />
<glyph unicode="&#xbd;" horiz-adv-x="579" d="M99 293h-24l58 371l-50 -44l-8 19l71 63h18zM452 700l-355 -700h-28l355 700h28zM307 0l3 19l145 175q40 49 56.5 81t16.5 61q0 56 -60 56q-29 0 -53.5 -16t-45.5 -58l-17 9q23 50 53.5 68.5t66.5 18.5q42 0 61.5 -20.5t19.5 -54.5q0 -15 -3.5 -31t-12.5 -34.5t-25 -41 t-40 -51.5l-133 -160l181 1l-3 -22h-210z" />
<glyph unicode="&#xbe;" horiz-adv-x="704" d="M558 700l-355 -700h-28l355 700h28zM422 112l3 18l149 279h24l-149 -276h146l32 202h24l-32 -202h49l-3 -21h-49l-19 -112h-23l18 112h-170zM48 368l22 8q5 -35 23.5 -51.5t48.5 -16.5q49 0 75.5 33.5t26.5 85.5q0 31 -15 50.5t-51 19.5h-35l3 20h35q20 0 35.5 9t26.5 24 t16.5 34t5.5 40q0 62 -59 62q-32 0 -55.5 -16t-39.5 -52l-20 8q35 81 119 81q41 0 60.5 -21.5t19.5 -58.5q0 -38 -19 -72t-54 -47q23 -8 37 -26.5t14 -53.5q0 -63 -33.5 -102t-93.5 -39q-38 0 -62.5 18.5t-30.5 62.5z" />
<glyph unicode="&#xbf;" horiz-adv-x="370" d="M208 323l-20 -131h-14q-41 0 -75 -18.5t-58 -50.5t-37.5 -75.5t-13.5 -93.5q0 -69 32.5 -106.5t91.5 -37.5q24 0 47.5 6t45.5 20.5t41.5 39.5t35.5 64l25 -10q-35 -82 -86.5 -114.5t-109.5 -32.5q-74 0 -113 44.5t-39 124.5q0 58 15 105.5t42 81.5t64 53.5t81 21.5 l19 109h26zM191 464q0 35 31 35q24 0 24 -25q0 -16 -8 -25.5t-23 -9.5q-24 0 -24 25z" />
<glyph unicode="&#xc0;" d="M0 0zM288 664l-198 -466h250zM362 0l-20 171h-263l-73 -171h-32l302 700h36l79 -700h-29zM298 785l-63 103v4h38l48 -104v-3h-23z" />
<glyph unicode="&#xc1;" d="M0 0zM288 664l-198 -466h250zM362 0l-20 171h-263l-73 -171h-32l302 700h36l79 -700h-29zM368 892h39l-1 -4l-92 -103h-24v3z" />
<glyph unicode="&#xc2;" d="M0 0zM288 664l-198 -466h250zM362 0l-20 171h-263l-73 -171h-32l302 700h36l79 -700h-29zM309 892h24l69 -105v-2h-28l-55 86l-83 -86h-31v2z" />
<glyph unicode="&#xc3;" d="M0 0zM288 664l-198 -466h250zM362 0l-20 171h-263l-73 -171h-32l302 700h36l79 -700h-29zM392 878h22q-3 -23 -9.5 -37.5t-15 -23t-17.5 -11.5t-17 -3q-16 0 -26 8.5t-19 19t-17.5 19t-21.5 8.5q-11 0 -20.5 -10t-13.5 -41h-22q3 23 9.5 37.5t14.5 22.5t17 11t17 3 q16 0 26 -8.5t19 -18.5t18 -18.5t22 -8.5q12 0 20.5 11t13.5 40z" />
<glyph unicode="&#xc4;" d="M0 0zM288 664l-198 -466h250zM362 0l-20 171h-263l-73 -171h-32l302 700h36l79 -700h-29zM231 827q0 34 31 34q11 0 17.5 -6.5t6.5 -18.5q0 -16 -8.5 -25t-22.5 -9q-24 0 -24 25zM338 827q0 34 31 34q24 0 24 -25q0 -34 -31 -34q-24 0 -24 25z" />
<glyph unicode="&#xc5;" d="M0 0zM288 664l-198 -466h250zM362 0l-20 171h-263l-73 -171h-32l302 700h36l79 -700h-29zM325 933q25 0 43 -17.5t18 -50.5q0 -38 -22 -65.5t-57 -27.5q-25 0 -43 17t-18 51q0 37 22 65t57 28zM322 914q-23 0 -39 -21.5t-16 -50.5q0 -25 12 -38t29 -13q24 0 41 21t17 51 q0 25 -13 38t-31 13z" />
<glyph unicode="&#xc6;" horiz-adv-x="662" d="M290 668l-200 -470h243zM-25 0l302 700h416l-5 -26h-370l28 -309h253l-4 -27h-247l29 -311h217l-4 -27h-238l-17 171h-256l-73 -171h-31z" />
<glyph unicode="&#xc7;" horiz-adv-x="512" d="M206 -221q-31 0 -48.5 12.5t-27.5 37.5l21 11q11 -40 55 -40q32 0 47 17.5t15 43.5q0 29 -19 37t-40 0l-8 7l27 85q-77 4 -122 56.5t-45 169.5q0 30 3.5 64t8.5 70q15 98 41 166.5t61 111.5t79 62.5t97 19.5q33 0 61 -8t49 -27t35 -49.5t20 -76.5l-29 -9q-5 42 -17 69.5 t-30 44t-41.5 23t-51.5 6.5q-42 0 -80 -16.5t-69.5 -55.5t-55 -102.5t-38.5 -157.5q-12 -75 -12 -132q0 -56 10.5 -94.5t30.5 -62.5t48.5 -34.5t63.5 -10.5q55 0 105 31.5t85 108.5l25 -13q-35 -80 -91.5 -116t-119.5 -38l-24 -73q11 2 23 0.5t21.5 -8.5t15.5 -18.5t6 -28.5 q0 -41 -23.5 -62t-61.5 -21z" />
<glyph unicode="&#xc8;" horiz-adv-x="478" d="M47 0zM408 26l-4 -26h-357l111 700h352l-5 -27h-322l-49 -309h281l-4 -27h-281l-49 -311h327zM339 785l-63 103v4h38l48 -104v-3h-23z" />
<glyph unicode="&#xc9;" horiz-adv-x="478" d="M47 0zM408 26l-4 -26h-357l111 700h352l-5 -27h-322l-49 -309h281l-4 -27h-281l-49 -311h327zM409 892h39l-1 -4l-92 -103h-24v3z" />
<glyph unicode="&#xca;" horiz-adv-x="478" d="M47 0zM408 26l-4 -26h-357l111 700h352l-5 -27h-322l-49 -309h281l-4 -27h-281l-49 -311h327zM350 892h24l69 -105v-2h-28l-55 86l-83 -86h-31v2z" />
<glyph unicode="&#xcb;" horiz-adv-x="478" d="M47 0zM408 26l-4 -26h-357l111 700h352l-5 -27h-322l-49 -309h281l-4 -27h-281l-49 -311h327zM272 827q0 34 31 34q11 0 17.5 -6.5t6.5 -18.5q0 -16 -8.5 -25t-22.5 -9q-24 0 -24 25zM379 827q0 34 31 34q24 0 24 -25q0 -34 -31 -34q-24 0 -24 25z" />
<glyph unicode="&#xcc;" horiz-adv-x="206" d="M47 0zM47 0l111 700h29l-111 -700h-29zM178 785l-63 103v4h38l48 -104v-3h-23z" />
<glyph unicode="&#xcd;" horiz-adv-x="206" d="M47 0zM47 0l111 700h29l-111 -700h-29zM248 892h39l-1 -4l-92 -103h-24v3z" />
<glyph unicode="&#xce;" horiz-adv-x="206" d="M47 0zM47 0l111 700h29l-111 -700h-29zM189 892h24l69 -105v-2h-28l-55 86l-83 -86h-31v2z" />
<glyph unicode="&#xcf;" horiz-adv-x="206" d="M47 0zM47 0l111 700h29l-111 -700h-29zM111 827q0 34 31 34q11 0 17.5 -6.5t6.5 -18.5q0 -16 -8.5 -25t-22.5 -9q-24 0 -24 25zM218 827q0 34 31 34q24 0 24 -25q0 -34 -31 -34q-24 0 -24 25z" />
<glyph unicode="&#xd0;" horiz-adv-x="551" d="M216 0h-162l57 353h-61l5 26h59l51 321h162q45 0 80 -12t59.5 -38.5t37.5 -68.5t13 -102q0 -26 -3 -57t-8 -64q-15 -96 -42 -164t-64 -111t-83.5 -63t-100.5 -20zM88 27h129q46 0 86.5 17t74 56t58 102t39.5 155q5 33 8 62.5t3 55.5q0 55 -11.5 93t-32.5 61.5t-51.5 34 t-68.5 10.5h-132l-46 -295h133l-5 -26h-133z" />
<glyph unicode="&#xd1;" horiz-adv-x="567" d="M47 0zM407 0l-229 652l-102 -652h-29l111 700h33l227 -649l101 649h29l-111 -700h-30zM453 878h22q-3 -23 -9.5 -37.5t-15 -23t-17.5 -11.5t-17 -3q-16 0 -26 8.5t-19 19t-17.5 19t-21.5 8.5q-11 0 -20.5 -10t-13.5 -41h-22q3 23 9.5 37.5t14.5 22.5t17 11t17 3 q16 0 26 -8.5t19 -18.5t18 -18.5t22 -8.5q12 0 20.5 11t13.5 40z" />
<glyph unicode="&#xd2;" horiz-adv-x="562" d="M61 0zM350 710q85 0 131 -51.5t46 -169.5q0 -31 -2.5 -64.5t-9.5 -74.5q-15 -98 -40.5 -166.5t-60 -111.5t-78 -62.5t-96.5 -19.5q-86 0 -132.5 52t-46.5 172q0 59 12 136q15 98 40.5 166.5t60 111.5t79 62.5t97.5 19.5zM347 683q-44 0 -82 -16.5t-68.5 -55t-54 -102.5 t-38.5 -159q-6 -38 -9 -70.5t-3 -64.5q0 -54 10 -92t29.5 -61.5t47 -34t63.5 -10.5q44 0 81.5 16.5t68.5 55.5t54 103t38 159q12 76 12 137q0 54 -10 91t-29 60.5t-46.5 33.5t-63.5 10zM355 785l-63 103v4h38l48 -104v-3h-23z" />
<glyph unicode="&#xd3;" horiz-adv-x="562" d="M61 0zM350 710q85 0 131 -51.5t46 -169.5q0 -31 -2.5 -64.5t-9.5 -74.5q-15 -98 -40.5 -166.5t-60 -111.5t-78 -62.5t-96.5 -19.5q-86 0 -132.5 52t-46.5 172q0 59 12 136q15 98 40.5 166.5t60 111.5t79 62.5t97.5 19.5zM347 683q-44 0 -82 -16.5t-68.5 -55t-54 -102.5 t-38.5 -159q-6 -38 -9 -70.5t-3 -64.5q0 -54 10 -92t29.5 -61.5t47 -34t63.5 -10.5q44 0 81.5 16.5t68.5 55.5t54 103t38 159q12 76 12 137q0 54 -10 91t-29 60.5t-46.5 33.5t-63.5 10zM425 892h39l-1 -4l-92 -103h-24v3z" />
<glyph unicode="&#xd4;" horiz-adv-x="562" d="M61 0zM350 710q85 0 131 -51.5t46 -169.5q0 -31 -2.5 -64.5t-9.5 -74.5q-15 -98 -40.5 -166.5t-60 -111.5t-78 -62.5t-96.5 -19.5q-86 0 -132.5 52t-46.5 172q0 59 12 136q15 98 40.5 166.5t60 111.5t79 62.5t97.5 19.5zM347 683q-44 0 -82 -16.5t-68.5 -55t-54 -102.5 t-38.5 -159q-6 -38 -9 -70.5t-3 -64.5q0 -54 10 -92t29.5 -61.5t47 -34t63.5 -10.5q44 0 81.5 16.5t68.5 55.5t54 103t38 159q12 76 12 137q0 54 -10 91t-29 60.5t-46.5 33.5t-63.5 10zM366 892h24l69 -105v-2h-28l-55 86l-83 -86h-31v2z" />
<glyph unicode="&#xd5;" horiz-adv-x="562" d="M61 0zM350 710q85 0 131 -51.5t46 -169.5q0 -31 -2.5 -64.5t-9.5 -74.5q-15 -98 -40.5 -166.5t-60 -111.5t-78 -62.5t-96.5 -19.5q-86 0 -132.5 52t-46.5 172q0 59 12 136q15 98 40.5 166.5t60 111.5t79 62.5t97.5 19.5zM347 683q-44 0 -82 -16.5t-68.5 -55t-54 -102.5 t-38.5 -159q-6 -38 -9 -70.5t-3 -64.5q0 -54 10 -92t29.5 -61.5t47 -34t63.5 -10.5q44 0 81.5 16.5t68.5 55.5t54 103t38 159q12 76 12 137q0 54 -10 91t-29 60.5t-46.5 33.5t-63.5 10zM448 878h22q-3 -23 -9.5 -37.5t-15 -23t-17.5 -11.5t-17 -3q-16 0 -26 8.5t-19 19 t-17.5 19t-21.5 8.5q-11 0 -20.5 -10t-13.5 -41h-22q3 23 9.5 37.5t14.5 22.5t17 11t17 3q16 0 26 -8.5t19 -18.5t18 -18.5t22 -8.5q12 0 20.5 11t13.5 40z" />
<glyph unicode="&#xd6;" horiz-adv-x="562" d="M61 0zM350 710q85 0 131 -51.5t46 -169.5q0 -31 -2.5 -64.5t-9.5 -74.5q-15 -98 -40.5 -166.5t-60 -111.5t-78 -62.5t-96.5 -19.5q-86 0 -132.5 52t-46.5 172q0 59 12 136q15 98 40.5 166.5t60 111.5t79 62.5t97.5 19.5zM347 683q-44 0 -82 -16.5t-68.5 -55t-54 -102.5 t-38.5 -159q-6 -38 -9 -70.5t-3 -64.5q0 -54 10 -92t29.5 -61.5t47 -34t63.5 -10.5q44 0 81.5 16.5t68.5 55.5t54 103t38 159q12 76 12 137q0 54 -10 91t-29 60.5t-46.5 33.5t-63.5 10zM288 827q0 34 31 34q11 0 17.5 -6.5t6.5 -18.5q0 -16 -8.5 -25t-22.5 -9q-24 0 -24 25z M395 827q0 34 31 34q24 0 24 -25q0 -34 -31 -34q-24 0 -24 25z" />
<glyph unicode="&#xd7;" horiz-adv-x="342" d="M58 161l-16 16l124 138l-79 137l19 15l77 -133l119 132l17 -15l-124 -138l78 -136l-19 -15l-76 132z" />
<glyph unicode="&#xd8;" horiz-adv-x="560" d="M240 -10q-51 0 -88.5 19t-60.5 60l-56 -69h-29l74 93q-18 46 -18 123q0 29 3.5 63t8.5 71q15 97 40.5 165.5t60 112t78.5 63t97 19.5q55 0 94 -21t60 -69l65 80h29l-84 -104q7 -23 10.5 -49.5t3.5 -59.5q0 -58 -12 -137q-15 -98 -40.5 -166.5t-60 -111.5t-78.5 -62.5 t-97 -19.5zM104 122l380 471q-17 49 -51.5 69.5t-84.5 20.5q-44 0 -82 -16.5t-69 -55.5t-54 -103t-38 -158q-6 -37 -9.5 -71t-3.5 -65q0 -55 12 -92zM242 16q44 0 82 16.5t68.5 55.5t54 103t38.5 159q6 38 9.5 71.5t3.5 65.5q0 45 -9 78l-378 -471q18 -42 51 -60t80 -18z " />
<glyph unicode="&#xd9;" horiz-adv-x="544" d="M61 0zM436 234l75 466h30l-74 -466q-20 -128 -82 -186t-155 -58q-81 0 -125 41.5t-44 132.5q0 31 6 70l75 466h30l-75 -464q-3 -18 -4 -35t-1 -32q0 -80 37 -115.5t103 -35.5q79 0 132 49.5t72 166.5zM348 785l-63 103v4h38l48 -104v-3h-23z" />
<glyph unicode="&#xda;" horiz-adv-x="544" d="M61 0zM436 234l75 466h30l-74 -466q-20 -128 -82 -186t-155 -58q-81 0 -125 41.5t-44 132.5q0 31 6 70l75 466h30l-75 -464q-3 -18 -4 -35t-1 -32q0 -80 37 -115.5t103 -35.5q79 0 132 49.5t72 166.5zM417 893h39l-1 -4l-92 -103h-24v3z" />
<glyph unicode="&#xdb;" horiz-adv-x="544" d="M61 0zM436 234l75 466h30l-74 -466q-20 -128 -82 -186t-155 -58q-81 0 -125 41.5t-44 132.5q0 31 6 70l75 466h30l-75 -464q-3 -18 -4 -35t-1 -32q0 -80 37 -115.5t103 -35.5q79 0 132 49.5t72 166.5zM358 893h24l69 -105v-2h-28l-55 86l-83 -86h-31v2z" />
<glyph unicode="&#xdc;" horiz-adv-x="544" d="M61 0zM436 234l75 466h30l-74 -466q-20 -128 -82 -186t-155 -58q-81 0 -125 41.5t-44 132.5q0 31 6 70l75 466h30l-75 -464q-3 -18 -4 -35t-1 -32q0 -80 37 -115.5t103 -35.5q79 0 132 49.5t72 166.5zM280 828q0 34 31 34q11 0 17.5 -6.5t6.5 -18.5q0 -16 -8.5 -25 t-22.5 -9q-24 0 -24 25zM387 828q0 34 31 34q24 0 24 -25q0 -34 -31 -34q-24 0 -24 25z" />
<glyph unicode="&#xdd;" horiz-adv-x="440" d="M84 0zM207 286l-123 414h32l111 -383l231 383h34l-255 -414l-45 -286h-30zM362 892h39l-1 -4l-92 -103h-24v3z" />
<glyph unicode="&#xde;" horiz-adv-x="469" d="M47 0l111 700h30l-24 -149h155q68 0 100 -34.5t32 -104.5q0 -48 -11 -92.5t-35 -78.5t-61 -54.5t-89 -20.5h-152l-26 -166h-30zM315 525h-155l-52 -333h151q73 0 117.5 55t44.5 161q0 62 -26 89.5t-80 27.5z" />
<glyph unicode="&#xdf;" d="M127 17l15 23q27 -21 71 -21q70 0 110.5 55.5t40.5 150.5q0 63 -28.5 100t-85.5 37h-28l4 26h26q31 0 55 15t41 39.5t26 56t9 64.5q0 56 -25 87t-73 31q-53 0 -90.5 -40t-51.5 -129l-81 -511h-29l81 510q17 104 62.5 150t112.5 46q63 0 93.5 -39t30.5 -101 q0 -34 -8 -64.5t-22.5 -56t-34.5 -43.5t-45 -27q45 -13 67.5 -51.5t22.5 -98.5q0 -55 -13.5 -98.5t-37.5 -73.5t-57 -45.5t-72 -15.5q-24 0 -46 5t-40 19z" />
<glyph unicode="&#xe0;" horiz-adv-x="408" d="M27 0zM55 102q0 -43 20.5 -64.5t58.5 -21.5q63 0 105.5 54t62.5 150l6 38h-86q-38 0 -68.5 -11.5t-52.5 -32t-34 -49.5t-12 -63zM291 133q-25 -71 -67.5 -107t-96.5 -36q-44 0 -72 28t-28 80q0 37 12.5 70t37 58.5t61 40.5t84.5 15h90q5 27 7 45.5t2 32.5q0 59 -24 80.5 t-67 21.5q-41 0 -75 -19.5t-58 -67.5l-24 12q26 50 65 75.5t96 25.5t87 -28t30 -92q0 -30 -6 -66l-47 -302h-25zM238 565l-63 103v4h38l48 -104v-3h-23z" />
<glyph unicode="&#xe1;" horiz-adv-x="406" d="M27 0zM55 102q0 -43 20.5 -64.5t58.5 -21.5q63 0 105.5 54t62.5 150l6 38h-86q-38 0 -68.5 -11.5t-52.5 -32t-34 -49.5t-12 -63zM291 133q-25 -71 -67.5 -107t-96.5 -36q-44 0 -72 28t-28 80q0 37 12.5 70t37 58.5t61 40.5t84.5 15h90q5 27 7 45.5t2 32.5q0 59 -24 80.5 t-67 21.5q-41 0 -75 -19.5t-58 -67.5l-24 12q26 50 65 75.5t96 25.5t87 -28t30 -92q0 -30 -6 -66l-47 -302h-25zM311 671h39l-1 -4l-92 -103h-24v3z" />
<glyph unicode="&#xe2;" horiz-adv-x="406" d="M27 0zM55 102q0 -43 20.5 -64.5t58.5 -21.5q63 0 105.5 54t62.5 150l6 38h-86q-38 0 -68.5 -11.5t-52.5 -32t-34 -49.5t-12 -63zM291 133q-25 -71 -67.5 -107t-96.5 -36q-44 0 -72 28t-28 80q0 37 12.5 70t37 58.5t61 40.5t84.5 15h90q5 27 7 45.5t2 32.5q0 59 -24 80.5 t-67 21.5q-41 0 -75 -19.5t-58 -67.5l-24 12q26 50 65 75.5t96 25.5t87 -28t30 -92q0 -30 -6 -66l-47 -302h-25zM252 671h24l69 -105v-2h-28l-55 86l-83 -86h-31v2z" />
<glyph unicode="&#xe3;" horiz-adv-x="406" d="M27 0zM55 102q0 -43 20.5 -64.5t58.5 -21.5q63 0 105.5 54t62.5 150l6 38h-86q-38 0 -68.5 -11.5t-52.5 -32t-34 -49.5t-12 -63zM291 133q-25 -71 -67.5 -107t-96.5 -36q-44 0 -72 28t-28 80q0 37 12.5 70t37 58.5t61 40.5t84.5 15h90q5 27 7 45.5t2 32.5q0 59 -24 80.5 t-67 21.5q-41 0 -75 -19.5t-58 -67.5l-24 12q26 50 65 75.5t96 25.5t87 -28t30 -92q0 -30 -6 -66l-47 -302h-25zM335 657h22q-3 -23 -9.5 -37.5t-15 -23t-17.5 -11.5t-17 -3q-16 0 -26 8.5t-19 19t-17.5 19t-21.5 8.5q-11 0 -20.5 -10t-13.5 -41h-22q3 23 9.5 37.5 t14.5 22.5t17 11t17 3q16 0 26 -8.5t19 -18.5t18 -18.5t22 -8.5q12 0 20.5 11t13.5 40z" />
<glyph unicode="&#xe4;" horiz-adv-x="406" d="M27 0zM55 102q0 -43 20.5 -64.5t58.5 -21.5q63 0 105.5 54t62.5 150l6 38h-86q-38 0 -68.5 -11.5t-52.5 -32t-34 -49.5t-12 -63zM291 133q-25 -71 -67.5 -107t-96.5 -36q-44 0 -72 28t-28 80q0 37 12.5 70t37 58.5t61 40.5t84.5 15h90q5 27 7 45.5t2 32.5q0 59 -24 80.5 t-67 21.5q-41 0 -75 -19.5t-58 -67.5l-24 12q26 50 65 75.5t96 25.5t87 -28t30 -92q0 -30 -6 -66l-47 -302h-25zM176 606q0 34 31 34q11 0 17.5 -6.5t6.5 -18.5q0 -16 -8.5 -25t-22.5 -9q-24 0 -24 25zM283 606q0 34 31 34q24 0 24 -25q0 -34 -31 -34q-24 0 -24 25z" />
<glyph unicode="&#xe5;" horiz-adv-x="406" d="M27 0zM55 102q0 -43 20.5 -64.5t58.5 -21.5q63 0 105.5 54t62.5 150l6 38h-86q-38 0 -68.5 -11.5t-52.5 -32t-34 -49.5t-12 -63zM291 133q-25 -71 -67.5 -107t-96.5 -36q-44 0 -72 28t-28 80q0 37 12.5 70t37 58.5t61 40.5t84.5 15h90q5 27 7 45.5t2 32.5q0 59 -24 80.5 t-67 21.5q-41 0 -75 -19.5t-58 -67.5l-24 12q26 50 65 75.5t96 25.5t87 -28t30 -92q0 -30 -6 -66l-47 -302h-25zM268 712q25 0 43 -17.5t18 -50.5q0 -38 -22 -65.5t-57 -27.5q-25 0 -43 17t-18 51q0 37 22 65t57 28zM265 693q-23 0 -39 -21.5t-16 -50.5q0 -25 12 -38t29 -13 q24 0 41 21t17 51q0 25 -13 38t-31 13z" />
<glyph unicode="&#xe6;" horiz-adv-x="662" d="M308 154q-27 -81 -73 -122.5t-106 -41.5q-45 0 -72.5 28t-27.5 80q0 35 12.5 66.5t37.5 55t61 37.5t83 14h92q5 32 7 52t2 36q0 58 -23 81t-68 23q-39 0 -71.5 -20t-56.5 -68l-23 13q24 49 62 74.5t93 25.5q57 0 84.5 -32.5t24.5 -104.5q53 137 165 137q60 0 89.5 -41 t29.5 -115q0 -39 -10 -85h-279q-4 -26 -6 -47.5t-2 -40.5q0 -42 8.5 -70t23.5 -44.5t34.5 -23t40.5 -6.5q92 0 140 109l23 -12q-27 -58 -67 -90t-99 -32q-62 0 -96.5 40t-32.5 124zM602 331q0 64 -23.5 98t-71.5 34q-60 0 -100.5 -49t-60.5 -144h251q2 17 3.5 32t1.5 29z M57 102q0 -43 21.5 -64.5t59.5 -21.5q65 0 106.5 53.5t61.5 148.5l5 29h-87q-38 0 -68.5 -10.5t-52.5 -29.5t-34 -46t-12 -59z" />
<glyph unicode="&#xe7;" horiz-adv-x="395" d="M141 -221q-31 0 -48.5 12.5t-27.5 37.5l21 11q11 -40 55 -40q32 0 47 17.5t15 43.5q0 29 -19 37t-40 0l-8 7l27 86q-119 9 -119 162q0 20 1.5 40.5t5.5 43.5q20 130 70.5 190.5t132.5 60.5q56 0 84.5 -30t38.5 -90l-27 -10q-10 56 -33.5 80t-65.5 24q-68 0 -110 -54 t-61 -171q-4 -24 -6 -44.5t-2 -40.5q0 -70 27 -103t83 -33q45 0 78.5 25t57.5 81l25 -11q-52 -121 -159 -121l-24 -73q11 2 23 0.5t21.5 -8.5t15.5 -18.5t6 -28.5q0 -41 -23.5 -62t-61.5 -21z" />
<glyph unicode="&#xe8;" horiz-adv-x="404" d="M44 0zM177 -10q-63 0 -98 40.5t-35 126.5q0 18 1.5 39t5.5 43q19 123 70 186t130 63q59 0 88.5 -41t29.5 -115q0 -23 -2.5 -47t-7.5 -53h-280q-4 -19 -5 -38.5t-1 -35.5q0 -143 107 -143q92 0 140 109l23 -12q-27 -59 -67 -90.5t-99 -31.5zM341 331q0 132 -94 132 q-63 0 -104.5 -52.5t-59.5 -154.5h252q2 19 4 38.5t2 36.5zM247 564l-63 103v4h38l48 -104v-3h-23z" />
<glyph unicode="&#xe9;" horiz-adv-x="404" d="M44 0zM177 -10q-63 0 -98 40.5t-35 126.5q0 18 1.5 39t5.5 43q19 123 70 186t130 63q59 0 88.5 -41t29.5 -115q0 -23 -2.5 -47t-7.5 -53h-280q-4 -19 -5 -38.5t-1 -35.5q0 -143 107 -143q92 0 140 109l23 -12q-27 -59 -67 -90.5t-99 -31.5zM341 331q0 132 -94 132 q-63 0 -104.5 -52.5t-59.5 -154.5h252q2 19 4 38.5t2 36.5zM318 671h39l-1 -4l-92 -103h-24v3z" />
<glyph unicode="&#xea;" horiz-adv-x="404" d="M44 0zM177 -10q-63 0 -98 40.5t-35 126.5q0 18 1.5 39t5.5 43q19 123 70 186t130 63q59 0 88.5 -41t29.5 -115q0 -23 -2.5 -47t-7.5 -53h-280q-4 -19 -5 -38.5t-1 -35.5q0 -143 107 -143q92 0 140 109l23 -12q-27 -59 -67 -90.5t-99 -31.5zM341 331q0 132 -94 132 q-63 0 -104.5 -52.5t-59.5 -154.5h252q2 19 4 38.5t2 36.5zM260 671h24l69 -105v-2h-28l-55 86l-83 -86h-31v2z" />
<glyph unicode="&#xeb;" horiz-adv-x="404" d="M44 0zM177 -10q-63 0 -98 40.5t-35 126.5q0 18 1.5 39t5.5 43q19 123 70 186t130 63q59 0 88.5 -41t29.5 -115q0 -23 -2.5 -47t-7.5 -53h-280q-4 -19 -5 -38.5t-1 -35.5q0 -143 107 -143q92 0 140 109l23 -12q-27 -59 -67 -90.5t-99 -31.5zM341 331q0 132 -94 132 q-63 0 -104.5 -52.5t-59.5 -154.5h252q2 19 4 38.5t2 36.5zM183 606q0 34 31 34q11 0 17.5 -6.5t6.5 -18.5q0 -16 -8.5 -25t-22.5 -9q-24 0 -24 25zM290 606q0 34 31 34q24 0 24 -25q0 -34 -31 -34q-24 0 -24 25z" />
<glyph unicode="&#xec;" horiz-adv-x="185" d="M39 0zM115 478h29l-75 -478h-30zM134 564l-63 103v4h38l48 -104v-3h-23z" />
<glyph unicode="&#xed;" horiz-adv-x="183" d="M39 0zM115 478h29l-75 -478h-30zM204 670h39l-1 -4l-92 -103h-24v3z" />
<glyph unicode="&#xee;" horiz-adv-x="183" d="M39 0zM115 478h29l-75 -478h-30zM145 670h24l69 -105v-2h-28l-55 86l-83 -86h-31v2z" />
<glyph unicode="&#xef;" horiz-adv-x="183" d="M39 0zM115 478h29l-75 -478h-30zM69 605q0 34 31 34q11 0 17.5 -6.5t6.5 -18.5q0 -16 -8.5 -25t-22.5 -9q-24 0 -24 25zM176 605q0 34 31 34q24 0 24 -25q0 -34 -31 -34q-24 0 -24 25z" />
<glyph unicode="&#xf0;" horiz-adv-x="427" d="M51 237q20 128 70 189t131 61q48 0 77.5 -25t37.5 -78q4 71 -3.5 124t-27.5 94l-74 -53l-7 18l70 52q-34 59 -97 91l14 21q67 -31 105 -95l82 59l7 -18l-79 -58q19 -40 28 -89.5t9 -108.5q0 -38 -4 -81t-12 -99q-20 -129 -71 -190t-130 -61q-133 0 -133 163q0 20 1.5 40 t5.5 44zM179 16q134 0 170 221q4 24 6 46t2 41q0 138 -107 138q-70 0 -111.5 -55t-59.5 -170q-3 -23 -5 -44.5t-2 -39.5q0 -137 107 -137z" />
<glyph unicode="&#xf1;" horiz-adv-x="450" d="M38 0zM38 0l77 478h25l-18 -131q22 69 67 105t100 36q51 0 78 -29.5t27 -90.5q0 -14 -1 -28.5t-4 -31.5l-49 -308h-29l48 302q2 16 3.5 30.5t1.5 26.5q0 57 -23 80t-64 23q-32 0 -58.5 -15.5t-48.5 -43t-37.5 -65.5t-24.5 -83l-41 -255h-29zM365 657h22 q-3 -23 -9.5 -37.5t-15 -23t-17.5 -11.5t-17 -3q-16 0 -26 8.5t-19 19t-17.5 19t-21.5 8.5q-11 0 -20.5 -10t-13.5 -41h-22q3 23 9.5 37.5t14.5 22.5t17 11t17 3q16 0 26 -8.5t19 -18.5t18 -18.5t22 -8.5q12 0 20.5 11t13.5 40z" />
<glyph unicode="&#xf2;" horiz-adv-x="429" d="M44 0zM44 153q0 19 1.5 40t5.5 45q20 128 70.5 189t132.5 61q65 0 98.5 -39.5t33.5 -123.5q0 -19 -2 -41t-6 -46q-20 -127 -70.5 -187.5t-130.5 -60.5q-133 0 -133 163zM180 16q69 0 110 54.5t59 166.5q4 25 6 47t2 42q0 136 -107 136q-69 0 -110.5 -55t-59.5 -170 q-4 -23 -5.5 -45t-1.5 -39q0 -137 107 -137zM256 564l-63 103v4h38l48 -104v-3h-23z" />
<glyph unicode="&#xf3;" horiz-adv-x="429" d="M44 0zM44 153q0 19 1.5 40t5.5 45q20 128 70.5 189t132.5 61q65 0 98.5 -39.5t33.5 -123.5q0 -19 -2 -41t-6 -46q-20 -127 -70.5 -187.5t-130.5 -60.5q-133 0 -133 163zM180 16q69 0 110 54.5t59 166.5q4 25 6 47t2 42q0 136 -107 136q-69 0 -110.5 -55t-59.5 -170 q-4 -23 -5.5 -45t-1.5 -39q0 -137 107 -137zM327 671h39l-1 -4l-92 -103h-24v3z" />
<glyph unicode="&#xf4;" horiz-adv-x="429" d="M44 0zM44 153q0 19 1.5 40t5.5 45q20 128 70.5 189t132.5 61q65 0 98.5 -39.5t33.5 -123.5q0 -19 -2 -41t-6 -46q-20 -127 -70.5 -187.5t-130.5 -60.5q-133 0 -133 163zM180 16q69 0 110 54.5t59 166.5q4 25 6 47t2 42q0 136 -107 136q-69 0 -110.5 -55t-59.5 -170 q-4 -23 -5.5 -45t-1.5 -39q0 -137 107 -137zM268 671h24l69 -105v-2h-28l-55 86l-83 -86h-31v2z" />
<glyph unicode="&#xf5;" horiz-adv-x="429" d="M44 0zM44 153q0 19 1.5 40t5.5 45q20 128 70.5 189t132.5 61q65 0 98.5 -39.5t33.5 -123.5q0 -19 -2 -41t-6 -46q-20 -127 -70.5 -187.5t-130.5 -60.5q-133 0 -133 163zM180 16q69 0 110 54.5t59 166.5q4 25 6 47t2 42q0 136 -107 136q-69 0 -110.5 -55t-59.5 -170 q-4 -23 -5.5 -45t-1.5 -39q0 -137 107 -137zM350 657h22q-3 -23 -9.5 -37.5t-15 -23t-17.5 -11.5t-17 -3q-16 0 -26 8.5t-19 19t-17.5 19t-21.5 8.5q-11 0 -20.5 -10t-13.5 -41h-22q3 23 9.5 37.5t14.5 22.5t17 11t17 3q16 0 26 -8.5t19 -18.5t18 -18.5t22 -8.5 q12 0 20.5 11t13.5 40z" />
<glyph unicode="&#xf6;" horiz-adv-x="429" d="M44 0zM44 153q0 19 1.5 40t5.5 45q20 128 70.5 189t132.5 61q65 0 98.5 -39.5t33.5 -123.5q0 -19 -2 -41t-6 -46q-20 -127 -70.5 -187.5t-130.5 -60.5q-133 0 -133 163zM180 16q69 0 110 54.5t59 166.5q4 25 6 47t2 42q0 136 -107 136q-69 0 -110.5 -55t-59.5 -170 q-4 -23 -5.5 -45t-1.5 -39q0 -137 107 -137zM192 606q0 34 31 34q11 0 17.5 -6.5t6.5 -18.5q0 -16 -8.5 -25t-22.5 -9q-24 0 -24 25zM299 606q0 34 31 34q24 0 24 -25q0 -34 -31 -34q-24 0 -24 25z" />
<glyph unicode="&#xf7;" horiz-adv-x="367" d="M185 443q0 17 8.5 25.5t21.5 8.5q23 0 23 -25q-2 -34 -31 -34q-22 0 -22 25zM333 318l-5 -26h-283l4 26h284zM141 164q2 34 30 34q23 0 23 -25q0 -17 -8.5 -26t-21.5 -9q-23 0 -23 26z" />
<glyph unicode="&#xf8;" horiz-adv-x="430" d="M177 -10q-81 0 -112 60l-44 -50h-27l62 71q-12 33 -12 82q0 37 6 84q40 251 204 251q80 0 111 -62l45 52h27l-63 -72q12 -35 12 -81q0 -20 -2 -41.5t-6 -46.5q-19 -125 -70 -186t-131 -61zM79 97l266 307q-24 59 -94 59t-112 -56t-60 -170q-4 -24 -5.5 -46t-1.5 -42 q0 -15 2 -28t5 -24zM180 16q69 0 110.5 55t59.5 166q4 25 6 48t2 43q0 15 -2 28t-5 24l-265 -307q22 -57 94 -57z" />
<glyph unicode="&#xf9;" horiz-adv-x="449" d="M56 0zM165 -10q-54 0 -81.5 32t-27.5 91q0 14 1 28t3 30l49 307h29l-48 -300q-3 -17 -3.5 -31t-0.5 -27q0 -55 24 -79.5t67 -24.5q30 0 56 15t47 42t36.5 65t24.5 83l40 257h29l-76 -478h-25l19 128q-23 -66 -66 -102t-97 -36zM265 564l-63 103v4h38l48 -104v-3h-23z" />
<glyph unicode="&#xfa;" horiz-adv-x="449" d="M56 0zM165 -10q-54 0 -81.5 32t-27.5 91q0 14 1 28t3 30l49 307h29l-48 -300q-3 -17 -3.5 -31t-0.5 -27q0 -55 24 -79.5t67 -24.5q30 0 56 15t47 42t36.5 65t24.5 83l40 257h29l-76 -478h-25l19 128q-23 -66 -66 -102t-97 -36zM336 671h39l-1 -4l-92 -103h-24v3z" />
<glyph unicode="&#xfb;" horiz-adv-x="449" d="M56 0zM165 -10q-54 0 -81.5 32t-27.5 91q0 14 1 28t3 30l49 307h29l-48 -300q-3 -17 -3.5 -31t-0.5 -27q0 -55 24 -79.5t67 -24.5q30 0 56 15t47 42t36.5 65t24.5 83l40 257h29l-76 -478h-25l19 128q-23 -66 -66 -102t-97 -36zM277 671h24l69 -105v-2h-28l-55 86l-83 -86 h-31v2z" />
<glyph unicode="&#xfc;" horiz-adv-x="449" d="M56 0zM165 -10q-54 0 -81.5 32t-27.5 91q0 14 1 28t3 30l49 307h29l-48 -300q-3 -17 -3.5 -31t-0.5 -27q0 -55 24 -79.5t67 -24.5q30 0 56 15t47 42t36.5 65t24.5 83l40 257h29l-76 -478h-25l19 128q-23 -66 -66 -102t-97 -36zM201 606q0 34 31 34q11 0 17.5 -6.5 t6.5 -18.5q0 -16 -8.5 -25t-22.5 -9q-24 0 -24 25zM308 606q0 34 31 34q24 0 24 -25q0 -34 -31 -34q-24 0 -24 25z" />
<glyph unicode="&#xfd;" horiz-adv-x="354" d="M0 0zM105 -48l21 45l-74 481h31l64 -441l202 441h31l-251 -537q-22 -47 -42 -76t-39 -44.5t-36.5 -20.5t-35.5 -5q-14 0 -28 2.5t-28 10.5l13 25q22 -11 46 -11q15 0 29 4.5t29 18.5t31.5 39.5t36.5 67.5zM290 671h39l-1 -4l-92 -103h-24v3z" />
<glyph unicode="&#xfe;" horiz-adv-x="445" d="M277 462q-60 0 -107 -56t-65 -172q-3 -20 -5 -39t-2 -36q0 -74 28 -109t73 -35q66 0 108 59t59 165q5 25 6.5 45.5t1.5 39.5q0 138 -97 138zM86 111l-47 -297h-30l141 886h29l-55 -347q24 71 68 103t96 32q57 0 86 -41.5t29 -120.5q0 -20 -2 -41t-6 -45 q-18 -120 -68 -185t-126 -65q-46 0 -78.5 29t-36.5 92z" />
<glyph unicode="&#xff;" horiz-adv-x="354" d="M0 0zM105 -48l21 45l-74 481h31l64 -441l202 441h31l-251 -537q-22 -47 -42 -76t-39 -44.5t-36.5 -20.5t-35.5 -5q-14 0 -28 2.5t-28 10.5l13 25q22 -11 46 -11q15 0 29 4.5t29 18.5t31.5 39.5t36.5 67.5zM156 606q0 34 31 34q11 0 17.5 -6.5t6.5 -18.5q0 -16 -8.5 -25 t-22.5 -9q-24 0 -24 25zM263 606q0 34 31 34q24 0 24 -25q0 -34 -31 -34q-24 0 -24 25z" />
<glyph unicode="&#x100;" d="M0 0zM288 664l-198 -466h250zM362 0l-20 171h-263l-73 -171h-32l302 700h36l79 -700h-29zM400 848l-4 -23h-168l3 23h169z" />
<glyph unicode="&#x101;" horiz-adv-x="406" d="M27 0zM55 102q0 -43 20.5 -64.5t58.5 -21.5q63 0 105.5 54t62.5 150l6 38h-86q-38 0 -68.5 -11.5t-52.5 -32t-34 -49.5t-12 -63zM291 133q-25 -71 -67.5 -107t-96.5 -36q-44 0 -72 28t-28 80q0 37 12.5 70t37 58.5t61 40.5t84.5 15h90q5 27 7 45.5t2 32.5q0 59 -24 80.5 t-67 21.5q-41 0 -75 -19.5t-58 -67.5l-24 12q26 50 65 75.5t96 25.5t87 -28t30 -92q0 -30 -6 -66l-47 -302h-25zM343 627l-4 -23h-168l3 23h169z" />
<glyph unicode="&#x102;" d="M0 0zM288 664l-198 -466h250zM362 0l-20 171h-263l-73 -171h-32l302 700h36l79 -700h-29zM390 891h21q-8 -59 -35 -82t-70 -23t-63.5 23.5t-11.5 81.5h22q-7 -48 7 -65.5t47 -17.5q35 0 55 17.5t28 65.5z" />
<glyph unicode="&#x103;" horiz-adv-x="406" d="M27 0zM55 102q0 -43 20.5 -64.5t58.5 -21.5q63 0 105.5 54t62.5 150l6 38h-86q-38 0 -68.5 -11.5t-52.5 -32t-34 -49.5t-12 -63zM291 133q-25 -71 -67.5 -107t-96.5 -36q-44 0 -72 28t-28 80q0 37 12.5 70t37 58.5t61 40.5t84.5 15h90q5 27 7 45.5t2 32.5q0 59 -24 80.5 t-67 21.5q-41 0 -75 -19.5t-58 -67.5l-24 12q26 50 65 75.5t96 25.5t87 -28t30 -92q0 -30 -6 -66l-47 -302h-25zM333 670h21q-8 -59 -35 -82t-70 -23t-63.5 23.5t-11.5 81.5h22q-7 -48 7 -65.5t47 -17.5q35 0 55 17.5t28 65.5z" />
<glyph unicode="&#x104;" d="M388 -179q-14 -11 -28.5 -15t-30.5 -4q-28 0 -46 16.5t-18 55.5q0 26 8 49t21.5 41.5t30.5 31t35 17.5l-18 158h-263l-73 -171h-32l302 700h36l79 -700h-15q-16 -2 -31.5 -12.5t-28 -27t-20.5 -37.5t-8 -45q0 -31 14 -42t32 -11q26 0 45 15zM288 664l-198 -466h250z" />
<glyph unicode="&#x105;" horiz-adv-x="406" d="M297 -179q-14 -11 -28.5 -15t-30.5 -4q-28 0 -46 16.5t-18 55.5q0 27 9 50.5t23 42t32.5 31t36.5 16.5l16 119q-25 -71 -67.5 -107t-96.5 -36q-44 0 -72 28t-28 80q0 37 12.5 70t37 58.5t61 40.5t84.5 15h90q5 27 7 45.5t2 32.5q0 59 -24 80.5t-67 21.5q-41 0 -75 -19.5 t-58 -67.5l-24 12q26 50 65 75.5t96 25.5t87 -28t30 -92q0 -30 -6 -66l-47 -302h-13q-16 -2 -31.5 -12.5t-28 -27t-20.5 -37.5t-8 -45q0 -31 14 -42t32 -11q26 0 45 15zM55 102q0 -43 20.5 -64.5t58.5 -21.5q63 0 105.5 54t62.5 150l6 38h-86q-38 0 -68.5 -11.5t-52.5 -32 t-34 -49.5t-12 -63z" />
<glyph unicode="&#x106;" horiz-adv-x="512" d="M61 0zM73 350q15 98 41 166.5t61 111.5t79 62.5t97 19.5q33 0 61 -8t49 -27t35 -49.5t20 -76.5l-29 -9q-5 42 -17 69.5t-30 44t-41.5 23t-51.5 6.5q-42 0 -80 -16.5t-69.5 -55.5t-55 -102.5t-38.5 -157.5q-12 -75 -12 -132q0 -56 10.5 -94.5t30.5 -62.5t48.5 -34.5 t63.5 -10.5q55 0 105 31.5t85 108.5l25 -13q-36 -82 -94 -118t-124 -36q-42 0 -75.5 12.5t-57 39.5t-36 70t-12.5 104q0 30 3.5 64t8.5 70zM426 893h39l-1 -4l-92 -103h-24v3z" />
<glyph unicode="&#x107;" horiz-adv-x="395" d="M44 0zM318 122l25 -11q-52 -121 -164 -121q-135 0 -135 163q0 20 1.5 40.5t5.5 43.5q20 130 70.5 190.5t132.5 60.5q56 0 84.5 -30t38.5 -90l-27 -10q-10 56 -33.5 80t-65.5 24q-68 0 -110 -54t-61 -171q-4 -24 -6 -44.5t-2 -40.5q0 -70 27 -103t83 -33q45 0 78.5 25 t57.5 81zM325 671h39l-1 -4l-92 -103h-24v3z" />
<glyph unicode="&#x108;" horiz-adv-x="512" d="M61 0zM73 350q15 98 41 166.5t61 111.5t79 62.5t97 19.5q33 0 61 -8t49 -27t35 -49.5t20 -76.5l-29 -9q-5 42 -17 69.5t-30 44t-41.5 23t-51.5 6.5q-42 0 -80 -16.5t-69.5 -55.5t-55 -102.5t-38.5 -157.5q-12 -75 -12 -132q0 -56 10.5 -94.5t30.5 -62.5t48.5 -34.5 t63.5 -10.5q55 0 105 31.5t85 108.5l25 -13q-36 -82 -94 -118t-124 -36q-42 0 -75.5 12.5t-57 39.5t-36 70t-12.5 104q0 30 3.5 64t8.5 70zM367 893h24l69 -105v-2h-28l-55 86l-83 -86h-31v2z" />
<glyph unicode="&#x109;" horiz-adv-x="395" d="M44 0zM318 122l25 -11q-52 -121 -164 -121q-135 0 -135 163q0 20 1.5 40.5t5.5 43.5q20 130 70.5 190.5t132.5 60.5q56 0 84.5 -30t38.5 -90l-27 -10q-10 56 -33.5 80t-65.5 24q-68 0 -110 -54t-61 -171q-4 -24 -6 -44.5t-2 -40.5q0 -70 27 -103t83 -33q45 0 78.5 25 t57.5 81zM266 671h24l69 -105v-2h-28l-55 86l-83 -86h-31v2z" />
<glyph unicode="&#x10a;" horiz-adv-x="512" d="M61 0zM73 350q15 98 41 166.5t61 111.5t79 62.5t97 19.5q33 0 61 -8t49 -27t35 -49.5t20 -76.5l-29 -9q-5 42 -17 69.5t-30 44t-41.5 23t-51.5 6.5q-42 0 -80 -16.5t-69.5 -55.5t-55 -102.5t-38.5 -157.5q-12 -75 -12 -132q0 -56 10.5 -94.5t30.5 -62.5t48.5 -34.5 t63.5 -10.5q55 0 105 31.5t85 108.5l25 -13q-36 -82 -94 -118t-124 -36q-42 0 -75.5 12.5t-57 39.5t-36 70t-12.5 104q0 30 3.5 64t8.5 70zM344 828q0 34 31 34q23 0 23 -25q0 -34 -31 -34q-23 0 -23 25z" />
<glyph unicode="&#x10b;" horiz-adv-x="395" d="M44 0zM318 122l25 -11q-52 -121 -164 -121q-135 0 -135 163q0 20 1.5 40.5t5.5 43.5q20 130 70.5 190.5t132.5 60.5q56 0 84.5 -30t38.5 -90l-27 -10q-10 56 -33.5 80t-65.5 24q-68 0 -110 -54t-61 -171q-4 -24 -6 -44.5t-2 -40.5q0 -70 27 -103t83 -33q45 0 78.5 25 t57.5 81zM242 606q0 34 31 34q23 0 23 -25q0 -34 -31 -34q-23 0 -23 25z" />
<glyph unicode="&#x10c;" horiz-adv-x="512" d="M61 0zM73 350q15 98 41 166.5t61 111.5t79 62.5t97 19.5q33 0 61 -8t49 -27t35 -49.5t20 -76.5l-29 -9q-5 42 -17 69.5t-30 44t-41.5 23t-51.5 6.5q-42 0 -80 -16.5t-69.5 -55.5t-55 -102.5t-38.5 -157.5q-12 -75 -12 -132q0 -56 10.5 -94.5t30.5 -62.5t48.5 -34.5 t63.5 -10.5q55 0 105 31.5t85 108.5l25 -13q-36 -82 -94 -118t-124 -36q-42 0 -75.5 12.5t-57 39.5t-36 70t-12.5 104q0 30 3.5 64t8.5 70zM352 786l-69 106v1h29l55 -85l82 85h31v-1l-104 -106h-24z" />
<glyph unicode="&#x10d;" horiz-adv-x="395" d="M44 0zM318 122l25 -11q-52 -121 -164 -121q-135 0 -135 163q0 20 1.5 40.5t5.5 43.5q20 130 70.5 190.5t132.5 60.5q56 0 84.5 -30t38.5 -90l-27 -10q-10 56 -33.5 80t-65.5 24q-68 0 -110 -54t-61 -171q-4 -24 -6 -44.5t-2 -40.5q0 -70 27 -103t83 -33q45 0 78.5 25 t57.5 81zM251 564l-69 106v1h29l55 -85l82 85h31v-1l-104 -106h-24z" />
<glyph unicode="&#x10e;" horiz-adv-x="542" d="M47 0zM47 0l111 700h161q90 0 140 -51t50 -170q0 -26 -3 -57t-8 -64q-15 -96 -41.5 -164t-63.5 -111t-83.5 -63t-101.5 -20h-161zM80 27h129q46 0 87 17t74.5 56t58.5 102t39 155q5 33 8 62.5t3 55.5q0 55 -11.5 93t-33 61.5t-52 34t-68.5 10.5h-131zM344 785l-69 106v1 h29l55 -85l82 85h31v-1l-104 -106h-24z" />
<glyph unicode="&#x10f;" horiz-adv-x="483" d="M44 0zM510 515h-21l34 185h31zM174 16q57 0 102.5 55t64.5 173q6 42 6 74q0 74 -27 109t-74 35q-66 0 -107.5 -58t-58.5 -165q-4 -24 -5.5 -43.5t-1.5 -38.5q0 -69 25 -105t76 -36zM164 -10q-60 0 -90 42t-30 122q0 20 1.5 41t5.5 44q18 121 68 185t126 64q48 0 78.5 -30 t36.5 -93l53 335h28l-111 -700h-24l18 123q-25 -68 -67 -100.5t-93 -32.5z" />
<glyph unicode="&#x110;" horiz-adv-x="551" d="M216 0h-162l57 353h-61l5 26h59l51 321h162q45 0 80 -12t59.5 -38.5t37.5 -68.5t13 -102q0 -26 -3 -57t-8 -64q-15 -96 -42 -164t-64 -111t-83.5 -63t-100.5 -20zM88 27h129q46 0 87 17t74 56t58 102t39 155q5 33 8 62.5t3 55.5q0 55 -11.5 93t-32.5 61.5t-51.5 34 t-68.5 10.5h-132l-46 -295h133l-5 -26h-133z" />
<glyph unicode="&#x111;" horiz-adv-x="455" d="M341 244q6 42 6 74q0 74 -27 109t-74 35q-66 0 -107.5 -58t-58.5 -165q-4 -23 -5.5 -43t-1.5 -39q0 -69 25 -105t76 -36q57 0 102.5 55t64.5 173zM164 -10q-60 0 -90 42t-30 122q0 20 1.5 41t5.5 44q18 119 68 184t126 65q48 0 79 -30.5t36 -95.5l32 207h-126l4 22h125 l18 109h29l-18 -109h62l-4 -22h-61l-90 -569h-25l17 125q-24 -70 -66 -102.5t-93 -32.5z" />
<glyph unicode="&#x112;" horiz-adv-x="478" d="M47 0zM408 26l-4 -26h-357l111 700h352l-5 -27h-322l-49 -309h281l-4 -27h-281l-49 -311h327zM441 848l-4 -23h-168l3 23h169z" />
<glyph unicode="&#x113;" horiz-adv-x="404" d="M44 0zM177 -10q-63 0 -98 40.5t-35 126.5q0 18 1.5 39t5.5 43q19 123 70 186t130 63q59 0 88.5 -41t29.5 -115q0 -23 -2.5 -47t-7.5 -53h-280q-4 -19 -5 -38.5t-1 -35.5q0 -143 107 -143q92 0 140 109l23 -12q-27 -59 -67 -90.5t-99 -31.5zM341 331q0 132 -94 132 q-63 0 -104.5 -52.5t-59.5 -154.5h252q2 19 4 38.5t2 36.5zM351 627l-4 -23h-168l3 23h169z" />
<glyph unicode="&#x114;" horiz-adv-x="478" d="M47 0zM408 26l-4 -26h-357l111 700h352l-5 -27h-322l-49 -309h281l-4 -27h-281l-49 -311h327zM430 891h21q-8 -59 -35 -82t-70 -23t-63.5 23.5t-11.5 81.5h22q-7 -48 7 -65.5t47 -17.5q35 0 55 17.5t28 65.5z" />
<glyph unicode="&#x115;" horiz-adv-x="404" d="M44 0zM177 -10q-63 0 -98 40.5t-35 126.5q0 18 1.5 39t5.5 43q19 123 70 186t130 63q59 0 88.5 -41t29.5 -115q0 -23 -2.5 -47t-7.5 -53h-280q-4 -19 -5 -38.5t-1 -35.5q0 -143 107 -143q92 0 140 109l23 -12q-27 -59 -67 -90.5t-99 -31.5zM341 331q0 132 -94 132 q-63 0 -104.5 -52.5t-59.5 -154.5h252q2 19 4 38.5t2 36.5zM340 670h21q-8 -59 -35 -82t-70 -23t-63.5 23.5t-11.5 81.5h22q-7 -48 7 -65.5t47 -17.5q35 0 55 17.5t28 65.5z" />
<glyph unicode="&#x116;" horiz-adv-x="478" d="M47 0zM408 26l-4 -26h-357l111 700h352l-5 -27h-322l-49 -309h281l-4 -27h-281l-49 -311h327zM327 827q0 34 31 34q23 0 23 -25q0 -34 -31 -34q-23 0 -23 25z" />
<glyph unicode="&#x117;" horiz-adv-x="404" d="M44 0zM177 -10q-63 0 -98 40.5t-35 126.5q0 18 1.5 39t5.5 43q19 123 70 186t130 63q59 0 88.5 -41t29.5 -115q0 -23 -2.5 -47t-7.5 -53h-280q-4 -19 -5 -38.5t-1 -35.5q0 -143 107 -143q92 0 140 109l23 -12q-27 -59 -67 -90.5t-99 -31.5zM341 331q0 132 -94 132 q-63 0 -104.5 -52.5t-59.5 -154.5h252q2 19 4 38.5t2 36.5zM236 606q0 34 31 34q23 0 23 -25q0 -34 -31 -34q-23 0 -23 25z" />
<glyph unicode="&#x118;" horiz-adv-x="478" d="M377 -179q-14 -11 -28.5 -15t-30.5 -4q-28 0 -46 16.5t-18 55.5q0 42 20 75.5t48 50.5h-275l111 700h352l-5 -27h-322l-49 -309h281l-4 -27h-281l-49 -311h327l-4 -26h-39q-16 -2 -31.5 -12.5t-28 -27t-20.5 -37.5t-8 -45q0 -31 14 -42t32 -11q26 0 45 15z" />
<glyph unicode="&#x119;" horiz-adv-x="404" d="M192 -198q-28 0 -46 16.5t-18 55.5q0 37 15 66.5t37 49.5q-66 -1 -101 40t-35 127q0 18 1.5 39t5.5 43q19 123 70 186t130 63q59 0 88.5 -41t29.5 -115q0 -23 -2.5 -47t-7.5 -53h-280q-4 -19 -5 -38.5t-1 -35.5q0 -143 107 -143q92 0 140 109l23 -12q-23 -48 -53.5 -78.5 t-73.5 -39.5q-26 -14 -45.5 -45.5t-19.5 -70.5q0 -31 14 -42t32 -11q26 0 45 15l9 -19q-14 -11 -28.5 -15t-30.5 -4zM341 331q0 132 -94 132q-63 0 -104.5 -52.5t-59.5 -154.5h252q2 19 4 38.5t2 36.5z" />
<glyph unicode="&#x11a;" horiz-adv-x="478" d="M47 0zM408 26l-4 -26h-357l111 700h352l-5 -27h-322l-49 -309h281l-4 -27h-281l-49 -311h327zM335 785l-69 106v1h29l55 -85l82 85h31v-1l-104 -106h-24z" />
<glyph unicode="&#x11b;" horiz-adv-x="403" d="M44 0zM177 -10q-63 0 -98 40.5t-35 126.5q0 18 1.5 39t5.5 43q19 123 70 186t130 63q59 0 88.5 -41t29.5 -115q0 -23 -2.5 -47t-7.5 -53h-280q-4 -19 -5 -38.5t-1 -35.5q0 -143 107 -143q92 0 140 109l23 -12q-27 -59 -67 -90.5t-99 -31.5zM341 331q0 132 -94 132 q-63 0 -104.5 -52.5t-59.5 -154.5h252q2 19 4 38.5t2 36.5zM246 564l-69 106v1h29l55 -85l82 85h31v-1l-104 -106h-24z" />
<glyph unicode="&#x11c;" horiz-adv-x="533" d="M62 0zM235 -10q-40 0 -72 13t-54.5 40.5t-34.5 70.5t-12 103q0 29 3.5 64t8.5 70q15 98 40.5 166.5t60 111t78.5 62t97 19.5q33 0 60 -7.5t48 -26t35 -48.5t20 -75l-29 -10q-5 41 -17 68t-29.5 43t-41 22.5t-50.5 6.5q-43 0 -80.5 -16.5t-68.5 -55.5t-54.5 -103 t-38.5 -158q-12 -77 -12 -131q0 -56 10.5 -94.5t29.5 -62.5t46.5 -34.5t62.5 -10.5q36 0 69 14t61 45.5t48.5 83t32.5 126.5h-158l4 25h187l-49 -311h-23l21 156q-29 -87 -80 -126.5t-119 -39.5zM365 892h24l69 -105v-2h-28l-55 86l-83 -86h-31v2z" />
<glyph unicode="&#x11d;" d="M0 0zM170 19q58 0 104 55.5t64 172.5q6 37 6 72q0 73 -27.5 108t-73.5 35q-64 0 -105 -57.5t-58 -163.5q-4 -23 -5.5 -43.5t-1.5 -39.5q0 -68 24.5 -103.5t72.5 -35.5zM23 -84q11 -54 39.5 -74.5t70.5 -20.5q63 0 106 41t60 142l20 120q-24 -67 -66.5 -98.5t-90.5 -31.5 q-58 0 -88.5 41.5t-30.5 121.5q0 19 1.5 39.5t5.5 43.5q19 121 68.5 184.5t124.5 63.5q48 0 79.5 -31t36.5 -94l21 115h24l-76 -480q-17 -109 -68.5 -156t-127.5 -47q-53 0 -87.5 24.5t-49.5 84.5zM256 671h24l69 -105v-2h-28l-55 86l-83 -86h-31v2z" />
<glyph unicode="&#x11e;" horiz-adv-x="533" d="M62 0zM235 -10q-40 0 -72 13t-54.5 40.5t-34.5 70.5t-12 103q0 29 3.5 64t8.5 70q15 98 40.5 166.5t60 111t78.5 62t97 19.5q33 0 60 -7.5t48 -26t35 -48.5t20 -75l-29 -10q-5 41 -17 68t-29.5 43t-41 22.5t-50.5 6.5q-43 0 -80.5 -16.5t-68.5 -55.5t-54.5 -103 t-38.5 -158q-12 -77 -12 -131q0 -56 10.5 -94.5t29.5 -62.5t46.5 -34.5t62.5 -10.5q36 0 69 14t61 45.5t48.5 83t32.5 126.5h-158l4 25h187l-49 -311h-23l21 156q-29 -87 -80 -126.5t-119 -39.5zM446 891h21q-8 -59 -35 -82t-70 -23t-63.5 23.5t-11.5 81.5h22 q-7 -48 7 -65.5t47 -17.5q35 0 55 17.5t28 65.5z" />
<glyph unicode="&#x11f;" d="M0 0zM170 19q58 0 104 55.5t64 172.5q6 37 6 72q0 73 -27.5 108t-73.5 35q-64 0 -105 -57.5t-58 -163.5q-4 -23 -5.5 -43.5t-1.5 -39.5q0 -68 24.5 -103.5t72.5 -35.5zM23 -84q11 -54 39.5 -74.5t70.5 -20.5q63 0 106 41t60 142l20 120q-24 -67 -66.5 -98.5t-90.5 -31.5 q-58 0 -88.5 41.5t-30.5 121.5q0 19 1.5 39.5t5.5 43.5q19 121 68.5 184.5t124.5 63.5q48 0 79.5 -31t36.5 -94l21 115h24l-76 -480q-17 -109 -68.5 -156t-127.5 -47q-53 0 -87.5 24.5t-49.5 84.5zM337 670h21q-8 -59 -35 -82t-70 -23t-63.5 23.5t-11.5 81.5h22 q-7 -48 7 -65.5t47 -17.5q35 0 55 17.5t28 65.5z" />
<glyph unicode="&#x120;" horiz-adv-x="533" d="M62 0zM235 -10q-40 0 -72 13t-54.5 40.5t-34.5 70.5t-12 103q0 29 3.5 64t8.5 70q15 98 40.5 166.5t60 111t78.5 62t97 19.5q33 0 60 -7.5t48 -26t35 -48.5t20 -75l-29 -10q-5 41 -17 68t-29.5 43t-41 22.5t-50.5 6.5q-43 0 -80.5 -16.5t-68.5 -55.5t-54.5 -103 t-38.5 -158q-12 -77 -12 -131q0 -56 10.5 -94.5t29.5 -62.5t46.5 -34.5t62.5 -10.5q36 0 69 14t61 45.5t48.5 83t32.5 126.5h-158l4 25h187l-49 -311h-23l21 156q-29 -87 -80 -126.5t-119 -39.5zM342 827q0 34 31 34q23 0 23 -25q0 -34 -31 -34q-23 0 -23 25z" />
<glyph unicode="&#x121;" d="M0 0zM170 19q58 0 104 55.5t64 172.5q6 37 6 72q0 73 -27.5 108t-73.5 35q-64 0 -105 -57.5t-58 -163.5q-4 -23 -5.5 -43.5t-1.5 -39.5q0 -68 24.5 -103.5t72.5 -35.5zM23 -84q11 -54 39.5 -74.5t70.5 -20.5q63 0 106 41t60 142l20 120q-24 -67 -66.5 -98.5t-90.5 -31.5 q-58 0 -88.5 41.5t-30.5 121.5q0 19 1.5 39.5t5.5 43.5q19 121 68.5 184.5t124.5 63.5q48 0 79.5 -31t36.5 -94l21 115h24l-76 -480q-17 -109 -68.5 -156t-127.5 -47q-53 0 -87.5 24.5t-49.5 84.5zM233 606q0 34 31 34q23 0 23 -25q0 -34 -31 -34q-23 0 -23 25z" />
<glyph unicode="&#x122;" horiz-adv-x="533" d="M62 0zM235 -10q-40 0 -72 13t-54.5 40.5t-34.5 70.5t-12 103q0 29 3.5 64t8.5 70q15 98 40.5 166.5t60 111t78.5 62t97 19.5q33 0 60 -7.5t48 -26t35 -48.5t20 -75l-29 -10q-5 41 -17 68t-29.5 43t-41 22.5t-50.5 6.5q-43 0 -80.5 -16.5t-68.5 -55.5t-54.5 -103 t-38.5 -158q-12 -77 -12 -131q0 -56 10.5 -94.5t29.5 -62.5t46.5 -34.5t62.5 -10.5q36 0 69 14t61 45.5t48.5 83t32.5 126.5h-158l4 25h187l-49 -311h-23l21 156q-29 -87 -80 -126.5t-119 -39.5zM188 -221l-8 12q19 12 33 34.5t17 48.5q-13 -5 -23 1.5t-10 21.5q1 14 9 22.5 t22 8.5q23 0 23 -29q0 -18 -5 -36t-13 -34t-19.5 -29.5t-25.5 -20.5z" />
<glyph unicode="&#x123;" d="M289 726l8 -12q-19 -12 -33 -34.5t-17 -48.5q13 5 23 -1.5t10 -21.5q-1 -14 -9 -22.5t-22 -8.5q-23 0 -23 29q0 18 5 36t13 34t19.5 29t25.5 21zM170 19q58 0 104 55.5t64 172.5q6 37 6 72q0 73 -27.5 108t-73.5 35q-64 0 -105 -57.5t-58 -163.5q-4 -23 -5.5 -43.5 t-1.5 -39.5q0 -68 24.5 -103.5t72.5 -35.5zM23 -84q11 -54 39.5 -74.5t70.5 -20.5q63 0 106 41t60 142l20 120q-24 -67 -66.5 -98.5t-90.5 -31.5q-58 0 -88.5 41.5t-30.5 121.5q0 19 1.5 39.5t5.5 43.5q19 121 68.5 184.5t124.5 63.5q48 0 79.5 -31t36.5 -94l21 115h24 l-76 -480q-17 -109 -68.5 -156t-127.5 -47q-53 0 -87.5 24.5t-49.5 84.5z" />
<glyph unicode="&#x124;" horiz-adv-x="572" d="M47 0zM413 0l53 338h-336l-54 -338h-29l111 700h29l-53 -335h336l54 335h29l-111 -700h-29zM371 892h24l69 -105v-2h-28l-55 86l-83 -86h-31v2z" />
<glyph unicode="&#x125;" horiz-adv-x="450" d="M38 0zM178 700l-55 -351q24 68 68 103.5t99 35.5q51 0 77.5 -29.5t26.5 -90.5q0 -14 -1 -28.5t-4 -31.5l-49 -308h-29l48 302q2 16 3.5 30.5t1.5 27.5q0 57 -23 79.5t-64 22.5q-32 0 -58.5 -15.5t-48.5 -43t-37.5 -66t-24.5 -83.5l-41 -254h-29l111 700h29zM180 892h24 l69 -105v-2h-28l-55 86l-83 -86h-31v2z" />
<glyph unicode="&#x126;" horiz-adv-x="577" d="M137 365h336l21 135h-336zM73 523h60l28 177h29l-28 -177h336l29 177h29l-28 -177h60l-4 -23h-60l-79 -500h-29l53 338h-336l-53 -338h-30l79 500h-60z" />
<glyph unicode="&#x127;" horiz-adv-x="458" d="M75 569l3 22h62l17 109h30l-17 -109h125l-3 -22h-126l-34 -219q23 67 67 102.5t99 35.5q103 0 103 -122q0 -14 -1 -29t-4 -32l-48 -305h-29l47 298q2 17 3.5 32t1.5 28q0 57 -23 80.5t-63 23.5q-32 0 -58.5 -15.5t-48.5 -43t-37.5 -65.5t-24.5 -84l-40 -254h-30l91 569 h-62z" />
<glyph unicode="&#x128;" horiz-adv-x="206" d="M47 0zM47 0l111 700h29l-111 -700h-29zM272 878h22q-3 -23 -9.5 -37.5t-15 -23t-17.5 -11.5t-17 -3q-16 0 -26 8.5t-19 19t-17.5 19t-21.5 8.5q-11 0 -20.5 -10t-13.5 -41h-22q3 23 9.5 37.5t14.5 22.5t17 11t17 3q16 0 26 -8.5t19 -18.5t18 -18.5t22 -8.5q12 0 20.5 11 t13.5 40z" />
<glyph unicode="&#x129;" horiz-adv-x="183" d="M39 0zM115 478h29l-75 -478h-30zM228 656h22q-3 -23 -9.5 -37.5t-15 -23t-17.5 -11.5t-17 -3q-16 0 -26 8.5t-19 19t-17.5 19t-21.5 8.5q-11 0 -20.5 -10t-13.5 -41h-22q3 23 9.5 37.5t14.5 22.5t17 11t17 3q16 0 26 -8.5t19 -18.5t18 -18.5t22 -8.5q12 0 20.5 11 t13.5 40z" />
<glyph unicode="&#x12a;" horiz-adv-x="206" d="M47 0zM47 0l111 700h29l-111 -700h-29zM280 848l-4 -23h-168l3 23h169z" />
<glyph unicode="&#x12b;" horiz-adv-x="186" d="M39 0zM115 478h29l-75 -478h-30zM238 626l-4 -23h-168l3 23h169z" />
<glyph unicode="&#x12c;" horiz-adv-x="206" d="M47 0zM47 0l111 700h29l-111 -700h-29zM269 891h21q-8 -59 -35 -82t-70 -23t-63.5 23.5t-11.5 81.5h22q-7 -48 7 -65.5t47 -17.5q35 0 55 17.5t28 65.5z" />
<glyph unicode="&#x12d;" horiz-adv-x="183" d="M39 0zM115 478h29l-75 -478h-30zM226 669h21q-8 -59 -35 -82t-70 -23t-63.5 23.5t-11.5 81.5h22q-7 -48 7 -65.5t47 -17.5q35 0 55 17.5t28 65.5z" />
<glyph unicode="&#x12e;" horiz-adv-x="206" d="M74 -179q-14 -11 -28.5 -15t-30.5 -4q-28 0 -46 16.5t-18 55.5q0 27 8.5 50t22.5 41.5t31.5 31t35.5 17.5l109 686h29l-111 -700h-14q-16 -2 -31.5 -12.5t-28 -27t-20.5 -37.5t-8 -45q0 -31 14 -42t32 -11q26 0 45 15z" />
<glyph unicode="&#x12f;" horiz-adv-x="183" d="M122 605q0 16 8 25.5t23 9.5q24 0 24 -25q0 -35 -31 -35q-24 0 -24 25zM67 -179q-14 -11 -28.5 -15t-30.5 -4q-28 0 -46 16.5t-18 55.5q0 27 8.5 50t22.5 41t31 30.5t35 17.5l74 465h29l-75 -478h-14q-16 -2 -31.5 -12.5t-28 -27t-20.5 -37.5t-8 -45q0 -31 14 -42t32 -11 q26 0 45 15z" />
<glyph unicode="&#x130;" horiz-adv-x="206" d="M47 0zM47 0l111 700h29l-111 -700h-29zM166 827q0 34 31 34q23 0 23 -25q0 -34 -31 -34q-23 0 -23 25z" />
<glyph unicode="&#x131;" horiz-adv-x="183" d="M115 478h29l-75 -478h-30z" />
<glyph unicode="&#x132;" horiz-adv-x="572" d="M47 0zM47 0l111 700h29l-111 -700h-29zM284 -10q-30 0 -55.5 10t-44.5 31l19 24q32 -38 85 -38q64 0 112 54.5t68 180.5l71 448h30l-71 -446q-11 -72 -31 -122.5t-47.5 -82t-62 -45.5t-73.5 -14z" />
<glyph unicode="&#x133;" horiz-adv-x="366" d="M39 0zM122 605q0 16 8 25.5t23 9.5q24 0 24 -25q0 -35 -31 -35q-24 0 -24 25zM115 478h29l-75 -478h-30zM302 605q0 16 8 25.5t23 9.5q24 0 24 -25q0 -35 -31 -35q-24 0 -24 25zM210 -58l85 536h29l-87 -546q-11 -73 -39.5 -105t-70.5 -32q-31 0 -53 13l15 26 q10 -6 19.5 -9t23.5 -3q29 0 48 26.5t30 93.5z" />
<glyph unicode="&#x134;" horiz-adv-x="371" d="M0 0zM83 -10q-30 0 -55.5 10t-44.5 31l19 24q32 -38 85 -38q64 0 112 54.5t68 180.5l71 448h30l-71 -446q-11 -72 -31 -122.5t-47.5 -82t-62 -45.5t-73.5 -14zM369 892h24l69 -105v-2h-28l-55 86l-83 -86h-31v2z" />
<glyph unicode="&#x135;" horiz-adv-x="182" d="M0 0zM30 -58l85 536h29l-87 -546q-11 -73 -39.5 -105t-70.5 -32q-14 0 -27.5 3t-24.5 10l14 26q10 -6 19.5 -9t23.5 -3q29 0 48 26.5t30 93.5zM145 670h24l69 -105v-2h-28l-55 86l-83 -86h-31v2z" />
<glyph unicode="&#x136;" horiz-adv-x="460" d="M47 0zM374 0l-146 361l-118 -144l-34 -217h-29l111 700h29l-70 -438l351 438h34l-252 -312l157 -388h-33zM167 -221l-8 12q19 12 33 34.5t17 48.5q-13 -5 -23 1.5t-10 21.5q1 14 9 22.5t22 8.5q23 0 23 -29q0 -18 -5 -36t-13 -34t-19.5 -29.5t-25.5 -20.5z" />
<glyph unicode="&#x137;" horiz-adv-x="376" d="M38 0zM89 135l-21 -135h-30l111 700h29l-84 -526l255 304h34l-179 -209l113 -269h-32l-101 245zM121 -221l-8 12q19 12 33 34.5t17 48.5q-13 -5 -23 1.5t-10 21.5q1 14 9 22.5t22 8.5q23 0 23 -29q0 -18 -5 -36t-13 -34t-19.5 -29.5t-25.5 -20.5z" />
<glyph unicode="&#x138;" horiz-adv-x="377" d="M89 136l-21 -136h-30l76 478h29l-49 -304l255 304h34l-178 -209l112 -269h-32l-102 246z" />
<glyph unicode="&#x139;" horiz-adv-x="450" d="M47 0zM80 27h314l-4 -27h-343l110 700h30zM248 892h39l-1 -4l-92 -103h-24v3z" />
<glyph unicode="&#x13a;" horiz-adv-x="183" d="M40 0zM77 91q-6 -36 5.5 -51t36.5 -15h26l-4 -25h-29q-37 0 -54.5 21.5t-9.5 70.5l96 608h29zM238 892h39l-1 -4l-92 -103h-24v3z" />
<glyph unicode="&#x13b;" horiz-adv-x="450" d="M47 0zM80 27h314l-4 -27h-343l110 700h30zM168 -221l-8 12q19 12 33 34.5t17 48.5q-13 -5 -23 1.5t-10 21.5q1 14 9 22.5t22 8.5q23 0 23 -29q0 -18 -5 -36t-13 -34t-19.5 -29.5t-25.5 -20.5z" />
<glyph unicode="&#x13c;" horiz-adv-x="183" d="M24 0zM77 91q-6 -36 5.5 -51t36.5 -15h26l-4 -25h-29q-37 0 -54.5 21.5t-9.5 70.5l96 608h29zM32 -221l-8 12q19 12 33 34.5t17 48.5q-13 -5 -23 1.5t-10 21.5q1 14 9 22.5t22 8.5q23 0 23 -29q0 -18 -5 -36t-13 -34t-19.5 -29.5t-25.5 -20.5z" />
<glyph unicode="&#x13d;" horiz-adv-x="451" d="M47 0zM353 516h-21l34 185h31zM80 27h314l-4 -27h-343l110 700h30z" />
<glyph unicode="&#x13e;" horiz-adv-x="219" d="M41 0zM248 515h-21l34 185h31zM78 91q-6 -36 5.5 -51t36.5 -15h26l-4 -25h-29q-37 0 -54.5 21.5t-9.5 70.5l96 608h29z" />
<glyph unicode="&#x13f;" horiz-adv-x="451" d="M47 0zM80 27h314l-4 -27h-343l110 700h30zM316 348q0 34 31 34q23 0 23 -25q0 -34 -31 -34q-23 0 -23 25z" />
<glyph unicode="&#x140;" horiz-adv-x="238" d="M41 0zM78 91q-6 -36 5.5 -51t36.5 -15h26l-4 -25h-29q-37 0 -54.5 21.5t-9.5 70.5l96 608h29zM189 293q0 34 31 34q23 0 23 -25q0 -34 -31 -34q-23 0 -23 25z" />
<glyph unicode="&#x141;" horiz-adv-x="461" d="M92 27h314l-4 -27h-343l48 307l-95 -83l5 32l95 82l58 362h29l-54 -340l146 126l-5 -32l-146 -125z" />
<glyph unicode="&#x142;" horiz-adv-x="205" d="M158 0h-29q-37 0 -54.5 21.5t-9.5 70.5l35 221l-95 -103l5 32l95 104l56 354h29l-51 -325l104 114l-5 -32l-104 -114l-40 -252q-6 -36 5.5 -51t36.5 -15h26z" />
<glyph unicode="&#x143;" horiz-adv-x="567" d="M47 0zM407 0l-229 652l-102 -652h-29l111 700h33l227 -649l101 649h29l-111 -700h-30zM429 892h39l-1 -4l-92 -103h-24v3z" />
<glyph unicode="&#x144;" horiz-adv-x="450" d="M38 0zM38 0l77 478h25l-18 -131q22 69 67 105t100 36q51 0 78 -29.5t27 -90.5q0 -14 -1 -28.5t-4 -31.5l-49 -308h-29l48 302q2 16 3.5 30.5t1.5 26.5q0 57 -23 80t-64 23q-32 0 -58.5 -15.5t-48.5 -43t-37.5 -65.5t-24.5 -83l-41 -255h-29zM341 671h39l-1 -4l-92 -103 h-24v3z" />
<glyph unicode="&#x145;" horiz-adv-x="567" d="M47 0zM407 0l-229 652l-102 -652h-29l111 700h33l227 -649l101 649h29l-111 -700h-30zM193 -221l-8 12q19 12 33 34.5t17 48.5q-13 -5 -23 1.5t-10 21.5q1 14 9 22.5t22 8.5q23 0 23 -29q0 -18 -5 -36t-13 -34t-19.5 -29.5t-25.5 -20.5z" />
<glyph unicode="&#x146;" horiz-adv-x="450" d="M38 0zM38 0l77 478h25l-18 -131q22 69 67 105t100 36q51 0 78 -29.5t27 -90.5q0 -14 -1 -28.5t-4 -31.5l-49 -308h-29l48 302q2 16 3.5 30.5t1.5 26.5q0 57 -23 80t-64 23q-32 0 -58.5 -15.5t-48.5 -43t-37.5 -65.5t-24.5 -83l-41 -255h-29zM137 -221l-8 12 q19 12 33 34.5t17 48.5q-13 -5 -23 1.5t-10 21.5q1 14 9 22.5t22 8.5q23 0 23 -29q0 -18 -5 -36t-13 -34t-19.5 -29.5t-25.5 -20.5z" />
<glyph unicode="&#x147;" horiz-adv-x="567" d="M47 0zM407 0l-229 652l-102 -652h-29l111 700h33l227 -649l101 649h29l-111 -700h-30zM355 785l-69 106v1h29l55 -85l82 85h31v-1l-104 -106h-24z" />
<glyph unicode="&#x148;" horiz-adv-x="450" d="M38 0zM38 0l77 478h25l-18 -131q22 69 67 105t100 36q51 0 78 -29.5t27 -90.5q0 -14 -1 -28.5t-4 -31.5l-49 -308h-29l48 302q2 16 3.5 30.5t1.5 26.5q0 57 -23 80t-64 23q-32 0 -58.5 -15.5t-48.5 -43t-37.5 -65.5t-24.5 -83l-41 -255h-29zM268 564l-69 106v1h29l55 -85 l82 85h31v-1l-104 -106h-24z" />
<glyph unicode="&#x14a;" horiz-adv-x="567" d="M399 -58l10 57l-232 652l-102 -651h-28l111 700h32l229 -647l101 647h29l-123 -773q-11 -69 -38 -100.5t-66 -31.5q-14 0 -27.5 2.5t-27.5 10.5l11 27q11 -6 20 -9t23 -3q31 0 49.5 26.5t28.5 92.5z" />
<glyph unicode="&#x14b;" horiz-adv-x="450" d="M330 -66q-11 -74 -38.5 -106.5t-67.5 -32.5q-14 0 -28 2t-28 10l13 27q18 -11 44 -11q29 0 48 28t29 91l57 360q2 16 3.5 30.5t1.5 26.5q0 57 -23 80t-64 23q-32 0 -58.5 -15.5t-48 -43t-37.5 -65.5t-25 -83l-40 -255h-30l77 478h25l-18 -131q24 70 68 105.5t99 35.5 q51 0 78 -29.5t27 -90.5q0 -14 -1.5 -28.5t-3.5 -31.5z" />
<glyph unicode="&#x14c;" horiz-adv-x="562" d="M61 0zM350 710q85 0 131 -51.5t46 -169.5q0 -31 -2.5 -64.5t-9.5 -74.5q-15 -98 -40.5 -166.5t-60 -111.5t-78 -62.5t-96.5 -19.5q-86 0 -132.5 52t-46.5 172q0 59 12 136q15 98 40.5 166.5t60 111.5t79 62.5t97.5 19.5zM347 683q-44 0 -82 -16.5t-68.5 -55t-54 -102.5 t-38.5 -159q-6 -38 -9 -70.5t-3 -64.5q0 -54 10 -92t29.5 -61.5t47 -34t63.5 -10.5q44 0 81.5 16.5t68.5 55.5t54 103t38 159q12 76 12 137q0 54 -10 91t-29 60.5t-46.5 33.5t-63.5 10zM457 848l-4 -23h-168l3 23h169z" />
<glyph unicode="&#x14d;" horiz-adv-x="429" d="M44 0zM44 153q0 19 1.5 40t5.5 45q20 128 70.5 189t132.5 61q65 0 98.5 -39.5t33.5 -123.5q0 -19 -2 -41t-6 -46q-20 -127 -70.5 -187.5t-130.5 -60.5q-133 0 -133 163zM180 16q69 0 110 54.5t59 166.5q4 25 6 47t2 42q0 136 -107 136q-69 0 -110.5 -55t-59.5 -170 q-4 -23 -5.5 -45t-1.5 -39q0 -137 107 -137zM359 627l-4 -23h-168l3 23h169z" />
<glyph unicode="&#x14e;" horiz-adv-x="562" d="M61 0zM350 710q85 0 131 -51.5t46 -169.5q0 -31 -2.5 -64.5t-9.5 -74.5q-15 -98 -40.5 -166.5t-60 -111.5t-78 -62.5t-96.5 -19.5q-86 0 -132.5 52t-46.5 172q0 59 12 136q15 98 40.5 166.5t60 111.5t79 62.5t97.5 19.5zM347 683q-44 0 -82 -16.5t-68.5 -55t-54 -102.5 t-38.5 -159q-6 -38 -9 -70.5t-3 -64.5q0 -54 10 -92t29.5 -61.5t47 -34t63.5 -10.5q44 0 81.5 16.5t68.5 55.5t54 103t38 159q12 76 12 137q0 54 -10 91t-29 60.5t-46.5 33.5t-63.5 10zM446 891h21q-8 -59 -35 -82t-70 -23t-63.5 23.5t-11.5 81.5h22q-7 -48 7 -65.5 t47 -17.5q35 0 55 17.5t28 65.5z" />
<glyph unicode="&#x14f;" horiz-adv-x="429" d="M44 0zM44 153q0 19 1.5 40t5.5 45q20 128 70.5 189t132.5 61q65 0 98.5 -39.5t33.5 -123.5q0 -19 -2 -41t-6 -46q-20 -127 -70.5 -187.5t-130.5 -60.5q-133 0 -133 163zM180 16q69 0 110 54.5t59 166.5q4 25 6 47t2 42q0 136 -107 136q-69 0 -110.5 -55t-59.5 -170 q-4 -23 -5.5 -45t-1.5 -39q0 -137 107 -137zM348 670h21q-8 -59 -35 -82t-70 -23t-63.5 23.5t-11.5 81.5h22q-7 -48 7 -65.5t47 -17.5q35 0 55 17.5t28 65.5z" />
<glyph unicode="&#x150;" horiz-adv-x="562" d="M61 0zM350 710q85 0 131 -51.5t46 -169.5q0 -31 -2.5 -64.5t-9.5 -74.5q-15 -98 -40.5 -166.5t-60 -111.5t-78 -62.5t-96.5 -19.5q-86 0 -132.5 52t-46.5 172q0 59 12 136q15 98 40.5 166.5t60 111.5t79 62.5t97.5 19.5zM347 683q-44 0 -82 -16.5t-68.5 -55t-54 -102.5 t-38.5 -159q-6 -38 -9 -70.5t-3 -64.5q0 -54 10 -92t29.5 -61.5t47 -34t63.5 -10.5q44 0 81.5 16.5t68.5 55.5t54 103t38 159q12 76 12 137q0 54 -10 91t-29 60.5t-46.5 33.5t-63.5 10zM478 892h39v-4l-95 -103h-21v3zM383 892h39v-4l-95 -103h-21v3z" />
<glyph unicode="&#x151;" horiz-adv-x="429" d="M44 0zM44 153q0 19 1.5 40t5.5 45q20 128 70.5 189t132.5 61q65 0 98.5 -39.5t33.5 -123.5q0 -19 -2 -41t-6 -46q-20 -127 -70.5 -187.5t-130.5 -60.5q-133 0 -133 163zM180 16q69 0 110 54.5t59 166.5q4 25 6 47t2 42q0 136 -107 136q-69 0 -110.5 -55t-59.5 -170 q-4 -23 -5.5 -45t-1.5 -39q0 -137 107 -137zM379 671h39v-4l-95 -103h-21v3zM284 671h39v-4l-95 -103h-21v3z" />
<glyph unicode="&#x152;" horiz-adv-x="811" d="M253 0q-91 0 -140 53t-49 174q0 27 2.5 57.5t7.5 65.5q15 94 41 160.5t62 108.5t82 61.5t102 19.5h479l-5 -26h-315l-49 -309h277l-4 -27h-278l-49 -311h325l-4 -27h-485zM255 26h133l102 647h-131q-46 0 -86 -16.5t-72.5 -54.5t-57 -100t-38.5 -152q-5 -33 -8 -63.5 t-3 -57.5q0 -55 11 -93.5t32 -63t51 -35.5t67 -11z" />
<glyph unicode="&#x153;" horiz-adv-x="701" d="M177 -10q-133 0 -133 163q0 20 1 40.5t5 43.5q39 251 204 251q59 0 91 -37.5t34 -114.5q26 78 69.5 115t101.5 37q60 0 89.5 -41t29.5 -116q0 -22 -2.5 -46t-7.5 -53h-281q-3 -20 -4 -38.5t-1 -34.5q0 -74 26.5 -109t80.5 -35q90 0 140 109l23 -12q-27 -58 -67 -90 t-100 -32q-57 0 -90 35t-38 113q-26 -75 -69 -111.5t-102 -36.5zM547 463q-63 0 -104.5 -52.5t-59.5 -154.5h252q6 42 6 75q0 132 -94 132zM349 237q4 25 6 47t2 42q0 137 -106 137q-70 0 -112 -56t-60 -170q-4 -23 -5.5 -44.5t-1.5 -39.5q0 -69 26 -103t82 -34q69 0 110 55 t59 166z" />
<glyph unicode="&#x154;" horiz-adv-x="486" d="M47 0zM126 315h149q87 0 134.5 63t47.5 171q0 67 -33 96t-101 29h-140zM47 0l111 700h167q84 0 123.5 -36.5t39.5 -110.5q0 -45 -9.5 -86t-28 -75t-47.5 -59t-68 -36l73 -297h-31l-70 291q-7 -1 -16.5 -1.5t-19.5 -0.5h-149l-46 -289h-29zM397 892h39l-1 -4l-92 -103h-24 v3z" />
<glyph unicode="&#x155;" horiz-adv-x="252" d="M38 0zM38 0l77 478h25l-19 -135q23 69 66 105.5t91 34.5l-5 -31q-57 2 -101 -49.5t-65 -150.5l-40 -252h-29zM284 671h39l-1 -4l-92 -103h-24v3z" />
<glyph unicode="&#x156;" horiz-adv-x="486" d="M47 0zM126 315h149q87 0 134.5 63t47.5 171q0 67 -33 96t-101 29h-140zM47 0l111 700h167q84 0 123.5 -36.5t39.5 -110.5q0 -45 -9.5 -86t-28 -75t-47.5 -59t-68 -36l73 -297h-31l-70 291q-7 -1 -16.5 -1.5t-19.5 -0.5h-149l-46 -289h-29zM169 -221l-8 12q19 12 33 34.5 t17 48.5q-13 -5 -23 1.5t-10 21.5q1 14 9 22.5t22 8.5q23 0 23 -29q0 -18 -5 -36t-13 -34t-19.5 -29.5t-25.5 -20.5z" />
<glyph unicode="&#x157;" horiz-adv-x="253" d="M0 0zM39 0l77 478h25l-19 -135q23 69 66 105.5t91 34.5l-5 -31q-57 2 -101 -49.5t-65 -150.5l-40 -252h-29zM4 -221l-8 12q19 12 33 34.5t17 48.5q-13 -5 -23 1.5t-10 21.5q1 14 9 22.5t22 8.5q23 0 23 -29q0 -18 -5 -36t-13 -34t-19.5 -29.5t-25.5 -20.5z" />
<glyph unicode="&#x158;" horiz-adv-x="486" d="M47 0zM126 315h149q87 0 134.5 63t47.5 171q0 67 -33 96t-101 29h-140zM47 0l111 700h167q84 0 123.5 -36.5t39.5 -110.5q0 -45 -9.5 -86t-28 -75t-47.5 -59t-68 -36l73 -297h-31l-70 291q-7 -1 -16.5 -1.5t-19.5 -0.5h-149l-46 -289h-29zM321 785l-69 106v1h29l55 -85 l82 85h31v-1l-104 -106h-24z" />
<glyph unicode="&#x159;" horiz-adv-x="252" d="M38 0zM38 0l77 478h25l-19 -135q23 69 66 105.5t91 34.5l-5 -31q-57 2 -101 -49.5t-65 -150.5l-40 -252h-29zM205 564l-69 106v1h29l55 -85l82 85h31v-1l-104 -106h-24z" />
<glyph unicode="&#x15a;" horiz-adv-x="442" d="M9 0zM436 552l-27 -11q-5 41 -16.5 68.5t-29.5 44t-42 23.5t-52 7q-37 0 -65.5 -12t-47.5 -33t-29 -49t-10 -60q0 -28 7 -49t20.5 -38.5t33 -31.5t44.5 -27l39 -21q64 -35 95 -73t31 -96q0 -96 -52.5 -150t-146.5 -54q-35 0 -64.5 9t-52.5 29.5t-39 53.5t-23 82l28 11 q6 -45 19 -75.5t32.5 -49t45 -26.5t55.5 -8q79 0 123.5 46.5t44.5 127.5q0 46 -24.5 79.5t-82.5 64.5l-39 21q-28 15 -50.5 32t-39 37.5t-25.5 45t-9 55.5q0 39 12 72.5t35.5 59t58 40t80.5 14.5q64 0 108.5 -36.5t54.5 -122.5zM357 891h39l-1 -4l-92 -103h-24v3z" />
<glyph unicode="&#x15b;" horiz-adv-x="358" d="M11 0zM11 113l27 11q11 -59 40.5 -84t74.5 -25q54 0 85.5 31.5t31.5 79.5q0 32 -17 56t-60 43l-29 13q-45 20 -70 48.5t-25 73.5q0 60 38 94.5t103 34.5q53 0 81.5 -24.5t40.5 -77.5l-26 -12q-9 47 -34 68t-64 21q-56 0 -83.5 -30t-27.5 -71q0 -32 17 -54.5t60 -42.5 l28 -13q51 -23 74 -52t23 -71q0 -29 -9.5 -54t-28.5 -44.5t-47 -30.5t-64 -11q-58 0 -92 31.5t-47 91.5zM283 670h39l-1 -4l-92 -103h-24v3z" />
<glyph unicode="&#x15c;" horiz-adv-x="442" d="M9 0zM436 552l-27 -11q-5 41 -16.5 68.5t-29.5 44t-42 23.5t-52 7q-37 0 -65.5 -12t-47.5 -33t-29 -49t-10 -60q0 -28 7 -49t20.5 -38.5t33 -31.5t44.5 -27l39 -21q64 -35 95 -73t31 -96q0 -96 -52.5 -150t-146.5 -54q-35 0 -64.5 9t-52.5 29.5t-39 53.5t-23 82l28 11 q6 -45 19 -75.5t32.5 -49t45 -26.5t55.5 -8q79 0 123.5 46.5t44.5 127.5q0 46 -24.5 79.5t-82.5 64.5l-39 21q-28 15 -50.5 32t-39 37.5t-25.5 45t-9 55.5q0 39 12 72.5t35.5 59t58 40t80.5 14.5q64 0 108.5 -36.5t54.5 -122.5zM299 891h24l69 -105v-2h-28l-55 86l-83 -86 h-31v2z" />
<glyph unicode="&#x15d;" horiz-adv-x="358" d="M11 0zM11 113l27 11q11 -59 40.5 -84t74.5 -25q54 0 85.5 31.5t31.5 79.5q0 32 -17 56t-60 43l-29 13q-45 20 -70 48.5t-25 73.5q0 60 38 94.5t103 34.5q53 0 81.5 -24.5t40.5 -77.5l-26 -12q-9 47 -34 68t-64 21q-56 0 -83.5 -30t-27.5 -71q0 -32 17 -54.5t60 -42.5 l28 -13q51 -23 74 -52t23 -71q0 -29 -9.5 -54t-28.5 -44.5t-47 -30.5t-64 -11q-58 0 -92 31.5t-47 91.5zM225 670h24l69 -105v-2h-28l-55 86l-83 -86h-31v2z" />
<glyph unicode="&#x15e;" horiz-adv-x="442" d="M144 -221q-31 0 -48.5 12.5t-27.5 37.5l21 11q11 -40 55 -40q32 0 47 17.5t15 43.5q0 29 -19 37t-40 0l-8 7l27 86q-62 5 -103 44t-54 129l28 11q6 -45 19 -75.5t32.5 -49t45 -26.5t55.5 -8q79 0 123.5 46.5t44.5 127.5q0 46 -24.5 79.5t-82.5 64.5l-39 21 q-28 15 -50.5 32t-39 37.5t-25.5 45t-9 55.5q0 39 12 72.5t35.5 59t58 40t80.5 14.5q64 0 108.5 -36.5t54.5 -122.5l-27 -11q-5 41 -16.5 68.5t-29.5 44t-42 23.5t-52 7q-37 0 -65.5 -12t-47.5 -33t-29 -49t-10 -60q0 -28 7 -49t20.5 -38.5t33 -31.5t44.5 -27l39 -21 q64 -35 95 -73t31 -96q0 -96 -52.5 -150t-146.5 -54h-1l-24 -73q11 2 23 0.5t21.5 -8.5t15.5 -18.5t6 -28.5q0 -41 -23.5 -62t-61.5 -21z" />
<glyph unicode="&#x15f;" horiz-adv-x="358" d="M116 -221q-31 0 -48.5 12.5t-27.5 37.5l21 11q11 -40 55 -40q32 0 47 17.5t15 43.5q0 29 -19 37t-40 0l-8 7l27 85q-103 7 -127 123l27 11q11 -59 40.5 -84t74.5 -25q54 0 85.5 31.5t31.5 79.5q0 32 -17 56t-60 43l-29 13q-45 20 -70 48.5t-25 73.5q0 60 38 94.5 t103 34.5q53 0 81.5 -24.5t40.5 -77.5l-26 -12q-9 47 -34 68t-64 21q-56 0 -83.5 -30t-27.5 -71q0 -32 17 -54.5t60 -42.5l28 -13q51 -23 74 -52t23 -71q0 -28 -9 -52.5t-27 -43.5t-44 -31t-60 -13l-24 -73q11 2 23 0.5t21.5 -8.5t15.5 -18.5t6 -28.5q0 -41 -23.5 -62 t-61.5 -21z" />
<glyph unicode="&#x160;" horiz-adv-x="442" d="M9 0zM436 552l-27 -11q-5 41 -16.5 68.5t-29.5 44t-42 23.5t-52 7q-37 0 -65.5 -12t-47.5 -33t-29 -49t-10 -60q0 -28 7 -49t20.5 -38.5t33 -31.5t44.5 -27l39 -21q64 -35 95 -73t31 -96q0 -96 -52.5 -150t-146.5 -54q-35 0 -64.5 9t-52.5 29.5t-39 53.5t-23 82l28 11 q6 -45 19 -75.5t32.5 -49t45 -26.5t55.5 -8q79 0 123.5 46.5t44.5 127.5q0 46 -24.5 79.5t-82.5 64.5l-39 21q-28 15 -50.5 32t-39 37.5t-25.5 45t-9 55.5q0 39 12 72.5t35.5 59t58 40t80.5 14.5q64 0 108.5 -36.5t54.5 -122.5zM284 784l-69 106v1h29l55 -85l82 85h31v-1 l-104 -106h-24z" />
<glyph unicode="&#x161;" horiz-adv-x="358" d="M11 0zM11 113l27 11q11 -59 40.5 -84t74.5 -25q54 0 85.5 31.5t31.5 79.5q0 32 -17 56t-60 43l-29 13q-45 20 -70 48.5t-25 73.5q0 60 38 94.5t103 34.5q53 0 81.5 -24.5t40.5 -77.5l-26 -12q-9 47 -34 68t-64 21q-56 0 -83.5 -30t-27.5 -71q0 -32 17 -54.5t60 -42.5 l28 -13q51 -23 74 -52t23 -71q0 -29 -9.5 -54t-28.5 -44.5t-47 -30.5t-64 -11q-58 0 -92 31.5t-47 91.5zM210 563l-69 106v1h29l55 -85l82 85h31v-1l-104 -106h-24z" />
<glyph unicode="&#x162;" horiz-adv-x="418" d="M77 0zM81 700h393l-5 -27h-182l-106 -673h-30l107 673h-181zM116 -221l-8 12q19 12 33 34.5t17 48.5q-13 -5 -23 1.5t-10 21.5q1 14 9 22.5t22 8.5q23 0 23 -29q0 -18 -5 -36t-13 -34t-19.5 -29.5t-25.5 -20.5z" />
<glyph unicode="&#x163;" horiz-adv-x="265" d="M53 0zM86 -221l-8 12q19 12 33 34.5t17 48.5q-13 -5 -23 1.5t-10 21.5q1 14 9 22.5t22 8.5q23 0 23 -29q0 -18 -5 -36t-13 -34t-19.5 -29.5t-25.5 -20.5zM206 32l7 -25q-15 -9 -31 -13t-28 -4q-41 0 -64.5 21.5t-23.5 74.5q0 11 1 23.5t3 23.5l52 321h-69l3 24h70l23 148 h29l-24 -148h121l-4 -24h-120l-51 -318q-10 -61 2.5 -90t51.5 -29q13 0 26 3.5t26 11.5z" />
<glyph unicode="&#x164;" horiz-adv-x="418" d="M77 0zM81 700h393l-5 -27h-182l-106 -673h-30l107 673h-181zM279 785l-69 106v1h29l55 -85l82 85h31v-1l-104 -106h-24z" />
<glyph unicode="&#x165;" horiz-adv-x="263" d="M247 554h-20l32 166h30zM206 32l7 -25q-15 -9 -31 -13t-28 -4q-41 0 -64.5 21.5t-23.5 74.5q0 11 1 23.5t3 23.5l52 321h-69l3 24h70l23 148h29l-24 -148h121l-4 -24h-120l-51 -318q-10 -61 2.5 -90t51.5 -29q13 0 26 3.5t26 11.5z" />
<glyph unicode="&#x166;" horiz-adv-x="419" d="M62 362h147l49 311h-181l4 27h393l-4 -27h-182l-49 -311h147l-3 -22h-148l-54 -340h-29l54 340h-148z" />
<glyph unicode="&#x167;" horiz-adv-x="260" d="M206 32l6 -25q-15 -9 -32 -13t-32 -4q-37 0 -60 21.5t-23 75.5q0 18 3 41l27 172h-70l4 22h70l21 132h-70l3 24h71l23 148h29l-24 -148h123l-3 -24h-123l-21 -132h123l-4 -22h-123l-26 -165q-11 -67 4.5 -92.5t50.5 -25.5q14 0 27 3.5t26 11.5z" />
<glyph unicode="&#x168;" horiz-adv-x="544" d="M61 0zM436 234l75 466h30l-74 -466q-20 -128 -82 -186t-155 -58q-81 0 -125 41.5t-44 132.5q0 31 6 70l75 466h30l-75 -464q-3 -18 -4 -35t-1 -32q0 -80 37 -115.5t103 -35.5q79 0 132 49.5t72 166.5zM441 879h22q-3 -23 -9.5 -37.5t-15 -23t-17.5 -11.5t-17 -3 q-16 0 -26 8.5t-19 19t-17.5 19t-21.5 8.5q-11 0 -20.5 -10t-13.5 -41h-22q3 23 9.5 37.5t14.5 22.5t17 11t17 3q16 0 26 -8.5t19 -18.5t18 -18.5t22 -8.5q12 0 20.5 11t13.5 40z" />
<glyph unicode="&#x169;" horiz-adv-x="449" d="M56 0zM165 -10q-54 0 -81.5 32t-27.5 91q0 14 1 28t3 30l49 307h29l-48 -300q-3 -17 -3.5 -31t-0.5 -27q0 -55 24 -79.5t67 -24.5q30 0 56 15t47 42t36.5 65t24.5 83l40 257h29l-76 -478h-25l19 128q-23 -66 -66 -102t-97 -36zM360 657h22q-3 -23 -9.5 -37.5t-15 -23 t-17.5 -11.5t-17 -3q-16 0 -26 8.5t-19 19t-17.5 19t-21.5 8.5q-11 0 -20.5 -10t-13.5 -41h-22q3 23 9.5 37.5t14.5 22.5t17 11t17 3q16 0 26 -8.5t19 -18.5t18 -18.5t22 -8.5q12 0 20.5 11t13.5 40z" />
<glyph unicode="&#x16a;" horiz-adv-x="544" d="M61 0zM436 234l75 466h30l-74 -466q-20 -128 -82 -186t-155 -58q-81 0 -125 41.5t-44 132.5q0 31 6 70l75 466h30l-75 -464q-3 -18 -4 -35t-1 -32q0 -80 37 -115.5t103 -35.5q79 0 132 49.5t72 166.5zM450 849l-4 -23h-168l3 23h169z" />
<glyph unicode="&#x16b;" horiz-adv-x="449" d="M56 0zM165 -10q-54 0 -81.5 32t-27.5 91q0 14 1 28t3 30l49 307h29l-48 -300q-3 -17 -3.5 -31t-0.5 -27q0 -55 24 -79.5t67 -24.5q30 0 56 15t47 42t36.5 65t24.5 83l40 257h29l-76 -478h-25l19 128q-23 -66 -66 -102t-97 -36zM368 627l-4 -23h-168l3 23h169z" />
<glyph unicode="&#x16c;" horiz-adv-x="544" d="M61 0zM436 234l75 466h30l-74 -466q-20 -128 -82 -186t-155 -58q-81 0 -125 41.5t-44 132.5q0 31 6 70l75 466h30l-75 -464q-3 -18 -4 -35t-1 -32q0 -80 37 -115.5t103 -35.5q79 0 132 49.5t72 166.5zM439 892h21q-8 -59 -35 -82t-70 -23t-63.5 23.5t-11.5 81.5h22 q-7 -48 7 -65.5t47 -17.5q35 0 55 17.5t28 65.5z" />
<glyph unicode="&#x16d;" horiz-adv-x="449" d="M56 0zM165 -10q-54 0 -81.5 32t-27.5 91q0 14 1 28t3 30l49 307h29l-48 -300q-3 -17 -3.5 -31t-0.5 -27q0 -55 24 -79.5t67 -24.5q30 0 56 15t47 42t36.5 65t24.5 83l40 257h29l-76 -478h-25l19 128q-23 -66 -66 -102t-97 -36zM357 670h21q-8 -59 -35 -82t-70 -23 t-63.5 23.5t-11.5 81.5h22q-7 -48 7 -65.5t47 -17.5q35 0 55 17.5t28 65.5z" />
<glyph unicode="&#x16e;" horiz-adv-x="544" d="M61 0zM436 234l75 466h30l-74 -466q-20 -128 -82 -186t-155 -58q-81 0 -125 41.5t-44 132.5q0 31 6 70l75 466h30l-75 -464q-3 -18 -4 -35t-1 -32q0 -80 37 -115.5t103 -35.5q79 0 132 49.5t72 166.5zM374 934q25 0 43 -17.5t18 -50.5q0 -38 -22 -65.5t-57 -27.5 q-25 0 -43 17t-18 51q0 37 22 65t57 28zM371 915q-23 0 -39 -21.5t-16 -50.5q0 -25 12 -38t29 -13q24 0 41 21t17 51q0 25 -13 38t-31 13z" />
<glyph unicode="&#x16f;" horiz-adv-x="449" d="M56 0zM165 -10q-54 0 -81.5 32t-27.5 91q0 14 1 28t3 30l49 307h29l-48 -300q-3 -17 -3.5 -31t-0.5 -27q0 -55 24 -79.5t67 -24.5q30 0 56 15t47 42t36.5 65t24.5 83l40 257h29l-76 -478h-25l19 128q-23 -66 -66 -102t-97 -36zM293 712q25 0 43 -17.5t18 -50.5 q0 -38 -22 -65.5t-57 -27.5q-25 0 -43 17t-18 51q0 37 22 65t57 28zM290 693q-23 0 -39 -21.5t-16 -50.5q0 -25 12 -38t29 -13q24 0 41 21t17 51q0 25 -13 38t-31 13z" />
<glyph unicode="&#x170;" horiz-adv-x="544" d="M61 0zM436 234l75 466h30l-74 -466q-20 -128 -82 -186t-155 -58q-81 0 -125 41.5t-44 132.5q0 31 6 70l75 466h30l-75 -464q-3 -18 -4 -35t-1 -32q0 -80 37 -115.5t103 -35.5q79 0 132 49.5t72 166.5zM471 893h39v-4l-95 -103h-21v3zM376 893h39v-4l-95 -103h-21v3z" />
<glyph unicode="&#x171;" horiz-adv-x="449" d="M56 0zM165 -10q-54 0 -81.5 32t-27.5 91q0 14 1 28t3 30l49 307h29l-48 -300q-3 -17 -3.5 -31t-0.5 -27q0 -55 24 -79.5t67 -24.5q30 0 56 15t47 42t36.5 65t24.5 83l40 257h29l-76 -478h-25l19 128q-23 -66 -66 -102t-97 -36zM390 671h39v-4l-95 -103h-21v3zM295 671h39 v-4l-95 -103h-21v3z" />
<glyph unicode="&#x172;" horiz-adv-x="544" d="M251 -198q-28 0 -46 16.5t-18 55.5q0 37 16 67t39 49q-85 -3 -133 38.5t-48 135.5q0 31 6 70l75 466h30l-75 -464q-2 -18 -3.5 -35t-1.5 -32q0 -80 37 -115.5t103 -35.5q79 0 132.5 49.5t71.5 166.5l75 466h30l-74 -466q-18 -111 -66.5 -168.5t-121.5 -71.5 q-27 -12 -48 -43.5t-21 -72.5q0 -31 14 -42t32 -11q26 0 45 15l9 -19q-14 -11 -28.5 -15t-30.5 -4z" />
<glyph unicode="&#x173;" horiz-adv-x="449" d="M330 -179q-14 -11 -28.5 -15t-30.5 -4q-28 0 -46 16.5t-18 55.5q0 28 9.5 52t24.5 43t33.5 31t36.5 15l17 113q-23 -66 -66 -102t-97 -36t-81.5 32t-27.5 91q0 14 1 28t3 30l49 307h29l-48 -300q-3 -17 -3.5 -31t-0.5 -27q0 -55 24 -79.5t67 -24.5q30 0 56 15t47 42 t36.5 65t24.5 83l40 257h29l-76 -478h-16q-16 -2 -31.5 -12.5t-28 -27t-20.5 -37.5t-8 -45q0 -31 14 -42t32 -11q26 0 45 15z" />
<glyph unicode="&#x174;" horiz-adv-x="665" d="M81 0zM126 0l-45 700h30l40 -653l232 645h35l26 -644l247 652h30l-268 -700h-33l-28 640l-231 -640h-35zM418 892h24l69 -105v-2h-28l-55 86l-83 -86h-31v2z" />
<glyph unicode="&#x175;" horiz-adv-x="526" d="M51 0zM280 466h32l34 -429l172 441h29l-191 -478h-33l-33 424l-163 -424h-34l-42 478h30l35 -442zM313 671h24l69 -105v-2h-28l-55 86l-83 -86h-31v2z" />
<glyph unicode="&#x176;" horiz-adv-x="440" d="M84 0zM207 286l-123 414h32l111 -383l231 383h34l-255 -414l-45 -286h-30zM303 892h24l69 -105v-2h-28l-55 86l-83 -86h-31v2z" />
<glyph unicode="&#x177;" horiz-adv-x="354" d="M0 0zM105 -48l21 45l-74 481h31l64 -441l202 441h31l-251 -537q-22 -47 -42 -76t-39 -44.5t-36.5 -20.5t-35.5 -5q-14 0 -28 2.5t-28 10.5l13 25q22 -11 46 -11q15 0 29 4.5t29 18.5t31.5 39.5t36.5 67.5zM232 671h24l69 -105v-2h-28l-55 86l-83 -86h-31v2z" />
<glyph unicode="&#x178;" horiz-adv-x="440" d="M84 0zM207 286l-123 414h32l111 -383l231 383h34l-255 -414l-45 -286h-30zM225 827q0 34 31 34q11 0 17.5 -6.5t6.5 -18.5q0 -16 -8.5 -25t-22.5 -9q-24 0 -24 25zM332 827q0 34 31 34q24 0 24 -25q0 -34 -31 -34q-24 0 -24 25z" />
<glyph unicode="&#x179;" horiz-adv-x="426" d="M0 0zM-17 0l4 24l442 650l-324 -1l5 27h357l-4 -24l-443 -650l349 1l-5 -27h-381zM359 892h39l-1 -4l-92 -103h-24v3z" />
<glyph unicode="&#x17a;" horiz-adv-x="350" d="M0 0zM-8 0l4 24l319 429h-242l4 25h274l-4 -24l-318 -429h252l-4 -25h-285zM283 671h39l-1 -4l-92 -103h-24v3z" />
<glyph unicode="&#x17b;" horiz-adv-x="426" d="M0 0zM-17 0l4 24l442 650l-324 -1l5 27h357l-4 -24l-443 -650l349 1l-5 -27h-381zM277 827q0 34 31 34q23 0 23 -25q0 -34 -31 -34q-23 0 -23 25z" />
<glyph unicode="&#x17c;" horiz-adv-x="350" d="M0 0zM-8 0l4 24l319 429h-242l4 25h274l-4 -24l-318 -429h252l-4 -25h-285zM200 606q0 34 31 34q23 0 23 -25q0 -34 -31 -34q-23 0 -23 25z" />
<glyph unicode="&#x17d;" horiz-adv-x="426" d="M0 0zM-17 0l4 24l442 650l-324 -1l5 27h357l-4 -24l-443 -650l349 1l-5 -27h-381zM285 785l-69 106v1h29l55 -85l82 85h31v-1l-104 -106h-24z" />
<glyph unicode="&#x17e;" horiz-adv-x="350" d="M0 0zM-8 0l4 24l319 429h-242l4 25h274l-4 -24l-318 -429h252l-4 -25h-285zM209 564l-69 106v1h29l55 -85l82 85h31v-1l-104 -106h-24z" />
<glyph unicode="&#x192;" horiz-adv-x="289" d="M27 -57l87 386h-71l6 24h70l27 120q17 74 47 108t77 34q16 0 31.5 -3.5t28.5 -13.5l-12 -26q-11 8 -21.5 12t-26.5 4q-33 0 -58 -26.5t-39 -93.5l-25 -115h120l-6 -24h-120l-88 -392q-17 -75 -45 -108.5t-69 -33.5q-14 0 -27.5 2.5t-25.5 10.5l12 25q9 -5 19 -8t24 -3 q28 0 49 26.5t36 94.5z" />
<glyph unicode="&#x218;" horiz-adv-x="442" d="M9 0zM436 552l-27 -11q-5 41 -16.5 68.5t-29.5 44t-42 23.5t-52 7q-37 0 -65.5 -12t-47.5 -33t-29 -49t-10 -60q0 -28 7 -49t20.5 -38.5t33 -31.5t44.5 -27l39 -21q64 -35 95 -73t31 -96q0 -96 -52.5 -150t-146.5 -54q-35 0 -64.5 9t-52.5 29.5t-39 53.5t-23 82l28 11 q6 -45 19 -75.5t32.5 -49t45 -26.5t55.5 -8q79 0 123.5 46.5t44.5 127.5q0 46 -24.5 79.5t-82.5 64.5l-39 21q-28 15 -50.5 32t-39 37.5t-25.5 45t-9 55.5q0 39 12 72.5t35.5 59t58 40t80.5 14.5q64 0 108.5 -36.5t54.5 -122.5zM130 -221l-8 12q19 12 33 34.5t17 48.5 q-13 -5 -23 1.5t-10 21.5q1 14 9 22.5t22 8.5q23 0 23 -29q0 -18 -5 -36t-13 -34t-19.5 -29.5t-25.5 -20.5z" />
<glyph unicode="&#x219;" horiz-adv-x="358" d="M11 0zM11 113l27 11q11 -59 40.5 -84t74.5 -25q54 0 85.5 31.5t31.5 79.5q0 32 -17 56t-60 43l-29 13q-45 20 -70 48.5t-25 73.5q0 60 38 94.5t103 34.5q53 0 81.5 -24.5t40.5 -77.5l-26 -12q-9 47 -34 68t-64 21q-56 0 -83.5 -30t-27.5 -71q0 -32 17 -54.5t60 -42.5 l28 -13q51 -23 74 -52t23 -71q0 -29 -9.5 -54t-28.5 -44.5t-47 -30.5t-64 -11q-58 0 -92 31.5t-47 91.5zM102 -221l-8 12q19 12 33 34.5t17 48.5q-13 -5 -23 1.5t-10 21.5q1 14 9 22.5t22 8.5q23 0 23 -29q0 -18 -5 -36t-13 -34t-19.5 -29.5t-25.5 -20.5z" />
<glyph unicode="&#x237;" horiz-adv-x="183" d="M30 -58l85 536h29l-87 -546q-11 -73 -39.5 -105t-70.5 -32q-14 0 -27.5 3t-24.5 10l14 26q10 -6 19.5 -9t23.5 -3q29 0 48 26.5t30 93.5z" />
<glyph unicode="&#x2c6;" horiz-adv-x="451" d="M245 670h24l69 -105v-2h-28l-55 86l-83 -86h-31v2z" />
<glyph unicode="&#x2c7;" horiz-adv-x="451" d="M226 563l-69 106v1h29l55 -85l82 85h31v-1l-104 -106h-24z" />
<glyph unicode="&#x2d8;" horiz-adv-x="451" d="M328 669h21q-8 -59 -35 -82t-70 -23t-63.5 23.5t-11.5 81.5h22q-7 -48 7 -65.5t47 -17.5q35 0 55 17.5t28 65.5z" />
<glyph unicode="&#x2d9;" horiz-adv-x="451" d="M225 605q0 34 31 34q23 0 23 -25q0 -34 -31 -34q-23 0 -23 25z" />
<glyph unicode="&#x2da;" horiz-adv-x="451" d="M264 711q25 0 43 -17.5t18 -50.5q0 -38 -22 -65.5t-57 -27.5q-25 0 -43 17t-18 51q0 37 22 65t57 28zM261 692q-23 0 -39 -21.5t-16 -50.5q0 -25 12 -38t29 -13q24 0 41 21t17 51q0 25 -13 38t-31 13z" />
<glyph unicode="&#x2db;" horiz-adv-x="451" d="M256 -179q-14 -11 -28.5 -15t-30.5 -4q-28 0 -46 16.5t-18 55.5q0 29 10 54t26 43.5t35.5 30.5t38.5 14l1 -16q-16 -2 -31.5 -12.5t-28 -27t-20.5 -37.5t-8 -45q0 -31 14 -42t32 -11q26 0 45 15z" />
<glyph unicode="&#x2dc;" horiz-adv-x="451" d="M335 656h22q-3 -23 -9.5 -37.5t-15 -23t-17.5 -11.5t-17 -3q-16 0 -26 8.5t-19 19t-17.5 19t-21.5 8.5q-11 0 -20.5 -10t-13.5 -41h-22q3 23 9.5 37.5t14.5 22.5t17 11t17 3q16 0 26 -8.5t19 -18.5t18 -18.5t22 -8.5q12 0 20.5 11t13.5 40z" />
<glyph unicode="&#x2dd;" horiz-adv-x="451" d="M365 670h39v-4l-95 -103h-21v3zM270 670h39v-4l-95 -103h-21v3z" />
<glyph unicode="&#x1e80;" horiz-adv-x="665" d="M81 0zM126 0l-45 700h30l40 -653l232 645h35l26 -644l247 652h30l-268 -700h-33l-28 640l-231 -640h-35zM407 785l-63 103v4h38l48 -104v-3h-23z" />
<glyph unicode="&#x1e81;" horiz-adv-x="526" d="M51 0zM280 466h32l34 -429l172 441h29l-191 -478h-33l-33 424l-163 -424h-34l-42 478h30l35 -442zM303 564l-63 103v4h38l48 -104v-3h-23z" />
<glyph unicode="&#x1e82;" horiz-adv-x="665" d="M81 0zM126 0l-45 700h30l40 -653l232 645h35l26 -644l247 652h30l-268 -700h-33l-28 640l-231 -640h-35zM477 892h39l-1 -4l-92 -103h-24v3z" />
<glyph unicode="&#x1e83;" horiz-adv-x="526" d="M51 0zM280 466h32l34 -429l172 441h29l-191 -478h-33l-33 424l-163 -424h-34l-42 478h30l35 -442zM372 671h39l-1 -4l-92 -103h-24v3z" />
<glyph unicode="&#x1e84;" horiz-adv-x="665" d="M81 0zM126 0l-45 700h30l40 -653l232 645h35l26 -644l247 652h30l-268 -700h-33l-28 640l-231 -640h-35zM339 827q0 34 31 34q11 0 17.5 -6.5t6.5 -18.5q0 -16 -8.5 -25t-22.5 -9q-24 0 -24 25zM446 827q0 34 31 34q24 0 24 -25q0 -34 -31 -34q-24 0 -24 25z" />
<glyph unicode="&#x1e85;" horiz-adv-x="526" d="M51 0zM280 466h32l34 -429l172 441h29l-191 -478h-33l-33 424l-163 -424h-34l-42 478h30l35 -442zM236 606q0 34 31 34q11 0 17.5 -6.5t6.5 -18.5q0 -16 -8.5 -25t-22.5 -9q-24 0 -24 25zM343 606q0 34 31 34q24 0 24 -25q0 -34 -31 -34q-24 0 -24 25z" />
<glyph unicode="&#x2000;" horiz-adv-x="467" />
<glyph unicode="&#x2001;" horiz-adv-x="934" />
<glyph unicode="&#x2002;" horiz-adv-x="371" />
<glyph unicode="&#x2003;" horiz-adv-x="743" />
<glyph unicode="&#x2004;" horiz-adv-x="247" />
<glyph unicode="&#x2005;" horiz-adv-x="186" />
<glyph unicode="&#x2006;" horiz-adv-x="124" />
<glyph unicode="&#x2007;" horiz-adv-x="465" />
<glyph unicode="&#x2008;" horiz-adv-x="147" />
<glyph unicode="&#x2009;" horiz-adv-x="149" />
<glyph unicode="&#x200a;" horiz-adv-x="74" />
<glyph unicode="&#x200b;" horiz-adv-x="0" />
<glyph unicode="&#x2010;" horiz-adv-x="301" d="M262 256l-4 -26h-223l4 26h223z" />
<glyph unicode="&#x2011;" horiz-adv-x="301" d="M262 256l-4 -26h-223l4 26h223z" />
<glyph unicode="&#x2012;" horiz-adv-x="435" d="M396 256l-4 -26h-357l4 26h357z" />
<glyph unicode="&#x2013;" horiz-adv-x="435" d="M396 256l-4 -26h-357l4 26h357z" />
<glyph unicode="&#x2014;" horiz-adv-x="582" d="M543 256l-5 -26h-503l4 26h504z" />
<glyph unicode="&#x2015;" horiz-adv-x="800" d="M761 256l-4 -26h-722l4 26h722z" />
<glyph unicode="&#x2018;" horiz-adv-x="153" d="M150 724l8 -13q-23 -14 -37 -38t-19 -51q16 5 25 -2t9 -21t-8.5 -24t-22.5 -10q-25 0 -25 28q0 17 4.5 36.5t13.5 37.5t22 33t30 24z" />
<glyph unicode="&#x2019;" horiz-adv-x="153" d="M95 556l-8 13q23 14 37 38t19 51q-16 -5 -25 2t-9 21t8.5 24t22.5 10q25 0 25 -28q0 -17 -4.5 -36.5t-13.5 -37.5t-22 -33t-30 -24z" />
<glyph unicode="&#x201a;" horiz-adv-x="152" d="M7 -105l-8 12q23 14 37 38t19 51q-16 -5 -25 2t-9 21t8.5 24t22.5 10q24 0 24 -28q0 -17 -4.5 -36.5t-13 -37.5t-21.5 -33t-30 -23z" />
<glyph unicode="&#x201c;" horiz-adv-x="242" d="M153 724l8 -13q-23 -14 -37 -38t-19 -51q16 5 25 -2t9 -21t-8.5 -24t-22.5 -10q-25 0 -25 28q0 17 4.5 36.5t13.5 37.5t22 33t30 24zM243 724l8 -13q-23 -14 -37 -38t-19 -51q16 5 25 -2t9 -21t-8.5 -24t-22.5 -10q-25 0 -25 28q0 17 4.5 36.5t13.5 37.5t22 33t30 24z " />
<glyph unicode="&#x201d;" horiz-adv-x="242" d="M100 556l-8 13q23 14 37 38t19 51q-16 -5 -25 2t-9 21t8.5 24t22.5 10q25 0 25 -28q0 -17 -4.5 -36.5t-13.5 -37.5t-22 -33t-30 -24zM189 556l-8 13q23 14 37 38t19 51q-16 -5 -25 2t-9 21t8.5 24t22.5 10q25 0 25 -28q0 -17 -4.5 -36.5t-13.5 -37.5t-22 -33t-30 -24z " />
<glyph unicode="&#x201e;" horiz-adv-x="241" d="M7 -105l-8 12q23 14 37 38t19 51q-16 -5 -25 2t-9 21t8.5 24t22.5 10q24 0 24 -28q0 -17 -4.5 -36.5t-13 -37.5t-21.5 -33t-30 -23zM96 -105l-8 12q23 14 37 38t19 51q-16 -5 -25 2t-9 21t8.5 24t22.5 10q24 0 24 -28q0 -17 -4.5 -36.5t-13 -37.5t-21.5 -33t-30 -23z" />
<glyph unicode="&#x2020;" horiz-adv-x="229" d="M207 571h-53l-39 -237h-24l37 237h-53l4 22h53l18 116h27l-19 -116h53z" />
<glyph unicode="&#x2021;" horiz-adv-x="229" d="M59 465h53l16 108h-53l4 23h54l17 113h27l-19 -113h53l-4 -23h-53l-17 -108h54l-4 -23h-54l-17 -115h-27l19 115h-53z" />
<glyph unicode="&#x2022;" horiz-adv-x="320" d="M276 347q0 -30 -9 -54t-25.5 -41t-38.5 -26.5t-47 -9.5q-43 0 -65.5 25t-22.5 67q0 56 32 93t86 37q43 0 66.5 -24.5t23.5 -66.5z" />
<glyph unicode="&#x2026;" horiz-adv-x="447" d="M371 29q0 -35 -32 -35q-23 0 -23 25q0 16 8 25.5t23 9.5q11 0 17.5 -6.5t6.5 -18.5zM223 29q0 -35 -31 -35q-11 0 -17.5 7t-6.5 18q0 16 8 25.5t23 9.5q24 0 24 -25zM76 29q0 -35 -31 -35q-24 0 -24 25q0 16 8 25.5t23 9.5q24 0 24 -25z" />
<glyph unicode="&#x202f;" horiz-adv-x="186" />
<glyph unicode="&#x2030;" horiz-adv-x="1058" d="M227 707q45 0 68.5 -28.5t23.5 -94.5q0 -19 -2 -40t-6 -47q-17 -114 -54 -162t-94 -48q-45 0 -68.5 29t-23.5 95q0 19 1.5 40t5.5 46q18 114 55 162t94 48zM582 700l-355 -700h-28l355 700h28zM225 686q-22 0 -40.5 -9.5t-34 -32t-27.5 -58.5t-20 -88q-4 -26 -5.5 -48 t-1.5 -39q0 -57 18.5 -80t50.5 -23q22 0 40.5 9.5t33.5 31.5t27 58.5t21 89.5q4 26 6 47t2 40q0 56 -18.5 79t-51.5 23zM927 414q45 0 68.5 -28.5t23.5 -94.5q0 -19 -2 -40t-6 -47q-17 -114 -54 -162t-94 -48q-45 0 -68.5 29t-23.5 95q0 19 1.5 40t5.5 46q18 114 55 162 t94 48zM622 414q45 0 68.5 -28.5t23.5 -94.5q0 -19 -2 -40t-6 -47q-17 -114 -54 -162t-94 -48q-45 0 -68.5 29t-23.5 95q0 19 1.5 40t5.5 46q18 114 55 162t94 48zM925 393q-22 0 -40.5 -9.5t-34 -32t-27.5 -58.5t-20 -88q-4 -26 -5.5 -48t-1.5 -39q0 -57 18.5 -80t50.5 -23 q22 0 40.5 9.5t33.5 31.5t27 58.5t21 89.5q4 26 6 47t2 40q0 56 -18.5 79t-51.5 23zM620 393q-22 0 -40.5 -9.5t-34 -32t-27.5 -58.5t-20 -88q-4 -26 -5.5 -48t-1.5 -39q0 -57 18.5 -80t50.5 -23q22 0 40.5 9.5t33.5 31.5t27 58.5t21 89.5q4 26 6 47t2 40q0 56 -18.5 79 t-51.5 23z" />
<glyph unicode="&#x2039;" horiz-adv-x="306" d="M153 0l-103 237l1 3l177 238h34l-180 -240l104 -238h-33z" />
<glyph unicode="&#x203a;" horiz-adv-x="306" d="M148 478l103 -237l-1 -3l-177 -238h-34l180 240l-104 238h33z" />
<glyph unicode="&#x2044;" horiz-adv-x="365" d="M394 700l-355 -700h-28l355 700h28z" />
<glyph unicode="&#x205f;" horiz-adv-x="233" />
<glyph unicode="&#x2070;" horiz-adv-x="307" d="M73 287zM229 707q45 0 68.5 -28.5t23.5 -94.5q0 -19 -2 -40t-6 -47q-17 -114 -54 -162t-94 -48q-45 0 -68.5 29t-23.5 95q0 19 1.5 40t5.5 46q18 114 55 162t94 48zM227 686q-22 0 -40.5 -9.5t-34 -32t-27.5 -58.5t-20 -88q-4 -26 -5.5 -48t-1.5 -39q0 -57 18.5 -80 t50.5 -23q22 0 40.5 9.5t33.5 31.5t27 58.5t21 89.5q4 26 6 47t2 40q0 56 -18.5 79t-51.5 23z" />
<glyph unicode="&#x2074;" horiz-adv-x="288" d="M55 293zM55 405l3 18l149 279h24l-149 -276h146l32 202h24l-32 -202h49l-3 -21h-49l-19 -112h-23l18 112h-170z" />
<glyph unicode="&#x2075;" horiz-adv-x="272" d="M52 287zM151 680l-39 -168q18 17 39 26t48 9q38 0 59.5 -22.5t21.5 -70.5q0 -33 -8.5 -63.5t-25.5 -53.5t-41.5 -36.5t-56.5 -13.5q-41 0 -65.5 18.5t-30.5 60.5l22 11q5 -36 24 -52.5t51 -16.5q26 0 46 12t33.5 31.5t20.5 45.5t7 54q0 75 -67 75q-29 0 -50 -11.5 t-39 -30.5l-15 7l49 211h172l-3 -22h-152z" />
<glyph unicode="&#x2076;" horiz-adv-x="289" d="M76 287zM318 634l-20 -9q-5 32 -21 46.5t-43 14.5q-47 0 -79.5 -47t-48.5 -147q-4 -24 -6 -53q8 48 38.5 78t73.5 30q36 0 58 -25t22 -73q0 -35 -8 -64.5t-23.5 -51t-38 -34t-51.5 -12.5q-42 0 -68.5 30.5t-26.5 99.5q0 17 1 35.5t5 39.5q17 112 57 163.5t95 51.5 q37 0 58 -17t26 -56zM202 527q-23 0 -41 -12t-31.5 -31t-20.5 -42.5t-7 -46.5q0 -17 4 -32.5t12.5 -27.5t21.5 -19.5t32 -7.5q45 0 70.5 38.5t25.5 98.5q0 39 -17 60.5t-49 21.5z" />
<glyph unicode="&#x2077;" horiz-adv-x="230" d="M86 293zM86 293q9 54 26.5 110.5t41.5 108.5t52.5 95.5t60.5 72.5l-172 -1l4 23h200l-4 -20q-32 -26 -61 -67.5t-53 -93.5t-41.5 -110.5t-26.5 -117.5h-27z" />
<glyph unicode="&#x2078;" horiz-adv-x="286" d="M66 287zM281 427q0 -63 -34.5 -101.5t-90.5 -38.5q-43 0 -66.5 24.5t-23.5 67.5q0 56 25.5 90.5t63.5 44.5q-21 8 -33.5 26.5t-12.5 47.5q0 24 7.5 46t21.5 38t34.5 25.5t47.5 9.5q38 0 59 -20.5t21 -57.5q0 -45 -20.5 -75t-52.5 -42q24 -8 39 -30t15 -55zM277 624 q0 29 -15 45.5t-45 16.5q-42 0 -63.5 -29t-21.5 -69q0 -30 15.5 -47.5t44.5 -17.5q35 0 60 27.5t25 73.5zM257 425q0 34 -18 55t-51 21q-44 0 -71 -33.5t-27 -84.5q0 -34 17 -54.5t52 -20.5q42 0 70 32t28 85z" />
<glyph unicode="&#x2079;" horiz-adv-x="289" d="M56 287zM172 467q24 0 43 12t31.5 31t19.5 42.5t7 46.5q0 33 -16 60.5t-52 27.5q-43 0 -70 -38t-27 -101q0 -37 16.5 -59t47.5 -22zM142 287q-36 0 -57 17t-29 56l21 10q6 -33 22 -47.5t43 -14.5q48 0 81 47t48 147q2 12 3 25.5t2 27.5q-8 -48 -38 -78.5t-73 -30.5 q-37 0 -59 25.5t-22 73.5q0 34 8 64t24 51.5t38.5 34t52.5 12.5q41 0 67 -30t26 -99q0 -34 -6 -77q-17 -111 -57 -162.5t-95 -51.5z" />
<glyph unicode="&#x207a;" horiz-adv-x="236" d="M67 363zM146 363h-21l17 103h-75l4 19h74l17 109h21l-18 -109h73l-3 -19h-73z" />
<glyph unicode="&#x207b;" horiz-adv-x="236" d="M67 465zM239 486l-4 -21h-168l4 21h168z" />
<glyph unicode="&#x207c;" horiz-adv-x="236" d="M63 434zM245 522l-4 -21h-168l4 21h168zM233 455l-3 -21h-167l3 21h167z" />
<glyph unicode="&#x207d;" horiz-adv-x="163" d="M60 254zM134 273l-10 -19q-30 10 -47 42.5t-17 92.5q0 20 1.5 44t6.5 50q17 105 50 163t78 69l5 -20q-38 -11 -66 -63t-44 -149q-5 -26 -6.5 -49t-1.5 -43q0 -103 51 -118z" />
<glyph unicode="&#x207e;" horiz-adv-x="163" d="M36 253zM103 695l10 20q30 -10 47 -43.5t17 -93.5q0 -20 -1.5 -44t-6.5 -50q-17 -105 -50 -162.5t-78 -68.5l-5 20q38 11 66 63t44 149q5 26 6.5 49t1.5 43q0 103 -51 118z" />
<glyph unicode="&#x2080;" horiz-adv-x="307" d="M182 414q45 0 68.5 -28.5t23.5 -94.5q0 -19 -2 -40t-6 -47q-17 -114 -54 -162t-94 -48q-45 0 -68.5 29t-23.5 95q0 19 1.5 40t5.5 46q18 114 55 162t94 48zM180 393q-22 0 -40.5 -9.5t-34 -32t-27.5 -58.5t-20 -88q-4 -26 -5.5 -48t-1.5 -39q0 -57 18.5 -80t50.5 -23 q22 0 40.5 9.5t33.5 31.5t27 58.5t21 89.5q4 26 6 47t2 40q0 56 -18.5 79t-51.5 23z" />
<glyph unicode="&#x2081;" horiz-adv-x="146" d="M53 0h-24l58 371l-50 -44l-8 19l71 63h18z" />
<glyph unicode="&#x2082;" horiz-adv-x="255" d="M-8 0l3 19l145 175q40 49 56.5 81t16.5 61q0 56 -60 56q-29 0 -53.5 -16t-45.5 -58l-17 9q23 50 53.5 68.5t66.5 18.5q42 0 61.5 -20.5t19.5 -54.5q0 -15 -3.5 -31t-12.5 -34.5t-25 -41t-40 -51.5l-133 -160l181 1l-3 -22h-210z" />
<glyph unicode="&#x2083;" horiz-adv-x="268" d="M0 75l22 8q5 -35 23.5 -51.5t48.5 -16.5q49 0 75.5 33.5t26.5 85.5q0 31 -15 50.5t-51 19.5h-35l3 20h35q20 0 35.5 9t26.5 24t16.5 34t5.5 40q0 62 -59 62q-32 0 -55.5 -16t-39.5 -52l-20 8q35 81 119 81q41 0 60.5 -21.5t19.5 -58.5q0 -38 -19 -72t-54 -47 q23 -8 37 -26.5t14 -53.5q0 -63 -33.5 -102t-93.5 -39q-38 0 -62.5 18.5t-30.5 62.5z" />
<glyph unicode="&#x2084;" horiz-adv-x="288" d="M8 112l3 18l149 279h24l-149 -276h146l32 202h24l-32 -202h49l-3 -21h-49l-19 -112h-23l18 112h-170z" />
<glyph unicode="&#x2085;" horiz-adv-x="272" d="M104 387l-39 -168q18 17 39 26t48 9q38 0 59.5 -22.5t21.5 -70.5q0 -33 -8.5 -63.5t-25.5 -53.5t-41.5 -36.5t-56.5 -13.5q-41 0 -65.5 18.5t-30.5 60.5l22 11q5 -36 24 -52.5t51 -16.5q26 0 46 12t33.5 31.5t20.5 45.5t7 54q0 75 -67 75q-29 0 -50 -11.5t-39 -30.5 l-15 7l49 211h172l-3 -22h-152z" />
<glyph unicode="&#x2086;" horiz-adv-x="289" d="M271 341l-20 -9q-5 32 -21 46.5t-43 14.5q-47 0 -79.5 -47t-48.5 -147q-4 -24 -6 -53q8 48 38.5 78t73.5 30q36 0 58 -25t22 -73q0 -35 -8 -64.5t-23.5 -51t-38 -34t-51.5 -12.5q-42 0 -68.5 30.5t-26.5 99.5q0 17 1 35.5t5 39.5q17 112 57 163.5t95 51.5q37 0 58 -17 t26 -56zM155 234q-23 0 -41 -12t-31.5 -31t-20.5 -42.5t-7 -46.5q0 -17 4 -32.5t12.5 -27.5t21.5 -19.5t32 -7.5q45 0 70.5 38.5t25.5 98.5q0 39 -17 60.5t-49 21.5z" />
<glyph unicode="&#x2087;" horiz-adv-x="230" d="M39 0q9 54 26.5 110.5t41.5 108.5t52.5 95.5t60.5 72.5l-172 -1l4 23h200l-4 -20q-32 -26 -61 -67.5t-53 -93.5t-41.5 -110.5t-26.5 -117.5h-27z" />
<glyph unicode="&#x2088;" horiz-adv-x="286" d="M234 134q0 -63 -34.5 -101.5t-90.5 -38.5q-43 0 -66.5 24.5t-23.5 67.5q0 56 25.5 90.5t63.5 44.5q-21 8 -33.5 26.5t-12.5 47.5q0 24 7.5 46t21.5 38t34.5 25.5t47.5 9.5q38 0 59 -20.5t21 -57.5q0 -45 -20.5 -75t-52.5 -42q24 -8 39 -30t15 -55zM230 331q0 29 -15 45.5 t-45 16.5q-42 0 -63.5 -29t-21.5 -69q0 -30 15.5 -47.5t44.5 -17.5q35 0 60 27.5t25 73.5zM210 132q0 34 -18 55t-51 21q-44 0 -71 -33.5t-27 -84.5q0 -34 17 -54.5t52 -20.5q42 0 70 32t28 85z" />
<glyph unicode="&#x2089;" horiz-adv-x="289" d="M125 174q24 0 43 12t31.5 31t19.5 42.5t7 46.5q0 33 -16 60.5t-52 27.5q-43 0 -70 -38t-27 -101q0 -37 16.5 -59t47.5 -22zM95 -6q-36 0 -57 17t-29 56l21 10q6 -33 22 -47.5t43 -14.5q48 0 81 47t48 147q2 12 3 25.5t2 27.5q-8 -48 -38 -78.5t-73 -30.5q-37 0 -59 25.5 t-22 73.5q0 34 8 64t24 51.5t38.5 34t52.5 12.5q41 0 67 -30t26 -99q0 -34 -6 -77q-17 -111 -57 -162.5t-95 -51.5z" />
<glyph unicode="&#x208a;" horiz-adv-x="236" d="M100 65h-21l17 103h-75l4 19h74l17 109h21l-18 -109h73l-3 -19h-73z" />
<glyph unicode="&#x208b;" horiz-adv-x="236" d="M193 188l-4 -21h-168l4 21h168z" />
<glyph unicode="&#x208c;" horiz-adv-x="236" d="M199 224l-4 -21h-168l4 21h168zM187 157l-3 -21h-167l3 21h167z" />
<glyph unicode="&#x208d;" horiz-adv-x="163" d="M88 -25l-10 -19q-30 10 -47 42.5t-17 92.5q0 20 1.5 44t6.5 50q17 105 50 163t78 69l5 -20q-38 -11 -66 -63t-44 -149q-5 -26 -6.5 -49t-1.5 -43q0 -103 51 -118z" />
<glyph unicode="&#x208e;" horiz-adv-x="163" d="M57 397l10 20q30 -10 47 -43.5t17 -93.5q0 -20 -1.5 -44t-6.5 -50q-17 -105 -50 -162.5t-78 -68.5l-5 20q38 11 66 63t44 149q5 26 6.5 49t1.5 43q0 103 -51 118z" />
<glyph unicode="&#x20ac;" horiz-adv-x="503" d="M458 141q-38 -82 -92.5 -116.5t-119.5 -34.5q-47 0 -81.5 16.5t-55.5 53t-28.5 94.5t1.5 141h-66l4 25h64q2 17 4 29.5t6 32.5h-64l4 24h64q16 82 41.5 140t58.5 94.5t73 53t86 16.5q65 0 105.5 -37t51.5 -126l-29 -10q-10 82 -44 114t-88 32q-38 0 -72 -14.5t-62.5 -47 t-51 -85.5t-38.5 -130h254l-10 -24h-249q-5 -21 -6.5 -33t-3.5 -29h233l-9 -25h-226q-8 -78 -2 -131t24 -86t47 -47.5t68 -14.5q54 0 102 31.5t82 107.5z" />
<glyph unicode="&#x2122;" horiz-adv-x="514" d="M89 700h176l-3 -18h-77l-44 -276h-20l44 276h-79zM245 406l47 294h23l44 -268l127 268h25l-47 -294h-18l42 260l-125 -260h-16l-43 258l-40 -258h-19z" />
<glyph unicode="&#x2153;" horiz-adv-x="590" d="M98 293h-24l58 371l-50 -44l-8 19l71 63h18zM452 700l-355 -700h-28l355 700h28zM318 75l22 8q5 -35 23.5 -51.5t48.5 -16.5q49 0 75.5 33.5t26.5 85.5q0 31 -15 50.5t-51 19.5h-35l3 20h35q20 0 35.5 9t26.5 24t16.5 34t5.5 40q0 62 -59 62q-32 0 -55.5 -16t-39.5 -52 l-20 8q35 81 119 81q41 0 60.5 -21.5t19.5 -58.5q0 -38 -19 -72t-54 -47q23 -8 37 -26.5t14 -53.5q0 -63 -33.5 -102t-93.5 -39q-38 0 -62.5 18.5t-30.5 62.5z" />
<glyph unicode="&#x2154;" horiz-adv-x="691" d="M36 293l3 19l145 175q40 49 56.5 81t16.5 61q0 56 -60 56q-29 0 -53.5 -16t-45.5 -58l-17 9q23 50 53.5 68.5t66.5 18.5q42 0 61.5 -20.5t19.5 -54.5q0 -15 -3.5 -31t-12.5 -34.5t-25 -41t-40 -51.5l-133 -160l181 1l-3 -22h-210zM553 700l-355 -700h-28l355 700h28z M418 75l22 8q5 -35 23.5 -51.5t48.5 -16.5q49 0 75.5 33.5t26.5 85.5q0 31 -15 50.5t-51 19.5h-35l3 20h35q20 0 35.5 9t26.5 24t16.5 34t5.5 40q0 62 -59 62q-32 0 -55.5 -16t-39.5 -52l-20 8q35 81 119 81q41 0 60.5 -21.5t19.5 -58.5q0 -38 -19 -72t-54 -47 q23 -8 37 -26.5t14 -53.5q0 -63 -33.5 -102t-93.5 -39q-38 0 -62.5 18.5t-30.5 62.5z" />
<glyph unicode="&#x2155;" horiz-adv-x="603" d="M98 293h-24l58 371l-50 -44l-8 19l71 63h18zM452 700l-355 -700h-28l355 700h28zM431 387l-39 -168q18 17 39 26t48 9q38 0 59.5 -22.5t21.5 -70.5q0 -33 -8.5 -63.5t-25.5 -53.5t-41.5 -36.5t-56.5 -13.5q-41 0 -65.5 18.5t-30.5 60.5l22 11q5 -36 24 -52.5t51 -16.5 q26 0 46 12t33.5 31.5t20.5 45.5t7 54q0 75 -67 75q-29 0 -50 -11.5t-39 -30.5l-15 7l49 211h172l-3 -22h-152z" />
<glyph unicode="&#x2156;" horiz-adv-x="707" d="M37 293l3 19l145 175q40 49 56.5 81t16.5 61q0 56 -60 56q-29 0 -53.5 -16t-45.5 -58l-17 9q23 50 53.5 68.5t66.5 18.5q42 0 61.5 -20.5t19.5 -54.5q0 -15 -3.5 -31t-12.5 -34.5t-25 -41t-40 -51.5l-133 -160l181 1l-3 -22h-210zM558 700l-355 -700h-28l355 700h28z M535 387l-39 -168q18 17 39 26t48 9q38 0 59.5 -22.5t21.5 -70.5q0 -33 -8.5 -63.5t-25.5 -53.5t-41.5 -36.5t-56.5 -13.5q-41 0 -65.5 18.5t-30.5 60.5l22 11q5 -36 24 -52.5t51 -16.5q26 0 46 12t33.5 31.5t20.5 45.5t7 54q0 75 -67 75q-29 0 -50 -11.5t-39 -30.5l-15 7 l49 211h172l-3 -22h-152z" />
<glyph unicode="&#x2157;" horiz-adv-x="706" d="M557 700l-355 -700h-28l355 700h28zM47 368l22 8q5 -35 23.5 -51.5t48.5 -16.5q49 0 75.5 33.5t26.5 85.5q0 31 -15 50.5t-51 19.5h-35l3 20h35q20 0 35.5 9t26.5 24t16.5 34t5.5 40q0 62 -59 62q-32 0 -55.5 -16t-39.5 -52l-20 8q35 81 119 81q41 0 60.5 -21.5 t19.5 -58.5q0 -38 -19 -72t-54 -47q23 -8 37 -26.5t14 -53.5q0 -63 -33.5 -102t-93.5 -39q-38 0 -62.5 18.5t-30.5 62.5zM535 387l-39 -168q18 17 39 26t48 9q38 0 59.5 -22.5t21.5 -70.5q0 -33 -8.5 -63.5t-25.5 -53.5t-41.5 -36.5t-56.5 -13.5q-41 0 -65.5 18.5 t-30.5 60.5l22 11q5 -36 24 -52.5t51 -16.5q26 0 46 12t33.5 31.5t20.5 45.5t7 54q0 75 -67 75q-29 0 -50 -11.5t-39 -30.5l-15 7l49 211h172l-3 -22h-152z" />
<glyph unicode="&#x2158;" horiz-adv-x="727" d="M54 405l3 18l149 279h24l-149 -276h146l32 202h24l-32 -202h49l-3 -21h-49l-19 -112h-23l18 112h-170zM576 700l-355 -700h-28l355 700h28zM554 387l-39 -168q18 17 39 26t48 9q38 0 59.5 -22.5t21.5 -70.5q0 -33 -8.5 -63.5t-25.5 -53.5t-41.5 -36.5t-56.5 -13.5 q-41 0 -65.5 18.5t-30.5 60.5l22 11q5 -36 24 -52.5t51 -16.5q26 0 46 12t33.5 31.5t20.5 45.5t7 54q0 75 -67 75q-29 0 -50 -11.5t-39 -30.5l-15 7l49 211h172l-3 -22h-152z" />
<glyph unicode="&#x2159;" horiz-adv-x="619" d="M97 293h-24l58 371l-50 -44l-8 19l71 63h18zM452 700l-355 -700h-28l355 700h28zM598 341l-20 -9q-5 32 -21 46.5t-43 14.5q-47 0 -79.5 -47t-48.5 -147q-4 -24 -6 -53q8 48 38.5 78t73.5 30q36 0 58 -25t22 -73q0 -35 -8 -64.5t-23.5 -51t-38 -34t-51.5 -12.5 q-42 0 -68.5 30.5t-26.5 99.5q0 17 1 35.5t5 39.5q17 112 57 163.5t95 51.5q37 0 58 -17t26 -56zM482 234q-23 0 -41 -12t-31.5 -31t-20.5 -42.5t-7 -46.5q0 -17 4 -32.5t12.5 -27.5t21.5 -19.5t32 -7.5q45 0 70.5 38.5t25.5 98.5q0 39 -17 60.5t-49 21.5z" />
<glyph unicode="&#x215a;" horiz-adv-x="710" d="M557 700l-355 -700h-28l355 700h28zM688 341l-20 -9q-5 32 -21 46.5t-43 14.5q-47 0 -79.5 -47t-48.5 -147q-4 -24 -6 -53q8 48 38.5 78t73.5 30q36 0 58 -25t22 -73q0 -35 -8 -64.5t-23.5 -51t-38 -34t-51.5 -12.5q-42 0 -68.5 30.5t-26.5 99.5q0 17 1 35.5t5 39.5 q17 112 57 163.5t95 51.5q37 0 58 -17t26 -56zM149 680l-39 -168q18 17 39 26t48 9q38 0 59.5 -22.5t21.5 -70.5q0 -33 -8.5 -63.5t-25.5 -53.5t-41.5 -36.5t-56.5 -13.5q-41 0 -65.5 18.5t-30.5 60.5l22 11q5 -36 24 -52.5t51 -16.5q26 0 46 12t33.5 31.5t20.5 45.5t7 54 q0 75 -67 75q-29 0 -50 -11.5t-39 -30.5l-15 7l49 211h172l-3 -22h-152zM572 234q-23 0 -41 -12t-31.5 -31t-20.5 -42.5t-7 -46.5q0 -17 4 -32.5t12.5 -27.5t21.5 -19.5t32 -7.5q45 0 70.5 38.5t25.5 98.5q0 39 -17 60.5t-49 21.5z" />
<glyph unicode="&#x215b;" horiz-adv-x="618" d="M98 293h-24l58 371l-50 -44l-8 19l71 63h18zM452 700l-355 -700h-28l355 700h28zM560 134q0 -63 -34.5 -101.5t-90.5 -38.5q-43 0 -66.5 24.5t-23.5 67.5q0 56 25.5 90.5t63.5 44.5q-21 8 -33.5 26.5t-12.5 47.5q0 24 7.5 46t21.5 38t34.5 25.5t47.5 9.5q38 0 59 -20.5 t21 -57.5q0 -45 -20.5 -75t-52.5 -42q24 -8 39 -30t15 -55zM556 331q0 29 -15 45.5t-45 16.5q-42 0 -63.5 -29t-21.5 -69q0 -30 15.5 -47.5t44.5 -17.5q35 0 60 27.5t25 73.5zM536 132q0 34 -18 55t-51 21q-44 0 -71 -33.5t-27 -84.5q0 -34 17 -54.5t52 -20.5q42 0 70 32 t28 85z" />
<glyph unicode="&#x215c;" horiz-adv-x="721" d="M557 700l-355 -700h-28l355 700h28zM663 134q0 -63 -34.5 -101.5t-90.5 -38.5q-43 0 -66.5 24.5t-23.5 67.5q0 56 25.5 90.5t63.5 44.5q-21 8 -33.5 26.5t-12.5 47.5q0 24 7.5 46t21.5 38t34.5 25.5t47.5 9.5q38 0 59 -20.5t21 -57.5q0 -45 -20.5 -75t-52.5 -42 q24 -8 39 -30t15 -55zM659 331q0 29 -15 45.5t-45 16.5q-42 0 -63.5 -29t-21.5 -69q0 -30 15.5 -47.5t44.5 -17.5q35 0 60 27.5t25 73.5zM47 368l22 8q5 -35 23.5 -51.5t48.5 -16.5q49 0 75.5 33.5t26.5 85.5q0 31 -15 50.5t-51 19.5h-35l3 20h35q20 0 35.5 9t26.5 24 t16.5 34t5.5 40q0 62 -59 62q-32 0 -55.5 -16t-39.5 -52l-20 8q35 81 119 81q41 0 60.5 -21.5t19.5 -58.5q0 -38 -19 -72t-54 -47q23 -8 37 -26.5t14 -53.5q0 -63 -33.5 -102t-93.5 -39q-38 0 -62.5 18.5t-30.5 62.5zM639 132q0 34 -18 55t-51 21q-44 0 -71 -33.5t-27 -84.5 q0 -34 17 -54.5t52 -20.5q42 0 70 32t28 85z" />
<glyph unicode="&#x215d;" horiz-adv-x="722" d="M557 700l-355 -700h-28l355 700h28zM665 134q0 -63 -34.5 -101.5t-90.5 -38.5q-43 0 -66.5 24.5t-23.5 67.5q0 56 25.5 90.5t63.5 44.5q-21 8 -33.5 26.5t-12.5 47.5q0 24 7.5 46t21.5 38t34.5 25.5t47.5 9.5q38 0 59 -20.5t21 -57.5q0 -45 -20.5 -75t-52.5 -42 q24 -8 39 -30t15 -55zM661 331q0 29 -15 45.5t-45 16.5q-42 0 -63.5 -29t-21.5 -69q0 -30 15.5 -47.5t44.5 -17.5q35 0 60 27.5t25 73.5zM148 680l-39 -168q18 17 39 26t48 9q38 0 59.5 -22.5t21.5 -70.5q0 -33 -8.5 -63.5t-25.5 -53.5t-41.5 -36.5t-56.5 -13.5 q-41 0 -65.5 18.5t-30.5 60.5l22 11q5 -36 24 -52.5t51 -16.5q26 0 46 12t33.5 31.5t20.5 45.5t7 54q0 75 -67 75q-29 0 -50 -11.5t-39 -30.5l-15 7l49 211h172l-3 -22h-152zM641 132q0 34 -18 55t-51 21q-44 0 -71 -33.5t-27 -84.5q0 -34 17 -54.5t52 -20.5q42 0 70 32 t28 85z" />
<glyph unicode="&#x215e;" horiz-adv-x="669" d="M83 292q9 54 26.5 110.5t41.5 108.5t52.5 95.5t60.5 72.5l-172 -1l4 23h200l-4 -20q-32 -26 -61 -67.5t-53 -93.5t-41.5 -110.5t-26.5 -117.5h-27zM504 700l-355 -700h-28l355 700h28zM611 134q0 -63 -34.5 -101.5t-90.5 -38.5q-43 0 -66.5 24.5t-23.5 67.5 q0 56 25.5 90.5t63.5 44.5q-21 8 -33.5 26.5t-12.5 47.5q0 24 7.5 46t21.5 38t34.5 25.5t47.5 9.5q38 0 59 -20.5t21 -57.5q0 -45 -20.5 -75t-52.5 -42q24 -8 39 -30t15 -55zM607 331q0 29 -15 45.5t-45 16.5q-42 0 -63.5 -29t-21.5 -69q0 -30 15.5 -47.5t44.5 -17.5 q35 0 60 27.5t25 73.5zM587 132q0 34 -18 55t-51 21q-44 0 -71 -33.5t-27 -84.5q0 -34 17 -54.5t52 -20.5q42 0 70 32t28 85z" />
<glyph unicode="&#x215f;" horiz-adv-x="626" d="M98 293h-24l58 371l-50 -44l-8 19l71 63h18zM452 700l-355 -700h-28l355 700h28z" />
<glyph unicode="&#x2212;" horiz-adv-x="367" d="M333 318l-4 -25h-284l4 25h284z" />
<glyph unicode="&#x2248;" horiz-adv-x="369" d="M262 353q19 0 41.5 8t42.5 24l-5 -26q-17 -15 -40.5 -23t-42.5 -8q-20 0 -34 6.5t-27.5 15t-27.5 15t-33 6.5q-20 0 -42.5 -8t-41.5 -24l5 27q17 15 40 22.5t43 7.5t35 -6.5t28 -15t27 -15t32 -6.5zM244 242q19 0 41.5 8t42.5 24l-5 -27q-17 -15 -40.5 -22.5t-42.5 -7.5 q-20 0 -34.5 6.5t-27.5 15t-27 15t-33 6.5q-20 0 -43 -8t-41 -25l5 28q17 15 39.5 22.5t42.5 7.5q21 0 35.5 -6.5t28 -15t27.5 -15t32 -6.5z" />
<glyph unicode="&#x2260;" horiz-adv-x="367" d="M319 242h-169l-94 -122h-25l95 122h-91l5 25h104l64 84h-155l5 26h169l96 125h26l-97 -125h89l-4 -26h-104l-64 -84h155z" />
<glyph unicode="&#x2264;" horiz-adv-x="391" d="M331 494l11 -20l-217 -158l167 -155l-17 -21l-184 170l3 14zM35 0l4 25h234l-4 -25h-234z" />
<glyph unicode="&#x2265;" horiz-adv-x="391" d="M81 141l-11 21l217 156l-166 156l18 21l182 -169l-2 -14zM276 25l-3 -25h-234l3 25h234z" />
<glyph unicode="&#x25fc;" horiz-adv-x="480" d="M0 480h480v-480h-480v480z" />
<glyph unicode="&#xf6c3;" horiz-adv-x="451" d="M165 -221l-8 12q19 12 33 34.5t17 48.5q-13 -5 -23 1.5t-10 21.5q1 14 9 22.5t22 8.5q23 0 23 -29q0 -18 -5 -36t-13 -34t-19.5 -29.5t-25.5 -20.5z" />
<glyph horiz-adv-x="281" d="M36 -65l131 831h28l-132 -831h-27zM118 -65l131 831h27l-131 -831h-27z" />
<glyph horiz-adv-x="153" d="M129 560q-25 15 -38 46t-13 67q0 24 8 33.5t22 9.5q11 0 19 -8t8 -22q0 -17 -11.5 -24.5t-25.5 -1.5q1 -26 11 -49.5t30 -36.5z" />
<glyph horiz-adv-x="244" d="M129 560q-25 15 -38 46t-13 67q0 24 8 33.5t22 9.5q11 0 19 -8t8 -22q0 -17 -11.5 -24.5t-25.5 -1.5q1 -26 11 -49.5t30 -36.5zM219 560q-25 15 -38 46t-13 67q0 24 8 33.5t22 9.5q11 0 19 -8t8 -22q0 -17 -11.5 -24.5t-25.5 -1.5q1 -26 11 -49.5t30 -36.5z" />
<glyph d="M44 0zM172 16q57 0 103 55.5t64 172.5q6 40 6 73q0 75 -27.5 110t-73.5 35q-64 0 -105.5 -58t-58.5 -165q-4 -23 -5.5 -43.5t-1.5 -38.5q0 -69 24 -105t75 -36zM321 124q-25 -69 -66.5 -101.5t-92.5 -32.5q-59 0 -88.5 42t-29.5 122q0 19 1.5 40.5t5.5 44.5 q17 120 67 184.5t125 64.5q48 0 80 -30.5t36 -94.5l21 115h24l-75 -478h-24zM337 -179q-14 -11 -28.5 -15t-30.5 -4q-28 0 -46 16.5t-18 55.5q0 29 10 54t26 43.5t35.5 30.5t38.5 14l1 -16q-16 -2 -31.5 -12.5t-28 -27t-20.5 -37.5t-8 -45q0 -31 14 -42t32 -11q26 0 45 15z " />
<glyph d="M172 16q57 0 103 55.5t64 172.5q6 40 6 73q0 75 -27.5 110t-73.5 35q-64 0 -105.5 -58t-58.5 -165q-4 -23 -5.5 -43.5t-1.5 -38.5q0 -69 24 -105t75 -36zM321 124q-25 -69 -66.5 -101.5t-92.5 -32.5q-59 0 -88.5 42t-29.5 122q0 19 1.5 40.5t5.5 44.5q17 120 67 184.5 t125 64.5q48 0 80 -30.5t36 -94.5l21 115h24l-75 -478h-24z" />
<glyph d="M44 0zM172 16q57 0 103 55.5t64 172.5q6 40 6 73q0 75 -27.5 110t-73.5 35q-64 0 -105.5 -58t-58.5 -165q-4 -23 -5.5 -43.5t-1.5 -38.5q0 -69 24 -105t75 -36zM321 124q-25 -69 -66.5 -101.5t-92.5 -32.5q-59 0 -88.5 42t-29.5 122q0 19 1.5 40.5t5.5 44.5 q17 120 67 184.5t125 64.5q48 0 80 -30.5t36 -94.5l21 115h24l-75 -478h-24zM257 563l-63 103v4h38l48 -104v-3h-23z" />
<glyph d="M44 0zM172 16q57 0 103 55.5t64 172.5q6 40 6 73q0 75 -27.5 110t-73.5 35q-64 0 -105.5 -58t-58.5 -165q-4 -23 -5.5 -43.5t-1.5 -38.5q0 -69 24 -105t75 -36zM321 124q-25 -69 -66.5 -101.5t-92.5 -32.5q-59 0 -88.5 42t-29.5 122q0 19 1.5 40.5t5.5 44.5 q17 120 67 184.5t125 64.5q48 0 80 -30.5t36 -94.5l21 115h24l-75 -478h-24zM326 670h39l-1 -4l-92 -103h-24v3z" />
<glyph d="M44 0zM172 16q57 0 103 55.5t64 172.5q6 40 6 73q0 75 -27.5 110t-73.5 35q-64 0 -105.5 -58t-58.5 -165q-4 -23 -5.5 -43.5t-1.5 -38.5q0 -69 24 -105t75 -36zM321 124q-25 -69 -66.5 -101.5t-92.5 -32.5q-59 0 -88.5 42t-29.5 122q0 19 1.5 40.5t5.5 44.5 q17 120 67 184.5t125 64.5q48 0 80 -30.5t36 -94.5l21 115h24l-75 -478h-24zM268 670h24l69 -105v-2h-28l-55 86l-83 -86h-31v2z" />
<glyph d="M44 0zM184 605q0 34 31 34q11 0 17.5 -6.5t6.5 -18.5q0 -16 -8.5 -25t-22.5 -9q-24 0 -24 25zM291 605q0 34 31 34q24 0 24 -25q0 -34 -31 -34q-24 0 -24 25zM172 16q57 0 103 55.5t64 172.5q6 40 6 73q0 75 -27.5 110t-73.5 35q-64 0 -105.5 -58t-58.5 -165 q-4 -23 -5.5 -43.5t-1.5 -38.5q0 -69 24 -105t75 -36zM321 124q-25 -69 -66.5 -101.5t-92.5 -32.5q-59 0 -88.5 42t-29.5 122q0 19 1.5 40.5t5.5 44.5q17 120 67 184.5t125 64.5q48 0 80 -30.5t36 -94.5l21 115h24l-75 -478h-24z" />
<glyph d="M44 0zM172 16q57 0 103 55.5t64 172.5q6 40 6 73q0 75 -27.5 110t-73.5 35q-64 0 -105.5 -58t-58.5 -165q-4 -23 -5.5 -43.5t-1.5 -38.5q0 -69 24 -105t75 -36zM321 124q-25 -69 -66.5 -101.5t-92.5 -32.5q-59 0 -88.5 42t-29.5 122q0 19 1.5 40.5t5.5 44.5 q17 120 67 184.5t125 64.5q48 0 80 -30.5t36 -94.5l21 115h24l-75 -478h-24zM350 656h22q-3 -23 -9.5 -37.5t-15 -23t-17.5 -11.5t-17 -3q-16 0 -26 8.5t-19 19t-17.5 19t-21.5 8.5q-11 0 -20.5 -10t-13.5 -41h-22q3 23 9.5 37.5t14.5 22.5t17 11t17 3q16 0 26 -8.5 t19 -18.5t18 -18.5t22 -8.5q12 0 20.5 11t13.5 40z" />
<glyph d="M44 0zM172 16q57 0 103 55.5t64 172.5q6 40 6 73q0 75 -27.5 110t-73.5 35q-64 0 -105.5 -58t-58.5 -165q-4 -23 -5.5 -43.5t-1.5 -38.5q0 -69 24 -105t75 -36zM321 124q-25 -69 -66.5 -101.5t-92.5 -32.5q-59 0 -88.5 42t-29.5 122q0 19 1.5 40.5t5.5 44.5 q17 120 67 184.5t125 64.5q48 0 80 -30.5t36 -94.5l21 115h24l-75 -478h-24zM283 711q25 0 43 -17.5t18 -50.5q0 -38 -22 -65.5t-57 -27.5q-25 0 -43 17t-18 51q0 37 22 65t57 28zM280 692q-23 0 -39 -21.5t-16 -50.5q0 -25 12 -38t29 -13q24 0 41 21t17 51q0 25 -13 38 t-31 13z" />
<glyph d="M44 0zM172 16q57 0 103 55.5t64 172.5q6 40 6 73q0 75 -27.5 110t-73.5 35q-64 0 -105.5 -58t-58.5 -165q-4 -23 -5.5 -43.5t-1.5 -38.5q0 -69 24 -105t75 -36zM321 124q-25 -69 -66.5 -101.5t-92.5 -32.5q-59 0 -88.5 42t-29.5 122q0 19 1.5 40.5t5.5 44.5 q17 120 67 184.5t125 64.5q48 0 80 -30.5t36 -94.5l21 115h24l-75 -478h-24zM358 626l-4 -23h-168l3 23h169z" />
<glyph d="M44 0zM172 16q57 0 103 55.5t64 172.5q6 40 6 73q0 75 -27.5 110t-73.5 35q-64 0 -105.5 -58t-58.5 -165q-4 -23 -5.5 -43.5t-1.5 -38.5q0 -69 24 -105t75 -36zM321 124q-25 -69 -66.5 -101.5t-92.5 -32.5q-59 0 -88.5 42t-29.5 122q0 19 1.5 40.5t5.5 44.5 q17 120 67 184.5t125 64.5q48 0 80 -30.5t36 -94.5l21 115h24l-75 -478h-24zM348 669h21q-8 -59 -35 -82t-70 -23t-63.5 23.5t-11.5 81.5h22q-7 -48 7 -65.5t47 -17.5q35 0 55 17.5t28 65.5z" />
<glyph horiz-adv-x="445" d="M320 120q-24 -62 -65.5 -93.5t-92.5 -31.5q-106 0 -106 125q0 29 6 62l47 296h29l-46 -290q-6 -36 -6 -63q0 -57 22.5 -81t62.5 -24q32 0 58 14.5t46.5 40t35.5 61t24 77.5l42 265h29l-76 -481q-17 -106 -67 -154t-125 -48q-53 0 -88.5 24.5t-49.5 84.5l28 13 q11 -54 40 -75t71 -21q61 0 104.5 42t58.5 141z" />
<glyph horiz-adv-x="445" d="M0 0zM320 120q-24 -62 -65.5 -93.5t-92.5 -31.5q-106 0 -106 125q0 29 6 62l47 296h29l-46 -290q-6 -36 -6 -63q0 -57 22.5 -81t62.5 -24q32 0 58 14.5t46.5 40t35.5 61t24 77.5l42 265h29l-76 -481q-17 -106 -67 -154t-125 -48q-53 0 -88.5 24.5t-49.5 84.5l28 13 q11 -54 40 -75t71 -21q61 0 104.5 42t58.5 141zM325 670h39l-1 -4l-92 -103h-24v3z" />
<glyph horiz-adv-x="445" d="M0 0zM320 120q-24 -62 -65.5 -93.5t-92.5 -31.5q-106 0 -106 125q0 29 6 62l47 296h29l-46 -290q-6 -36 -6 -63q0 -57 22.5 -81t62.5 -24q32 0 58 14.5t46.5 40t35.5 61t24 77.5l42 265h29l-76 -481q-17 -106 -67 -154t-125 -48q-53 0 -88.5 24.5t-49.5 84.5l28 13 q11 -54 40 -75t71 -21q61 0 104.5 42t58.5 141zM267 670h24l69 -105v-2h-28l-55 86l-83 -86h-31v2z" />
<glyph horiz-adv-x="446" d="M0 0zM196 605q0 34 31 34q11 0 17.5 -6.5t6.5 -18.5q0 -16 -8.5 -25t-22.5 -9q-24 0 -24 25zM303 605q0 34 31 34q24 0 24 -25q0 -34 -31 -34q-24 0 -24 25zM320 120q-24 -62 -65.5 -93.5t-92.5 -31.5q-106 0 -106 125q0 29 6 62l47 296h29l-46 -290q-6 -36 -6 -63 q0 -57 22.5 -81t62.5 -24q32 0 58 14.5t46.5 40t35.5 61t24 77.5l42 265h29l-76 -481q-17 -106 -67 -154t-125 -48q-53 0 -88.5 24.5t-49.5 84.5l28 13q11 -54 40 -75t71 -21q61 0 104.5 42t58.5 141z" />
<glyph horiz-adv-x="291" d="M257 446l19 -11q-19 -40 -47.5 -58t-65.5 -18q-94 0 -94 116q0 14 1.5 27.5t3.5 30.5q14 91 50 134t92 43q76 0 90 -76l-21 -8q-14 63 -70 63q-47 0 -75.5 -37.5t-41.5 -118.5q-3 -17 -4 -31.5t-1 -27.5q0 -49 18 -71t56 -22q30 0 52 14.5t38 50.5z" />
<glyph horiz-adv-x="321" d="M160 381q40 0 71 38.5t43 119.5q2 14 3 26.5t1 23.5q0 51 -18.5 75.5t-49.5 24.5q-45 0 -73 -40t-40 -115q-6 -32 -6 -57q0 -96 69 -96zM74 536q14 85 47.5 129.5t87.5 44.5q33 0 55.5 -21t24.5 -67l14 80h20l-52 -335h-21l11 85q-17 -48 -46 -70.5t-63 -22.5 q-42 0 -63 29.5t-21 86.5q0 26 6 61z" />
<glyph horiz-adv-x="451" d="M227 515h-21l34 185h31z" />
<glyph horiz-adv-x="155" d="M13 0l88 530h25l-80 -530h-33zM109 671q0 35 31 35q11 0 17.5 -7t6.5 -18q0 -16 -8 -25.5t-23 -9.5q-24 0 -24 25z" />
<glyph horiz-adv-x="384" d="M250 533l-20 -131h-14q-41 0 -75 -18.5t-58 -50.5t-37.5 -75.5t-13.5 -93.5q0 -69 32.5 -106.5t91.5 -37.5q24 0 47.5 6t45.5 20.5t41.5 39.5t35.5 64l25 -10q-35 -82 -86.5 -114.5t-109.5 -32.5q-74 0 -113 44.5t-39 124.5q0 58 15 105.5t42 81.5t64 53.5t81 21.5 l19 109h26zM233 674q0 35 31 35q24 0 24 -25q0 -16 -8 -25.5t-23 -9.5q-24 0 -24 25z" />
<glyph horiz-adv-x="277" d="M239 256l-5 -26h-199l4 26h200z" />
<glyph horiz-adv-x="513" d="M475 256l-4 -26h-436l4 26h436z" />
<glyph horiz-adv-x="529" d="M239 -10q-41 0 -73.5 13t-55.5 40.5t-35.5 70.5t-12.5 104q0 29 3.5 63.5t8.5 69.5q15 98 40.5 166.5t60 111t78.5 62t97 19.5q67 0 109.5 -34.5t53.5 -122.5l-29 -10q-5 41 -17 68t-29.5 43t-41 22.5t-50.5 6.5q-43 0 -80.5 -16.5t-68.5 -55.5t-54.5 -103t-38.5 -158 q-12 -77 -12 -132q0 -56 10.5 -94.5t29.5 -62.5t46.5 -34.5t62.5 -10.5q41 0 75.5 15t61.5 47.5t46.5 83.5t29.5 124h-159l4 25h189l-4 -28q-23 -153 -84 -223t-161 -70z" />
<glyph horiz-adv-x="452" d="M369 0l-224 343l1 3l315 354h36l-318 -355l225 -345h-35zM47 0l111 700h29l-111 -700h-29z" />
<glyph horiz-adv-x="373" d="M38 0l111 700h29l-111 -700h-29zM281 0l-166 233v3l229 242h34l-231 -241l168 -237h-34z" />
<glyph horiz-adv-x="602" d="M48 14zM467 111q-40 -48 -92 -72.5t-115 -24.5q-101 0 -156.5 67.5t-55.5 186.5q0 88 23.5 164t65 132t98.5 88t125 32q98 0 150 -61.5t52 -169.5q0 -53 -10 -99.5t-28.5 -81t-44.5 -54.5t-57 -20q-30 0 -44 21t-7 65q-19 -50 -48.5 -73.5t-65.5 -23.5q-34 0 -54 19.5 t-20 54.5q0 52 36 88t101 36h64q2 14 3 26t1 23q0 40 -17 56t-48 16t-51.5 -14t-38.5 -41l-16 11q37 64 110 64q41 0 62 -21t21 -68q0 -10 -1 -22t-3 -26l-15 -89q-2 -9 -2 -18v-16q0 -50 38 -50q25 0 46 18.5t36.5 50.5t24 75t8.5 93q0 101 -48 157.5t-136 56.5 q-63 0 -116 -31t-92 -85t-60.5 -126.5t-21.5 -154.5q0 -115 51 -177t143 -62q116 0 193 91zM205 263q0 -26 15 -41t42 -15q45 0 75.5 42t41.5 110l1 8h-61q-54 0 -84 -29.5t-30 -74.5z" />
<glyph horiz-adv-x="503" d="M320 710q75 0 114 -48.5t39 -161.5q0 -32 -3 -69t-10 -81q-15 -98 -38 -166.5t-54.5 -111.5t-71 -62.5t-86.5 -19.5q-74 0 -113 49.5t-39 162.5q0 32 3 68.5t10 79.5q15 98 38 166.5t54.5 111.5t70.5 62.5t86 19.5zM318 684q-39 0 -72 -17t-60 -56.5t-48.5 -103.5 t-36.5 -157q-7 -45 -10.5 -82t-3.5 -68q0 -101 33.5 -142.5t92.5 -41.5q39 0 72 17t60 56t48.5 103t36.5 158q7 44 10.5 81t3.5 69q0 100 -33 142t-93 42z" />
<glyph horiz-adv-x="221" d="M88 0h-30l103 654l-85 -82l-14 22l115 106h22z" />
<glyph horiz-adv-x="415" d="M-10 0l4 25l252 304q36 43 60.5 78t39.5 65.5t21.5 57t6.5 52.5q0 49 -27 75.5t-80 26.5q-51 0 -95.5 -29t-79.5 -105l-23 13q19 42 42 70t48.5 45.5t53.5 24.5t58 7q69 0 101.5 -35t32.5 -92q0 -25 -5.5 -51.5t-20.5 -58t-41.5 -70t-68.5 -88.5l-241 -289h321l-5 -26 h-354z" />
<glyph horiz-adv-x="437" d="M11 127l26 11q8 -65 42 -94t90 -29q43 0 77.5 15.5t57.5 44t35.5 67.5t12.5 87q0 27 -6 50t-20 40t-36 26.5t-54 9.5h-64l4 27h63q35 0 63 16t47 42.5t29 60.5t10 71q0 54 -26 83t-80 29q-57 0 -99.5 -28.5t-71.5 -93.5l-23 12q31 69 79 102.5t120 33.5q67 0 99.5 -36 t32.5 -99q0 -34 -8.5 -66.5t-24.5 -60t-39.5 -48t-53.5 -31.5q41 -11 65 -43.5t24 -94.5q0 -53 -15 -97.5t-42.5 -76.5t-67.5 -49.5t-90 -17.5q-63 0 -104 32.5t-52 104.5z" />
<glyph horiz-adv-x="470" d="M25 196l3 24l261 480h30l-260 -478h262l58 362h29l-57 -362h87l-4 -26h-87l-32 -196h-29l31 196h-292z" />
<glyph d="M171 674l-69 -301q30 30 67 45t85 15q63 0 100.5 -37.5t37.5 -120.5q0 -56 -14.5 -107.5t-42.5 -91t-69.5 -63t-95.5 -23.5q-67 0 -108 33t-52 103l27 11q8 -64 43 -93t92 -29q46 0 81.5 21t59.5 56.5t36.5 82t12.5 97.5q0 134 -119 134q-53 0 -90 -21t-69 -53l-19 8 l84 360h287l-4 -26h-261z" />
<glyph horiz-adv-x="474" d="M469 584l-25 -10q-10 60 -39 85t-77 25q-83 0 -141 -83t-87 -261q-4 -23 -6.5 -47.5t-4.5 -52.5q7 43 24 78.5t43 61.5t59 40.5t71 14.5q62 0 100 -43.5t38 -124.5q0 -59 -14 -109.5t-41 -88t-65.5 -58.5t-87.5 -21q-33 0 -61.5 12.5t-49.5 39t-33 68t-12 100.5 q0 29 3 61.5t8 69.5q14 97 39 166.5t58.5 114.5t74 66.5t85.5 21.5q60 0 95.5 -29t45.5 -97zM276 409q-42 0 -75.5 -21.5t-57 -55t-36.5 -75.5t-13 -84q0 -29 7 -57.5t21.5 -50.5t38 -35.5t56.5 -13.5q40 0 72.5 18t55.5 51t35.5 78t12.5 99q0 69 -30 108t-87 39z" />
<glyph horiz-adv-x="370" d="M79 0q15 93 45 191t71.5 188.5t91.5 167t106 127.5h-298l5 26h334l-4 -26q-54 -42 -104.5 -113.5t-92.5 -161.5t-74 -192.5t-49 -206.5h-31z" />
<glyph horiz-adv-x="469" d="M404 229q0 -54 -15.5 -98t-43.5 -75.5t-66.5 -48.5t-83.5 -17q-72 0 -111.5 42t-39.5 115q0 48 12 87.5t33 69t49.5 48.5t60.5 27q-36 13 -58 45t-22 83q0 41 12.5 78t36 64.5t58 44t78.5 16.5q63 0 98.5 -35t35.5 -98q0 -78 -36 -129.5t-93 -71.5q43 -12 69 -50t26 -97z M409 571q0 53 -27.5 83t-81.5 30q-37 0 -65.5 -14.5t-48 -38.5t-29.5 -56t-10 -68q0 -54 28.5 -85.5t79.5 -31.5q32 0 60 13t49 36.5t33 57t12 74.5zM375 227q0 61 -32.5 98.5t-93.5 37.5q-39 0 -71 -16.5t-55.5 -45t-36 -67t-12.5 -83.5q0 -61 31.5 -98t92.5 -37 q37 0 69.5 15t56.5 43t37.5 67t13.5 86z" />
<glyph horiz-adv-x="473" d="M224 290q44 0 78 21.5t57.5 56t36 76.5t12.5 84q0 29 -7 57t-22 50t-38 35.5t-56 13.5q-38 0 -70.5 -17.5t-56 -49.5t-36.5 -77.5t-13 -101.5q0 -69 30 -108.5t85 -39.5zM176 -10q-60 0 -95.5 29t-46.5 97l26 12q9 -61 38 -86.5t77 -25.5q82 0 141 83.5t87 260.5 q4 23 7 48t4 53q-6 -44 -23 -80t-43 -62t-59 -40.5t-71 -14.5q-63 0 -101 43.5t-38 124.5q0 60 14 110.5t40.5 88t65 58.5t88.5 21q33 0 61.5 -12.5t49.5 -38.5t32.5 -68t11.5 -100q0 -29 -3 -62t-8 -70q-15 -97 -39.5 -166.5t-57.5 -114.5t-73 -66.5t-85 -21.5z" />
<glyph horiz-adv-x="535" d="M320 610q68 0 106 -44.5t38 -146.5q0 -26 -2.5 -56t-7.5 -63q-13 -84 -34.5 -143t-50.5 -96t-65.5 -54t-79.5 -17q-69 0 -106 44t-37 145q0 26 2.5 56t8.5 65q13 84 34 143t49.5 96t65 54t79.5 17zM227 16q36 0 66.5 14.5t55 47.5t43.5 87.5t32 134.5q6 35 8.5 65t2.5 56 q0 91 -31.5 127t-86.5 36q-36 0 -66.5 -14.5t-55 -47.5t-43.5 -87.5t-32 -134.5q-5 -35 -8 -66.5t-3 -57.5q0 -44 8 -74.5t23 -49.5t37 -27.5t50 -8.5z" />
<glyph horiz-adv-x="535" d="M397 0h-344l4 26h157l83 527l-83 -79l-15 20l114 106h20l-91 -574h159z" />
<glyph horiz-adv-x="535" d="M57 0l4 22l234 254q67 73 98.5 124t32.5 95q0 89 -100 89q-45 0 -85 -25.5t-71 -94.5l-23 10q34 76 81.5 106t104.5 30q62 0 92 -29.5t30 -80.5q0 -25 -8 -50.5t-25 -54t-43 -61t-62 -71.5l-220 -237h303l-4 -26h-339z" />
<glyph horiz-adv-x="535" d="M54 27l26 11q8 -65 42 -94t90 -29q43 0 77.5 15.5t57.5 44t35.5 67.5t12.5 87q0 27 -6 50t-20 40t-36 26.5t-54 9.5h-64l4 27h63q35 0 63 16t47 42.5t29 60.5t10 71q0 54 -26 83t-80 29q-57 0 -99.5 -28.5t-71.5 -93.5l-23 12q31 69 79 102.5t120 33.5q67 0 99.5 -36 t32.5 -99q0 -34 -8.5 -66.5t-24.5 -60t-39.5 -48t-53.5 -31.5q41 -11 65 -43.5t24 -94.5q0 -53 -15 -97.5t-42.5 -76.5t-67.5 -49.5t-90 -17.5q-63 0 -104 32.5t-52 104.5z" />
<glyph horiz-adv-x="535" d="M48 96l3 24l261 480h30l-260 -478h262l58 362h29l-57 -362h87l-4 -26h-87l-32 -196h-29l31 196h-292z" />
<glyph horiz-adv-x="535" d="M212 574l-69 -301q30 30 67 45t85 15q63 0 100.5 -37.5t37.5 -120.5q0 -56 -14.5 -107.5t-42.5 -91t-69.5 -63t-95.5 -23.5q-67 0 -108 33t-52 103l27 11q8 -64 43 -93t92 -29q46 0 81.5 21t59.5 56.5t36.5 82t12.5 97.5q0 134 -119 134q-53 0 -90 -21t-69 -53l-19 8 l84 360h287l-4 -26h-261z" />
<glyph horiz-adv-x="535" d="M499 584l-25 -10q-10 60 -39 85t-77 25q-83 0 -141 -83t-87 -261q-4 -23 -6.5 -47.5t-4.5 -52.5q7 43 24 78.5t43 61.5t59 40.5t71 14.5q62 0 100 -43.5t38 -124.5q0 -59 -14 -109.5t-41 -88t-65.5 -58.5t-87.5 -21q-33 0 -61.5 12.5t-49.5 39t-33 68t-12 100.5 q0 29 3 61.5t8 69.5q14 97 39 166.5t58.5 114.5t74 66.5t85.5 21.5q60 0 95.5 -29t45.5 -97zM306 409q-42 0 -75.5 -21.5t-57 -55t-36.5 -75.5t-13 -84q0 -29 7 -57.5t21.5 -50.5t38 -35.5t56.5 -13.5q40 0 72.5 18t55.5 51t35.5 78t12.5 99q0 69 -30 108t-87 39z" />
<glyph horiz-adv-x="535" d="M146 -100q15 93 45 191t71.5 188.5t91.5 167t106 127.5h-298l5 26h334l-4 -26q-54 -42 -104.5 -113.5t-92.5 -161.5t-74 -192.5t-49 -206.5h-31z" />
<glyph horiz-adv-x="535" d="M434 229q0 -54 -15.5 -98t-43.5 -75.5t-66.5 -48.5t-83.5 -17q-72 0 -111.5 42t-39.5 115q0 48 12 87.5t33 69t49.5 48.5t60.5 27q-36 13 -58 45t-22 83q0 41 12.5 78t36 64.5t58 44t78.5 16.5q63 0 98.5 -35t35.5 -98q0 -78 -36 -129.5t-93 -71.5q43 -12 69 -50t26 -97z M439 571q0 53 -27.5 83t-81.5 30q-37 0 -65.5 -14.5t-48 -38.5t-29.5 -56t-10 -68q0 -54 28.5 -85.5t79.5 -31.5q32 0 60 13t49 36.5t33 57t12 74.5zM405 227q0 61 -32.5 98.5t-93.5 37.5q-39 0 -71 -16.5t-55.5 -45t-36 -67t-12.5 -83.5q0 -61 31.5 -98t92.5 -37 q37 0 69.5 15t56.5 43t37.5 67t13.5 86z" />
<glyph horiz-adv-x="535" d="M247 190q44 0 78 21.5t57.5 56t36 76.5t12.5 84q0 29 -7 57t-22 50t-38 35.5t-56 13.5q-38 0 -70.5 -17.5t-56 -49.5t-36.5 -77.5t-13 -101.5q0 -69 30 -108.5t85 -39.5zM199 -110q-60 0 -95.5 29t-46.5 97l26 12q9 -61 38 -86.5t77 -25.5q82 0 141 83.5t87 260.5 q4 23 7 48t4 53q-6 -44 -23 -80t-43 -62t-59 -40.5t-71 -14.5q-63 0 -101 43.5t-38 124.5q0 60 14 110.5t40.5 88t65 58.5t88.5 21q33 0 61.5 -12.5t49.5 -38.5t32.5 -68t11.5 -100q0 -29 -3 -62t-8 -70q-15 -97 -39.5 -166.5t-57.5 -114.5t-73 -66.5t-85 -21.5z" />
<glyph horiz-adv-x="472" d="M289 610q68 0 106 -44.5t38 -146.5q0 -26 -2.5 -56t-7.5 -63q-13 -84 -34.5 -143t-50.5 -96t-65.5 -54t-79.5 -17q-69 0 -106 44t-37 145q0 26 2.5 56t8.5 65q13 84 34 143t49.5 96t65 54t79.5 17zM196 16q36 0 66.5 14.5t55 47.5t43.5 87.5t32 134.5q6 35 8.5 65t2.5 56 q0 91 -31.5 127t-86.5 36q-36 0 -66.5 -14.5t-55 -47.5t-43.5 -87.5t-32 -134.5q-5 -35 -8 -66.5t-3 -57.5q0 -44 8 -74.5t23 -49.5t37 -27.5t50 -8.5z" />
<glyph horiz-adv-x="207" d="M86 0h-28l87 553l-83 -79l-15 20l114 106h20z" />
<glyph horiz-adv-x="400" d="M-3 0l4 22l229 254q65 72 95 123.5t31 95.5q0 89 -95 89q-43 0 -81.5 -26t-69.5 -94l-23 10q34 76 80 106t101 30q60 0 88.5 -29.5t28.5 -80.5q0 -25 -7.5 -50.5t-24 -54t-41.5 -61t-60 -71.5l-215 -237h293l-4 -26h-329z" />
<glyph horiz-adv-x="418" d="M-3 27l26 11q8 -65 39.5 -94t83.5 -29q42 0 75.5 15.5t56.5 44t35 67.5t12 87q0 54 -26 90t-87 36h-60l4 27h59q34 0 61.5 16t46 42.5t28.5 60.5t10 71q0 54 -26 83t-80 29t-92.5 -28.5t-67.5 -93.5l-23 12q30 69 75 102.5t113 33.5q67 0 99 -36t32 -99q0 -34 -8 -66.5 t-24 -60t-39 -48.5t-53 -31q40 -11 63.5 -43.5t23.5 -94.5q0 -53 -14 -97.5t-41 -76.5t-66 -49.5t-88 -17.5q-60 0 -99 32.5t-49 104.5z" />
<glyph horiz-adv-x="448" d="M11 96l3 23l250 481h29l-249 -479h250l57 363h29l-58 -363h85l-4 -25h-85l-31 -196h-28l31 196h-279z" />
<glyph horiz-adv-x="424" d="M156 574l-70 -301q30 30 64.5 45t79.5 15q62 0 97.5 -37.5t35.5 -120.5q0 -56 -14 -107.5t-41 -91t-67.5 -63t-93.5 -23.5q-65 0 -105 32t-51 104l27 11q8 -64 41.5 -93t88.5 -29q45 0 79.5 21t58 56.5t35.5 82t12 97.5q0 134 -114 134q-50 0 -84.5 -21t-64.5 -53l-19 8 l84 360h273l-3 -26h-249z" />
<glyph horiz-adv-x="446" d="M401 267q0 -60 -13.5 -110.5t-39 -87.5t-62.5 -58t-83 -21q-32 0 -59.5 12.5t-47.5 39t-31 68t-11 100.5q0 29 3 61.5t8 69.5q15 97 38.5 167t55 115t70 66t82.5 21q58 0 91.5 -30t43.5 -96l-25 -11q-10 60 -37 85.5t-74 25.5q-78 0 -133.5 -83t-83.5 -260 q-4 -25 -7 -48.5t-5 -52.5q7 43 23.5 78.5t41 61.5t56 40.5t67.5 14.5q61 0 96.5 -43.5t35.5 -124.5zM371 263q0 67 -27 106.5t-83 39.5q-40 0 -72 -21t-54.5 -54.5t-35 -76t-12.5 -84.5q0 -29 6.5 -57.5t21 -50.5t36.5 -35.5t53 -13.5q36 0 67 17.5t53 49.5t34.5 78 t12.5 102z" />
<glyph horiz-adv-x="350" d="M53 -100q14 88 41.5 184t66.5 186.5t88 170t105 133.5h-283l5 26h317l-4 -26q-51 -41 -99 -112t-88.5 -161t-71.5 -193t-48 -208h-29z" />
<glyph horiz-adv-x="438" d="M381 230q0 -54 -15.5 -98.5t-42.5 -76t-64 -48.5t-81 -17q-68 0 -106 41.5t-38 114.5q0 48 11.5 87.5t32 69t48 48.5t59.5 27q-35 13 -55.5 45.5t-20.5 82.5q0 42 12 79t34.5 64.5t56 44t75.5 16.5q60 0 94 -35t34 -98q0 -80 -37 -132t-91 -69q42 -11 68 -49t26 -97z M138 506q0 -54 26 -85t74 -31q31 0 57.5 13.5t46.5 37.5t31.5 57.5t11.5 74.5q0 52 -25.5 81.5t-75.5 29.5q-36 0 -63 -14t-45.5 -38.5t-28 -57t-9.5 -68.5zM64 150q0 -61 30 -97.5t87 -36.5q36 0 67 15.5t54 43t36 66.5t13 87q0 60 -30.5 97.5t-87.5 37.5q-38 0 -69 -16 t-53 -44.5t-34.5 -67.5t-12.5 -85z" />
<glyph horiz-adv-x="446" d="M253 584q-36 0 -67 -17t-53.5 -49.5t-35 -78t-12.5 -102.5q0 -67 28 -106.5t82 -39.5q40 0 72.5 21.5t55 55.5t35 76t12.5 84q0 29 -6.5 57t-21 50t-36.5 35.5t-53 13.5zM146 -110q-58 0 -91 30t-44 96l26 11q9 -60 36 -85.5t73 -25.5q36 0 69 18t61 59t50 106t37 160 q4 25 7 49t5 53q-7 -44 -23.5 -80t-41 -61.5t-55.5 -40t-67 -14.5q-60 0 -96.5 43t-36.5 125q0 59 14 110t40 88t63 58t84 21q32 0 59 -12t46.5 -38.5t30.5 -68t11 -99.5q0 -29 -3 -62t-8 -71q-15 -97 -38.5 -167t-55 -115t-70 -66t-82.5 -21z" />
<glyph horiz-adv-x="307" d="M0 0zM153 214q45 0 68.5 -28.5t23.5 -94.5q0 -19 -2 -40t-6 -47q-17 -114 -54 -162t-94 -48q-45 0 -68.5 29t-23.5 95q0 19 1.5 40t5.5 46q18 114 55 162t94 48zM151 193q-22 0 -40.5 -9.5t-34 -32t-27.5 -58.5t-20 -88q-4 -26 -5.5 -48t-1.5 -39q0 -57 18.5 -80 t50.5 -23q22 0 40.5 9.5t33.5 31.5t27 58.5t21 89.5q4 26 6 47t2 40q0 56 -18.5 79t-51.5 23z" />
<glyph horiz-adv-x="146" d="M0 0zM24 -200h-24l58 371l-50 -44l-8 19l71 63h18z" />
<glyph horiz-adv-x="255" d="M0 0zM-37 -200l3 19l145 175q40 49 56.5 81t16.5 61q0 56 -60 56q-29 0 -53.5 -16t-45.5 -58l-17 9q23 50 53.5 68.5t66.5 18.5q42 0 61.5 -20.5t19.5 -54.5q0 -15 -3.5 -31t-12.5 -34.5t-25 -41t-40 -51.5l-133 -160l181 1l-3 -22h-210z" />
<glyph horiz-adv-x="268" d="M0 0zM-29 -125l22 8q5 -35 23.5 -51.5t48.5 -16.5q49 0 75.5 33.5t26.5 85.5q0 31 -15 50.5t-51 19.5h-35l3 20h35q20 0 35.5 9t26.5 24t16.5 34t5.5 40q0 62 -59 62q-32 0 -55.5 -16t-39.5 -52l-20 8q35 81 119 81q41 0 60.5 -21.5t19.5 -58.5q0 -38 -19 -72t-54 -47 q23 -8 37 -26.5t14 -53.5q0 -63 -33.5 -102t-93.5 -39q-38 0 -62.5 18.5t-30.5 62.5z" />
<glyph horiz-adv-x="288" d="M0 0zM-21 -88l3 18l149 279h24l-149 -276h146l32 202h24l-32 -202h49l-3 -21h-49l-19 -112h-23l18 112h-170z" />
<glyph horiz-adv-x="272" d="M0 0zM75 187l-39 -168q18 17 39 26t48 9q38 0 59.5 -22.5t21.5 -70.5q0 -33 -8.5 -63.5t-25.5 -53.5t-41.5 -36.5t-56.5 -13.5q-41 0 -65.5 18.5t-30.5 60.5l22 11q5 -36 24 -52.5t51 -16.5q26 0 46 12t33.5 31.5t20.5 45.5t7 54q0 75 -67 75q-29 0 -50 -11.5t-39 -30.5 l-15 7l49 211h172l-3 -22h-152z" />
<glyph horiz-adv-x="289" d="M0 0zM242 141l-20 -9q-5 32 -21 46.5t-43 14.5q-47 0 -79.5 -47t-48.5 -147q-4 -24 -6 -53q8 48 38.5 78t73.5 30q36 0 58 -25t22 -73q0 -35 -8 -64.5t-23.5 -51t-38 -34t-51.5 -12.5q-42 0 -68.5 30.5t-26.5 99.5q0 17 1 35.5t5 39.5q17 112 57 163.5t95 51.5 q37 0 58 -17t26 -56zM126 34q-23 0 -41 -12t-31.5 -31t-20.5 -42.5t-7 -46.5q0 -17 4 -32.5t12.5 -27.5t21.5 -19.5t32 -7.5q45 0 70.5 38.5t25.5 98.5q0 39 -17 60.5t-49 21.5z" />
<glyph horiz-adv-x="230" d="M10 0zM10 -200q9 54 26.5 110.5t41.5 108.5t52.5 95.5t60.5 72.5l-172 -1l4 23h200l-4 -20q-32 -26 -61 -67.5t-53 -93.5t-41.5 -110.5t-26.5 -117.5h-27z" />
<glyph horiz-adv-x="286" d="M0 0zM205 -66q0 -63 -34.5 -101.5t-90.5 -38.5q-43 0 -66.5 24.5t-23.5 67.5q0 56 25.5 90.5t63.5 44.5q-21 8 -33.5 26.5t-12.5 47.5q0 24 7.5 46t21.5 38t34.5 25.5t47.5 9.5q38 0 59 -20.5t21 -57.5q0 -45 -20.5 -75t-52.5 -42q24 -8 39 -30t15 -55zM201 131 q0 29 -15 45.5t-45 16.5q-42 0 -63.5 -29t-21.5 -69q0 -30 15.5 -47.5t44.5 -17.5q35 0 60 27.5t25 73.5zM181 -68q0 34 -18 55t-51 21q-44 0 -71 -33.5t-27 -84.5q0 -34 17 -54.5t52 -20.5q42 0 70 32t28 85z" />
<glyph horiz-adv-x="289" d="M0 0zM96 -26q24 0 43 12t31.5 31t19.5 42.5t7 46.5q0 33 -16 60.5t-52 27.5q-43 0 -70 -38t-27 -101q0 -37 16.5 -59t47.5 -22zM66 -206q-36 0 -57 17t-29 56l21 10q6 -33 22 -47.5t43 -14.5q48 0 81 47t48 147q2 12 3 25.5t2 27.5q-8 -48 -38 -78.5t-73 -30.5 q-37 0 -59 25.5t-22 73.5q0 34 8 64t24 51.5t38.5 34t52.5 12.5q41 0 67 -30t26 -99q0 -34 -6 -77q-17 -111 -57 -162.5t-95 -51.5z" />
<glyph horiz-adv-x="236" d="M0 0zM69 -135h-21l17 103h-75l4 19h74l17 109h21l-18 -109h73l-3 -19h-73z" />
<glyph horiz-adv-x="236" d="M0 -12zM162 -12l-4 -21h-168l4 21h168z" />
<glyph horiz-adv-x="236" d="M0 0zM168 24l-4 -21h-168l4 21h168zM156 -43l-3 -21h-167l3 21h167z" />
<glyph horiz-adv-x="163" d="M0 0zM57 -225l-10 -19q-30 10 -47 42.5t-17 92.5q0 20 1.5 44t6.5 50q17 105 50 163t78 69l5 -20q-38 -11 -66 -63t-44 -149q-5 -26 -6.5 -49t-1.5 -43q0 -103 51 -118z" />
<glyph horiz-adv-x="163" d="M0 0zM26 197l10 20q30 -10 47 -43.5t17 -93.5q0 -20 -1.5 -44t-6.5 -50q-17 -105 -50 -162.5t-78 -68.5l-5 20q38 11 66 63t44 149q5 26 6.5 49t1.5 43q0 103 -51 118z" />
<glyph horiz-adv-x="183" d="M122 605q0 16 8 25.5t23 9.5q24 0 24 -25q0 -35 -31 -35q-24 0 -24 25zM115 478h29l-75 -478h-30z" />
<glyph horiz-adv-x="373" d="M38 0zM38 0l111 700h29l-111 -700h-29zM281 0l-166 233v3l229 242h34l-231 -241l168 -237h-34zM121 -221l-8 12q19 12 33 34.5t17 48.5q-13 -5 -23 1.5t-10 21.5q1 14 9 22.5t22 8.5q23 0 23 -29q0 -18 -5 -36t-13 -34t-19.5 -29.5t-25.5 -20.5z" />
<glyph horiz-adv-x="529" d="M62 0zM239 -10q-41 0 -73.5 13t-55.5 40.5t-35.5 70.5t-12.5 104q0 29 3.5 63.5t8.5 69.5q15 98 40.5 166.5t60 111t78.5 62t97 19.5q67 0 109.5 -34.5t53.5 -122.5l-29 -10q-5 41 -17 68t-29.5 43t-41 22.5t-50.5 6.5q-43 0 -80.5 -16.5t-68.5 -55.5t-54.5 -103 t-38.5 -158q-12 -77 -12 -132q0 -56 10.5 -94.5t29.5 -62.5t46.5 -34.5t62.5 -10.5q41 0 75.5 15t61.5 47.5t46.5 83.5t29.5 124h-159l4 25h189l-4 -28q-23 -153 -84 -223t-161 -70zM446 891h21q-8 -59 -35 -82t-70 -23t-63.5 23.5t-11.5 81.5h22q-7 -48 7 -65.5t47 -17.5 q35 0 55 17.5t28 65.5z" />
<glyph horiz-adv-x="529" d="M62 0zM239 -10q-41 0 -73.5 13t-55.5 40.5t-35.5 70.5t-12.5 104q0 29 3.5 63.5t8.5 69.5q15 98 40.5 166.5t60 111t78.5 62t97 19.5q67 0 109.5 -34.5t53.5 -122.5l-29 -10q-5 41 -17 68t-29.5 43t-41 22.5t-50.5 6.5q-43 0 -80.5 -16.5t-68.5 -55.5t-54.5 -103 t-38.5 -158q-12 -77 -12 -132q0 -56 10.5 -94.5t29.5 -62.5t46.5 -34.5t62.5 -10.5q41 0 75.5 15t61.5 47.5t46.5 83.5t29.5 124h-159l4 25h189l-4 -28q-23 -153 -84 -223t-161 -70zM366 892h24l69 -105v-2h-28l-55 86l-83 -86h-31v2z" />
<glyph horiz-adv-x="529" d="M62 0zM239 -10q-41 0 -73.5 13t-55.5 40.5t-35.5 70.5t-12.5 104q0 29 3.5 63.5t8.5 69.5q15 98 40.5 166.5t60 111t78.5 62t97 19.5q67 0 109.5 -34.5t53.5 -122.5l-29 -10q-5 41 -17 68t-29.5 43t-41 22.5t-50.5 6.5q-43 0 -80.5 -16.5t-68.5 -55.5t-54.5 -103 t-38.5 -158q-12 -77 -12 -132q0 -56 10.5 -94.5t29.5 -62.5t46.5 -34.5t62.5 -10.5q41 0 75.5 15t61.5 47.5t46.5 83.5t29.5 124h-159l4 25h189l-4 -28q-23 -153 -84 -223t-161 -70zM184 -221l-8 12q19 12 33 34.5t17 48.5q-13 -5 -23 1.5t-10 21.5q1 14 9 22.5t22 8.5 q23 0 23 -29q0 -18 -5 -36t-13 -34t-19.5 -29.5t-25.5 -20.5z" />
<glyph horiz-adv-x="529" d="M62 0zM239 -10q-41 0 -73.5 13t-55.5 40.5t-35.5 70.5t-12.5 104q0 29 3.5 63.5t8.5 69.5q15 98 40.5 166.5t60 111t78.5 62t97 19.5q67 0 109.5 -34.5t53.5 -122.5l-29 -10q-5 41 -17 68t-29.5 43t-41 22.5t-50.5 6.5q-43 0 -80.5 -16.5t-68.5 -55.5t-54.5 -103 t-38.5 -158q-12 -77 -12 -132q0 -56 10.5 -94.5t29.5 -62.5t46.5 -34.5t62.5 -10.5q41 0 75.5 15t61.5 47.5t46.5 83.5t29.5 124h-159l4 25h189l-4 -28q-23 -153 -84 -223t-161 -70zM342 827q0 34 31 34q23 0 23 -25q0 -34 -31 -34q-23 0 -23 25z" />
<glyph horiz-adv-x="452" d="M47 0zM369 0l-224 343l1 3l315 354h36l-318 -355l225 -345h-35zM47 0l111 700h29l-111 -700h-29zM170 -221l-8 12q19 12 33 34.5t17 48.5q-13 -5 -23 1.5t-10 21.5q1 14 9 22.5t22 8.5q23 0 23 -29q0 -18 -5 -36t-13 -34t-19.5 -29.5t-25.5 -20.5z" />
<glyph horiz-adv-x="301" d="M279 363l-4 -26h-223l4 26h223z" />
<glyph horiz-adv-x="435" d="M413 363l-4 -26h-357l4 26h357z" />
<glyph horiz-adv-x="582" d="M560 363l-5 -26h-503l4 26h504z" />
<glyph horiz-adv-x="435" d="M413 363l-4 -26h-357l4 26h357z" />
<glyph horiz-adv-x="183" d="M178 700l-111 -700h-29l111 700h29z" />
<glyph horiz-adv-x="429" d="M278 454h-119l-72 -454h-29l72 454h-71l4 24h71l16 95q11 74 43 104.5t74 30.5q14 0 30.5 -3.5t29.5 -14.5l-16 -24q-11 8 -22 11.5t-24 3.5q-35 0 -56.5 -25t-31.5 -88l-14 -90h120zM430 700l-111 -700h-29l111 700h29z" />
<glyph horiz-adv-x="429" d="M0 0z" />
</font>
</defs>
</svg>
