<?xml version="1.0" standalone="no"?>
<!DOCTYPE svg PUBLIC "-//W3C//DTD SVG 1.1//EN" "http://www.w3.org/Graphics/SVG/1.1/DTD/svg11.dtd" >
<svg xmlns="http://www.w3.org/2000/svg" xmlns:xlink="http://www.w3.org/1999/xlink" version="1.1">
<metadata></metadata>
<defs>
<font id="honeywell_sans_webXBdIt" horiz-adv-x="625" >
<font-face units-per-em="1000" ascent="774" descent="-226" />
<missing-glyph horiz-adv-x="230" />
<glyph unicode="fi" horiz-adv-x="678" d="M581 562q-79 0 -79 68q0 49 27.5 72t72.5 23q38 0 58.5 -16.5t20.5 -50.5q0 -50 -27 -73t-73 -23zM53 0l60 382h-78l18 115h79l6 38q16 102 72 148.5t140 46.5q27 0 59.5 -6t50.5 -21l-40 -103q-11 8 -24 11t-27 3q-33 0 -52.5 -18.5t-27.5 -63.5l-6 -35h128l-18 -115 h-128l-60 -382h-152zM491 497h156l-78 -497h-155z" />
<glyph unicode="fl" horiz-adv-x="683" d="M53 0l60 382h-78l18 115h79l6 38q16 102 72 148.5t140 46.5q27 0 59.5 -6t50.5 -21l-40 -103q-11 8 -24 11t-27 3q-33 0 -52.5 -18.5t-27.5 -63.5l-6 -35h128l-18 -115h-128l-60 -382h-152zM551 0q-69 0 -100.5 32t-19.5 109l88 559h155l-85 -538q-4 -24 3 -34.5 t32 -10.5h37l-18 -117h-92z" />
<glyph horiz-adv-x="176" />
<glyph horiz-adv-x="176" />
<glyph unicode="&#xd;" horiz-adv-x="176" />
<glyph unicode=" "  horiz-adv-x="230" />
<glyph unicode="&#x09;" horiz-adv-x="230" />
<glyph unicode="&#xa0;" horiz-adv-x="230" />
<glyph unicode="!" horiz-adv-x="253" d="M274 701l-99 -483h-111l53 483h157zM86 -7q-76 0 -76 68q0 48 26.5 72t70.5 24q76 0 76 -68q0 -48 -26 -72t-71 -24z" />
<glyph unicode="&#x22;" horiz-adv-x="371" d="M323 442h-101l36 272h129zM170 442h-101l23 272h128z" />
<glyph unicode="#" horiz-adv-x="798" d="M369 413l-55 -123h140l56 123h-141zM111 413l46 108h106l82 179h152l-81 -179h141l81 179h153l-82 -179h106l-46 -108h-106l-56 -123h110l-46 -108h-111l-81 -182h-153l81 182h-141l-81 -182h-152l81 182h-102l46 108h103l56 123h-106z" />
<glyph unicode="$" horiz-adv-x="616" d="M224 501q0 -50 66 -71l23 149q-47 -5 -68 -25.5t-21 -52.5zM338 270l-24 -150q94 11 94 81q0 23 -16 39.5t-54 29.5zM212 -62l11 68q-69 6 -123.5 35.5t-82.5 92.5l109 79q18 -42 45.5 -64t69.5 -28l26 169q-89 26 -134.5 71.5t-45.5 120.5q0 45 16 83t47 66.5t77 45.5 t105 20l11 69h73l-11 -72q66 -7 111.5 -35t68.5 -85l-111 -72q-17 32 -36.5 50t-50.5 24l-27 -167q55 -15 92 -33t59 -39.5t31 -48t9 -59.5q0 -102 -67 -159t-188 -64l-11 -68h-73z" />
<glyph unicode="%" horiz-adv-x="1060" d="M60 0zM851 420q84 0 122.5 -39t38.5 -118q0 -16 -1 -29.5t-3 -30.5q-15 -105 -65.5 -160t-148.5 -55q-83 0 -122 38.5t-39 117.5q0 14 1.5 28.5t3.5 30.5q15 111 66 164t147 53zM843 331q-35 0 -58 -28t-35 -99q-2 -16 -4 -30t-2 -25q0 -41 15 -56.5t43 -15.5 q35 0 58.5 27.5t35.5 98.5q2 17 4 31t2 25q0 40 -15.5 56t-43.5 16zM278 713q84 0 122.5 -39t38.5 -118q0 -16 -1 -29.5t-3 -30.5q-15 -105 -65.5 -160t-148.5 -55q-83 0 -122 38.5t-39 117.5q0 14 1.5 28.5t3.5 30.5q15 111 66 164t147 53zM270 624q-35 0 -58 -28t-35 -99 q-2 -16 -4 -30t-2 -25q0 -41 15 -56.5t43 -15.5q35 0 58.5 27.5t35.5 98.5q2 17 4 31t2 25q0 40 -15.5 56t-43.5 16zM828 700l-450 -700h-138l450 700h138z" />
<glyph unicode="&#x26;" horiz-adv-x="715" d="M584 483h126q-30 -207 -126 -332q20 -16 42.5 -32t47.5 -33l-85 -105q-9 6 -24.5 17t-31.5 22t-30 21.5t-21 16.5q-102 -72 -242 -72q-51 0 -93 9.5t-72.5 30.5t-47 53.5t-16.5 78.5q0 40 13 72.5t35 58.5t50.5 47.5t60.5 40.5q-23 44 -32.5 81t-9.5 69q0 87 61 137 t170 50q85 0 125 -33t40 -97q0 -37 -13 -69t-36.5 -60t-56 -53t-71.5 -48q25 -29 59.5 -62t82.5 -71q35 48 59 113.5t36 148.5zM253 526q0 -18 6 -41t22 -50q57 32 86.5 60.5t29.5 63.5q0 50 -59 50q-42 0 -63.5 -22.5t-21.5 -60.5zM260 95q33 0 64.5 10t60.5 30 q-51 44 -88.5 82.5t-66.5 73.5q-35 -22 -59 -48.5t-24 -65.5q0 -42 31 -62t82 -20z" />
<glyph unicode="'" horiz-adv-x="210" d="M170 442h-102l29 272h130z" />
<glyph unicode="(" horiz-adv-x="358" d="M260 -138q-118 10 -173 87t-55 221q0 29 2 59.5t7 64.5q29 204 114.5 312t235.5 120l-3 -127q-42 -5 -76.5 -23t-61 -53.5t-46 -91.5t-32.5 -137q-6 -37 -9 -67t-3 -56q0 -93 34 -134.5t97 -49.5z" />
<glyph unicode=")" horiz-adv-x="358" d="M100 726q118 -10 173 -87t55 -221q0 -29 -2 -59.5t-7 -64.5q-29 -204 -114.5 -312t-235.5 -120l3 127q42 5 76.5 23t61 53.5t46 91.5t32.5 137q12 73 12 123q0 93 -34 134.5t-97 49.5z" />
<glyph unicode="*" horiz-adv-x="445" d="M150 325l-79 74l84 88l-96 28l46 110l99 -35l13 124h125l-27 -124l111 35l11 -111l-104 -27l56 -88l-104 -74l-52 98z" />
<glyph unicode="+" horiz-adv-x="508" d="M274 110h-105l25 154h-149l15 93h149l24 156h106l-26 -156h149l-15 -93h-148z" />
<glyph unicode="," horiz-adv-x="252" d="M13 -152l-21 65q31 9 55 30t34 50q-32 2 -49 19t-17 48q0 48 26 71.5t70 23.5q36 0 56.5 -18.5t20.5 -60.5q0 -35 -11 -71t-32.5 -67t-54.5 -55t-77 -35z" />
<glyph unicode="-" horiz-adv-x="469" d="M428 328l-19 -123h-372l19 123h372z" />
<glyph unicode="." horiz-adv-x="252" d="M90 -7q-77 0 -77 68q0 44 24.5 70t72.5 26q77 0 77 -69q0 -47 -26.5 -71t-70.5 -24z" />
<glyph unicode="/" horiz-adv-x="548" d="M616 700l-483 -700h-171l483 700h171z" />
<glyph unicode="0" d="M40 350q25 189 106.5 276.5t221.5 87.5q121 0 181 -63.5t60 -199.5q0 -23 -1.5 -48t-5.5 -53q-26 -187 -110 -275.5t-221 -88.5q-119 0 -178.5 63t-59.5 197q0 23 1.5 49t5.5 55zM465 453q0 75 -27.5 105t-79.5 30q-32 0 -59 -12t-48.5 -40t-37.5 -73.5t-27 -112.5 q-5 -31 -7.5 -56.5t-2.5 -47.5q0 -75 27 -105t78 -30q33 0 60.5 12t49.5 40t38 73.5t27 113.5q9 61 9 103z" />
<glyph unicode="1" d="M60 134h161l60 383l-88 -53l-40 126l214 116h102l-91 -572h163l-22 -134h-480z" />
<glyph unicode="2" d="M8 0l17 119l257 207q32 26 58 49t44.5 45.5t28 45t9.5 48.5q0 37 -23.5 53t-65.5 16q-56 0 -93 -23t-71 -71l-91 76q55 81 124 115t163 34q49 0 89 -9t68.5 -29.5t44 -52t15.5 -76.5q0 -42 -12.5 -79t-37.5 -73t-62.5 -72.5t-86.5 -76.5l-141 -117l305 4l-21 -133h-518z " />
<glyph unicode="3" d="M257 -14q-91 0 -151 34t-91 108l118 71q20 -48 50.5 -69t80.5 -21q61 0 100.5 28.5t39.5 89.5q0 34 -24 51.5t-75 17.5h-80l18 118h79q50 0 81 27t31 77q0 35 -25 52.5t-72 17.5q-48 0 -79.5 -19t-62.5 -60l-97 68q50 74 116 105.5t156 31.5q107 0 163 -43t56 -121 q0 -29 -7.5 -57t-22 -53.5t-36 -46.5t-48.5 -35q76 -33 76 -123q0 -55 -20 -101t-58 -79t-92.5 -51t-123.5 -18z" />
<glyph unicode="4" d="M0 152l17 114l293 434h149l-278 -415h185l31 193h147l-31 -193h78l-21 -133h-78l-24 -152h-147l24 152h-345z" />
<glyph unicode="5" d="M259 573l-35 -147q27 14 60 20.5t68 6.5q93 0 149.5 -43.5t56.5 -134.5q0 -68 -21.5 -121.5t-61.5 -90.5t-97.5 -57t-130.5 -20q-85 0 -148.5 33.5t-95.5 100.5l115 77q38 -91 135 -91q69 0 110.5 39.5t41.5 106.5q0 45 -28.5 66t-78.5 21q-42 0 -75.5 -12.5t-61.5 -35.5 l-90 48l88 361h441l-19 -127h-322z" />
<glyph unicode="6" d="M289 -14q-120 0 -186 65t-66 205q0 30 3 61t8 61q28 165 115 250.5t224 85.5q89 0 149.5 -31t82.5 -91l-107 -80q-29 80 -123 80q-47 0 -80.5 -18.5t-56.5 -51t-37 -76.5t-22 -95l-3 -22q28 53 76.5 82t113.5 29q90 0 141 -46.5t51 -132.5q0 -56 -17.5 -106t-52.5 -87.5 t-88 -59.5t-125 -22zM325 326q-27 0 -51.5 -8.5t-42.5 -25t-29 -40t-11 -53.5q0 -42 26 -68t76 -26q59 0 93.5 37t34.5 97q0 40 -23 63.5t-73 23.5z" />
<glyph unicode="7" d="M123 0q13 85 41.5 165.5t68.5 153t90 135t107 111.5l-336 -4l21 139h504l-18 -115q-61 -50 -112 -114.5t-90 -139.5t-66 -159t-40 -172h-170z" />
<glyph unicode="8" d="M266 -14q-119 0 -181 44.5t-62 132.5q0 41 11.5 74.5t32 59t48.5 43.5t60 28q-36 18 -55 48t-19 78q0 55 19.5 96.5t55 69t86 41t112.5 13.5q107 0 163 -39.5t56 -122.5q0 -68 -32.5 -116t-90.5 -73q94 -35 94 -135q0 -117 -78 -179.5t-220 -62.5zM331 420q24 0 46 7 t38.5 20.5t26.5 33.5t10 46q0 35 -24 54t-69 19q-54 0 -87.5 -27.5t-33.5 -79.5q0 -35 24 -54t69 -19zM278 98q26 0 50.5 7.5t43.5 22t30.5 36.5t11.5 51q0 40 -28.5 60.5t-76.5 20.5q-60 0 -97.5 -30.5t-37.5 -85.5q0 -41 26.5 -61.5t77.5 -20.5z" />
<glyph unicode="9" d="M304 367q27 0 51.5 9t43 25.5t29.5 41t11 54.5q0 42 -26.5 67.5t-75.5 25.5q-60 0 -95 -36.5t-35 -96.5q0 -41 23.5 -65.5t73.5 -24.5zM340 714q120 0 186 -65.5t66 -205.5q0 -31 -2.5 -61.5t-7.5 -60.5q-29 -166 -116.5 -250.5t-225.5 -84.5q-89 0 -151 28t-88 84 l107 83q31 -73 132 -73q47 0 80.5 18t56.5 50.5t37 76.5t22 95l3 18q-28 -53 -77 -82.5t-112 -29.5q-91 0 -142.5 47t-51.5 135q0 57 17.5 107.5t52.5 88.5t88.5 60t125.5 22z" />
<glyph unicode=":" horiz-adv-x="252" d="M10 0zM87 -7q-77 0 -77 68q0 44 24.5 70t72.5 26q77 0 77 -69q0 -47 -26.5 -71t-70.5 -24zM145 333q-77 0 -77 68q0 44 24.5 70t72.5 26q77 0 77 -69q0 -47 -26.5 -71t-70.5 -24z" />
<glyph unicode=";" horiz-adv-x="252" d="M0 0zM13 -152l-21 65q31 9 55 30t34 50q-32 2 -49 19t-17 48q0 48 26 71.5t70 23.5q36 0 56.5 -18.5t20.5 -60.5q0 -35 -11 -71t-32.5 -67t-54.5 -55t-77 -35zM147 333q-77 0 -77 68q0 44 24.5 70t72.5 26q77 0 77 -69q0 -47 -26.5 -71t-70.5 -24z" />
<glyph unicode="&#x3c;" horiz-adv-x="500" d="M444 460l-237 -154l184 -150l-68 -79l-248 203l9 58l312 203z" />
<glyph unicode="=" horiz-adv-x="506" d="M472 430l-14 -93h-402l15 93h401zM449 281l-14 -93h-402l15 93h401z" />
<glyph unicode="&#x3e;" horiz-adv-x="500" d="M105 77l-46 81l235 154l-183 151l68 78l249 -203l-9 -58z" />
<glyph unicode="?" horiz-adv-x="500" d="M524 549q0 -113 -60.5 -174.5t-160.5 -73.5l-19 -83h-121l22 175h57q61 0 99.5 31t38.5 98q0 36 -25.5 57t-79.5 21q-45 0 -81 -19.5t-70 -73.5l-87 64q91 149 270 149q106 0 161.5 -42.5t55.5 -128.5zM188 -7q-76 0 -76 68q0 48 26 71.5t70 23.5q77 0 77 -68 q0 -47 -26.5 -71t-70.5 -24z" />
<glyph unicode="@" horiz-adv-x="798" d="M630 -5q-51 -48 -119 -74.5t-154 -26.5q-73 0 -129 20t-94.5 57t-58 89.5t-19.5 117.5q0 91 29 166.5t81.5 129.5t126 84t162.5 30q69 0 122.5 -18.5t90 -53t55 -83t18.5 -109.5q0 -57 -14 -103t-39.5 -78t-62.5 -49.5t-83 -17.5q-77 0 -90 57q-20 -29 -52.5 -46.5 t-74.5 -17.5q-47 0 -75 22t-28 64q0 61 46 94.5t121 33.5h67l1 13q2 29 -16.5 38.5t-47.5 9.5q-62 0 -100 -38l-33 60q57 60 158 60q31 0 57 -6t45 -19.5t29.5 -35.5t10.5 -53q0 -15 -3 -33l-13 -84q-1 -4 -2.5 -12.5t-1.5 -13.5q0 -36 39 -36q21 0 41 12t35 35.5t24 59 t9 82.5q0 55 -17 96t-47.5 68t-74 40t-96.5 13q-69 0 -131.5 -23t-110 -68t-75.5 -113t-28 -158q0 -59 18 -103t51 -72.5t79 -42.5t103 -14q71 0 132 21.5t108 65.5zM359 137q73 0 88 85l-59 1q-72 0 -72 -53q0 -33 43 -33z" />
<glyph unicode="A" horiz-adv-x="684" d="M387 541l-143 -306h192zM469 0l-17 110h-265l-52 -110h-160l343 700h193l121 -700h-163z" />
<glyph unicode="B" horiz-adv-x="700" d="M49 0l111 700h339q47 0 81 -11t55.5 -31t32 -47.5t10.5 -61.5q0 -63 -29.5 -111.5t-86.5 -74.5q45 -13 64.5 -48.5t19.5 -80.5q0 -116 -70.5 -175t-191.5 -59h-335zM450 578h-154l-26 -166h153q24 0 42 8.5t30 22.5t18 32.5t6 38.5q0 32 -18 48t-51 16zM413 292h-161 l-27 -172h155q51 0 80 27t29 80q0 30 -18 47.5t-58 17.5z" />
<glyph unicode="C" horiz-adv-x="689" d="M349 -14q-149 0 -220 65t-71 206q0 23 1 45.5t5 48.5q13 96 43.5 164.5t78.5 112.5t113 65t145 21q114 0 176 -45t84 -133l-137 -55q-18 57 -50.5 78t-86.5 21q-38 0 -70.5 -10.5t-58.5 -37t-45 -71t-30 -112.5q-4 -23 -5.5 -44t-1.5 -40q0 -83 38.5 -115.5t107.5 -32.5 q51 0 94 19.5t74 71.5l117 -77q-48 -80 -123.5 -112.5t-177.5 -32.5z" />
<glyph unicode="D" horiz-adv-x="749" d="M340 0h-291l111 700h288q139 0 205 -61t66 -191q0 -19 -1.5 -44t-4.5 -49q-51 -355 -373 -355zM231 132h112q38 0 71.5 11t60 36.5t46 67.5t29.5 104q3 17 4 37t1 37q0 75 -32.5 109t-96.5 34h-126z" />
<glyph unicode="E" horiz-adv-x="673" d="M49 0l111 700h527l-21 -129h-370l-24 -153h320l-20 -130h-320l-25 -159h379l-21 -129h-536z" />
<glyph unicode="F" horiz-adv-x="616" d="M49 0l111 700h514l-21 -132h-353l-25 -162h307l-23 -136h-306l-43 -270h-161z" />
<glyph unicode="G" horiz-adv-x="730" d="M320 -14q-126 0 -194 68t-68 209q0 40 6 88q25 190 119.5 276.5t261.5 86.5q109 0 170 -40.5t83 -119.5l-137 -58q-15 46 -45.5 65t-83.5 19q-40 0 -73.5 -11t-59.5 -38t-44.5 -71t-28.5 -110q-4 -24 -5.5 -45t-1.5 -39q0 -42 9.5 -71t28 -46.5t45 -25t60.5 -7.5 q25 0 51 6t48.5 22t40.5 43t27 69h-143l18 122h289l-61 -378h-114l4 86q-34 -48 -83.5 -74t-118.5 -26z" />
<glyph unicode="H" horiz-adv-x="799" d="M505 0l44 280h-295l-44 -280h-161l111 700h161l-44 -280h295l44 280h161l-111 -700h-161z" />
<glyph unicode="I" horiz-adv-x="343" d="M49 0l111 700h161l-111 -700h-161z" />
<glyph unicode="J" horiz-adv-x="537" d="M-29 48l81 118q22 -21 51.5 -32.5t60.5 -11.5q52 0 87.5 32.5t48.5 110.5l70 435h160l-69 -437q-12 -78 -40 -131t-67.5 -85.5t-90 -46.5t-108.5 -14q-51 0 -99 15t-85 47z" />
<glyph unicode="K" horiz-adv-x="712" d="M49 0l111 700h161l-52 -325l305 325h191l-304 -313l192 -387h-192l-129 269l-94 -93l-28 -176h-161z" />
<glyph unicode="L" horiz-adv-x="630" d="M231 136h356l-22 -136h-516l111 700h160z" />
<glyph unicode="M" horiz-adv-x="964" d="M384 0l-124 446l-64 -446h-146l111 700h169l136 -513l300 513h175l-111 -700h-151l79 446l-263 -446h-111z" />
<glyph unicode="N" horiz-adv-x="793" d="M518 0l-251 448l-66 -448h-152l111 700h127l261 -469l70 469h152l-111 -700h-141z" />
<glyph unicode="O" horiz-adv-x="772" d="M64 351q25 185 118.5 274t263.5 89q152 0 222 -66t70 -203q0 -22 -1.5 -45.5t-5.5 -49.5q-25 -186 -118.5 -275t-263.5 -89q-151 0 -221 67.5t-70 204.5q0 42 6 93zM574 433q0 81 -36.5 114t-105.5 33q-42 0 -76 -11.5t-59.5 -38.5t-43 -71t-27.5 -110q-4 -23 -6 -44 t-2 -39q0 -80 36.5 -113.5t104.5 -33.5q42 0 76 12t60 39t43.5 71.5t28.5 109.5q4 23 5.5 43.5t1.5 38.5z" />
<glyph unicode="P" horiz-adv-x="688" d="M49 0l111 700h322q106 0 157 -51.5t51 -141.5q0 -72 -22.5 -128.5t-62 -94.5t-95 -58t-121.5 -20h-146l-33 -206h-161zM441 562h-142l-35 -223h141q25 0 48 9t40 26.5t27 43.5t10 60q0 37 -20.5 60.5t-68.5 23.5z" />
<glyph unicode="Q" horiz-adv-x="772" d="M446 714q152 0 222 -66t70 -203q0 -22 -1.5 -45.5t-5.5 -49.5q-31 -229 -170 -313l58 -125h-143l-37 81q-21 -4 -43.5 -5.5t-46.5 -1.5q-151 0 -221 67.5t-70 204.5q0 42 6 93q25 185 118.5 274t263.5 89zM434 584q-42 0 -76 -12t-60 -39.5t-44 -72.5t-28 -112 q-4 -24 -5.5 -45t-1.5 -39q0 -82 35.5 -115t104.5 -33h12q6 0 11 1l-51 112h143l26 -58q24 28 40.5 71.5t26.5 107.5q4 24 6 45t2 39q0 83 -36 116.5t-105 33.5z" />
<glyph unicode="R" horiz-adv-x="698" d="M450 565h-152l-32 -204h150q49 0 83.5 32.5t34.5 95.5q0 35 -19.5 55.5t-64.5 20.5zM381 230h-136l-36 -230h-160l111 700h329q105 0 155.5 -50t50.5 -136q0 -97 -41.5 -161t-111.5 -94l82 -259h-176z" />
<glyph unicode="S" horiz-adv-x="621" d="M611 578l-120 -70q-21 39 -51 61.5t-84 22.5q-63 0 -93.5 -22t-30.5 -60q0 -27 20 -48.5t72 -35.5l54 -15q53 -15 89 -34t58.5 -43t32.5 -53t10 -62q0 -55 -21 -98.5t-60 -73.5t-95.5 -45.5t-127.5 -15.5q-43 0 -82 7.5t-72.5 24t-60.5 44t-45 66.5l121 73 q26 -57 60.5 -78t87.5 -21q69 0 105 23.5t36 67.5q0 31 -20.5 48t-70.5 31l-55 15q-50 13 -85 33.5t-56.5 46t-31.5 55.5t-10 62q0 51 18.5 93t54 72.5t88.5 47.5t122 17q84 0 147.5 -31t95.5 -105z" />
<glyph unicode="T" horiz-adv-x="609" d="M80 700h582l-22 -138h-211l-89 -562h-160l89 562h-211z" />
<glyph unicode="U" horiz-adv-x="757" d="M524 278l66 422h161l-66 -415q-25 -158 -111.5 -228.5t-228.5 -70.5q-131 0 -201.5 55t-70.5 172q0 17 2 34.5t5 37.5l66 415h160l-66 -422q-2 -11 -3 -21t-1 -21q0 -55 29 -85t92 -30q69 0 111 38t56 119z" />
<glyph unicode="V" horiz-adv-x="671" d="M72 700h163l81 -526l249 526h165l-346 -700h-189z" />
<glyph unicode="W" horiz-adv-x="950" d="M472 699h139l45 -471l193 472h159l-305 -700h-157l-42 467l-195 -467h-156l-82 700h164l39 -473z" />
<glyph unicode="X" horiz-adv-x="681" d="M445 0l-114 242l-188 -242h-178l292 356l-168 344h183l103 -238l176 238h177l-281 -344l181 -356h-183z" />
<glyph unicode="Y" horiz-adv-x="654" d="M241 261l-177 439h174l107 -298l200 298h172l-317 -443l-41 -257h-160z" />
<glyph unicode="Z" horiz-adv-x="602" d="M-20 0l17 102l428 469l-340 -3l22 132h535l-15 -101l-430 -470l363 3l-21 -132h-559z" />
<glyph unicode="[" horiz-adv-x="351" d="M-1 -148l138 866h260l-18 -113h-120l-102 -640h122l-18 -113h-262z" />
<glyph unicode="\" horiz-adv-x="561" d="M331 0l-270 700h168l270 -700h-168z" />
<glyph unicode="]" horiz-adv-x="351" d="M364 718l-138 -866h-260l18 113h120l102 640h-122l18 113h262z" />
<glyph unicode="^" horiz-adv-x="477" d="M27 369l199 331h143l93 -331v-3h-125l-57 220l-126 -220h-127v3z" />
<glyph unicode="_" horiz-adv-x="477" d="M439 0l-20 -123h-480l20 123h480z" />
<glyph unicode="`" horiz-adv-x="600" d="M255 571l-108 127l1 6h170l58 -128v-5h-121z" />
<glyph unicode="a" horiz-adv-x="569" d="M162 -13q-64 0 -103 32.5t-39 94.5q0 45 17.5 80t49 59.5t76 37.5t98.5 13h103q1 5 1 9v9q0 42 -24.5 56.5t-70.5 14.5t-83.5 -15t-64.5 -42l-52 88q42 45 101 65.5t135 20.5q46 0 85 -8.5t67.5 -28t44.5 -50.5t16 -76q0 -11 -1 -23t-3 -26l-47 -298h-130l1 72 q-30 -40 -74.5 -62.5t-102.5 -22.5zM224 86q48 0 82 31.5t43 88.5l1 7h-83q-48 0 -76.5 -18.5t-28.5 -56.5q0 -26 16.5 -39t45.5 -13z" />
<glyph unicode="b" horiz-adv-x="621" d="M293 700l-43 -269q32 41 74 60t92 19q80 0 124 -48t44 -145q0 -14 -1 -29.5t-3 -32.5q-8 -61 -29 -110.5t-53 -85t-75.5 -54.5t-97.5 -19q-57 0 -96.5 23t-59.5 66l-21 -75h-120l111 700h154zM219 245q-2 -13 -3 -23t-1 -21q0 -51 23.5 -75t63.5 -24q104 0 128 144 q2 14 3 25.5t1 22.5q0 52 -22 75t-63 23q-48 0 -83 -34.5t-47 -112.5z" />
<glyph unicode="c" horiz-adv-x="530" d="M392 167l97 -69q-39 -58 -97.5 -85t-136.5 -27q-103 0 -160 49t-57 154q0 14 1 28t3 30q19 136 92.5 199.5t192.5 63.5q160 0 200 -127l-116 -65q-11 35 -32 51.5t-62 16.5q-51 0 -82.5 -32t-44.5 -107q-2 -14 -3 -26t-1 -23q0 -48 21.5 -71t71.5 -23q37 0 65 14.5 t48 48.5z" />
<glyph unicode="d" horiz-adv-x="627" d="M402 248q2 13 3 24.5t1 21.5q0 54 -24.5 76.5t-64.5 22.5q-50 0 -81 -34t-45 -112q-2 -16 -3 -26t-1 -21q0 -96 84 -96q47 0 83.5 35t47.5 109zM514 0h-130l3 74q-30 -43 -73.5 -65.5t-100.5 -22.5q-82 0 -128.5 49.5t-46.5 147.5q0 14 1 29t3 31q17 133 84.5 200 t165.5 67q97 0 137 -69l42 259h154z" />
<glyph unicode="e" horiz-adv-x="557" d="M256 -14q-101 0 -159.5 50.5t-58.5 154.5q0 14 1 27t3 29q17 125 90.5 194t196.5 69q51 0 88.5 -15t61.5 -41.5t35.5 -63t11.5 -79.5q0 -48 -14 -106h-331q-4 -54 20.5 -82.5t78.5 -28.5q42 0 71.5 13t52.5 45l86 -60q-40 -53 -94 -79.5t-140 -26.5zM313 400 q-44 0 -74 -24.5t-44 -79.5h191q1 6 1 11v11q0 42 -17.5 62t-56.5 20z" />
<glyph unicode="f" horiz-adv-x="385" d="M53 0l60 382h-78l18 115h79l6 38q16 102 72 148.5t140 46.5q29 0 61.5 -6t51.5 -21l-40 -103q-22 14 -54 14q-33 0 -52.5 -18.5t-27.5 -63.5l-6 -35h128l-18 -115h-128l-60 -382h-152z" />
<glyph unicode="g" horiz-adv-x="619" d="M399 257q2 10 3 20.5t1 19.5q0 50 -24.5 73.5t-64.5 23.5q-103 0 -124 -136q-2 -12 -3 -22.5t-1 -21.5q0 -48 21.5 -70.5t62.5 -22.5q48 0 81.5 33t47.5 103zM589 497l-75 -477q-10 -62 -37 -107.5t-67 -75t-91.5 -44t-110.5 -14.5q-73 0 -130 24.5t-80 84.5l96 77 q17 -40 48 -56.5t73 -16.5q60 0 96.5 30t47.5 96l10 62q-57 -74 -157 -74q-81 0 -127.5 48t-46.5 145q0 14 1 27.5t3 29.5q17 128 82.5 191t162.5 63q57 0 96 -22t58 -67l24 76h124z" />
<glyph unicode="h" horiz-adv-x="633" d="M293 700l-46 -291q33 50 81 75.5t102 25.5q72 0 112.5 -38.5t40.5 -111.5q0 -12 -1.5 -24t-3.5 -25l-49 -311h-154l41 261q2 11 3 21.5t1 19.5q0 38 -18.5 54.5t-53.5 16.5q-45 0 -81 -33.5t-47 -100.5l-38 -239h-154l111 700h154z" />
<glyph unicode="i" horiz-adv-x="293" d="M196 562q-80 0 -80 68q0 49 28 72t73 23q79 0 79 -67q0 -50 -27.5 -73t-72.5 -23zM107 497h155l-79 -497h-154z" />
<glyph unicode="j" horiz-adv-x="292" d="M196 562q-80 0 -80 68q0 49 28 72t73 23q38 0 58.5 -16.5t20.5 -50.5q0 -50 -27 -73t-73 -23zM24 -20l83 517h154l-83 -526q-15 -98 -73 -145t-141 -47q-26 0 -52.5 5t-50.5 17l38 105q11 -5 22.5 -8t26.5 -3q32 0 50.5 18.5t25.5 66.5z" />
<glyph unicode="k" horiz-adv-x="573" d="M294 701l-74 -434l216 230h168l-217 -220l142 -277h-170l-87 178l-75 -72l-16 -106h-153l111 701h155z" />
<glyph unicode="l" horiz-adv-x="299" d="M165 0q-69 0 -100.5 32t-19.5 109l88 559h155l-85 -538q-4 -24 3 -34.5t32 -10.5h37l-18 -117h-92z" />
<glyph unicode="m" horiz-adv-x="933" d="M28 0l78 497h127v-86q33 49 80.5 74t100.5 25q61 0 93.5 -31t40.5 -82q33 56 82.5 84.5t107.5 28.5q76 0 111 -41t35 -110q0 -12 -1.5 -26.5t-3.5 -26.5l-48 -306h-155l43 266q3 22 3 41q0 66 -62 66q-41 0 -73 -32.5t-42 -94.5l-39 -246h-154l42 266q3 22 3 41 q0 66 -61 66q-41 0 -73 -32.5t-43 -95.5l-38 -245h-154z" />
<glyph unicode="n" horiz-adv-x="633" d="M28 0l78 497h127v-89q35 51 85 76.5t107 25.5q82 0 120 -41.5t38 -110.5q0 -12 -1.5 -24t-3.5 -24l-49 -310h-154l42 262q3 22 3 40q0 38 -18.5 54.5t-53.5 16.5q-46 0 -81.5 -33t-45.5 -96l-39 -244h-154z" />
<glyph unicode="o" horiz-adv-x="596" d="M42 249q17 134 93.5 197.5t195.5 63.5q115 0 171 -48.5t56 -151.5q0 -14 -1.5 -29t-3.5 -32q-17 -132 -90.5 -197.5t-199.5 -65.5q-225 0 -225 203q0 14 1 28.5t3 31.5zM406 248q2 14 3.5 27t1.5 24q0 50 -22.5 71.5t-69.5 21.5q-58 0 -88.5 -33t-42.5 -111 q-2 -15 -3 -28t-1 -24q0 -51 22 -72.5t68 -21.5q56 0 87.5 34t44.5 112z" />
<glyph unicode="p" horiz-adv-x="624" d="M220 245q-2 -12 -2.5 -22.5t-0.5 -20.5q0 -51 23.5 -75.5t62.5 -24.5q104 0 128 144q2 14 3 26.5t1 23.5q0 51 -22 73.5t-62 22.5q-47 0 -83 -34.5t-48 -112.5zM-1 -186l108 683h129l-1 -83q33 48 80 72t101 24q83 0 126 -49t43 -144q0 -14 -1.5 -29.5t-3.5 -32.5 q-8 -61 -28.5 -110.5t-52.5 -85t-76 -54.5t-99 -19q-93 0 -134 64l-38 -236h-153z" />
<glyph unicode="q" horiz-adv-x="622" d="M484 -186h-153l37 240q-28 -32 -67 -50t-87 -18q-83 0 -129.5 49.5t-46.5 146.5q0 15 1 29.5t3 31.5q17 134 85 200.5t166 66.5q55 0 93.5 -22.5t55.5 -67.5l25 77h126zM402 248q2 13 2.5 24t0.5 21q0 54 -24 77t-64 23q-51 0 -82.5 -34t-43.5 -112q-2 -13 -3 -25t-1 -23 q0 -95 84 -95q48 0 83.5 34.5t47.5 109.5z" />
<glyph unicode="r" horiz-adv-x="404" d="M28 0l78 497h128v-98q34 55 83.5 84t107.5 27l-23 -150q-80 7 -127.5 -38t-61.5 -125l-31 -197h-154z" />
<glyph unicode="s" horiz-adv-x="505" d="M218 89q85 0 85 46q0 15 -12 24.5t-47 18.5l-38 10q-71 19 -107 55t-36 99q0 35 14 66t41.5 53.5t69 35.5t96.5 13q73 0 119.5 -23t76.5 -65l-88 -79q-23 31 -52 44.5t-62 13.5q-40 0 -58.5 -12t-18.5 -32q0 -18 13.5 -27t39.5 -17l58 -16q63 -17 97 -52t34 -89 q0 -32 -12 -62.5t-39 -54.5t-71 -38.5t-107 -14.5q-77 0 -131 26t-83 79l88 67q20 -35 53 -52t77 -17z" />
<glyph unicode="t" horiz-adv-x="402" d="M409 497l-18 -115h-131l-31 -196q-7 -45 8.5 -64t49.5 -19q31 0 60 13l7 -101q-57 -28 -119 -28q-35 0 -65 7t-52 23.5t-34 43t-12 65.5q0 27 5 55l32 201h-74l18 115h75l22 141h150l-22 -141h131z" />
<glyph unicode="u" horiz-adv-x="630" d="M213 -14q-86 0 -125 42.5t-39 110.5q0 11 0.5 21t2.5 21l50 316h154l-43 -268q-3 -23 -3 -40q0 -74 72 -74q45 0 78.5 33t45.5 99l39 250h154l-79 -497h-127l1 79q-33 -46 -80 -69.5t-101 -23.5z" />
<glyph unicode="v" horiz-adv-x="552" d="M42 497h158l58 -345l162 345h162l-267 -497h-161z" />
<glyph unicode="w" horiz-adv-x="776" d="M363 495h123l44 -317l132 319h142l-230 -497h-139l-37 322l-139 -322h-139l-76 497h143l34 -320z" />
<glyph unicode="x" horiz-adv-x="545" d="M51 497h162l72 -156l122 156h163l-211 -250l140 -247h-162l-81 159l-130 -159h-162l220 251z" />
<glyph unicode="y" horiz-adv-x="558" d="M138 -41l20 39l-114 499h157l61 -348l162 348h162l-320 -589q-40 -73 -94.5 -100.5t-123.5 -27.5q-32 0 -55 4.5t-45 14.5l30 113q18 -8 34 -12t34 -4q26 0 49.5 13t42.5 50z" />
<glyph unicode="z" horiz-adv-x="503" d="M-5 0l14 92l295 289h-245l19 116h422l-15 -96l-292 -286h256l-19 -115h-435z" />
<glyph unicode="{" horiz-adv-x="373" d="M270 -138q-81 4 -129.5 38t-48.5 100q0 22 4 43.5t9.5 42.5t9.5 41t4 40q0 38 -22.5 54.5t-68.5 16.5h-22l16 113h28q57 0 84 24t35 71q5 29 5 59t5 62q12 78 69.5 116.5t149.5 43.5l2 -123q-42 -3 -67 -23t-32 -60q-4 -25 -4.5 -55t-4.5 -54q-15 -82 -102 -118 q65 -32 65 -95q0 -20 -4.5 -38.5t-9.5 -37.5t-9.5 -37.5t-4.5 -36.5q0 -34 20.5 -48t55.5 -16z" />
<glyph unicode="|" horiz-adv-x="309" d="M34 -65l131 831h140l-131 -831h-140z" />
<glyph unicode="}" horiz-adv-x="373" d="M104 728q81 -4 129.5 -38t48.5 -100q0 -22 -4 -43.5t-9.5 -42.5t-9.5 -41t-4 -40q0 -38 22.5 -54.5t68.5 -16.5h22l-16 -113h-28q-57 0 -84 -24t-35 -71q-5 -29 -5 -59t-5 -62q-12 -78 -69.5 -116.5t-149.5 -43.5l-2 123q42 3 67 23t32 60q4 25 4.5 55t4.5 54 q15 82 102 118q-65 32 -65 95q0 19 4.5 38t9.5 38t9.5 37.5t4.5 36.5q0 34 -20.5 48t-55.5 16z" />
<glyph unicode="~" horiz-adv-x="554" d="M429 425l109 -18q-13 -78 -57 -118t-107 -40q-30 0 -54.5 8.5t-47 19t-43 19.5t-41.5 9q-45 0 -54 -55l-109 18q14 79 57.5 118.5t106.5 39.5q29 0 54 -9t47.5 -19.5t43 -19t41.5 -8.5q44 0 54 55z" />
<glyph unicode="&#xa1;" horiz-adv-x="253" d="M-10 -194l99 483h111l-53 -483h-157zM178 514q76 0 76 -68q0 -48 -26.5 -72t-70.5 -24q-76 0 -76 68q0 48 26 72t71 24z" />
<glyph unicode="&#xa2;" horiz-adv-x="539" d="M206 -62l10 70q-81 8 -124.5 54.5t-43.5 134.5q0 31 3 60q7 62 28.5 108t53.5 77t73.5 47.5t89.5 19.5l11 70h78l-12 -73q63 -8 98.5 -40t52.5 -80l-106 -62q-8 26 -22.5 43t-40.5 24l-42 -270q50 7 82 55l86 -66q-33 -50 -80 -73.5t-106 -28.5l-11 -70h-78zM180 211 q0 -38 13 -59t42 -29l42 267q-35 -8 -61 -42t-34 -96q-1 -10 -1.5 -20t-0.5 -21z" />
<glyph unicode="&#xa3;" horiz-adv-x="601" d="M557 75q-22 -23 -46.5 -38t-51 -23t-56 -11t-62.5 -3h-362l21 127h30q27 0 39.5 24.5t17.5 69.5l8 67h-71l16 101h68l13 101q7 60 30.5 102.5t58 69.5t77.5 39.5t89 12.5q97 0 150.5 -37.5t80.5 -116.5l-118 -63q-13 38 -38.5 61.5t-70.5 23.5q-51 0 -75.5 -28.5 t-31.5 -82.5l-10 -82h156l-16 -101h-151l-8 -65q-8 -61 -29 -96h148q37 0 73 12.5t63 38.5z" />
<glyph unicode="&#xa5;" horiz-adv-x="677" d="M595 290l-14 -81h-174l-33 -209h-162l33 209h-174l13 81h158l-19 46h-131l12 81h88l-114 283h173l107 -300l202 300h171l-203 -283h87l-13 -81h-132l-33 -46h158z" />
<glyph unicode="&#xa6;" horiz-adv-x="309" d="M106 383l60 383h140l-60 -383h-140zM36 -65l60 383h139l-60 -383h-139z" />
<glyph unicode="&#xa7;" horiz-adv-x="519" d="M233 287l14 -4q39 -11 67 4t28 49q0 41 -61 56l-17 4q-37 9 -63 -6t-26 -48q0 -18 12.5 -31.5t45.5 -23.5zM196 -32q-69 0 -117.5 20t-73.5 67l87 72q17 -29 43 -44t71 -15t65.5 14.5t20.5 39.5q0 20 -15.5 31t-50.5 20l-31 9q-75 20 -107.5 58.5t-32.5 86.5q0 19 4.5 38 t14.5 36t27 31.5t41 23.5q-42 35 -42 94q0 33 13 62.5t40 52t67.5 36t95.5 13.5q63 0 103 -18.5t66 -56.5l-84 -76q-18 23 -40 35.5t-57 12.5q-38 0 -57.5 -13.5t-19.5 -36.5q0 -17 11.5 -31.5t45.5 -23.5l45 -12q70 -20 104 -53.5t34 -86.5q0 -38 -19 -73t-67 -55 q43 -33 43 -91q0 -30 -11.5 -60t-38 -54t-70.5 -38.5t-108 -14.5z" />
<glyph unicode="&#xa8;" horiz-adv-x="600" d="M401 570q-72 0 -72 61q0 45 25 66.5t66 21.5q73 0 73 -61q0 -45 -25 -66.5t-67 -21.5zM193 570q-72 0 -72 61q0 46 25 67t66 21q72 0 72 -60q0 -46 -24.5 -67.5t-66.5 -21.5z" />
<glyph unicode="&#xa9;" horiz-adv-x="809" d="M75 352q11 78 43.5 142t82.5 109.5t117.5 70.5t149.5 25q72 0 128 -20t94.5 -57t58 -89t19.5 -116q0 -17 -1.5 -32.5t-3.5 -32.5q-12 -78 -44.5 -142t-83 -109.5t-118 -70.5t-148.5 -25q-72 0 -128 20t-94 56.5t-57.5 88t-19.5 115.5q0 17 1.5 33.5t3.5 33.5zM128 352 q-6 -36 -6 -67q0 -58 18 -101t50.5 -71.5t78.5 -43t102 -14.5q64 0 120 18.5t100 55.5t74.5 92.5t42.5 130.5q6 36 6 67q0 58 -18 101t-50.5 71.5t-78.5 43t-102 14.5q-64 0 -120 -18.5t-100.5 -55.5t-74.5 -92.5t-42 -130.5zM399 165q-78 0 -120 35.5t-42 112.5q0 23 3 43 q13 101 67 147.5t146 46.5q113 0 145 -80l-85 -57q-9 26 -25.5 37t-42.5 11q-42 0 -66 -24t-34 -82q-2 -10 -2.5 -17.5t-0.5 -16.5q0 -37 18 -53t53 -16q28 0 49.5 12t35.5 38l74 -45q-29 -48 -72.5 -70t-100.5 -22z" />
<glyph unicode="&#xaa;" horiz-adv-x="406" d="M193 412q33 0 55.5 22.5t28.5 60.5l1 8h-57q-33 0 -52 -14t-19 -41q0 -36 43 -36zM145 340q-46 0 -73.5 23t-27.5 66q0 63 47 98t125 35h72q0 5 0.5 8.5t0.5 6.5q0 29 -17.5 40t-49.5 11t-58.5 -11.5t-46.5 -31.5l-38 67q59 62 171 62q32 0 60 -6t48.5 -20t32 -36.5 t11.5 -55.5q0 -14 -3 -35l-34 -210h-95l1 49q-21 -28 -52.5 -44t-73.5 -16z" />
<glyph unicode="&#xab;" horiz-adv-x="669" d="M445 0l-162 249v3l229 245h158l-237 -248l162 -249h-150zM201 0l-156 246l1 3l228 248h154l-231 -251l158 -246h-154z" />
<glyph unicode="&#xad;" horiz-adv-x="408" d="M364 328l-20 -123h-307l20 123h307z" />
<glyph unicode="&#xae;" horiz-adv-x="464" d="M83 522q13 88 69.5 140t149.5 52q81 0 123.5 -41.5t42.5 -112.5q0 -9 -0.5 -20t-2.5 -21q-15 -88 -71 -138t-148 -50q-81 0 -123.5 41.5t-42.5 112.5q0 19 3 37zM119 522q-2 -9 -3 -18t-1 -18q0 -63 37 -94t97 -31q68 0 117.5 40.5t62.5 120.5q3 21 3 37q0 62 -36 93 t-96 31q-69 0 -118.5 -40t-62.5 -121zM182 432l29 188h90q30 0 44.5 -14.5t14.5 -39.5q0 -29 -11.5 -45.5t-28.5 -26.5l4 -12q3 -9 6.5 -19t7 -19t5.5 -12h-54l-16 53h-34l-8 -53h-49zM285 579h-31l-8 -51h28q17 0 27 6.5t10 23.5q0 21 -26 21z" />
<glyph unicode="&#xaf;" horiz-adv-x="600" d="M445 677l-15 -87h-283l13 87h285z" />
<glyph unicode="&#xb0;" horiz-adv-x="461" d="M456 567q0 -48 -15 -88.5t-42.5 -69t-65.5 -44.5t-84 -16q-78 0 -118 40.5t-40 108.5q0 48 15 87.5t42.5 68t65.5 44.5t85 16q77 0 117 -40t40 -107zM184 508q0 -36 20 -54.5t55 -18.5q20 0 39 7.5t33.5 22.5t23 37.5t8.5 52.5q0 37 -20.5 55.5t-53.5 18.5 q-21 0 -40 -7.5t-33.5 -23t-23 -38t-8.5 -52.5z" />
<glyph unicode="&#xb1;" horiz-adv-x="509" d="M290 147h-106l22 135h-148l14 93h149l21 138h105l-22 -138h149l-15 -93h-148zM428 93l-13 -93h-402l14 93h401z" />
<glyph unicode="&#xb2;" horiz-adv-x="384" d="M29 294zM29 294l12 79l156 121q32 26 52.5 46.5t20.5 46.5q0 19 -14 27t-37 8q-28 0 -47 -12.5t-39 -38.5l-65 54q34 50 77.5 69.5t97.5 19.5q31 0 57.5 -5.5t46 -17.5t30.5 -31.5t11 -47.5q0 -51 -31 -91t-87 -83l-66 -51l163 1l-14 -94h-324z" />
<glyph unicode="&#xb3;" horiz-adv-x="384" d="M37 282zM192 282q-117 0 -155 90l87 46q12 -25 28.5 -36.5t44.5 -11.5q29 0 48.5 13t19.5 39q0 19 -12.5 27t-42.5 8h-43l13 81h42q27 0 43.5 13.5t16.5 36.5q0 36 -51 36q-24 0 -41 -9.5t-34 -33.5l-70 53q28 40 67.5 60t99.5 20q74 0 109 -26t35 -76q0 -39 -19 -67 t-51 -46q21 -9 33.5 -26.5t12.5 -48.5t-13 -57t-36.5 -45t-57 -29.5t-74.5 -10.5z" />
<glyph unicode="&#xb4;" horiz-adv-x="600" d="M298 704h166l-1 -6l-145 -127h-122v5z" />
<glyph unicode="&#xb6;" horiz-adv-x="681" d="M518 570h-58l-38 -240h59zM206 427q0 -45 24 -70t63 -25h8l36 236h-9q-28 0 -50.5 -11t-38.5 -30t-24.5 -44.5t-8.5 -55.5zM402 206l-32 -206h-121l32 207q-100 6 -157 58t-57 145q0 66 20.5 119.5t57.5 91.5t88.5 58.5t113.5 20.5h315l-111 -700h-123l32 206h-58z" />
<glyph unicode="&#xb7;" horiz-adv-x="256" d="M46 257zM123 257q-77 0 -77 68q0 44 24.5 70t72.5 26q77 0 77 -69q0 -47 -26.5 -71t-70.5 -24z" />
<glyph unicode="&#xb8;" horiz-adv-x="600" d="M295 -103l-21 13l43 90h81l-30 -52q35 -4 61 -25.5t26 -61.5q0 -28 -12 -49t-32 -35t-48 -21t-59 -7q-45 0 -79.5 17.5t-51.5 53.5l62 53q11 -23 28 -35.5t47 -12.5q21 0 36.5 9.5t15.5 29.5q0 11 -6 18t-15.5 10.5t-21.5 4.5t-24 0z" />
<glyph unicode="&#xb9;" horiz-adv-x="263" d="M62 294zM204 294h-112l45 283l-49 -27l-26 87l135 70h73z" />
<glyph unicode="&#xba;" horiz-adv-x="422" d="M60 527q11 94 65 140.5t142 46.5q162 0 162 -146q0 -12 -0.5 -21t-2.5 -20q-12 -94 -65.5 -140t-142.5 -46q-161 0 -161 145q0 20 3 41zM317 527q3 18 3 34q0 67 -62 67q-75 0 -91 -101q-2 -10 -2 -19v-16q0 -66 61 -66q39 0 61 24t30 77z" />
<glyph unicode="&#xbb;" horiz-adv-x="669" d="M227 497l162 -249v-3l-229 -245h-158l237 248l-162 249h150zM471 497l156 -246l-1 -3l-228 -248h-154l231 251l-158 246h154z" />
<glyph unicode="&#xbc;" horiz-adv-x="894" d="M62 0zM204 293h-112l45 283l-49 -27l-26 87l135 70h73zM688 700l-450 -700h-138l450 700h138zM468 81l12 76l159 252h110l-152 -235h107l22 133h104l-21 -133h48l-14 -93h-49l-13 -81h-105l13 81h-221z" />
<glyph unicode="&#xbd;" horiz-adv-x="898" d="M62 0zM498 0l12 79l156 121q32 26 52.5 46.5t20.5 46.5q0 19 -14 27t-37 8q-28 0 -47 -12.5t-39 -38.5l-65 54q34 50 77.5 69.5t97.5 19.5q31 0 57.5 -5.5t46 -17.5t30.5 -31.5t11 -47.5q0 -51 -31 -91t-87 -83l-66 -51l163 1l-14 -94h-324zM204 293h-112l45 283l-49 -27 l-26 87l135 70h73zM688 700l-450 -700h-138l450 700h138z" />
<glyph unicode="&#xbe;" horiz-adv-x="990" d="M34 0zM189 281q-117 0 -155 90l87 46q12 -25 28.5 -36.5t44.5 -11.5q29 0 48.5 13t19.5 39q0 19 -12.5 27t-42.5 8h-43l13 81h42q27 0 43.5 13.5t16.5 36.5q0 36 -51 36q-24 0 -41 -9.5t-34 -33.5l-70 53q28 40 67.5 60t99.5 20q74 0 109 -26t35 -76q0 -39 -19 -67 t-51 -46q21 -9 33.5 -26.5t12.5 -48.5t-13 -57t-36.5 -45t-57 -29.5t-74.5 -10.5zM796 700l-450 -700h-138l450 700h138zM564 81l12 76l159 252h110l-152 -235h107l22 133h104l-21 -133h48l-14 -93h-49l-13 -81h-105l13 81h-221z" />
<glyph unicode="&#xbf;" horiz-adv-x="506" d="M-7 -45q0 113 60.5 174.5t160.5 73.5l19 83h121l-22 -175h-57q-61 0 -99.5 -31t-38.5 -98q0 -36 25.5 -57t79.5 -21q45 0 81 19.5t70 73.5l87 -64q-91 -149 -270 -149q-106 0 -161.5 42.5t-55.5 128.5zM329 511q76 0 76 -68q0 -48 -26 -71.5t-70 -23.5q-77 0 -77 68 q0 47 26.5 71t70.5 24z" />
<glyph unicode="&#xc0;" horiz-adv-x="684" d="M0 0zM387 541l-143 -306h192zM469 0l-17 110h-265l-52 -110h-160l343 700h193l121 -700h-163zM367 774l-108 127l1 6h170l58 -128v-5h-121z" />
<glyph unicode="&#xc1;" horiz-adv-x="684" d="M0 0zM387 541l-143 -306h192zM469 0l-17 110h-265l-52 -110h-160l343 700h193l121 -700h-163zM455 908h166l-1 -6l-145 -127h-122v5z" />
<glyph unicode="&#xc2;" horiz-adv-x="684" d="M0 0zM387 541l-143 -306h192zM469 0l-17 110h-265l-52 -110h-160l343 700h193l121 -700h-163zM429 832l-70 -58h-127l1 4l142 129h128l101 -129l-1 -4h-123z" />
<glyph unicode="&#xc3;" horiz-adv-x="684" d="M0 0zM387 541l-143 -306h192zM469 0l-17 110h-265l-52 -110h-160l343 700h193l121 -700h-163zM524 903h91q-2 -35 -13 -58.5t-28 -37.5t-37 -20t-39 -6q-22 0 -40 5.5t-33.5 11.5t-29 11.5t-27.5 5.5q-17 0 -24 -10.5t-9 -23.5h-93q2 35 13.5 58.5t28 38t36.5 20.5t39 6 q22 0 40 -5.5t34 -12t30 -12t28 -5.5q17 0 24 10t9 24z" />
<glyph unicode="&#xc4;" horiz-adv-x="684" d="M0 0zM387 541l-143 -306h192zM469 0l-17 110h-265l-52 -110h-160l343 700h193l121 -700h-163zM526 774q-72 0 -72 61q0 45 25 66.5t66 21.5q73 0 73 -61q0 -45 -25 -66.5t-67 -21.5zM318 774q-72 0 -72 61q0 46 25 67t66 21q72 0 72 -60q0 -46 -24.5 -67.5t-66.5 -21.5z " />
<glyph unicode="&#xc5;" horiz-adv-x="684" d="M0 0zM387 541l-143 -306h192zM469 0l-17 110h-265l-52 -110h-160l343 700h193l121 -700h-163zM420 752q-43 0 -72 22t-29 67q0 27 9.5 49t26 37t39.5 23.5t49 8.5q47 0 74 -23t27 -65q0 -55 -35 -87t-89 -32zM439 901q-23 0 -37.5 -14.5t-14.5 -40.5q0 -17 10 -26.5 t27 -9.5q20 0 36 14.5t16 40.5q0 17 -10 26.5t-27 9.5z" />
<glyph unicode="&#xc6;" horiz-adv-x="992" d="M390 536l-146 -301h191zM469 0l-17 110h-268l-53 -110h-159l354 700h680l-20 -129h-444l24 -153h345l-20 -130h-303l26 -159h311l-20 -129h-436z" />
<glyph unicode="&#xc7;" horiz-adv-x="689" d="M302 -251q-45 0 -79.5 17.5t-51.5 53.5l62 53q11 -23 28 -35.5t47 -12.5q21 0 36.5 9.5t15.5 29.5q0 11 -6 18t-15.5 10.5t-21.5 4.5t-24 0l-21 13l37 77q-129 8 -190 73.5t-61 196.5q0 23 1 45.5t5 48.5q13 96 43.5 164.5t78.5 112.5t113 65t145 21q114 0 176 -45 t84 -133l-137 -55q-18 57 -50.5 78t-86.5 21q-38 0 -70.5 -10.5t-58.5 -37t-45 -71t-30 -112.5q-4 -23 -5.5 -44t-1.5 -40q0 -83 38.5 -115.5t107.5 -32.5q51 0 94 19.5t74 71.5l117 -77q-44 -72 -109 -105.5t-152 -38.5l-23 -39q35 -4 61 -25.5t26 -61.5q0 -28 -12 -49 t-32 -35t-48 -21t-59 -7z" />
<glyph unicode="&#xc8;" horiz-adv-x="673" d="M49 0zM49 0l111 700h527l-21 -129h-370l-24 -153h320l-20 -130h-320l-25 -159h379l-21 -129h-536zM380 774l-108 127l1 6h170l58 -128v-5h-121z" />
<glyph unicode="&#xc9;" horiz-adv-x="673" d="M49 0zM466 908h166l-1 -6l-145 -127h-122v5zM49 0l111 700h527l-21 -129h-370l-24 -153h320l-20 -130h-320l-25 -159h379l-21 -129h-536z" />
<glyph unicode="&#xca;" horiz-adv-x="673" d="M49 0zM442 832l-70 -58h-127l1 4l142 129h128l101 -129l-1 -4h-123zM49 0l111 700h527l-21 -129h-370l-24 -153h320l-20 -130h-320l-25 -159h379l-21 -129h-536z" />
<glyph unicode="&#xcb;" horiz-adv-x="673" d="M49 0zM537 774q-72 0 -72 61q0 45 25 66.5t66 21.5q73 0 73 -61q0 -45 -25 -66.5t-67 -21.5zM329 774q-72 0 -72 61q0 46 25 67t66 21q72 0 72 -60q0 -46 -24.5 -67.5t-66.5 -21.5zM49 0l111 700h527l-21 -129h-370l-24 -153h320l-20 -130h-320l-25 -159h379l-21 -129 h-536z" />
<glyph unicode="&#xcc;" horiz-adv-x="343" d="M49 0zM49 0l111 700h161l-111 -700h-161zM202 774l-108 127l1 6h170l58 -128v-5h-121z" />
<glyph unicode="&#xcd;" horiz-adv-x="343" d="M49 0zM49 0l111 700h161l-111 -700h-161zM285 908h166l-1 -6l-145 -127h-122v5z" />
<glyph unicode="&#xce;" horiz-adv-x="343" d="M49 0zM49 0l111 700h161l-111 -700h-161zM260 832l-70 -58h-127l1 4l142 129h128l101 -129l-1 -4h-123z" />
<glyph unicode="&#xcf;" horiz-adv-x="343" d="M49 0zM49 0l111 700h161l-111 -700h-161zM356 774q-72 0 -72 61q0 45 25 66.5t66 21.5q73 0 73 -61q0 -45 -25 -66.5t-67 -21.5zM148 774q-72 0 -72 61q0 46 25 67t66 21q72 0 72 -60q0 -46 -24.5 -67.5t-66.5 -21.5z" />
<glyph unicode="&#xd0;" horiz-adv-x="759" d="M351 0h-292l46 288h-72l20 122h71l46 290h287q137 0 203 -61.5t66 -191.5q0 -20 -2 -45.5t-5 -48.5q-48 -353 -368 -353zM241 132h112q38 0 71.5 10.5t60.5 35.5t46 66.5t28 102.5q3 19 5 39t2 37q0 75 -33.5 110t-96.5 35h-126l-25 -158h120l-20 -122h-120z" />
<glyph unicode="&#xd1;" horiz-adv-x="793" d="M49 0zM518 0l-251 448l-66 -448h-152l111 700h127l261 -469l70 469h152l-111 -700h-141zM573 903h91q-2 -35 -13 -58.5t-28 -37.5t-37 -20t-39 -6q-22 0 -40 5.5t-33.5 11.5t-29 11.5t-27.5 5.5q-17 0 -24 -10.5t-9 -23.5h-93q2 35 13.5 58.5t28 38t36.5 20.5t39 6 q22 0 40 -5.5t34 -12t30 -12t28 -5.5q17 0 24 10t9 24z" />
<glyph unicode="&#xd2;" horiz-adv-x="772" d="M58 0zM64 351q25 185 118.5 274t263.5 89q152 0 222 -66t70 -203q0 -22 -1.5 -45.5t-5.5 -49.5q-25 -186 -118.5 -275t-263.5 -89q-151 0 -221 67.5t-70 204.5q0 42 6 93zM574 433q0 81 -36.5 114t-105.5 33q-42 0 -76 -11.5t-59.5 -38.5t-43 -71t-27.5 -110 q-4 -23 -6 -44t-2 -39q0 -80 36.5 -113.5t104.5 -33.5q42 0 76 12t60 39t43.5 71.5t28.5 109.5q4 23 5.5 43.5t1.5 38.5zM407 774l-108 127l1 6h170l58 -128v-5h-121z" />
<glyph unicode="&#xd3;" horiz-adv-x="772" d="M58 0zM493 908h166l-1 -6l-145 -127h-122v5zM64 351q25 185 118.5 274t263.5 89q152 0 222 -66t70 -203q0 -22 -1.5 -45.5t-5.5 -49.5q-25 -186 -118.5 -275t-263.5 -89q-151 0 -221 67.5t-70 204.5q0 42 6 93zM574 433q0 81 -36.5 114t-105.5 33q-42 0 -76 -11.5 t-59.5 -38.5t-43 -71t-27.5 -110q-4 -23 -6 -44t-2 -39q0 -80 36.5 -113.5t104.5 -33.5q42 0 76 12t60 39t43.5 71.5t28.5 109.5q4 23 5.5 43.5t1.5 38.5z" />
<glyph unicode="&#xd4;" horiz-adv-x="772" d="M58 0zM468 832l-70 -58h-127l1 4l142 129h128l101 -129l-1 -4h-123zM64 351q25 185 118.5 274t263.5 89q152 0 222 -66t70 -203q0 -22 -1.5 -45.5t-5.5 -49.5q-25 -186 -118.5 -275t-263.5 -89q-151 0 -221 67.5t-70 204.5q0 42 6 93zM574 433q0 81 -36.5 114t-105.5 33 q-42 0 -76 -11.5t-59.5 -38.5t-43 -71t-27.5 -110q-4 -23 -6 -44t-2 -39q0 -80 36.5 -113.5t104.5 -33.5q42 0 76 12t60 39t43.5 71.5t28.5 109.5q4 23 5.5 43.5t1.5 38.5z" />
<glyph unicode="&#xd5;" horiz-adv-x="772" d="M58 0zM64 351q25 185 118.5 274t263.5 89q152 0 222 -66t70 -203q0 -22 -1.5 -45.5t-5.5 -49.5q-25 -186 -118.5 -275t-263.5 -89q-151 0 -221 67.5t-70 204.5q0 42 6 93zM574 433q0 81 -36.5 114t-105.5 33q-42 0 -76 -11.5t-59.5 -38.5t-43 -71t-27.5 -110 q-4 -23 -6 -44t-2 -39q0 -80 36.5 -113.5t104.5 -33.5q42 0 76 12t60 39t43.5 71.5t28.5 109.5q4 23 5.5 43.5t1.5 38.5zM563 903h91q-2 -35 -13 -58.5t-28 -37.5t-37 -20t-39 -6q-22 0 -40 5.5t-33.5 11.5t-29 11.5t-27.5 5.5q-17 0 -24 -10.5t-9 -23.5h-93q2 35 13.5 58.5 t28 38t36.5 20.5t39 6q22 0 40 -5.5t34 -12t30 -12t28 -5.5q17 0 24 10t9 24z" />
<glyph unicode="&#xd6;" horiz-adv-x="772" d="M58 0zM565 774q-72 0 -72 61q0 45 25 66.5t66 21.5q73 0 73 -61q0 -45 -25 -66.5t-67 -21.5zM357 774q-72 0 -72 61q0 46 25 67t66 21q72 0 72 -60q0 -46 -24.5 -67.5t-66.5 -21.5zM64 351q25 185 118.5 274t263.5 89q152 0 222 -66t70 -203q0 -22 -1.5 -45.5t-5.5 -49.5 q-25 -186 -118.5 -275t-263.5 -89q-151 0 -221 67.5t-70 204.5q0 42 6 93zM574 433q0 81 -36.5 114t-105.5 33q-42 0 -76 -11.5t-59.5 -38.5t-43 -71t-27.5 -110q-4 -23 -6 -44t-2 -39q0 -80 36.5 -113.5t104.5 -33.5q42 0 76 12t60 39t43.5 71.5t28.5 109.5q4 23 5.5 43.5 t1.5 38.5z" />
<glyph unicode="&#xd7;" horiz-adv-x="504" d="M102 125l-55 66l141 123l-101 124l76 65l99 -124l140 123l55 -66l-139 -123l100 -121l-75 -66l-100 122z" />
<glyph unicode="&#xd8;" horiz-adv-x="777" d="M-9 0l103 102q-34 61 -34 157q0 21 2 45.5t5 45.5q23 181 116.5 272.5t265.5 91.5q135 0 208 -58l44 44h114l-107 -105q33 -62 33 -154q0 -19 -2 -43.5t-5 -47.5q-25 -184 -117.5 -274t-261.5 -90q-137 0 -210 56l-43 -42h-111zM437 580q-43 0 -77.5 -11.5t-60 -38.5 t-43.5 -71t-28 -109q-3 -20 -5 -43t-2 -41q0 -11 0.5 -20t1.5 -17l321 316q-18 19 -45 27t-62 8zM363 119q42 0 76 11.5t60 38.5t43.5 71.5t28.5 110.5q3 20 5 42.5t2 41.5q0 8 -0.5 15.5t-1.5 14.5l-319 -313q18 -18 44.5 -25.5t61.5 -7.5z" />
<glyph unicode="&#xd9;" horiz-adv-x="757" d="M73 0zM524 278l66 422h161l-66 -415q-25 -158 -111.5 -228.5t-228.5 -70.5q-131 0 -201.5 55t-70.5 172q0 17 2 34.5t5 37.5l66 415h160l-66 -422q-2 -11 -3 -21t-1 -21q0 -55 29 -85t92 -30q69 0 111 38t56 119zM404 774l-108 127l1 6h170l58 -128v-5h-121z" />
<glyph unicode="&#xda;" horiz-adv-x="757" d="M73 0zM491 908h166l-1 -6l-145 -127h-122v5zM524 278l66 422h161l-66 -415q-25 -158 -111.5 -228.5t-228.5 -70.5q-131 0 -201.5 55t-70.5 172q0 17 2 34.5t5 37.5l66 415h160l-66 -422q-2 -11 -3 -21t-1 -21q0 -55 29 -85t92 -30q69 0 111 38t56 119z" />
<glyph unicode="&#xdb;" horiz-adv-x="757" d="M73 0zM466 832l-70 -58h-127l1 4l142 129h128l101 -129l-1 -4h-123zM524 278l66 422h161l-66 -415q-25 -158 -111.5 -228.5t-228.5 -70.5q-131 0 -201.5 55t-70.5 172q0 17 2 34.5t5 37.5l66 415h160l-66 -422q-2 -11 -3 -21t-1 -21q0 -55 29 -85t92 -30q69 0 111 38 t56 119z" />
<glyph unicode="&#xdc;" horiz-adv-x="757" d="M73 0zM562 774q-72 0 -72 61q0 45 25 66.5t66 21.5q73 0 73 -61q0 -45 -25 -66.5t-67 -21.5zM354 774q-72 0 -72 61q0 46 25 67t66 21q72 0 72 -60q0 -46 -24.5 -67.5t-66.5 -21.5zM524 278l66 422h161l-66 -415q-25 -158 -111.5 -228.5t-228.5 -70.5q-131 0 -201.5 55 t-70.5 172q0 17 2 34.5t5 37.5l66 415h160l-66 -422q-2 -11 -3 -21t-1 -21q0 -55 29 -85t92 -30q69 0 111 38t56 119z" />
<glyph unicode="&#xdd;" horiz-adv-x="654" d="M64 0zM241 261l-177 439h174l107 -298l200 298h172l-317 -443l-41 -257h-160zM433 908h166l-1 -6l-145 -127h-122v5z" />
<glyph unicode="&#xde;" horiz-adv-x="683" d="M229 116l-17 -116h-162l111 700h162l-18 -108h152q104 0 156.5 -53t52.5 -140q0 -71 -22 -124t-60.5 -88t-91.5 -53t-114 -18h-149zM251 249h136q54 0 86.5 33t32.5 92q0 35 -20 58t-67 23h-135z" />
<glyph unicode="&#xdf;" horiz-adv-x="644" d="M367 309h-54l19 119h44q43 0 71.5 24.5t28.5 72.5q0 40 -24.5 59.5t-66.5 19.5q-53 0 -85.5 -28.5t-42.5 -88.5l-77 -487h-153l79 493q17 110 90 170.5t203 60.5q115 0 170 -48.5t55 -127.5q0 -63 -29 -106.5t-77 -67.5q49 -20 69.5 -58t20.5 -89q0 -55 -19 -99 t-52 -74.5t-77.5 -46.5t-95.5 -16q-66 0 -117 23l31 111q13 -8 30.5 -11.5t35.5 -3.5q49 0 82.5 29t33.5 84q0 38 -22 62t-71 24z" />
<glyph unicode="&#xe0;" horiz-adv-x="569" d="M20 0zM162 -13q-64 0 -103 32.5t-39 94.5q0 45 17.5 80t49 59.5t76 37.5t98.5 13h103q1 5 1 9v9q0 42 -24.5 56.5t-70.5 14.5t-83.5 -15t-64.5 -42l-52 88q42 45 101 65.5t135 20.5q46 0 85 -8.5t67.5 -28t44.5 -50.5t16 -76q0 -11 -1 -23t-3 -26l-47 -298h-130l1 72 q-30 -40 -74.5 -62.5t-102.5 -22.5zM224 86q48 0 82 31.5t43 88.5l1 7h-83q-48 0 -76.5 -18.5t-28.5 -56.5q0 -26 16.5 -39t45.5 -13zM270 571l-108 127l1 6h170l58 -128v-5h-121z" />
<glyph unicode="&#xe1;" horiz-adv-x="569" d="M20 0zM162 -13q-64 0 -103 32.5t-39 94.5q0 45 17.5 80t49 59.5t76 37.5t98.5 13h103q1 5 1 9v9q0 42 -24.5 56.5t-70.5 14.5t-83.5 -15t-64.5 -42l-52 88q42 45 101 65.5t135 20.5q46 0 85 -8.5t67.5 -28t44.5 -50.5t16 -76q0 -11 -1 -23t-3 -26l-47 -298h-130l1 72 q-30 -40 -74.5 -62.5t-102.5 -22.5zM224 86q48 0 82 31.5t43 88.5l1 7h-83q-48 0 -76.5 -18.5t-28.5 -56.5q0 -26 16.5 -39t45.5 -13zM357 704h166l-1 -6l-145 -127h-122v5z" />
<glyph unicode="&#xe2;" horiz-adv-x="569" d="M20 0zM162 -13q-64 0 -103 32.5t-39 94.5q0 45 17.5 80t49 59.5t76 37.5t98.5 13h103q1 5 1 9v9q0 42 -24.5 56.5t-70.5 14.5t-83.5 -15t-64.5 -42l-52 88q42 45 101 65.5t135 20.5q46 0 85 -8.5t67.5 -28t44.5 -50.5t16 -76q0 -11 -1 -23t-3 -26l-47 -298h-130l1 72 q-30 -40 -74.5 -62.5t-102.5 -22.5zM224 86q48 0 82 31.5t43 88.5l1 7h-83q-48 0 -76.5 -18.5t-28.5 -56.5q0 -26 16.5 -39t45.5 -13zM323 629l-70 -58h-127l1 4l142 129h128l101 -129l-1 -4h-123z" />
<glyph unicode="&#xe3;" horiz-adv-x="569" d="M20 0zM162 -13q-64 0 -103 32.5t-39 94.5q0 45 17.5 80t49 59.5t76 37.5t98.5 13h103q1 5 1 9v9q0 42 -24.5 56.5t-70.5 14.5t-83.5 -15t-64.5 -42l-52 88q42 45 101 65.5t135 20.5q46 0 85 -8.5t67.5 -28t44.5 -50.5t16 -76q0 -11 -1 -23t-3 -26l-47 -298h-130l1 72 q-30 -40 -74.5 -62.5t-102.5 -22.5zM224 86q48 0 82 31.5t43 88.5l1 7h-83q-48 0 -76.5 -18.5t-28.5 -56.5q0 -26 16.5 -39t45.5 -13zM427 700h91q-2 -35 -13 -58.5t-28 -37.5t-37 -20t-39 -6q-22 0 -40 5.5t-33.5 11.5t-29 11.5t-27.5 5.5q-17 0 -24 -10.5t-9 -23.5h-93 q2 35 13.5 58.5t28 38t36.5 20.5t39 6q22 0 40 -5.5t34 -12t30 -12t28 -5.5q17 0 24 10t9 24z" />
<glyph unicode="&#xe4;" horiz-adv-x="569" d="M20 0zM162 -13q-64 0 -103 32.5t-39 94.5q0 45 17.5 80t49 59.5t76 37.5t98.5 13h103q1 5 1 9v9q0 42 -24.5 56.5t-70.5 14.5t-83.5 -15t-64.5 -42l-52 88q42 45 101 65.5t135 20.5q46 0 85 -8.5t67.5 -28t44.5 -50.5t16 -76q0 -11 -1 -23t-3 -26l-47 -298h-130l1 72 q-30 -40 -74.5 -62.5t-102.5 -22.5zM224 86q48 0 82 31.5t43 88.5l1 7h-83q-48 0 -76.5 -18.5t-28.5 -56.5q0 -26 16.5 -39t45.5 -13zM418 570q-72 0 -72 61q0 45 25 66.5t66 21.5q73 0 73 -61q0 -45 -25 -66.5t-67 -21.5zM210 570q-72 0 -72 61q0 46 25 67t66 21 q72 0 72 -60q0 -46 -24.5 -67.5t-66.5 -21.5z" />
<glyph unicode="&#xe5;" horiz-adv-x="569" d="M20 0zM162 -13q-64 0 -103 32.5t-39 94.5q0 45 17.5 80t49 59.5t76 37.5t98.5 13h103q1 5 1 9v9q0 42 -24.5 56.5t-70.5 14.5t-83.5 -15t-64.5 -42l-52 88q42 45 101 65.5t135 20.5q46 0 85 -8.5t67.5 -28t44.5 -50.5t16 -76q0 -11 -1 -23t-3 -26l-47 -298h-130l1 72 q-30 -40 -74.5 -62.5t-102.5 -22.5zM224 86q48 0 82 31.5t43 88.5l1 7h-83q-48 0 -76.5 -18.5t-28.5 -56.5q0 -26 16.5 -39t45.5 -13zM323 549q-43 0 -72 22t-29 67q0 27 9.5 49t26 37t39.5 23.5t49 8.5q47 0 74 -23t27 -65q0 -55 -35 -87t-89 -32zM342 698 q-23 0 -37.5 -14.5t-14.5 -40.5q0 -17 10 -26.5t27 -9.5q20 0 36 14.5t16 40.5q0 17 -10 26.5t-27 9.5z" />
<glyph unicode="&#xe6;" horiz-adv-x="880" d="M170 -13q-64 0 -106 32t-42 94q0 43 17 78t47.5 59t74.5 37t98 13h103q1 6 1.5 11t0.5 11q0 42 -24.5 56.5t-70.5 14.5q-47 0 -84.5 -15t-64.5 -42l-50 88q42 45 100.5 65.5t134.5 20.5q56 0 96 -15.5t63 -50.5q71 66 186 66q51 0 87.5 -15t60.5 -41t35 -63t11 -80 q0 -24 -3 -48.5t-11 -51.5h-329q-1 -5 -1 -10v-10q0 -51 26 -74.5t75 -23.5q40 0 67.5 14t50.5 47l87 -60q-38 -54 -92 -81t-135 -27q-70 0 -119 24t-72 75q-35 -48 -90.5 -73t-127.5 -25zM225 86q48 0 79 29t41 86l2 10h-82q-48 0 -74.5 -18.5t-26.5 -53.5q0 -53 61 -53z M633 401q-42 0 -72 -24.5t-45 -76.5h193q1 5 1 9v10q0 82 -77 82z" />
<glyph unicode="&#xe7;" horiz-adv-x="530" d="M210 -251q-45 0 -79.5 17.5t-51.5 53.5l62 53q11 -23 28 -35.5t47 -12.5q21 0 36.5 9.5t15.5 29.5q0 11 -6 18t-15.5 10.5t-21.5 4.5t-24 0l-21 13l37 78q-86 8 -132.5 56.5t-46.5 144.5q0 14 1 28t3 30q19 136 92.5 199.5t192.5 63.5q160 0 200 -127l-116 -65 q-11 35 -32 51.5t-62 16.5q-51 0 -82.5 -32t-44.5 -107q-2 -14 -3 -26t-1 -23q0 -48 21.5 -71t71.5 -23q37 0 65 14.5t48 48.5l97 -69q-34 -50 -81.5 -76.5t-110.5 -33.5l-23 -40q35 -4 61 -25.5t26 -61.5q0 -28 -12 -49t-32 -35t-48 -21t-59 -7z" />
<glyph unicode="&#xe8;" horiz-adv-x="557" d="M38 0zM256 -14q-101 0 -159.5 50.5t-58.5 154.5q0 14 1 27t3 29q17 125 90.5 194t196.5 69q51 0 88.5 -15t61.5 -41.5t35.5 -63t11.5 -79.5q0 -48 -14 -106h-331q-4 -54 20.5 -82.5t78.5 -28.5q42 0 71.5 13t52.5 45l86 -60q-40 -53 -94 -79.5t-140 -26.5zM313 400 q-44 0 -74 -24.5t-44 -79.5h191q1 6 1 11v11q0 42 -17.5 62t-56.5 20zM280 571l-108 127l1 6h170l58 -128v-5h-121z" />
<glyph unicode="&#xe9;" horiz-adv-x="557" d="M38 0zM367 704h166l-1 -6l-145 -127h-122v5zM256 -14q-101 0 -159.5 50.5t-58.5 154.5q0 14 1 27t3 29q17 125 90.5 194t196.5 69q51 0 88.5 -15t61.5 -41.5t35.5 -63t11.5 -79.5q0 -48 -14 -106h-331q-4 -54 20.5 -82.5t78.5 -28.5q42 0 71.5 13t52.5 45l86 -60 q-40 -53 -94 -79.5t-140 -26.5zM313 400q-44 0 -74 -24.5t-44 -79.5h191q1 6 1 11v11q0 42 -17.5 62t-56.5 20z" />
<glyph unicode="&#xea;" horiz-adv-x="557" d="M38 0zM342 629l-70 -58h-127l1 4l142 129h128l101 -129l-1 -4h-123zM256 -14q-101 0 -159.5 50.5t-58.5 154.5q0 14 1 27t3 29q17 125 90.5 194t196.5 69q51 0 88.5 -15t61.5 -41.5t35.5 -63t11.5 -79.5q0 -48 -14 -106h-331q-4 -54 20.5 -82.5t78.5 -28.5q42 0 71.5 13 t52.5 45l86 -60q-40 -53 -94 -79.5t-140 -26.5zM313 400q-44 0 -74 -24.5t-44 -79.5h191q1 6 1 11v11q0 42 -17.5 62t-56.5 20z" />
<glyph unicode="&#xeb;" horiz-adv-x="557" d="M38 0zM438 570q-72 0 -72 61q0 45 25 66.5t66 21.5q73 0 73 -61q0 -45 -25 -66.5t-67 -21.5zM230 570q-72 0 -72 61q0 46 25 67t66 21q72 0 72 -60q0 -46 -24.5 -67.5t-66.5 -21.5zM256 -14q-101 0 -159.5 50.5t-58.5 154.5q0 14 1 27t3 29q17 125 90.5 194t196.5 69 q51 0 88.5 -15t61.5 -41.5t35.5 -63t11.5 -79.5q0 -48 -14 -106h-331q-4 -54 20.5 -82.5t78.5 -28.5q42 0 71.5 13t52.5 45l86 -60q-40 -53 -94 -79.5t-140 -26.5zM313 400q-44 0 -74 -24.5t-44 -79.5h191q1 6 1 11v11q0 42 -17.5 62t-56.5 20z" />
<glyph unicode="&#xec;" horiz-adv-x="292" d="M29 0zM107 497h155l-79 -497h-154zM141 571l-108 127l1 6h170l58 -128v-5h-121z" />
<glyph unicode="&#xed;" horiz-adv-x="292" d="M29 0zM227 704h166l-1 -6l-145 -127h-122v5zM107 497h155l-79 -497h-154z" />
<glyph unicode="&#xee;" horiz-adv-x="292" d="M5 0zM202 629l-70 -58h-127l1 4l142 129h128l101 -129l-1 -4h-123zM107 497h155l-79 -497h-154z" />
<glyph unicode="&#xef;" horiz-adv-x="292" d="M18 0zM298 570q-72 0 -72 61q0 45 25 66.5t66 21.5q73 0 73 -61q0 -45 -25 -66.5t-67 -21.5zM90 570q-72 0 -72 61q0 46 25 67t66 21q72 0 72 -60q0 -46 -24.5 -67.5t-66.5 -21.5zM107 497h155l-79 -497h-154z" />
<glyph unicode="&#xf0;" horiz-adv-x="599" d="M550 734l25 -52l-74 -44q36 -50 50.5 -111t14.5 -127q0 -26 -2.5 -55t-7.5 -77q-18 -146 -90.5 -214t-197.5 -68q-114 0 -173 50.5t-59 153.5q0 22 3 51q17 132 88.5 193t183.5 61q75 0 116 -41q-5 34 -15 62.5t-28 51.5l-85 -50l-26 51l65 40q-20 14 -45 24.5t-55 18.5 l52 99q53 -8 95 -25.5t75 -44.5zM405 239q2 14 3 26t1 22q0 51 -22 73t-69 22q-57 0 -89 -34t-44 -109q-2 -12 -3 -23t-1 -21q0 -49 23.5 -71.5t68.5 -22.5q54 0 87.5 33t44.5 105z" />
<glyph unicode="&#xf1;" horiz-adv-x="633" d="M28 0zM28 0l78 497h127v-89q35 51 85 76.5t107 25.5q82 0 120 -41.5t38 -110.5q0 -12 -1.5 -24t-3.5 -24l-49 -310h-154l42 262q3 22 3 40q0 38 -18.5 54.5t-53.5 16.5q-46 0 -81.5 -33t-45.5 -96l-39 -244h-154zM463 700h91q-2 -35 -13 -58.5t-28 -37.5t-37 -20t-39 -6 q-22 0 -40 5.5t-33.5 11.5t-29 11.5t-27.5 5.5q-17 0 -24 -10.5t-9 -23.5h-93q2 35 13.5 58.5t28 38t36.5 20.5t39 6q22 0 40 -5.5t34 -12t30 -12t28 -5.5q17 0 24 10t9 24z" />
<glyph unicode="&#xf2;" horiz-adv-x="596" d="M38 0zM42 249q17 134 93.5 197.5t195.5 63.5q115 0 171 -48.5t56 -151.5q0 -14 -1.5 -29t-3.5 -32q-17 -132 -90.5 -197.5t-199.5 -65.5q-225 0 -225 203q0 14 1 28.5t3 31.5zM406 248q2 14 3.5 27t1.5 24q0 50 -22.5 71.5t-69.5 21.5q-58 0 -88.5 -33t-42.5 -111 q-2 -15 -3 -28t-1 -24q0 -51 22 -72.5t68 -21.5q56 0 87.5 34t44.5 112zM285 571l-108 127l1 6h170l58 -128v-5h-121z" />
<glyph unicode="&#xf3;" horiz-adv-x="596" d="M38 0zM372 704h166l-1 -6l-145 -127h-122v5zM42 249q17 134 93.5 197.5t195.5 63.5q115 0 171 -48.5t56 -151.5q0 -14 -1.5 -29t-3.5 -32q-17 -132 -90.5 -197.5t-199.5 -65.5q-225 0 -225 203q0 14 1 28.5t3 31.5zM406 248q2 14 3.5 27t1.5 24q0 50 -22.5 71.5 t-69.5 21.5q-58 0 -88.5 -33t-42.5 -111q-2 -15 -3 -28t-1 -24q0 -51 22 -72.5t68 -21.5q56 0 87.5 34t44.5 112z" />
<glyph unicode="&#xf4;" horiz-adv-x="596" d="M38 0zM348 629l-70 -58h-127l1 4l142 129h128l101 -129l-1 -4h-123zM42 249q17 134 93.5 197.5t195.5 63.5q115 0 171 -48.5t56 -151.5q0 -14 -1.5 -29t-3.5 -32q-17 -132 -90.5 -197.5t-199.5 -65.5q-225 0 -225 203q0 14 1 28.5t3 31.5zM406 248q2 14 3.5 27t1.5 24 q0 50 -22.5 71.5t-69.5 21.5q-58 0 -88.5 -33t-42.5 -111q-2 -15 -3 -28t-1 -24q0 -51 22 -72.5t68 -21.5q56 0 87.5 34t44.5 112z" />
<glyph unicode="&#xf5;" horiz-adv-x="596" d="M38 0zM42 249q17 134 93.5 197.5t195.5 63.5q115 0 171 -48.5t56 -151.5q0 -14 -1.5 -29t-3.5 -32q-17 -132 -90.5 -197.5t-199.5 -65.5q-225 0 -225 203q0 14 1 28.5t3 31.5zM406 248q2 14 3.5 27t1.5 24q0 50 -22.5 71.5t-69.5 21.5q-58 0 -88.5 -33t-42.5 -111 q-2 -15 -3 -28t-1 -24q0 -51 22 -72.5t68 -21.5q56 0 87.5 34t44.5 112zM442 700h91q-2 -35 -13 -58.5t-28 -37.5t-37 -20t-39 -6q-22 0 -40 5.5t-33.5 11.5t-29 11.5t-27.5 5.5q-17 0 -24 -10.5t-9 -23.5h-93q2 35 13.5 58.5t28 38t36.5 20.5t39 6q22 0 40 -5.5t34 -12 t30 -12t28 -5.5q17 0 24 10t9 24z" />
<glyph unicode="&#xf6;" horiz-adv-x="596" d="M38 0zM444 570q-72 0 -72 61q0 45 25 66.5t66 21.5q73 0 73 -61q0 -45 -25 -66.5t-67 -21.5zM236 570q-72 0 -72 61q0 46 25 67t66 21q72 0 72 -60q0 -46 -24.5 -67.5t-66.5 -21.5zM42 249q17 134 93.5 197.5t195.5 63.5q115 0 171 -48.5t56 -151.5q0 -14 -1.5 -29 t-3.5 -32q-17 -132 -90.5 -197.5t-199.5 -65.5q-225 0 -225 203q0 14 1 28.5t3 31.5zM406 248q2 14 3.5 27t1.5 24q0 50 -22.5 71.5t-69.5 21.5q-58 0 -88.5 -33t-42.5 -111q-2 -15 -3 -28t-1 -24q0 -51 22 -72.5t68 -21.5q56 0 87.5 34t44.5 112z" />
<glyph unicode="&#xf7;" horiz-adv-x="508" d="M271 415q-30 0 -47.5 17t-17.5 45q0 41 25 62.5t58 21.5q30 0 48.5 -17t18.5 -45q0 -37 -24.5 -60.5t-60.5 -23.5zM461 357l-14 -93h-402l15 93h401zM215 60q-29 0 -47 17.5t-18 45.5q0 40 25 62.5t58 22.5q31 0 49 -18t18 -47q0 -36 -25 -59.5t-60 -23.5z" />
<glyph unicode="&#xf8;" horiz-adv-x="600" d="M532 497h97l-94 -84q25 -43 25 -107q0 -14 -1 -28t-3 -29q-17 -130 -91 -196.5t-200 -66.5q-102 0 -158 45l-35 -31h-96l90 80q-26 43 -26 110q0 14 1 28t3 31q17 131 92 196t197 65q105 0 162 -47zM324 398q-61 0 -94 -37t-47 -114q-5 -25 -5 -44q0 -6 0.5 -11t1.5 -10 l215 192q-24 24 -71 24zM275 96q60 0 93.5 36.5t46.5 114.5q2 12 3 22.5t1 20.5v9q0 5 -1 10l-213 -191q25 -22 70 -22z" />
<glyph unicode="&#xf9;" horiz-adv-x="630" d="M49 0zM213 -14q-86 0 -125 42.5t-39 110.5q0 11 0.5 21t2.5 21l50 316h154l-43 -268q-3 -23 -3 -40q0 -74 72 -74q45 0 78.5 33t45.5 99l39 250h154l-79 -497h-127l1 79q-33 -46 -80 -69.5t-101 -23.5zM308 571l-108 127l1 6h170l58 -128v-5h-121z" />
<glyph unicode="&#xfa;" horiz-adv-x="630" d="M49 0zM396 704h166l-1 -6l-145 -127h-122v5zM213 -14q-86 0 -125 42.5t-39 110.5q0 11 0.5 21t2.5 21l50 316h154l-43 -268q-3 -23 -3 -40q0 -74 72 -74q45 0 78.5 33t45.5 99l39 250h154l-79 -497h-127l1 79q-33 -46 -80 -69.5t-101 -23.5z" />
<glyph unicode="&#xfb;" horiz-adv-x="630" d="M49 0zM371 629l-70 -58h-127l1 4l142 129h128l101 -129l-1 -4h-123zM213 -14q-86 0 -125 42.5t-39 110.5q0 11 0.5 21t2.5 21l50 316h154l-43 -268q-3 -23 -3 -40q0 -74 72 -74q45 0 78.5 33t45.5 99l39 250h154l-79 -497h-127l1 79q-33 -46 -80 -69.5t-101 -23.5z" />
<glyph unicode="&#xfc;" horiz-adv-x="630" d="M49 0zM467 570q-72 0 -72 61q0 45 25 66.5t66 21.5q73 0 73 -61q0 -45 -25 -66.5t-67 -21.5zM259 570q-72 0 -72 61q0 46 25 67t66 21q72 0 72 -60q0 -46 -24.5 -67.5t-66.5 -21.5zM213 -14q-86 0 -125 42.5t-39 110.5q0 11 0.5 21t2.5 21l50 316h154l-43 -268 q-3 -23 -3 -40q0 -74 72 -74q45 0 78.5 33t45.5 99l39 250h154l-79 -497h-127l1 79q-33 -46 -80 -69.5t-101 -23.5z" />
<glyph unicode="&#xfd;" horiz-adv-x="558" d="M0 0zM138 -41l20 39l-114 499h157l61 -348l162 348h162l-320 -589q-40 -73 -94.5 -100.5t-123.5 -27.5q-32 0 -55 4.5t-45 14.5l30 113q18 -8 34 -12t34 -4q26 0 49.5 13t42.5 50zM361 704h166l-1 -6l-145 -127h-122v5z" />
<glyph unicode="&#xfe;" horiz-adv-x="624" d="M220 245q-3 -23 -3 -42q0 -53 23.5 -77t62.5 -24q54 0 85 36t43 108q2 15 3 26.5t1 23.5q0 51 -22 73.5t-62 22.5q-47 0 -83 -34.5t-48 -112.5zM295 700l-43 -266q31 39 73 57.5t91 18.5q83 0 126 -49t43 -144q0 -16 -1.5 -30t-3.5 -32q-8 -61 -28 -110.5t-52 -85 t-76 -54.5t-100 -19q-46 0 -80 17t-53 50l-37 -239h-155l141 886h155z" />
<glyph unicode="&#xff;" horiz-adv-x="558" d="M0 0zM138 -41l20 39l-114 499h157l61 -348l162 348h162l-320 -589q-40 -73 -94.5 -100.5t-123.5 -27.5q-32 0 -55 4.5t-45 14.5l30 113q18 -8 34 -12t34 -4q26 0 49.5 13t42.5 50zM432 570q-72 0 -72 61q0 45 25 66.5t66 21.5q73 0 73 -61q0 -45 -25 -66.5t-67 -21.5z M224 570q-72 0 -72 61q0 46 25 67t66 21q72 0 72 -60q0 -46 -24.5 -67.5t-66.5 -21.5z" />
<glyph unicode="&#x100;" horiz-adv-x="684" d="M0 0zM387 541l-143 -306h192zM469 0l-17 110h-265l-52 -110h-160l343 700h193l121 -700h-163zM581 880l-15 -87h-283l13 87h285z" />
<glyph unicode="&#x101;" horiz-adv-x="569" d="M20 0zM162 -13q-64 0 -103 32.5t-39 94.5q0 45 17.5 80t49 59.5t76 37.5t98.5 13h103q1 5 1 9v9q0 42 -24.5 56.5t-70.5 14.5t-83.5 -15t-64.5 -42l-52 88q42 45 101 65.5t135 20.5q46 0 85 -8.5t67.5 -28t44.5 -50.5t16 -76q0 -11 -1 -23t-3 -26l-47 -298h-130l1 72 q-30 -40 -74.5 -62.5t-102.5 -22.5zM224 86q48 0 82 31.5t43 88.5l1 7h-83q-48 0 -76.5 -18.5t-28.5 -56.5q0 -26 16.5 -39t45.5 -13zM484 677l-15 -87h-283l13 87h285z" />
<glyph unicode="&#x102;" horiz-adv-x="684" d="M0 0zM387 541l-143 -306h192zM469 0l-17 110h-265l-52 -110h-160l343 700h193l121 -700h-163zM512 907h96q-5 -40 -20 -67t-39 -43t-56 -23t-72 -7q-39 0 -69.5 7t-50 23t-27 43t-2.5 67h95q-6 -36 9.5 -49t52.5 -13t57 13t26 49z" />
<glyph unicode="&#x103;" horiz-adv-x="569" d="M20 0zM162 -13q-64 0 -103 32.5t-39 94.5q0 45 17.5 80t49 59.5t76 37.5t98.5 13h103q1 5 1 9v9q0 42 -24.5 56.5t-70.5 14.5t-83.5 -15t-64.5 -42l-52 88q42 45 101 65.5t135 20.5q46 0 85 -8.5t67.5 -28t44.5 -50.5t16 -76q0 -11 -1 -23t-3 -26l-47 -298h-130l1 72 q-30 -40 -74.5 -62.5t-102.5 -22.5zM224 86q48 0 82 31.5t43 88.5l1 7h-83q-48 0 -76.5 -18.5t-28.5 -56.5q0 -26 16.5 -39t45.5 -13zM406 704h96q-5 -40 -20 -67t-39 -43t-56 -23t-72 -7q-39 0 -69.5 7t-50 23t-27 43t-2.5 67h95q-6 -36 9.5 -49t52.5 -13t57 13t26 49z" />
<glyph unicode="&#x104;" horiz-adv-x="684" d="M503 -229q-24 0 -46.5 5t-40.5 17.5t-29 33.5t-11 52q0 51 25.5 88.5t63.5 58.5l-13 84h-265l-52 -110h-160l343 700h193l121 -700h-65q-24 -2 -42 -11t-30.5 -22.5t-19 -29.5t-6.5 -31q0 -27 15.5 -37t38.5 -10q36 0 69 17l13 -78q-45 -27 -102 -27zM387 541l-143 -306 h192z" />
<glyph unicode="&#x105;" horiz-adv-x="569" d="M494 -202q-45 -27 -102 -27q-24 0 -47 5t-40.5 17.5t-28.5 33.5t-11 52q0 45 20.5 79.5t52.5 56.5l1 57q-30 -40 -74.5 -62.5t-102.5 -22.5q-64 0 -103 32.5t-39 94.5q0 45 17.5 80t49 59.5t76 37.5t98.5 13h103q1 5 1 9v9q0 42 -24.5 56.5t-70.5 14.5t-83.5 -15 t-64.5 -42l-52 88q42 45 101 65.5t135 20.5q46 0 85 -8.5t67.5 -28t44.5 -50.5t16 -76q0 -11 -1 -23t-3 -26l-47 -298h-12q-24 -2 -42 -11t-30.5 -22.5t-18.5 -29.5t-6 -31q0 -27 15.5 -37t38.5 -10q37 0 67 17zM224 86q48 0 82 31.5t43 88.5l1 7h-83q-48 0 -76.5 -18.5 t-28.5 -56.5q0 -26 16.5 -39t45.5 -13z" />
<glyph unicode="&#x106;" horiz-adv-x="689" d="M58 0zM497 908h166l-1 -6l-145 -127h-122v5zM349 -14q-149 0 -220 65t-71 206q0 23 1 45.5t5 48.5q13 96 43.5 164.5t78.5 112.5t113 65t145 21q114 0 176 -45t84 -133l-137 -55q-18 57 -50.5 78t-86.5 21q-38 0 -70.5 -10.5t-58.5 -37t-45 -71t-30 -112.5 q-4 -23 -5.5 -44t-1.5 -40q0 -83 38.5 -115.5t107.5 -32.5q51 0 94 19.5t74 71.5l117 -77q-48 -80 -123.5 -112.5t-177.5 -32.5z" />
<glyph unicode="&#x107;" horiz-adv-x="530" d="M38 0zM378 704h166l-1 -6l-145 -127h-122v5zM392 167l97 -69q-39 -58 -97.5 -85t-136.5 -27q-103 0 -160 49t-57 154q0 14 1 28t3 30q19 136 92.5 199.5t192.5 63.5q160 0 200 -127l-116 -65q-11 35 -32 51.5t-62 16.5q-51 0 -82.5 -32t-44.5 -107q-2 -14 -3 -26t-1 -23 q0 -48 21.5 -71t71.5 -23q37 0 65 14.5t48 48.5z" />
<glyph unicode="&#x108;" horiz-adv-x="689" d="M58 0zM473 833l-70 -58h-127l1 4l142 129h128l101 -129l-1 -4h-123zM349 -14q-149 0 -220 65t-71 206q0 23 1 45.5t5 48.5q13 96 43.5 164.5t78.5 112.5t113 65t145 21q114 0 176 -45t84 -133l-137 -55q-18 57 -50.5 78t-86.5 21q-38 0 -70.5 -10.5t-58.5 -37t-45 -71 t-30 -112.5q-4 -23 -5.5 -44t-1.5 -40q0 -83 38.5 -115.5t107.5 -32.5q51 0 94 19.5t74 71.5l117 -77q-48 -80 -123.5 -112.5t-177.5 -32.5z" />
<glyph unicode="&#x109;" horiz-adv-x="530" d="M38 0zM353 629l-70 -58h-127l1 4l142 129h128l101 -129l-1 -4h-123zM392 167l97 -69q-39 -58 -97.5 -85t-136.5 -27q-103 0 -160 49t-57 154q0 14 1 28t3 30q19 136 92.5 199.5t192.5 63.5q160 0 200 -127l-116 -65q-11 35 -32 51.5t-62 16.5q-51 0 -82.5 -32t-44.5 -107 q-2 -14 -3 -26t-1 -23q0 -48 21.5 -71t71.5 -23q37 0 65 14.5t48 48.5z" />
<glyph unicode="&#x10a;" horiz-adv-x="689" d="M58 0zM349 -14q-149 0 -220 65t-71 206q0 23 1 45.5t5 48.5q13 96 43.5 164.5t78.5 112.5t113 65t145 21q114 0 176 -45t84 -133l-137 -55q-18 57 -50.5 78t-86.5 21q-38 0 -70.5 -10.5t-58.5 -37t-45 -71t-30 -112.5q-4 -23 -5.5 -44t-1.5 -40q0 -83 38.5 -115.5 t107.5 -32.5q51 0 94 19.5t74 71.5l117 -77q-48 -80 -123.5 -112.5t-177.5 -32.5zM465 774q-76 0 -76 62q0 47 26.5 67.5t68.5 20.5q37 0 57 -15.5t20 -47.5q0 -45 -26.5 -66t-69.5 -21z" />
<glyph unicode="&#x10b;" horiz-adv-x="530" d="M38 0zM392 167l97 -69q-39 -58 -97.5 -85t-136.5 -27q-103 0 -160 49t-57 154q0 14 1 28t3 30q19 136 92.5 199.5t192.5 63.5q160 0 200 -127l-116 -65q-11 35 -32 51.5t-62 16.5q-51 0 -82.5 -32t-44.5 -107q-2 -14 -3 -26t-1 -23q0 -48 21.5 -71t71.5 -23q37 0 65 14.5 t48 48.5zM346 570q-76 0 -76 62q0 47 26.5 67.5t68.5 20.5q37 0 57 -15.5t20 -47.5q0 -45 -26.5 -66t-69.5 -21z" />
<glyph unicode="&#x10c;" horiz-adv-x="689" d="M58 0zM400 775l-101 131l1 2h125l49 -57l70 57h126v-2l-142 -131h-128zM349 -14q-149 0 -220 65t-71 206q0 23 1 45.5t5 48.5q13 96 43.5 164.5t78.5 112.5t113 65t145 21q114 0 176 -45t84 -133l-137 -55q-18 57 -50.5 78t-86.5 21q-38 0 -70.5 -10.5t-58.5 -37t-45 -71 t-30 -112.5q-4 -23 -5.5 -44t-1.5 -40q0 -83 38.5 -115.5t107.5 -32.5q51 0 94 19.5t74 71.5l117 -77q-48 -80 -123.5 -112.5t-177.5 -32.5z" />
<glyph unicode="&#x10d;" horiz-adv-x="530" d="M38 0zM281 571l-101 131l1 2h125l49 -57l70 57h126v-2l-142 -131h-128zM392 167l97 -69q-39 -58 -97.5 -85t-136.5 -27q-103 0 -160 49t-57 154q0 14 1 28t3 30q19 136 92.5 199.5t192.5 63.5q160 0 200 -127l-116 -65q-11 35 -32 51.5t-62 16.5q-51 0 -82.5 -32 t-44.5 -107q-2 -14 -3 -26t-1 -23q0 -48 21.5 -71t71.5 -23q37 0 65 14.5t48 48.5z" />
<glyph unicode="&#x10e;" horiz-adv-x="749" d="M49 0zM400 775l-101 131l1 2h125l49 -57l70 57h126v-2l-142 -131h-128zM340 0h-291l111 700h288q139 0 205 -61t66 -191q0 -19 -1.5 -44t-4.5 -49q-51 -355 -373 -355zM231 132h112q38 0 71.5 11t60 36.5t46 67.5t29.5 104q3 17 4 37t1 37q0 75 -32.5 109t-96.5 34h-126z " />
<glyph unicode="&#x10f;" horiz-adv-x="740" d="M38 0zM402 248q2 13 3 24.5t1 21.5q0 54 -24.5 76.5t-64.5 22.5q-50 0 -81 -34t-45 -112q-2 -16 -3 -26t-1 -21q0 -96 84 -96q47 0 83.5 35t47.5 109zM514 0h-130l3 74q-30 -43 -73.5 -65.5t-100.5 -22.5q-82 0 -128.5 49.5t-46.5 147.5q0 14 1 29t3 31q17 133 84.5 200 t165.5 67q97 0 137 -69l42 259h154zM746 441h-101l48 259h127z" />
<glyph unicode="&#x110;" horiz-adv-x="759" d="M351 0h-292l46 288h-72l20 122h71l46 290h287q137 0 203 -61.5t66 -191.5q0 -20 -2 -45.5t-5 -48.5q-48 -353 -368 -353zM241 132h112q38 0 71.5 10.5t60.5 35.5t46 66.5t28 102.5q3 19 5 39t2 37q0 75 -33.5 110t-96.5 35h-126l-25 -158h120l-20 -122h-120z" />
<glyph unicode="&#x111;" horiz-adv-x="640" d="M400 248q2 12 3 22.5t1 20.5q0 51 -24.5 74t-64.5 23q-51 0 -83.5 -33.5t-44.5 -107.5q-4 -23 -4 -46q0 -96 86 -96q48 0 84 34.5t47 108.5zM661 546h-61l-87 -546h-130l3 75q-31 -43 -74.5 -66t-101.5 -23q-81 0 -126.5 49t-45.5 146q0 14 1 29.5t3 30.5 q17 131 83.5 197t163.5 66q99 0 137 -70l18 112h-129l13 83h129l12 71h155l-11 -71h62z" />
<glyph unicode="&#x112;" horiz-adv-x="673" d="M49 0zM49 0l111 700h527l-21 -129h-370l-24 -153h320l-20 -130h-320l-25 -159h379l-21 -129h-536zM594 880l-15 -87h-283l13 87h285z" />
<glyph unicode="&#x113;" horiz-adv-x="557" d="M38 0zM256 -14q-101 0 -159.5 50.5t-58.5 154.5q0 14 1 27t3 29q17 125 90.5 194t196.5 69q51 0 88.5 -15t61.5 -41.5t35.5 -63t11.5 -79.5q0 -48 -14 -106h-331q-4 -54 20.5 -82.5t78.5 -28.5q42 0 71.5 13t52.5 45l86 -60q-40 -53 -94 -79.5t-140 -26.5zM313 400 q-44 0 -74 -24.5t-44 -79.5h191q1 6 1 11v11q0 42 -17.5 62t-56.5 20zM494 677l-15 -87h-283l13 87h285z" />
<glyph unicode="&#x114;" horiz-adv-x="673" d="M49 0zM49 0l111 700h527l-21 -129h-370l-24 -153h320l-20 -130h-320l-25 -159h379l-21 -129h-536zM523 907h96q-5 -40 -20 -67t-39 -43t-56 -23t-72 -7q-39 0 -69.5 7t-50 23t-27 43t-2.5 67h95q-6 -36 9.5 -49t52.5 -13t57 13t26 49z" />
<glyph unicode="&#x115;" horiz-adv-x="557" d="M38 0zM256 -14q-101 0 -159.5 50.5t-58.5 154.5q0 14 1 27t3 29q17 125 90.5 194t196.5 69q51 0 88.5 -15t61.5 -41.5t35.5 -63t11.5 -79.5q0 -48 -14 -106h-331q-4 -54 20.5 -82.5t78.5 -28.5q42 0 71.5 13t52.5 45l86 -60q-40 -53 -94 -79.5t-140 -26.5zM313 400 q-44 0 -74 -24.5t-44 -79.5h191q1 6 1 11v11q0 42 -17.5 62t-56.5 20zM424 704h96q-5 -40 -20 -67t-39 -43t-56 -23t-72 -7q-39 0 -69.5 7t-50 23t-27 43t-2.5 67h95q-6 -36 9.5 -49t52.5 -13t57 13t26 49z" />
<glyph unicode="&#x116;" horiz-adv-x="673" d="M49 0zM49 0l111 700h527l-21 -129h-370l-24 -153h320l-20 -130h-320l-25 -159h379l-21 -129h-536zM434 773q-76 0 -76 62q0 47 26.5 67.5t68.5 20.5q37 0 57 -15.5t20 -47.5q0 -45 -26.5 -66t-69.5 -21z" />
<glyph unicode="&#x117;" horiz-adv-x="557" d="M38 0zM256 -14q-101 0 -159.5 50.5t-58.5 154.5q0 14 1 27t3 29q17 125 90.5 194t196.5 69q51 0 88.5 -15t61.5 -41.5t35.5 -63t11.5 -79.5q0 -48 -14 -106h-331q-4 -54 20.5 -82.5t78.5 -28.5q42 0 71.5 13t52.5 45l86 -60q-40 -53 -94 -79.5t-140 -26.5zM313 400 q-44 0 -74 -24.5t-44 -79.5h191q1 6 1 11v11q0 42 -17.5 62t-56.5 20zM335 570q-76 0 -76 62q0 47 26.5 67.5t68.5 20.5q37 0 57 -15.5t20 -47.5q0 -45 -26.5 -66t-69.5 -21z" />
<glyph unicode="&#x118;" horiz-adv-x="673" d="M49 0l111 700h527l-20 -128h-369l-24 -154h319l-21 -130h-319l-25 -159h378l-20 -129q-24 -2 -42.5 -11t-30.5 -22.5t-18.5 -29.5t-6.5 -31q0 -27 15.5 -37t38.5 -10q17 0 34.5 4t33.5 13l13 -78q-45 -27 -101 -27q-24 0 -47 5t-41 17.5t-28.5 33.5t-10.5 52 q0 38 15 68.5t39 52.5h-400z" />
<glyph unicode="&#x119;" horiz-adv-x="557" d="M309 -229q-24 0 -47 5t-40.5 17.5t-28.5 33.5t-11 52q0 33 11 60.5t30 48.5q-87 8 -136 57t-49 146q0 14 1 27t3 29q17 125 90.5 194t196.5 69q51 0 88.5 -15t61.5 -41.5t35.5 -63t11.5 -79.5q0 -48 -14 -106h-331q-4 -54 20.5 -82.5t78.5 -28.5q42 0 71.5 13t52.5 45 l86 -60q-54 -73 -143 -96q-35 -9 -53 -36.5t-18 -53.5q0 -27 15.5 -37t38.5 -10q37 0 67 17l14 -78q-45 -27 -102 -27zM313 400q-44 0 -74 -24.5t-44 -79.5h191q1 6 1 11v11q0 42 -17.5 62t-56.5 20z" />
<glyph unicode="&#x11a;" horiz-adv-x="673" d="M49 0zM370 775l-101 131l1 2h125l49 -57l70 57h126v-2l-142 -131h-128zM49 0l111 700h527l-21 -129h-370l-24 -153h320l-20 -130h-320l-25 -159h379l-21 -129h-536z" />
<glyph unicode="&#x11b;" horiz-adv-x="556" d="M38 0zM271 571l-101 131l1 2h125l49 -57l70 57h126v-2l-142 -131h-128zM256 -14q-101 0 -159.5 50.5t-58.5 154.5q0 14 1 27t3 29q17 125 90.5 194t196.5 69q51 0 88.5 -15t61.5 -41.5t35.5 -63t11.5 -79.5q0 -48 -14 -106h-331q-4 -54 20.5 -82.5t78.5 -28.5 q42 0 71.5 13t52.5 45l86 -60q-40 -53 -94 -79.5t-140 -26.5zM313 400q-44 0 -74 -24.5t-44 -79.5h191q1 6 1 11v11q0 42 -17.5 62t-56.5 20z" />
<glyph unicode="&#x11c;" horiz-adv-x="730" d="M58 0zM464 832l-70 -58h-127l1 4l142 129h128l101 -129l-1 -4h-123zM320 -14q-126 0 -194 68t-68 209q0 40 6 88q25 190 119.5 276.5t261.5 86.5q109 0 170 -40.5t83 -119.5l-137 -58q-15 46 -45.5 65t-83.5 19q-40 0 -73.5 -11t-59.5 -38t-44.5 -71t-28.5 -110 q-4 -24 -5.5 -45t-1.5 -39q0 -42 9.5 -71t28 -46.5t45 -25t60.5 -7.5q25 0 51 6t48.5 22t40.5 43t27 69h-143l18 122h289l-61 -378h-114l4 86q-34 -48 -83.5 -74t-118.5 -26z" />
<glyph unicode="&#x11d;" horiz-adv-x="619" d="M0 0zM345 629l-70 -58h-127l1 4l142 129h128l101 -129l-1 -4h-123zM399 257q2 10 3 20.5t1 19.5q0 50 -24.5 73.5t-64.5 23.5q-103 0 -124 -136q-2 -12 -3 -22.5t-1 -21.5q0 -48 21.5 -70.5t62.5 -22.5q48 0 81.5 33t47.5 103zM589 497l-75 -477q-10 -62 -37 -107.5 t-67 -75t-91.5 -44t-110.5 -14.5q-73 0 -130 24.5t-80 84.5l96 77q17 -40 48 -56.5t73 -16.5q60 0 96.5 30t47.5 96l10 62q-57 -74 -157 -74q-81 0 -127.5 48t-46.5 145q0 14 1 27.5t3 29.5q17 128 82.5 191t162.5 63q57 0 96 -22t58 -67l24 76h124z" />
<glyph unicode="&#x11e;" horiz-adv-x="730" d="M58 0zM320 -14q-126 0 -194 68t-68 209q0 40 6 88q25 190 119.5 276.5t261.5 86.5q109 0 170 -40.5t83 -119.5l-137 -58q-15 46 -45.5 65t-83.5 19q-40 0 -73.5 -11t-59.5 -38t-44.5 -71t-28.5 -110q-4 -24 -5.5 -45t-1.5 -39q0 -42 9.5 -71t28 -46.5t45 -25t60.5 -7.5 q25 0 51 6t48.5 22t40.5 43t27 69h-143l18 122h289l-61 -378h-114l4 86q-34 -48 -83.5 -74t-118.5 -26zM546 907h96q-5 -40 -20 -67t-39 -43t-56 -23t-72 -7q-39 0 -69.5 7t-50 23t-27 43t-2.5 67h95q-6 -36 9.5 -49t52.5 -13t57 13t26 49z" />
<glyph unicode="&#x11f;" horiz-adv-x="619" d="M0 0zM399 257q2 10 3 20.5t1 19.5q0 50 -24.5 73.5t-64.5 23.5q-103 0 -124 -136q-2 -12 -3 -22.5t-1 -21.5q0 -48 21.5 -70.5t62.5 -22.5q48 0 81.5 33t47.5 103zM589 497l-75 -477q-10 -62 -37 -107.5t-67 -75t-91.5 -44t-110.5 -14.5q-73 0 -130 24.5t-80 84.5l96 77 q17 -40 48 -56.5t73 -16.5q60 0 96.5 30t47.5 96l10 62q-57 -74 -157 -74q-81 0 -127.5 48t-46.5 145q0 14 1 27.5t3 29.5q17 128 82.5 191t162.5 63q57 0 96 -22t58 -67l24 76h124zM427 704h96q-5 -40 -20 -67t-39 -43t-56 -23t-72 -7q-39 0 -69.5 7t-50 23t-27 43t-2.5 67 h95q-6 -36 9.5 -49t52.5 -13t57 13t26 49z" />
<glyph unicode="&#x120;" horiz-adv-x="730" d="M58 0zM320 -14q-126 0 -194 68t-68 209q0 40 6 88q25 190 119.5 276.5t261.5 86.5q109 0 170 -40.5t83 -119.5l-137 -58q-15 46 -45.5 65t-83.5 19q-40 0 -73.5 -11t-59.5 -38t-44.5 -71t-28.5 -110q-4 -24 -5.5 -45t-1.5 -39q0 -42 9.5 -71t28 -46.5t45 -25t60.5 -7.5 q25 0 51 6t48.5 22t40.5 43t27 69h-143l18 122h289l-61 -378h-114l4 86q-34 -48 -83.5 -74t-118.5 -26zM458 773q-76 0 -76 62q0 47 26.5 67.5t68.5 20.5q37 0 57 -15.5t20 -47.5q0 -45 -26.5 -66t-69.5 -21z" />
<glyph unicode="&#x121;" horiz-adv-x="619" d="M0 0zM399 257q2 10 3 20.5t1 19.5q0 50 -24.5 73.5t-64.5 23.5q-103 0 -124 -136q-2 -12 -3 -22.5t-1 -21.5q0 -48 21.5 -70.5t62.5 -22.5q48 0 81.5 33t47.5 103zM589 497l-75 -477q-10 -62 -37 -107.5t-67 -75t-91.5 -44t-110.5 -14.5q-73 0 -130 24.5t-80 84.5l96 77 q17 -40 48 -56.5t73 -16.5q60 0 96.5 30t47.5 96l10 62q-57 -74 -157 -74q-81 0 -127.5 48t-46.5 145q0 14 1 27.5t3 29.5q17 128 82.5 191t162.5 63q57 0 96 -22t58 -67l24 76h124zM338 570q-76 0 -76 62q0 47 26.5 67.5t68.5 20.5q37 0 57 -15.5t20 -47.5q0 -45 -26.5 -66 t-69.5 -21z" />
<glyph unicode="&#x122;" horiz-adv-x="730" d="M58 0zM243 -329l-18 57q29 8 52 26.5t32 44.5q-35 0 -54 15.5t-19 45.5q0 43 25.5 64t65.5 21q35 0 55 -18.5t20 -56.5q0 -37 -12.5 -70.5t-34 -60.5t-50.5 -44.5t-62 -23.5zM320 -14q-126 0 -194 68t-68 209q0 40 6 88q25 190 119.5 276.5t261.5 86.5q109 0 170 -40.5 t83 -119.5l-137 -58q-15 46 -45.5 65t-83.5 19q-40 0 -73.5 -11t-59.5 -38t-44.5 -71t-28.5 -110q-4 -24 -5.5 -45t-1.5 -39q0 -42 9.5 -71t28 -46.5t45 -25t60.5 -7.5q25 0 51 6t48.5 22t40.5 43t27 69h-143l18 122h289l-61 -378h-114l4 86q-34 -48 -83.5 -74t-118.5 -26z " />
<glyph unicode="&#x123;" horiz-adv-x="619" d="M422 835l18 -57q-29 -8 -52 -26.5t-32 -44.5q35 0 54 -15.5t19 -45.5q0 -43 -25.5 -64t-65.5 -21q-35 0 -55 18.5t-20 56.5q0 37 12.5 70.5t34 60.5t50.5 44.5t62 23.5zM399 257q2 10 3 20.5t1 19.5q0 50 -24.5 73.5t-64.5 23.5q-103 0 -124 -136q-2 -12 -3 -22.5 t-1 -21.5q0 -48 21.5 -70.5t62.5 -22.5q48 0 81.5 33t47.5 103zM589 497l-75 -477q-10 -62 -37 -107.5t-67 -75t-91.5 -44t-110.5 -14.5q-73 0 -130 24.5t-80 84.5l96 77q17 -40 48 -56.5t73 -16.5q60 0 96.5 30t47.5 96l10 62q-57 -74 -157 -74q-81 0 -127.5 48t-46.5 145 q0 14 1 27.5t3 29.5q17 128 82.5 191t162.5 63q57 0 96 -22t58 -67l24 76h124z" />
<glyph unicode="&#x124;" horiz-adv-x="799" d="M49 0zM493 832l-70 -58h-127l1 4l142 129h128l101 -129l-1 -4h-123zM505 0l44 280h-295l-44 -280h-161l111 700h161l-44 -280h295l44 280h161l-111 -700h-161z" />
<glyph unicode="&#x125;" horiz-adv-x="632" d="M28 0zM232 811l-70 -58h-127l1 4l142 129h128l101 -129l-1 -4h-123zM293 700l-46 -291q33 50 81 75.5t102 25.5q72 0 112.5 -38.5t40.5 -111.5q0 -12 -1.5 -24t-3.5 -25l-49 -311h-154l41 261q2 11 3 21.5t1 19.5q0 38 -18.5 54.5t-53.5 16.5q-45 0 -81 -33.5t-47 -100.5 l-38 -239h-154l111 700h154z" />
<glyph unicode="&#x126;" horiz-adv-x="819" d="M287 420h294l13 81h-294zM88 586h64l18 114h161l-18 -114h295l18 114h161l-18 -114h65l-13 -85h-66l-79 -501h-161l44 280h-294l-45 -280h-161l80 501h-64z" />
<glyph unicode="&#x127;" horiz-adv-x="645" d="M65 546l12 83h63l12 71h155l-12 -71h129l-12 -83h-130l-22 -141q34 51 81.5 75.5t101.5 24.5q72 0 112.5 -39.5t40.5 -112.5q0 -26 -4 -49l-49 -304h-155l41 253q3 22 3 41q0 38 -17.5 55.5t-52.5 17.5q-48 0 -82.5 -34t-45.5 -100l-38 -233h-155l86 546h-62z" />
<glyph unicode="&#x128;" horiz-adv-x="343" d="M49 0zM49 0l111 700h161l-111 -700h-161zM354 903h91q-2 -35 -13 -58.5t-28 -37.5t-37 -20t-39 -6q-22 0 -40 5.5t-33.5 11.5t-29 11.5t-27.5 5.5q-17 0 -24 -10.5t-9 -23.5h-93q2 35 13.5 58.5t28 38t36.5 20.5t39 6q22 0 40 -5.5t34 -12t30 -12t28 -5.5q17 0 24 10 t9 24z" />
<glyph unicode="&#x129;" horiz-adv-x="292" d="M15 0zM107 497h155l-79 -497h-154zM297 700h91q-2 -35 -13 -58.5t-28 -37.5t-37 -20t-39 -6q-22 0 -40 5.5t-33.5 11.5t-29 11.5t-27.5 5.5q-17 0 -24 -10.5t-9 -23.5h-93q2 35 13.5 58.5t28 38t36.5 20.5t39 6q22 0 40 -5.5t34 -12t30 -12t28 -5.5q17 0 24 10t9 24z" />
<glyph unicode="&#x12a;" horiz-adv-x="343" d="M49 0zM49 0l111 700h161l-111 -700h-161zM411 880l-15 -87h-283l13 87h285z" />
<glyph unicode="&#x12b;" horiz-adv-x="292" d="M29 0zM107 497h155l-79 -497h-154zM354 677l-15 -87h-283l13 87h285z" />
<glyph unicode="&#x12c;" horiz-adv-x="343" d="M49 0zM49 0l111 700h161l-111 -700h-161zM342 907h96q-5 -40 -20 -67t-39 -43t-56 -23t-72 -7q-39 0 -69.5 7t-50 23t-27 43t-2.5 67h95q-6 -36 9.5 -49t52.5 -13t57 13t26 49z" />
<glyph unicode="&#x12d;" horiz-adv-x="292" d="M29 0zM107 497h155l-79 -497h-154zM284 704h96q-5 -40 -20 -67t-39 -43t-56 -23t-72 -7q-39 0 -69.5 7t-50 23t-27 43t-2.5 67h95q-6 -36 9.5 -49t52.5 -13t57 13t26 49z" />
<glyph unicode="&#x12e;" horiz-adv-x="343" d="M89 -229q-24 0 -47 5t-41 17.5t-29 33.5t-11 52q0 26 7.5 48t20.5 40t29 31.5t34 22.5l108 679h161l-111 -700h-58q-24 -2 -42 -11t-30.5 -22.5t-19 -29.5t-6.5 -31q0 -27 16 -37t39 -10q37 0 68 17l13 -78q-45 -27 -101 -27z" />
<glyph unicode="&#x12f;" horiz-adv-x="292" d="M196 562q-38 0 -59 16t-21 51q0 51 29 73.5t72 22.5q79 0 79 -68q0 -48 -26.5 -71.5t-73.5 -23.5zM45 -229q-24 0 -47 5t-40.5 17.5t-28.5 33.5t-11 52q0 30 9.5 55.5t25.5 45.5t37.5 34.5t44.5 22.5l71 460h156l-78 -497h-75q-24 -2 -42 -11t-30 -22.5t-18.5 -29.5 t-6.5 -31q0 -27 15.5 -37t38.5 -10q37 0 68 17l13 -78q-45 -27 -102 -27z" />
<glyph unicode="&#x130;" horiz-adv-x="343" d="M49 0zM49 0l111 700h161l-111 -700h-161zM253 773q-76 0 -76 62q0 47 26.5 67.5t68.5 20.5q37 0 57 -15.5t20 -47.5q0 -45 -26.5 -66t-69.5 -21z" />
<glyph unicode="&#x131;" horiz-adv-x="292" d="M107 497h155l-79 -497h-154z" />
<glyph unicode="&#x132;" horiz-adv-x="880" d="M49 0zM49 0l111 700h161l-111 -700h-161zM314 48l81 118q22 -21 51.5 -32.5t60.5 -11.5q52 0 87.5 32.5t48.5 110.5l70 435h160l-69 -437q-12 -78 -40 -131t-67.5 -85.5t-90 -46.5t-108.5 -14q-51 0 -99 15t-85 47z" />
<glyph unicode="&#x133;" horiz-adv-x="585" d="M29 0zM196 562q-80 0 -80 68q0 49 28 72t73 23q79 0 79 -67q0 -50 -27.5 -73t-72.5 -23zM107 497h155l-79 -497h-154zM488 562q-80 0 -80 68q0 49 28 72t73 23q38 0 58.5 -16.5t20.5 -50.5q0 -50 -27 -73t-73 -23zM316 -20l83 517h154l-83 -526q-15 -98 -73 -145 t-141 -47q-26 0 -52.5 5t-50.5 17l38 105q11 -5 22.5 -8t26.5 -3q32 0 50.5 18.5t25.5 66.5z" />
<glyph unicode="&#x134;" horiz-adv-x="537" d="M0 0zM466 832l-70 -58h-127l1 4l142 129h128l101 -129l-1 -4h-123zM-29 48l81 118q22 -21 51.5 -32.5t60.5 -11.5q52 0 87.5 32.5t48.5 110.5l70 435h160l-69 -437q-12 -78 -40 -131t-67.5 -85.5t-90 -46.5t-108.5 -14q-51 0 -99 15t-85 47z" />
<glyph unicode="&#x135;" horiz-adv-x="291" d="M0 0zM24 -20l83 517h154l-83 -526q-15 -98 -73 -145t-141 -47q-26 0 -52.5 5t-50.5 17l38 105q11 -5 22.5 -8t26.5 -3q32 0 50 18.5t26 66.5zM201 629l-70 -58h-127l1 4l142 129h128l101 -129l-1 -4h-123z" />
<glyph unicode="&#x136;" horiz-adv-x="712" d="M49 0zM243 -329l-18 57q29 8 52 26.5t32 44.5q-35 0 -54 15.5t-19 45.5q0 43 25.5 64t65.5 21q35 0 55 -18.5t20 -56.5q0 -37 -12.5 -70.5t-34 -60.5t-50.5 -44.5t-62 -23.5zM49 0l111 700h161l-52 -325l305 325h191l-304 -313l192 -387h-192l-129 269l-94 -93l-28 -176 h-161z" />
<glyph unicode="&#x137;" horiz-adv-x="573" d="M28 0zM175 -331l-18 57q29 8 52 26.5t32 44.5q-35 0 -54 15.5t-19 45.5q0 43 25.5 64t65.5 21q35 0 55 -18.5t20 -56.5q0 -37 -12.5 -70.5t-34 -60.5t-50.5 -44.5t-62 -23.5zM294 701l-74 -434l216 230h168l-217 -220l142 -277h-170l-87 178l-75 -72l-16 -106h-153 l111 701h155z" />
<glyph unicode="&#x138;" horiz-adv-x="582" d="M263 497l-38 -227l215 227h168l-218 -220l142 -277h-170l-89 174l-71 -68l-18 -106h-152l78 497h153z" />
<glyph unicode="&#x139;" horiz-adv-x="635" d="M49 0zM256 908h166l-1 -6l-145 -127h-122v5zM231 136h356l-22 -136h-516l111 700h160z" />
<glyph unicode="&#x13a;" horiz-adv-x="299" d="M33 0zM256 908h166l-1 -6l-145 -127h-122v5zM165 0q-69 0 -100.5 32t-19.5 109l88 559h155l-85 -538q-4 -24 3 -34.5t32 -10.5h37l-18 -117h-92z" />
<glyph unicode="&#x13b;" horiz-adv-x="635" d="M49 0zM237 -329l-18 57q29 8 52 26.5t32 44.5q-35 0 -54 15.5t-19 45.5q0 43 25.5 64t65.5 21q35 0 55 -18.5t20 -56.5q0 -37 -12.5 -70.5t-34 -60.5t-50.5 -44.5t-62 -23.5zM231 136h356l-22 -136h-516l111 700h160z" />
<glyph unicode="&#x13c;" horiz-adv-x="299" d="M30 0zM165 0q-69 0 -100.5 32t-19.5 109l88 559h155l-85 -538q-4 -24 3 -34.5t32 -10.5h37l-18 -117h-92zM48 -329l-18 57q29 8 52 26.5t32 44.5q-35 0 -54 15.5t-19 45.5q0 43 25.5 64t65.5 21q35 0 55 -18.5t20 -56.5q0 -37 -12.5 -70.5t-34 -60.5t-50.5 -44.5 t-62 -23.5z" />
<glyph unicode="&#x13d;" horiz-adv-x="635" d="M49 0zM527 441h-101l48 259h127zM231 136h356l-22 -136h-516l111 700h160z" />
<glyph unicode="&#x13e;" horiz-adv-x="411" d="M33 0zM165 0q-69 0 -100.5 32t-19.5 109l88 559h155l-85 -538q-4 -24 3 -34.5t32 -10.5h37l-18 -117h-92zM417 441h-101l48 259h127z" />
<glyph unicode="&#x13f;" horiz-adv-x="630" d="M49 0zM231 136h356l-22 -136h-516l111 700h160zM480 286q-76 0 -76 62q0 47 26.5 67.5t68.5 20.5q37 0 57 -15.5t20 -47.5q0 -45 -26.5 -66t-69.5 -21z" />
<glyph unicode="&#x140;" horiz-adv-x="438" d="M33 0zM165 0q-69 0 -100.5 32t-19.5 109l88 559h155l-85 -538q-4 -24 3 -34.5t32 -10.5h37l-18 -117h-92zM356 229q-76 0 -76 62q0 47 26.5 67.5t68.5 20.5q37 0 57 -15.5t20 -47.5q0 -45 -26.5 -66t-69.5 -21z" />
<glyph unicode="&#x141;" horiz-adv-x="646" d="M248 136h355l-22 -136h-516l34 218l-93 -50l18 127l95 50l57 355h161l-43 -272l176 90l-20 -128l-176 -89z" />
<glyph unicode="&#x142;" horiz-adv-x="321" d="M278 0h-92q-69 0 -100.5 32t-19.5 109l14 86h-1l-88 -59l20 128l88 58h1l54 346h155l-39 -245l94 62l-21 -127l-93 -63l-26 -165q-4 -24 3 -34.5t32 -10.5h37z" />
<glyph unicode="&#x143;" horiz-adv-x="793" d="M49 0zM503 908h166l-1 -6l-145 -127h-122v5zM518 0l-251 448l-66 -448h-152l111 700h127l261 -469l70 469h152l-111 -700h-141z" />
<glyph unicode="&#x144;" horiz-adv-x="633" d="M28 0zM393 704h166l-1 -6l-145 -127h-122v5zM28 0l78 497h127v-89q35 51 85 76.5t107 25.5q82 0 120 -41.5t38 -110.5q0 -12 -1.5 -24t-3.5 -24l-49 -310h-154l42 262q3 22 3 40q0 38 -18.5 54.5t-53.5 16.5q-46 0 -81.5 -33t-45.5 -96l-39 -244h-154z" />
<glyph unicode="&#x145;" horiz-adv-x="793" d="M49 0zM267 -329l-18 57q29 8 52 26.5t32 44.5q-35 0 -54 15.5t-19 45.5q0 43 25.5 64t65.5 21q35 0 55 -18.5t20 -56.5q0 -37 -12.5 -70.5t-34 -60.5t-50.5 -44.5t-62 -23.5zM518 0l-251 448l-66 -448h-152l111 700h127l261 -469l70 469h152l-111 -700h-141z" />
<glyph unicode="&#x146;" horiz-adv-x="633" d="M28 0zM187 -329l-18 57q29 8 52 26.5t32 44.5q-35 0 -54 15.5t-19 45.5q0 43 25.5 64t65.5 21q35 0 55 -18.5t20 -56.5q0 -37 -12.5 -70.5t-34 -60.5t-50.5 -44.5t-62 -23.5zM28 0l78 497h127v-89q35 51 85 76.5t107 25.5q82 0 120 -41.5t38 -110.5q0 -12 -1.5 -24 t-3.5 -24l-49 -310h-154l42 262q3 22 3 40q0 38 -18.5 54.5t-53.5 16.5q-46 0 -81.5 -33t-45.5 -96l-39 -244h-154z" />
<glyph unicode="&#x147;" horiz-adv-x="793" d="M49 0zM406 775l-101 131l1 2h125l49 -57l70 57h126v-2l-142 -131h-128zM518 0l-251 448l-66 -448h-152l111 700h127l261 -469l70 469h152l-111 -700h-141z" />
<glyph unicode="&#x148;" horiz-adv-x="633" d="M28 0zM297 571l-101 131l1 2h125l49 -57l70 57h126v-2l-142 -131h-128zM28 0l78 497h127v-89q35 51 85 76.5t107 25.5q82 0 120 -41.5t38 -110.5q0 -12 -1.5 -24t-3.5 -24l-49 -310h-154l42 262q3 22 3 40q0 38 -18.5 54.5t-53.5 16.5q-46 0 -81.5 -33t-45.5 -96 l-39 -244h-154z" />
<glyph unicode="&#x14a;" horiz-adv-x="793" d="M503 -20l6 35l-241 430l-66 -445h-153l111 700h127l261 -469l70 469h153l-115 -730q-15 -98 -73.5 -144.5t-142.5 -46.5q-25 0 -51.5 4.5t-49.5 16.5l38 106q11 -5 22.5 -8t27.5 -3q32 0 50.5 18t25.5 67z" />
<glyph unicode="&#x14b;" horiz-adv-x="638" d="M372 -19l44 278q2 11 3 23t1 20q0 38 -18.5 54.5t-53.5 16.5q-46 0 -81.5 -33t-45.5 -96l-38 -244h-155l78 497h127v-87q35 51 85 75.5t107 24.5q81 0 119.5 -41.5t38.5 -110.5q0 -12 -1 -24t-3 -24l-54 -340q-16 -99 -73.5 -145t-141.5 -46q-25 0 -52 5t-50 17l37 105 q11 -5 23 -8t27 -3q32 0 50.5 19t26.5 67z" />
<glyph unicode="&#x14c;" horiz-adv-x="772" d="M58 0zM621 880l-15 -87h-283l13 87h285zM64 351q25 185 118.5 274t263.5 89q152 0 222 -66t70 -203q0 -22 -1.5 -45.5t-5.5 -49.5q-25 -186 -118.5 -275t-263.5 -89q-151 0 -221 67.5t-70 204.5q0 42 6 93zM574 433q0 81 -36.5 114t-105.5 33q-42 0 -76 -11.5 t-59.5 -38.5t-43 -71t-27.5 -110q-4 -23 -6 -44t-2 -39q0 -80 36.5 -113.5t104.5 -33.5q42 0 76 12t60 39t43.5 71.5t28.5 109.5q4 23 5.5 43.5t1.5 38.5z" />
<glyph unicode="&#x14d;" horiz-adv-x="596" d="M38 0zM500 677l-15 -87h-283l13 87h285zM42 249q17 134 93.5 197.5t195.5 63.5q115 0 171 -48.5t56 -151.5q0 -14 -1.5 -29t-3.5 -32q-17 -132 -90.5 -197.5t-199.5 -65.5q-225 0 -225 203q0 14 1 28.5t3 31.5zM406 248q2 14 3.5 27t1.5 24q0 50 -22.5 71.5t-69.5 21.5 q-58 0 -88.5 -33t-42.5 -111q-2 -15 -3 -28t-1 -24q0 -51 22 -72.5t68 -21.5q56 0 87.5 34t44.5 112z" />
<glyph unicode="&#x14e;" horiz-adv-x="772" d="M58 0zM64 351q25 185 118.5 274t263.5 89q152 0 222 -66t70 -203q0 -22 -1.5 -45.5t-5.5 -49.5q-25 -186 -118.5 -275t-263.5 -89q-151 0 -221 67.5t-70 204.5q0 42 6 93zM574 433q0 81 -36.5 114t-105.5 33q-42 0 -76 -11.5t-59.5 -38.5t-43 -71t-27.5 -110 q-4 -23 -6 -44t-2 -39q0 -80 36.5 -113.5t104.5 -33.5q42 0 76 12t60 39t43.5 71.5t28.5 109.5q4 23 5.5 43.5t1.5 38.5zM550 907h96q-5 -40 -20 -67t-39 -43t-56 -23t-72 -7q-39 0 -69.5 7t-50 23t-27 43t-2.5 67h95q-6 -36 9.5 -49t52.5 -13t57 13t26 49z" />
<glyph unicode="&#x14f;" horiz-adv-x="596" d="M38 0zM42 249q17 134 93.5 197.5t195.5 63.5q115 0 171 -48.5t56 -151.5q0 -14 -1.5 -29t-3.5 -32q-17 -132 -90.5 -197.5t-199.5 -65.5q-225 0 -225 203q0 14 1 28.5t3 31.5zM406 248q2 14 3.5 27t1.5 24q0 50 -22.5 71.5t-69.5 21.5q-58 0 -88.5 -33t-42.5 -111 q-2 -15 -3 -28t-1 -24q0 -51 22 -72.5t68 -21.5q56 0 87.5 34t44.5 112zM429 704h96q-5 -40 -20 -67t-39 -43t-56 -23t-72 -7q-39 0 -69.5 7t-50 23t-27 43t-2.5 67h95q-6 -36 9.5 -49t52.5 -13t57 13t26 49z" />
<glyph unicode="&#x150;" horiz-adv-x="772" d="M58 0zM582 907h162l-1 -6l-148 -127h-110v5zM396 907h149l-1 -6l-129 -127h-107l1 5zM64 351q25 185 118.5 274t263.5 89q152 0 222 -66t70 -203q0 -22 -1.5 -45.5t-5.5 -49.5q-25 -186 -118.5 -275t-263.5 -89q-151 0 -221 67.5t-70 204.5q0 42 6 93zM574 433 q0 81 -36.5 114t-105.5 33q-42 0 -76 -11.5t-59.5 -38.5t-43 -71t-27.5 -110q-4 -23 -6 -44t-2 -39q0 -80 36.5 -113.5t104.5 -33.5q42 0 76 12t60 39t43.5 71.5t28.5 109.5q4 23 5.5 43.5t1.5 38.5z" />
<glyph unicode="&#x151;" horiz-adv-x="595" d="M38 0zM461 704h162l-1 -6l-148 -127h-110v5zM275 704h149l-1 -6l-129 -127h-107l1 5zM42 249q17 134 93.5 197.5t195.5 63.5q115 0 171 -48.5t56 -151.5q0 -14 -1.5 -29t-3.5 -32q-17 -132 -90.5 -197.5t-199.5 -65.5q-225 0 -225 203q0 14 1 28.5t3 31.5zM406 248 q2 14 3.5 27t1.5 24q0 50 -22.5 71.5t-69.5 21.5q-58 0 -88.5 -33t-42.5 -111q-2 -15 -3 -28t-1 -24q0 -51 22 -72.5t68 -21.5q56 0 87.5 34t44.5 112z" />
<glyph unicode="&#x152;" horiz-adv-x="1076" d="M429 700h661l-21 -129h-365l-24 -153h316l-21 -130h-316l-25 -159h375l-21 -129h-651q-140 0 -209.5 63.5t-69.5 198.5q0 40 6 85q22 176 111.5 264.5t253.5 88.5zM219 273q0 -72 31 -106.5t93 -34.5h134l68 436h-123q-40 0 -72 -11.5t-56.5 -37t-41.5 -67t-27 -102.5 q-3 -19 -4.5 -39.5t-1.5 -37.5z" />
<glyph unicode="&#x153;" horiz-adv-x="932" d="M629 -14q-119 0 -176 67q-72 -67 -190 -67q-225 0 -225 204q0 14 1 28t3 31q17 131 92 196t197 65q124 0 175 -69q75 69 196 69q51 0 88.5 -15t61.5 -41.5t35.5 -63t11.5 -79.5q0 -48 -14 -106h-331q-4 -54 20.5 -82.5t78.5 -28.5q42 0 71.5 13t52.5 45l86 -60 q-40 -53 -94 -79.5t-140 -26.5zM687 400q-45 0 -75 -24.5t-44 -79.5h191q1 4 1 14q2 45 -15.5 67.5t-57.5 22.5zM407 247q2 14 2.5 26.5t0.5 24.5q0 95 -91 95q-57 0 -88.5 -35.5t-43.5 -110.5q-2 -14 -3 -26t-1 -23q0 -96 90 -96q57 0 89.5 35t44.5 110z" />
<glyph unicode="&#x154;" horiz-adv-x="698" d="M49 0zM473 908h166l-1 -6l-145 -127h-122v5zM450 565h-152l-32 -204h150q49 0 83.5 32.5t34.5 95.5q0 35 -19.5 55.5t-64.5 20.5zM381 230h-136l-36 -230h-160l111 700h329q105 0 155.5 -50t50.5 -136q0 -97 -41.5 -161t-111.5 -94l82 -259h-176z" />
<glyph unicode="&#x155;" horiz-adv-x="406" d="M28 0zM316 704h166l-1 -6l-145 -127h-122v5zM28 0l78 497h128v-98q34 55 83.5 84t107.5 27l-23 -150q-80 7 -127.5 -38t-61.5 -125l-31 -197h-154z" />
<glyph unicode="&#x156;" horiz-adv-x="698" d="M49 0zM228 -329l-18 57q29 8 52 26.5t32 44.5q-35 0 -54 15.5t-19 45.5q0 43 25.5 64t65.5 21q35 0 55 -18.5t20 -56.5q0 -37 -12.5 -70.5t-34 -60.5t-50.5 -44.5t-62 -23.5zM450 565h-152l-32 -204h150q49 0 83.5 32.5t34.5 95.5q0 35 -19.5 55.5t-64.5 20.5zM381 230 h-136l-36 -230h-160l111 700h329q105 0 155.5 -50t50.5 -136q0 -97 -41.5 -161t-111.5 -94l82 -259h-176z" />
<glyph unicode="&#x157;" horiz-adv-x="406" d="M0 0zM15 -329l-18 57q29 8 52 26.5t32 44.5q-35 0 -54 15.5t-19 45.5q0 43 25.5 64t65.5 21q35 0 55 -18.5t20 -56.5q0 -37 -12.5 -70.5t-34 -60.5t-50.5 -44.5t-62 -23.5zM30 0l78 497h128v-98q34 55 83.5 84t107.5 27l-23 -150q-80 7 -127.5 -38t-61.5 -125l-31 -197 h-154z" />
<glyph unicode="&#x158;" horiz-adv-x="698" d="M49 0zM376 775l-101 131l1 2h125l49 -57l70 57h126v-2l-142 -131h-128zM450 565h-152l-32 -204h150q49 0 83.5 32.5t34.5 95.5q0 35 -19.5 55.5t-64.5 20.5zM381 230h-136l-36 -230h-160l111 700h329q105 0 155.5 -50t50.5 -136q0 -97 -41.5 -161t-111.5 -94l82 -259 h-176z" />
<glyph unicode="&#x159;" horiz-adv-x="404" d="M28 0zM226 571l-101 131l1 2h125l49 -57l70 57h126v-2l-142 -131h-128zM28 0l78 497h128v-98q34 55 83.5 84t107.5 27l-23 -150q-80 7 -127.5 -38t-61.5 -125l-31 -197h-154z" />
<glyph unicode="&#x15a;" horiz-adv-x="621" d="M4 0zM416 908h166l-1 -6l-145 -127h-122v5zM611 578l-120 -70q-21 39 -51 61.5t-84 22.5q-63 0 -93.5 -22t-30.5 -60q0 -27 20 -48.5t72 -35.5l54 -15q53 -15 89 -34t58.5 -43t32.5 -53t10 -62q0 -55 -21 -98.5t-60 -73.5t-95.5 -45.5t-127.5 -15.5q-43 0 -82 7.5 t-72.5 24t-60.5 44t-45 66.5l121 73q26 -57 60.5 -78t87.5 -21q69 0 105 23.5t36 67.5q0 31 -20.5 48t-70.5 31l-55 15q-50 13 -85 33.5t-56.5 46t-31.5 55.5t-10 62q0 51 18.5 93t54 72.5t88.5 47.5t122 17q84 0 147.5 -31t95.5 -105z" />
<glyph unicode="&#x15b;" horiz-adv-x="507" d="M3 0zM327 704h166l-1 -6l-145 -127h-122v5zM221 89q85 0 85 46q0 15 -12 24.5t-47 18.5l-38 10q-71 19 -107 55t-36 99q0 35 14 66t41.5 53.5t69 35.5t96.5 13q73 0 119.5 -23t76.5 -65l-88 -79q-23 31 -52 44.5t-62 13.5q-40 0 -58.5 -12t-18.5 -32q0 -18 13.5 -27 t39.5 -17l58 -16q63 -17 97 -52t34 -89q0 -32 -12 -62.5t-39 -54.5t-71 -38.5t-107 -14.5q-77 0 -131 26t-83 79l88 67q20 -35 53 -52t77 -17z" />
<glyph unicode="&#x15c;" horiz-adv-x="621" d="M4 0zM391 832l-70 -58h-127l1 4l142 129h128l101 -129l-1 -4h-123zM611 578l-120 -70q-21 39 -51 61.5t-84 22.5q-63 0 -93.5 -22t-30.5 -60q0 -27 20 -48.5t72 -35.5l54 -15q53 -15 89 -34t58.5 -43t32.5 -53t10 -62q0 -55 -21 -98.5t-60 -73.5t-95.5 -45.5 t-127.5 -15.5q-43 0 -82 7.5t-72.5 24t-60.5 44t-45 66.5l121 73q26 -57 60.5 -78t87.5 -21q69 0 105 23.5t36 67.5q0 31 -20.5 48t-70.5 31l-55 15q-50 13 -85 33.5t-56.5 46t-31.5 55.5t-10 62q0 51 18.5 93t54 72.5t88.5 47.5t122 17q84 0 147.5 -31t95.5 -105z" />
<glyph unicode="&#x15d;" horiz-adv-x="507" d="M3 0zM302 629l-70 -58h-127l1 4l142 129h128l101 -129l-1 -4h-123zM221 89q85 0 85 46q0 15 -12 24.5t-47 18.5l-38 10q-71 19 -107 55t-36 99q0 35 14 66t41.5 53.5t69 35.5t96.5 13q73 0 119.5 -23t76.5 -65l-88 -79q-23 31 -52 44.5t-62 13.5q-40 0 -58.5 -12 t-18.5 -32q0 -18 13.5 -27t39.5 -17l58 -16q63 -17 97 -52t34 -89q0 -32 -12 -62.5t-39 -54.5t-71 -38.5t-107 -14.5q-77 0 -131 26t-83 79l88 67q20 -35 53 -52t77 -17z" />
<glyph unicode="&#x15e;" horiz-adv-x="621" d="M221 -251q-45 0 -79.5 17.5t-51.5 53.5l62 53q11 -23 28 -35.5t47 -12.5q21 0 36.5 9.5t15.5 29.5q0 11 -6 18t-15.5 10.5t-21.5 4.5t-24 0l-21 13l37 77q-74 6 -132.5 38t-91.5 103l121 73q26 -57 60.5 -78t87.5 -21q69 0 105 23.5t36 67.5q0 31 -20.5 48t-70.5 31 l-55 15q-50 13 -85 33.5t-56.5 46t-31.5 55.5t-10 62q0 51 18.5 93t54 72.5t88.5 47.5t122 17q84 0 147.5 -31t95.5 -105l-120 -70q-21 39 -51 61.5t-84 22.5q-63 0 -93.5 -22t-30.5 -60q0 -27 20 -48.5t72 -35.5l54 -15q53 -15 89 -34t58.5 -43t32.5 -53t10 -62 q0 -102 -68.5 -162t-191.5 -69l-23 -40q35 -4 61 -25.5t26 -61.5q0 -28 -12 -49t-32 -35t-48 -21t-59 -7z" />
<glyph unicode="&#x15f;" horiz-adv-x="507" d="M163 -251q-45 0 -79.5 17.5t-51.5 53.5l62 53q11 -23 28 -35.5t47 -12.5q21 0 36.5 9.5t15.5 29.5q0 11 -6 18t-15.5 10.5t-21.5 4.5t-24 0l-21 13l38 79q-119 14 -168 102l88 67q20 -35 53 -52t77 -17q85 0 85 46q0 15 -12 24.5t-47 18.5l-38 10q-71 19 -107 55t-36 99 q0 35 14 66t41.5 53.5t69 35.5t96.5 13q73 0 119.5 -23t76.5 -65l-88 -79q-23 31 -52 44.5t-62 13.5q-40 0 -58.5 -12t-18.5 -32q0 -18 13.5 -27t39.5 -17l58 -16q63 -17 97 -52t34 -89q0 -30 -10.5 -59t-33.5 -52t-60.5 -38.5t-91.5 -19.5l-23 -39q35 -4 61 -25.5t26 -61.5 q0 -28 -12 -49t-32 -35t-48 -21t-59 -7z" />
<glyph unicode="&#x160;" horiz-adv-x="621" d="M4 0zM320 775l-101 131l1 2h125l49 -57l70 57h126v-2l-142 -131h-128zM611 578l-120 -70q-21 39 -51 61.5t-84 22.5q-63 0 -93.5 -22t-30.5 -60q0 -27 20 -48.5t72 -35.5l54 -15q53 -15 89 -34t58.5 -43t32.5 -53t10 -62q0 -55 -21 -98.5t-60 -73.5t-95.5 -45.5 t-127.5 -15.5q-43 0 -82 7.5t-72.5 24t-60.5 44t-45 66.5l121 73q26 -57 60.5 -78t87.5 -21q69 0 105 23.5t36 67.5q0 31 -20.5 48t-70.5 31l-55 15q-50 13 -85 33.5t-56.5 46t-31.5 55.5t-10 62q0 51 18.5 93t54 72.5t88.5 47.5t122 17q84 0 147.5 -31t95.5 -105z" />
<glyph unicode="&#x161;" horiz-adv-x="507" d="M3 0zM230 571l-101 131l1 2h125l49 -57l70 57h126v-2l-142 -131h-128zM221 89q85 0 85 46q0 15 -12 24.5t-47 18.5l-38 10q-71 19 -107 55t-36 99q0 35 14 66t41.5 53.5t69 35.5t96.5 13q73 0 119.5 -23t76.5 -65l-88 -79q-23 31 -52 44.5t-62 13.5q-40 0 -58.5 -12 t-18.5 -32q0 -18 13.5 -27t39.5 -17l58 -16q63 -17 97 -52t34 -89q0 -32 -12 -62.5t-39 -54.5t-71 -38.5t-107 -14.5q-77 0 -131 26t-83 79l88 67q20 -35 53 -52t77 -17z" />
<glyph unicode="&#x162;" horiz-adv-x="609" d="M58 0zM171 -329l-18 57q29 8 52 26.5t32 44.5q-35 0 -54 15.5t-19 45.5q0 43 25.5 64t65.5 21q35 0 55 -18.5t20 -56.5q0 -37 -12.5 -70.5t-34 -60.5t-50.5 -44.5t-62 -23.5zM80 700h582l-22 -138h-211l-89 -562h-160l89 562h-211z" />
<glyph unicode="&#x163;" horiz-adv-x="402" d="M35 0zM140 -329l-18 57q29 8 52 26.5t32 44.5q-35 0 -54 15.5t-19 45.5q0 43 25.5 64t65.5 21q35 0 55 -18.5t20 -56.5q0 -37 -12.5 -70.5t-34 -60.5t-50.5 -44.5t-62 -23.5zM409 497l-18 -115h-131l-31 -196q-7 -45 8.5 -64t49.5 -19q31 0 60 13l7 -101 q-57 -28 -119 -28q-35 0 -65 7t-52 23.5t-34 43t-12 65.5q0 27 5 55l32 201h-74l18 115h75l22 141h150l-22 -141h131z" />
<glyph unicode="&#x164;" horiz-adv-x="609" d="M58 0zM317 775l-101 131l1 2h125l49 -57l70 57h126v-2l-142 -131h-128zM80 700h582l-22 -138h-211l-89 -562h-160l89 562h-211z" />
<glyph unicode="&#x165;" horiz-adv-x="402" d="M440 555h-100l38 194h126zM409 497l-18 -115h-131l-31 -196q-7 -45 8.5 -64t49.5 -19q31 0 60 13l7 -101q-57 -28 -119 -28q-35 0 -65 7t-52 23.5t-34 43t-12 65.5q0 27 5 55l32 201h-74l18 115h75l22 141h150l-22 -141h131z" />
<glyph unicode="&#x166;" horiz-adv-x="614" d="M82 395h161l26 167h-210l22 138h582l-23 -138h-210l-26 -167h162l-18 -113h-161l-46 -282h-160l45 282h-162z" />
<glyph unicode="&#x167;" horiz-adv-x="405" d="M26 317h72l11 65h-74l18 115h75l22 141h150l-22 -141h131l-18 -115h-131l-11 -65h132l-12 -84h-133l-7 -47q-7 -45 8.5 -64t49.5 -19q31 0 60 13l7 -101q-57 -28 -119 -28q-35 0 -65 7t-52 23.5t-34 43t-12 65.5q0 27 5 55l8 52h-72z" />
<glyph unicode="&#x168;" horiz-adv-x="757" d="M73 0zM524 278l66 422h161l-66 -415q-25 -158 -111.5 -228.5t-228.5 -70.5q-131 0 -201.5 55t-70.5 172q0 17 2 34.5t5 37.5l66 415h160l-66 -422q-2 -11 -3 -21t-1 -21q0 -55 29 -85t92 -30q69 0 111 38t56 119zM561 903h91q-2 -35 -13 -58.5t-28 -37.5t-37 -20t-39 -6 q-22 0 -40 5.5t-33.5 11.5t-29 11.5t-27.5 5.5q-17 0 -24 -10.5t-9 -23.5h-93q2 35 13.5 58.5t28 38t36.5 20.5t39 6q22 0 40 -5.5t34 -12t30 -12t28 -5.5q17 0 24 10t9 24z" />
<glyph unicode="&#x169;" horiz-adv-x="630" d="M49 0zM213 -14q-86 0 -125 42.5t-39 110.5q0 11 0.5 21t2.5 21l50 316h154l-43 -268q-3 -23 -3 -40q0 -74 72 -74q45 0 78.5 33t45.5 99l39 250h154l-79 -497h-127l1 79q-33 -46 -80 -69.5t-101 -23.5zM466 700h91q-2 -35 -13 -58.5t-28 -37.5t-37 -20t-39 -6 q-22 0 -40 5.5t-33.5 11.5t-29 11.5t-27.5 5.5q-17 0 -24 -10.5t-9 -23.5h-93q2 35 13.5 58.5t28 38t36.5 20.5t39 6q22 0 40 -5.5t34 -12t30 -12t28 -5.5q17 0 24 10t9 24z" />
<glyph unicode="&#x16a;" horiz-adv-x="757" d="M73 0zM524 278l66 422h161l-66 -415q-25 -158 -111.5 -228.5t-228.5 -70.5q-131 0 -201.5 55t-70.5 172q0 17 2 34.5t5 37.5l66 415h160l-66 -422q-2 -11 -3 -21t-1 -21q0 -55 29 -85t92 -30q69 0 111 38t56 119zM618 880l-15 -87h-283l13 87h285z" />
<glyph unicode="&#x16b;" horiz-adv-x="630" d="M49 0zM213 -14q-86 0 -125 42.5t-39 110.5q0 11 0.5 21t2.5 21l50 316h154l-43 -268q-3 -23 -3 -40q0 -74 72 -74q45 0 78.5 33t45.5 99l39 250h154l-79 -497h-127l1 79q-33 -46 -80 -69.5t-101 -23.5zM523 677l-15 -87h-283l13 87h285z" />
<glyph unicode="&#x16c;" horiz-adv-x="757" d="M73 0zM524 278l66 422h161l-66 -415q-25 -158 -111.5 -228.5t-228.5 -70.5q-131 0 -201.5 55t-70.5 172q0 17 2 34.5t5 37.5l66 415h160l-66 -422q-2 -11 -3 -21t-1 -21q0 -55 29 -85t92 -30q69 0 111 38t56 119zM548 907h96q-5 -40 -20 -67t-39 -43t-56 -23t-72 -7 q-39 0 -69.5 7t-50 23t-27 43t-2.5 67h95q-6 -36 9.5 -49t52.5 -13t57 13t26 49z" />
<glyph unicode="&#x16d;" horiz-adv-x="630" d="M49 0zM213 -14q-86 0 -125 42.5t-39 110.5q0 11 0.5 21t2.5 21l50 316h154l-43 -268q-3 -23 -3 -40q0 -74 72 -74q45 0 78.5 33t45.5 99l39 250h154l-79 -497h-127l1 79q-33 -46 -80 -69.5t-101 -23.5zM453 704h96q-5 -40 -20 -67t-39 -43t-56 -23t-72 -7q-39 0 -69.5 7 t-50 23t-27 43t-2.5 67h95q-6 -36 9.5 -49t52.5 -13t57 13t26 49z" />
<glyph unicode="&#x16e;" horiz-adv-x="757" d="M73 0zM457 752q-43 0 -72 22t-29 67q0 27 9.5 49t26 37t39.5 23.5t49 8.5q47 0 74 -23t27 -65q0 -55 -35 -87t-89 -32zM476 901q-23 0 -37.5 -14.5t-14.5 -40.5q0 -17 10 -26.5t27 -9.5q20 0 36 14.5t16 40.5q0 17 -10 26.5t-27 9.5zM524 278l66 422h161l-66 -415 q-25 -158 -111.5 -228.5t-228.5 -70.5q-131 0 -201.5 55t-70.5 172q0 17 2 34.5t5 37.5l66 415h160l-66 -422q-2 -11 -3 -21t-1 -21q0 -55 29 -85t92 -30q69 0 111 38t56 119z" />
<glyph unicode="&#x16f;" horiz-adv-x="630" d="M49 0zM362 549q-43 0 -72 22t-29 67q0 27 9.5 49t26 37t39.5 23.5t49 8.5q47 0 74 -23t27 -65q0 -55 -35 -87t-89 -32zM381 698q-23 0 -37.5 -14.5t-14.5 -40.5q0 -17 10 -26.5t27 -9.5q20 0 36 14.5t16 40.5q0 17 -10 26.5t-27 9.5zM213 -14q-86 0 -125 42.5t-39 110.5 q0 11 0.5 21t2.5 21l50 316h154l-43 -268q-3 -23 -3 -40q0 -74 72 -74q45 0 78.5 33t45.5 99l39 250h154l-79 -497h-127l1 79q-33 -46 -80 -69.5t-101 -23.5z" />
<glyph unicode="&#x170;" horiz-adv-x="757" d="M73 0zM524 278l66 422h161l-66 -415q-25 -158 -111.5 -228.5t-228.5 -70.5q-131 0 -201.5 55t-70.5 172q0 17 2 34.5t5 37.5l66 415h160l-66 -422q-2 -11 -3 -21t-1 -21q0 -55 29 -85t92 -30q69 0 111 38t56 119zM579 907h162l-1 -6l-148 -127h-110v5zM393 907h149l-1 -6 l-129 -127h-107l1 5z" />
<glyph unicode="&#x171;" horiz-adv-x="630" d="M49 0zM213 -14q-86 0 -125 42.5t-39 110.5q0 11 0.5 21t2.5 21l50 316h154l-43 -268q-3 -23 -3 -40q0 -74 72 -74q45 0 78.5 33t45.5 99l39 250h154l-79 -497h-127l1 79q-33 -46 -80 -69.5t-101 -23.5zM485 704h162l-1 -6l-148 -127h-110v5zM299 704h149l-1 -6l-129 -127 h-107l1 5z" />
<glyph unicode="&#x172;" horiz-adv-x="757" d="M523 279l66 421h162l-65 -414q-20 -122 -77 -191t-148 -95q-18 -5 -31 -15.5t-21.5 -23t-13 -26t-4.5 -25.5q0 -29 16 -40t39 -11q37 0 67 17l13 -78q-45 -27 -101 -27q-24 0 -47 5.5t-40.5 18t-28.5 33.5t-11 53q0 31 10 58t27 47q-126 2 -194 57.5t-68 169.5 q0 17 1.5 34.5t5.5 38.5l65 414h163l-67 -421q-4 -20 -4 -42q0 -55 28.5 -85t91.5 -30q69 0 111 38t55 119z" />
<glyph unicode="&#x173;" horiz-adv-x="630" d="M444 -229q-24 0 -47 5t-40.5 17.5t-28.5 33.5t-11 52q0 48 22 82t54 55l2 64q-34 -48 -81 -71t-101 -23q-86 0 -125.5 42.5t-39.5 110.5q0 22 3 42l50 316h156l-43 -267q-3 -23 -3 -40q0 -75 71 -75q45 0 78.5 32.5t44.5 99.5l39 250h155l-79 -497h-13q-24 -2 -42 -11 t-30 -22.5t-18.5 -29.5t-6.5 -31q0 -27 15.5 -37t39.5 -10q36 0 67 17l13 -78q-45 -27 -101 -27z" />
<glyph unicode="&#x174;" horiz-adv-x="950" d="M71 0zM559 832l-70 -58h-127l1 4l142 129h128l101 -129l-1 -4h-123zM472 699h139l45 -471l193 472h159l-305 -700h-157l-42 467l-195 -467h-156l-82 700h164l39 -473z" />
<glyph unicode="&#x175;" horiz-adv-x="776" d="M44 0zM443 629l-70 -58h-127l1 4l142 129h128l101 -129l-1 -4h-123zM363 495h123l44 -317l132 319h142l-230 -497h-139l-37 322l-139 -322h-139l-76 497h143l34 -320z" />
<glyph unicode="&#x176;" horiz-adv-x="654" d="M64 0zM241 261l-177 439h174l107 -298l200 298h172l-317 -443l-41 -257h-160zM409 832l-70 -58h-127l1 4l142 129h128l101 -129l-1 -4h-123z" />
<glyph unicode="&#x177;" horiz-adv-x="558" d="M0 0zM138 -41l20 39l-114 499h157l61 -348l162 348h162l-320 -589q-40 -73 -94.5 -100.5t-123.5 -27.5q-32 0 -55 4.5t-45 14.5l30 113q18 -8 34 -12t34 -4q26 0 49.5 13t42.5 50zM336 629l-70 -58h-127l1 4l142 129h128l101 -129l-1 -4h-123z" />
<glyph unicode="&#x178;" horiz-adv-x="654" d="M64 0zM241 261l-177 439h174l107 -298l200 298h172l-317 -443l-41 -257h-160zM504 774q-72 0 -72 61q0 45 25 66.5t66 21.5q73 0 73 -61q0 -45 -25 -66.5t-67 -21.5zM296 774q-72 0 -72 61q0 46 25 67t66 21q72 0 72 -60q0 -46 -24.5 -67.5t-66.5 -21.5z" />
<glyph unicode="&#x179;" horiz-adv-x="602" d="M0 0zM413 908h166l-1 -6l-145 -127h-122v5zM-20 0l17 102l428 469l-340 -3l22 132h535l-15 -101l-430 -470l363 3l-21 -132h-559z" />
<glyph unicode="&#x17a;" horiz-adv-x="503" d="M0 0zM333 704h166l-1 -6l-145 -127h-122v5zM-4 0l14 92l295 289h-245l19 116h422l-15 -96l-292 -286h256l-19 -115h-435z" />
<glyph unicode="&#x17b;" horiz-adv-x="602" d="M0 0zM-20 0l17 102l428 469l-340 -3l22 132h535l-15 -101l-430 -470l363 3l-21 -132h-559zM381 773q-76 0 -76 62q0 47 26.5 67.5t68.5 20.5q37 0 57 -15.5t20 -47.5q0 -45 -26.5 -66t-69.5 -21z" />
<glyph unicode="&#x17c;" horiz-adv-x="503" d="M0 0zM-4 0l14 92l295 289h-245l19 116h422l-15 -96l-292 -286h256l-19 -115h-435zM301 570q-76 0 -76 62q0 47 26.5 67.5t68.5 20.5q37 0 57 -15.5t20 -47.5q0 -45 -26.5 -66t-69.5 -21z" />
<glyph unicode="&#x17d;" horiz-adv-x="602" d="M0 0zM316 775l-101 131l1 2h125l49 -57l70 57h126v-2l-142 -131h-128zM-20 0l17 102l428 469l-340 -3l22 132h535l-15 -101l-430 -470l363 3l-21 -132h-559z" />
<glyph unicode="&#x17e;" horiz-adv-x="503" d="M0 0zM237 571l-101 131l1 2h125l49 -57l70 57h126v-2l-142 -131h-128zM-4 0l14 92l295 289h-245l19 116h422l-15 -96l-292 -286h256l-19 -115h-435z" />
<glyph unicode="&#x192;" horiz-adv-x="404" d="M34 -22l65 285h-77l25 114h78l13 52q26 101 81 148.5t140 47.5q28 0 60 -6.5t50 -20.5l-48 -103q-19 13 -52 13q-32 0 -52.5 -18t-30.5 -63l-12 -50h126l-25 -114h-127l-66 -293q-23 -99 -81 -145t-139 -46q-25 0 -53 5t-48 17l44 105q11 -5 22.5 -8t26.5 -3 q30 0 49.5 18.5t30.5 64.5z" />
<glyph unicode="&#x218;" horiz-adv-x="621" d="M4 0zM176 -329l-18 57q29 8 52 26.5t32 44.5q-35 0 -54 15.5t-19 45.5q0 43 25.5 64t65.5 21q35 0 55 -18.5t20 -56.5q0 -37 -12.5 -70.5t-34 -60.5t-50.5 -44.5t-62 -23.5zM611 578l-120 -70q-21 39 -51 61.5t-84 22.5q-63 0 -93.5 -22t-30.5 -60q0 -27 20 -48.5 t72 -35.5l54 -15q53 -15 89 -34t58.5 -43t32.5 -53t10 -62q0 -55 -21 -98.5t-60 -73.5t-95.5 -45.5t-127.5 -15.5q-43 0 -82 7.5t-72.5 24t-60.5 44t-45 66.5l121 73q26 -57 60.5 -78t87.5 -21q69 0 105 23.5t36 67.5q0 31 -20.5 48t-70.5 31l-55 15q-50 13 -85 33.5 t-56.5 46t-31.5 55.5t-10 62q0 51 18.5 93t54 72.5t88.5 47.5t122 17q84 0 147.5 -31t95.5 -105z" />
<glyph unicode="&#x219;" horiz-adv-x="507" d="M3 0zM119 -329l-18 57q29 8 52 26.5t32 44.5q-35 0 -54 15.5t-19 45.5q0 43 25.5 64t65.5 21q35 0 55 -18.5t20 -56.5q0 -37 -12.5 -70.5t-34 -60.5t-50.5 -44.5t-62 -23.5zM221 89q85 0 85 46q0 15 -12 24.5t-47 18.5l-38 10q-71 19 -107 55t-36 99q0 35 14 66 t41.5 53.5t69 35.5t96.5 13q73 0 119.5 -23t76.5 -65l-88 -79q-23 31 -52 44.5t-62 13.5q-40 0 -58.5 -12t-18.5 -32q0 -18 13.5 -27t39.5 -17l58 -16q63 -17 97 -52t34 -89q0 -32 -12 -62.5t-39 -54.5t-71 -38.5t-107 -14.5q-77 0 -131 26t-83 79l88 67q20 -35 53 -52 t77 -17z" />
<glyph unicode="&#x237;" horiz-adv-x="292" d="M24 -20l83 517h154l-83 -526q-15 -98 -73 -145t-141 -47q-26 0 -52.5 5t-50.5 17l38 105q11 -5 22.5 -8t26.5 -3q32 0 50 18.5t26 66.5z" />
<glyph unicode="&#x2c6;" horiz-adv-x="600" d="M303 629l-70 -58h-127l1 4l142 129h128l101 -129l-1 -4h-123z" />
<glyph unicode="&#x2c7;" horiz-adv-x="600" d="M222 571l-101 131l1 2h125l49 -57l70 57h126v-2l-142 -131h-128z" />
<glyph unicode="&#x2d8;" horiz-adv-x="600" d="M384 704h96q-5 -40 -20 -67t-39 -43t-56 -23t-72 -7q-39 0 -69.5 7t-50 23t-27 43t-2.5 67h95q-6 -36 9.5 -49t52.5 -13t57 13t26 49z" />
<glyph unicode="&#x2d9;" horiz-adv-x="600" d="M291 570q-76 0 -76 62q0 47 26.5 67.5t68.5 20.5q37 0 57 -15.5t20 -47.5q0 -45 -26.5 -66t-69.5 -21z" />
<glyph unicode="&#x2da;" horiz-adv-x="600" d="M291 549q-43 0 -72 22t-29 67q0 27 9.5 49t26 37t39.5 23.5t49 8.5q47 0 74 -23t27 -65q0 -55 -35 -87t-89 -32zM310 698q-23 0 -37.5 -14.5t-14.5 -40.5q0 -17 10 -26.5t27 -9.5q20 0 36 14.5t16 40.5q0 17 -10 26.5t-27 9.5z" />
<glyph unicode="&#x2db;" horiz-adv-x="600" d="M305 -229q-24 0 -47 5t-40.5 17.5t-28.5 33.5t-11 52q0 40 17 72.5t44.5 55t62 33.5t69.5 10l-2 -50q-24 -2 -42 -11t-30.5 -22.5t-18.5 -29.5t-6 -31q0 -27 15.5 -37t38.5 -10q37 0 67 17l14 -78q-45 -27 -102 -27z" />
<glyph unicode="&#x2dc;" horiz-adv-x="600" d="M401 700h91q-2 -35 -13 -58.5t-28 -37.5t-37 -20t-39 -6q-22 0 -40 5.5t-33.5 11.5t-29 11.5t-27.5 5.5q-17 0 -24 -10.5t-9 -23.5h-93q2 35 13.5 58.5t28 38t36.5 20.5t39 6q22 0 40 -5.5t34 -12t30 -12t28 -5.5q17 0 24 10t9 24z" />
<glyph unicode="&#x2dd;" horiz-adv-x="600" d="M413 704h162l-1 -6l-148 -127h-110v5zM227 704h149l-1 -6l-129 -127h-107l1 5z" />
<glyph unicode="&#x1e80;" horiz-adv-x="950" d="M71 0zM472 699h139l45 -471l193 472h159l-305 -700h-157l-42 467l-195 -467h-156l-82 700h164l39 -473zM497 774l-108 127l1 6h170l58 -128v-5h-121z" />
<glyph unicode="&#x1e81;" horiz-adv-x="776" d="M44 0zM363 495h123l44 -317l132 319h142l-230 -497h-139l-37 322l-139 -322h-139l-76 497h143l34 -320zM380 571l-108 127l1 6h170l58 -128v-5h-121z" />
<glyph unicode="&#x1e82;" horiz-adv-x="950" d="M71 0zM584 907h166l-1 -6l-145 -127h-122v5zM472 699h139l45 -471l193 472h159l-305 -700h-157l-42 467l-195 -467h-156l-82 700h164l39 -473z" />
<glyph unicode="&#x1e83;" horiz-adv-x="776" d="M44 0zM467 704h166l-1 -6l-145 -127h-122v5zM363 495h123l44 -317l132 319h142l-230 -497h-139l-37 322l-139 -322h-139l-76 497h143l34 -320z" />
<glyph unicode="&#x1e84;" horiz-adv-x="950" d="M71 0zM655 773q-72 0 -72 61q0 45 25 66.5t66 21.5q73 0 73 -61q0 -45 -25 -66.5t-67 -21.5zM447 773q-72 0 -72 61q0 46 25 67t66 21q72 0 72 -60q0 -46 -24.5 -67.5t-66.5 -21.5zM472 699h139l45 -471l193 472h159l-305 -700h-157l-42 467l-195 -467h-156l-82 700h164 l39 -473z" />
<glyph unicode="&#x1e85;" horiz-adv-x="776" d="M44 0zM538 570q-72 0 -72 61q0 45 25 66.5t66 21.5q73 0 73 -61q0 -45 -25 -66.5t-67 -21.5zM330 570q-72 0 -72 61q0 46 25 67t66 21q72 0 72 -60q0 -46 -24.5 -67.5t-66.5 -21.5zM363 495h123l44 -317l132 319h142l-230 -497h-139l-37 322l-139 -322h-139l-76 497h143 l34 -320z" />
<glyph unicode="&#x2000;" horiz-adv-x="479" />
<glyph unicode="&#x2001;" horiz-adv-x="959" />
<glyph unicode="&#x2002;" horiz-adv-x="500" />
<glyph unicode="&#x2003;" horiz-adv-x="1000" />
<glyph unicode="&#x2004;" horiz-adv-x="333" />
<glyph unicode="&#x2005;" horiz-adv-x="250" />
<glyph unicode="&#x2006;" horiz-adv-x="167" />
<glyph unicode="&#x2007;" />
<glyph unicode="&#x2008;" horiz-adv-x="252" />
<glyph unicode="&#x2009;" horiz-adv-x="200" />
<glyph unicode="&#x200a;" horiz-adv-x="100" />
<glyph unicode="&#x200b;" horiz-adv-x="0" />
<glyph unicode="&#x2010;" horiz-adv-x="469" d="M428 328l-19 -123h-372l19 123h372z" />
<glyph unicode="&#x2011;" horiz-adv-x="469" d="M428 328l-19 -123h-372l19 123h372z" />
<glyph unicode="&#x2012;" horiz-adv-x="583" d="M537 328l-19 -123h-481l19 123h481z" />
<glyph unicode="&#x2013;" horiz-adv-x="583" d="M537 328l-19 -123h-481l19 123h481z" />
<glyph unicode="&#x2014;" horiz-adv-x="781" d="M733 328l-19 -123h-677l20 123h676z" />
<glyph unicode="&#x2015;" horiz-adv-x="1075" d="M1025 328l-20 -123h-968l20 123h968z" />
<glyph unicode="&#x2018;" horiz-adv-x="246" d="M243 752l20 -62q-30 -9 -53 -29t-33 -48q64 -5 64 -65q0 -46 -25.5 -68.5t-67.5 -22.5q-35 0 -54.5 18t-19.5 58q0 33 10.5 67.5t31.5 64.5t52.5 53t74.5 34z" />
<glyph unicode="&#x2019;" horiz-adv-x="246" d="M98 446l-20 62q30 9 53 29t33 48q-64 5 -64 65q0 46 25.5 68.5t67.5 22.5q35 0 54 -18t19 -58q0 -33 -10 -67.5t-31 -64.5t-52.5 -53.5t-74.5 -33.5z" />
<glyph unicode="&#x201a;" horiz-adv-x="246" d="M13 -144l-20 61q29 9 52.5 28.5t32.5 47.5q-30 2 -46.5 18.5t-16.5 45.5q0 46 24.5 68t66.5 22q35 0 54 -18t19 -57q0 -33 -10 -67t-31 -64t-52 -52.5t-73 -32.5z" />
<glyph unicode="&#x201c;" horiz-adv-x="446" d="M243 753l20 -62q-30 -9 -53 -29t-33 -48q64 -5 64 -65q0 -46 -25.5 -68.5t-67.5 -22.5q-35 0 -54.5 18t-19.5 58q0 33 10.5 67.5t31.5 64.5t52.5 53t74.5 34zM444 753l20 -62q-30 -9 -53 -29t-33 -48q64 -5 64 -65q0 -46 -25.5 -68.5t-67.5 -22.5q-35 0 -54.5 18 t-19.5 58q0 33 10.5 67.5t31.5 64.5t52.5 53t74.5 34z" />
<glyph unicode="&#x201d;" horiz-adv-x="447" d="M98 444l-20 62q30 9 53 29t33 48q-64 5 -64 65q0 46 25.5 68.5t67.5 22.5q35 0 54 -18t19 -58q0 -33 -10 -67.5t-31 -64.5t-52.5 -53.5t-74.5 -33.5zM300 444l-20 62q30 9 53 29t33 48q-64 5 -64 65q0 46 25.5 68.5t67.5 22.5q35 0 54 -18t19 -58q0 -33 -10 -67.5 t-31 -64.5t-52.5 -53.5t-74.5 -33.5z" />
<glyph unicode="&#x201e;" horiz-adv-x="446" d="M13 -144l-20 61q29 9 52.5 28.5t32.5 47.5q-30 2 -46.5 18.5t-16.5 45.5q0 46 24.5 68t66.5 22q35 0 54 -18t19 -57q0 -33 -10 -67t-31 -64t-52 -52.5t-73 -32.5zM214 -144l-20 61q29 9 52.5 28.5t32.5 47.5q-30 2 -46.5 18.5t-16.5 45.5q0 46 24.5 68t66.5 22 q35 0 54 -18t19 -57q0 -33 -10 -67t-31 -64t-52 -52.5t-73 -32.5z" />
<glyph unicode="&#x2020;" horiz-adv-x="316" d="M282 493h-66l-36 -224h-116l36 224h-65l16 105h64l16 116h125l-22 -116h63z" />
<glyph unicode="&#x2021;" horiz-adv-x="316" d="M31 470h65l9 51h-66l17 105h62l13 88h125l-17 -88h62l-16 -105h-65l-8 -51h66l-17 -104h-63l-13 -97h-125l18 97h-63z" />
<glyph unicode="&#x2022;" horiz-adv-x="422" d="M206 163q-70 0 -109 38.5t-39 102.5q0 42 13.5 76.5t37.5 59t57 38t73 13.5q71 0 110 -38.5t39 -102.5q0 -42 -13.5 -76t-37.5 -59t-57.5 -38.5t-73.5 -13.5z" />
<glyph unicode="&#x2026;" horiz-adv-x="756" d="M594 -7q-77 0 -77 68q0 44 24.5 70t72.5 26q77 0 77 -69q0 -47 -26.5 -71t-70.5 -24zM342 -7q-76 0 -76 68q0 44 24 70t72 26q77 0 77 -69q0 -47 -26.5 -71t-70.5 -24zM90 -7q-77 0 -77 68q0 44 24.5 70t72.5 26q77 0 77 -69q0 -47 -26.5 -71t-70.5 -24z" />
<glyph unicode="&#x202f;" horiz-adv-x="191" />
<glyph unicode="&#x2030;" horiz-adv-x="1488" d="M60 0zM851 420q84 0 122.5 -39t38.5 -118q0 -16 -1 -29.5t-3 -30.5q-15 -105 -65.5 -160t-148.5 -55q-83 0 -122 38.5t-39 117.5q0 14 1.5 28.5t3.5 30.5q15 111 66 164t147 53zM843 331q-35 0 -58 -28t-35 -99q-2 -16 -4 -30t-2 -25q0 -41 15 -56.5t43 -15.5 q35 0 58.5 27.5t35.5 98.5q2 17 4 31t2 25q0 40 -15.5 56t-43.5 16zM278 713q84 0 122.5 -39t38.5 -118q0 -16 -1 -29.5t-3 -30.5q-15 -105 -65.5 -160t-148.5 -55q-83 0 -122 38.5t-39 117.5q0 14 1.5 28.5t3.5 30.5q15 111 66 164t147 53zM270 624q-35 0 -58 -28t-35 -99 q-2 -16 -4 -30t-2 -25q0 -41 15 -56.5t43 -15.5q35 0 58.5 27.5t35.5 98.5q2 17 4 31t2 25q0 40 -15.5 56t-43.5 16zM1277 420q84 0 122.5 -39t38.5 -118q0 -16 -1 -29.5t-3 -30.5q-15 -105 -65.5 -160t-148.5 -55q-83 0 -122 38.5t-39 117.5q0 14 1.5 28.5t3.5 30.5 q15 111 66 164t147 53zM1269 331q-35 0 -58 -28t-35 -99q-2 -16 -4 -30t-2 -25q0 -41 15 -56.5t43 -15.5q35 0 58.5 27.5t35.5 98.5q2 17 4 31t2 25q0 40 -15.5 56t-43.5 16zM828 700l-450 -700h-138l450 700h138z" />
<glyph unicode="&#x2039;" horiz-adv-x="428" d="M195 0l-151 247l1 3l229 247h158l-236 -253l153 -244h-154z" />
<glyph unicode="&#x203a;" horiz-adv-x="428" d="M236 497l151 -247l-1 -3l-229 -247h-158l236 253l-153 244h154z" />
<glyph unicode="&#x2044;" horiz-adv-x="548" d="M558 700l-450 -700h-138l450 700h138z" />
<glyph unicode="&#x205f;" horiz-adv-x="239" />
<glyph unicode="&#x2070;" horiz-adv-x="445" d="M61 282zM279 714q84 0 122.5 -39t38.5 -118q0 -16 -1 -29.5t-3 -30.5q-15 -105 -65.5 -160t-148.5 -55q-83 0 -122 38.5t-39 117.5q0 14 1.5 28.5t3.5 30.5q15 111 66 164t147 53zM271 625q-35 0 -58 -28t-35 -99q-2 -16 -4 -30t-2 -25q0 -41 15 -56.5t43 -15.5 q35 0 58.5 27.5t35.5 98.5q2 17 4 31t2 25q0 40 -15.5 56t-43.5 16z" />
<glyph unicode="&#x2074;" horiz-adv-x="424" d="M42 294zM42 375l12 76l159 252h110l-152 -235h107l22 133h104l-21 -133h48l-14 -93h-49l-13 -81h-105l13 81h-221z" />
<glyph unicode="&#x2075;" horiz-adv-x="376" d="M22 282zM191 615l-17 -67q17 5 33 8t36 3q63 0 95.5 -27.5t32.5 -84.5q0 -75 -50.5 -120t-141.5 -45q-54 0 -95 18.5t-62 59.5l84 56q13 -24 30 -35.5t46 -11.5q35 0 56.5 17.5t21.5 48.5q0 26 -16 36t-41 10q-41 0 -71 -24l-67 33l52 212h281l-14 -87h-193z" />
<glyph unicode="&#x2076;" horiz-adv-x="416" d="M60 282zM400 446q0 -34 -11 -63.5t-33.5 -52t-56 -35.5t-79.5 -13q-77 0 -118.5 40t-41.5 123q0 20 2 39t6 38q17 94 70.5 143t140.5 49q55 0 94 -19t52 -55l-75 -57q-16 44 -68 44q-53 0 -77 -35t-33 -96q17 26 45.5 40.5t64.5 14.5q54 0 86 -27t32 -78zM239 473 q-27 0 -47.5 -15.5t-20.5 -45.5q0 -20 13.5 -32.5t39.5 -12.5q31 0 48 18t17 45q0 20 -12 31.5t-38 11.5z" />
<glyph unicode="&#x2077;" horiz-adv-x="342" d="M68 294zM86 294q15 99 63 179.5t114 134.5l-195 -2l15 96h314l-13 -75q-145 -132 -175 -333h-123z" />
<glyph unicode="&#x2078;" horiz-adv-x="410" d="M50 282zM200 282q-150 0 -150 106q0 48 25.5 77.5t60.5 42.5q-20 11 -30 29t-10 47q0 66 46.5 98t125.5 32q68 0 103 -24t35 -75q0 -39 -19 -66.5t-52 -43.5q54 -24 54 -83q0 -69 -50 -104.5t-139 -35.5zM242 544q26 0 44.5 13.5t18.5 39.5q0 17 -13 26.5t-35 9.5 q-28 0 -45.5 -13t-17.5 -39q0 -19 12.5 -28t35.5 -9zM212 359q29 0 49.5 15t20.5 43q0 20 -14.5 31t-39.5 11q-31 0 -50 -15.5t-19 -43.5q0 -41 53 -41z" />
<glyph unicode="&#x2079;" horiz-adv-x="414" d="M35 282zM229 519q26 0 47 16.5t21 46.5q0 20 -13.5 32.5t-39.5 12.5q-29 0 -48 -17.5t-19 -47.5q0 -20 12.5 -31.5t39.5 -11.5zM188 282q-56 0 -96 17t-57 49l75 60q8 -19 28 -29.5t48 -10.5q50 0 74.5 34.5t34.5 94.5q-34 -58 -109 -58q-55 0 -86 28t-31 81 q0 36 11.5 66t34 52.5t55.5 35t77 12.5q78 0 119.5 -40t41.5 -122q0 -38 -8 -78q-17 -93 -70.5 -142.5t-141.5 -49.5z" />
<glyph unicode="&#x207a;" horiz-adv-x="315" d="M51 359zM206 359h-84l14 88h-85l10 70h85l14 89h83l-14 -89h86l-10 -70h-85z" />
<glyph unicode="&#x207b;" horiz-adv-x="315" d="M51 447zM315 517l-10 -70h-254l10 70h254z" />
<glyph unicode="&#x207c;" horiz-adv-x="315" d="M45 396zM323 565l-10 -72h-253l9 72h254zM308 468l-10 -72h-253l9 72h254z" />
<glyph unicode="&#x207d;" horiz-adv-x="231" d="M48 208zM188 208q-72 7 -106 53.5t-34 133.5q0 33 6 72q16 117 68.5 182.5t144.5 73.5l-1 -86q-50 -5 -81 -44t-45 -126q-3 -17 -4.5 -36.5t-1.5 -33.5q0 -52 19.5 -75t56.5 -28z" />
<glyph unicode="&#x207e;" horiz-adv-x="231" d="M8 208zM65 637l22 86q72 -7 106 -53.5t34 -133.5q0 -33 -6 -72q-16 -117 -68.5 -182.5t-144.5 -73.5l1 86q49 5 80.5 44t45.5 126q3 17 4.5 36.5t1.5 33.5q0 52 -19.5 75t-56.5 28z" />
<glyph unicode="&#x2080;" horiz-adv-x="442" d="M238 420q84 0 122.5 -39t38.5 -118q0 -16 -1 -29.5t-3 -30.5q-15 -105 -65.5 -160t-148.5 -55q-83 0 -122 38.5t-39 117.5q0 14 1.5 28.5t3.5 30.5q15 111 66 164t147 53zM230 331q-35 0 -58 -28t-35 -99q-2 -16 -4 -30t-2 -25q0 -41 15 -56.5t43 -15.5q35 0 58.5 27.5 t35.5 98.5q2 17 4 31t2 25q0 40 -15.5 56t-43.5 16z" />
<glyph unicode="&#x2081;" horiz-adv-x="263" d="M167 0h-112l45 283l-49 -27l-26 87l135 70h73z" />
<glyph unicode="&#x2082;" horiz-adv-x="382" d="M-10 0l12 79l156 121q32 26 52.5 46.5t20.5 46.5q0 19 -14 27t-37 8q-28 0 -47 -12.5t-39 -38.5l-65 54q34 50 77.5 69.5t97.5 19.5q31 0 57.5 -5.5t46 -17.5t30.5 -31.5t11 -47.5q0 -51 -31 -91t-87 -83l-66 -51l163 1l-14 -94h-324z" />
<glyph unicode="&#x2083;" horiz-adv-x="381" d="M146 -12q-117 0 -155 90l87 46q12 -25 28.5 -36.5t44.5 -11.5q29 0 48.5 13t19.5 39q0 19 -12.5 27t-42.5 8h-43l13 81h42q27 0 43.5 13.5t16.5 36.5q0 36 -51 36q-24 0 -41 -9.5t-34 -33.5l-70 53q28 40 67.5 60t99.5 20q74 0 109 -26t35 -76q0 -39 -19 -67t-51 -46 q21 -9 33.5 -26.5t12.5 -48.5t-13 -57t-36.5 -45t-57 -29.5t-74.5 -10.5z" />
<glyph unicode="&#x2084;" horiz-adv-x="422" d="M3 81l12 76l159 252h110l-152 -235h107l22 133h104l-21 -133h48l-14 -93h-49l-13 -81h-105l13 81h-221z" />
<glyph unicode="&#x2085;" horiz-adv-x="374" d="M152 321l-17 -67q17 5 33 8t36 3q63 0 95.5 -27.5t32.5 -84.5q0 -75 -50.5 -120t-141.5 -45q-54 0 -95 18.5t-62 59.5l84 56q13 -24 30 -35.5t46 -11.5q35 0 56.5 17.5t21.5 48.5q0 26 -16 36t-41 10q-41 0 -71 -24l-67 33l52 212h281l-14 -87h-193z" />
<glyph unicode="&#x2086;" horiz-adv-x="413" d="M361 152q0 -34 -11 -63.5t-33.5 -52t-56 -35.5t-79.5 -13q-77 0 -118.5 40t-41.5 123q0 20 2 39t6 38q17 94 70.5 143t140.5 49q55 0 94 -19t52 -55l-75 -57q-16 44 -68 44q-53 0 -77 -35t-33 -96q17 26 45.5 40.5t64.5 14.5q54 0 86 -27t32 -78zM200 179 q-27 0 -47.5 -15.5t-20.5 -45.5q0 -20 13.5 -32.5t39.5 -12.5q31 0 48 18t17 45q0 20 -12 31.5t-38 11.5z" />
<glyph unicode="&#x2087;" horiz-adv-x="339" d="M47 0q15 99 63 179.5t114 134.5l-195 -2l15 96h314l-13 -75q-145 -132 -175 -333h-123z" />
<glyph unicode="&#x2088;" horiz-adv-x="407" d="M161 -12q-150 0 -150 106q0 48 25.5 77.5t60.5 42.5q-20 11 -30 29t-10 47q0 66 46.5 98t125.5 32q68 0 103 -24t35 -75q0 -39 -19 -66.5t-52 -43.5q54 -24 54 -83q0 -69 -50 -104.5t-139 -35.5zM203 250q26 0 44.5 13.5t18.5 39.5q0 17 -13 26.5t-35 9.5 q-28 0 -45.5 -13t-17.5 -39q0 -19 12.5 -28t35.5 -9zM173 65q29 0 49.5 15t20.5 43q0 20 -14.5 31t-39.5 11q-31 0 -50 -15.5t-19 -43.5q0 -41 53 -41z" />
<glyph unicode="&#x2089;" horiz-adv-x="411" d="M190 225q26 0 47 16.5t21 46.5q0 20 -13.5 32.5t-39.5 12.5q-29 0 -48 -17.5t-19 -47.5q0 -20 12.5 -31.5t39.5 -11.5zM149 -12q-56 0 -96 17t-57 49l75 60q8 -19 28 -29.5t48 -10.5q50 0 74.5 34.5t34.5 94.5q-34 -58 -109 -58q-55 0 -86 28t-31 81q0 36 11.5 66 t34 52.5t55.5 35t77 12.5q78 0 119.5 -40t41.5 -122q0 -38 -8 -78q-17 -93 -70.5 -142.5t-141.5 -49.5z" />
<glyph unicode="&#x208a;" horiz-adv-x="315" d="M167 58h-84l14 88h-85l10 70h85l14 89h83l-14 -89h86l-10 -70h-85z" />
<glyph unicode="&#x208b;" horiz-adv-x="315" d="M276 216l-10 -70h-254l10 70h254z" />
<glyph unicode="&#x208c;" horiz-adv-x="315" d="M284 264l-10 -72h-253l9 72h254zM269 167l-10 -72h-253l9 72h254z" />
<glyph unicode="&#x208d;" horiz-adv-x="229" d="M149 -93q-72 7 -106 53.5t-34 133.5q0 33 6 72q16 117 68.5 182.5t144.5 73.5l-1 -86q-50 -5 -81 -44t-45 -126q-3 -17 -4.5 -36.5t-1.5 -33.5q0 -52 19.5 -75t56.5 -28z" />
<glyph unicode="&#x208e;" horiz-adv-x="229" d="M26 336l22 86q72 -7 106 -53.5t34 -133.5q0 -33 -6 -72q-16 -117 -68.5 -182.5t-144.5 -73.5l1 86q49 5 80.5 44t45.5 126q3 17 4.5 36.5t1.5 33.5q0 52 -19.5 75t-56.5 28z" />
<glyph unicode="&#x20ac;" horiz-adv-x="699" d="M451 314l-33 -82h-181q6 -67 41 -92t96 -25q49 0 87 18.5t67 67.5l117 -76q-46 -77 -117 -108t-170 -31q-137 0 -206 58.5t-74 187.5h-78l14 82h64q1 7 2.5 22t3.5 23h-64l13 81h68q37 142 125.5 208t225.5 66q108 0 167.5 -43t81.5 -128l-139 -55q-15 55 -44.5 76 t-78.5 21q-30 0 -56.5 -7t-49 -24t-41 -44.5t-31.5 -69.5h244l-34 -81h-230q-2 -10 -3.5 -22t-2.5 -23h216z" />
<glyph unicode="&#x2122;" horiz-adv-x="705" d="M83 700h269l-12 -76h-89l-34 -218h-85l34 218h-95zM698 406h-79l25 155l-89 -155h-72l-42 155l-24 -155h-80l47 294h93l54 -206l120 206h94z" />
<glyph unicode="&#x2153;" horiz-adv-x="883" d="M62 0zM641 -12q-117 0 -155 90l87 46q12 -25 28.5 -36.5t44.5 -11.5q29 0 48.5 13t19.5 39q0 19 -12.5 27t-42.5 8h-43l13 81h42q27 0 43.5 13.5t16.5 36.5q0 36 -51 36q-24 0 -41 -9.5t-34 -33.5l-70 53q28 40 67.5 60t99.5 20q74 0 109 -26t35 -76q0 -39 -19 -67 t-51 -46q21 -9 33.5 -26.5t12.5 -48.5t-13 -57t-36.5 -45t-57 -29.5t-74.5 -10.5zM204 293h-112l45 283l-49 -27l-26 87l135 70h73zM688 700l-450 -700h-138l450 700h138z" />
<glyph unicode="&#x2154;" horiz-adv-x="1004" d="M27 0zM761 -12q-117 0 -155 90l87 46q12 -25 28.5 -36.5t44.5 -11.5q29 0 48.5 13t19.5 39q0 19 -12.5 27t-42.5 8h-43l13 81h42q27 0 43.5 13.5t16.5 36.5q0 36 -51 36q-24 0 -41 -9.5t-34 -33.5l-70 53q28 40 67.5 60t99.5 20q74 0 109 -26t35 -76q0 -39 -19 -67 t-51 -46q21 -9 33.5 -26.5t12.5 -48.5t-13 -57t-36.5 -45t-57 -29.5t-74.5 -10.5zM27 293l12 79l156 121q32 26 52.5 46.5t20.5 46.5q0 19 -14 27t-37 8q-28 0 -47 -12.5t-39 -38.5l-65 54q34 50 77.5 69.5t97.5 19.5q31 0 57.5 -5.5t46 -17.5t30.5 -31.5t11 -47.5 q0 -51 -31 -91t-87 -83l-66 -51l163 1l-14 -94h-324zM809 700l-450 -700h-138l450 700h138z" />
<glyph unicode="&#x2155;" horiz-adv-x="886" d="M62 0zM204 293h-112l45 283l-49 -27l-26 87l135 70h73zM656 321l-17 -67q17 5 33 8t36 3q63 0 95.5 -27.5t32.5 -84.5q0 -75 -50.5 -120t-141.5 -45q-54 0 -95 18.5t-62 59.5l84 56q13 -24 30 -35.5t46 -11.5q35 0 56.5 17.5t21.5 48.5q0 26 -16 36t-41 10q-41 0 -71 -24 l-67 33l52 212h281l-14 -87h-193zM688 700l-450 -700h-138l450 700h138z" />
<glyph unicode="&#x2156;" horiz-adv-x="1007" d="M27 0zM27 293l12 79l156 121q32 26 52.5 46.5t20.5 46.5q0 19 -14 27t-37 8q-28 0 -47 -12.5t-39 -38.5l-65 54q34 50 77.5 69.5t97.5 19.5q31 0 57.5 -5.5t46 -17.5t30.5 -31.5t11 -47.5q0 -51 -31 -91t-87 -83l-66 -51l163 1l-14 -94h-324zM778 321l-17 -67q17 5 33 8 t36 3q63 0 95.5 -27.5t32.5 -84.5q0 -75 -50.5 -120t-141.5 -45q-54 0 -95 18.5t-62 59.5l84 56q13 -24 30 -35.5t46 -11.5q35 0 56.5 17.5t21.5 48.5q0 26 -16 36t-41 10q-41 0 -71 -24l-67 33l52 212h281l-14 -87h-193zM809 700l-450 -700h-138l450 700h138z" />
<glyph unicode="&#x2157;" horiz-adv-x="996" d="M34 0zM189 281q-117 0 -155 90l87 46q12 -25 28.5 -36.5t44.5 -11.5q29 0 48.5 13t19.5 39q0 19 -12.5 27t-42.5 8h-43l13 81h42q27 0 43.5 13.5t16.5 36.5q0 36 -51 36q-24 0 -41 -9.5t-34 -33.5l-70 53q28 40 67.5 60t99.5 20q74 0 109 -26t35 -76q0 -39 -19 -67 t-51 -46q21 -9 33.5 -26.5t12.5 -48.5t-13 -57t-36.5 -45t-57 -29.5t-74.5 -10.5zM767 321l-17 -67q17 5 33 8t36 3q63 0 95.5 -27.5t32.5 -84.5q0 -75 -50.5 -120t-141.5 -45q-54 0 -95 18.5t-62 59.5l84 56q13 -24 30 -35.5t46 -11.5q35 0 56.5 17.5t21.5 48.5 q0 26 -16 36t-41 10q-41 0 -71 -24l-67 33l52 212h281l-14 -87h-193zM796 700l-450 -700h-138l450 700h138z" />
<glyph unicode="&#x2158;" horiz-adv-x="1033" d="M41 0zM804 321l-17 -67q17 5 33 8t36 3q63 0 95.5 -27.5t32.5 -84.5q0 -75 -50.5 -120t-141.5 -45q-54 0 -95 18.5t-62 59.5l84 56q13 -24 30 -35.5t46 -11.5q35 0 56.5 17.5t21.5 48.5q0 26 -16 36t-41 10q-41 0 -71 -24l-67 33l52 212h281l-14 -87h-193zM835 700 l-450 -700h-138l450 700h138zM41 374l12 76l159 252h110l-152 -235h107l22 133h104l-21 -133h48l-14 -93h-49l-13 -81h-105l13 81h-221z" />
<glyph unicode="&#x2159;" horiz-adv-x="906" d="M62 0zM204 293h-112l45 283l-49 -27l-26 87l135 70h73zM847 152q0 -34 -11 -63.5t-33.5 -52t-56 -35.5t-79.5 -13q-77 0 -118.5 40t-41.5 123q0 20 2 39t6 38q17 94 70.5 143t140.5 49q55 0 94 -19t52 -55l-75 -57q-16 44 -68 44q-53 0 -77 -35t-33 -96q17 26 45.5 40.5 t64.5 14.5q54 0 86 -27t32 -78zM686 179q-27 0 -47.5 -15.5t-20.5 -45.5q0 -20 13.5 -32.5t39.5 -12.5q31 0 48 18t17 45q0 20 -12 31.5t-38 11.5zM688 700l-450 -700h-138l450 700h138z" />
<glyph unicode="&#x215a;" horiz-adv-x="1009" d="M21 0zM190 614l-17 -67q17 5 33 8t36 3q63 0 95.5 -27.5t32.5 -84.5q0 -75 -50.5 -120t-141.5 -45q-54 0 -95 18.5t-62 59.5l84 56q13 -24 30 -35.5t46 -11.5q35 0 56.5 17.5t21.5 48.5q0 26 -16 36t-41 10q-41 0 -71 -24l-67 33l52 212h281l-14 -87h-193zM950 152 q0 -34 -11 -63.5t-33.5 -52t-56 -35.5t-79.5 -13q-77 0 -118.5 40t-41.5 123q0 20 2 39t6 38q17 94 70.5 143t140.5 49q55 0 94 -19t52 -55l-75 -57q-16 44 -68 44q-53 0 -77 -35t-33 -96q17 26 45.5 40.5t64.5 14.5q54 0 86 -27t32 -78zM789 179q-27 0 -47.5 -15.5 t-20.5 -45.5q0 -20 13.5 -32.5t39.5 -12.5q31 0 48 18t17 45q0 20 -12 31.5t-38 11.5zM791 700l-450 -700h-138l450 700h138z" />
<glyph unicode="&#x215b;" horiz-adv-x="903" d="M62 0zM204 293h-112l45 283l-49 -27l-26 87l135 70h73zM650 -12q-150 0 -150 106q0 48 25.5 77.5t60.5 42.5q-20 11 -30 29t-10 47q0 66 46.5 98t125.5 32q68 0 103 -24t35 -75q0 -39 -19 -66.5t-52 -43.5q54 -24 54 -83q0 -69 -50 -104.5t-139 -35.5zM692 250 q26 0 44.5 13.5t18.5 39.5q0 17 -13 26.5t-35 9.5q-28 0 -45.5 -13t-17.5 -39q0 -19 12.5 -28t35.5 -9zM662 65q29 0 49.5 15t20.5 43q0 20 -14.5 31t-39.5 11q-31 0 -50 -15.5t-19 -43.5q0 -41 53 -41zM688 700l-450 -700h-138l450 700h138z" />
<glyph unicode="&#x215c;" horiz-adv-x="1012" d="M34 0zM189 281q-117 0 -155 90l87 46q12 -25 28.5 -36.5t44.5 -11.5q29 0 48.5 13t19.5 39q0 19 -12.5 27t-42.5 8h-43l13 81h42q27 0 43.5 13.5t16.5 36.5q0 36 -51 36q-24 0 -41 -9.5t-34 -33.5l-70 53q28 40 67.5 60t99.5 20q74 0 109 -26t35 -76q0 -39 -19 -67 t-51 -46q21 -9 33.5 -26.5t12.5 -48.5t-13 -57t-36.5 -45t-57 -29.5t-74.5 -10.5zM759 -12q-150 0 -150 106q0 48 25.5 77.5t60.5 42.5q-20 11 -30 29t-10 47q0 66 46.5 98t125.5 32q68 0 103 -24t35 -75q0 -39 -19 -66.5t-52 -43.5q54 -24 54 -83q0 -69 -50 -104.5 t-139 -35.5zM801 250q26 0 44.5 13.5t18.5 39.5q0 17 -13 26.5t-35 9.5q-28 0 -45.5 -13t-17.5 -39q0 -19 12.5 -28t35.5 -9zM771 65q29 0 49.5 15t20.5 43q0 20 -14.5 31t-39.5 11q-31 0 -50 -15.5t-19 -43.5q0 -41 53 -41zM796 700l-450 -700h-138l450 700h138z" />
<glyph unicode="&#x215d;" horiz-adv-x="1005" d="M21 0zM751 -12q-150 0 -150 106q0 48 25.5 77.5t60.5 42.5q-20 11 -30 29t-10 47q0 66 46.5 98t125.5 32q68 0 103 -24t35 -75q0 -39 -19 -66.5t-52 -43.5q54 -24 54 -83q0 -69 -50 -104.5t-139 -35.5zM793 250q26 0 44.5 13.5t18.5 39.5q0 17 -13 26.5t-35 9.5 q-28 0 -45.5 -13t-17.5 -39q0 -19 12.5 -28t35.5 -9zM763 65q29 0 49.5 15t20.5 43q0 20 -14.5 31t-39.5 11q-31 0 -50 -15.5t-19 -43.5q0 -41 53 -41zM190 614l-17 -67q17 5 33 8t36 3q63 0 95.5 -27.5t32.5 -84.5q0 -75 -50.5 -120t-141.5 -45q-54 0 -95 18.5t-62 59.5 l84 56q13 -24 30 -35.5t46 -11.5q35 0 56.5 17.5t21.5 48.5q0 26 -16 36t-41 10q-41 0 -71 -24l-67 33l52 212h281l-14 -87h-193zM791 700l-450 -700h-138l450 700h138z" />
<glyph unicode="&#x215e;" horiz-adv-x="928" d="M67 0zM675 -12q-150 0 -150 106q0 48 25.5 77.5t60.5 42.5q-20 11 -30 29t-10 47q0 66 46.5 98t125.5 32q68 0 103 -24t35 -75q0 -39 -19 -66.5t-52 -43.5q54 -24 54 -83q0 -69 -50 -104.5t-139 -35.5zM717 250q26 0 44.5 13.5t18.5 39.5q0 17 -13 26.5t-35 9.5 q-28 0 -45.5 -13t-17.5 -39q0 -19 12.5 -28t35.5 -9zM687 65q29 0 49.5 15t20.5 43q0 20 -14.5 31t-39.5 11q-31 0 -50 -15.5t-19 -43.5q0 -41 53 -41zM85 293q15 99 63 179.5t114 134.5l-195 -2l15 96h314l-13 -75q-145 -132 -175 -333h-123zM714 700l-450 -700h-138 l450 700h138z" />
<glyph unicode="&#x215f;" horiz-adv-x="862" d="M62 0zM204 293h-112l45 283l-49 -27l-26 87l135 70h73zM706 700l-450 -700h-138l450 700h138z" />
<glyph unicode="&#x2212;" horiz-adv-x="508" d="M462 357l-15 -93h-402l15 93h402z" />
<glyph unicode="&#x2248;" horiz-adv-x="507" d="M362 409q20 0 52.5 6t59.5 23l-14 -93q-24 -13 -57.5 -19.5t-62.5 -6.5q-26 0 -46.5 5.5t-39.5 11.5t-39 11.5t-44 5.5q-21 0 -53.5 -5.5t-62.5 -22.5l15 93q24 13 56.5 19t61.5 6q27 0 48 -5.5t40.5 -11.5t40 -11.5t45.5 -5.5zM338 257q20 0 52.5 6t60.5 23l-14 -92 q-25 -13 -58.5 -19.5t-62.5 -6.5q-26 0 -46.5 5.5t-39.5 11.5t-38.5 11.5t-44.5 5.5q-21 0 -54 -5.5t-62 -22.5l15 92q25 13 57 19t61 6q27 0 48.5 -5.5t41 -11.5t39.5 -11.5t45 -5.5z" />
<glyph unicode="&#x2260;" horiz-adv-x="507" d="M472 430l-14 -93h-134l-48 -56h174l-15 -93h-238l-61 -71h-92l61 71h-72l15 93h135l48 56h-175l15 93h239l62 73h93l-63 -73h70z" />
<glyph unicode="&#x2264;" horiz-adv-x="509" d="M104 314l8 54l295 168l37 -75l-206 -119l167 -119l-59 -76zM45 0l15 93h331l-15 -93h-331z" />
<glyph unicode="&#x2265;" horiz-adv-x="507" d="M421 315l-295 -168l-37 75l207 119l-168 118l59 77l242 -167zM391 93l-15 -93h-331l15 93h331z" />
<glyph unicode="&#x25fc;" horiz-adv-x="495" d="M0 495h495v-495h-495v495z" />
<glyph unicode="&#xf6c3;" horiz-adv-x="600" d="M228 -329l-18 57q29 8 52 26.5t32 44.5q-35 0 -54 15.5t-19 45.5q0 43 25.5 64t65.5 21q35 0 55 -18.5t20 -56.5q0 -37 -12.5 -70.5t-34 -60.5t-50.5 -44.5t-62 -23.5z" />
<glyph horiz-adv-x="521" d="M237 -65l131 831h141l-131 -831h-141zM34 -65l131 831h140l-131 -831h-140z" />
<glyph horiz-adv-x="228" d="M232 504l-34 -60q-60 21 -90 67.5t-30 112.5q0 61 21.5 88.5t59.5 27.5q41 0 63 -19.5t22 -55.5q0 -42 -23 -61.5t-58 -17.5q3 -28 21.5 -50t47.5 -32z" />
<glyph horiz-adv-x="428" d="M232 504l-34 -60q-60 21 -90 67.5t-30 112.5q0 61 21.5 88.5t59.5 27.5q41 0 63 -19.5t22 -55.5q0 -37 -21.5 -60t-59.5 -18q3 -29 21.5 -51t47.5 -32zM433 504l-34 -60q-60 21 -90.5 67.5t-30.5 112.5q0 61 22 88.5t61 27.5q40 0 62.5 -19.5t22.5 -55.5 q0 -37 -21.5 -59.5t-60.5 -18.5q4 -29 22 -51t47 -32z" />
<glyph horiz-adv-x="623" d="M437 -229q-26 0 -49.5 5.5t-41.5 19.5t-27.5 36.5t-6.5 57.5q2 41 22.5 71t48.5 49l2 62q-62 -86 -171 -86q-83 0 -129.5 49.5t-46.5 146.5q0 14 1 29.5t3 31.5q17 136 84.5 201.5t165.5 65.5q55 0 94 -21.5t56 -66.5l24 75h126l-79 -497h-2q-27 -2 -46.5 -11t-32 -22 t-19 -29t-7.5 -32q-2 -26 14 -36.5t39 -10.5q17 0 34.5 4t33.5 13l11 -78q-45 -27 -101 -27zM400 248q2 13 3 24.5t1 21.5q0 54 -24 76.5t-63 22.5q-48 0 -81 -34t-45 -112q-2 -12 -3 -24.5t-1 -22.5q0 -96 84 -96q46 0 82 35t47 109z" />
<glyph horiz-adv-x="623" d="M400 248q2 13 3 24.5t1 21.5q0 54 -24 76.5t-63 22.5q-48 0 -81 -34t-45 -112q-2 -12 -3 -24.5t-1 -22.5q0 -96 84 -96q46 0 82 35t47 109zM214 -14q-83 0 -129.5 49.5t-46.5 146.5q0 14 1 29.5t3 31.5q17 136 84.5 201.5t165.5 65.5q55 0 94 -21.5t56 -66.5l24 75h126 l-79 -497h-131l3 72q-62 -86 -171 -86z" />
<glyph horiz-adv-x="623" d="M38 0zM400 248q2 13 3 24.5t1 21.5q0 54 -24 76.5t-63 22.5q-48 0 -81 -34t-45 -112q-2 -12 -3 -24.5t-1 -22.5q0 -96 84 -96q46 0 82 35t47 109zM214 -14q-83 0 -129.5 49.5t-46.5 146.5q0 14 1 29.5t3 31.5q17 136 84.5 201.5t165.5 65.5q55 0 94 -21.5t56 -66.5l24 75 h126l-79 -497h-131l3 72q-62 -86 -171 -86zM286 571l-108 127l1 6h170l58 -128v-5h-121z" />
<glyph horiz-adv-x="623" d="M38 0zM400 248q2 13 3 24.5t1 21.5q0 54 -24 76.5t-63 22.5q-48 0 -81 -34t-45 -112q-2 -12 -3 -24.5t-1 -22.5q0 -96 84 -96q46 0 82 35t47 109zM214 -14q-83 0 -129.5 49.5t-46.5 146.5q0 14 1 29.5t3 31.5q17 136 84.5 201.5t165.5 65.5q55 0 94 -21.5t56 -66.5l24 75 h126l-79 -497h-131l3 72q-62 -86 -171 -86zM373 704h166l-1 -6l-145 -127h-122v5z" />
<glyph horiz-adv-x="623" d="M38 0zM348 629l-70 -58h-127l1 4l142 129h128l101 -129l-1 -4h-123zM400 248q2 13 3 24.5t1 21.5q0 54 -24 76.5t-63 22.5q-48 0 -81 -34t-45 -112q-2 -12 -3 -24.5t-1 -22.5q0 -96 84 -96q46 0 82 35t47 109zM214 -14q-83 0 -129.5 49.5t-46.5 146.5q0 14 1 29.5t3 31.5 q17 136 84.5 201.5t165.5 65.5q55 0 94 -21.5t56 -66.5l24 75h126l-79 -497h-131l3 72q-62 -86 -171 -86z" />
<glyph horiz-adv-x="623" d="M38 0zM444 570q-72 0 -72 61q0 45 25 66.5t66 21.5q73 0 73 -61q0 -45 -25 -66.5t-67 -21.5zM236 570q-72 0 -72 61q0 46 25 67t66 21q72 0 72 -60q0 -46 -24.5 -67.5t-66.5 -21.5zM400 248q2 13 3 24.5t1 21.5q0 54 -24 76.5t-63 22.5q-48 0 -81 -34t-45 -112 q-2 -12 -3 -24.5t-1 -22.5q0 -96 84 -96q46 0 82 35t47 109zM214 -14q-83 0 -129.5 49.5t-46.5 146.5q0 14 1 29.5t3 31.5q17 136 84.5 201.5t165.5 65.5q55 0 94 -21.5t56 -66.5l24 75h126l-79 -497h-131l3 72q-62 -86 -171 -86z" />
<glyph horiz-adv-x="623" d="M38 0zM400 248q2 13 3 24.5t1 21.5q0 54 -24 76.5t-63 22.5q-48 0 -81 -34t-45 -112q-2 -12 -3 -24.5t-1 -22.5q0 -96 84 -96q46 0 82 35t47 109zM214 -14q-83 0 -129.5 49.5t-46.5 146.5q0 14 1 29.5t3 31.5q17 136 84.5 201.5t165.5 65.5q55 0 94 -21.5t56 -66.5l24 75 h126l-79 -497h-131l3 72q-62 -86 -171 -86zM443 700h91q-2 -35 -13 -58.5t-28 -37.5t-37 -20t-39 -6q-22 0 -40 5.5t-33.5 11.5t-29 11.5t-27.5 5.5q-17 0 -24 -10.5t-9 -23.5h-93q2 35 13.5 58.5t28 38t36.5 20.5t39 6q22 0 40 -5.5t34 -12t30 -12t28 -5.5q17 0 24 10t9 24 z" />
<glyph horiz-adv-x="623" d="M38 0zM400 248q2 13 3 24.5t1 21.5q0 54 -24 76.5t-63 22.5q-48 0 -81 -34t-45 -112q-2 -12 -3 -24.5t-1 -22.5q0 -96 84 -96q46 0 82 35t47 109zM214 -14q-83 0 -129.5 49.5t-46.5 146.5q0 14 1 29.5t3 31.5q17 136 84.5 201.5t165.5 65.5q55 0 94 -21.5t56 -66.5l24 75 h126l-79 -497h-131l3 72q-62 -86 -171 -86zM339 549q-43 0 -72 22t-29 67q0 27 9.5 49t26 37t39.5 23.5t49 8.5q47 0 74 -23t27 -65q0 -55 -35 -87t-89 -32zM358 698q-23 0 -37.5 -14.5t-14.5 -40.5q0 -17 10 -26.5t27 -9.5q20 0 36 14.5t16 40.5q0 17 -10 26.5t-27 9.5z " />
<glyph horiz-adv-x="623" d="M38 0zM400 248q2 13 3 24.5t1 21.5q0 54 -24 76.5t-63 22.5q-48 0 -81 -34t-45 -112q-2 -12 -3 -24.5t-1 -22.5q0 -96 84 -96q46 0 82 35t47 109zM214 -14q-83 0 -129.5 49.5t-46.5 146.5q0 14 1 29.5t3 31.5q17 136 84.5 201.5t165.5 65.5q55 0 94 -21.5t56 -66.5l24 75 h126l-79 -497h-131l3 72q-62 -86 -171 -86zM500 677l-15 -87h-283l13 87h285z" />
<glyph horiz-adv-x="623" d="M38 0zM400 248q2 13 3 24.5t1 21.5q0 54 -24 76.5t-63 22.5q-48 0 -81 -34t-45 -112q-2 -12 -3 -24.5t-1 -22.5q0 -96 84 -96q46 0 82 35t47 109zM214 -14q-83 0 -129.5 49.5t-46.5 146.5q0 14 1 29.5t3 31.5q17 136 84.5 201.5t165.5 65.5q55 0 94 -21.5t56 -66.5l24 75 h126l-79 -497h-131l3 72q-62 -86 -171 -86zM430 704h96q-5 -40 -20 -67t-39 -43t-56 -23t-72 -7q-39 0 -69.5 7t-50 23t-27 43t-2.5 67h95q-6 -36 9.5 -49t52.5 -13t57 13t26 49z" />
<glyph horiz-adv-x="628" d="M366 18l8 51q-32 -38 -73 -54t-86 -16q-86 0 -125.5 43t-39.5 111q0 20 3 43l48 301h155l-41 -256q-3 -21 -3 -39q0 -75 71 -75q45 0 78 33.5t44 99.5l38 237h155l-76 -477q-10 -62 -36.5 -107t-67 -75t-92 -44.5t-111.5 -14.5q-37 0 -70.5 5.5t-61 18t-48.5 33.5t-33 52 l95 77q17 -40 46.5 -56.5t76.5 -16.5q60 0 97.5 30t48.5 96z" />
<glyph horiz-adv-x="628" d="M2 0zM366 18l8 51q-32 -38 -73 -54t-86 -16q-86 0 -125.5 43t-39.5 111q0 20 3 43l48 301h155l-41 -256q-3 -21 -3 -39q0 -75 71 -75q45 0 78 33.5t44 99.5l38 237h155l-76 -477q-10 -62 -36.5 -107t-67 -75t-92 -44.5t-111.5 -14.5q-37 0 -70.5 5.5t-61 18t-48.5 33.5 t-33 52l95 77q17 -40 46.5 -56.5t76.5 -16.5q60 0 97.5 30t48.5 96zM390 704h166l-1 -6l-145 -127h-122v5z" />
<glyph horiz-adv-x="628" d="M2 0zM366 629l-70 -58h-127l1 4l142 129h128l101 -129l-1 -4h-123zM366 18l8 51q-32 -38 -73 -54t-86 -16q-86 0 -125.5 43t-39.5 111q0 20 3 43l48 301h155l-41 -256q-3 -21 -3 -39q0 -75 71 -75q45 0 78 33.5t44 99.5l38 237h155l-76 -477q-10 -62 -36.5 -107t-67 -75 t-92 -44.5t-111.5 -14.5q-37 0 -70.5 5.5t-61 18t-48.5 33.5t-33 52l95 77q17 -40 46.5 -56.5t76.5 -16.5q60 0 97.5 30t48.5 96z" />
<glyph horiz-adv-x="628" d="M2 0zM462 570q-72 0 -72 61q0 45 25 66.5t66 21.5q73 0 73 -61q0 -45 -25 -66.5t-67 -21.5zM254 570q-72 0 -72 61q0 46 25 67t66 21q72 0 72 -60q0 -46 -24.5 -67.5t-66.5 -21.5zM366 18l8 51q-32 -38 -73 -54t-86 -16q-86 0 -125.5 43t-39.5 111q0 20 3 43l48 301h155 l-41 -256q-3 -21 -3 -39q0 -75 71 -75q45 0 78 33.5t44 99.5l38 237h155l-76 -477q-10 -62 -36.5 -107t-67 -75t-92 -44.5t-111.5 -14.5q-37 0 -70.5 5.5t-61 18t-48.5 33.5t-33 52l95 77q17 -40 46.5 -56.5t76.5 -16.5q60 0 97.5 30t48.5 96z" />
<glyph horiz-adv-x="389" d="M308 470l72 -50q-56 -81 -167 -81q-75 0 -116 35t-41 111q0 17 3 41q14 98 67 143t138 45q113 0 143 -92l-86 -47q-8 24 -22 35.5t-43 11.5q-36 0 -57.5 -22.5t-29.5 -74.5q-2 -11 -2.5 -18t-0.5 -16q0 -33 14.5 -48.5t49.5 -15.5q26 0 45 10t33 33z" />
<glyph horiz-adv-x="445" d="M313 526q3 18 3 32q0 37 -16.5 53.5t-42.5 16.5q-33 0 -55.5 -24t-31.5 -78q-3 -18 -3 -33q0 -66 57 -66q33 0 57 24t32 75zM238 714q39 0 66.5 -16t39.5 -48l18 53h92l-56 -352h-96l1 49q-22 -29 -52 -45t-67 -16q-60 0 -93.5 35.5t-33.5 105.5q0 19 3 43 q12 98 60.5 144.5t117.5 46.5z" />
<glyph horiz-adv-x="600" d="M340 441h-101l48 259h127z" />
<glyph horiz-adv-x="253" d="M14 -1l99 483h111l-53 -483h-157zM202 707q76 0 76 -68q0 -48 -26.5 -72t-70.5 -24q-76 0 -76 68q0 48 26 72t71 24z" />
<glyph horiz-adv-x="514" d="M17 157q0 113 60.5 174.5t160.5 73.5l19 83h121l-22 -175h-57q-61 0 -99.5 -31t-38.5 -98q0 -36 25.5 -57t79.5 -21q45 0 81 19.5t70 73.5l87 -64q-91 -149 -270 -149q-106 0 -161.5 42.5t-55.5 128.5zM353 713q76 0 76 -68q0 -48 -26 -71.5t-70 -23.5q-77 0 -77 68 q0 47 26.5 71t70.5 24z" />
<glyph horiz-adv-x="377" d="M333 328l-19 -123h-277l20 123h276z" />
<glyph horiz-adv-x="686" d="M641 328l-19 -123h-584l19 123h584z" />
<glyph horiz-adv-x="726" d="M335 -14q-137 0 -207 68t-70 209q0 40 6 88q25 190 120 276.5t262 86.5q109 0 169 -40.5t82 -119.5l-136 -58q-16 46 -46 65t-83 19q-40 0 -73.5 -11t-59.5 -38t-44.5 -71.5t-28.5 -110.5q-4 -23 -6 -44t-2 -39q0 -42 9.5 -71t28 -46.5t45.5 -25t61 -7.5q30 0 57 7 t48.5 23.5t37 43.5t22.5 66h-141l19 122h290l-14 -91q-23 -152 -107.5 -226.5t-238.5 -74.5z" />
<glyph horiz-adv-x="710" d="M463 0l-200 329l-52 -329h-162l111 700h162l-56 -354l309 354h187l-328 -354l229 -346h-200z" />
<glyph horiz-adv-x="571" d="M359 0l-144 214l-35 -214h-154l111 700h156l-70 -434l209 231h162l-235 -249l169 -248h-169z" />
<glyph horiz-adv-x="794" d="M69 2zM643 103q-51 -48 -119 -74.5t-154 -26.5q-73 0 -129 20t-94.5 57t-58 89.5t-19.5 117.5q0 91 29 166.5t81.5 129.5t126 84t162.5 30q69 0 122.5 -18.5t90 -53t55 -83t18.5 -109.5q0 -57 -14 -103t-39.5 -78t-62.5 -49.5t-83 -17.5q-77 0 -90 57 q-20 -29 -52.5 -46.5t-74.5 -17.5q-47 0 -75 22t-28 64q0 61 46 94.5t121 33.5h67l1 13q2 29 -16.5 38.5t-47.5 9.5q-62 0 -100 -38l-33 60q57 60 158 60q31 0 57 -6t45 -19.5t29.5 -35.5t10.5 -53q0 -15 -3 -33l-13 -84q-1 -4 -2.5 -12.5t-1.5 -13.5q0 -36 39 -36 q21 0 41 12t35 35.5t24 59t9 82.5q0 55 -17 96t-47.5 68t-74 40t-96.5 13q-69 0 -131.5 -23t-110 -68t-75.5 -113t-28 -158q0 -59 18 -103t51 -72.5t79 -42.5t103 -14q71 0 132 21.5t108 65.5zM372 245q73 0 88 85l-59 1q-72 0 -72 -53q0 -33 43 -33z" />
<glyph horiz-adv-x="709" d="M71 349q25 188 107.5 276.5t238.5 88.5q133 0 195 -63.5t62 -197.5q0 -24 -2 -49.5t-6 -54.5q-26 -185 -109 -274t-238 -89q-132 0 -194 62.5t-62 195.5q0 25 2 50.5t6 54.5zM519 448q0 77 -29 108.5t-83 31.5q-35 0 -63 -12t-50 -39.5t-38.5 -73.5t-27.5 -113 q-5 -30 -7.5 -54.5t-2.5 -46.5q0 -77 29 -107.5t82 -30.5q35 0 63.5 11.5t51 39.5t39 74t27.5 114q9 58 9 98z" />
<glyph horiz-adv-x="398" d="M259 0h-158l81 517l-90 -53l-40 126l215 116h104z" />
<glyph horiz-adv-x="609" d="M6 0l18 119l260 207q32 25 58.5 48t45 45.5t29 45.5t10.5 49q0 37 -24.5 53t-67.5 16q-57 0 -94 -23t-71 -71l-95 76q55 82 124.5 115.5t164.5 33.5q51 0 92.5 -9t71 -29.5t46 -52t16.5 -76.5q0 -41 -12.5 -77.5t-37 -72t-62.5 -72.5t-89 -79l-142 -117l309 4l-21 -133 h-529z" />
<glyph horiz-adv-x="612" d="M256 -14q-185 0 -247 144l123 67q20 -45 51 -65.5t82 -20.5q30 0 55 7t43.5 21t29 35.5t10.5 51.5q0 34 -23.5 51.5t-77.5 17.5h-81l19 119h80q50 0 81.5 27t31.5 75q0 37 -25.5 53.5t-73.5 16.5q-45 0 -78 -17.5t-65 -59.5l-98 77q47 65 111.5 96.5t162.5 31.5 q114 0 170 -42.5t56 -123.5q0 -63 -32 -111t-87 -78q39 -20 60 -49t21 -79q0 -54 -20.5 -99t-59.5 -77.5t-94.5 -50.5t-124.5 -18z" />
<glyph horiz-adv-x="679" d="M20 152l18 109l276 439h157l-268 -415h213l43 268h149l-42 -268h88l-21 -133h-89l-23 -152h-150l24 152h-375z" />
<glyph horiz-adv-x="601" d="M261 573l-36 -147q28 14 61.5 20.5t69.5 6.5q96 0 153 -44t57 -136q0 -65 -21.5 -118t-62 -90.5t-100 -58t-134.5 -20.5q-86 0 -151 33.5t-97 100.5l118 77q41 -89 137 -89q34 0 62.5 9.5t49 28t32 44.5t11.5 59q0 48 -31 69.5t-79 21.5q-81 0 -138 -48l-92 47l88 361 h451l-20 -127h-328z" />
<glyph horiz-adv-x="667" d="M330 -14q-125 0 -195 64.5t-70 205.5q0 20 1.5 43t5.5 46q26 179 114 274t242 95q89 0 151.5 -30.5t82.5 -90.5l-110 -81q-13 34 -41 57t-83 23q-48 0 -82 -18.5t-57.5 -50.5t-38 -76.5t-22.5 -95.5l-3 -17q29 47 77 76.5t116 29.5q93 0 147 -45.5t54 -133.5 q0 -59 -19.5 -109.5t-56.5 -87.5t-91 -57.5t-122 -20.5zM363 326q-27 0 -52 -8.5t-44 -25t-30 -40t-11 -53.5q0 -42 27 -68t77 -26q61 0 97 37t36 97q0 40 -24 63.5t-76 23.5z" />
<glyph horiz-adv-x="535" d="M104 0q13 85 42 165.5t69.5 153t91 135t107.5 111.5l-340 -4l22 139h509l-18 -115q-62 -50 -113 -114.5t-90.5 -139.5t-67 -159t-40.5 -172h-172z" />
<glyph horiz-adv-x="656" d="M286 -14q-122 0 -184 44.5t-63 132.5q0 41 11.5 74.5t32.5 59t49 43.5t60 27q-37 19 -56.5 49t-19.5 78q0 55 19.5 96.5t56 69t88 41t114.5 13.5q109 0 166 -39.5t57 -122.5q0 -69 -33 -116.5t-93 -72.5q48 -18 73 -52t26 -88q0 -57 -20.5 -101t-60 -74.5t-96 -46 t-127.5 -15.5zM351 420q24 0 46 7t38.5 20.5t26.5 33.5t10 46q0 35 -24 54t-69 19q-54 0 -88.5 -27.5t-34.5 -79.5q0 -35 24.5 -54t70.5 -19zM299 98q27 0 51.5 7.5t43.5 22t30.5 36.5t11.5 51q0 40 -28.5 60.5t-76.5 20.5q-60 0 -98 -30.5t-38 -85.5q0 -42 27 -62t77 -20z " />
<glyph horiz-adv-x="660" d="M332 367q27 0 52 9t43.5 25.5t30 41t11.5 54.5q0 42 -27 67.5t-78 25.5q-60 0 -96 -36.5t-36 -96.5q0 -41 23.5 -65.5t76.5 -24.5zM369 714q123 0 191 -65.5t68 -205.5q0 -31 -2.5 -61.5t-8.5 -60.5q-30 -165 -119 -250t-230 -85q-90 0 -153 28t-89 84l109 83 q14 -35 48.5 -54t85.5 -19q48 0 82 18t57 50.5t37.5 76.5t22.5 95l3 18q-29 -54 -79.5 -84t-116.5 -30q-92 0 -145 47.5t-53 136.5q0 57 18 107.5t54.5 88.5t91 60t128.5 22z" />
<glyph d="M37 300q21 162 103 238t214 76q116 0 178 -57.5t62 -180.5q0 -36 -6 -76q-22 -161 -104 -237.5t-213 -76.5q-117 0 -178.5 57.5t-61.5 180.5q0 35 6 76zM449 372q0 65 -27.5 91t-77.5 26q-32 0 -58 -9t-46.5 -31t-35 -58t-22.5 -90q-3 -22 -5 -39.5t-2 -33.5 q0 -66 28 -91.5t79 -25.5q31 0 57 9.5t46 31t34 58t23 90.5q3 21 5 38.5t2 33.5z" />
<glyph d="M60 134h156l43 283l-83 -53l-40 126l208 116h101l-74 -472h152l-22 -134h-462z" />
<glyph d="M29 0l16 109l227 167q30 22 55.5 41t44 37.5t29 37.5t10.5 41q0 29 -22 42t-60 13q-45 0 -77.5 -20.5t-62.5 -66.5l-96 69q52 77 117 110.5t151 33.5q47 0 86 -8.5t66.5 -26.5t42.5 -46t15 -67q0 -71 -49.5 -132.5t-149.5 -131.5l-121 -86l287 4l-19 -120h-490z" />
<glyph d="M246 -114q-91 0 -151.5 34t-90.5 108l118 71q19 -48 50 -69t81 -21q61 0 100 28t39 90q0 34 -24 51.5t-75 17.5h-80l18 118h79q50 0 81 27t31 77q0 70 -97 70q-47 0 -79 -19t-63 -60l-96 68q49 74 115 105.5t156 31.5q107 0 163.5 -43t56.5 -121q0 -29 -7.5 -57 t-22 -53.5t-36 -46.5t-48.5 -35q76 -34 76 -123q0 -55 -20 -101t-58 -79t-92.5 -51t-123.5 -18z" />
<glyph d="M-9 52l17 114l293 434h149l-278 -415h185l31 193h147l-31 -193h78l-21 -133h-78l-24 -152h-147l24 152h-345z" />
<glyph d="M257 473l-36 -147q28 14 61.5 20.5t68.5 6.5q46 0 84 -11t65 -33t41.5 -55.5t14.5 -78.5q0 -68 -21.5 -121.5t-61.5 -90.5t-98 -57t-130 -20q-85 0 -148.5 33.5t-95.5 100.5l115 77q38 -91 136 -91q68 0 109.5 39.5t41.5 106.5q0 45 -28.5 66t-78.5 21q-42 0 -75.5 -12.5 t-61.5 -35.5l-90 48l88 361h441l-19 -127h-322z" />
<glyph d="M290 -14q-120 0 -186.5 65t-66.5 205q0 60 11 121q29 166 116 251.5t224 85.5q88 0 149 -31t82 -91l-107 -80q-29 80 -122 80q-47 0 -80.5 -18.5t-56.5 -50.5t-37 -76.5t-22 -95.5l-4 -22q29 53 77.5 82t112.5 29q90 0 141.5 -46.5t51.5 -132.5q0 -56 -17.5 -106 t-52.5 -87.5t-88 -59.5t-125 -22zM325 326q-27 0 -51.5 -8.5t-42.5 -25t-29 -40t-11 -53.5q0 -42 26 -68t76 -26q60 0 94.5 37t34.5 97q0 40 -23 63.5t-74 23.5z" />
<glyph d="M116 -100q13 85 41.5 165.5t69 153t90.5 135t107 111.5l-336 -4l21 139h504l-18 -115q-61 -50 -112 -114.5t-90 -139.5t-66 -159t-40 -172h-171z" />
<glyph d="M267 -14q-118 0 -180.5 44.5t-62.5 132.5q0 42 12 75t32.5 58.5t48 43t59.5 27.5q-35 19 -54 49t-19 78q0 55 19.5 96.5t55 69t86 41t112.5 13.5q107 0 163 -39.5t56 -122.5q0 -69 -33 -116.5t-90 -72.5q45 -17 69.5 -50.5t24.5 -84.5q0 -116 -78.5 -179t-220.5 -63z M333 420q24 0 45.5 7t38.5 20.5t27 33.5t10 46q0 35 -24 54t-69 19q-54 0 -87.5 -27.5t-33.5 -79.5q0 -35 24 -54t69 -19zM280 98q26 0 50.5 7.5t43.5 22t30.5 36.5t11.5 51q0 40 -28.5 60.5t-77.5 20.5q-60 0 -97 -30.5t-37 -85.5q0 -42 26.5 -62t77.5 -20z" />
<glyph d="M303 267q27 0 51 9t42.5 25.5t29.5 41t11 54.5q0 42 -26 67.5t-75 25.5q-60 0 -95 -36.5t-35 -96.5q0 -41 23 -65.5t74 -24.5zM339 614q120 0 186 -65.5t66 -205.5q0 -31 -3 -61.5t-8 -60.5q-28 -166 -115.5 -250.5t-225.5 -84.5q-89 0 -151 28t-88 84l107 83 q14 -35 48 -54t85 -19q46 0 79.5 18t56.5 50.5t37 76.5t22 95l3 18q-28 -53 -77 -82.5t-113 -29.5q-90 0 -141.5 47t-51.5 135q0 57 17.5 107.5t52.5 88.5t88.5 60t125.5 22z" />
<glyph horiz-adv-x="635" d="M47 300q22 162 102.5 238t211.5 76q115 0 176.5 -57.5t61.5 -178.5q0 -36 -6 -78q-22 -161 -103 -237.5t-212 -76.5q-115 0 -176 57t-61 178q0 35 6 79zM450 374q0 65 -26 90t-74 25q-30 0 -54 -9t-43 -31t-33 -58t-22 -90q-4 -23 -5.5 -41t-1.5 -35q0 -64 25 -89t73 -25 q30 0 55 9.5t44 31t32.5 58t22.5 90.5q4 21 5.5 39.5t1.5 34.5z" />
<glyph horiz-adv-x="369" d="M247 0h-157l66 417l-86 -53l-39 126l210 116h103z" />
<glyph horiz-adv-x="537" d="M-4 0l16 102l219 176q29 24 52 43.5t38.5 38.5t24 38t8.5 40q0 27 -19 39t-51 12q-42 0 -71 -20.5t-58 -64.5l-96 68q48 76 109.5 109t145.5 33q43 0 80 -8t63.5 -24.5t41.5 -43.5t15 -64t-11.5 -69.5t-35 -64t-57.5 -64t-79 -69.5l-113 -93l256 4l-19 -118h-459z" />
<glyph horiz-adv-x="589" d="M225 -115q-87 0 -146 35t-88 110l117 72q17 -48 46 -71.5t77 -23.5q30 0 55 7t44 22t29.5 37.5t10.5 52.5q0 35 -23.5 52.5t-74.5 17.5h-78l19 118h76q49 0 79.5 27t30.5 77q0 35 -24.5 53t-69.5 18t-75.5 -18t-60.5 -62l-99 68q50 76 115.5 106.5t152.5 30.5 q107 0 163 -42.5t56 -120.5q0 -58 -29.5 -111t-85.5 -82q77 -35 77 -124q0 -55 -20 -101t-58 -79t-92.5 -51t-123.5 -18z" />
<glyph horiz-adv-x="634" d="M2 52l16 107l264 442h149l-255 -420h201l43 272h141l-41 -272h83l-20 -129h-83l-24 -152h-142l23 152h-355z" />
<glyph horiz-adv-x="574" d="M240 475l-37 -149q27 14 59 20.5t65 6.5q94 0 148.5 -44.5t54.5 -136.5q0 -66 -21.5 -119t-61.5 -90t-97 -57t-127 -20q-85 0 -148 31.5t-93 97.5l114 78q19 -43 50.5 -65t82.5 -22q32 0 59 10.5t46.5 30t30.5 46.5t11 60q0 45 -28 65.5t-78 20.5q-39 0 -71 -12.5 t-59 -35.5l-91 48l89 361h434l-20 -125h-312z" />
<glyph horiz-adv-x="642" d="M308 -14q-120 0 -186 65t-66 205q0 60 11 121q29 168 114.5 252.5t223.5 84.5q88 0 147.5 -31t79.5 -91l-105 -80q-29 80 -120 80q-47 0 -80 -18.5t-55.5 -50.5t-36 -76t-21.5 -95l-3 -22q28 53 77 81.5t113 28.5q89 0 140 -46.5t51 -132.5q0 -56 -17.5 -106t-52.5 -87.5 t-88.5 -59.5t-125.5 -22zM343 326q-26 0 -50 -8.5t-42 -25t-28.5 -39.5t-10.5 -53q0 -41 25.5 -68t74.5 -27q58 0 93 37.5t35 96.5q0 40 -23 63.5t-74 23.5z" />
<glyph horiz-adv-x="505" d="M80 -100q13 85 40.5 165.5t65.5 153t86 135t103 111.5l-323 -4l21 139h484l-18 -115q-59 -50 -108 -114.5t-86.5 -139.5t-63 -159t-37.5 -172h-164z" />
<glyph horiz-adv-x="635" d="M269 -14q-117 0 -177.5 44t-60.5 132q0 42 11.5 75.5t31.5 59t47 43t58 27.5q-35 18 -53.5 48t-18.5 78q0 55 19.5 96.5t55 69.5t85.5 41.5t111 13.5q106 0 161 -39t55 -122q0 -69 -32.5 -117t-89.5 -73q45 -17 68.5 -50t23.5 -84q0 -117 -77.5 -180t-217.5 -63zM335 420 q24 0 45 7.5t36.5 21.5t25 34t9.5 45q0 35 -23 53.5t-65 18.5q-52 0 -85 -27.5t-33 -80.5q0 -35 23 -53.5t67 -18.5zM283 98q26 0 50 8t42 23t28.5 37t10.5 50q0 39 -26.5 59.5t-73.5 20.5q-57 0 -93.5 -30.5t-36.5 -87.5q0 -40 25.5 -60t73.5 -20z" />
<glyph horiz-adv-x="644" d="M306 267q25 0 48.5 9.5t41.5 26.5t29 41t11 54q0 42 -25.5 67t-73.5 25q-54 0 -91 -33.5t-37 -99.5q0 -41 23 -65.5t74 -24.5zM341 614q121 0 186.5 -65t65.5 -204q0 -59 -11 -123q-29 -168 -114.5 -252t-225.5 -84q-87 0 -148.5 28.5t-87.5 85.5l107 81q14 -35 47 -54 t82 -19q37 0 69 12.5t56.5 41t42 74.5t25.5 113l2 16q-28 -54 -76 -83.5t-114 -29.5q-88 0 -139 47.5t-51 135.5q0 61 18.5 112t54.5 88t89 58t122 21z" />
<glyph horiz-adv-x="442" d="M0 0zM213 220q84 0 122.5 -39t38.5 -118q0 -16 -1 -29.5t-3 -30.5q-15 -105 -65.5 -160t-148.5 -55q-83 0 -122 38.5t-39 117.5q0 14 1.5 28.5t3.5 30.5q15 111 66 164t147 53zM205 131q-35 0 -58 -28t-35 -99q-2 -16 -4 -30t-2 -25q0 -41 15 -56.5t43 -15.5 q35 0 58.5 27.5t35.5 98.5q2 17 4 31t2 25q0 40 -15.5 56t-43.5 16z" />
<glyph horiz-adv-x="263" d="M0 0zM142 -200h-112l45 283l-49 -27l-26 87l135 70h73z" />
<glyph horiz-adv-x="382" d="M0 0zM-35 -200l12 79l156 121q32 26 52.5 46.5t20.5 46.5q0 19 -14 27t-37 8q-28 0 -47 -12.5t-39 -38.5l-65 54q34 50 77.5 69.5t97.5 19.5q31 0 57.5 -5.5t46 -17.5t30.5 -31.5t11 -47.5q0 -51 -31 -91t-87 -83l-66 -51l163 1l-14 -94h-324z" />
<glyph horiz-adv-x="381" d="M0 0zM121 -212q-117 0 -155 90l87 46q12 -25 28.5 -36.5t44.5 -11.5q29 0 48.5 13t19.5 39q0 19 -12.5 27t-42.5 8h-43l13 81h42q27 0 43.5 13.5t16.5 36.5q0 36 -51 36q-24 0 -41 -9.5t-34 -33.5l-70 53q28 40 67.5 60t99.5 20q74 0 109 -26t35 -76q0 -39 -19 -67 t-51 -46q21 -9 33.5 -26.5t12.5 -48.5t-13 -57t-36.5 -45t-57 -29.5t-74.5 -10.5z" />
<glyph horiz-adv-x="422" d="M0 0zM-22 -119l12 76l159 252h110l-152 -235h107l22 133h104l-21 -133h48l-14 -93h-49l-13 -81h-105l13 81h-221z" />
<glyph horiz-adv-x="374" d="M0 0zM127 121l-17 -67q17 5 33 8t36 3q63 0 95.5 -27.5t32.5 -84.5q0 -75 -50.5 -120t-141.5 -45q-54 0 -95 18.5t-62 59.5l84 56q13 -24 30 -35.5t46 -11.5q35 0 56.5 17.5t21.5 48.5q0 26 -16 36t-41 10q-41 0 -71 -24l-67 33l52 212h281l-14 -87h-193z" />
<glyph horiz-adv-x="413" d="M0 0zM336 -48q0 -34 -11 -63.5t-33.5 -52t-56 -35.5t-79.5 -13q-77 0 -118.5 40t-41.5 123q0 20 2 39t6 38q17 94 70.5 143t140.5 49q55 0 94 -19t52 -55l-75 -57q-16 44 -68 44q-53 0 -77 -35t-33 -96q17 26 45.5 40.5t64.5 14.5q54 0 86 -27t32 -78zM175 -21 q-27 0 -47.5 -15.5t-20.5 -45.5q0 -20 13.5 -32.5t39.5 -12.5q31 0 48 18t17 45q0 20 -12 31.5t-38 11.5z" />
<glyph horiz-adv-x="339" d="M4 0zM22 -200q15 99 63 179.5t114 134.5l-195 -2l15 96h314l-13 -75q-145 -132 -175 -333h-123z" />
<glyph horiz-adv-x="407" d="M0 0zM136 -212q-150 0 -150 106q0 48 25.5 77.5t60.5 42.5q-20 11 -30 29t-10 47q0 66 46.5 98t125.5 32q68 0 103 -24t35 -75q0 -39 -19 -66.5t-52 -43.5q54 -24 54 -83q0 -69 -50 -104.5t-139 -35.5zM178 50q26 0 44.5 13.5t18.5 39.5q0 17 -13 26.5t-35 9.5 q-28 0 -45.5 -13t-17.5 -39q0 -19 12.5 -28t35.5 -9zM148 -135q29 0 49.5 15t20.5 43q0 20 -14.5 31t-39.5 11q-31 0 -50 -15.5t-19 -43.5q0 -41 53 -41z" />
<glyph horiz-adv-x="411" d="M0 0zM170 25q26 0 47 16.5t21 46.5q0 20 -13.5 32.5t-39.5 12.5q-29 0 -48 -17.5t-19 -47.5q0 -20 12.5 -31.5t39.5 -11.5zM129 -212q-56 0 -96 17t-57 49l75 60q8 -19 28 -29.5t48 -10.5q50 0 74.5 34.5t34.5 94.5q-34 -58 -109 -58q-55 0 -86 28t-31 81q0 36 11.5 66 t34 52.5t55.5 35t77 12.5q78 0 119.5 -40t41.5 -122q0 -38 -8 -78q-17 -93 -70.5 -142.5t-141.5 -49.5z" />
<glyph horiz-adv-x="315" d="M0 0zM142 -142h-84l14 88h-85l10 70h85l14 89h83l-14 -89h86l-10 -70h-85z" />
<glyph horiz-adv-x="315" d="M0 0zM251 16l-10 -70h-254l10 70h254z" />
<glyph horiz-adv-x="315" d="M0 0zM259 64l-10 -72h-253l9 72h254zM244 -33l-10 -72h-253l9 72h254z" />
<glyph horiz-adv-x="229" d="M0 0zM124 -293q-72 7 -106 53.5t-34 133.5q0 33 6 72q16 117 68.5 182.5t144.5 73.5l-1 -86q-50 -5 -81 -44t-45 -126q-3 -17 -4.5 -36.5t-1.5 -33.5q0 -52 19.5 -75t56.5 -28z" />
<glyph horiz-adv-x="229" d="M0 0zM15 136l22 86q72 -7 106 -53.5t34 -133.5q0 -33 -6 -72q-16 -117 -68.5 -182.5t-144.5 -73.5l1 86q49 5 80.5 44t45.5 126q3 17 4.5 36.5t1.5 33.5q0 52 -19.5 75t-56.5 28z" />
<glyph horiz-adv-x="292" d="M196 562q-38 0 -59 16t-21 51q0 51 29 73.5t72 22.5q79 0 79 -68q0 -48 -26.5 -71.5t-73.5 -23.5zM106 497h156l-78 -497h-155z" />
<glyph horiz-adv-x="571" d="M26 0zM175 -331l-18 57q29 8 52 26.5t32 44.5q-35 0 -54 15.5t-19 45.5q0 43 25.5 64t65.5 21q35 0 55 -18.5t20 -56.5q0 -37 -12.5 -70.5t-34 -60.5t-50.5 -44.5t-62 -23.5zM359 0l-144 214l-35 -214h-154l111 700h156l-70 -434l209 231h162l-235 -249l169 -248h-169z " />
<glyph horiz-adv-x="726" d="M58 0zM335 -14q-137 0 -207 68t-70 209q0 40 6 88q25 190 120 276.5t262 86.5q109 0 169 -40.5t82 -119.5l-136 -58q-16 46 -46 65t-83 19q-40 0 -73.5 -11t-59.5 -38t-44.5 -71.5t-28.5 -110.5q-4 -23 -6 -44t-2 -39q0 -42 9.5 -71t28 -46.5t45.5 -25t61 -7.5q30 0 57 7 t48.5 23.5t37 43.5t22.5 66h-141l19 122h290l-14 -91q-23 -152 -107.5 -226.5t-238.5 -74.5zM549 907h96q-5 -40 -20 -67t-39 -43t-56 -23t-72 -7q-39 0 -69.5 7t-50 23t-27 43t-2.5 67h95q-6 -36 9.5 -49t52.5 -13t57 13t26 49z" />
<glyph horiz-adv-x="726" d="M58 0zM467 832l-70 -58h-127l1 4l142 129h128l101 -129l-1 -4h-123zM335 -14q-137 0 -207 68t-70 209q0 40 6 88q25 190 120 276.5t262 86.5q109 0 169 -40.5t82 -119.5l-136 -58q-16 46 -46 65t-83 19q-40 0 -73.5 -11t-59.5 -38t-44.5 -71.5t-28.5 -110.5 q-4 -23 -6 -44t-2 -39q0 -42 9.5 -71t28 -46.5t45.5 -25t61 -7.5q30 0 57 7t48.5 23.5t37 43.5t22.5 66h-141l19 122h290l-14 -91q-23 -152 -107.5 -226.5t-238.5 -74.5z" />
<glyph horiz-adv-x="726" d="M58 0zM245 -329l-18 57q29 8 52 26.5t32 44.5q-35 0 -54 15.5t-19 45.5q0 43 25.5 64t65.5 21q35 0 55 -18.5t20 -56.5q0 -37 -12.5 -70.5t-34 -60.5t-50.5 -44.5t-62 -23.5zM335 -14q-137 0 -207 68t-70 209q0 40 6 88q25 190 120 276.5t262 86.5q109 0 169 -40.5 t82 -119.5l-136 -58q-16 46 -46 65t-83 19q-40 0 -73.5 -11t-59.5 -38t-44.5 -71.5t-28.5 -110.5q-4 -23 -6 -44t-2 -39q0 -42 9.5 -71t28 -46.5t45.5 -25t61 -7.5q30 0 57 7t48.5 23.5t37 43.5t22.5 66h-141l19 122h290l-14 -91q-23 -152 -107.5 -226.5t-238.5 -74.5z" />
<glyph horiz-adv-x="726" d="M58 0zM335 -14q-137 0 -207 68t-70 209q0 40 6 88q25 190 120 276.5t262 86.5q109 0 169 -40.5t82 -119.5l-136 -58q-16 46 -46 65t-83 19q-40 0 -73.5 -11t-59.5 -38t-44.5 -71.5t-28.5 -110.5q-4 -23 -6 -44t-2 -39q0 -42 9.5 -71t28 -46.5t45.5 -25t61 -7.5q30 0 57 7 t48.5 23.5t37 43.5t22.5 66h-141l19 122h290l-14 -91q-23 -152 -107.5 -226.5t-238.5 -74.5zM460 773q-76 0 -76 62q0 47 26.5 67.5t68.5 20.5q37 0 57 -15.5t20 -47.5q0 -45 -26.5 -66t-69.5 -21z" />
<glyph horiz-adv-x="710" d="M49 0zM243 -329l-18 57q29 8 52 26.5t32 44.5q-35 0 -54 15.5t-19 45.5q0 43 25.5 64t65.5 21q35 0 55 -18.5t20 -56.5q0 -37 -12.5 -70.5t-34 -60.5t-50.5 -44.5t-62 -23.5zM463 0l-200 329l-52 -329h-162l111 700h162l-56 -354l309 354h187l-328 -354l229 -346h-200z " />
<glyph horiz-adv-x="469" d="M442 412l-19 -123h-372l19 123h372z" />
<glyph horiz-adv-x="583" d="M551 412l-19 -123h-481l19 123h481z" />
<glyph horiz-adv-x="781" d="M746 412l-19 -123h-677l20 123h676z" />
<glyph horiz-adv-x="583" d="M551 412l-19 -123h-481l19 123h481z" />
<glyph horiz-adv-x="291" d="M293 700l-111 -700h-154l111 700h154z" />
<glyph horiz-adv-x="685" d="M53 0l60 382h-78l18 115h79l6 38q16 102 72 148.5t140 46.5q27 0 59.5 -6t50.5 -21l-40 -103q-11 8 -24 11t-27 3q-33 0 -52.5 -18.5t-27.5 -63.5l-6 -35h128l-18 -115h-128l-60 -382h-152zM679 700l-111 -700h-154l111 700h154z" />
<glyph horiz-adv-x="685" d="M0 0z" />
</font>
</defs>
</svg>
