<?xml version="1.0" standalone="no"?>
<!DOCTYPE svg PUBLIC "-//W3C//DTD SVG 1.1//EN" "http://www.w3.org/Graphics/SVG/1.1/DTD/svg11.dtd" >
<svg xmlns="http://www.w3.org/2000/svg">
<metadata></metadata>
<defs>
<font id="honeywell_sans_webitalic" horiz-adv-x="625" >
<font-face units-per-em="1000" ascent="774" descent="-226" />
<missing-glyph horiz-adv-x="225" />
<glyph unicode="fi" horiz-adv-x="594" d="M520 580q-20 0 -29.5 9.5t-9.5 26.5q0 24 14 36.5t34 12.5q39 0 39 -37q0 -23 -14 -35.5t-34 -12.5zM80 0l69 438h-92l7 44h92l12 74q14 84 54 120.5t105 36.5q20 0 40.5 -3.5t37.5 -12.5l-16 -47q-14 7 -28 10.5t-34 3.5q-42 0 -69 -24.5t-38 -88.5l-10 -69h152l-7 -44 h-152l-69 -438h-54zM476 482h55l-76 -482h-55z" />
<glyph unicode="fl" horiz-adv-x="591" d="M80 0l69 438h-92l7 44h92l12 74q14 84 54 120.5t105 36.5q20 0 40.5 -3.5t37.5 -12.5l-16 -47q-14 7 -28 10.5t-34 3.5q-42 0 -69 -24.5t-38 -88.5l-10 -69h152l-7 -44h-152l-69 -438h-54zM494 0q-48 0 -71 23.5t-14 78.5l94 598h54l-93 -591q-6 -36 5 -49.5t45 -13.5h34 l-7 -46h-47z" />
<glyph horiz-adv-x="176" />
<glyph horiz-adv-x="176" />
<glyph unicode="&#xd;" horiz-adv-x="176" />
<glyph unicode=" "  horiz-adv-x="225" />
<glyph unicode="&#x09;" horiz-adv-x="225" />
<glyph unicode="&#xa0;" horiz-adv-x="225" />
<glyph unicode="!" horiz-adv-x="207" d="M202 700l-89 -518h-47l73 518h63zM61 -6q-18 0 -28 10t-10 27q0 23 14 35.5t35 12.5q38 0 38 -37q0 -23 -13.5 -35.5t-35.5 -12.5z" />
<glyph unicode="&#x22;" horiz-adv-x="256" d="M222 526h-45l28 185h54zM124 526h-44l23 185h53z" />
<glyph unicode="#" horiz-adv-x="714" d="M308 446l-89 -189h209l89 189h-209zM134 446l20 44h116l100 210h58l-100 -210h209l100 210h58l-100 -210h112l-20 -44h-112l-89 -189h120l-20 -44h-121l-99 -213h-58l99 213h-208l-100 -213h-58l99 213h-107l20 44h108l89 189h-116z" />
<glyph unicode="$" horiz-adv-x="584" d="M165 501q0 -45 29 -72t92 -43l40 247q-78 -3 -119.5 -37.5t-41.5 -94.5zM323 323l-41 -260q85 5 127.5 42.5t42.5 103.5q0 40 -28 67t-101 47zM216 -62l12 78q-70 4 -120.5 33t-78.5 90l45 29q26 -51 64 -76t98 -29l42 271q-87 22 -126.5 62t-39.5 99q0 79 55.5 130 t165.5 55l14 86h46l-14 -87q68 -5 107.5 -30.5t62.5 -73.5l-47 -28q-19 39 -49 60t-81 25l-42 -259q94 -26 135.5 -60.5t41.5 -95.5q0 -49 -16.5 -85.5t-47.5 -61.5t-74 -38.5t-95 -15.5l-12 -78h-46z" />
<glyph unicode="%" horiz-adv-x="1015" d="M70 0zM809 416q67 0 101 -34t34 -110q0 -17 -1 -32.5t-4 -35.5q-17 -111 -63.5 -161.5t-128.5 -50.5q-67 0 -101 33.5t-34 110.5q0 14 1.5 32t3.5 36q17 114 65 163t127 49zM805 376q-26 0 -48 -8.5t-40 -28.5t-31 -53t-21 -82q-2 -19 -4 -36t-2 -31q0 -59 24 -82t68 -23 q27 0 49 8.5t40 28.5t30.5 53t20.5 82q6 36 6 66q0 59 -24 82.5t-68 23.5zM267 709q67 0 101 -34t34 -110q0 -17 -1 -32.5t-4 -35.5q-17 -111 -63.5 -161.5t-128.5 -50.5q-67 0 -101 33.5t-34 110.5q0 14 1.5 32t3.5 36q17 114 65 163t127 49zM263 669q-26 0 -48 -8.5 t-40 -28.5t-31 -53t-21 -82q-2 -19 -4 -36t-2 -31q0 -59 24 -82t68 -23q27 0 49 8.5t40 28.5t30.5 53t20.5 82q6 36 6 66q0 59 -24 82.5t-68 23.5zM747 701l-438 -701h-53l440 701h51z" />
<glyph unicode="&#x26;" horiz-adv-x="686" d="M207 539q0 -26 9 -59.5t33 -75.5q45 24 79.5 45t58 42t35.5 44t12 52q0 38 -23.5 58.5t-71.5 20.5q-65 0 -98.5 -34.5t-33.5 -92.5zM240 35q55 0 105 19.5t95 61.5q-78 66 -129.5 122t-83.5 104q-33 -18 -60.5 -37t-47 -41t-30.5 -47t-11 -56q0 -34 13 -58t35 -39 t51.5 -22t62.5 -7zM600 474h52q-19 -117 -54 -203t-84 -146q28 -23 58.5 -47t65.5 -49l-34 -39q-35 25 -66.5 48.5t-60.5 47.5q-51 -49 -113 -73t-132 -24q-44 0 -82.5 9.5t-66.5 29.5t-44 51t-16 75q0 40 14 72.5t38 59.5t56.5 50t70.5 44q-27 48 -37 87.5t-10 71.5 q0 76 48.5 124t143.5 48q69 0 105 -29t36 -84q0 -41 -17 -73t-46.5 -59t-68.5 -51t-83 -47q30 -44 79.5 -97t124.5 -117q44 54 75 133.5t48 186.5z" />
<glyph unicode="'" horiz-adv-x="155" d="M125 526h-46l25 185h53z" />
<glyph unicode="(" horiz-adv-x="337" d="M225 -75q-171 24 -171 266q0 29 2.5 62.5t7.5 68.5q28 181 100 281.5t186 115.5l-2 -43q-86 -16 -145 -100.5t-86 -253.5q-6 -38 -9 -72t-3 -62q0 -103 34 -156.5t97 -64.5z" />
<glyph unicode=")" horiz-adv-x="337" d="M120 719q171 -24 171 -266q0 -29 -2.5 -62.5t-7.5 -68.5q-28 -181 -100 -281.5t-186 -115.5l2 43q86 16 145 100.5t86 253.5q6 38 9 72t3 62q0 103 -34 156.5t-97 64.5z" />
<glyph unicode="*" horiz-adv-x="419" d="M120 362l-33 30l111 120l-127 39l20 46l125 -46l19 160h53l-32 -160l141 46l6 -45l-139 -40l73 -120l-42 -29l-68 124z" />
<glyph unicode="+" horiz-adv-x="494" d="M241 111h-49l27 173h-170l8 46h170l28 178h49l-29 -178h170l-8 -46h-169z" />
<glyph unicode="," horiz-adv-x="208" d="M24 -120l-8 25q26 11 44 34.5t24 54.5q-17 -5 -32 5t-15 30q0 24 13.5 36.5t33.5 12.5q18 0 28.5 -10.5t10.5 -34.5q0 -21 -5.5 -44.5t-17.5 -45t-31 -38.5t-45 -25z" />
<glyph unicode="-" horiz-adv-x="415" d="M353 273l-8 -46h-309l7 46h310z" />
<glyph unicode="." horiz-adv-x="208" d="M75 -6q-19 0 -29 10t-10 27q0 23 14 35.5t35 12.5q39 0 39 -37q0 -23 -14 -35.5t-35 -12.5z" />
<glyph unicode="/" horiz-adv-x="468" d="M527 701l-499 -701h-61l499 701h61z" />
<glyph unicode="0" d="M56 350q14 97 40.5 166t66 112t91.5 63t118 20q110 0 166.5 -56.5t56.5 -184.5q0 -27 -2.5 -56.5t-7.5 -63.5q-14 -96 -41 -164.5t-66.5 -112t-92 -64t-118.5 -20.5q-109 0 -165 55.5t-56 183.5q0 27 2.5 57.5t7.5 64.5zM539 468q0 54 -11.5 91.5t-33 60.5t-53 33.5 t-71.5 10.5q-50 0 -91 -15.5t-73.5 -52.5t-56 -97t-37.5 -149q-5 -35 -8 -64.5t-3 -55.5q0 -54 11.5 -91.5t33 -60t53 -32.5t71.5 -10q50 0 91.5 15.5t74 52t56 96.5t37.5 150q5 34 7.5 63t2.5 55z" />
<glyph unicode="1" d="M73 51h178l91 576l-110 -77l-18 44l159 106h36l-104 -649h191l-8 -51h-423z" />
<glyph unicode="2" d="M24 0l8 54l293 250q51 43 85.5 78t55.5 64.5t29.5 56.5t8.5 56q0 52 -35 78.5t-103 26.5q-75 0 -124.5 -30t-90.5 -90l-37 30q47 69 106 103t149 34q99 0 146 -39t47 -105q0 -35 -10.5 -67.5t-34.5 -67.5t-63.5 -75.5t-97.5 -89.5l-253 -219h416l-8 -48h-487z" />
<glyph unicode="3" d="M251 -11q-85 0 -137 31t-78 93l45 29q22 -55 64.5 -80.5t111.5 -25.5q105 0 162.5 50.5t57.5 140.5q0 52 -30.5 84t-104.5 32h-103l8 49h101q32 0 61 11.5t51.5 33t35.5 51.5t13 68q0 56 -37.5 82t-109.5 26q-66 0 -112.5 -24t-87.5 -79l-36 33q45 60 103 88.5t144 28.5 q94 0 143 -37t49 -111q0 -65 -36.5 -117t-97.5 -76q57 -17 79 -53t22 -83q0 -54 -18.5 -99t-54.5 -77.5t-88.5 -50.5t-119.5 -18z" />
<glyph unicode="4" d="M17 190l6 40l315 470h58l-311 -461h327l54 343h56l-55 -343h112l-7 -49h-113l-30 -190h-55l30 190h-387z" />
<glyph unicode="5" d="M227 651l-70 -267q44 29 90 41.5t94 12.5q43 0 79.5 -9.5t63.5 -30t42 -52.5t15 -77q0 -59 -20 -110t-57.5 -89t-92 -59.5t-124.5 -21.5q-75 0 -132 33t-83 96l45 28q21 -53 65 -82t113 -29q55 0 98 18t72 49t44.5 72t15.5 86q0 133 -161 133q-60 0 -106.5 -18.5 t-91.5 -50.5l-29 16l93 360h388l-8 -49h-343z" />
<glyph unicode="6" d="M282 -11q-51 0 -92.5 14t-71 44.5t-46 78.5t-16.5 115q0 23 2 48t6 53q14 96 43.5 165.5t71.5 114.5t96 67t116 22q76 0 126 -28.5t70 -85.5l-47 -28q-18 51 -59 73t-95 22q-57 0 -101.5 -22.5t-77 -64.5t-54.5 -102t-34 -135q-2 -9 -4 -26t-2 -30q13 34 36 62.5 t53.5 48.5t67.5 31t78 11q93 0 146.5 -46.5t53.5 -132.5q0 -57 -18 -106t-52 -85.5t-83.5 -57t-112.5 -20.5zM337 390q-54 0 -94.5 -18.5t-68 -48.5t-41.5 -67t-14 -74q0 -30 10 -56.5t30 -46.5t51 -32t72 -12q45 0 83 14.5t66 42t44 68t16 91.5q0 64 -39 101.5t-115 37.5z " />
<glyph unicode="7" d="M154 0q14 87 45.5 179t78 179t105 163t126.5 130h-376l8 49h452l-8 -52q-67 -36 -128 -105.5t-110.5 -158t-85 -188.5t-51.5 -196h-56z" />
<glyph unicode="8" d="M258 -11q-104 0 -159 44.5t-55 122.5q0 45 14 82t39 64t59 44.5t73 24.5q-49 14 -76.5 46.5t-27.5 83.5t17.5 90.5t49 66t76.5 40t100 13.5q94 0 143.5 -36.5t49.5 -106.5q0 -40 -11.5 -73t-32.5 -58t-49.5 -42t-62.5 -26q58 -12 92.5 -48t34.5 -97q0 -54 -19.5 -97.5 t-55.5 -74t-86.5 -47t-112.5 -16.5zM321 395q37 0 70.5 10.5t59 31.5t40.5 51.5t15 71.5q0 106 -142 106q-87 0 -136 -42t-49 -120q0 -51 35.5 -80t106.5 -29zM263 36q43 0 82 12t68.5 35t47 58t17.5 81q0 59 -42.5 92t-122.5 33q-48 0 -87.5 -13t-67.5 -37t-43 -58.5 t-15 -77.5q0 -60 41 -92.5t122 -32.5z" />
<glyph unicode="9" d="M292 308q53 0 93.5 19t68 49t41.5 67.5t14 74.5q0 30 -10 56.5t-30 46.5t-50.5 32t-71.5 12q-45 0 -83.5 -14.5t-66 -42t-43.5 -68t-16 -91.5q0 -65 38.5 -103t115.5 -38zM347 711q51 0 92.5 -14t71 -44.5t46 -78.5t16.5 -115q0 -23 -2 -48t-6 -53q-14 -96 -43.5 -165.5 t-71.5 -114.5t-96 -67t-116 -22q-154 0 -197 114l47 28q19 -51 60 -73t95 -22q57 0 101 22.5t77 64.5t55 102t34 135q2 9 3.5 26t2.5 29q-27 -70 -90 -112t-145 -42q-93 0 -146.5 46.5t-53.5 134.5q0 57 18 106t52 85.5t83.5 57t112.5 20.5z" />
<glyph unicode=":" horiz-adv-x="208" d="M33 0zM72 -6q-19 0 -29 10t-10 27q0 23 14 35.5t35 12.5q39 0 39 -37q0 -23 -14 -35.5t-35 -12.5zM137 383q-19 0 -29 10t-10 27q0 23 14 35.5t35 12.5q39 0 39 -37q0 -23 -14 -35.5t-35 -12.5z" />
<glyph unicode=";" horiz-adv-x="208" d="M17 0zM25 -120l-8 25q26 11 44 34.5t24 54.5q-17 -5 -32 5t-15 30q0 24 13.5 36.5t33.5 12.5q18 0 28.5 -10.5t10.5 -34.5q0 -21 -5.5 -44.5t-17.5 -45t-31 -38.5t-45 -25zM140 383q-19 0 -29 10t-10 27q0 23 14 35.5t35 12.5q39 0 39 -37q0 -23 -14 -35.5t-35 -12.5z " />
<glyph unicode="&#x3c;" horiz-adv-x="459" d="M396 470l-248 -161l194 -159l-32 -38l-227 185l4 26l286 185z" />
<glyph unicode="=" horiz-adv-x="492" d="M454 395l-7 -46h-388l7 46h388zM434 270l-7 -47h-388l8 47h387z" />
<glyph unicode="&#x3e;" horiz-adv-x="459" d="M95 112l-22 38l247 162l-193 159l32 37l227 -185l-5 -25z" />
<glyph unicode="?" horiz-adv-x="484" d="M502 539q0 -58 -18 -103.5t-51 -77.5t-79.5 -50t-102.5 -21l-17 -105h-55l22 141h30q48 0 87 14t67.5 41t44 66t15.5 89q0 63 -42 96t-119 33q-66 0 -115.5 -26t-91.5 -92l-36 28q45 75 106.5 107t146.5 32q98 0 153 -45t55 -127zM178 -6q-38 0 -38 37q0 23 13.5 35 t34.5 12q18 0 28.5 -9.5t10.5 -26.5q0 -23 -14 -35.5t-35 -12.5z" />
<glyph unicode="@" horiz-adv-x="800" d="M626 1q-51 -47 -117 -72.5t-149 -25.5q-142 0 -217.5 73.5t-75.5 200.5q0 88 29 162.5t80.5 127.5t124 83t159.5 30q134 0 204.5 -67.5t70.5 -182.5q0 -54 -12.5 -98.5t-35 -77t-55 -50.5t-72.5 -18q-37 0 -57 17.5t-20 55.5q-23 -42 -59.5 -62t-84.5 -20 q-45 0 -71.5 20.5t-26.5 61.5q0 56 41.5 88.5t122.5 32.5h93q3 18 3 34q0 41 -22 56.5t-63 15.5q-40 0 -65.5 -12.5t-45.5 -34.5l-18 25q46 56 137 56q54 0 85.5 -22.5t31.5 -78.5q0 -17 -3 -38l-15 -90q-2 -5 -2.5 -13.5t-0.5 -14.5q0 -49 51 -49q28 0 53 15t43 43t28.5 68 t10.5 90q0 109 -65.5 165.5t-180.5 56.5q-77 0 -143 -25.5t-115.5 -74t-77.5 -118t-28 -157.5q0 -121 70 -183.5t195 -62.5q75 0 138.5 23t111.5 68zM351 110q57 0 93.5 38t48.5 101l-91 1q-58 0 -89.5 -21t-31.5 -66q0 -53 70 -53z" />
<glyph unicode="A" horiz-adv-x="601" d="M364 645l-221 -438h306zM488 0l-30 158h-340l-80 -158h-60l359 700h71l138 -700h-58z" />
<glyph unicode="B" horiz-adv-x="660" d="M69 0l111 700h273q91 0 130.5 -39t39.5 -102q0 -74 -37.5 -127t-98.5 -72q28 -5 48 -17t33 -29.5t18.5 -39t5.5 -44.5q0 -115 -69 -172.5t-191 -57.5h-263zM447 652h-219l-42 -269h224q39 0 68 14t48.5 36.5t29.5 52t10 61.5q0 54 -31 79.5t-88 25.5zM405 333h-227 l-46 -285h211q87 0 139.5 43t52.5 136q0 51 -31.5 78.5t-98.5 27.5z" />
<glyph unicode="C" horiz-adv-x="680" d="M340 -11q-127 0 -193.5 58.5t-66.5 196.5q0 50 9 106q14 98 44.5 167t75 112t102.5 62.5t127 19.5q94 0 150.5 -34.5t82.5 -109.5l-50 -26q-23 68 -68.5 95.5t-118.5 27.5q-54 0 -100 -15t-83.5 -51t-64 -96.5t-41.5 -150.5q-9 -59 -9 -107q0 -58 14 -97.5t41 -64 t65.5 -35t86.5 -10.5q71 0 129 24t102 89l37 -33q-25 -37 -55 -61.5t-64 -39.5t-72.5 -21t-79.5 -6z" />
<glyph unicode="D" horiz-adv-x="726" d="M318 0h-249l111 700h247q120 0 182.5 -56.5t62.5 -183.5q0 -20 -2 -48.5t-6 -55.5q-15 -95 -45 -162t-74 -110.5t-101 -63.5t-126 -20zM133 49h189q52 0 98 15t82.5 50.5t63 94t40.5 145.5q4 24 6.5 50t2.5 47q0 55 -13.5 93t-38 62t-60 34.5t-80.5 10.5h-194z" />
<glyph unicode="E" horiz-adv-x="643" d="M69 0l111 700h480l-8 -49h-424l-43 -274h372l-8 -50h-372l-45 -278h435l-8 -49h-490z" />
<glyph unicode="F" horiz-adv-x="596" d="M69 0l111 700h466l-8 -49h-409l-44 -280h367l-9 -50h-367l-50 -321h-57z" />
<glyph unicode="G" horiz-adv-x="713" d="M326 -11q-119 0 -182.5 61.5t-63.5 196.5q0 24 2.5 51t6.5 53q14 97 43.5 165.5t73.5 111.5t102.5 63t131.5 20q92 0 146.5 -32.5t79.5 -102.5l-49 -28q-21 63 -66 89.5t-116 26.5q-56 0 -103 -15t-83.5 -51.5t-63 -97t-40.5 -150.5q-9 -59 -9 -104q0 -59 14 -99 t40 -64.5t63 -35.5t84 -11q42 0 82.5 12t75 41t59.5 77t37 119h-205l8 46h256l-53 -331h-46l17 127q-35 -69 -97.5 -103.5t-144.5 -34.5z" />
<glyph unicode="H" horiz-adv-x="767" d="M555 0l52 327h-429l-52 -327h-57l111 700h57l-51 -323h428l52 323h56l-111 -700h-56z" />
<glyph unicode="I" horiz-adv-x="282" d="M69 0l111 700h57l-111 -700h-57z" />
<glyph unicode="J" horiz-adv-x="493" d="M-15 33l32 45q46 -41 116 -41q39 0 72.5 12.5t60.5 39t46 68.5t28 101l70 442h56l-70 -442q-12 -76 -36.5 -127.5t-59.5 -83t-79.5 -45t-96.5 -13.5q-40 0 -75.5 10.5t-63.5 33.5z" />
<glyph unicode="K" horiz-adv-x="614" d="M69 0l111 700h57l-66 -415l415 415h69l-317 -316l223 -384h-67l-198 343l-137 -135l-33 -208h-57z" />
<glyph unicode="L" horiz-adv-x="604" d="M133 49h413l-8 -49h-469l111 700h56z" />
<glyph unicode="M" horiz-adv-x="919" d="M394 0l-176 604l-94 -604h-54l111 700h62l183 -633l386 633h62l-111 -700h-55l98 603l-367 -603h-45z" />
<glyph unicode="N" horiz-adv-x="758" d="M543 0l-323 620l-96 -620h-55l111 700h59l322 -618l97 618h55l-111 -700h-59z" />
<glyph unicode="O" horiz-adv-x="753" d="M89 350q14 97 43.5 166t73.5 112t103 63t133 20q127 0 191.5 -58.5t64.5 -191.5q0 -26 -2 -52.5t-7 -58.5q-15 -98 -44.5 -166.5t-74 -111.5t-103 -63t-131.5 -20q-125 0 -190.5 59.5t-65.5 193.5q0 48 9 108zM641 457q0 58 -13.5 97.5t-39.5 63.5t-64 34.5t-87 10.5 q-57 0 -104.5 -15t-84.5 -51t-62.5 -96.5t-39.5 -150.5q-5 -29 -7.5 -55.5t-2.5 -52.5q0 -57 13.5 -96t40 -63.5t64 -35t85.5 -10.5q57 0 104.5 15t84.5 51.5t63 97t41 150.5q5 29 7 54.5t2 51.5z" />
<glyph unicode="P" horiz-adv-x="655" d="M69 0l111 700h258q104 0 153 -42t49 -123q0 -62 -17 -112.5t-51 -87.5t-83.5 -57t-115.5 -20h-207l-40 -258h-57zM437 651h-208l-55 -344h213q42 0 77.5 14t62 41.5t41.5 68.5t15 95q0 125 -146 125z" />
<glyph unicode="Q" horiz-adv-x="753" d="M442 711q127 0 191.5 -58.5t64.5 -191.5q0 -48 -9 -111q-20 -133 -67.5 -212.5t-122.5 -115.5l71 -114h-64l-59 94q-49 -13 -111 -13q-125 0 -190.5 59.5t-65.5 193.5q0 48 9 108q14 97 43.5 166t73.5 112t103 63t133 20zM437 663q-58 0 -105.5 -15t-84 -51.5t-62 -96.5 t-39.5 -150q-10 -59 -10 -108q0 -57 13.5 -96t40 -63.5t64 -35t85.5 -10.5q22 0 42 1.5t40 6.5l-77 125h63l65 -106q60 30 100 98t60 189q9 61 9 106q0 58 -13.5 97.5t-39.5 63.5t-64 34.5t-87 10.5z" />
<glyph unicode="R" horiz-adv-x="651" d="M436 651h-207l-51 -323h211q40 0 75 12.5t61 38t41 64t15 90.5q0 60 -35 89t-110 29zM398 278h-228l-44 -278h-57l111 700h258q104 0 152.5 -40.5t48.5 -118.5q0 -96 -46 -164t-136 -90l109 -287h-63z" />
<glyph unicode="S" horiz-adv-x="602" d="M572 586l-50 -28q-11 26 -26 46t-35.5 33.5t-48.5 20.5t-65 7q-92 0 -141.5 -41.5t-49.5 -104.5q0 -47 30.5 -77.5t102.5 -50.5l59 -16q50 -14 85 -31t56.5 -39t31.5 -50t10 -63q0 -44 -16.5 -81t-49.5 -64t-82 -42.5t-114 -15.5q-92 0 -153 32t-95 103l48 29 q15 -32 33.5 -54t42.5 -36t54.5 -20.5t69.5 -6.5q103 0 154 41t51 110q0 25 -6.5 45.5t-22.5 37t-43 29.5t-67 24l-60 16q-93 25 -134 67t-41 110q0 42 17 77.5t49.5 62t79.5 41t107 14.5q45 0 79.5 -8t60.5 -24t45.5 -39t33.5 -54z" />
<glyph unicode="T" horiz-adv-x="553" d="M77 700h528l-8 -49h-236l-103 -651h-56l103 651h-237z" />
<glyph unicode="U" horiz-adv-x="728" d="M576 266l69 434h56l-68 -433q-23 -142 -103.5 -210t-206.5 -68q-114 0 -175.5 52t-61.5 160q0 31 6 66l69 433h56l-69 -433q-3 -17 -4 -31.5t-1 -29.5q0 -86 46 -127.5t136 -41.5q49 0 91 12.5t74 40t54 71t32 105.5z" />
<glyph unicode="V" horiz-adv-x="591" d="M76 700h57l124 -646l327 646h61l-360 -700h-72z" />
<glyph unicode="W" horiz-adv-x="883" d="M478 695h55l72 -608l276 613h57l-319 -700h-54l-73 608l-266 -608h-58l-93 700h58l77 -618z" />
<glyph unicode="X" horiz-adv-x="613" d="M487 0l-175 320l-272 -320h-66l313 364l-182 336h61l160 -296l250 296h65l-290 -339l198 -361h-62z" />
<glyph unicode="Y" horiz-adv-x="582" d="M259 283l-183 417h60l158 -366l276 366h63l-317 -417l-45 -283h-56z" />
<glyph unicode="Z" horiz-adv-x="560" d="M-18 0l7 44l534 607h-415l8 49h484l-7 -44l-536 -608l448 1l-8 -49h-515z" />
<glyph unicode="[" horiz-adv-x="332" d="M32 -103l129 812h184l-7 -43h-132l-116 -726h139l-7 -43h-190z" />
<glyph unicode="\" horiz-adv-x="490" d="M354 0l-287 700h58l287 -700h-58z" />
<glyph unicode="]" horiz-adv-x="332" d="M316 710l-129 -812h-184l7 43h132l116 726h-139l7 43h190z" />
<glyph unicode="^" horiz-adv-x="391" d="M32 394l198 307h53l98 -307v-1h-54l-78 254l-163 -254h-54v1z" />
<glyph unicode="_" horiz-adv-x="473" d="M430 0l-8 -47h-479l8 47h479z" />
<glyph unicode="`" horiz-adv-x="600" d="M278 568l-99 107l1 5h72l72 -109v-3h-46z" />
<glyph unicode="a" horiz-adv-x="547" d="M199 35q78 0 131 50t70 138l4 21h-137q-78 0 -123.5 -30.5t-45.5 -93.5q0 -43 26.5 -64t74.5 -21zM183 -10q-62 0 -100.5 31.5t-38.5 93.5q0 80 57.5 127t169.5 47h140q2 17 3.5 30t1.5 24q0 60 -31 82t-91 22q-59 0 -98 -18t-66 -49l-27 34q67 79 199 79q80 0 125 -31.5 t45 -108.5q0 -12 -1 -25t-3 -28l-47 -300h-48l11 103q-31 -54 -82.5 -83.5t-118.5 -29.5z" />
<glyph unicode="b" horiz-adv-x="594" d="M224 700l-51 -321q32 57 83 85.5t115 28.5q82 0 124.5 -47t42.5 -138q0 -15 -1.5 -31.5t-3.5 -34.5q-18 -121 -81.5 -187t-166.5 -66q-57 0 -99 26t-59 81l-19 -96h-50l111 700h55zM151 238q-2 -16 -3.5 -30t-1.5 -28q0 -75 38 -110t98 -35q81 0 130.5 52t65.5 154 q3 17 4 32.5t1 30.5q0 143 -131 143q-36 0 -69 -12.5t-59.5 -38t-45 -65t-27.5 -93.5z" />
<glyph unicode="c" horiz-adv-x="525" d="M416 119l39 -26q-34 -57 -86.5 -80.5t-119.5 -23.5q-192 0 -192 185q0 29 6 65q20 129 84.5 191.5t171.5 62.5q76 0 117 -31t58 -85l-44 -21q-14 45 -45.5 68t-88.5 23q-83 0 -132 -49.5t-66 -158.5q-6 -36 -6 -64q0 -75 35 -107.5t108 -32.5q54 0 93 18.5t68 65.5z" />
<glyph unicode="d" horiz-adv-x="597" d="M444 245q2 15 3.5 29t1.5 26q0 76 -38 111.5t-98 35.5q-161 0 -194 -204q-4 -23 -5.5 -36.5t-1.5 -27.5q0 -144 133 -144q36 0 68.5 12.5t58.5 38t45 65t27 94.5zM459 0h-49l12 99q-32 -56 -82.5 -83t-112.5 -27q-84 0 -127 47t-43 138q0 31 6 67q17 122 80.5 187 t166.5 65q57 0 98.5 -25.5t58.5 -77.5l49 310h54z" />
<glyph unicode="e" horiz-adv-x="536" d="M246 -11q-91 0 -140 45.5t-49 142.5q0 29 6 64q19 125 84.5 188.5t172.5 63.5q85 0 127 -47t42 -131q0 -40 -11 -90h-363q-2 -11 -2.5 -23t-0.5 -20q-3 -147 140 -147q56 0 97 20t70 68l38 -25q-35 -57 -86 -83t-125 -26zM314 448q-75 0 -123 -42.5t-68 -135.5h310 q3 22 3 47q0 67 -31 99t-91 32z" />
<glyph unicode="f" horiz-adv-x="341" d="M80 0l69 438h-92l7 44h92l12 74q14 84 54 120.5t105 36.5q20 0 40.5 -3.5t37.5 -12.5l-16 -47q-14 7 -28 10.5t-34 3.5q-42 0 -69 -24.5t-38 -88.5l-10 -69h152l-7 -44h-152l-69 -438h-54z" />
<glyph unicode="g" horiz-adv-x="592" d="M441 250q2 14 3 27t1 25q0 76 -38 111t-99 35q-161 0 -191 -202q-6 -35 -6 -62q0 -141 132 -141q36 0 68 12t58 37t44.5 64.5t27.5 93.5zM532 482l-74 -473q-9 -56 -31.5 -97t-56.5 -68t-78 -40.5t-94 -13.5q-66 0 -114 23.5t-70 86.5l43 29q18 -53 54.5 -73t90.5 -20 q39 0 72 9t58.5 29t43 52t25.5 78l15 94q-33 -51 -81 -75.5t-108 -24.5q-83 0 -126.5 46.5t-43.5 137.5q0 14 1 30t4 34q19 119 79.5 183t159.5 64q63 0 106 -26t59 -80l20 95h46z" />
<glyph unicode="h" horiz-adv-x="603" d="M224 700l-52 -330q35 64 89 93.5t117 29.5q75 0 112.5 -35.5t37.5 -104.5q0 -12 -1.5 -24.5t-3.5 -26.5l-47 -302h-55l46 293q4 23 4 46q0 57 -30 81.5t-84 24.5q-39 0 -72.5 -14t-60 -40.5t-44.5 -63t-27 -81.5l-40 -246h-55l111 700h55z" />
<glyph unicode="i" horiz-adv-x="253" d="M181 580q-19 0 -29 9.5t-10 26.5q0 24 14 36.5t34 12.5q39 0 39 -37q0 -23 -13.5 -35.5t-34.5 -12.5zM137 482h55l-75 -482h-55z" />
<glyph unicode="j" horiz-adv-x="253" d="M181 580q-19 0 -29 9.5t-10 26.5q0 24 14 36.5t34 12.5q39 0 39 -37q0 -23 -13.5 -35.5t-34.5 -12.5zM54 -46l83 528h55l-84 -535q-13 -83 -52.5 -120t-98.5 -37q-19 0 -35.5 2.5t-36.5 10.5l17 47q14 -6 26.5 -9t30.5 -3q37 0 60.5 25t34.5 91z" />
<glyph unicode="k" horiz-adv-x="501" d="M225 700l-81 -504l304 286h67l-229 -213l162 -269h-64l-139 231l-112 -104l-19 -127h-56l111 700h56z" />
<glyph unicode="l" horiz-adv-x="250" d="M155 0q-48 0 -71 23.5t-14 78.5l94 598h54l-93 -591q-6 -36 5 -49.5t45 -13.5h34l-7 -46h-47z" />
<glyph unicode="m" horiz-adv-x="898" d="M58 0l77 482h47l-10 -106q33 61 82.5 89t106.5 28q62 0 93.5 -34t34.5 -95q35 67 87.5 98t112.5 31q133 0 133 -136q0 -13 -1.5 -27t-3.5 -28l-48 -302h-55l47 293q2 14 3.5 26t1.5 23q0 55 -26.5 79t-74.5 24q-67 0 -116.5 -52t-67.5 -141l-40 -252h-54l46 293 q2 14 3 26t1 23q0 55 -25.5 79t-73.5 24q-68 0 -117 -52t-68 -143l-40 -250h-55z" />
<glyph unicode="n" horiz-adv-x="603" d="M58 0l77 482h48l-11 -107q35 61 89 89.5t117 28.5q75 0 112.5 -35.5t37.5 -104.5q0 -12 -1 -24.5t-3 -26.5l-48 -302h-55l47 293q2 12 3 23.5t1 21.5q0 57 -30.5 82t-84.5 25q-39 0 -72.5 -14t-59.5 -39.5t-44.5 -61.5t-27.5 -80l-40 -250h-55z" />
<glyph unicode="o" horiz-adv-x="571" d="M63 241q19 130 85.5 191t174.5 61q95 0 143.5 -44.5t48.5 -138.5q0 -32 -6 -69q-19 -129 -84.5 -190.5t-175.5 -61.5q-94 0 -143 44.5t-49 140.5q0 31 6 67zM454 240q6 37 6 67q0 74 -35 107t-107 33q-87 0 -135 -49t-65 -158q-6 -38 -6 -67q0 -73 34.5 -105.5 t106.5 -32.5q85 0 134.5 48.5t66.5 156.5z" />
<glyph unicode="p" horiz-adv-x="597" d="M152 238q-2 -16 -3.5 -29.5t-1.5 -27.5q0 -76 38 -111.5t99 -35.5q81 0 130 52.5t65 154.5q6 36 6 65q0 141 -128 141q-38 0 -71 -12.5t-60 -38t-46 -65t-28 -93.5zM29 -186l107 668h47l-11 -106q34 59 85 88t117 29q81 0 123 -46.5t42 -136.5q0 -17 -1.5 -33.5 t-3.5 -34.5q-18 -121 -81.5 -187t-166.5 -66q-57 0 -98.5 25t-59.5 76l-44 -276h-55z" />
<glyph unicode="q" horiz-adv-x="596" d="M429 -186h-54l45 286q-32 -54 -80 -82.5t-114 -28.5q-83 0 -126 47t-43 138q0 31 6 67q17 121 80 186.5t166 65.5q58 0 100 -27t59 -82l20 98h48zM444 245q2 15 3 29t1 26q0 76 -37.5 111.5t-97.5 35.5q-83 0 -130.5 -51.5t-64.5 -154.5q-6 -33 -6 -61q0 -145 133 -145 q36 0 68 12.5t58.5 38t45 65t27.5 94.5z" />
<glyph unicode="r" horiz-adv-x="348" d="M58 0l77 482h48l-11 -115q33 63 86 93.5t113 27.5l-9 -54q-80 5 -134.5 -44.5t-75.5 -146.5l-39 -243h-55z" />
<glyph unicode="s" horiz-adv-x="496" d="M225 33q70 0 102 27.5t32 69.5q0 31 -21 50.5t-75 32.5l-47 11q-66 15 -96.5 48t-30.5 80q0 63 47.5 102t135.5 39q62 0 100 -19.5t66 -59.5l-40 -31q-24 34 -53.5 50t-76.5 16q-63 0 -94.5 -25.5t-31.5 -66.5q0 -29 18.5 -50t67.5 -33l48 -12q77 -20 107 -51t30 -77 q0 -63 -47.5 -104t-146.5 -41q-67 0 -113 23.5t-75 76.5l43 26q23 -45 59.5 -63.5t91.5 -18.5z" />
<glyph unicode="t" horiz-adv-x="354" d="M359 482l-7 -44h-153l-42 -269q-12 -72 5.5 -101.5t68.5 -29.5q20 0 34 3t30 8l2 -46q-26 -8 -42.5 -10.5t-32.5 -2.5q-61 0 -93 27.5t-32 89.5q0 14 1.5 29t3.5 29l44 273h-90l6 44h91l22 146h54l-23 -146h153z" />
<glyph unicode="u" horiz-adv-x="602" d="M230 -11q-78 0 -116 38t-38 110q0 26 4 49l47 296h55l-46 -287q-2 -13 -2.5 -24.5t-0.5 -22.5q0 -60 29.5 -86t83.5 -26q81 0 131.5 50t68.5 136l42 260h55l-77 -482h-48l11 100q-35 -57 -87 -84t-112 -27z" />
<glyph unicode="v" horiz-adv-x="470" d="M42 482h58l102 -428l236 428h58l-271 -482h-61z" />
<glyph unicode="w" horiz-adv-x="702" d="M354 475h57l64 -413l195 420h54l-230 -482h-58l-64 410l-185 -410h-59l-82 482h55l65 -420z" />
<glyph unicode="x" horiz-adv-x="479" d="M62 482h61l121 -200l181 200h63l-219 -236l154 -246h-63l-129 209l-191 -209h-64l231 248z" />
<glyph unicode="y" horiz-adv-x="477" d="M144 -56l28 51l-122 487h57l102 -430l236 430h57l-313 -557q-24 -42 -47 -68t-46.5 -41t-48 -20.5t-50.5 -5.5q-19 0 -35 2.5t-36 10.5l17 47q14 -6 28 -9t34 -3q15 0 31 3.5t33 14.5t36 32t39 56z" />
<glyph unicode="z" horiz-adv-x="467" d="M2 0l6 42l379 395h-307l7 45h372l-6 -43l-380 -394h323l-7 -45h-387z" />
<glyph unicode="{" horiz-adv-x="340" d="M225 -77q-54 5 -81.5 28.5t-27.5 70.5q0 23 5.5 46t12 46.5t12 48.5t5.5 52q0 44 -22.5 64t-73.5 20h-27l7 43h27q62 0 92.5 29t40.5 95q5 29 4.5 61.5t4.5 67.5q8 59 44.5 88t98.5 35l-1 -43q-38 -5 -62 -24.5t-30 -60.5q-5 -30 -5 -63.5t-5 -65.5q-10 -61 -36.5 -94 t-75.5 -47q37 -11 53 -35t16 -63q0 -28 -5.5 -53.5t-12 -49.5t-12 -45.5t-5.5 -41.5q0 -31 18 -46t50 -20z" />
<glyph unicode="|" horiz-adv-x="275" d="M59 -65l131 831h52l-131 -831h-52z" />
<glyph unicode="}" horiz-adv-x="340" d="M122 718q54 -5 81.5 -28.5t27.5 -70.5q0 -23 -5.5 -46t-12 -46.5t-12 -48.5t-5.5 -52q0 -44 22.5 -64t73.5 -20h27l-7 -43h-27q-62 0 -92.5 -29t-40.5 -95q-5 -29 -4.5 -61.5t-4.5 -67.5q-8 -59 -44.5 -88t-98.5 -35l1 43q38 5 62 24.5t30 60.5q5 30 5 63.5t5 65.5 q10 61 36.5 94t75.5 47q-37 11 -53 35t-16 63q0 28 5.5 53.5t12 49.5t12 45.5t5.5 41.5q0 31 -18 46t-50 20z" />
<glyph unicode="~" horiz-adv-x="501" d="M433 407l50 -8q-14 -66 -49.5 -92.5t-82.5 -26.5q-32 0 -58 11.5t-49.5 26t-46 26t-47.5 11.5q-27 0 -48 -17t-29 -58l-50 8q13 66 49 93t83 27q31 0 57 -12t49.5 -26t46 -26t48.5 -12q27 0 48 17.5t29 57.5z" />
<glyph unicode="&#xa1;" horiz-adv-x="207" d="M14 -210l89 518h47l-73 -518h-63zM155 496q18 0 28 -10t10 -27q0 -23 -14 -35.5t-35 -12.5q-38 0 -38 37q0 23 13.5 35.5t35.5 12.5z" />
<glyph unicode="&#xa2;" horiz-adv-x="534" d="M213 -62l12 78q-159 13 -159 176q0 14 1.5 29.5t3.5 32.5q17 119 76 176.5t153 63.5l13 80h46l-13 -81q63 -5 98.5 -34t50.5 -76l-42 -21q-13 38 -40.5 60t-73.5 27l-61 -388q47 2 82 21.5t62 62.5l37 -25q-32 -54 -79.5 -78t-108.5 -26l-12 -78h-46zM118 193 q0 -65 28 -95.5t87 -35.5l61 386q-71 -7 -113.5 -53.5t-57.5 -140.5q-2 -17 -3.5 -32.5t-1.5 -28.5z" />
<glyph unicode="&#xa3;" horiz-adv-x="569" d="M496 70q-40 -44 -82.5 -57t-94.5 -13h-327l8 48h27q37 0 54 28.5t24 85.5l19 152h-83l7 45h82l19 156q26 196 211 196q79 0 121.5 -35t62.5 -99l-47 -22q-15 52 -47 80.5t-92 28.5q-66 0 -104.5 -37.5t-48.5 -116.5l-18 -151h207l-7 -45h-206l-18 -148q-12 -91 -50 -118 h213q40 0 74.5 10.5t66.5 46.5z" />
<glyph unicode="&#xa5;" horiz-adv-x="599" d="M524 288l-7 -45h-200l-38 -243h-58l39 243h-200l6 45h198l-25 57h-163l7 45h137l-136 310h58l160 -369l278 369h60l-236 -310h136l-7 -45h-162l-45 -57h198z" />
<glyph unicode="&#xa6;" horiz-adv-x="275" d="M131 381l60 385h51l-61 -385h-50zM60 -65l61 384h50l-60 -384h-51z" />
<glyph unicode="&#xa7;" horiz-adv-x="519" d="M221 262l28 -9q26 -8 52.5 -5.5t48.5 13.5t35.5 31t13.5 48q0 27 -20.5 50t-69.5 38l-30 8q-26 7 -51.5 4.5t-46 -13.5t-33.5 -30t-13 -46q0 -26 19 -49.5t67 -39.5zM218 -22q-68 0 -115 21.5t-74 75.5l43 28q22 -44 56.5 -63.5t94.5 -19.5q69 0 97 27t28 65 q0 30 -21.5 52.5t-76.5 39.5l-40 12q-63 19 -93.5 51.5t-30.5 76.5q0 21 6.5 41.5t20.5 37.5t37 29t55 15q-33 20 -51 46.5t-18 61.5q0 27 9 51.5t29.5 43t52 30t76.5 11.5q58 0 95.5 -18t63.5 -58l-38 -33q-23 37 -51.5 52t-76.5 15q-54 0 -82 -23.5t-28 -65.5 q0 -28 19.5 -53.5t67.5 -39.5l48 -14q38 -11 63 -24.5t40 -29.5t21.5 -33.5t6.5 -37.5q0 -45 -29 -81t-92 -45q38 -22 53.5 -47t15.5 -57q0 -27 -9 -52t-30 -44.5t-56 -31.5t-87 -12z" />
<glyph unicode="&#xa8;" horiz-adv-x="600" d="M376 580q-38 0 -38 35q0 25 14 37t34 12q19 0 29 -9.5t10 -26.5q0 -23 -13.5 -35.5t-35.5 -12.5zM224 580q-37 0 -37 35q0 25 13.5 37t34.5 12q37 0 37 -35q0 -23 -12.5 -36t-35.5 -13z" />
<glyph unicode="&#xa9;" horiz-adv-x="806" d="M80 350q12 76 43.5 139t81 107t114.5 68.5t144 24.5q69 0 122.5 -19.5t90 -54.5t55 -85t18.5 -111q0 -19 -1 -34.5t-4 -34.5q-12 -77 -43.5 -139t-81 -106.5t-114.5 -68.5t-144 -24q-69 0 -122.5 19.5t-90 54.5t-55 85t-18.5 112q0 16 1.5 33t3.5 34zM110 350 q-6 -36 -6 -68q0 -117 68.5 -179.5t190.5 -62.5q69 0 128 20.5t105 60.5t76 97.5t42 131.5q6 36 6 69q0 117 -68.5 179.5t-189.5 62.5q-69 0 -128.5 -21t-105 -60.5t-76 -97.5t-42.5 -132zM390 176q-69 0 -106.5 32t-37.5 100q0 13 1 23.5t3 20.5q14 94 63 137t130 43 q54 0 85.5 -19t45.5 -54l-35 -20q-23 58 -98 58q-61 0 -98 -33t-50 -112q-2 -12 -3 -21.5t-1 -20.5q0 -52 27 -75.5t79 -23.5q42 0 71 15t50 50l31 -17q-26 -44 -65.5 -63.5t-91.5 -19.5z" />
<glyph unicode="&#xaa;" horiz-adv-x="393" d="M178 388q53 0 89.5 34t47.5 96l3 16h-94q-56 0 -87.5 -22t-31.5 -66q0 -58 73 -58zM162 354q-46 0 -73 22t-27 64q0 57 41.5 91.5t122.5 34.5h97q3 22 3 35q0 42 -21.5 57.5t-63.5 15.5q-40 0 -67 -13t-47 -35l-20 28q48 57 143 57q57 0 88.5 -23t31.5 -78q0 -17 -3 -38 l-33 -209h-37l7 68q-23 -37 -59 -57t-83 -20z" />
<glyph unicode="&#xab;" horiz-adv-x="607" d="M410 0l-153 240l1 3l225 239h67l-232 -244l153 -238h-61zM215 0l-151 239l1 3l226 240h65l-230 -245l150 -237h-61z" />
<glyph unicode="&#xad;" horiz-adv-x="402" d="M340 273l-7 -46h-297l7 46h297z" />
<glyph unicode="&#xae;" horiz-adv-x="463" d="M85 528q12 83 67 133t141 50q75 0 115 -39.5t40 -107.5q0 -8 -1 -19.5t-3 -20.5q-14 -83 -67.5 -130.5t-138.5 -47.5q-75 0 -115.5 40t-40.5 106q0 18 3 36zM107 528q-3 -18 -3 -35q0 -61 36.5 -94.5t99.5 -33.5q72 0 121 42.5t62 120.5q3 19 3 36q0 61 -36 94t-98 33 q-73 0 -122 -42.5t-63 -120.5zM283 602h-49l-12 -76h42q23 0 37.5 10t14.5 38t-33 28zM184 441l29 182h74q27 0 40.5 -12.5t13.5 -34.5q0 -29 -13 -44.5t-33 -21.5l24 -69h-26l-22 65h-53l-10 -65h-24z" />
<glyph unicode="&#xaf;" horiz-adv-x="600" d="M428 641l-6 -39h-234l6 39h234z" />
<glyph unicode="&#xb0;" horiz-adv-x="451" d="M437 573q0 -47 -15 -86.5t-42 -67.5t-64 -43.5t-81 -15.5q-74 0 -112.5 39t-38.5 104q0 47 15 86t41.5 66.5t63.5 43t82 15.5q73 0 112 -38.5t39 -102.5zM128 506q0 -51 29.5 -79t80.5 -28q32 0 60.5 11.5t49.5 33t33 53t12 71.5q0 51 -29.5 79t-81.5 28q-32 0 -60 -11.5 t-49 -33t-33 -53t-12 -71.5z" />
<glyph unicode="&#xb1;" horiz-adv-x="495" d="M249 127h-49l26 165h-169l6 45h171l26 171h49l-27 -171h169l-7 -45h-170zM405 46l-7 -46h-388l7 46h388z" />
<glyph unicode="&#xb2;" horiz-adv-x="356" d="M30 294zM30 294l7 40l166 141q26 22 45 40t31 34t17.5 31t5.5 31q0 59 -79 59q-39 0 -64.5 -16.5t-48.5 -48.5l-28 25q28 41 63 60.5t84 19.5q60 0 91 -23t31 -67q0 -21 -6.5 -41t-21 -40t-37 -42.5t-54.5 -48.5l-131 -110h227l-7 -44h-291z" />
<glyph unicode="&#xb3;" horiz-adv-x="364" d="M35 286zM168 286q-53 0 -85 19.5t-48 57.5l37 22q13 -29 36 -44t62 -15q55 0 85.5 26t30.5 71q0 29 -16 46t-58 17h-57l6 40h56q35 0 61 23.5t26 61.5q0 59 -80 59q-35 0 -60 -12.5t-47 -44.5l-29 26q26 37 59.5 54t84.5 17q120 0 120 -90q0 -39 -21 -69.5t-57 -44.5 q32 -8 45.5 -28.5t13.5 -51.5q0 -61 -43.5 -100.5t-121.5 -39.5z" />
<glyph unicode="&#xb4;" horiz-adv-x="600" d="M358 680h74l-1 -5l-121 -107h-49v3z" />
<glyph unicode="&#xb6;" horiz-adv-x="640" d="M520 651h-77l-55 -343h78zM137 444q0 -69 37.5 -102.5t107.5 -33.5h51l54 343h-48q-97 0 -149.5 -52t-52.5 -155zM285 0l41 258h-45q-104 0 -152 49t-48 133q0 128 68.5 194t199.5 66h233l-111 -700h-55l40 258h-75l-41 -258h-55z" />
<glyph unicode="&#xb7;" horiz-adv-x="210" d="M65 293zM104 293q-19 0 -29 10t-10 27q0 23 14 35.5t35 12.5q39 0 39 -37q0 -23 -14 -35.5t-35 -12.5z" />
<glyph unicode="&#xb8;" horiz-adv-x="600" d="M303 -102l-11 9l35 93h43l-32 -74q32 2 55.5 -14.5t23.5 -51.5q0 -45 -33 -66.5t-81 -21.5q-35 0 -60 13t-38 42l32 25q11 -23 26 -34t44 -11q32 0 50 12.5t18 38.5t-21.5 35t-50.5 5z" />
<glyph unicode="&#xb9;" horiz-adv-x="200" d="M64 294zM129 294h-46l55 349l-61 -42l-13 39l100 63h29z" />
<glyph unicode="&#xba;" horiz-adv-x="411" d="M73 531q13 90 60 135t125 45q67 0 102 -33t35 -101q0 -13 -1 -22.5t-3 -23.5q-13 -91 -60.5 -134t-124.5 -43q-67 0 -102 32.5t-35 99.5q0 10 1 21.5t3 23.5zM347 531q5 28 5 45q0 51 -23.5 75t-73.5 24q-59 0 -93 -34.5t-46 -109.5q-3 -24 -3 -45q0 -96 97 -96 q59 0 92.5 34.5t44.5 106.5z" />
<glyph unicode="&#xbb;" horiz-adv-x="607" d="M197 482l153 -240l-1 -3l-225 -239h-67l232 244l-153 238h61zM392 482l151 -239l-1 -3l-226 -240h-65l230 245l-150 237h61z" />
<glyph unicode="&#xbc;" horiz-adv-x="821" d="M61 0zM126 293h-46l55 349l-61 -42l-13 39l100 63h29zM574 701l-438 -701h-53l440 701h51zM425 104l5 35l179 268h46l-174 -261h172l31 187h44l-29 -187h64l-7 -42h-64l-17 -104h-45l17 104h-222z" />
<glyph unicode="&#xbd;" horiz-adv-x="792" d="M61 0zM407 0l7 40l166 141q26 22 45 40t31 34t17.5 31t5.5 31q0 59 -79 59q-39 0 -64.5 -16.5t-48.5 -48.5l-28 25q28 41 63 60.5t84 19.5q60 0 91 -23t31 -67q0 -21 -6.5 -41t-21 -40t-37 -42.5t-54.5 -48.5l-131 -110h227l-7 -44h-291zM126 293h-46l55 349l-61 -42 l-13 39l100 63h29zM574 701l-438 -701h-53l440 701h51z" />
<glyph unicode="&#xbe;" horiz-adv-x="940" d="M35 0zM168 285q-53 0 -85 19.5t-48 57.5l37 22q13 -29 36 -44t62 -15q55 0 85.5 26t30.5 71q0 29 -16 46t-58 17h-57l6 40h56q35 0 61 23.5t26 61.5q0 59 -80 59q-35 0 -60 -12.5t-47 -44.5l-29 26q26 37 59.5 54t84.5 17q120 0 120 -90q0 -39 -21 -69.5t-57 -44.5 q32 -8 45.5 -28.5t13.5 -51.5q0 -61 -43.5 -100.5t-121.5 -39.5zM709 701l-438 -701h-53l440 701h51zM544 104l5 35l179 268h46l-174 -261h172l31 187h44l-29 -187h64l-7 -42h-64l-17 -104h-45l17 104h-222z" />
<glyph unicode="&#xbf;" horiz-adv-x="488" d="M-7 -53q0 58 18 103.5t51 77.5t79.5 50t102.5 21l17 105h55l-22 -141h-30q-48 0 -87 -14t-67.5 -41t-44 -66t-15.5 -89q0 -63 42 -96t119 -33q66 0 115.5 26t91.5 92l36 -28q-45 -75 -106.5 -107t-146.5 -32q-98 0 -153 45t-55 127zM317 492q38 0 38 -37q0 -23 -13.5 -35 t-34.5 -12q-18 0 -28.5 9.5t-10.5 26.5q0 23 14 35.5t35 12.5z" />
<glyph unicode="&#xc0;" horiz-adv-x="601" d="M0 0zM364 645l-221 -438h306zM488 0l-30 158h-340l-80 -158h-60l359 700h71l138 -700h-58zM367 786l-99 107l1 5h72l72 -109v-3h-46z" />
<glyph unicode="&#xc1;" horiz-adv-x="601" d="M0 0zM364 645l-221 -438h306zM488 0l-30 158h-340l-80 -158h-60l359 700h71l138 -700h-58zM457 898h74l-1 -5l-121 -107h-49v3z" />
<glyph unicode="&#xc2;" horiz-adv-x="601" d="M0 0zM364 645l-221 -438h306zM488 0l-30 158h-340l-80 -158h-60l359 700h71l138 -700h-58zM399 865l-96 -79h-62v2l135 110h51l99 -110v-2h-59z" />
<glyph unicode="&#xc3;" horiz-adv-x="601" d="M0 0zM364 645l-221 -438h306zM488 0l-30 158h-340l-80 -158h-60l359 700h71l138 -700h-58zM493 887h42q-2 -26 -10.5 -43t-21 -26.5t-27 -13.5t-27.5 -4q-20 0 -35 7.5t-28 17t-25.5 17t-27.5 7.5q-34 0 -40 -45h-43q3 25 11.5 42t20.5 27t26 14t27 4q21 0 36 -7.5 t28 -17t25.5 -17t27.5 -7.5q35 0 41 45z" />
<glyph unicode="&#xc4;" horiz-adv-x="601" d="M0 0zM364 645l-221 -438h306zM488 0l-30 158h-340l-80 -158h-60l359 700h71l138 -700h-58zM465 798q-38 0 -38 35q0 25 14 37t34 12q19 0 29 -9.5t10 -26.5q0 -23 -13.5 -35.5t-35.5 -12.5zM313 798q-37 0 -37 35q0 25 13.5 37t34.5 12q37 0 37 -35q0 -23 -12.5 -36 t-35.5 -13z" />
<glyph unicode="&#xc5;" horiz-adv-x="601" d="M0 0zM364 645l-221 -438h306zM488 0l-30 158h-340l-80 -158h-60l359 700h71l138 -700h-58zM386 763q-35 0 -56.5 21.5t-21.5 56.5q0 43 27.5 72t69.5 29q35 0 56.5 -21t21.5 -56q0 -45 -27.5 -73.5t-69.5 -28.5zM403 914q-27 0 -45.5 -20t-18.5 -50q0 -23 13.5 -38 t35.5 -15q26 0 45 20t19 50q0 23 -13.5 38t-35.5 15z" />
<glyph unicode="&#xc6;" horiz-adv-x="886" d="M366 648l-225 -441h299zM474 0l-26 158h-332l-82 -158h-60l363 700h567l-7 -49h-476l47 -274h332l-8 -50h-316l49 -278h287l-8 -49h-330z" />
<glyph unicode="&#xc7;" horiz-adv-x="680" d="M298 -226q-35 0 -60 13t-38 42l32 25q11 -23 26 -34t44 -11q32 0 50 12.5t18 38.5t-21.5 35t-50.5 5l-11 9l30 80q-116 5 -176.5 64t-60.5 191q0 50 9 106q14 98 44.5 167t75 112t102.5 62.5t127 19.5q94 0 150.5 -34.5t82.5 -109.5l-50 -26q-23 68 -68.5 95.5 t-118.5 27.5q-54 0 -100 -15t-83.5 -51t-64 -96.5t-41.5 -150.5q-9 -59 -9 -107q0 -58 14 -97.5t41 -64t65.5 -35t86.5 -10.5q71 0 129 24t102 89l37 -33q-47 -69 -111 -97t-140 -31l-27 -61q32 2 55.5 -14.5t23.5 -51.5q0 -45 -33 -66.5t-81 -21.5z" />
<glyph unicode="&#xc8;" horiz-adv-x="643" d="M69 0zM69 0l111 700h480l-8 -49h-424l-43 -274h372l-8 -50h-372l-45 -278h435l-8 -49h-490zM414 786l-99 107l1 5h72l72 -109v-3h-46z" />
<glyph unicode="&#xc9;" horiz-adv-x="643" d="M69 0zM502 898h74l-1 -5l-121 -107h-49v3zM69 0l111 700h480l-8 -49h-424l-43 -274h372l-8 -50h-372l-45 -278h435l-8 -49h-490z" />
<glyph unicode="&#xca;" horiz-adv-x="643" d="M69 0zM445 865l-96 -79h-62v2l135 110h51l99 -110v-2h-59zM69 0l111 700h480l-8 -49h-424l-43 -274h372l-8 -50h-372l-45 -278h435l-8 -49h-490z" />
<glyph unicode="&#xcb;" horiz-adv-x="643" d="M69 0zM511 798q-38 0 -38 35q0 25 14 37t34 12q19 0 29 -9.5t10 -26.5q0 -23 -13.5 -35.5t-35.5 -12.5zM359 798q-37 0 -37 35q0 25 13.5 37t34.5 12q37 0 37 -35q0 -23 -12.5 -36t-35.5 -13zM69 0l111 700h480l-8 -49h-424l-43 -274h372l-8 -50h-372l-45 -278h435 l-8 -49h-490z" />
<glyph unicode="&#xcc;" horiz-adv-x="282" d="M69 0zM69 0l111 700h57l-111 -700h-57zM203 786l-99 107l1 5h72l72 -109v-3h-46z" />
<glyph unicode="&#xcd;" horiz-adv-x="282" d="M69 0zM69 0l111 700h57l-111 -700h-57zM293 898h74l-1 -5l-121 -107h-49v3z" />
<glyph unicode="&#xce;" horiz-adv-x="282" d="M69 0zM69 0l111 700h57l-111 -700h-57zM234 865l-96 -79h-62v2l135 110h51l99 -110v-2h-59z" />
<glyph unicode="&#xcf;" horiz-adv-x="282" d="M69 0zM69 0l111 700h57l-111 -700h-57zM301 798q-38 0 -38 35q0 25 14 37t34 12q19 0 29 -9.5t10 -26.5q0 -23 -13.5 -35.5t-35.5 -12.5zM149 798q-37 0 -37 35q0 25 13.5 37t34.5 12q37 0 37 -35q0 -23 -12.5 -36t-35.5 -13z" />
<glyph unicode="&#xd0;" horiz-adv-x="736" d="M328 0h-249l54 340h-81l8 46h80l50 314h247q120 0 182.5 -56t62.5 -183q0 -21 -2 -49t-6 -56q-15 -94 -45 -161.5t-74 -110.5t-101 -63.5t-126 -20.5zM143 49h190q52 0 97.5 15t82 50.5t63 94t40.5 145.5q4 24 6.5 50t2.5 47q0 55 -13.5 93t-38 62t-60 34.5t-80.5 10.5 h-194l-43 -265h172l-8 -46h-172z" />
<glyph unicode="&#xd1;" horiz-adv-x="758" d="M69 0zM543 0l-323 620l-96 -620h-55l111 700h59l322 -618l97 618h55l-111 -700h-59zM566 887h42q-2 -26 -10.5 -43t-21 -26.5t-27 -13.5t-27.5 -4q-20 0 -35 7.5t-28 17t-25.5 17t-27.5 7.5q-34 0 -40 -45h-43q3 25 11.5 42t20.5 27t26 14t27 4q21 0 36 -7.5t28 -17 t25.5 -17t27.5 -7.5q35 0 41 45z" />
<glyph unicode="&#xd2;" horiz-adv-x="753" d="M80 0zM89 350q14 97 43.5 166t73.5 112t103 63t133 20q127 0 191.5 -58.5t64.5 -191.5q0 -26 -2 -52.5t-7 -58.5q-15 -98 -44.5 -166.5t-74 -111.5t-103 -63t-131.5 -20q-125 0 -190.5 59.5t-65.5 193.5q0 48 9 108zM641 457q0 58 -13.5 97.5t-39.5 63.5t-64 34.5 t-87 10.5q-57 0 -104.5 -15t-84.5 -51t-62.5 -96.5t-39.5 -150.5q-5 -29 -7.5 -55.5t-2.5 -52.5q0 -57 13.5 -96t40 -63.5t64 -35t85.5 -10.5q57 0 104.5 15t84.5 51.5t63 97t41 150.5q5 29 7 54.5t2 51.5zM436 786l-99 107l1 5h72l72 -109v-3h-46z" />
<glyph unicode="&#xd3;" horiz-adv-x="753" d="M80 0zM525 898h74l-1 -5l-121 -107h-49v3zM89 350q14 97 43.5 166t73.5 112t103 63t133 20q127 0 191.5 -58.5t64.5 -191.5q0 -26 -2 -52.5t-7 -58.5q-15 -98 -44.5 -166.5t-74 -111.5t-103 -63t-131.5 -20q-125 0 -190.5 59.5t-65.5 193.5q0 48 9 108zM641 457 q0 58 -13.5 97.5t-39.5 63.5t-64 34.5t-87 10.5q-57 0 -104.5 -15t-84.5 -51t-62.5 -96.5t-39.5 -150.5q-5 -29 -7.5 -55.5t-2.5 -52.5q0 -57 13.5 -96t40 -63.5t64 -35t85.5 -10.5q57 0 104.5 15t84.5 51.5t63 97t41 150.5q5 29 7 54.5t2 51.5z" />
<glyph unicode="&#xd4;" horiz-adv-x="753" d="M80 0zM467 865l-96 -79h-62v2l135 110h51l99 -110v-2h-59zM89 350q14 97 43.5 166t73.5 112t103 63t133 20q127 0 191.5 -58.5t64.5 -191.5q0 -26 -2 -52.5t-7 -58.5q-15 -98 -44.5 -166.5t-74 -111.5t-103 -63t-131.5 -20q-125 0 -190.5 59.5t-65.5 193.5q0 48 9 108z M641 457q0 58 -13.5 97.5t-39.5 63.5t-64 34.5t-87 10.5q-57 0 -104.5 -15t-84.5 -51t-62.5 -96.5t-39.5 -150.5q-5 -29 -7.5 -55.5t-2.5 -52.5q0 -57 13.5 -96t40 -63.5t64 -35t85.5 -10.5q57 0 104.5 15t84.5 51.5t63 97t41 150.5q5 29 7 54.5t2 51.5z" />
<glyph unicode="&#xd5;" horiz-adv-x="753" d="M80 0zM89 350q14 97 43.5 166t73.5 112t103 63t133 20q127 0 191.5 -58.5t64.5 -191.5q0 -26 -2 -52.5t-7 -58.5q-15 -98 -44.5 -166.5t-74 -111.5t-103 -63t-131.5 -20q-125 0 -190.5 59.5t-65.5 193.5q0 48 9 108zM641 457q0 58 -13.5 97.5t-39.5 63.5t-64 34.5 t-87 10.5q-57 0 -104.5 -15t-84.5 -51t-62.5 -96.5t-39.5 -150.5q-5 -29 -7.5 -55.5t-2.5 -52.5q0 -57 13.5 -96t40 -63.5t64 -35t85.5 -10.5q57 0 104.5 15t84.5 51.5t63 97t41 150.5q5 29 7 54.5t2 51.5zM562 887h42q-2 -26 -10.5 -43t-21 -26.5t-27 -13.5t-27.5 -4 q-20 0 -35 7.5t-28 17t-25.5 17t-27.5 7.5q-34 0 -40 -45h-43q3 25 11.5 42t20.5 27t26 14t27 4q21 0 36 -7.5t28 -17t25.5 -17t27.5 -7.5q35 0 41 45z" />
<glyph unicode="&#xd6;" horiz-adv-x="753" d="M80 0zM533 798q-38 0 -38 35q0 25 14 37t34 12q19 0 29 -9.5t10 -26.5q0 -23 -13.5 -35.5t-35.5 -12.5zM381 798q-37 0 -37 35q0 25 13.5 37t34.5 12q37 0 37 -35q0 -23 -12.5 -36t-35.5 -13zM89 350q14 97 43.5 166t73.5 112t103 63t133 20q127 0 191.5 -58.5 t64.5 -191.5q0 -26 -2 -52.5t-7 -58.5q-15 -98 -44.5 -166.5t-74 -111.5t-103 -63t-131.5 -20q-125 0 -190.5 59.5t-65.5 193.5q0 48 9 108zM641 457q0 58 -13.5 97.5t-39.5 63.5t-64 34.5t-87 10.5q-57 0 -104.5 -15t-84.5 -51t-62.5 -96.5t-39.5 -150.5q-5 -29 -7.5 -55.5 t-2.5 -52.5q0 -57 13.5 -96t40 -63.5t64 -35t85.5 -10.5q57 0 104.5 15t84.5 51.5t63 97t41 150.5q5 29 7 54.5t2 51.5z" />
<glyph unicode="&#xd7;" horiz-adv-x="471" d="M85 150l-27 33l151 132l-108 133l36 31l108 -132l151 132l27 -33l-151 -132l107 -130l-36 -32l-107 130z" />
<glyph unicode="&#xd8;" horiz-adv-x="753" d="M11 0l99 97q-30 57 -30 147q0 24 2.5 52t6.5 54q15 96 44.5 164.5t73 112t102 64t133.5 20.5q73 0 126 -19.5t85 -62.5l73 71h61l-112 -110q24 -53 24 -132q0 -23 -2 -51t-7 -57q-14 -96 -43 -164t-73.5 -112t-103.5 -64.5t-133 -20.5q-69 0 -120 17t-83 55l-62 -61h-61z M439 663q-59 0 -107 -15.5t-84.5 -52t-62 -96.5t-39.5 -149q-5 -26 -7.5 -55t-2.5 -53q0 -65 16 -104l461 451q-25 41 -69.5 57.5t-104.5 16.5zM339 37q58 0 106.5 16t85.5 53t62.5 97t39.5 147q5 27 7 56t2 53q0 49 -11 88l-458 -448q26 -34 67.5 -48t98.5 -14z" />
<glyph unicode="&#xd9;" horiz-adv-x="728" d="M86 0zM576 266l69 434h56l-68 -433q-23 -142 -103.5 -210t-206.5 -68q-114 0 -175.5 52t-61.5 160q0 31 6 66l69 433h56l-69 -433q-3 -17 -4 -31.5t-1 -29.5q0 -86 46 -127.5t136 -41.5q49 0 91 12.5t74 40t54 71t32 105.5zM425 786l-99 107l1 5h72l72 -109v-3h-46z" />
<glyph unicode="&#xda;" horiz-adv-x="728" d="M86 0zM514 898h74l-1 -5l-121 -107h-49v3zM576 266l69 434h56l-68 -433q-23 -142 -103.5 -210t-206.5 -68q-114 0 -175.5 52t-61.5 160q0 31 6 66l69 433h56l-69 -433q-3 -17 -4 -31.5t-1 -29.5q0 -86 46 -127.5t136 -41.5q49 0 91 12.5t74 40t54 71t32 105.5z" />
<glyph unicode="&#xdb;" horiz-adv-x="728" d="M86 0zM456 865l-96 -79h-62v2l135 110h51l99 -110v-2h-59zM576 266l69 434h56l-68 -433q-23 -142 -103.5 -210t-206.5 -68q-114 0 -175.5 52t-61.5 160q0 31 6 66l69 433h56l-69 -433q-3 -17 -4 -31.5t-1 -29.5q0 -86 46 -127.5t136 -41.5q49 0 91 12.5t74 40t54 71 t32 105.5z" />
<glyph unicode="&#xdc;" horiz-adv-x="728" d="M86 0zM522 798q-38 0 -38 35q0 25 14 37t34 12q19 0 29 -9.5t10 -26.5q0 -23 -13.5 -35.5t-35.5 -12.5zM370 798q-37 0 -37 35q0 25 13.5 37t34.5 12q37 0 37 -35q0 -23 -12.5 -36t-35.5 -13zM576 266l69 434h56l-68 -433q-23 -142 -103.5 -210t-206.5 -68 q-114 0 -175.5 52t-61.5 160q0 31 6 66l69 433h56l-69 -433q-3 -17 -4 -31.5t-1 -29.5q0 -86 46 -127.5t136 -41.5q49 0 91 12.5t74 40t54 71t32 105.5z" />
<glyph unicode="&#xdd;" horiz-adv-x="582" d="M76 0zM259 283l-183 417h60l158 -366l276 366h63l-317 -417l-45 -283h-56zM435 898h74l-1 -5l-121 -107h-49v3z" />
<glyph unicode="&#xde;" horiz-adv-x="627" d="M152 157l-24 -157h-58l111 700h58l-23 -140h196q98 0 144 -41t46 -119q0 -54 -16.5 -98.5t-49 -76.5t-80.5 -50t-112 -18h-192zM160 206h194q42 0 77 11.5t60.5 35t39.5 58.5t14 82q0 60 -33 88.5t-103 28.5h-201z" />
<glyph unicode="&#xdf;" horiz-adv-x="584" d="M335 352h-44l7 45h45q63 0 103.5 39t40.5 110q0 58 -33.5 87.5t-95.5 29.5q-69 0 -115 -40.5t-60 -128.5l-78 -493h-55l80 501q9 57 31 96.5t53.5 64.5t69.5 36t79 11q87 0 133 -43.5t46 -118.5q0 -63 -32.5 -108.5t-82.5 -65.5q56 -17 82.5 -56t26.5 -97q0 -51 -16 -93 t-45.5 -72t-71 -46.5t-92.5 -16.5q-29 0 -56.5 5.5t-58.5 21.5l18 44q23 -13 47 -18t47 -5q38 0 70 11t55 33.5t36 56t13 77.5q0 29 -8 53.5t-26 42t-46 27.5t-67 10z" />
<glyph unicode="&#xe0;" horiz-adv-x="549" d="M44 0zM199 35q78 0 131 50t70 138l4 21h-137q-78 0 -123.5 -30.5t-45.5 -93.5q0 -43 26.5 -64t74.5 -21zM183 -10q-62 0 -100.5 31.5t-38.5 93.5q0 80 57.5 127t169.5 47h140q2 17 3.5 30t1.5 24q0 60 -31 82t-91 22q-59 0 -98 -18t-66 -49l-27 34q67 79 199 79 q80 0 125 -31.5t45 -108.5q0 -12 -1 -25t-3 -28l-47 -300h-48l11 103q-31 -54 -82.5 -83.5t-118.5 -29.5zM297 568l-99 107l1 5h72l72 -109v-3h-46z" />
<glyph unicode="&#xe1;" horiz-adv-x="549" d="M44 0zM199 35q78 0 131 50t70 138l4 21h-137q-78 0 -123.5 -30.5t-45.5 -93.5q0 -43 26.5 -64t74.5 -21zM183 -10q-62 0 -100.5 31.5t-38.5 93.5q0 80 57.5 127t169.5 47h140q2 17 3.5 30t1.5 24q0 60 -31 82t-91 22q-59 0 -98 -18t-66 -49l-27 34q67 79 199 79 q80 0 125 -31.5t45 -108.5q0 -12 -1 -25t-3 -28l-47 -300h-48l11 103q-31 -54 -82.5 -83.5t-118.5 -29.5zM385 680h74l-1 -5l-121 -107h-49v3z" />
<glyph unicode="&#xe2;" horiz-adv-x="549" d="M44 0zM199 35q78 0 131 50t70 138l4 21h-137q-78 0 -123.5 -30.5t-45.5 -93.5q0 -43 26.5 -64t74.5 -21zM183 -10q-62 0 -100.5 31.5t-38.5 93.5q0 80 57.5 127t169.5 47h140q2 17 3.5 30t1.5 24q0 60 -31 82t-91 22q-59 0 -98 -18t-66 -49l-27 34q67 79 199 79 q80 0 125 -31.5t45 -108.5q0 -12 -1 -25t-3 -28l-47 -300h-48l11 103q-31 -54 -82.5 -83.5t-118.5 -29.5zM328 647l-96 -79h-62v2l135 110h51l99 -110v-2h-59z" />
<glyph unicode="&#xe3;" horiz-adv-x="549" d="M44 0zM199 35q78 0 131 50t70 138l4 21h-137q-78 0 -123.5 -30.5t-45.5 -93.5q0 -43 26.5 -64t74.5 -21zM183 -10q-62 0 -100.5 31.5t-38.5 93.5q0 80 57.5 127t169.5 47h140q2 17 3.5 30t1.5 24q0 60 -31 82t-91 22q-59 0 -98 -18t-66 -49l-27 34q67 79 199 79 q80 0 125 -31.5t45 -108.5q0 -12 -1 -25t-3 -28l-47 -300h-48l11 103q-31 -54 -82.5 -83.5t-118.5 -29.5zM422 669h42q-2 -26 -10.5 -43t-21 -26.5t-27 -13.5t-27.5 -4q-20 0 -35 7.5t-28 17t-25.5 17t-27.5 7.5q-34 0 -40 -45h-43q3 25 11.5 42t20.5 27t26 14t27 4 q21 0 36 -7.5t28 -17t25.5 -17t27.5 -7.5q35 0 41 45z" />
<glyph unicode="&#xe4;" horiz-adv-x="549" d="M44 0zM199 35q78 0 131 50t70 138l4 21h-137q-78 0 -123.5 -30.5t-45.5 -93.5q0 -43 26.5 -64t74.5 -21zM183 -10q-62 0 -100.5 31.5t-38.5 93.5q0 80 57.5 127t169.5 47h140q2 17 3.5 30t1.5 24q0 60 -31 82t-91 22q-59 0 -98 -18t-66 -49l-27 34q67 79 199 79 q80 0 125 -31.5t45 -108.5q0 -12 -1 -25t-3 -28l-47 -300h-48l11 103q-31 -54 -82.5 -83.5t-118.5 -29.5zM394 580q-38 0 -38 35q0 25 14 37t34 12q19 0 29 -9.5t10 -26.5q0 -23 -13.5 -35.5t-35.5 -12.5zM242 580q-37 0 -37 35q0 25 13.5 37t34.5 12q37 0 37 -35 q0 -23 -12.5 -36t-35.5 -13z" />
<glyph unicode="&#xe5;" horiz-adv-x="549" d="M44 0zM199 35q78 0 131 50t70 138l4 21h-137q-78 0 -123.5 -30.5t-45.5 -93.5q0 -43 26.5 -64t74.5 -21zM183 -10q-62 0 -100.5 31.5t-38.5 93.5q0 80 57.5 127t169.5 47h140q2 17 3.5 30t1.5 24q0 60 -31 82t-91 22q-59 0 -98 -18t-66 -49l-27 34q67 79 199 79 q80 0 125 -31.5t45 -108.5q0 -12 -1 -25t-3 -28l-47 -300h-48l11 103q-31 -54 -82.5 -83.5t-118.5 -29.5zM316 545q-35 0 -56.5 21.5t-21.5 56.5q0 43 27.5 72t69.5 29q35 0 56.5 -21t21.5 -56q0 -45 -27.5 -73.5t-69.5 -28.5zM333 696q-27 0 -45.5 -20t-18.5 -50 q0 -23 13.5 -38t35.5 -15q26 0 45 20t19 50q0 23 -13.5 38t-35.5 15z" />
<glyph unicode="&#xe6;" horiz-adv-x="882" d="M188 -11q-65 0 -103.5 31t-38.5 92q0 74 57 121t170 47h140l2 12q7 45 3 75t-18.5 47.5t-40 25t-61.5 7.5q-59 0 -97.5 -18t-66.5 -49l-25 34q33 40 81.5 59.5t116.5 19.5q69 0 109 -24.5t50 -82.5q65 107 200 107q86 0 127.5 -46.5t41.5 -131.5q0 -18 -2 -38t-8 -41 h-363q-2 -14 -3.5 -29t-1.5 -30q0 -75 36 -109t105 -34q57 0 97.5 20.5t69.5 69.5l38 -24q-35 -58 -86.5 -84.5t-124.5 -26.5q-75 0 -121.5 31t-60.5 96q-32 -60 -88 -93.5t-134 -33.5zM659 448q-74 0 -121 -42.5t-68 -125.5h310q1 10 1.5 19t0.5 18q0 131 -123 131zM204 35 q80 0 132 49t68 146l1 6h-135q-80 0 -125 -28.5t-45 -88.5q0 -42 26.5 -63t77.5 -21z" />
<glyph unicode="&#xe7;" horiz-adv-x="525" d="M207 -226q-35 0 -60 13t-38 42l32 25q11 -23 26 -34t44 -11q32 0 50 12.5t18 38.5t-21.5 35t-50.5 5l-11 9l30 81q-169 11 -169 184q0 29 6 65q20 129 84.5 191.5t171.5 62.5q76 0 117 -31t58 -85l-44 -21q-14 45 -45.5 68t-88.5 23q-83 0 -132 -49.5t-66 -158.5 q-6 -36 -6 -64q0 -75 35 -107.5t108 -32.5q54 0 93 18.5t68 65.5l39 -26q-32 -52 -79 -76t-107 -27l-27 -62q32 2 55.5 -14.5t23.5 -51.5q0 -45 -33 -66.5t-81 -21.5z" />
<glyph unicode="&#xe8;" horiz-adv-x="536" d="M57 0zM246 -11q-91 0 -140 45.5t-49 142.5q0 29 6 64q19 125 84.5 188.5t172.5 63.5q85 0 127 -47t42 -131q0 -40 -11 -90h-363q-2 -11 -2.5 -23t-0.5 -20q-3 -147 140 -147q56 0 97 20t70 68l38 -25q-35 -57 -86 -83t-125 -26zM314 448q-75 0 -123 -42.5t-68 -135.5h310 q3 22 3 47q0 67 -31 99t-91 32zM305 568l-99 107l1 5h72l72 -109v-3h-46z" />
<glyph unicode="&#xe9;" horiz-adv-x="536" d="M57 0zM395 680h74l-1 -5l-121 -107h-49v3zM246 -11q-91 0 -140 45.5t-49 142.5q0 29 6 64q19 125 84.5 188.5t172.5 63.5q85 0 127 -47t42 -131q0 -40 -11 -90h-363q-2 -11 -2.5 -23t-0.5 -20q-3 -147 140 -147q56 0 97 20t70 68l38 -25q-35 -57 -86 -83t-125 -26z M314 448q-75 0 -123 -42.5t-68 -135.5h310q3 22 3 47q0 67 -31 99t-91 32z" />
<glyph unicode="&#xea;" horiz-adv-x="536" d="M57 0zM337 647l-96 -79h-62v2l135 110h51l99 -110v-2h-59zM246 -11q-91 0 -140 45.5t-49 142.5q0 29 6 64q19 125 84.5 188.5t172.5 63.5q85 0 127 -47t42 -131q0 -40 -11 -90h-363q-2 -11 -2.5 -23t-0.5 -20q-3 -147 140 -147q56 0 97 20t70 68l38 -25q-35 -57 -86 -83 t-125 -26zM314 448q-75 0 -123 -42.5t-68 -135.5h310q3 22 3 47q0 67 -31 99t-91 32z" />
<glyph unicode="&#xeb;" horiz-adv-x="536" d="M57 0zM403 580q-38 0 -38 35q0 25 14 37t34 12q19 0 29 -9.5t10 -26.5q0 -23 -13.5 -35.5t-35.5 -12.5zM251 580q-37 0 -37 35q0 25 13.5 37t34.5 12q37 0 37 -35q0 -23 -12.5 -36t-35.5 -13zM246 -11q-91 0 -140 45.5t-49 142.5q0 29 6 64q19 125 84.5 188.5t172.5 63.5 q85 0 127 -47t42 -131q0 -40 -11 -90h-363q-2 -11 -2.5 -23t-0.5 -20q-3 -147 140 -147q56 0 97 20t70 68l38 -25q-35 -57 -86 -83t-125 -26zM314 448q-75 0 -123 -42.5t-68 -135.5h310q3 22 3 47q0 67 -31 99t-91 32z" />
<glyph unicode="&#xec;" horiz-adv-x="253" d="M58 0zM137 482h55l-75 -482h-55zM157 568l-99 107l1 5h72l72 -109v-3h-46z" />
<glyph unicode="&#xed;" horiz-adv-x="253" d="M62 0zM247 680h74l-1 -5l-121 -107h-49v3zM137 482h55l-75 -482h-55z" />
<glyph unicode="&#xee;" horiz-adv-x="253" d="M31 0zM189 647l-96 -79h-62v2l135 110h51l99 -110v-2h-59zM137 482h55l-75 -482h-55z" />
<glyph unicode="&#xef;" horiz-adv-x="253" d="M62 0zM255 580q-38 0 -38 35q0 25 14 37t34 12q19 0 29 -9.5t10 -26.5q0 -23 -13.5 -35.5t-35.5 -12.5zM103 580q-37 0 -37 35q0 25 13.5 37t34.5 12q37 0 37 -35q0 -23 -12.5 -36t-35.5 -13zM137 482h55l-75 -482h-55z" />
<glyph unicode="&#xf0;" horiz-adv-x="574" d="M546 706l16 -32l-95 -56q30 -45 43 -100.5t13 -120.5q0 -30 -3.5 -64t-8.5 -82q-17 -135 -85 -198.5t-175 -63.5q-94 0 -144 45t-50 141q0 16 2 31.5t4 32.5q18 129 83.5 190.5t175.5 61.5q115 0 151 -86q-1 57 -13 104t-38 83l-93 -54l-16 32l85 50q-48 51 -125 76 l23 39q94 -28 148 -88zM455 239q2 17 3.5 34t1.5 32q0 74 -34.5 107.5t-106.5 33.5q-88 0 -137 -49.5t-65 -157.5q-6 -36 -6 -65q0 -72 35 -105.5t107 -33.5q85 0 135 49t67 155z" />
<glyph unicode="&#xf1;" horiz-adv-x="603" d="M58 0zM58 0l77 482h48l-11 -107q35 61 89 89.5t117 28.5q75 0 112.5 -35.5t37.5 -104.5q0 -12 -1 -24.5t-3 -26.5l-48 -302h-55l47 293q2 12 3 23.5t1 21.5q0 57 -30.5 82t-84.5 25q-39 0 -72.5 -14t-59.5 -39.5t-44.5 -61.5t-27.5 -80l-40 -250h-55zM458 669h42 q-2 -26 -10.5 -43t-21 -26.5t-27 -13.5t-27.5 -4q-20 0 -35 7.5t-28 17t-25.5 17t-27.5 7.5q-34 0 -40 -45h-43q3 25 11.5 42t20.5 27t26 14t27 4q21 0 36 -7.5t28 -17t25.5 -17t27.5 -7.5q35 0 41 45z" />
<glyph unicode="&#xf2;" horiz-adv-x="571" d="M57 0zM63 241q19 130 85.5 191t174.5 61q95 0 143.5 -44.5t48.5 -138.5q0 -32 -6 -69q-19 -129 -84.5 -190.5t-175.5 -61.5q-94 0 -143 44.5t-49 140.5q0 31 6 67zM454 240q6 37 6 67q0 74 -35 107t-107 33q-87 0 -135 -49t-65 -158q-6 -38 -6 -67q0 -73 34.5 -105.5 t106.5 -32.5q85 0 134.5 48.5t66.5 156.5zM315 568l-99 107l1 5h72l72 -109v-3h-46z" />
<glyph unicode="&#xf3;" horiz-adv-x="571" d="M57 0zM404 680h74l-1 -5l-121 -107h-49v3zM63 241q19 130 85.5 191t174.5 61q95 0 143.5 -44.5t48.5 -138.5q0 -32 -6 -69q-19 -129 -84.5 -190.5t-175.5 -61.5q-94 0 -143 44.5t-49 140.5q0 31 6 67zM454 240q6 37 6 67q0 74 -35 107t-107 33q-87 0 -135 -49t-65 -158 q-6 -38 -6 -67q0 -73 34.5 -105.5t106.5 -32.5q85 0 134.5 48.5t66.5 156.5z" />
<glyph unicode="&#xf4;" horiz-adv-x="571" d="M57 0zM348 647l-96 -79h-62v2l135 110h51l99 -110v-2h-59zM63 241q19 130 85.5 191t174.5 61q95 0 143.5 -44.5t48.5 -138.5q0 -32 -6 -69q-19 -129 -84.5 -190.5t-175.5 -61.5q-94 0 -143 44.5t-49 140.5q0 31 6 67zM454 240q6 37 6 67q0 74 -35 107t-107 33 q-87 0 -135 -49t-65 -158q-6 -38 -6 -67q0 -73 34.5 -105.5t106.5 -32.5q85 0 134.5 48.5t66.5 156.5z" />
<glyph unicode="&#xf5;" horiz-adv-x="571" d="M57 0zM63 241q19 130 85.5 191t174.5 61q95 0 143.5 -44.5t48.5 -138.5q0 -32 -6 -69q-19 -129 -84.5 -190.5t-175.5 -61.5q-94 0 -143 44.5t-49 140.5q0 31 6 67zM454 240q6 37 6 67q0 74 -35 107t-107 33q-87 0 -135 -49t-65 -158q-6 -38 -6 -67q0 -73 34.5 -105.5 t106.5 -32.5q85 0 134.5 48.5t66.5 156.5zM441 669h42q-2 -26 -10.5 -43t-21 -26.5t-27 -13.5t-27.5 -4q-20 0 -35 7.5t-28 17t-25.5 17t-27.5 7.5q-34 0 -40 -45h-43q3 25 11.5 42t20.5 27t26 14t27 4q21 0 36 -7.5t28 -17t25.5 -17t27.5 -7.5q35 0 41 45z" />
<glyph unicode="&#xf6;" horiz-adv-x="571" d="M57 0zM413 580q-38 0 -38 35q0 25 14 37t34 12q19 0 29 -9.5t10 -26.5q0 -23 -13.5 -35.5t-35.5 -12.5zM261 580q-37 0 -37 35q0 25 13.5 37t34.5 12q37 0 37 -35q0 -23 -12.5 -36t-35.5 -13zM63 241q19 130 85.5 191t174.5 61q95 0 143.5 -44.5t48.5 -138.5 q0 -32 -6 -69q-19 -129 -84.5 -190.5t-175.5 -61.5q-94 0 -143 44.5t-49 140.5q0 31 6 67zM454 240q6 37 6 67q0 74 -35 107t-107 33q-87 0 -135 -49t-65 -158q-6 -38 -6 -67q0 -73 34.5 -105.5t106.5 -32.5q85 0 134.5 48.5t66.5 156.5z" />
<glyph unicode="&#xf7;" horiz-adv-x="494" d="M264 418q-19 0 -28 9.5t-9 25.5q0 26 14 37.5t34 11.5q38 0 38 -35q0 -23 -13 -36t-36 -13zM444 330l-7 -46h-388l7 46h388zM218 116q-20 0 -29 9.5t-9 26.5q0 24 13.5 36.5t33.5 12.5q18 0 28.5 -9.5t10.5 -26.5q0 -24 -14 -36.5t-34 -12.5z" />
<glyph unicode="&#xf8;" horiz-adv-x="571" d="M526 482h57l-88 -79q19 -38 19 -97q0 -15 -1.5 -31.5t-3.5 -34.5q-19 -125 -84.5 -188t-175.5 -63q-105 0 -150 55l-49 -44h-57l83 76q-19 41 -19 99q0 15 1.5 31.5t3.5 33.5q39 253 260 253q104 0 152 -58zM319 448q-87 0 -136 -51t-66 -157q-6 -35 -6 -65q0 -34 9 -59 l315 285q-35 47 -116 47zM253 35q87 0 135.5 49.5t65.5 155.5q6 34 6 65q0 35 -10 58l-312 -283q32 -45 115 -45z" />
<glyph unicode="&#xf9;" horiz-adv-x="602" d="M76 0zM230 -11q-78 0 -116 38t-38 110q0 26 4 49l47 296h55l-46 -287q-2 -13 -2.5 -24.5t-0.5 -22.5q0 -60 29.5 -86t83.5 -26q81 0 131.5 50t68.5 136l42 260h55l-77 -482h-48l11 100q-35 -57 -87 -84t-112 -27zM332 568l-99 107l1 5h72l72 -109v-3h-46z" />
<glyph unicode="&#xfa;" horiz-adv-x="602" d="M76 0zM421 680h74l-1 -5l-121 -107h-49v3zM230 -11q-78 0 -116 38t-38 110q0 26 4 49l47 296h55l-46 -287q-2 -13 -2.5 -24.5t-0.5 -22.5q0 -60 29.5 -86t83.5 -26q81 0 131.5 50t68.5 136l42 260h55l-77 -482h-48l11 100q-35 -57 -87 -84t-112 -27z" />
<glyph unicode="&#xfb;" horiz-adv-x="602" d="M76 0zM363 647l-96 -79h-62v2l135 110h51l99 -110v-2h-59zM230 -11q-78 0 -116 38t-38 110q0 26 4 49l47 296h55l-46 -287q-2 -13 -2.5 -24.5t-0.5 -22.5q0 -60 29.5 -86t83.5 -26q81 0 131.5 50t68.5 136l42 260h55l-77 -482h-48l11 100q-35 -57 -87 -84t-112 -27z" />
<glyph unicode="&#xfc;" horiz-adv-x="602" d="M76 0zM429 580q-38 0 -38 35q0 25 14 37t34 12q19 0 29 -9.5t10 -26.5q0 -23 -13.5 -35.5t-35.5 -12.5zM277 580q-37 0 -37 35q0 25 13.5 37t34.5 12q37 0 37 -35q0 -23 -12.5 -36t-35.5 -13zM230 -11q-78 0 -116 38t-38 110q0 26 4 49l47 296h55l-46 -287 q-2 -13 -2.5 -24.5t-0.5 -22.5q0 -60 29.5 -86t83.5 -26q81 0 131.5 50t68.5 136l42 260h55l-77 -482h-48l11 100q-35 -57 -87 -84t-112 -27z" />
<glyph unicode="&#xfd;" horiz-adv-x="477" d="M0 0zM144 -56l28 51l-122 487h57l102 -430l236 430h57l-313 -557q-24 -42 -47 -68t-46.5 -41t-48 -20.5t-50.5 -5.5q-19 0 -35 2.5t-36 10.5l17 47q14 -6 28 -9t34 -3q15 0 31 3.5t33 14.5t36 32t39 56zM360 680h74l-1 -5l-121 -107h-49v3z" />
<glyph unicode="&#xfe;" horiz-adv-x="597" d="M152 238q-2 -16 -3.5 -29.5t-1.5 -27.5q0 -76 38 -111.5t99 -35.5q82 0 130.5 53t64.5 154q3 19 4.5 34t1.5 31q0 141 -128 141q-38 0 -71 -12.5t-60 -38t-46 -65t-28 -93.5zM226 700l-53 -331q32 63 83.5 93.5t117.5 30.5q81 0 123 -46.5t42 -137.5q0 -17 -1 -32t-4 -35 q-18 -121 -81 -187t-167 -66q-58 0 -99.5 27t-56.5 86l-45 -288h-56l142 886h55z" />
<glyph unicode="&#xff;" horiz-adv-x="477" d="M0 0zM144 -56l28 51l-122 487h57l102 -430l236 430h57l-313 -557q-24 -42 -47 -68t-46.5 -41t-48 -20.5t-50.5 -5.5q-19 0 -35 2.5t-36 10.5l17 47q14 -6 28 -9t34 -3q15 0 31 3.5t33 14.5t36 32t39 56zM368 580q-38 0 -38 35q0 25 14 37t34 12q19 0 29 -9.5t10 -26.5 q0 -23 -13.5 -35.5t-35.5 -12.5zM216 580q-37 0 -37 35q0 25 13.5 37t34.5 12q37 0 37 -35q0 -23 -12.5 -36t-35.5 -13z" />
<glyph unicode="&#x100;" horiz-adv-x="601" d="M0 0zM364 645l-221 -438h306zM488 0l-30 158h-340l-80 -158h-60l359 700h71l138 -700h-58zM515 859l-6 -39h-234l6 39h234z" />
<glyph unicode="&#x101;" horiz-adv-x="549" d="M44 0zM199 35q78 0 131 50t70 138l4 21h-137q-78 0 -123.5 -30.5t-45.5 -93.5q0 -43 26.5 -64t74.5 -21zM183 -10q-62 0 -100.5 31.5t-38.5 93.5q0 80 57.5 127t169.5 47h140q2 17 3.5 30t1.5 24q0 60 -31 82t-91 22q-59 0 -98 -18t-66 -49l-27 34q67 79 199 79 q80 0 125 -31.5t45 -108.5q0 -12 -1 -25t-3 -28l-47 -300h-48l11 103q-31 -54 -82.5 -83.5t-118.5 -29.5zM444 641l-6 -39h-234l6 39h234z" />
<glyph unicode="&#x102;" horiz-adv-x="601" d="M0 0zM364 645l-221 -438h306zM488 0l-30 158h-340l-80 -158h-60l359 700h71l138 -700h-58zM486 897h44q-10 -65 -47 -89t-97 -24q-30 0 -53 5.5t-37.5 18.5t-20.5 35t-1 54h44q-8 -44 10.5 -60t60.5 -16t66 16t31 60z" />
<glyph unicode="&#x103;" horiz-adv-x="549" d="M44 0zM199 35q78 0 131 50t70 138l4 21h-137q-78 0 -123.5 -30.5t-45.5 -93.5q0 -43 26.5 -64t74.5 -21zM183 -10q-62 0 -100.5 31.5t-38.5 93.5q0 80 57.5 127t169.5 47h140q2 17 3.5 30t1.5 24q0 60 -31 82t-91 22q-59 0 -98 -18t-66 -49l-27 34q67 79 199 79 q80 0 125 -31.5t45 -108.5q0 -12 -1 -25t-3 -28l-47 -300h-48l11 103q-31 -54 -82.5 -83.5t-118.5 -29.5zM414 679h44q-10 -65 -47 -89t-97 -24q-30 0 -53 5.5t-37.5 18.5t-20.5 35t-1 54h44q-8 -44 10.5 -60t60.5 -16t66 16t31 60z" />
<glyph unicode="&#x104;" horiz-adv-x="601" d="M482 -204q-18 0 -35 4t-29.5 13.5t-20.5 25.5t-8 40q0 25 9 47t23 39t31 29t33 18l-28 146h-339l-81 -158h-59l359 700h71l138 -700h-9q-20 -2 -38.5 -12t-33 -25.5t-23.5 -35t-9 -40.5q0 -30 16 -40.5t41 -10.5q32 0 63 17l7 -37q-37 -20 -78 -20zM363 645l-221 -438 h306z" />
<glyph unicode="&#x105;" horiz-adv-x="549" d="M442 -184q-35 -20 -77 -20q-18 0 -35 4t-30 13.5t-20.5 25.5t-7.5 40q0 26 9 48t23.5 39.5t33 30.5t37.5 20l9 86q-31 -54 -82.5 -83.5t-118.5 -29.5q-62 0 -100.5 31.5t-38.5 93.5q0 80 57.5 127t169.5 47h140q2 17 3.5 30t1.5 24q0 60 -31 82t-91 22q-59 0 -98 -18 t-66 -49l-27 34q67 79 199 79q80 0 125 -31.5t45 -108.5q0 -12 -1 -25t-3 -28l-47 -300h-2q-20 -2 -38.5 -12t-33 -25.5t-23.5 -35t-9 -40.5q0 -30 16.5 -40.5t41.5 -10.5q33 0 62 17zM199 35q78 0 131 50t70 138l4 21h-137q-78 0 -123.5 -30.5t-45.5 -93.5q0 -43 26.5 -64 t74.5 -21z" />
<glyph unicode="&#x106;" horiz-adv-x="680" d="M80 0zM530 899h74l-1 -5l-121 -107h-49v3zM340 -11q-127 0 -193.5 58.5t-66.5 196.5q0 50 9 106q14 98 44.5 167t75 112t102.5 62.5t127 19.5q94 0 150.5 -34.5t82.5 -109.5l-50 -26q-23 68 -68.5 95.5t-118.5 27.5q-54 0 -100 -15t-83.5 -51t-64 -96.5t-41.5 -150.5 q-9 -59 -9 -107q0 -58 14 -97.5t41 -64t65.5 -35t86.5 -10.5q71 0 129 24t102 89l37 -33q-25 -37 -55 -61.5t-64 -39.5t-72.5 -21t-79.5 -6z" />
<glyph unicode="&#x107;" horiz-adv-x="525" d="M57 0zM403 680h74l-1 -5l-121 -107h-49v3zM416 119l39 -26q-34 -57 -86.5 -80.5t-119.5 -23.5q-192 0 -192 185q0 29 6 65q20 129 84.5 191.5t171.5 62.5q76 0 117 -31t58 -85l-44 -21q-14 45 -45.5 68t-88.5 23q-83 0 -132 -49.5t-66 -158.5q-6 -36 -6 -64 q0 -75 35 -107.5t108 -32.5q54 0 93 18.5t68 65.5z" />
<glyph unicode="&#x108;" horiz-adv-x="680" d="M80 0zM472 866l-96 -79h-62v2l135 110h51l99 -110v-2h-59zM340 -11q-127 0 -193.5 58.5t-66.5 196.5q0 50 9 106q14 98 44.5 167t75 112t102.5 62.5t127 19.5q94 0 150.5 -34.5t82.5 -109.5l-50 -26q-23 68 -68.5 95.5t-118.5 27.5q-54 0 -100 -15t-83.5 -51t-64 -96.5 t-41.5 -150.5q-9 -59 -9 -107q0 -58 14 -97.5t41 -64t65.5 -35t86.5 -10.5q71 0 129 24t102 89l37 -33q-25 -37 -55 -61.5t-64 -39.5t-72.5 -21t-79.5 -6z" />
<glyph unicode="&#x109;" horiz-adv-x="525" d="M57 0zM344 647l-96 -79h-62v2l135 110h51l99 -110v-2h-59zM416 119l39 -26q-34 -57 -86.5 -80.5t-119.5 -23.5q-192 0 -192 185q0 29 6 65q20 129 84.5 191.5t171.5 62.5q76 0 117 -31t58 -85l-44 -21q-14 45 -45.5 68t-88.5 23q-83 0 -132 -49.5t-66 -158.5 q-6 -36 -6 -64q0 -75 35 -107.5t108 -32.5q54 0 93 18.5t68 65.5z" />
<glyph unicode="&#x10a;" horiz-adv-x="680" d="M80 0zM340 -11q-127 0 -193.5 58.5t-66.5 196.5q0 50 9 106q14 98 44.5 167t75 112t102.5 62.5t127 19.5q94 0 150.5 -34.5t82.5 -109.5l-50 -26q-23 68 -68.5 95.5t-118.5 27.5q-54 0 -100 -15t-83.5 -51t-64 -96.5t-41.5 -150.5q-9 -59 -9 -107q0 -58 14 -97.5t41 -64 t65.5 -35t86.5 -10.5q71 0 129 24t102 89l37 -33q-25 -37 -55 -61.5t-64 -39.5t-72.5 -21t-79.5 -6zM462 799q-20 0 -29 9.5t-9 26.5q0 24 14 36t34 12q18 0 28.5 -10t10.5 -27q0 -22 -14 -34.5t-35 -12.5z" />
<glyph unicode="&#x10b;" horiz-adv-x="525" d="M57 0zM416 119l39 -26q-34 -57 -86.5 -80.5t-119.5 -23.5q-192 0 -192 185q0 29 6 65q20 129 84.5 191.5t171.5 62.5q76 0 117 -31t58 -85l-44 -21q-14 45 -45.5 68t-88.5 23q-83 0 -132 -49.5t-66 -158.5q-6 -36 -6 -64q0 -75 35 -107.5t108 -32.5q54 0 93 18.5t68 65.5 zM335 580q-20 0 -29 9.5t-9 26.5q0 24 14 36t34 12q18 0 28.5 -10t10.5 -27q0 -22 -14 -34.5t-35 -12.5z" />
<glyph unicode="&#x10c;" horiz-adv-x="680" d="M80 0zM435 787l-100 110v2h60l68 -78l95 78h63v-2l-135 -110h-51zM340 -11q-127 0 -193.5 58.5t-66.5 196.5q0 50 9 106q14 98 44.5 167t75 112t102.5 62.5t127 19.5q94 0 150.5 -34.5t82.5 -109.5l-50 -26q-23 68 -68.5 95.5t-118.5 27.5q-54 0 -100 -15t-83.5 -51 t-64 -96.5t-41.5 -150.5q-9 -59 -9 -107q0 -58 14 -97.5t41 -64t65.5 -35t86.5 -10.5q71 0 129 24t102 89l37 -33q-25 -37 -55 -61.5t-64 -39.5t-72.5 -21t-79.5 -6z" />
<glyph unicode="&#x10d;" horiz-adv-x="525" d="M57 0zM307 568l-100 110v2h60l68 -78l95 78h63v-2l-135 -110h-51zM416 119l39 -26q-34 -57 -86.5 -80.5t-119.5 -23.5q-192 0 -192 185q0 29 6 65q20 129 84.5 191.5t171.5 62.5q76 0 117 -31t58 -85l-44 -21q-14 45 -45.5 68t-88.5 23q-83 0 -132 -49.5t-66 -158.5 q-6 -36 -6 -64q0 -75 35 -107.5t108 -32.5q54 0 93 18.5t68 65.5z" />
<glyph unicode="&#x10e;" horiz-adv-x="726" d="M69 0zM421 786l-100 110v2h60l68 -78l95 78h63v-2l-135 -110h-51zM318 0h-249l111 700h247q120 0 182.5 -56.5t62.5 -183.5q0 -20 -2 -48.5t-6 -55.5q-15 -95 -45 -162t-74 -110.5t-101 -63.5t-126 -20zM133 49h189q52 0 98 15t82.5 50.5t63 94t40.5 145.5q4 24 6.5 50 t2.5 47q0 55 -13.5 93t-38 62t-60 34.5t-80.5 10.5h-194z" />
<glyph unicode="&#x10f;" horiz-adv-x="645" d="M57 0zM668 499h-39l38 201h59zM444 245q2 15 3.5 29t1.5 26q0 76 -38 111.5t-98 35.5q-161 0 -194 -204q-4 -23 -5.5 -36.5t-1.5 -27.5q0 -144 133 -144q36 0 68.5 12.5t58.5 38t45 65t27 94.5zM459 0h-49l12 99q-32 -56 -82.5 -83t-112.5 -27q-84 0 -127 47t-43 138 q0 31 6 67q17 122 80.5 187t166.5 65q57 0 98.5 -25.5t58.5 -77.5l49 310h54z" />
<glyph unicode="&#x110;" horiz-adv-x="736" d="M328 0h-249l54 340h-81l8 46h80l50 314h247q120 0 182.5 -56t62.5 -183q0 -21 -2 -49t-6 -56q-15 -94 -45 -161.5t-74 -110.5t-101 -63.5t-126 -20.5zM143 49h190q52 0 97.5 15t82 50.5t63 94t40.5 145.5q4 24 6.5 50t2.5 47q0 55 -13.5 93t-38 62t-60 34.5t-80.5 10.5 h-194l-43 -265h172l-8 -46h-172z" />
<glyph unicode="&#x111;" horiz-adv-x="610" d="M444 245q2 15 3.5 29t1.5 26q0 76 -38 111.5t-98 35.5q-162 0 -195 -204q-3 -20 -4.5 -35t-1.5 -29q0 -144 133 -144q36 0 68.5 12.5t58.5 38t45 65t27 94.5zM631 564h-82l-89 -564h-50l12 99q-32 -56 -82.5 -83t-112.5 -27q-84 0 -127 47t-43 138q0 31 6 67 q17 122 80.5 187t166.5 65q58 0 99 -25.5t57 -78.5l28 175h-162l6 38h162l16 98h55l-15 -98h80z" />
<glyph unicode="&#x112;" horiz-adv-x="643" d="M69 0zM69 0l111 700h480l-8 -49h-424l-43 -274h372l-8 -50h-372l-45 -278h435l-8 -49h-490zM561 859l-6 -39h-234l6 39h234z" />
<glyph unicode="&#x113;" horiz-adv-x="536" d="M57 0zM246 -11q-91 0 -140 45.5t-49 142.5q0 29 6 64q19 125 84.5 188.5t172.5 63.5q85 0 127 -47t42 -131q0 -40 -11 -90h-363q-2 -11 -2.5 -23t-0.5 -20q-3 -147 140 -147q56 0 97 20t70 68l38 -25q-35 -57 -86 -83t-125 -26zM314 448q-75 0 -123 -42.5t-68 -135.5h310 q3 22 3 47q0 67 -31 99t-91 32zM453 641l-6 -39h-234l6 39h234z" />
<glyph unicode="&#x114;" horiz-adv-x="643" d="M69 0zM69 0l111 700h480l-8 -49h-424l-43 -274h372l-8 -50h-372l-45 -278h435l-8 -49h-490zM532 897h44q-10 -65 -47 -89t-97 -24q-30 0 -53 5.5t-37.5 18.5t-20.5 35t-1 54h44q-8 -44 10.5 -60t60.5 -16t66 16t31 60z" />
<glyph unicode="&#x115;" horiz-adv-x="536" d="M57 0zM246 -11q-91 0 -140 45.5t-49 142.5q0 29 6 64q19 125 84.5 188.5t172.5 63.5q85 0 127 -47t42 -131q0 -40 -11 -90h-363q-2 -11 -2.5 -23t-0.5 -20q-3 -147 140 -147q56 0 97 20t70 68l38 -25q-35 -57 -86 -83t-125 -26zM314 448q-75 0 -123 -42.5t-68 -135.5h310 q3 22 3 47q0 67 -31 99t-91 32zM424 679h44q-10 -65 -47 -89t-97 -24q-30 0 -53 5.5t-37.5 18.5t-20.5 35t-1 54h44q-8 -44 10.5 -60t60.5 -16t66 16t31 60z" />
<glyph unicode="&#x116;" horiz-adv-x="643" d="M69 0zM69 0l111 700h480l-8 -49h-424l-43 -274h372l-8 -50h-372l-45 -278h435l-8 -49h-490zM436 798q-20 0 -29 9.5t-9 26.5q0 24 14 36t34 12q18 0 28.5 -10t10.5 -27q0 -22 -14 -34.5t-35 -12.5z" />
<glyph unicode="&#x117;" horiz-adv-x="536" d="M57 0zM246 -11q-91 0 -140 45.5t-49 142.5q0 29 6 64q19 125 84.5 188.5t172.5 63.5q85 0 127 -47t42 -131q0 -40 -11 -90h-363q-2 -11 -2.5 -23t-0.5 -20q-3 -147 140 -147q56 0 97 20t70 68l38 -25q-35 -57 -86 -83t-125 -26zM314 448q-75 0 -123 -42.5t-68 -135.5h310 q3 22 3 47q0 67 -31 99t-91 32zM328 580q-20 0 -29 9.5t-9 26.5q0 24 14 36t34 12q18 0 28.5 -10t10.5 -27q0 -22 -14 -34.5t-35 -12.5z" />
<glyph unicode="&#x118;" horiz-adv-x="643" d="M69 0l111 700h481l-8 -49h-423l-44 -274h371l-8 -50h-371l-43 -278h433l-8 -49q-21 -2 -39.5 -12t-33 -26t-23 -35.5t-8.5 -39.5q0 -30 16 -40.5t42 -10.5q33 0 62 17l6 -37q-35 -20 -76 -20q-18 0 -35 4t-30 13.5t-20.5 25.5t-7.5 40q0 42 21.5 73t49.5 48h-415z" />
<glyph unicode="&#x119;" horiz-adv-x="536" d="M284 -204q-18 0 -35 4t-30 13.5t-20.5 25.5t-7.5 40q0 35 16 63t39 47q-91 0 -140 45.5t-49 142.5q0 29 6 64q19 125 84.5 188.5t172.5 63.5q85 0 127 -47t42 -131q0 -40 -11 -90h-363q-2 -11 -2.5 -23t-0.5 -20q-3 -147 140 -147q56 0 97 20t70 68l38 -25 q-26 -41 -58.5 -65t-76.5 -35q-18 -5 -34 -16t-28 -26t-19 -33t-7 -36q0 -30 16.5 -40.5t41.5 -10.5q33 0 62 17l7 -37q-35 -20 -77 -20zM314 448q-76 0 -123.5 -42.5t-67.5 -135.5h310q3 24 3 47q0 67 -31 99t-91 32z" />
<glyph unicode="&#x11a;" horiz-adv-x="643" d="M69 0zM408 786l-100 110v2h60l68 -78l95 78h63v-2l-135 -110h-51zM69 0l111 700h480l-8 -49h-424l-43 -274h372l-8 -50h-372l-45 -278h435l-8 -49h-490z" />
<glyph unicode="&#x11b;" horiz-adv-x="535" d="M57 0zM301 568l-100 110v2h60l68 -78l95 78h63v-2l-135 -110h-51zM246 -11q-91 0 -140 45.5t-49 142.5q0 29 6 64q19 125 84.5 188.5t172.5 63.5q85 0 127 -47t42 -131q0 -40 -11 -90h-363q-2 -11 -2.5 -23t-0.5 -20q-3 -147 140 -147q56 0 97 20t70 68l38 -25 q-35 -57 -86 -83t-125 -26zM314 448q-75 0 -123 -42.5t-68 -135.5h310q3 22 3 47q0 67 -31 99t-91 32z" />
<glyph unicode="&#x11c;" horiz-adv-x="713" d="M80 0zM465 865l-96 -79h-62v2l135 110h51l99 -110v-2h-59zM326 -11q-119 0 -182.5 61.5t-63.5 196.5q0 24 2.5 51t6.5 53q14 97 43.5 165.5t73.5 111.5t102.5 63t131.5 20q92 0 146.5 -32.5t79.5 -102.5l-49 -28q-21 63 -66 89.5t-116 26.5q-56 0 -103 -15t-83.5 -51.5 t-63 -97t-40.5 -150.5q-9 -59 -9 -104q0 -59 14 -99t40 -64.5t63 -35.5t84 -11q42 0 82.5 12t75 41t59.5 77t37 119h-205l8 46h256l-53 -331h-46l17 127q-35 -69 -97.5 -103.5t-144.5 -34.5z" />
<glyph unicode="&#x11d;" horiz-adv-x="592" d="M14 0zM332 647l-96 -79h-62v2l135 110h51l99 -110v-2h-59zM441 250q2 14 3 27t1 25q0 76 -38 111t-99 35q-161 0 -191 -202q-6 -35 -6 -62q0 -141 132 -141q36 0 68 12t58 37t44.5 64.5t27.5 93.5zM532 482l-74 -473q-9 -56 -31.5 -97t-56.5 -68t-78 -40.5t-94 -13.5 q-66 0 -114 23.5t-70 86.5l43 29q18 -53 54.5 -73t90.5 -20q39 0 72 9t58.5 29t43 52t25.5 78l15 94q-33 -51 -81 -75.5t-108 -24.5q-83 0 -126.5 46.5t-43.5 137.5q0 14 1 30t4 34q19 119 79.5 183t159.5 64q63 0 106 -26t59 -80l20 95h46z" />
<glyph unicode="&#x11e;" horiz-adv-x="713" d="M80 0zM326 -11q-119 0 -182.5 61.5t-63.5 196.5q0 24 2.5 51t6.5 53q14 97 43.5 165.5t73.5 111.5t102.5 63t131.5 20q92 0 146.5 -32.5t79.5 -102.5l-49 -28q-21 63 -66 89.5t-116 26.5q-56 0 -103 -15t-83.5 -51.5t-63 -97t-40.5 -150.5q-9 -59 -9 -104q0 -59 14 -99 t40 -64.5t63 -35.5t84 -11q42 0 82.5 12t75 41t59.5 77t37 119h-205l8 46h256l-53 -331h-46l17 127q-35 -69 -97.5 -103.5t-144.5 -34.5zM551 897h44q-10 -65 -47 -89t-97 -24q-30 0 -53 5.5t-37.5 18.5t-20.5 35t-1 54h44q-8 -44 10.5 -60t60.5 -16t66 16t31 60z" />
<glyph unicode="&#x11f;" horiz-adv-x="592" d="M14 0zM441 250q2 14 3 27t1 25q0 76 -38 111t-99 35q-161 0 -191 -202q-6 -35 -6 -62q0 -141 132 -141q36 0 68 12t58 37t44.5 64.5t27.5 93.5zM532 482l-74 -473q-9 -56 -31.5 -97t-56.5 -68t-78 -40.5t-94 -13.5q-66 0 -114 23.5t-70 86.5l43 29q18 -53 54.5 -73 t90.5 -20q39 0 72 9t58.5 29t43 52t25.5 78l15 94q-33 -51 -81 -75.5t-108 -24.5q-83 0 -126.5 46.5t-43.5 137.5q0 14 1 30t4 34q19 119 79.5 183t159.5 64q63 0 106 -26t59 -80l20 95h46zM419 679h44q-10 -65 -47 -89t-97 -24q-30 0 -53 5.5t-37.5 18.5t-20.5 35t-1 54h44 q-8 -44 10.5 -60t60.5 -16t66 16t31 60z" />
<glyph unicode="&#x120;" horiz-adv-x="713" d="M80 0zM326 -11q-119 0 -182.5 61.5t-63.5 196.5q0 24 2.5 51t6.5 53q14 97 43.5 165.5t73.5 111.5t102.5 63t131.5 20q92 0 146.5 -32.5t79.5 -102.5l-49 -28q-21 63 -66 89.5t-116 26.5q-56 0 -103 -15t-83.5 -51.5t-63 -97t-40.5 -150.5q-9 -59 -9 -104q0 -59 14 -99 t40 -64.5t63 -35.5t84 -11q42 0 82.5 12t75 41t59.5 77t37 119h-205l8 46h256l-53 -331h-46l17 127q-35 -69 -97.5 -103.5t-144.5 -34.5zM456 798q-20 0 -29 9.5t-9 26.5q0 24 14 36t34 12q18 0 28.5 -10t10.5 -27q0 -22 -14 -34.5t-35 -12.5z" />
<glyph unicode="&#x121;" horiz-adv-x="592" d="M14 0zM441 250q2 14 3 27t1 25q0 76 -38 111t-99 35q-161 0 -191 -202q-6 -35 -6 -62q0 -141 132 -141q36 0 68 12t58 37t44.5 64.5t27.5 93.5zM532 482l-74 -473q-9 -56 -31.5 -97t-56.5 -68t-78 -40.5t-94 -13.5q-66 0 -114 23.5t-70 86.5l43 29q18 -53 54.5 -73 t90.5 -20q39 0 72 9t58.5 29t43 52t25.5 78l15 94q-33 -51 -81 -75.5t-108 -24.5q-83 0 -126.5 46.5t-43.5 137.5q0 14 1 30t4 34q19 119 79.5 183t159.5 64q63 0 106 -26t59 -80l20 95h46zM323 580q-20 0 -29 9.5t-9 26.5q0 24 14 36t34 12q18 0 28.5 -10t10.5 -27 q0 -22 -14 -34.5t-35 -12.5z" />
<glyph unicode="&#x122;" horiz-adv-x="713" d="M80 0zM277 -250l-6 25q21 9 36 29.5t20 47.5q-21 -4 -33 6.5t-12 28.5q0 23 12.5 34t31.5 11q18 0 28.5 -10t10.5 -35q0 -22 -6 -44t-17.5 -40.5t-27.5 -32.5t-37 -20zM326 -11q-119 0 -182.5 61.5t-63.5 196.5q0 24 2.5 51t6.5 53q14 97 43.5 165.5t73.5 111.5t102.5 63 t131.5 20q92 0 146.5 -32.5t79.5 -102.5l-49 -28q-21 63 -66 89.5t-116 26.5q-56 0 -103 -15t-83.5 -51.5t-63 -97t-40.5 -150.5q-9 -59 -9 -104q0 -59 14 -99t40 -64.5t63 -35.5t84 -11q42 0 82.5 12t75 41t59.5 77t37 119h-205l8 46h256l-53 -331h-46l17 127 q-35 -69 -97.5 -103.5t-144.5 -34.5z" />
<glyph unicode="&#x123;" horiz-adv-x="592" d="M372 754l6 -25q-21 -9 -36 -29.5t-20 -47.5q21 4 33 -6.5t12 -28.5q0 -23 -12.5 -34t-31.5 -11q-18 0 -28.5 10t-10.5 35q0 22 6 44t17.5 40.5t27.5 32.5t37 20zM441 250q2 14 3 27t1 25q0 76 -38 111t-99 35q-161 0 -191 -202q-6 -35 -6 -62q0 -141 132 -141q36 0 68 12 t58 37t44.5 64.5t27.5 93.5zM532 482l-74 -473q-9 -56 -31.5 -97t-56.5 -68t-78 -40.5t-94 -13.5q-66 0 -114 23.5t-70 86.5l43 29q18 -53 54.5 -73t90.5 -20q39 0 72 9t58.5 29t43 52t25.5 78l15 94q-33 -51 -81 -75.5t-108 -24.5q-83 0 -126.5 46.5t-43.5 137.5q0 14 1 30 t4 34q19 119 79.5 183t159.5 64q63 0 106 -26t59 -80l20 95h46z" />
<glyph unicode="&#x124;" horiz-adv-x="767" d="M69 0zM475 865l-96 -79h-62v2l135 110h51l99 -110v-2h-59zM555 0l52 327h-429l-52 -327h-57l111 700h57l-51 -323h428l52 323h56l-111 -700h-56z" />
<glyph unicode="&#x125;" horiz-adv-x="602" d="M58 0zM218 822l-96 -79h-62v2l135 110h51l99 -110v-2h-59zM224 700l-52 -330q35 64 89 93.5t117 29.5q75 0 112.5 -35.5t37.5 -104.5q0 -12 -1.5 -24.5t-3.5 -26.5l-47 -302h-55l46 293q4 23 4 46q0 57 -30 81.5t-84 24.5q-39 0 -72.5 -14t-60 -40.5t-44.5 -63t-27 -81.5 l-40 -246h-55l111 700h55z" />
<glyph unicode="&#x126;" horiz-adv-x="779" d="M192 377h428l18 114h-429zM85 531h75l27 169h56l-27 -169h429l27 169h57l-28 -169h80l-6 -40h-80l-77 -491h-57l52 327h-429l-52 -327h-56l77 491h-74z" />
<glyph unicode="&#x127;" horiz-adv-x="616" d="M79 564l6 38h82l16 98h55l-16 -98h162l-5 -38h-163l-32 -203q34 67 88 99.5t119 32.5q75 0 112.5 -35.5t37.5 -104.5q0 -12 -1 -24.5t-3 -26.5l-48 -302h-55l46 293q2 13 3 24t1 22q0 57 -30 81.5t-84 24.5q-78 0 -132 -54.5t-72 -144.5l-39 -246h-55l89 564h-82z" />
<glyph unicode="&#x128;" horiz-adv-x="282" d="M69 0zM69 0l111 700h57l-111 -700h-57zM329 887h42q-2 -26 -10.5 -43t-21 -26.5t-27 -13.5t-27.5 -4q-20 0 -35 7.5t-28 17t-25.5 17t-27.5 7.5q-34 0 -40 -45h-43q3 25 11.5 42t20.5 27t26 14t27 4q21 0 36 -7.5t28 -17t25.5 -17t27.5 -7.5q35 0 41 45z" />
<glyph unicode="&#x129;" horiz-adv-x="253" d="M41 0zM137 482h55l-75 -482h-55zM284 669h42q-2 -26 -10.5 -43t-21 -26.5t-27 -13.5t-27.5 -4q-20 0 -35 7.5t-28 17t-25.5 17t-27.5 7.5q-34 0 -40 -45h-43q3 25 11.5 42t20.5 27t26 14t27 4q21 0 36 -7.5t28 -17t25.5 -17t27.5 -7.5q35 0 41 45z" />
<glyph unicode="&#x12a;" horiz-adv-x="282" d="M69 0zM69 0l111 700h57l-111 -700h-57zM350 859l-6 -39h-234l6 39h234z" />
<glyph unicode="&#x12b;" horiz-adv-x="253" d="M62 0zM137 482h55l-75 -482h-55zM305 641l-6 -39h-234l6 39h234z" />
<glyph unicode="&#x12c;" horiz-adv-x="282" d="M69 0zM69 0l111 700h57l-111 -700h-57zM322 897h44q-10 -65 -47 -89t-97 -24q-30 0 -53 5.5t-37.5 18.5t-20.5 35t-1 54h44q-8 -44 10.5 -60t60.5 -16t66 16t31 60z" />
<glyph unicode="&#x12d;" horiz-adv-x="253" d="M59 0zM137 482h55l-75 -482h-55zM276 679h44q-10 -65 -47 -89t-97 -24q-30 0 -53 5.5t-37.5 18.5t-20.5 35t-1 54h44q-8 -44 10.5 -60t60.5 -16t66 16t31 60z" />
<glyph unicode="&#x12e;" horiz-adv-x="282" d="M46 -204q-18 0 -35 4t-29.5 13.5t-20.5 25.5t-8 40q0 29 11.5 53.5t29 43t38.5 30t41 16.5l107 678h57l-111 -700h-26q-20 -2 -39 -12t-33.5 -26t-23 -35.5t-8.5 -39.5q0 -30 16.5 -40.5t42.5 -10.5q32 0 61 17l8 -37q-37 -20 -78 -20z" />
<glyph unicode="&#x12f;" horiz-adv-x="253" d="M181 580q-19 0 -29 9.5t-10 26.5q0 24 14 36.5t34 12.5q39 0 39 -37q0 -23 -13.5 -35.5t-34.5 -12.5zM36 -204q-18 0 -35 4t-29.5 13.5t-20.5 25.5t-8 40q0 30 11.5 54.5t29.5 42.5t39.5 30t41.5 17l72 459h55l-75 -482h-26q-20 -2 -39 -12t-33.5 -25.5t-23.5 -35 t-9 -40.5q0 -30 16.5 -40.5t42.5 -10.5q32 0 61 17l8 -37q-37 -20 -78 -20z" />
<glyph unicode="&#x130;" horiz-adv-x="282" d="M69 0zM69 0l111 700h57l-111 -700h-57zM225 798q-20 0 -29 9.5t-9 26.5q0 24 14 36t34 12q18 0 28.5 -10t10.5 -27q0 -22 -14 -34.5t-35 -12.5z" />
<glyph unicode="&#x131;" horiz-adv-x="253" d="M137 482h55l-75 -482h-55z" />
<glyph unicode="&#x132;" horiz-adv-x="775" d="M69 0zM69 0l111 700h57l-111 -700h-57zM267 33l32 45q46 -41 116 -41q39 0 72.5 12.5t60.5 39t46 68.5t28 101l70 442h56l-70 -442q-12 -76 -36.5 -127.5t-59.5 -83t-79.5 -45t-96.5 -13.5q-40 0 -75.5 10.5t-63.5 33.5z" />
<glyph unicode="&#x133;" horiz-adv-x="506" d="M62 0zM181 580q-19 0 -29 9.5t-10 26.5q0 24 14 36.5t34 12.5q39 0 39 -37q0 -23 -13.5 -35.5t-34.5 -12.5zM137 482h55l-75 -482h-55zM434 580q-19 0 -29 9.5t-10 26.5q0 24 14 36.5t34 12.5q39 0 39 -37q0 -23 -13.5 -35.5t-34.5 -12.5zM307 -46l83 528h55l-84 -535 q-13 -83 -52.5 -120t-98.5 -37q-19 0 -35.5 2.5t-36.5 10.5l17 47q14 -6 26.5 -9t30.5 -3q37 0 60.5 25t34.5 91z" />
<glyph unicode="&#x134;" horiz-adv-x="493" d="M0 0zM464 865l-96 -79h-62v2l135 110h51l99 -110v-2h-59zM-15 33l32 45q46 -41 116 -41q39 0 72.5 12.5t60.5 39t46 68.5t28 101l70 442h56l-70 -442q-12 -76 -36.5 -127.5t-59.5 -83t-79.5 -45t-96.5 -13.5q-40 0 -75.5 10.5t-63.5 33.5z" />
<glyph unicode="&#x135;" horiz-adv-x="252" d="M0 0zM54 -46l83 528h55l-84 -535q-13 -83 -52.5 -120t-98.5 -37q-19 0 -35.5 2.5t-36.5 10.5l17 47q14 -6 26.5 -9t30.5 -3q37 0 60.5 25t34.5 91zM189 647l-96 -79h-62v2l135 110h51l99 -110v-2h-59z" />
<glyph unicode="&#x136;" horiz-adv-x="614" d="M69 0zM245 -250l-6 25q21 9 36 29.5t20 47.5q-21 -4 -33 6.5t-12 28.5q0 23 12.5 34t31.5 11q18 0 28.5 -10t10.5 -35q0 -22 -6 -44t-17.5 -40.5t-27.5 -32.5t-37 -20zM69 0l111 700h57l-66 -415l415 415h69l-317 -316l223 -384h-67l-198 343l-137 -135l-33 -208h-57z " />
<glyph unicode="&#x137;" horiz-adv-x="501" d="M58 0zM181 -250l-6 25q21 9 36 29.5t20 47.5q-21 -4 -33 6.5t-12 28.5q0 23 12.5 34t31.5 11q18 0 28.5 -10t10.5 -35q0 -22 -6 -44t-17.5 -40.5t-27.5 -32.5t-37 -20zM225 700l-81 -504l304 286h67l-229 -213l162 -269h-64l-139 231l-112 -104l-19 -127h-56l111 700h56z " />
<glyph unicode="&#x138;" horiz-adv-x="505" d="M190 482l-45 -285l303 285h67l-229 -214l162 -268h-64l-139 231l-110 -101l-21 -130h-56l77 482h55z" />
<glyph unicode="&#x139;" horiz-adv-x="604" d="M69 0zM291 898h74l-1 -5l-121 -107h-49v3zM133 49h413l-8 -49h-469l111 700h56z" />
<glyph unicode="&#x13a;" horiz-adv-x="245" d="M61 0zM278 899h74l-1 -5l-121 -107h-49v3zM155 0q-48 0 -71 23.5t-14 78.5l94 598h54l-93 -591q-6 -36 5 -49.5t45 -13.5h34l-7 -46h-47z" />
<glyph unicode="&#x13b;" horiz-adv-x="604" d="M69 0zM249 -250l-6 25q21 9 36 29.5t20 47.5q-21 -4 -33 6.5t-12 28.5q0 23 12.5 34t31.5 11q18 0 28.5 -10t10.5 -35q0 -22 -6 -44t-17.5 -40.5t-27.5 -32.5t-37 -20zM133 49h413l-8 -49h-469l111 700h56z" />
<glyph unicode="&#x13c;" horiz-adv-x="245" d="M56 0zM155 0q-48 0 -71 23.5t-14 78.5l94 598h54l-93 -591q-6 -36 5 -49.5t45 -13.5h34l-7 -46h-47zM62 -250l-6 25q21 9 36 29.5t20 47.5q-21 -4 -33 6.5t-12 28.5q0 23 12.5 34t31.5 11q18 0 28.5 -10t10.5 -35q0 -22 -6 -44t-17.5 -40.5t-27.5 -32.5t-37 -20z" />
<glyph unicode="&#x13d;" horiz-adv-x="604" d="M69 0zM462 499h-39l38 201h59zM133 49h413l-8 -49h-469l111 700h56z" />
<glyph unicode="&#x13e;" horiz-adv-x="296" d="M61 0zM322 499h-39l38 201h59zM155 0q-48 0 -71 23.5t-14 78.5l94 598h54l-93 -591q-6 -36 5 -49.5t45 -13.5h34l-7 -46h-47z" />
<glyph unicode="&#x13f;" horiz-adv-x="604" d="M69 0zM133 49h413l-8 -49h-469l111 700h56zM431 313q-20 0 -29 9.5t-9 26.5q0 24 14 36t34 12q18 0 28.5 -10t10.5 -27q0 -22 -14 -34.5t-35 -12.5z" />
<glyph unicode="&#x140;" horiz-adv-x="331" d="M61 0zM155 0q-48 0 -71 23.5t-14 78.5l94 598h54l-93 -591q-6 -36 5 -49.5t45 -13.5h34l-7 -46h-47zM290 259q-20 0 -29 9.5t-9 26.5q0 24 14 36t34 12q18 0 28.5 -10t10.5 -27q0 -22 -14 -34.5t-35 -12.5z" />
<glyph unicode="&#x141;" horiz-adv-x="620" d="M151 49h412l-8 -49h-470l45 281l-119 -74l9 54l118 74l58 365h57l-51 -327l190 118l-9 -54l-190 -118z" />
<glyph unicode="&#x142;" horiz-adv-x="280" d="M222 0h-47q-48 0 -71 23.5t-14 78.5l30 190l-1 -1l-114 -90l9 55l114 90l56 354h54l-49 -311l1 1l127 101l-9 -55l-127 -101l-36 -226q-6 -36 5 -49.5t45 -13.5h34z" />
<glyph unicode="&#x143;" horiz-adv-x="758" d="M69 0zM529 898h74l-1 -5l-121 -107h-49v3zM543 0l-323 620l-96 -620h-55l111 700h59l322 -618l97 618h55l-111 -700h-59z" />
<glyph unicode="&#x144;" horiz-adv-x="603" d="M58 0zM421 680h74l-1 -5l-121 -107h-49v3zM58 0l77 482h48l-11 -107q35 61 89 89.5t117 28.5q75 0 112.5 -35.5t37.5 -104.5q0 -12 -1 -24.5t-3 -26.5l-48 -302h-55l47 293q2 12 3 23.5t1 21.5q0 57 -30.5 82t-84.5 25q-39 0 -72.5 -14t-59.5 -39.5t-44.5 -61.5 t-27.5 -80l-40 -250h-55z" />
<glyph unicode="&#x145;" horiz-adv-x="758" d="M69 0zM283 -250l-6 25q21 9 36 29.5t20 47.5q-21 -4 -33 6.5t-12 28.5q0 23 12.5 34t31.5 11q18 0 28.5 -10t10.5 -35q0 -22 -6 -44t-17.5 -40.5t-27.5 -32.5t-37 -20zM543 0l-323 620l-96 -620h-55l111 700h59l322 -618l97 618h55l-111 -700h-59z" />
<glyph unicode="&#x146;" horiz-adv-x="603" d="M58 0zM213 -250l-6 25q21 9 36 29.5t20 47.5q-21 -4 -33 6.5t-12 28.5q0 23 12.5 34t31.5 11q18 0 28.5 -10t10.5 -35q0 -22 -6 -44t-17.5 -40.5t-27.5 -32.5t-37 -20zM58 0l77 482h48l-11 -107q35 61 89 89.5t117 28.5q75 0 112.5 -35.5t37.5 -104.5q0 -12 -1 -24.5 t-3 -26.5l-48 -302h-55l47 293q2 12 3 23.5t1 21.5q0 57 -30.5 82t-84.5 25q-39 0 -72.5 -14t-59.5 -39.5t-44.5 -61.5t-27.5 -80l-40 -250h-55z" />
<glyph unicode="&#x147;" horiz-adv-x="758" d="M69 0zM435 786l-100 110v2h60l68 -78l95 78h63v-2l-135 -110h-51zM543 0l-323 620l-96 -620h-55l111 700h59l322 -618l97 618h55l-111 -700h-59z" />
<glyph unicode="&#x148;" horiz-adv-x="603" d="M58 0zM327 568l-100 110v2h60l68 -78l95 78h63v-2l-135 -110h-51zM58 0l77 482h48l-11 -107q35 61 89 89.5t117 28.5q75 0 112.5 -35.5t37.5 -104.5q0 -12 -1 -24.5t-3 -26.5l-48 -302h-55l47 293q2 12 3 23.5t1 21.5q0 57 -30.5 82t-84.5 25q-39 0 -72.5 -14 t-59.5 -39.5t-44.5 -61.5t-27.5 -80l-40 -250h-55z" />
<glyph unicode="&#x14a;" horiz-adv-x="758" d="M540 -46l6 44l-325 619l-96 -617h-56l111 700h59l322 -617l97 617h56l-120 -753q-13 -84 -52.5 -120.5t-98.5 -36.5q-19 0 -35 2.5t-36 10.5l17 47q14 -6 26 -9t31 -3q37 0 60 25.5t34 90.5z" />
<glyph unicode="&#x14b;" horiz-adv-x="603" d="M414 -44l54 337q2 12 3 23.5t1 21.5q0 57 -30.5 82t-84.5 25q-39 0 -72.5 -14t-59.5 -39.5t-44.5 -61.5t-27.5 -80l-39 -250h-56l77 482h48l-11 -107q32 57 86 87.5t120 30.5q75 0 112.5 -35.5t37.5 -104.5q0 -12 -1 -24.5t-3 -26.5l-56 -355q-14 -84 -53 -120.5 t-98 -36.5q-19 0 -35.5 2.5t-35.5 10.5l16 47q14 -6 26.5 -9t31.5 -3q36 0 59.5 26t34.5 92z" />
<glyph unicode="&#x14c;" horiz-adv-x="753" d="M80 0zM583 859l-6 -39h-234l6 39h234zM89 350q14 97 43.5 166t73.5 112t103 63t133 20q127 0 191.5 -58.5t64.5 -191.5q0 -26 -2 -52.5t-7 -58.5q-15 -98 -44.5 -166.5t-74 -111.5t-103 -63t-131.5 -20q-125 0 -190.5 59.5t-65.5 193.5q0 48 9 108zM641 457 q0 58 -13.5 97.5t-39.5 63.5t-64 34.5t-87 10.5q-57 0 -104.5 -15t-84.5 -51t-62.5 -96.5t-39.5 -150.5q-5 -29 -7.5 -55.5t-2.5 -52.5q0 -57 13.5 -96t40 -63.5t64 -35t85.5 -10.5q57 0 104.5 15t84.5 51.5t63 97t41 150.5q5 29 7 54.5t2 51.5z" />
<glyph unicode="&#x14d;" horiz-adv-x="571" d="M57 0zM463 641l-6 -39h-234l6 39h234zM63 241q19 130 85.5 191t174.5 61q95 0 143.5 -44.5t48.5 -138.5q0 -32 -6 -69q-19 -129 -84.5 -190.5t-175.5 -61.5q-94 0 -143 44.5t-49 140.5q0 31 6 67zM454 240q6 37 6 67q0 74 -35 107t-107 33q-87 0 -135 -49t-65 -158 q-6 -38 -6 -67q0 -73 34.5 -105.5t106.5 -32.5q85 0 134.5 48.5t66.5 156.5z" />
<glyph unicode="&#x14e;" horiz-adv-x="753" d="M80 0zM89 350q14 97 43.5 166t73.5 112t103 63t133 20q127 0 191.5 -58.5t64.5 -191.5q0 -26 -2 -52.5t-7 -58.5q-15 -98 -44.5 -166.5t-74 -111.5t-103 -63t-131.5 -20q-125 0 -190.5 59.5t-65.5 193.5q0 48 9 108zM641 457q0 58 -13.5 97.5t-39.5 63.5t-64 34.5 t-87 10.5q-57 0 -104.5 -15t-84.5 -51t-62.5 -96.5t-39.5 -150.5q-5 -29 -7.5 -55.5t-2.5 -52.5q0 -57 13.5 -96t40 -63.5t64 -35t85.5 -10.5q57 0 104.5 15t84.5 51.5t63 97t41 150.5q5 29 7 54.5t2 51.5zM554 897h44q-10 -65 -47 -89t-97 -24q-30 0 -53 5.5t-37.5 18.5 t-20.5 35t-1 54h44q-8 -44 10.5 -60t60.5 -16t66 16t31 60z" />
<glyph unicode="&#x14f;" horiz-adv-x="571" d="M57 0zM63 241q19 130 85.5 191t174.5 61q95 0 143.5 -44.5t48.5 -138.5q0 -32 -6 -69q-19 -129 -84.5 -190.5t-175.5 -61.5q-94 0 -143 44.5t-49 140.5q0 31 6 67zM454 240q6 37 6 67q0 74 -35 107t-107 33q-87 0 -135 -49t-65 -158q-6 -38 -6 -67q0 -73 34.5 -105.5 t106.5 -32.5q85 0 134.5 48.5t66.5 156.5zM433 679h44q-10 -65 -47 -89t-97 -24q-30 0 -53 5.5t-37.5 18.5t-20.5 35t-1 54h44q-8 -44 10.5 -60t60.5 -16t66 16t31 60z" />
<glyph unicode="&#x150;" horiz-adv-x="753" d="M80 0zM579 898h73l-1 -5l-125 -107h-44v3zM457 898h69l-1 -5l-111 -107h-44v3zM89 350q14 97 43.5 166t73.5 112t103 63t133 20q127 0 191.5 -58.5t64.5 -191.5q0 -26 -2 -52.5t-7 -58.5q-15 -98 -44.5 -166.5t-74 -111.5t-103 -63t-131.5 -20q-125 0 -190.5 59.5 t-65.5 193.5q0 48 9 108zM641 457q0 58 -13.5 97.5t-39.5 63.5t-64 34.5t-87 10.5q-57 0 -104.5 -15t-84.5 -51t-62.5 -96.5t-39.5 -150.5q-5 -29 -7.5 -55.5t-2.5 -52.5q0 -57 13.5 -96t40 -63.5t64 -35t85.5 -10.5q57 0 104.5 15t84.5 51.5t63 97t41 150.5q5 29 7 54.5 t2 51.5z" />
<glyph unicode="&#x151;" horiz-adv-x="571" d="M57 0zM458 680h73l-1 -5l-125 -107h-44v3zM336 680h69l-1 -5l-111 -107h-44v3zM63 241q19 130 85.5 191t174.5 61q95 0 143.5 -44.5t48.5 -138.5q0 -32 -6 -69q-19 -129 -84.5 -190.5t-175.5 -61.5q-94 0 -143 44.5t-49 140.5q0 31 6 67zM454 240q6 37 6 67q0 74 -35 107 t-107 33q-87 0 -135 -49t-65 -158q-6 -38 -6 -67q0 -73 34.5 -105.5t106.5 -32.5q85 0 134.5 48.5t66.5 156.5z" />
<glyph unicode="&#x152;" horiz-adv-x="1083" d="M426 700h675l-8 -49h-420l-43 -274h368l-8 -50h-368l-43 -278h429l-8 -49h-675q-121 0 -183 57.5t-62 186.5q0 46 9 100q26 187 111 271.5t226 84.5zM137 249q0 -108 50.5 -154t139.5 -46h194l95 602h-191q-54 0 -99.5 -15.5t-81 -51.5t-61 -94t-38.5 -143 q-4 -24 -6 -50.5t-2 -47.5z" />
<glyph unicode="&#x153;" horiz-adv-x="929" d="M639 -11q-70 0 -116 28t-63 86q-66 -114 -211 -114q-95 0 -143.5 46t-48.5 140q0 15 1.5 31.5t3.5 33.5q39 253 260 253q148 0 179 -117q67 117 212 117q86 0 127.5 -47t41.5 -131q0 -21 -2.5 -43.5t-7.5 -46.5h-364q-2 -12 -2 -24v-19q-3 -147 139 -147q57 0 98 20 t70 69l38 -24q-35 -58 -87 -84.5t-125 -26.5zM454 240q6 34 6 65q0 143 -141 143q-88 0 -136.5 -51t-65.5 -157q-6 -35 -6 -65q0 -140 142 -140q86 0 135 49.5t66 155.5zM707 448q-75 0 -123.5 -43t-67.5 -135h310q3 22 3 47q0 131 -122 131z" />
<glyph unicode="&#x154;" horiz-adv-x="651" d="M69 0zM497 898h74l-1 -5l-121 -107h-49v3zM436 651h-207l-51 -323h211q40 0 75 12.5t61 38t41 64t15 90.5q0 60 -35 89t-110 29zM398 278h-228l-44 -278h-57l111 700h258q104 0 152.5 -40.5t48.5 -118.5q0 -96 -46 -164t-136 -90l109 -287h-63z" />
<glyph unicode="&#x155;" horiz-adv-x="350" d="M58 0zM321 680h74l-1 -5l-121 -107h-49v3zM58 0l77 482h48l-11 -115q33 63 86 93.5t113 27.5l-9 -54q-80 5 -134.5 -44.5t-75.5 -146.5l-39 -243h-55z" />
<glyph unicode="&#x156;" horiz-adv-x="651" d="M69 0zM244 -250l-6 25q21 9 36 29.5t20 47.5q-21 -4 -33 6.5t-12 28.5q0 23 12.5 34t31.5 11q18 0 28.5 -10t10.5 -35q0 -22 -6 -44t-17.5 -40.5t-27.5 -32.5t-37 -20zM436 651h-207l-51 -323h211q40 0 75 12.5t61 38t41 64t15 90.5q0 60 -35 89t-110 29zM398 278h-228 l-44 -278h-57l111 700h258q104 0 152.5 -40.5t48.5 -118.5q0 -96 -46 -164t-136 -90l109 -287h-63z" />
<glyph unicode="&#x157;" horiz-adv-x="351" d="M26 0zM32 -250l-6 25q21 9 36 29.5t20 47.5q-21 -4 -33 6.5t-12 28.5q0 23 12.5 34t31.5 11q18 0 28.5 -10t10.5 -35q0 -22 -6 -44t-17.5 -40.5t-27.5 -32.5t-37 -20zM60 0l77 482h48l-11 -115q33 63 86 93.5t113 27.5l-9 -54q-80 5 -134.5 -44.5t-75.5 -146.5l-39 -243 h-55z" />
<glyph unicode="&#x158;" horiz-adv-x="651" d="M69 0zM402 786l-100 110v2h60l68 -78l95 78h63v-2l-135 -110h-51zM436 651h-207l-51 -323h211q40 0 75 12.5t61 38t41 64t15 90.5q0 60 -35 89t-110 29zM398 278h-228l-44 -278h-57l111 700h258q104 0 152.5 -40.5t48.5 -118.5q0 -96 -46 -164t-136 -90l109 -287h-63z " />
<glyph unicode="&#x159;" horiz-adv-x="348" d="M58 0zM238 568l-100 110v2h60l68 -78l95 78h63v-2l-135 -110h-51zM58 0l77 482h48l-11 -115q33 63 86 93.5t113 27.5l-9 -54q-80 5 -134.5 -44.5t-75.5 -146.5l-39 -243h-55z" />
<glyph unicode="&#x15a;" horiz-adv-x="602" d="M21 0zM439 898h74l-1 -5l-121 -107h-49v3zM572 586l-50 -28q-11 26 -26 46t-35.5 33.5t-48.5 20.5t-65 7q-92 0 -141.5 -41.5t-49.5 -104.5q0 -47 30.5 -77.5t102.5 -50.5l59 -16q50 -14 85 -31t56.5 -39t31.5 -50t10 -63q0 -44 -16.5 -81t-49.5 -64t-82 -42.5 t-114 -15.5q-92 0 -153 32t-95 103l48 29q15 -32 33.5 -54t42.5 -36t54.5 -20.5t69.5 -6.5q103 0 154 41t51 110q0 25 -6.5 45.5t-22.5 37t-43 29.5t-67 24l-60 16q-93 25 -134 67t-41 110q0 42 17 77.5t49.5 62t79.5 41t107 14.5q45 0 79.5 -8t60.5 -24t45.5 -39t33.5 -54z " />
<glyph unicode="&#x15b;" horiz-adv-x="498" d="M34 0zM363 680h74l-1 -5l-121 -107h-49v3zM228 33q70 0 102 27.5t32 69.5q0 31 -21 50.5t-75 32.5l-47 11q-66 15 -96.5 48t-30.5 80q0 63 47.5 102t135.5 39q62 0 100 -19.5t66 -59.5l-40 -31q-24 34 -53.5 50t-76.5 16q-63 0 -94.5 -25.5t-31.5 -66.5q0 -29 18.5 -50 t67.5 -33l48 -12q77 -20 107 -51t30 -77q0 -63 -47.5 -104t-146.5 -41q-67 0 -113 23.5t-75 76.5l43 26q23 -45 59.5 -63.5t91.5 -18.5z" />
<glyph unicode="&#x15c;" horiz-adv-x="602" d="M21 0zM380 865l-96 -79h-62v2l135 110h51l99 -110v-2h-59zM572 586l-50 -28q-11 26 -26 46t-35.5 33.5t-48.5 20.5t-65 7q-92 0 -141.5 -41.5t-49.5 -104.5q0 -47 30.5 -77.5t102.5 -50.5l59 -16q50 -14 85 -31t56.5 -39t31.5 -50t10 -63q0 -44 -16.5 -81t-49.5 -64 t-82 -42.5t-114 -15.5q-92 0 -153 32t-95 103l48 29q15 -32 33.5 -54t42.5 -36t54.5 -20.5t69.5 -6.5q103 0 154 41t51 110q0 25 -6.5 45.5t-22.5 37t-43 29.5t-67 24l-60 16q-93 25 -134 67t-41 110q0 42 17 77.5t49.5 62t79.5 41t107 14.5q45 0 79.5 -8t60.5 -24t45.5 -39 t33.5 -54z" />
<glyph unicode="&#x15d;" horiz-adv-x="498" d="M34 0zM305 647l-96 -79h-62v2l135 110h51l99 -110v-2h-59zM228 33q70 0 102 27.5t32 69.5q0 31 -21 50.5t-75 32.5l-47 11q-66 15 -96.5 48t-30.5 80q0 63 47.5 102t135.5 39q62 0 100 -19.5t66 -59.5l-40 -31q-24 34 -53.5 50t-76.5 16q-63 0 -94.5 -25.5t-31.5 -66.5 q0 -29 18.5 -50t67.5 -33l48 -12q77 -20 107 -51t30 -77q0 -63 -47.5 -104t-146.5 -41q-67 0 -113 23.5t-75 76.5l43 26q23 -45 59.5 -63.5t91.5 -18.5z" />
<glyph unicode="&#x15e;" horiz-adv-x="602" d="M219 -226q-35 0 -60 13t-38 42l32 25q11 -23 26 -34t44 -11q32 0 50 12.5t18 38.5t-21.5 35t-50.5 5l-11 9l30 81q-79 5 -132.5 37t-84.5 97l48 29q15 -32 33.5 -54t42.5 -36t54.5 -20.5t69.5 -6.5q103 0 154 41t51 110q0 25 -6.5 45.5t-22.5 37t-43 29.5t-67 24l-60 16 q-93 25 -134 67t-41 110q0 42 17 77.5t49.5 62t79.5 41t107 14.5q45 0 79.5 -8t60.5 -24t45.5 -39t33.5 -54l-50 -28q-11 26 -26 46t-35.5 33.5t-48.5 20.5t-65 7q-92 0 -141.5 -41.5t-49.5 -104.5q0 -47 30.5 -77.5t102.5 -50.5l59 -16q50 -14 85 -31t56.5 -39t31.5 -50 t10 -63q0 -43 -15.5 -79.5t-47 -63.5t-78.5 -43t-110 -17l-26 -61q32 2 55.5 -14.5t23.5 -51.5q0 -45 -33 -66.5t-81 -21.5z" />
<glyph unicode="&#x15f;" horiz-adv-x="498" d="M180 -226q-35 0 -60 13t-38 42l32 25q11 -23 26 -34t44 -11q32 0 50 12.5t18 38.5t-21.5 35t-50.5 5l-11 9l30 81q-57 4 -98 27.5t-67 71.5l43 26q23 -45 59.5 -63.5t91.5 -18.5q70 0 102 27.5t32 69.5q0 31 -21 50.5t-75 32.5l-47 11q-66 15 -96.5 48t-30.5 80 q0 63 47.5 102t135.5 39q62 0 100 -19.5t66 -59.5l-40 -31q-24 34 -53.5 50t-76.5 16q-63 0 -94.5 -25.5t-31.5 -66.5q0 -29 18.5 -50t67.5 -33l48 -12q77 -20 107 -51t30 -77q0 -60 -43 -100t-131 -45l-27 -61q32 2 55.5 -14.5t23.5 -51.5q0 -45 -33 -66.5t-81 -21.5z" />
<glyph unicode="&#x160;" horiz-adv-x="602" d="M21 0zM344 786l-100 110v2h60l68 -78l95 78h63v-2l-135 -110h-51zM572 586l-50 -28q-11 26 -26 46t-35.5 33.5t-48.5 20.5t-65 7q-92 0 -141.5 -41.5t-49.5 -104.5q0 -47 30.5 -77.5t102.5 -50.5l59 -16q50 -14 85 -31t56.5 -39t31.5 -50t10 -63q0 -44 -16.5 -81 t-49.5 -64t-82 -42.5t-114 -15.5q-92 0 -153 32t-95 103l48 29q15 -32 33.5 -54t42.5 -36t54.5 -20.5t69.5 -6.5q103 0 154 41t51 110q0 25 -6.5 45.5t-22.5 37t-43 29.5t-67 24l-60 16q-93 25 -134 67t-41 110q0 42 17 77.5t49.5 62t79.5 41t107 14.5q45 0 79.5 -8 t60.5 -24t45.5 -39t33.5 -54z" />
<glyph unicode="&#x161;" horiz-adv-x="498" d="M34 0zM268 568l-100 110v2h60l68 -78l95 78h63v-2l-135 -110h-51zM228 33q70 0 102 27.5t32 69.5q0 31 -21 50.5t-75 32.5l-47 11q-66 15 -96.5 48t-30.5 80q0 63 47.5 102t135.5 39q62 0 100 -19.5t66 -59.5l-40 -31q-24 34 -53.5 50t-76.5 16q-63 0 -94.5 -25.5 t-31.5 -66.5q0 -29 18.5 -50t67.5 -33l48 -12q77 -20 107 -51t30 -77q0 -63 -47.5 -104t-146.5 -41q-67 0 -113 23.5t-75 76.5l43 26q23 -45 59.5 -63.5t91.5 -18.5z" />
<glyph unicode="&#x162;" horiz-adv-x="553" d="M68 0zM178 -250l-6 25q21 9 36 29.5t20 47.5q-21 -4 -33 6.5t-12 28.5q0 23 12.5 34t31.5 11q18 0 28.5 -10t10.5 -35q0 -22 -6 -44t-17.5 -40.5t-27.5 -32.5t-37 -20zM77 700h528l-8 -49h-236l-103 -651h-56l103 651h-237z" />
<glyph unicode="&#x163;" horiz-adv-x="354" d="M56 0zM157 -250l-6 25q21 9 36 29.5t20 47.5q-21 -4 -33 6.5t-12 28.5q0 23 12.5 34t31.5 11q18 0 28.5 -10t10.5 -35q0 -22 -6 -44t-17.5 -40.5t-27.5 -32.5t-37 -20zM359 482l-7 -44h-153l-42 -269q-12 -72 5.5 -101.5t68.5 -29.5q20 0 34 3t30 8l2 -46 q-26 -8 -42.5 -10.5t-32.5 -2.5q-61 0 -93 27.5t-32 89.5q0 14 1.5 29t3.5 29l44 273h-90l6 44h91l22 146h54l-23 -146h153z" />
<glyph unicode="&#x164;" horiz-adv-x="553" d="M68 0zM329 786l-100 110v2h60l68 -78l95 78h63v-2l-135 -110h-51zM77 700h528l-8 -49h-236l-103 -651h-56l103 651h-237z" />
<glyph unicode="&#x165;" horiz-adv-x="354" d="M327 554h-38l36 181h56zM359 482l-7 -44h-153l-42 -269q-12 -72 5.5 -101.5t68.5 -29.5q20 0 34 3t30 8l2 -46q-26 -8 -42.5 -10.5t-32.5 -2.5q-61 0 -93 27.5t-32 89.5q0 14 1.5 29t3.5 29l44 273h-90l6 44h91l22 146h54l-23 -146h153z" />
<glyph unicode="&#x166;" horiz-adv-x="553" d="M70 371h190l45 280h-236l8 49h528l-8 -49h-235l-45 -280h189l-6 -40h-189l-52 -331h-57l52 331h-190z" />
<glyph unicode="&#x167;" horiz-adv-x="354" d="M38 325h90l18 113h-90l6 44h91l22 146h54l-23 -146h153l-7 -44h-153l-18 -113h152l-5 -39h-153l-18 -117q-12 -72 5.5 -101.5t68.5 -29.5q20 0 34 3t30 8l2 -46q-26 -8 -42.5 -10.5t-32.5 -2.5q-61 0 -93 27.5t-32 89.5q0 14 1.5 29t3.5 29l19 121h-90z" />
<glyph unicode="&#x168;" horiz-adv-x="728" d="M86 0zM576 266l69 434h56l-68 -433q-23 -142 -103.5 -210t-206.5 -68q-114 0 -175.5 52t-61.5 160q0 31 6 66l69 433h56l-69 -433q-3 -17 -4 -31.5t-1 -29.5q0 -86 46 -127.5t136 -41.5q49 0 91 12.5t74 40t54 71t32 105.5zM551 887h42q-2 -26 -10.5 -43t-21 -26.5 t-27 -13.5t-27.5 -4q-20 0 -35 7.5t-28 17t-25.5 17t-27.5 7.5q-34 0 -40 -45h-43q3 25 11.5 42t20.5 27t26 14t27 4q21 0 36 -7.5t28 -17t25.5 -17t27.5 -7.5q35 0 41 45z" />
<glyph unicode="&#x169;" horiz-adv-x="602" d="M76 0zM230 -11q-78 0 -116 38t-38 110q0 26 4 49l47 296h55l-46 -287q-2 -13 -2.5 -24.5t-0.5 -22.5q0 -60 29.5 -86t83.5 -26q81 0 131.5 50t68.5 136l42 260h55l-77 -482h-48l11 100q-35 -57 -87 -84t-112 -27zM458 669h42q-2 -26 -10.5 -43t-21 -26.5t-27 -13.5 t-27.5 -4q-20 0 -35 7.5t-28 17t-25.5 17t-27.5 7.5q-34 0 -40 -45h-43q3 25 11.5 42t20.5 27t26 14t27 4q21 0 36 -7.5t28 -17t25.5 -17t27.5 -7.5q35 0 41 45z" />
<glyph unicode="&#x16a;" horiz-adv-x="728" d="M86 0zM576 266l69 434h56l-68 -433q-23 -142 -103.5 -210t-206.5 -68q-114 0 -175.5 52t-61.5 160q0 31 6 66l69 433h56l-69 -433q-3 -17 -4 -31.5t-1 -29.5q0 -86 46 -127.5t136 -41.5q49 0 91 12.5t74 40t54 71t32 105.5zM572 859l-6 -39h-234l6 39h234z" />
<glyph unicode="&#x16b;" horiz-adv-x="602" d="M76 0zM230 -11q-78 0 -116 38t-38 110q0 26 4 49l47 296h55l-46 -287q-2 -13 -2.5 -24.5t-0.5 -22.5q0 -60 29.5 -86t83.5 -26q81 0 131.5 50t68.5 136l42 260h55l-77 -482h-48l11 100q-35 -57 -87 -84t-112 -27zM479 641l-6 -39h-234l6 39h234z" />
<glyph unicode="&#x16c;" horiz-adv-x="728" d="M86 0zM576 266l69 434h56l-68 -433q-23 -142 -103.5 -210t-206.5 -68q-114 0 -175.5 52t-61.5 160q0 31 6 66l69 433h56l-69 -433q-3 -17 -4 -31.5t-1 -29.5q0 -86 46 -127.5t136 -41.5q49 0 91 12.5t74 40t54 71t32 105.5zM543 897h44q-10 -65 -47 -89t-97 -24 q-30 0 -53 5.5t-37.5 18.5t-20.5 35t-1 54h44q-8 -44 10.5 -60t60.5 -16t66 16t31 60z" />
<glyph unicode="&#x16d;" horiz-adv-x="602" d="M76 0zM230 -11q-78 0 -116 38t-38 110q0 26 4 49l47 296h55l-46 -287q-2 -13 -2.5 -24.5t-0.5 -22.5q0 -60 29.5 -86t83.5 -26q81 0 131.5 50t68.5 136l42 260h55l-77 -482h-48l11 100q-35 -57 -87 -84t-112 -27zM450 679h44q-10 -65 -47 -89t-97 -24q-30 0 -53 5.5 t-37.5 18.5t-20.5 35t-1 54h44q-8 -44 10.5 -60t60.5 -16t66 16t31 60z" />
<glyph unicode="&#x16e;" horiz-adv-x="728" d="M86 0zM443 763q-35 0 -56.5 21.5t-21.5 56.5q0 43 27.5 72t69.5 29q35 0 56.5 -21t21.5 -56q0 -45 -27.5 -73.5t-69.5 -28.5zM460 914q-27 0 -45.5 -20t-18.5 -50q0 -23 13.5 -38t35.5 -15q26 0 45 20t19 50q0 23 -13.5 38t-35.5 15zM576 266l69 434h56l-68 -433 q-23 -142 -103.5 -210t-206.5 -68q-114 0 -175.5 52t-61.5 160q0 31 6 66l69 433h56l-69 -433q-3 -17 -4 -31.5t-1 -29.5q0 -86 46 -127.5t136 -41.5q49 0 91 12.5t74 40t54 71t32 105.5z" />
<glyph unicode="&#x16f;" horiz-adv-x="602" d="M76 0zM350 545q-35 0 -56.5 21.5t-21.5 56.5q0 43 27.5 72t69.5 29q35 0 56.5 -21t21.5 -56q0 -45 -27.5 -73.5t-69.5 -28.5zM367 696q-27 0 -45.5 -20t-18.5 -50q0 -23 13.5 -38t35.5 -15q26 0 45 20t19 50q0 23 -13.5 38t-35.5 15zM230 -11q-78 0 -116 38t-38 110 q0 26 4 49l47 296h55l-46 -287q-2 -13 -2.5 -24.5t-0.5 -22.5q0 -60 29.5 -86t83.5 -26q81 0 131.5 50t68.5 136l42 260h55l-77 -482h-48l11 100q-35 -57 -87 -84t-112 -27z" />
<glyph unicode="&#x170;" horiz-adv-x="728" d="M86 0zM576 266l69 434h56l-68 -433q-23 -142 -103.5 -210t-206.5 -68q-114 0 -175.5 52t-61.5 160q0 31 6 66l69 433h56l-69 -433q-3 -17 -4 -31.5t-1 -29.5q0 -86 46 -127.5t136 -41.5q49 0 91 12.5t74 40t54 71t32 105.5zM568 898h73l-1 -5l-125 -107h-44v3zM446 898 h69l-1 -5l-111 -107h-44v3z" />
<glyph unicode="&#x171;" horiz-adv-x="602" d="M76 0zM230 -11q-78 0 -116 38t-38 110q0 26 4 49l47 296h55l-46 -287q-2 -13 -2.5 -24.5t-0.5 -22.5q0 -60 29.5 -86t83.5 -26q81 0 131.5 50t68.5 136l42 260h55l-77 -482h-48l11 100q-35 -57 -87 -84t-112 -27zM475 680h73l-1 -5l-125 -107h-44v3zM353 680h69l-1 -5 l-111 -107h-44v3z" />
<glyph unicode="&#x172;" horiz-adv-x="728" d="M575 267l69 433h57l-68 -432q-38 -229 -231 -270q-35 -10 -56.5 -38.5t-21.5 -66.5q0 -32 15.5 -44.5t40.5 -12.5q17 0 33 4t32 14l6 -36q-37 -22 -78 -22q-18 0 -34.5 4t-29.5 14t-20.5 27t-7.5 42q0 37 14 63.5t36 43.5q-54 -1 -99 10.5t-77.5 37t-50.5 66t-18 97.5 q0 31 6 67l69 432h57l-69 -431q-6 -35 -6 -63q0 -86 46 -127.5t136 -41.5q49 0 91 12.5t74 40.5t54 71.5t31 105.5z" />
<glyph unicode="&#x173;" horiz-adv-x="602" d="M410 -204q-18 0 -35 4t-29.5 13.5t-20.5 25.5t-8 40q0 26 9.5 48.5t24.5 40t33 30t35 18.5l12 96q-32 -63 -85 -93t-116 -30q-78 0 -116 38t-38 110q0 24 3 50l48 295h56l-47 -286q-3 -26 -3 -47q0 -60 29.5 -86.5t83.5 -26.5q81 0 131.5 49.5t68.5 136.5l41 260h56 l-77 -482h-2q-20 -2 -38.5 -12t-33 -26t-23 -35.5t-8.5 -39.5q0 -30 16 -40.5t42 -10.5q31 0 62 17l7 -37q-37 -20 -78 -20z" />
<glyph unicode="&#x174;" horiz-adv-x="883" d="M75 0zM531 865l-96 -79h-62v2l135 110h51l99 -110v-2h-59zM478 695h55l72 -608l276 613h57l-319 -700h-54l-73 608l-266 -608h-58l-93 700h58l77 -618z" />
<glyph unicode="&#x175;" horiz-adv-x="702" d="M46 0zM411 647l-96 -79h-62v2l135 110h51l99 -110v-2h-59zM354 475h57l64 -413l195 420h54l-230 -482h-58l-64 410l-185 -410h-59l-82 482h55l65 -420z" />
<glyph unicode="&#x176;" horiz-adv-x="582" d="M76 0zM259 283l-183 417h60l158 -366l276 366h63l-317 -417l-45 -283h-56zM377 865l-96 -79h-62v2l135 110h51l99 -110v-2h-59z" />
<glyph unicode="&#x177;" horiz-adv-x="477" d="M0 0zM144 -56l28 51l-122 487h57l102 -430l236 430h57l-313 -557q-24 -42 -47 -68t-46.5 -41t-48 -20.5t-50.5 -5.5q-19 0 -35 2.5t-36 10.5l17 47q14 -6 28 -9t34 -3q15 0 31 3.5t33 14.5t36 32t39 56zM302 647l-96 -79h-62v2l135 110h51l99 -110v-2h-59z" />
<glyph unicode="&#x178;" horiz-adv-x="582" d="M76 0zM259 283l-183 417h60l158 -366l276 366h63l-317 -417l-45 -283h-56zM443 798q-38 0 -38 35q0 25 14 37t34 12q19 0 29 -9.5t10 -26.5q0 -23 -13.5 -35.5t-35.5 -12.5zM291 798q-37 0 -37 35q0 25 13.5 37t34.5 12q37 0 37 -35q0 -23 -12.5 -36t-35.5 -13z" />
<glyph unicode="&#x179;" horiz-adv-x="560" d="M0 0zM434 898h74l-1 -5l-121 -107h-49v3zM-18 0l7 44l534 607h-415l8 49h484l-7 -44l-536 -608l448 1l-8 -49h-515z" />
<glyph unicode="&#x17a;" horiz-adv-x="467" d="M2 0zM350 680h74l-1 -5l-121 -107h-49v3zM2 0l6 42l379 395h-307l7 45h372l-6 -43l-380 -394h323l-7 -45h-387z" />
<glyph unicode="&#x17b;" horiz-adv-x="560" d="M0 0zM-18 0l7 44l534 607h-415l8 49h484l-7 -44l-536 -608l448 1l-8 -49h-515zM366 798q-20 0 -29 9.5t-9 26.5q0 24 14 36t34 12q18 0 28.5 -10t10.5 -27q0 -22 -14 -34.5t-35 -12.5z" />
<glyph unicode="&#x17c;" horiz-adv-x="467" d="M2 0zM2 0l6 42l379 395h-307l7 45h372l-6 -43l-380 -394h323l-7 -45h-387zM283 580q-20 0 -29 9.5t-9 26.5q0 24 14 36t34 12q18 0 28.5 -10t10.5 -27q0 -22 -14 -34.5t-35 -12.5z" />
<glyph unicode="&#x17d;" horiz-adv-x="560" d="M0 0zM339 786l-100 110v2h60l68 -78l95 78h63v-2l-135 -110h-51zM-18 0l7 44l534 607h-415l8 49h484l-7 -44l-536 -608l448 1l-8 -49h-515z" />
<glyph unicode="&#x17e;" horiz-adv-x="467" d="M2 0zM257 568l-100 110v2h60l68 -78l95 78h63v-2l-135 -110h-51zM2 0l6 42l379 395h-307l7 45h372l-6 -43l-380 -394h323l-7 -45h-387z" />
<glyph unicode="&#x192;" horiz-adv-x="380" d="M53 -48l83 367h-90l9 42h91l24 101q19 83 61.5 119.5t106.5 36.5q20 0 40.5 -4t37.5 -12l-21 -47q-14 7 -27 10t-33 3q-43 0 -70.5 -24t-41.5 -87l-22 -96h151l-9 -42h-152l-84 -373q-20 -83 -60 -119.5t-100 -36.5q-18 0 -37 2.5t-34 10.5l20 47q13 -6 25.5 -9t30.5 -3 q35 0 60.5 25t40.5 89z" />
<glyph unicode="&#x218;" horiz-adv-x="602" d="M21 0zM210 -250l-6 25q21 9 36 29.5t20 47.5q-21 -4 -33 6.5t-12 28.5q0 23 12.5 34t31.5 11q18 0 28.5 -10t10.5 -35q0 -22 -6 -44t-17.5 -40.5t-27.5 -32.5t-37 -20zM572 586l-50 -28q-11 26 -26 46t-35.5 33.5t-48.5 20.5t-65 7q-92 0 -141.5 -41.5t-49.5 -104.5 q0 -47 30.5 -77.5t102.5 -50.5l59 -16q50 -14 85 -31t56.5 -39t31.5 -50t10 -63q0 -44 -16.5 -81t-49.5 -64t-82 -42.5t-114 -15.5q-92 0 -153 32t-95 103l48 29q15 -32 33.5 -54t42.5 -36t54.5 -20.5t69.5 -6.5q103 0 154 41t51 110q0 25 -6.5 45.5t-22.5 37t-43 29.5 t-67 24l-60 16q-93 25 -134 67t-41 110q0 42 17 77.5t49.5 62t79.5 41t107 14.5q45 0 79.5 -8t60.5 -24t45.5 -39t33.5 -54z" />
<glyph unicode="&#x219;" horiz-adv-x="498" d="M34 0zM164 -250l-6 25q21 9 36 29.5t20 47.5q-21 -4 -33 6.5t-12 28.5q0 23 12.5 34t31.5 11q18 0 28.5 -10t10.5 -35q0 -22 -6 -44t-17.5 -40.5t-27.5 -32.5t-37 -20zM228 33q70 0 102 27.5t32 69.5q0 31 -21 50.5t-75 32.5l-47 11q-66 15 -96.5 48t-30.5 80 q0 63 47.5 102t135.5 39q62 0 100 -19.5t66 -59.5l-40 -31q-24 34 -53.5 50t-76.5 16q-63 0 -94.5 -25.5t-31.5 -66.5q0 -29 18.5 -50t67.5 -33l48 -12q77 -20 107 -51t30 -77q0 -63 -47.5 -104t-146.5 -41q-67 0 -113 23.5t-75 76.5l43 26q23 -45 59.5 -63.5t91.5 -18.5z " />
<glyph unicode="&#x237;" horiz-adv-x="253" d="M54 -46l83 528h55l-84 -535q-13 -83 -52.5 -120t-98.5 -37q-19 0 -35.5 2.5t-36.5 10.5l17 47q14 -6 26.5 -9t30.5 -3q37 0 60.5 25t34.5 91z" />
<glyph unicode="&#x2c6;" horiz-adv-x="600" d="M304 647l-96 -79h-62v2l135 110h51l99 -110v-2h-59z" />
<glyph unicode="&#x2c7;" horiz-adv-x="600" d="M259 568l-100 110v2h60l68 -78l95 78h63v-2l-135 -110h-51z" />
<glyph unicode="&#x2d8;" horiz-adv-x="600" d="M393 679h44q-10 -65 -47 -89t-97 -24q-30 0 -53 5.5t-37.5 18.5t-20.5 35t-1 54h44q-8 -44 10.5 -60t60.5 -16t66 16t31 60z" />
<glyph unicode="&#x2d9;" horiz-adv-x="600" d="M298 580q-20 0 -29 9.5t-9 26.5q0 24 14 36t34 12q18 0 28.5 -10t10.5 -27q0 -22 -14 -34.5t-35 -12.5z" />
<glyph unicode="&#x2da;" horiz-adv-x="600" d="M294 545q-35 0 -56.5 21.5t-21.5 56.5q0 43 27.5 72t69.5 29q35 0 56.5 -21t21.5 -56q0 -45 -27.5 -73.5t-69.5 -28.5zM311 696q-27 0 -45.5 -20t-18.5 -50q0 -23 13.5 -38t35.5 -15q26 0 45 20t19 50q0 23 -13.5 38t-35.5 15z" />
<glyph unicode="&#x2db;" horiz-adv-x="600" d="M297 -204q-18 0 -35 4t-30 13.5t-20.5 25.5t-7.5 40q0 34 14.5 61t36.5 46t47.5 29.5t47.5 10.5l1 -26q-20 -2 -38.5 -12t-33 -25.5t-23.5 -35t-9 -40.5q0 -30 16.5 -40.5t41.5 -10.5q33 0 62 17l7 -37q-35 -20 -77 -20z" />
<glyph unicode="&#x2dc;" horiz-adv-x="600" d="M408 669h42q-2 -26 -10.5 -43t-21 -26.5t-27 -13.5t-27.5 -4q-20 0 -35 7.5t-28 17t-25.5 17t-27.5 7.5q-34 0 -40 -45h-43q3 25 11.5 42t20.5 27t26 14t27 4q21 0 36 -7.5t28 -17t25.5 -17t27.5 -7.5q35 0 41 45z" />
<glyph unicode="&#x2dd;" horiz-adv-x="600" d="M422 680h73l-1 -5l-125 -107h-44v3zM300 680h69l-1 -5l-111 -107h-44v3z" />
<glyph unicode="&#x1e80;" horiz-adv-x="883" d="M75 0zM478 695h55l72 -608l276 613h57l-319 -700h-54l-73 608l-266 -608h-58l-93 700h58l77 -618zM499 786l-99 107l1 5h72l72 -109v-3h-46z" />
<glyph unicode="&#x1e81;" horiz-adv-x="702" d="M46 0zM354 475h57l64 -413l195 420h54l-230 -482h-58l-64 410l-185 -410h-59l-82 482h55l65 -420zM379 568l-99 107l1 5h72l72 -109v-3h-46z" />
<glyph unicode="&#x1e82;" horiz-adv-x="883" d="M75 0zM589 898h74l-1 -5l-121 -107h-49v3zM478 695h55l72 -608l276 613h57l-319 -700h-54l-73 608l-266 -608h-58l-93 700h58l77 -618z" />
<glyph unicode="&#x1e83;" horiz-adv-x="702" d="M46 0zM469 680h74l-1 -5l-121 -107h-49v3zM354 475h57l64 -413l195 420h54l-230 -482h-58l-64 410l-185 -410h-59l-82 482h55l65 -420z" />
<glyph unicode="&#x1e84;" horiz-adv-x="883" d="M75 0zM597 798q-38 0 -38 35q0 25 14 37t34 12q19 0 29 -9.5t10 -26.5q0 -23 -13.5 -35.5t-35.5 -12.5zM445 798q-37 0 -37 35q0 25 13.5 37t34.5 12q37 0 37 -35q0 -23 -12.5 -36t-35.5 -13zM478 695h55l72 -608l276 613h57l-319 -700h-54l-73 608l-266 -608h-58 l-93 700h58l77 -618z" />
<glyph unicode="&#x1e85;" horiz-adv-x="702" d="M46 0zM476 580q-38 0 -38 35q0 25 14 37t34 12q19 0 29 -9.5t10 -26.5q0 -23 -13.5 -35.5t-35.5 -12.5zM324 580q-37 0 -37 35q0 25 13.5 37t34.5 12q37 0 37 -35q0 -23 -12.5 -36t-35.5 -13zM354 475h57l64 -413l195 420h54l-230 -482h-58l-64 410l-185 -410h-59 l-82 482h55l65 -420z" />
<glyph unicode="&#x2000;" horiz-adv-x="471" />
<glyph unicode="&#x2001;" horiz-adv-x="942" />
<glyph unicode="&#x2002;" horiz-adv-x="500" />
<glyph unicode="&#x2003;" horiz-adv-x="1000" />
<glyph unicode="&#x2004;" horiz-adv-x="333" />
<glyph unicode="&#x2005;" horiz-adv-x="250" />
<glyph unicode="&#x2006;" horiz-adv-x="167" />
<glyph unicode="&#x2007;" />
<glyph unicode="&#x2008;" horiz-adv-x="208" />
<glyph unicode="&#x2009;" horiz-adv-x="200" />
<glyph unicode="&#x200a;" horiz-adv-x="100" />
<glyph unicode="&#x200b;" horiz-adv-x="0" />
<glyph unicode="&#x2010;" horiz-adv-x="415" d="M353 273l-8 -46h-309l7 46h310z" />
<glyph unicode="&#x2011;" horiz-adv-x="415" d="M353 273l-8 -46h-309l7 46h310z" />
<glyph unicode="&#x2012;" horiz-adv-x="585" d="M522 273l-7 -46h-479l7 46h479z" />
<glyph unicode="&#x2013;" horiz-adv-x="585" d="M522 273l-7 -46h-479l7 46h479z" />
<glyph unicode="&#x2014;" horiz-adv-x="781" d="M718 273l-7 -46h-675l7 46h675z" />
<glyph unicode="&#x2015;" horiz-adv-x="1073" d="M1011 273l-7 -46h-968l7 46h968z" />
<glyph unicode="&#x2018;" horiz-adv-x="210" d="M200 732l8 -25q-26 -11 -44 -34.5t-24 -54.5q17 5 32 -5t15 -30q0 -24 -13.5 -36.5t-33.5 -12.5q-18 0 -28.5 10.5t-10.5 34.5q0 21 5.5 44.5t17.5 45t31 38.5t45 25z" />
<glyph unicode="&#x2019;" horiz-adv-x="210" d="M96 520zM104 520l-8 25q26 11 44 34.5t24 54.5q-17 -5 -32 5t-15 30q0 24 13.5 36.5t33.5 12.5q18 0 28.5 -10.5t10.5 -34.5q0 -21 -5.5 -44.5t-17.5 -45t-31 -38.5t-45 -25z" />
<glyph unicode="&#x201a;" horiz-adv-x="209" d="M24 -119l-8 25q26 11 43.5 34.5t23.5 53.5q-17 -5 -31.5 5t-14.5 30q0 23 13 35.5t33 12.5q18 0 28.5 -10.5t10.5 -33.5q0 -21 -5.5 -44.5t-17.5 -44.5t-30.5 -38t-44.5 -25z" />
<glyph unicode="&#x201c;" horiz-adv-x="336" d="M200 733l8 -25q-26 -11 -44 -34.5t-24 -54.5q17 5 32 -5t15 -30q0 -24 -13.5 -36.5t-33.5 -12.5q-18 0 -28.5 10.5t-10.5 34.5q0 21 5.5 44.5t17.5 45t31 38.5t45 25zM328 733l8 -25q-26 -11 -44 -34.5t-24 -54.5q17 5 32 -5t15 -30q0 -24 -13.5 -36.5t-33.5 -12.5 q-18 0 -28.5 10.5t-10.5 34.5q0 21 5.5 44.5t17.5 45t31 38.5t45 25z" />
<glyph unicode="&#x201d;" horiz-adv-x="336" d="M96 518zM104 518l-8 25q26 11 44 34.5t24 54.5q-17 -5 -32 5t-15 30q0 24 13.5 36.5t33.5 12.5q18 0 28.5 -10.5t10.5 -34.5q0 -21 -5.5 -44.5t-17.5 -45t-31 -38.5t-45 -25zM230 518l-8 25q26 11 44 34.5t24 54.5q-17 -5 -32 5t-15 30q0 24 13.5 36.5t33.5 12.5 q18 0 28.5 -10.5t10.5 -34.5q0 -21 -5.5 -44.5t-17.5 -45t-31 -38.5t-45 -25z" />
<glyph unicode="&#x201e;" horiz-adv-x="335" d="M24 -119l-8 25q26 11 43.5 34.5t23.5 53.5q-17 -5 -31.5 5t-14.5 30q0 23 13 35.5t33 12.5q18 0 28.5 -10.5t10.5 -33.5q0 -21 -5.5 -44.5t-17.5 -44.5t-30.5 -38t-44.5 -25zM149 -119l-8 25q26 11 43.5 34.5t23.5 53.5q-17 -5 -31.5 5t-14.5 30q0 23 13 35.5t33 12.5 q18 0 28.5 -10.5t10.5 -33.5q0 -21 -5.5 -44.5t-17.5 -44.5t-30.5 -38t-44.5 -25z" />
<glyph unicode="&#x2020;" horiz-adv-x="304" d="M247 551h-70l-37 -234h-43l36 234h-70l7 40h69l16 118h50l-20 -118h69z" />
<glyph unicode="&#x2021;" horiz-adv-x="304" d="M51 469h69l14 88h-70l7 40h69l15 112h50l-20 -112h70l-7 -40h-70l-13 -88h68l-5 -40h-70l-16 -116h-49l20 116h-69z" />
<glyph unicode="&#x2022;" horiz-adv-x="422" d="M205 186q-60 0 -93 32t-33 87q0 37 12 67t33 51.5t50 33t63 11.5q60 0 93 -32t33 -87q0 -37 -12 -67t-33 -51.5t-50 -33t-63 -11.5z" />
<glyph unicode="&#x2026;" horiz-adv-x="624" d="M492 -6q-19 0 -29.5 10t-10.5 27q0 23 14 35.5t35 12.5q39 0 39 -37q0 -23 -14 -35.5t-34 -12.5zM283 -6q-18 0 -28 10t-10 27q0 23 13.5 35.5t34.5 12.5q39 0 39 -37q0 -23 -14 -35.5t-35 -12.5zM75 -6q-19 0 -29 10t-10 27q0 23 14 35.5t35 12.5q39 0 39 -37 q0 -23 -14 -35.5t-35 -12.5z" />
<glyph unicode="&#x202f;" horiz-adv-x="188" />
<glyph unicode="&#x2030;" horiz-adv-x="1431" d="M70 0zM809 416q67 0 101 -34t34 -110q0 -17 -1 -32.5t-4 -35.5q-17 -111 -63.5 -161.5t-128.5 -50.5q-67 0 -101 33.5t-34 110.5q0 14 1.5 32t3.5 36q17 114 65 163t127 49zM805 376q-26 0 -48 -8.5t-40 -28.5t-31 -53t-21 -82q-2 -19 -4 -36t-2 -31q0 -59 24 -82t68 -23 q27 0 49 8.5t40 28.5t30.5 53t20.5 82q6 36 6 66q0 59 -24 82.5t-68 23.5zM267 709q67 0 101 -34t34 -110q0 -17 -1 -32.5t-4 -35.5q-17 -111 -63.5 -161.5t-128.5 -50.5q-67 0 -101 33.5t-34 110.5q0 14 1.5 32t3.5 36q17 114 65 163t127 49zM263 669q-26 0 -48 -8.5 t-40 -28.5t-31 -53t-21 -82q-2 -19 -4 -36t-2 -31q0 -59 24 -82t68 -23q27 0 49 8.5t40 28.5t30.5 53t20.5 82q6 36 6 66q0 59 -24 82.5t-68 23.5zM1219 416q67 0 101 -34t34 -110q0 -17 -1 -32.5t-4 -35.5q-17 -111 -63.5 -161.5t-128.5 -50.5q-67 0 -101 33.5t-34 110.5 q0 14 1.5 32t3.5 36q17 114 65 163t127 49zM1215 376q-26 0 -48 -8.5t-40 -28.5t-31 -53t-21 -82q-2 -19 -4 -36t-2 -31q0 -59 24 -82t68 -23q27 0 49 8.5t40 28.5t30.5 53t20.5 82q6 36 6 66q0 59 -24 82.5t-68 23.5zM747 701l-438 -701h-53l440 701h51z" />
<glyph unicode="&#x2039;" horiz-adv-x="408" d="M213 0l-151 239l1 3l225 240h65l-229 -244l152 -238h-63z" />
<glyph unicode="&#x203a;" horiz-adv-x="408" d="M195 482l151 -239l-1 -3l-225 -240h-65l229 244l-152 238h63z" />
<glyph unicode="&#x2044;" horiz-adv-x="486" d="M482 701l-438 -701h-53l440 701h51z" />
<glyph unicode="&#x205f;" horiz-adv-x="235" />
<glyph unicode="&#x2070;" horiz-adv-x="417" d="M73 286zM270 710q67 0 101 -34t34 -110q0 -17 -1 -32.5t-4 -35.5q-17 -111 -63.5 -161.5t-128.5 -50.5q-67 0 -101 33.5t-34 110.5q0 14 1.5 32t3.5 36q17 114 65 163t127 49zM266 670q-26 0 -48 -8.5t-40 -28.5t-31 -53t-21 -82q-2 -19 -4 -36t-2 -31q0 -59 24 -82 t68 -23q27 0 49 8.5t40 28.5t30.5 53t20.5 82q6 36 6 66q0 59 -24 82.5t-68 23.5z" />
<glyph unicode="&#x2074;" horiz-adv-x="385" d="M45 294zM45 398l5 35l179 268h46l-174 -261h172l31 187h44l-29 -187h64l-7 -42h-64l-17 -104h-45l17 104h-222z" />
<glyph unicode="&#x2075;" horiz-adv-x="355" d="M40 286zM162 661l-36 -140q25 16 49.5 22t50.5 6q54 0 86.5 -23.5t32.5 -79.5q0 -34 -12 -63t-34 -50.5t-54.5 -34t-72.5 -12.5q-48 0 -81.5 18.5t-50.5 56.5l36 24q13 -28 36 -43.5t63 -15.5q29 0 52 9t38.5 24.5t24 36.5t8.5 44q0 73 -88 73q-32 0 -57 -9t-48 -26 l-26 13l53 210h235l-6 -40h-199z" />
<glyph unicode="&#x2076;" horiz-adv-x="391" d="M71 286zM209 286q-62 0 -100 35t-38 115q0 15 1.5 32.5t3.5 31.5q17 110 68.5 160t126.5 50q46 0 77 -17t43 -51l-35 -24q-11 28 -33.5 40t-53.5 12q-62 0 -98.5 -46.5t-48.5 -132.5l-3 -22q16 37 50 58t82 21q55 0 86.5 -26t31.5 -77q0 -33 -10.5 -62t-31 -50.5 t-50.5 -34t-68 -12.5zM238 511q-26 0 -47.5 -8.5t-36.5 -23.5t-23.5 -35t-8.5 -42q0 -31 21 -54t66 -23q49 0 80.5 30t31.5 84q0 34 -20.5 53t-62.5 19z" />
<glyph unicode="&#x2077;" horiz-adv-x="304" d="M82 294zM96 294q7 50 25 102t44.5 100t60 90t71.5 73l-215 -1l7 43h270l-6 -38q-38 -24 -72 -64t-61.5 -89.5t-47 -105t-28.5 -110.5h-48z" />
<glyph unicode="&#x2078;" horiz-adv-x="384" d="M59 286zM188 286q-63 0 -96 25.5t-33 73.5q0 53 29 84.5t73 40.5q-55 17 -55 77t40 91.5t107 31.5q116 0 116 -88q0 -45 -24 -74t-62 -40q32 -8 51 -29.5t19 -56.5q0 -64 -45 -100t-120 -36zM225 528q42 0 71 22.5t29 64.5q0 56 -76 56q-48 0 -74 -22t-26 -62 q0 -59 76 -59zM192 323q49 0 82 25t33 73q0 32 -22.5 49.5t-64.5 17.5q-53 0 -83.5 -26t-30.5 -71q0 -32 22 -50t64 -18z" />
<glyph unicode="&#x2079;" horiz-adv-x="391" d="M54 286zM209 483q25 0 46 9t36 24.5t23.5 35.5t8.5 42q0 31 -21 53.5t-66 22.5q-46 0 -79 -29t-33 -86q0 -34 21.5 -53t63.5 -19zM237 710q62 0 99.5 -35t37.5 -115q0 -15 -1.5 -32.5t-3.5 -31.5q-17 -110 -68 -160t-127 -50q-45 0 -76 16.5t-44 49.5q0 1 5.5 4.5t11.5 8 t11.5 8t6.5 3.5q11 -27 34 -39t53 -12q59 0 96 43t51 134l4 24q-17 -38 -51 -59.5t-82 -21.5q-54 0 -85.5 27t-31.5 78q0 35 11 64.5t32 50.5t50.5 33t66.5 12z" />
<glyph unicode="&#x207a;" horiz-adv-x="309" d="M62 363zM181 363h-38l16 98h-97l6 35h96l16 100h37l-15 -100h95l-6 -35h-95z" />
<glyph unicode="&#x207b;" horiz-adv-x="309" d="M62 461zM297 496l-5 -35h-230l6 35h229z" />
<glyph unicode="&#x207c;" horiz-adv-x="309" d="M56 423zM304 535l-6 -36h-229l6 36h229zM291 459l-5 -36h-230l6 36h229z" />
<glyph unicode="&#x207d;" horiz-adv-x="211" d="M60 244zM167 244q-54 7 -80.5 48t-26.5 115q0 33 6 75q16 109 60 168.5t114 67.5l-1 -38q-50 -8 -83.5 -54.5t-49.5 -143.5q-4 -22 -5 -41t-1 -36q0 -57 19.5 -86.5t56.5 -36.5z" />
<glyph unicode="&#x207e;" horiz-adv-x="211" d="M31 244zM95 680l9 38q54 -7 80.5 -48t26.5 -115q0 -33 -6 -75q-16 -109 -60 -168.5t-114 -67.5l1 38q50 8 83.5 54.5t49.5 143.5q4 22 5 41t1 36q0 57 -19.5 86.5t-56.5 36.5z" />
<glyph unicode="&#x2080;" horiz-adv-x="414" d="M226 416q67 0 101 -34t34 -110q0 -17 -1 -32.5t-4 -35.5q-17 -111 -63.5 -161.5t-128.5 -50.5q-67 0 -101 33.5t-34 110.5q0 14 1.5 32t3.5 36q17 114 65 163t127 49zM222 376q-26 0 -48 -8.5t-40 -28.5t-31 -53t-21 -82q-2 -19 -4 -36t-2 -31q0 -59 24 -82t68 -23 q27 0 49 8.5t40 28.5t30.5 53t20.5 82q6 36 6 66q0 59 -24 82.5t-68 23.5z" />
<glyph unicode="&#x2081;" horiz-adv-x="200" d="M94 0h-46l55 349l-61 -42l-13 39l100 63h29z" />
<glyph unicode="&#x2082;" horiz-adv-x="353" d="M-7 0l7 40l166 141q26 22 45 40t31 34t17.5 31t5.5 31q0 59 -79 59q-39 0 -64.5 -16.5t-48.5 -48.5l-28 25q28 41 63 60.5t84 19.5q60 0 91 -23t31 -67q0 -21 -6.5 -41t-21 -40t-37 -42.5t-54.5 -48.5l-131 -110h227l-7 -44h-291z" />
<glyph unicode="&#x2083;" horiz-adv-x="361" d="M135 -8q-53 0 -85 19.5t-48 57.5l37 22q13 -29 36 -44t62 -15q55 0 85.5 26t30.5 71q0 29 -16 46t-58 17h-57l6 40h56q35 0 61 23.5t26 61.5q0 59 -80 59q-35 0 -60 -12.5t-47 -44.5l-29 26q26 37 59.5 54t84.5 17q120 0 120 -90q0 -39 -21 -69.5t-57 -44.5 q32 -8 45.5 -28.5t13.5 -51.5q0 -61 -43.5 -100.5t-121.5 -39.5z" />
<glyph unicode="&#x2084;" horiz-adv-x="383" d="M8 104l5 35l179 268h46l-174 -261h172l31 187h44l-29 -187h64l-7 -42h-64l-17 -104h-45l17 104h-222z" />
<glyph unicode="&#x2085;" horiz-adv-x="353" d="M125 367l-36 -140q25 16 49.5 22t50.5 6q54 0 86.5 -23.5t32.5 -79.5q0 -34 -12 -63t-34 -50.5t-54.5 -34t-72.5 -12.5q-48 0 -81.5 18.5t-50.5 56.5l36 24q13 -28 36 -43.5t63 -15.5q29 0 52 9t38.5 24.5t24 36.5t8.5 44q0 73 -88 73q-32 0 -57 -9t-48 -26l-26 13 l53 210h235l-6 -40h-199z" />
<glyph unicode="&#x2086;" horiz-adv-x="388" d="M172 -8q-62 0 -100 35t-38 115q0 15 1.5 32.5t3.5 31.5q17 110 68.5 160t126.5 50q46 0 77 -17t43 -51l-35 -24q-11 28 -33.5 40t-53.5 12q-62 0 -98.5 -46.5t-48.5 -132.5l-3 -22q16 37 50 58t82 21q55 0 86.5 -26t31.5 -77q0 -33 -10.5 -62t-31 -50.5t-50.5 -34 t-68 -12.5zM201 217q-26 0 -47.5 -8.5t-36.5 -23.5t-23.5 -35t-8.5 -42q0 -31 21 -54t66 -23q49 0 80.5 30t31.5 84q0 34 -20.5 53t-62.5 19z" />
<glyph unicode="&#x2087;" horiz-adv-x="301" d="M59 0q7 50 25 102t44.5 100t60 90t71.5 73l-215 -1l7 43h270l-6 -38q-38 -24 -72 -64t-61.5 -89.5t-47 -105t-28.5 -110.5h-48z" />
<glyph unicode="&#x2088;" horiz-adv-x="382" d="M151 -8q-63 0 -96 25.5t-33 73.5q0 53 29 84.5t73 40.5q-55 17 -55 77t40 91.5t107 31.5q116 0 116 -88q0 -45 -24 -74t-62 -40q32 -8 51 -29.5t19 -56.5q0 -64 -45 -100t-120 -36zM188 234q42 0 71 22.5t29 64.5q0 56 -76 56q-48 0 -74 -22t-26 -62q0 -59 76 -59z M155 29q49 0 82 25t33 73q0 32 -22.5 49.5t-64.5 17.5q-53 0 -83.5 -26t-30.5 -71q0 -32 22 -50t64 -18z" />
<glyph unicode="&#x2089;" horiz-adv-x="387" d="M172 189q25 0 46 9t36 24.5t23.5 35.5t8.5 42q0 31 -21 53.5t-66 22.5q-46 0 -79 -29t-33 -86q0 -34 21.5 -53t63.5 -19zM200 416q62 0 99.5 -35t37.5 -115q0 -15 -1.5 -32.5t-3.5 -31.5q-17 -110 -68 -160t-127 -50q-45 0 -76 16.5t-44 49.5q0 1 5.5 4.5t11.5 8t11.5 8 t6.5 3.5q11 -27 34 -39t53 -12q59 0 96 43t51 134l4 24q-17 -38 -51 -59.5t-82 -21.5q-54 0 -85.5 27t-31.5 78q0 35 11 64.5t32 50.5t50.5 33t66.5 12z" />
<glyph unicode="&#x208a;" horiz-adv-x="309" d="M144 64h-38l16 98h-97l6 35h96l16 100h37l-15 -100h95l-6 -35h-95z" />
<glyph unicode="&#x208b;" horiz-adv-x="309" d="M260 197l-5 -35h-230l6 35h229z" />
<glyph unicode="&#x208c;" horiz-adv-x="309" d="M267 236l-6 -36h-229l6 36h229zM254 160l-5 -36h-230l6 36h229z" />
<glyph unicode="&#x208d;" horiz-adv-x="210" d="M130 -55q-54 7 -80.5 48t-26.5 115q0 33 6 75q16 109 60 168.5t114 67.5l-1 -38q-50 -8 -83.5 -54.5t-49.5 -143.5q-4 -22 -5 -41t-1 -36q0 -57 19.5 -86.5t56.5 -36.5z" />
<glyph unicode="&#x208e;" horiz-adv-x="210" d="M58 381l9 38q54 -7 80.5 -48t26.5 -115q0 -33 -6 -75q-16 -109 -60 -168.5t-114 -67.5l1 38q50 8 83.5 54.5t49.5 143.5q4 22 5 41t1 36q0 57 -19.5 86.5t-56.5 36.5z" />
<glyph unicode="&#x20ac;" horiz-adv-x="661" d="M447 315l-17 -45h-288q-8 -123 42 -178t153 -55q67 0 121 23.5t96 87.5l38 -32q-48 -73 -113.5 -100t-144.5 -27q-134 0 -195 67.5t-53 213.5h-84l7 45h79q1 11 2.5 23.5t5.5 35.5h-77l7 45h79q18 78 48.5 133.5t72 91t94 51.5t114.5 16q88 0 141.5 -35t76.5 -109 l-50 -27q-20 69 -62.5 96.5t-109.5 27.5q-47 0 -88.5 -12.5t-75.5 -41t-60.5 -75.5t-42.5 -116h331l-18 -45h-322q-5 -22 -6.5 -35t-2.5 -24h302z" />
<glyph unicode="&#x2122;" horiz-adv-x="673" d="M87 700h238l-5 -32h-100l-42 -262h-36l42 262h-102zM619 406h-36l37 232l-136 -232h-31l-66 229l-36 -229h-36l47 294h40l71 -254l150 254h43z" />
<glyph unicode="&#x2153;" horiz-adv-x="799" d="M61 0zM549 -8q-53 0 -85 19.5t-48 57.5l37 22q13 -29 36 -44t62 -15q55 0 85.5 26t30.5 71q0 29 -16 46t-58 17h-57l6 40h56q35 0 61 23.5t26 61.5q0 59 -80 59q-35 0 -60 -12.5t-47 -44.5l-29 26q26 37 59.5 54t84.5 17q120 0 120 -90q0 -39 -21 -69.5t-57 -44.5 q32 -8 45.5 -28.5t13.5 -51.5q0 -61 -43.5 -100.5t-121.5 -39.5zM126 293h-46l55 349l-61 -42l-13 39l100 63h29zM574 701l-438 -701h-53l440 701h51z" />
<glyph unicode="&#x2154;" horiz-adv-x="930" d="M27 0zM679 -8q-53 0 -85 19.5t-48 57.5l37 22q13 -29 36 -44t62 -15q55 0 85.5 26t30.5 71q0 29 -16 46t-58 17h-57l6 40h56q35 0 61 23.5t26 61.5q0 59 -80 59q-35 0 -60 -12.5t-47 -44.5l-29 26q26 37 59.5 54t84.5 17q120 0 120 -90q0 -39 -21 -69.5t-57 -44.5 q32 -8 45.5 -28.5t13.5 -51.5q0 -61 -43.5 -100.5t-121.5 -39.5zM27 293l7 40l166 141q26 22 45 40t31 34t17.5 31t5.5 31q0 59 -79 59q-39 0 -64.5 -16.5t-48.5 -48.5l-28 25q28 41 63 60.5t84 19.5q60 0 91 -23t31 -67q0 -21 -6.5 -41t-21 -40t-37 -42.5t-54.5 -48.5 l-131 -110h227l-7 -44h-291zM705 701l-438 -701h-53l440 701h51z" />
<glyph unicode="&#x2155;" horiz-adv-x="800" d="M61 0zM126 293h-46l55 349l-61 -42l-13 39l100 63h29zM550 367l-36 -140q25 16 49.5 22t50.5 6q54 0 86.5 -23.5t32.5 -79.5q0 -34 -12 -63t-34 -50.5t-54.5 -34t-72.5 -12.5q-48 0 -81.5 18.5t-50.5 56.5l36 24q13 -28 36 -43.5t63 -15.5q29 0 52 9t38.5 24.5t24 36.5 t8.5 44q0 73 -88 73q-32 0 -57 -9t-48 -26l-26 13l53 210h235l-6 -40h-199zM574 701l-438 -701h-53l440 701h51z" />
<glyph unicode="&#x2156;" horiz-adv-x="936" d="M27 0zM27 293l7 40l166 141q26 22 45 40t31 34t17.5 31t5.5 31q0 59 -79 59q-39 0 -64.5 -16.5t-48.5 -48.5l-28 25q28 41 63 60.5t84 19.5q60 0 91 -23t31 -67q0 -21 -6.5 -41t-21 -40t-37 -42.5t-54.5 -48.5l-131 -110h227l-7 -44h-291zM684 367l-36 -140 q25 16 49.5 22t50.5 6q54 0 86.5 -23.5t32.5 -79.5q0 -34 -12 -63t-34 -50.5t-54.5 -34t-72.5 -12.5q-48 0 -81.5 18.5t-50.5 56.5l36 24q13 -28 36 -43.5t63 -15.5q29 0 52 9t38.5 24.5t24 36.5t8.5 44q0 73 -88 73q-32 0 -57 -9t-48 -26l-26 13l53 210h235l-6 -40h-199z M709 701l-438 -701h-53l440 701h51z" />
<glyph unicode="&#x2157;" horiz-adv-x="936" d="M35 0zM168 285q-53 0 -85 19.5t-48 57.5l37 22q13 -29 36 -44t62 -15q55 0 85.5 26t30.5 71q0 29 -16 46t-58 17h-57l6 40h56q35 0 61 23.5t26 61.5q0 59 -80 59q-35 0 -60 -12.5t-47 -44.5l-29 26q26 37 59.5 54t84.5 17q120 0 120 -90q0 -39 -21 -69.5t-57 -44.5 q32 -8 45.5 -28.5t13.5 -51.5q0 -61 -43.5 -100.5t-121.5 -39.5zM684 367l-36 -140q25 16 49.5 22t50.5 6q54 0 86.5 -23.5t32.5 -79.5q0 -34 -12 -63t-34 -50.5t-54.5 -34t-72.5 -12.5q-48 0 -81.5 18.5t-50.5 56.5l36 24q13 -28 36 -43.5t63 -15.5q29 0 52 9t38.5 24.5 t24 36.5t8.5 44q0 73 -88 73q-32 0 -57 -9t-48 -26l-26 13l53 210h235l-6 -40h-199zM709 701l-438 -701h-53l440 701h51z" />
<glyph unicode="&#x2158;" horiz-adv-x="959" d="M44 0zM708 367l-36 -140q25 16 49.5 22t50.5 6q54 0 86.5 -23.5t32.5 -79.5q0 -34 -12 -63t-34 -50.5t-54.5 -34t-72.5 -12.5q-48 0 -81.5 18.5t-50.5 56.5l36 24q13 -28 36 -43.5t63 -15.5q29 0 52 9t38.5 24.5t24 36.5t8.5 44q0 73 -88 73q-32 0 -57 -9t-48 -26l-26 13 l53 210h235l-6 -40h-199zM733 701l-438 -701h-53l440 701h51zM44 397l5 35l179 268h46l-174 -261h172l31 187h44l-29 -187h64l-7 -42h-64l-17 -104h-45l17 104h-222z" />
<glyph unicode="&#x2159;" horiz-adv-x="838" d="M61 0zM126 293h-46l55 349l-61 -42l-13 39l100 63h29zM598 -8q-62 0 -100 35t-38 115q0 15 1.5 32.5t3.5 31.5q17 110 68.5 160t126.5 50q46 0 77 -17t43 -51l-35 -24q-11 28 -33.5 40t-53.5 12q-62 0 -98.5 -46.5t-48.5 -132.5l-3 -22q16 37 50 58t82 21q55 0 86.5 -26 t31.5 -77q0 -33 -10.5 -62t-31 -50.5t-50.5 -34t-68 -12.5zM627 217q-26 0 -47.5 -8.5t-36.5 -23.5t-23.5 -35t-8.5 -42q0 -31 21 -54t66 -23q49 0 80.5 30t31.5 84q0 34 -20.5 53t-62.5 19zM574 701l-438 -701h-53l440 701h51z" />
<glyph unicode="&#x215a;" horiz-adv-x="961" d="M38 0zM160 660l-36 -140q25 16 49.5 22t50.5 6q54 0 86.5 -23.5t32.5 -79.5q0 -34 -12 -63t-34 -50.5t-54.5 -34t-72.5 -12.5q-48 0 -81.5 18.5t-50.5 56.5l36 24q13 -28 36 -43.5t63 -15.5q29 0 52 9t38.5 24.5t24 36.5t8.5 44q0 73 -88 73q-32 0 -57 -9t-48 -26l-26 13 l53 210h235l-6 -40h-199zM721 -8q-62 0 -100 35t-38 115q0 15 1.5 32.5t3.5 31.5q17 110 68.5 160t126.5 50q46 0 77 -17t43 -51l-35 -24q-11 28 -33.5 40t-53.5 12q-62 0 -98.5 -46.5t-48.5 -132.5l-3 -22q16 37 50 58t82 21q55 0 86.5 -26t31.5 -77q0 -33 -10.5 -62 t-31 -50.5t-50.5 -34t-68 -12.5zM750 217q-26 0 -47.5 -8.5t-36.5 -23.5t-23.5 -35t-8.5 -42q0 -31 21 -54t66 -23q49 0 80.5 30t31.5 84q0 34 -20.5 53t-62.5 19zM709 701l-438 -701h-53l440 701h51z" />
<glyph unicode="&#x215b;" horiz-adv-x="830" d="M61 0zM126 293h-46l55 349l-61 -42l-13 39l100 63h29zM577 -8q-63 0 -96 25.5t-33 73.5q0 53 29 84.5t73 40.5q-55 17 -55 77t40 91.5t107 31.5q116 0 116 -88q0 -45 -24 -74t-62 -40q32 -8 51 -29.5t19 -56.5q0 -64 -45 -100t-120 -36zM614 234q42 0 71 22.5t29 64.5 q0 56 -76 56q-48 0 -74 -22t-26 -62q0 -59 76 -59zM581 29q49 0 82 25t33 73q0 32 -22.5 49.5t-64.5 17.5q-53 0 -83.5 -26t-30.5 -71q0 -32 22 -50t64 -18zM574 701l-438 -701h-53l440 701h51z" />
<glyph unicode="&#x215c;" horiz-adv-x="965" d="M35 0zM168 285q-53 0 -85 19.5t-48 57.5l37 22q13 -29 36 -44t62 -15q55 0 85.5 26t30.5 71q0 29 -16 46t-58 17h-57l6 40h56q35 0 61 23.5t26 61.5q0 59 -80 59q-35 0 -60 -12.5t-47 -44.5l-29 26q26 37 59.5 54t84.5 17q120 0 120 -90q0 -39 -21 -69.5t-57 -44.5 q32 -8 45.5 -28.5t13.5 -51.5q0 -61 -43.5 -100.5t-121.5 -39.5zM710 -8q-63 0 -96 25.5t-33 73.5q0 53 29 84.5t73 40.5q-55 17 -55 77t40 91.5t107 31.5q116 0 116 -88q0 -45 -24 -74t-62 -40q32 -8 51 -29.5t19 -56.5q0 -64 -45 -100t-120 -36zM747 234q42 0 71 22.5 t29 64.5q0 56 -76 56q-48 0 -74 -22t-26 -62q0 -59 76 -59zM714 29q49 0 82 25t33 73q0 32 -22.5 49.5t-64.5 17.5q-53 0 -83.5 -26t-30.5 -71q0 -32 22 -50t64 -18zM709 701l-438 -701h-53l440 701h51z" />
<glyph unicode="&#x215d;" horiz-adv-x="965" d="M38 0zM709 -8q-63 0 -96 25.5t-33 73.5q0 53 29 84.5t73 40.5q-55 17 -55 77t40 91.5t107 31.5q116 0 116 -88q0 -45 -24 -74t-62 -40q32 -8 51 -29.5t19 -56.5q0 -64 -45 -100t-120 -36zM746 234q42 0 71 22.5t29 64.5q0 56 -76 56q-48 0 -74 -22t-26 -62q0 -59 76 -59z M713 29q49 0 82 25t33 73q0 32 -22.5 49.5t-64.5 17.5q-53 0 -83.5 -26t-30.5 -71q0 -32 22 -50t64 -18zM160 660l-36 -140q25 16 49.5 22t50.5 6q54 0 86.5 -23.5t32.5 -79.5q0 -34 -12 -63t-34 -50.5t-54.5 -34t-72.5 -12.5q-48 0 -81.5 18.5t-50.5 56.5l36 24 q13 -28 36 -43.5t63 -15.5q29 0 52 9t38.5 24.5t24 36.5t8.5 44q0 73 -88 73q-32 0 -57 -9t-48 -26l-26 13l53 210h235l-6 -40h-199zM709 701l-438 -701h-53l440 701h51z" />
<glyph unicode="&#x215e;" horiz-adv-x="895" d="M80 0zM641 -8q-63 0 -96 25.5t-33 73.5q0 53 29 84.5t73 40.5q-55 17 -55 77t40 91.5t107 31.5q116 0 116 -88q0 -45 -24 -74t-62 -40q32 -8 51 -29.5t19 -56.5q0 -64 -45 -100t-120 -36zM678 234q42 0 71 22.5t29 64.5q0 56 -76 56q-48 0 -74 -22t-26 -62q0 -59 76 -59z M645 29q49 0 82 25t33 73q0 32 -22.5 49.5t-64.5 17.5q-53 0 -83.5 -26t-30.5 -71q0 -32 22 -50t64 -18zM94 293q7 50 25 102t44.5 100t60 90t71.5 73l-215 -1l7 43h270l-6 -38q-38 -24 -72 -64t-61.5 -89.5t-47 -105t-28.5 -110.5h-48zM639 701l-438 -701h-53l440 701h51z " />
<glyph unicode="&#x215f;" horiz-adv-x="840" d="M61 0zM126 293h-46l55 349l-61 -42l-13 39l100 63h29zM575 701l-438 -701h-53l440 701h51z" />
<glyph unicode="&#x2212;" horiz-adv-x="494" d="M445 330l-8 -46h-387l7 46h388z" />
<glyph unicode="&#x2248;" horiz-adv-x="494" d="M347 373q23 0 54 7.5t57 24.5l-8 -48q-23 -14 -56 -21.5t-59 -7.5t-45.5 6t-38 13.5t-38 13.5t-44.5 6q-23 0 -54 -6.5t-58 -23.5l8 48q23 14 54.5 20.5t59.5 6.5q27 0 47 -6t38.5 -13.5t38 -13.5t44.5 -6zM326 244q23 0 54.5 7t56.5 24l-7 -47q-23 -14 -56 -21t-59 -7 t-46 6t-38 13.5t-37.5 13.5t-44.5 6q-23 0 -54.5 -7t-57.5 -24l8 47q23 14 54.5 21t58.5 7t47.5 -6t39 -13.5t37.5 -13.5t44 -6z" />
<glyph unicode="&#x2260;" horiz-adv-x="493" d="M454 395l-7 -46h-138l-74 -79h200l-8 -47h-233l-99 -103h-50l99 103h-105l8 47h137l75 79h-200l7 46h233l102 107h51l-102 -107h104z" />
<glyph unicode="&#x2264;" horiz-adv-x="473" d="M105 312l4 26l282 171l18 -38l-236 -147l189 -147l-30 -36zM42 0l8 46h296l-8 -46h-296z" />
<glyph unicode="&#x2265;" horiz-adv-x="470" d="M388 313l-282 -172l-19 38l237 147l-189 146l29 37l227 -171zM349 46l-7 -46h-295l7 46h295z" />
<glyph unicode="&#x25fc;" horiz-adv-x="480" d="M0 480h480v-480h-480v480z" />
<glyph unicode="&#xf6c3;" horiz-adv-x="600" d="M254 -250l-6 25q21 9 36 29.5t20 47.5q-21 -4 -33 6.5t-12 28.5q0 23 12.5 34t31.5 11q18 0 28.5 -10t10.5 -35q0 -22 -6 -44t-17.5 -40.5t-27.5 -32.5t-37 -20z" />
<glyph horiz-adv-x="396" d="M181 -64l131 830h50l-131 -830h-50zM59 -64l131 830h51l-131 -830h-51z" />
<glyph horiz-adv-x="192" d="M183 548l-14 -26q-35 15 -50.5 48.5t-15.5 73.5q0 42 13 58.5t33 16.5t31 -11t11 -30q0 -26 -16.5 -36t-37.5 -5q-1 -31 11.5 -54.5t34.5 -34.5z" />
<glyph horiz-adv-x="317" d="M183 548l-14 -26q-35 15 -50.5 48.5t-15.5 73.5q0 42 13 58.5t33 16.5t31 -11t11 -30q0 -21 -15 -34.5t-39 -4.5q-1 -32 11.5 -56t34.5 -35zM308 548l-13 -26q-35 15 -51 48.5t-16 73.5q0 42 13.5 58.5t33.5 16.5t31 -11t11 -30q0 -21 -14.5 -34t-40.5 -5q0 -32 11.5 -56 t34.5 -35z" />
<glyph horiz-adv-x="592" d="M402 -204q-18 0 -35 4t-30 13.5t-21 25.5t-8 40q0 26 9.5 48t24 39.5t32 29.5t34.5 18l13 98q-31 -63 -81.5 -93t-114.5 -30q-82 0 -125 47t-43 138q0 16 2 33l4 34q17 123 80 187.5t165 64.5q60 0 101.5 -28.5t54.5 -87.5l21 105h48l-76 -482h-4q-20 -2 -38 -12t-32 -26 t-22.5 -35.5t-8.5 -39.5q0 -30 16 -40.5t41 -10.5q34 0 63 17l7 -37q-35 -20 -77 -20zM441 245q2 15 3 29t1 26q0 76 -37 111.5t-97 35.5q-161 0 -194 -206q-2 -16 -3.5 -32.5t-1.5 -29.5q0 -144 131 -144q36 0 68 12.5t58.5 38t45 65t26.5 94.5z" />
<glyph horiz-adv-x="592" d="M227 -11q-84 0 -127 47t-43 138q0 16 2 33l4 34q17 123 80.5 187.5t166.5 64.5q58 0 99 -27t56 -82l20 98h48l-76 -482h-49l11 98q-32 -55 -81.5 -82t-110.5 -27zM441 245q2 15 3 29t1 26q0 76 -36.5 111.5t-95.5 35.5q-162 0 -195 -204q-6 -39 -6 -64q0 -144 133 -144 q35 0 67 12.5t58 38t44.5 65t26.5 94.5z" />
<glyph horiz-adv-x="592" d="M57 0zM227 -11q-84 0 -127 47t-43 138q0 16 2 33l4 34q17 123 80.5 187.5t166.5 64.5q58 0 99 -27t56 -82l20 98h48l-76 -482h-49l11 98q-32 -55 -81.5 -82t-110.5 -27zM441 245q2 15 3 29t1 26q0 76 -36.5 111.5t-95.5 35.5q-162 0 -195 -204q-6 -39 -6 -64 q0 -144 133 -144q35 0 67 12.5t58 38t44.5 65t26.5 94.5zM317 568l-99 107l1 5h72l72 -109v-3h-46z" />
<glyph horiz-adv-x="592" d="M57 0zM227 -11q-84 0 -127 47t-43 138q0 16 2 33l4 34q17 123 80.5 187.5t166.5 64.5q58 0 99 -27t56 -82l20 98h48l-76 -482h-49l11 98q-32 -55 -81.5 -82t-110.5 -27zM441 245q2 15 3 29t1 26q0 76 -36.5 111.5t-95.5 35.5q-162 0 -195 -204q-6 -39 -6 -64 q0 -144 133 -144q35 0 67 12.5t58 38t44.5 65t26.5 94.5zM400 680h74l-1 -5l-121 -107h-49v3z" />
<glyph horiz-adv-x="592" d="M57 0zM343 647l-96 -79h-62v2l135 110h51l99 -110v-2h-59zM227 -11q-84 0 -127 47t-43 138q0 16 2 33l4 34q17 123 80.5 187.5t166.5 64.5q58 0 99 -27t56 -82l20 98h48l-76 -482h-49l11 98q-32 -55 -81.5 -82t-110.5 -27zM441 245q2 15 3 29t1 26q0 76 -36.5 111.5 t-95.5 35.5q-162 0 -195 -204q-6 -39 -6 -64q0 -144 133 -144q35 0 67 12.5t58 38t44.5 65t26.5 94.5z" />
<glyph horiz-adv-x="592" d="M57 0zM407 580q-38 0 -38 35q0 25 14 37t34 12q19 0 29 -9.5t10 -26.5q0 -23 -13.5 -35.5t-35.5 -12.5zM255 580q-37 0 -37 35q0 25 13.5 37t34.5 12q37 0 37 -35q0 -23 -12.5 -36t-35.5 -13zM227 -11q-84 0 -127 47t-43 138q0 16 2 33l4 34q17 123 80.5 187.5 t166.5 64.5q58 0 99 -27t56 -82l20 98h48l-76 -482h-49l11 98q-32 -55 -81.5 -82t-110.5 -27zM441 245q2 15 3 29t1 26q0 76 -36.5 111.5t-95.5 35.5q-162 0 -195 -204q-6 -39 -6 -64q0 -144 133 -144q35 0 67 12.5t58 38t44.5 65t26.5 94.5z" />
<glyph horiz-adv-x="592" d="M57 0zM227 -11q-84 0 -127 47t-43 138q0 16 2 33l4 34q17 123 80.5 187.5t166.5 64.5q58 0 99 -27t56 -82l20 98h48l-76 -482h-49l11 98q-32 -55 -81.5 -82t-110.5 -27zM441 245q2 15 3 29t1 26q0 76 -36.5 111.5t-95.5 35.5q-162 0 -195 -204q-6 -39 -6 -64 q0 -144 133 -144q35 0 67 12.5t58 38t44.5 65t26.5 94.5zM436 669h42q-2 -26 -10.5 -43t-21 -26.5t-27 -13.5t-27.5 -4q-20 0 -35 7.5t-28 17t-25.5 17t-27.5 7.5q-34 0 -40 -45h-43q3 25 11.5 42t20.5 27t26 14t27 4q21 0 36 -7.5t28 -17t25.5 -17t27.5 -7.5q35 0 41 45z " />
<glyph horiz-adv-x="592" d="M57 0zM227 -11q-84 0 -127 47t-43 138q0 16 2 33l4 34q17 123 80.5 187.5t166.5 64.5q58 0 99 -27t56 -82l20 98h48l-76 -482h-49l11 98q-32 -55 -81.5 -82t-110.5 -27zM441 245q2 15 3 29t1 26q0 76 -36.5 111.5t-95.5 35.5q-162 0 -195 -204q-6 -39 -6 -64 q0 -144 133 -144q35 0 67 12.5t58 38t44.5 65t26.5 94.5zM327 545q-35 0 -56.5 21.5t-21.5 56.5q0 43 27.5 72t69.5 29q35 0 56.5 -21t21.5 -56q0 -45 -27.5 -73.5t-69.5 -28.5zM344 696q-27 0 -45.5 -20t-18.5 -50q0 -23 13.5 -38t35.5 -15q26 0 45 20t19 50q0 23 -13.5 38 t-35.5 15z" />
<glyph horiz-adv-x="592" d="M57 0zM227 -11q-84 0 -127 47t-43 138q0 16 2 33l4 34q17 123 80.5 187.5t166.5 64.5q58 0 99 -27t56 -82l20 98h48l-76 -482h-49l11 98q-32 -55 -81.5 -82t-110.5 -27zM441 245q2 15 3 29t1 26q0 76 -36.5 111.5t-95.5 35.5q-162 0 -195 -204q-6 -39 -6 -64 q0 -144 133 -144q35 0 67 12.5t58 38t44.5 65t26.5 94.5zM455 641l-6 -39h-234l6 39h234z" />
<glyph horiz-adv-x="592" d="M57 0zM227 -11q-84 0 -127 47t-43 138q0 16 2 33l4 34q17 123 80.5 187.5t166.5 64.5q58 0 99 -27t56 -82l20 98h48l-76 -482h-49l11 98q-32 -55 -81.5 -82t-110.5 -27zM441 245q2 15 3 29t1 26q0 76 -36.5 111.5t-95.5 35.5q-162 0 -195 -204q-6 -39 -6 -64 q0 -144 133 -144q35 0 67 12.5t58 38t44.5 65t26.5 94.5zM428 679h44q-10 -65 -47 -89t-97 -24q-30 0 -53 5.5t-37.5 18.5t-20.5 35t-1 54h44q-8 -44 10.5 -60t60.5 -16t66 16t31 60z" />
<glyph horiz-adv-x="598" d="M408 4l16 103q-32 -59 -82.5 -87t-111.5 -28q-154 0 -154 148q0 11 1 23.5t3 25.5l47 293h55l-45 -284q-2 -13 -3 -24.5t-1 -22.5q0 -60 30 -87t84 -27q79 0 128.5 51t66.5 137l42 257h55l-74 -473q-9 -56 -31.5 -97t-56 -68t-76.5 -40.5t-92 -13.5q-66 0 -114 23.5 t-70 86.5l43 29q18 -53 54 -73t90 -20q76 0 128.5 38t67.5 130z" />
<glyph horiz-adv-x="598" d="M25 0zM408 4l16 103q-32 -59 -82.5 -87t-111.5 -28q-154 0 -154 148q0 11 1 23.5t3 25.5l47 293h55l-45 -284q-2 -13 -3 -24.5t-1 -22.5q0 -60 30 -87t84 -27q79 0 128.5 51t66.5 137l42 257h55l-74 -473q-9 -56 -31.5 -97t-56 -68t-76.5 -40.5t-92 -13.5 q-66 0 -114 23.5t-70 86.5l43 29q18 -53 54 -73t90 -20q76 0 128.5 38t67.5 130zM417 680h74l-1 -5l-121 -107h-49v3z" />
<glyph horiz-adv-x="598" d="M25 0zM356 647l-96 -79h-62v2l135 110h51l99 -110v-2h-59zM408 4l16 103q-32 -59 -82.5 -87t-111.5 -28q-154 0 -154 148q0 11 1 23.5t3 25.5l47 293h55l-45 -284q-2 -13 -3 -24.5t-1 -22.5q0 -60 30 -87t84 -27q79 0 128.5 51t66.5 137l42 257h55l-74 -473 q-9 -56 -31.5 -97t-56 -68t-76.5 -40.5t-92 -13.5q-66 0 -114 23.5t-70 86.5l43 29q18 -53 54 -73t90 -20q76 0 128.5 38t67.5 130z" />
<glyph horiz-adv-x="598" d="M25 0zM421 580q-38 0 -38 35q0 25 14 37t34 12q19 0 29 -9.5t10 -26.5q0 -23 -13.5 -35.5t-35.5 -12.5zM269 580q-37 0 -37 35q0 25 13.5 37t34.5 12q37 0 37 -35q0 -23 -12.5 -36t-35.5 -13zM408 4l16 103q-32 -59 -82.5 -87t-111.5 -28q-154 0 -154 148q0 11 1 23.5 t3 25.5l47 293h55l-45 -284q-2 -13 -3 -24.5t-1 -22.5q0 -60 30 -87t84 -27q79 0 128.5 51t66.5 137l42 257h55l-74 -473q-9 -56 -31.5 -97t-56 -68t-76.5 -40.5t-92 -13.5q-66 0 -114 23.5t-70 86.5l43 29q18 -53 54 -73t90 -20q76 0 128.5 38t67.5 130z" />
<glyph horiz-adv-x="383" d="M323 448l30 -20q-25 -41 -62 -57.5t-84 -16.5q-137 0 -137 131q0 11 1 21.5t3 24.5q14 93 60.5 136.5t121.5 43.5q54 0 83 -22.5t41 -60.5l-35 -18q-10 30 -31.5 47t-61.5 17q-113 0 -135 -143q-2 -14 -3 -24t-1 -21q0 -51 24 -73.5t75 -22.5q37 0 64 13t47 45z" />
<glyph horiz-adv-x="427" d="M336 535q3 19 3 37q0 53 -24.5 77.5t-66.5 24.5q-109 0 -132 -142q-2 -12 -3.5 -22.5t-1.5 -20.5q0 -50 23 -74t67 -24q51 0 87.5 34.5t47.5 109.5zM245 711q42 0 70.5 -19.5t38.5 -58.5l14 68h38l-53 -338h-40l8 69q-22 -40 -56.5 -59t-77.5 -19q-58 0 -88.5 33 t-30.5 98q0 11 1 22.5t3 24.5q12 87 56.5 133t116.5 46z" />
<glyph horiz-adv-x="600" d="M282 499h-39l38 201h59z" />
<glyph horiz-adv-x="207" d="M44 0l89 518h47l-73 -518h-63zM185 706q18 0 28 -10t10 -27q0 -23 -14 -35.5t-35 -12.5q-38 0 -38 37q0 23 13.5 35.5t35.5 12.5z" />
<glyph horiz-adv-x="502" d="M24 166q0 58 18 103.5t51 77.5t79.5 50t102.5 21l17 105h55l-22 -141h-30q-48 0 -87 -14t-67.5 -41t-44 -66t-15.5 -89q0 -63 42 -96t119 -33q66 0 115.5 26t91.5 92l36 -28q-45 -75 -106.5 -107t-146.5 -32q-98 0 -153 45t-55 127zM348 711q38 0 38 -37q0 -23 -13.5 -35 t-34.5 -12q-18 0 -28.5 9.5t-10.5 26.5q0 23 14 35.5t35 12.5z" />
<glyph horiz-adv-x="376" d="M314 273l-7 -46h-271l7 46h271z" />
<glyph horiz-adv-x="689" d="M627 273l-7 -46h-584l7 46h584z" />
<glyph horiz-adv-x="713" d="M329 -11q-119 0 -184 61.5t-65 196.5q0 24 2.5 51t6.5 53q14 97 43 165.5t73.5 111.5t103 63t131.5 20q92 0 146.5 -32.5t79.5 -102.5l-49 -28q-21 63 -66 89.5t-116 26.5q-56 0 -103 -15t-83.5 -51.5t-63 -97t-40.5 -150.5q-9 -59 -9 -104q0 -59 14 -99t40 -64.5 t63 -35.5t84 -11q50 0 92 13.5t74.5 43.5t54.5 77t31 114h-202l7 46h259l-7 -48q-13 -80 -41 -135.5t-68.5 -90.5t-93 -51t-114.5 -16z" />
<glyph horiz-adv-x="608" d="M69 0l111 700h58l-111 -700h-58zM490 0l-291 342l1 3l382 355h69l-385 -354l296 -346h-72z" />
<glyph horiz-adv-x="493" d="M58 0l111 700h55l-111 -700h-55zM381 0l-217 234v4l278 244h65l-278 -245l216 -237h-64z" />
<glyph horiz-adv-x="797" d="M71 10zM630 108q-51 -47 -117 -72.5t-149 -25.5q-142 0 -217.5 73.5t-75.5 200.5q0 88 29 162.5t80.5 127.5t124 83t159.5 30q134 0 204.5 -67.5t70.5 -182.5q0 -54 -12.5 -98.5t-35 -77t-55 -50.5t-72.5 -18q-37 0 -57 17.5t-20 55.5q-23 -42 -59.5 -62t-84.5 -20 q-45 0 -71.5 20.5t-26.5 61.5q0 56 41.5 88.5t122.5 32.5h93q3 18 3 34q0 41 -22 56.5t-63 15.5q-40 0 -65.5 -12.5t-45.5 -34.5l-18 25q46 56 137 56q54 0 85.5 -22.5t31.5 -78.5q0 -17 -3 -38l-15 -90q-2 -5 -2.5 -13.5t-0.5 -14.5q0 -49 51 -49q28 0 53 15t43 43t28.5 68 t10.5 90q0 109 -65.5 165.5t-180.5 56.5q-77 0 -143 -25.5t-115.5 -74t-77.5 -118t-28 -157.5q0 -121 70 -183.5t195 -62.5q75 0 138.5 23t111.5 68zM355 217q57 0 93.5 38t48.5 101l-91 1q-58 0 -89.5 -21t-31.5 -66q0 -53 70 -53z" />
<glyph horiz-adv-x="681" d="M89 350q14 97 40.5 166t65.5 112t91 63t118 20q111 0 167 -56.5t56 -184.5q0 -53 -9 -120q-15 -96 -41.5 -164.5t-66.5 -112t-92.5 -64t-118.5 -20.5q-109 0 -165 55.5t-56 183.5q0 27 3 57.5t8 64.5zM572 468q0 108 -44.5 152t-125.5 44q-50 0 -91 -15.5t-73.5 -52.5 t-56 -97t-37.5 -149q-5 -35 -8 -64.5t-3 -55.5q0 -54 11.5 -91.5t33 -60t53 -32.5t71.5 -10q50 0 91.5 15.5t74 52t56 96.5t38.5 150q5 34 7.5 63t2.5 55z" />
<glyph horiz-adv-x="303" d="M139 0h-55l99 627l-111 -77l-18 44l160 106h36z" />
<glyph horiz-adv-x="577" d="M5 0l8 54l294 250q51 43 85.5 78t55 64.5t29.5 56.5t9 56q0 52 -35.5 78.5t-103.5 26.5q-75 0 -124.5 -30t-90.5 -90l-36 30q46 69 105.5 103t148.5 34q99 0 146 -39t47 -105q0 -35 -10 -67.5t-34 -67.5t-63.5 -75.5t-97.5 -89.5l-253 -219h415l-8 -48h-487z" />
<glyph horiz-adv-x="595" d="M237 -11q-85 0 -137.5 31t-78.5 93l46 29q22 -55 64.5 -80.5t110.5 -25.5q106 0 163 50.5t57 140.5q0 52 -30.5 84t-103.5 32h-103l8 49h101q31 0 60 11.5t51.5 33t35.5 51.5t13 68q0 56 -37 82t-109 26q-66 0 -113 -24t-88 -79l-35 33q45 60 102.5 88.5t143.5 28.5 q94 0 143.5 -37t49.5 -111q0 -32 -9.5 -62t-27.5 -55t-42.5 -44.5t-54.5 -31.5q57 -17 79 -53t22 -83q0 -54 -18.5 -99t-54.5 -77.5t-88.5 -50.5t-119.5 -18z" />
<glyph horiz-adv-x="627" d="M25 190l7 40l314 470h58l-310 -461h326l55 343h55l-54 -343h112l-8 -49h-112l-30 -190h-55l29 190h-387z" />
<glyph horiz-adv-x="583" d="M220 651l-69 -267q44 29 90 41.5t94 12.5q43 0 79.5 -9.5t63.5 -30t42 -52.5t15 -77q0 -59 -20 -110t-57.5 -89t-92.5 -59.5t-124 -21.5q-76 0 -132.5 33t-82.5 96l45 28q21 -53 64.5 -82t112.5 -29q55 0 98 18t72.5 48.5t45 71.5t15.5 87q0 67 -41 100t-120 33 q-60 0 -106.5 -18.5t-91.5 -50.5l-29 16l93 360h388l-8 -49h-344z" />
<glyph horiz-adv-x="633" d="M306 -11q-51 0 -92.5 14t-71 44.5t-45.5 78.5t-16 115q0 23 1.5 48t5.5 53q14 96 43.5 165.5t71.5 114.5t96 67t116 22q154 0 197 -114l-47 -28q-19 51 -60 73t-95 22q-57 0 -101 -22.5t-77 -64.5t-55 -102t-34 -135q-2 -9 -3.5 -26t-2.5 -30q13 34 36.5 62.5t54 48.5 t67 31t77.5 11q94 0 147 -46.5t53 -132.5q0 -57 -18 -106t-52 -85.5t-83.5 -57t-112.5 -20.5zM362 390q-54 0 -94.5 -18.5t-68 -48.5t-41.5 -67t-14 -74q0 -30 10 -56.5t30 -46.5t50.5 -32t71.5 -12q45 0 83.5 14.5t66 42t43.5 68t16 91.5q0 64 -38.5 101.5t-114.5 37.5z " />
<glyph horiz-adv-x="490" d="M118 0q14 87 46 179t78 179t105 163t127 130h-376l8 49h451l-8 -52q-45 -24 -87 -63.5t-80 -90t-71 -110t-60 -123.5t-46.5 -130.5t-30.5 -130.5h-56z" />
<glyph horiz-adv-x="626" d="M271 -11q-105 0 -159.5 44.5t-54.5 122.5q0 45 14 82t39 64t59 44.5t73 24.5q-49 14 -76.5 46.5t-27.5 83.5t17.5 90.5t49 66t76 40t99.5 13.5q95 0 144 -36.5t49 -106.5q0 -40 -11.5 -73t-32 -58t-49 -42t-62.5 -26q57 -12 92 -48t35 -97q0 -54 -20 -97.5t-56 -74 t-86.5 -47t-111.5 -16.5zM334 395q36 0 69.5 10.5t59 31.5t41 51.5t15.5 71.5q0 106 -143 106q-87 0 -136 -42t-49 -120q0 -51 35.5 -80t107.5 -29zM276 36q42 0 81 12t69 35t47.5 58t17.5 81q0 59 -43 92t-122 33q-48 0 -87.5 -13t-67.5 -37t-43 -58.5t-15 -77.5 q0 -60 41 -92.5t122 -32.5z" />
<glyph horiz-adv-x="633" d="M301 308q53 0 93.5 19t68 49t41.5 67.5t14 74.5q0 30 -10 56.5t-30 46.5t-50.5 32t-71.5 12q-45 0 -83.5 -14.5t-66 -42t-43.5 -68t-16 -91.5q0 -65 38.5 -103t115.5 -38zM356 711q51 0 92.5 -14t71 -44.5t46 -78.5t16.5 -115q0 -23 -2 -48t-6 -53q-14 -96 -43.5 -165.5 t-71.5 -114.5t-96 -67t-116 -22q-154 0 -197 114l47 28q19 -51 60 -73t95 -22q57 0 101 22.5t77 64.5t55 102t34 135q2 9 3.5 26t2.5 29q-27 -70 -90 -112t-145 -42q-93 0 -146.5 46.5t-53.5 134.5q0 57 18 106t52 85.5t83.5 57t112.5 20.5z" />
<glyph d="M52 300q12 84 38 143t64.5 96.5t89 54.5t112.5 17q105 0 162.5 -51.5t57.5 -169.5q0 -20 -2 -42.5t-6 -47.5q-12 -83 -38 -142t-64.5 -96.5t-89 -55t-112.5 -17.5q-105 0 -162 51.5t-57 168.5q0 21 1.5 43t5.5 48zM521 391q0 48 -11.5 81.5t-33 53.5t-53 29t-71.5 9 q-48 0 -88 -13t-70.5 -43.5t-52.5 -81t-34 -126.5q-4 -26 -6 -49t-2 -43q0 -48 11.5 -81t33 -53.5t53 -29t71.5 -8.5q48 0 88 13t71 43.5t52.5 81t33.5 126.5q5 26 6.5 48.5t1.5 42.5z" />
<glyph d="M82 51h168l74 476l-105 -77l-18 44l155 106h35l-87 -549h176l-7 -51h-399z" />
<glyph d="M48 0l9 53l259 207q44 35 74.5 63t50 52t29.5 46t12 45q5 51 -26.5 74.5t-96.5 23.5q-67 0 -112 -27t-81 -82l-35 29q43 62 98.5 94.5t135.5 32.5q94 0 136 -37t36 -105q-2 -27 -12.5 -53t-32 -54.5t-57 -61t-87.5 -73.5l-222 -180l377 1l-8 -48h-447z" />
<glyph d="M245 -111q-85 0 -137 31t-78 93l45 29q22 -55 64.5 -80.5t111.5 -25.5q105 0 162.5 50.5t57.5 140.5q0 52 -30.5 84t-104.5 32h-103l8 49h101q32 0 61 11.5t51.5 33t35.5 51.5t13 68q0 56 -37.5 82t-109.5 26q-66 0 -112.5 -24t-87.5 -79l-36 33q45 60 103 88.5t144 28.5 q94 0 143 -37t49 -111q0 -65 -36.5 -117t-96.5 -76q57 -17 79 -53t22 -83q0 -54 -19 -99t-55 -77.5t-88.5 -50.5t-119.5 -18z" />
<glyph d="M11 90l6 40l315 470h58l-311 -461h327l54 343h56l-55 -343h113l-8 -49h-113l-30 -190h-55l30 190h-387z" />
<glyph d="M219 551l-70 -267q44 29 90 41.5t94 12.5q43 0 80 -9.5t63.5 -30t41.5 -52.5t15 -77q0 -59 -19.5 -110t-57 -89t-92 -59.5t-124.5 -21.5q-76 0 -133 33t-83 96l46 28q21 -53 64.5 -82t112.5 -29q55 0 98 18t72.5 49t44.5 72t15 87q0 66 -41 99t-119 33 q-61 0 -107.5 -18.5t-91.5 -50.5l-29 16l93 360h388l-8 -49h-343z" />
<glyph d="M282 -11q-51 0 -92.5 14t-71 44.5t-45.5 78.5t-16 115q0 23 1.5 48t5.5 53q14 96 43.5 165.5t71.5 114.5t96 67t116 22q154 0 197 -114l-47 -28q-19 51 -60 73t-95 22q-57 0 -101 -22.5t-77 -64.5t-55 -102t-34 -135q-2 -9 -3.5 -26t-2.5 -30q13 34 36.5 62.5t54 48.5 t67 31t77.5 11q93 0 146.5 -46.5t53.5 -132.5q0 -57 -18 -106t-52 -85.5t-83.5 -57t-112.5 -20.5zM338 390q-54 0 -94.5 -18.5t-68 -48.5t-41.5 -67t-14 -74q0 -30 10 -56.5t30 -46.5t50.5 -32t71.5 -12q45 0 83.5 14.5t66 42t43.5 68t16 91.5q0 64 -38.5 101.5t-114.5 37.5 z" />
<glyph d="M149 -100q14 87 46 179t78 179t104.5 163t126.5 130h-375l8 49h451l-9 -52q-67 -36 -127.5 -105.5t-110 -158t-85 -188.5t-51.5 -196h-56z" />
<glyph d="M260 -11q-105 0 -159.5 44.5t-54.5 122.5q0 45 14 82t39 64t59 44.5t73 24.5q-49 14 -76.5 46.5t-27.5 83.5t17.5 90.5t49 66t76.5 40t100 13.5q94 0 143 -36.5t49 -106.5q0 -81 -43 -131.5t-112 -67.5q58 -12 92.5 -48t34.5 -97q0 -54 -19.5 -97.5t-55.5 -74t-86.5 -47 t-112.5 -16.5zM323 395q36 0 69.5 10.5t59 31.5t41 51.5t15.5 71.5q0 106 -143 106q-86 0 -135 -42t-49 -120q0 -51 35.5 -80t106.5 -29zM265 36q42 0 81 12t69 35t47.5 58t17.5 81q0 59 -42.5 92t-122.5 33q-48 0 -87.5 -13t-67.5 -37t-43 -58.5t-15 -77.5q0 -60 41 -92.5 t122 -32.5z" />
<glyph d="M287 208q54 0 94.5 19t68 49t41.5 67.5t14 74.5q0 30 -10 56.5t-30.5 46.5t-51 32t-71.5 12q-45 0 -83 -14.5t-66 -42t-44 -68t-16 -91.5q0 -65 39 -103t115 -38zM342 611q51 0 92.5 -14t71 -44.5t46 -78.5t16.5 -115q0 -23 -1.5 -48t-6.5 -53q-14 -96 -43 -165.5 t-71.5 -114.5t-96.5 -67t-116 -22q-76 0 -126 28.5t-70 85.5l47 28q18 -51 59 -73t95 -22q57 0 101.5 22.5t77 64.5t54.5 102t34 135q2 9 3.5 26t2.5 29q-27 -70 -90 -112t-145 -42q-93 0 -146.5 46.5t-53.5 134.5q0 57 18 106t52 85.5t83.5 57t112.5 20.5z" />
<glyph horiz-adv-x="626" d="M74 300q12 84 37 143t61 96.5t83.5 54.5t105.5 17q100 0 152.5 -50.5t52.5 -165.5q0 -21 -1.5 -45t-5.5 -50q-12 -83 -37 -142t-61.5 -96.5t-84.5 -55t-106 -17.5q-98 0 -151 50.5t-53 164.5q0 22 2 45.5t6 50.5zM512 396q0 47 -10.5 79.5t-30 52t-48.5 28t-65 8.5 q-44 0 -81 -13t-66 -43.5t-49.5 -81t-32.5 -126.5q-9 -57 -9 -98q0 -47 10.5 -78.5t30 -51t48.5 -28t65 -8.5q45 0 82 13t66 43.5t49.5 81t32.5 126.5q5 28 6.5 51.5t1.5 44.5z" />
<glyph horiz-adv-x="279" d="M138 0h-54l83 527l-107 -77l-17 44l155 106h35z" />
<glyph horiz-adv-x="509" d="M8 0l8 46l254 217q43 36 72 66t47 55.5t25.5 48.5t7.5 47q0 45 -29 65t-85 20q-62 0 -104 -27t-76 -80l-36 29q40 60 92.5 92t132.5 32q81 0 120.5 -32t39.5 -90q0 -28 -9 -56t-29.5 -59t-54 -66.5t-83.5 -78.5l-215 -183h344l-7 -46h-415z" />
<glyph horiz-adv-x="566" d="M212 -111q-153 0 -201 127l42 28q20 -54 59.5 -82t104.5 -28q100 0 156 51t56 141q0 52 -29 84t-100 32h-98l7 50h96q30 0 58 11.5t49.5 33t34 51.5t12.5 68q0 109 -140 109q-62 0 -105 -23t-82 -81l-37 33q45 63 99.5 90t135.5 27q90 0 138 -37t48 -110 q0 -66 -35.5 -118t-95.5 -77q56 -17 77.5 -53t21.5 -84q0 -53 -18 -98t-53 -77t-85.5 -50t-115.5 -18z" />
<glyph horiz-adv-x="591" d="M12 90l6 39l302 471h55l-298 -465h311l56 347h53l-55 -347h108l-7 -45h-108l-30 -190h-53l29 190h-369z" />
<glyph horiz-adv-x="551" d="M201 552l-70 -268q42 29 85.5 41.5t88.5 12.5q42 0 77 -9.5t60.5 -30.5t39.5 -54t14 -79q0 -58 -19.5 -108.5t-56.5 -87.5t-89 -58.5t-116 -21.5q-74 0 -127.5 31t-77.5 94l42 28q20 -49 60.5 -78.5t109.5 -29.5q51 0 91.5 18t68.5 49t43 72t15 87q0 132 -155 132 q-55 0 -99 -18t-86 -50l-30 16l94 360h367l-8 -48h-322z" />
<glyph horiz-adv-x="604" d="M293 -11q-48 0 -88 14t-68.5 44t-44 78t-15.5 116q0 23 1.5 48t6.5 53q13 96 41 166t68 115t91 66.5t112 21.5q72 0 119.5 -28.5t66.5 -85.5l-44 -28q-18 51 -57 73t-90 22q-54 0 -96 -22.5t-73 -64t-51.5 -101t-32.5 -134.5q-2 -11 -4 -30t-3 -33q12 36 33 65t50.5 49.5 t65 32t75.5 11.5q90 0 141 -46.5t51 -132.5q0 -57 -17 -106t-49.5 -85.5t-80 -57t-108.5 -20.5zM345 390q-47 0 -85 -17t-64.5 -46t-41 -66.5t-14.5 -78.5q0 -29 9 -55.5t28 -47t48 -32.5t68 -12q42 0 78.5 15t63.5 42.5t42 67.5t15 91q0 64 -37 101.5t-110 37.5z" />
<glyph horiz-adv-x="461" d="M97 -100q13 87 43.5 179t74.5 179t99.5 163t120.5 130h-357l8 49h428l-7 -52q-64 -36 -121.5 -105.5t-104.5 -158t-81 -188.5t-49 -196h-54z" />
<glyph horiz-adv-x="596" d="M254 -11q-99 0 -150.5 44t-51.5 122q0 46 13.5 82.5t37 64t55.5 45t69 25.5q-47 13 -73 45t-26 84q0 51 17 90.5t47.5 66t73.5 40t95 13.5q90 0 136.5 -36.5t46.5 -106.5q0 -81 -41.5 -131t-106.5 -67q54 -12 87 -48t33 -96q0 -55 -19 -99t-53.5 -74.5t-82.5 -47 t-107 -16.5zM315 395q36 0 67.5 11t55.5 32t38 52t14 71q0 51 -33.5 78t-100.5 27q-82 0 -128 -42t-46 -120q0 -51 33 -80t100 -29zM259 36q41 0 78 12t64.5 36t44 59t16.5 80q0 58 -40 91t-115 33q-92 0 -146.5 -50t-54.5 -137q0 -60 38 -92t115 -32z" />
<glyph horiz-adv-x="604" d="M267 208q46 0 84 17.5t65 47t41.5 68t14.5 79.5q0 29 -9 55t-28 46t-48 32t-68 12q-41 0 -77 -13.5t-63 -40.5t-43 -67.5t-16 -94.5q0 -65 37 -103t110 -38zM320 611q48 0 88 -13.5t68 -43.5t43.5 -77.5t15.5 -115.5q0 -23 -1.5 -48t-5.5 -54q-14 -96 -41.5 -166 t-67.5 -115.5t-91.5 -67t-111.5 -21.5q-72 0 -119.5 29t-67.5 86l44 27q18 -51 57.5 -73t90.5 -22q46 0 86.5 17.5t72.5 55.5t56 99.5t37 149.5q2 13 3.5 30.5t2.5 31.5q-11 -36 -32 -65t-50 -50t-65 -32.5t-76 -11.5q-89 0 -140.5 46.5t-51.5 134.5q0 60 18 109.5t51.5 85 t81 55t105.5 19.5z" />
<glyph horiz-adv-x="414" d="M9 0zM206 216q67 0 101 -34t34 -110q0 -17 -1 -32.5t-4 -35.5q-17 -111 -63.5 -161.5t-128.5 -50.5q-67 0 -101 33.5t-34 110.5q0 14 1.5 32t3.5 36q17 114 65 163t127 49zM202 176q-26 0 -48 -8.5t-40 -28.5t-31 -53t-21 -82q-2 -19 -4 -36t-2 -31q0 -59 24 -82t68 -23 q27 0 49 8.5t40 28.5t30.5 53t20.5 82q6 36 6 66q0 59 -24 82.5t-68 23.5z" />
<glyph horiz-adv-x="200" d="M9 0zM74 -200h-46l55 349l-61 -42l-13 39l100 63h29z" />
<glyph horiz-adv-x="353" d="M0 0zM-29 -200l7 40l166 141q26 22 45 40t31 34t17.5 31t5.5 31q0 59 -79 59q-39 0 -64.5 -16.5t-48.5 -48.5l-28 25q28 41 63 60.5t84 19.5q60 0 91 -23t31 -67q0 -21 -6.5 -41t-21 -40t-37 -42.5t-54.5 -48.5l-131 -110h227l-7 -44h-291z" />
<glyph horiz-adv-x="361" d="M0 0zM113 -208q-53 0 -85 19.5t-48 57.5l37 22q13 -29 36 -44t62 -15q55 0 85.5 26t30.5 71q0 29 -16 46t-58 17h-57l6 40h56q35 0 61 23.5t26 61.5q0 59 -80 59q-35 0 -60 -12.5t-47 -44.5l-29 26q26 37 59.5 54t84.5 17q120 0 120 -90q0 -39 -21 -69.5t-57 -44.5 q32 -8 45.5 -28.5t13.5 -51.5q0 -61 -43.5 -100.5t-121.5 -39.5z" />
<glyph horiz-adv-x="383" d="M0 0zM-14 -96l5 35l179 268h46l-174 -261h172l31 187h44l-29 -187h64l-7 -42h-64l-17 -104h-45l17 104h-222z" />
<glyph horiz-adv-x="353" d="M0 0zM101 167l-36 -140q25 16 49.5 22t50.5 6q54 0 86.5 -23.5t32.5 -79.5q0 -34 -12 -63t-34 -50.5t-54.5 -34t-72.5 -12.5q-48 0 -81.5 18.5t-50.5 56.5l36 24q13 -28 36 -43.5t63 -15.5q29 0 52 9t38.5 24.5t24 36.5t8.5 44q0 73 -88 73q-32 0 -57 -9t-48 -26l-26 13 l53 210h235l-6 -40h-199z" />
<glyph horiz-adv-x="388" d="M8 0zM146 -208q-62 0 -100 35t-38 115q0 15 1.5 32.5t3.5 31.5q17 110 68.5 160t126.5 50q46 0 77 -17t43 -51l-35 -24q-11 28 -33.5 40t-53.5 12q-62 0 -98.5 -46.5t-48.5 -132.5l-3 -22q16 37 50 58t82 21q55 0 86.5 -26t31.5 -77q0 -33 -10.5 -62t-31 -50.5t-50.5 -34 t-68 -12.5zM175 17q-26 0 -47.5 -8.5t-36.5 -23.5t-23.5 -35t-8.5 -42q0 -31 21 -54t66 -23q49 0 80.5 30t31.5 84q0 34 -20.5 53t-62.5 19z" />
<glyph horiz-adv-x="301" d="M19 0zM33 -200q7 50 25 102t44.5 100t60 90t71.5 73l-215 -1l7 43h270l-6 -38q-38 -24 -72 -64t-61.5 -89.5t-47 -105t-28.5 -110.5h-48z" />
<glyph horiz-adv-x="382" d="M0 0zM129 -208q-63 0 -96 25.5t-33 73.5q0 53 29 84.5t73 40.5q-55 17 -55 77t40 91.5t107 31.5q116 0 116 -88q0 -45 -24 -74t-62 -40q32 -8 51 -29.5t19 -56.5q0 -64 -45 -100t-120 -36zM166 34q42 0 71 22.5t29 64.5q0 56 -76 56q-48 0 -74 -22t-26 -62q0 -59 76 -59z M133 -171q49 0 82 25t33 73q0 32 -22.5 49.5t-64.5 17.5q-53 0 -83.5 -26t-30.5 -71q0 -32 22 -50t64 -18z" />
<glyph horiz-adv-x="387" d="M0 0zM152 -11q25 0 46 9t36 24.5t23.5 35.5t8.5 42q0 31 -21 53.5t-66 22.5q-46 0 -79 -29t-33 -86q0 -34 21.5 -53t63.5 -19zM180 216q62 0 99.5 -35t37.5 -115q0 -15 -1.5 -32.5t-3.5 -31.5q-17 -110 -68 -160t-127 -50q-45 0 -76 16.5t-44 49.5q0 1 5.5 4.5t11.5 8 t11.5 8t6.5 3.5q11 -27 34 -39t53 -12q59 0 96 43t51 134l4 24q-17 -38 -51 -59.5t-82 -21.5q-54 0 -85.5 27t-31.5 78q0 35 11 64.5t32 50.5t50.5 33t66.5 12z" />
<glyph horiz-adv-x="309" d="M3 0zM122 -136h-38l16 98h-97l6 35h96l16 100h37l-15 -100h95l-6 -35h-95z" />
<glyph horiz-adv-x="309" d="M1 -3zM236 -3l-5 -35h-230l6 35h229z" />
<glyph horiz-adv-x="309" d="M0 0zM241 36l-6 -36h-229l6 36h229zM228 -40l-5 -36h-230l6 36h229z" />
<glyph horiz-adv-x="210" d="M0 0zM106 -255q-54 7 -80.5 48t-26.5 115q0 33 6 75q16 109 60 168.5t114 67.5l-1 -38q-50 -8 -83.5 -54.5t-49.5 -143.5q-4 -22 -5 -41t-1 -36q0 -57 19.5 -86.5t56.5 -36.5z" />
<glyph horiz-adv-x="210" d="M0 0zM42 181l9 38q54 -7 80.5 -48t26.5 -115q0 -33 -6 -75q-16 -109 -60 -168.5t-114 -67.5l1 38q50 8 83.5 54.5t49.5 143.5q4 22 5 41t1 36q0 57 -19.5 86.5t-56.5 36.5z" />
<glyph horiz-adv-x="253" d="M181 580q-19 0 -29 9.5t-10 26.5q0 24 14 36.5t34 12.5q39 0 39 -37q0 -23 -13.5 -35.5t-34.5 -12.5zM137 482h55l-75 -482h-55z" />
<glyph horiz-adv-x="493" d="M58 0zM185 -250l-6 25q21 9 36 29.5t20 47.5q-21 -4 -33 6.5t-12 28.5q0 23 12.5 34t31.5 11q18 0 28.5 -10t10.5 -35q0 -22 -6 -44t-17.5 -40.5t-27.5 -32.5t-37 -20zM58 0l111 700h55l-111 -700h-55zM381 0l-217 234v4l278 244h65l-278 -245l216 -237h-64z" />
<glyph horiz-adv-x="713" d="M80 0zM329 -11q-119 0 -184 61.5t-65 196.5q0 24 2.5 51t6.5 53q14 97 43 165.5t73.5 111.5t103 63t131.5 20q92 0 146.5 -32.5t79.5 -102.5l-49 -28q-21 63 -66 89.5t-116 26.5q-56 0 -103 -15t-83.5 -51.5t-63 -97t-40.5 -150.5q-9 -59 -9 -104q0 -59 14 -99t40 -64.5 t63 -35.5t84 -11q50 0 92 13.5t74.5 43.5t54.5 77t31 114h-202l7 46h259l-7 -48q-13 -80 -41 -135.5t-68.5 -90.5t-93 -51t-114.5 -16zM551 897h44q-10 -65 -47 -89t-97 -24q-30 0 -53 5.5t-37.5 18.5t-20.5 35t-1 54h44q-8 -44 10.5 -60t60.5 -16t66 16t31 60z" />
<glyph horiz-adv-x="713" d="M80 0zM465 865l-96 -79h-62v2l135 110h51l99 -110v-2h-59zM329 -11q-119 0 -184 61.5t-65 196.5q0 24 2.5 51t6.5 53q14 97 43 165.5t73.5 111.5t103 63t131.5 20q92 0 146.5 -32.5t79.5 -102.5l-49 -28q-21 63 -66 89.5t-116 26.5q-56 0 -103 -15t-83.5 -51.5t-63 -97 t-40.5 -150.5q-9 -59 -9 -104q0 -59 14 -99t40 -64.5t63 -35.5t84 -11q50 0 92 13.5t74.5 43.5t54.5 77t31 114h-202l7 46h259l-7 -48q-13 -80 -41 -135.5t-68.5 -90.5t-93 -51t-114.5 -16z" />
<glyph horiz-adv-x="713" d="M80 0zM277 -250l-6 25q21 9 36 29.5t20 47.5q-21 -4 -33 6.5t-12 28.5q0 23 12.5 34t31.5 11q18 0 28.5 -10t10.5 -35q0 -22 -6 -44t-17.5 -40.5t-27.5 -32.5t-37 -20zM329 -11q-119 0 -184 61.5t-65 196.5q0 24 2.5 51t6.5 53q14 97 43 165.5t73.5 111.5t103 63 t131.5 20q92 0 146.5 -32.5t79.5 -102.5l-49 -28q-21 63 -66 89.5t-116 26.5q-56 0 -103 -15t-83.5 -51.5t-63 -97t-40.5 -150.5q-9 -59 -9 -104q0 -59 14 -99t40 -64.5t63 -35.5t84 -11q50 0 92 13.5t74.5 43.5t54.5 77t31 114h-202l7 46h259l-7 -48q-13 -80 -41 -135.5 t-68.5 -90.5t-93 -51t-114.5 -16z" />
<glyph horiz-adv-x="713" d="M80 0zM329 -11q-119 0 -184 61.5t-65 196.5q0 24 2.5 51t6.5 53q14 97 43 165.5t73.5 111.5t103 63t131.5 20q92 0 146.5 -32.5t79.5 -102.5l-49 -28q-21 63 -66 89.5t-116 26.5q-56 0 -103 -15t-83.5 -51.5t-63 -97t-40.5 -150.5q-9 -59 -9 -104q0 -59 14 -99t40 -64.5 t63 -35.5t84 -11q50 0 92 13.5t74.5 43.5t54.5 77t31 114h-202l7 46h259l-7 -48q-13 -80 -41 -135.5t-68.5 -90.5t-93 -51t-114.5 -16zM456 798q-20 0 -29 9.5t-9 26.5q0 24 14 36t34 12q18 0 28.5 -10t10.5 -27q0 -22 -14 -34.5t-35 -12.5z" />
<glyph horiz-adv-x="608" d="M69 0zM245 -250l-6 25q21 9 36 29.5t20 47.5q-21 -4 -33 6.5t-12 28.5q0 23 12.5 34t31.5 11q18 0 28.5 -10t10.5 -35q0 -22 -6 -44t-17.5 -40.5t-27.5 -32.5t-37 -20zM69 0l111 700h58l-111 -700h-58zM490 0l-291 342l1 3l382 355h69l-385 -354l296 -346h-72z" />
<glyph horiz-adv-x="415" d="M370 376l-8 -46h-309l7 46h310z" />
<glyph horiz-adv-x="585" d="M539 376l-7 -46h-479l7 46h479z" />
<glyph horiz-adv-x="781" d="M734 376l-7 -46h-675l7 46h675z" />
<glyph horiz-adv-x="585" d="M539 376l-7 -46h-479l7 46h479z" />
<glyph horiz-adv-x="250" d="M224 700l-111 -700h-55l111 700h55z" />
<glyph horiz-adv-x="589" d="M80 0l69 438h-92l7 44h92l12 74q14 84 54 120.5t105 36.5q20 0 40.5 -3.5t37.5 -12.5l-16 -47q-14 7 -28 10.5t-34 3.5q-42 0 -69 -24.5t-38 -88.5l-10 -69h152l-7 -44h-152l-69 -438h-54zM563 700l-111 -700h-55l111 700h55z" />
<glyph horiz-adv-x="589" d="M0 0z" />
</font>
</defs>
</svg>
